<svg width="1440" height="189" viewBox="0 0 1440 189" fill="none" xmlns="http://www.w3.org/2000/svg">
<path d="M1381.09 95.2642C1384.68 82.4958 1421.86 65.3383 1440 58.3556V202H-0.338411C-0.837662 155.282 -1.53661 61.6474 -0.338411 60.8494C29.1174 60.3506 38.1039 74.316 49.5867 80.8C68.7579 56.0612 98.1804 60.8494 110.495 66.3358C117.984 44.2239 146.541 0 200.86 0C255.178 0 287.729 47.8815 297.215 71.8222C303.872 67.0008 322.178 56.6598 342.148 53.8667C412.542 54.3654 411.044 114.217 418.533 115.714C426.122 102.147 449.653 104.741 460.47 107.733C462.301 94.2667 472.652 66.5353 499.412 63.3432C532.861 59.3531 548.837 88.2815 549.337 100.252C561.319 106.736 564.813 112.222 569.307 123.694C573.8 123.694 578.792 118.706 599.262 123.694C614.739 103.743 629.217 99.7531 653.68 100.252C708.098 54.3654 754.029 91.7728 764.514 110.227C800.46 92.7704 816.935 110.227 840.899 131.175C887.329 85.2889 934.758 114.716 945.242 125.19C964.713 115.215 981.688 115.215 996.665 122.696C1014.24 101.948 1038.27 112.056 1048.09 119.704C1050.92 108.232 1064.56 84.9896 1096.52 83.7926C1136.46 82.2963 1142.95 105.738 1157.42 129.18C1172.6 114.018 1191.37 121.533 1198.86 127.185C1206.18 110.892 1229.82 77.8074 1265.76 75.8123C1311.69 73.8173 1324.17 101.249 1334.16 114.217C1349.64 102.247 1358.12 95.763 1381.09 95.2642Z" fill="white"/>
</svg>
