<svg width="13" height="12" viewBox="0 0 13 12" fill="none" xmlns="http://www.w3.org/2000/svg">
<g opacity="0.5" clip-path="url(#clip0)">
<path d="M12.243 10.2955L9.81416 7.97301C10.5537 6.91444 10.855 5.63068 10.6595 4.37143C10.464 3.11219 9.78568 1.9675 8.75644 1.16002C7.7272 0.352543 6.42065 -0.059984 5.09095 0.00268104C3.76124 0.0653461 2.50345 0.598723 1.56223 1.49906C0.621011 2.3994 0.0636637 3.60233 -0.0013997 4.87385C-0.0664632 6.14538 0.365409 7.39459 1.21021 8.37849C2.05502 9.36239 3.25234 10.0106 4.5693 10.1971C5.88626 10.3836 7.22868 10.095 8.33544 9.38751L10.7643 11.7095C10.962 11.894 11.2273 11.9972 11.5036 11.9972C11.7799 11.9972 12.0452 11.894 12.243 11.7095C12.439 11.522 12.5492 11.2677 12.5492 11.0025C12.5492 10.7373 12.439 10.483 12.243 10.2955ZM5.35969 1.50251C6.10946 1.50251 6.8424 1.71511 7.46582 2.11343C8.08923 2.51175 8.57513 3.0779 8.86205 3.74028C9.14898 4.40267 9.22405 5.13153 9.07778 5.83471C8.93151 6.5379 8.57045 7.18381 8.04028 7.69077C7.51011 8.19774 6.83463 8.54299 6.09926 8.68286C5.36389 8.82273 4.60166 8.75094 3.90896 8.47657C3.21626 8.20221 2.6242 7.73758 2.20764 7.14145C1.79109 6.54533 1.56875 5.84447 1.56875 5.12751C1.56986 4.16643 1.96962 3.24501 2.68032 2.56542C3.39101 1.88583 4.35461 1.50357 5.35969 1.50251Z" fill="#4A5568"/>
</g>
<defs>
<clipPath id="clip0">
<rect width="12.5493" height="12" fill="white"/>
</clipPath>
</defs>
</svg>
