<svg width="12" height="9" viewBox="0 0 12 9" fill="none" xmlns="http://www.w3.org/2000/svg">
<path d="M10.2924 0.292919L3.99943 6.58592L1.70643 4.29292C1.51783 4.11076 1.26523 4.00997 1.00303 4.01224C0.740833 4.01452 0.49002 4.11969 0.304612 4.3051C0.119204 4.49051 0.014035 4.74132 0.0117566 5.00352C0.00947813 5.26571 0.110273 5.51832 0.292431 5.70692L3.29243 8.70692C3.47996 8.89439 3.73427 8.99971 3.99943 8.99971C4.2646 8.99971 4.5189 8.89439 4.70643 8.70692L11.7064 1.70692C11.8886 1.51832 11.9894 1.26571 11.9871 1.00352C11.9848 0.741321 11.8797 0.490508 11.6942 0.3051C11.5088 0.119692 11.258 0.0145233 10.9958 0.0122448C10.7336 0.00996641 10.481 0.110761 10.2924 0.292919Z" fill="#fff"/>
</svg>
