<svg width="291" height="56" viewBox="0 0 291 56" fill="none" xmlns="http://www.w3.org/2000/svg">
<path d="M15.9095 0.0938568C14.5976 0.212002 13.25 0.42466 12.229 0.678669C11.7778 0.790905 10.7212 1.10398 10.5074 1.19259C10.4303 1.22213 10.2047 1.30483 10.0029 1.36981C9.42109 1.56474 8.05573 2.07276 7.86577 2.17318C7.04655 2.58669 6.27482 3.37824 5.94239 4.15208C5.60401 4.93774 5.5684 5.65251 5.81772 6.60947C5.98394 7.24154 5.97801 7.38921 5.58027 11.1639C5.51497 11.7664 5.44967 12.3749 5.4378 12.5225C5.41999 12.6702 5.36656 13.1723 5.31313 13.6449C5.18253 14.8263 4.99257 16.628 4.96289 16.9825C4.93321 17.2719 4.7848 18.666 4.48798 21.4128C4.40487 22.1571 4.3277 22.9192 4.30989 23.0964C4.29208 23.2736 4.18523 24.2424 4.07244 25.2525C3.95965 26.2567 3.85279 27.2432 3.83498 27.4382C3.81717 27.6331 3.76375 28.1116 3.71625 28.5014C3.63315 29.1808 3.57378 29.7124 3.53223 30.0964C3.52035 30.1909 3.47286 30.6044 3.41944 31.012C3.37195 31.4196 3.28884 32.1225 3.23541 32.5774C3.18198 33.0322 3.12856 33.4812 3.11668 33.5816C3.04545 34.196 2.8258 35.8382 2.73082 36.5647C2.66552 37.0373 2.60022 37.5276 2.58835 37.6576C2.57054 37.7875 2.52898 38.0652 2.4993 38.2778C2.46368 38.4905 2.42807 38.7563 2.41026 38.8685C2.35683 39.2761 2.01846 41.3909 1.89973 42.0879C1.82849 42.4778 1.75132 42.9268 1.72164 43.0922C1.69789 43.2517 1.63259 43.612 1.57917 43.8896C1.53168 44.1673 1.47231 44.4685 1.46044 44.563C1.44263 44.6576 1.40108 44.8702 1.3714 45.0356C1.33578 45.201 1.30016 45.4019 1.28235 45.4846C1.25267 45.6854 1.1755 46.0812 1.14581 46.223C1.08051 46.5538 0.95585 47.1917 0.932105 47.3453C0.866805 47.7234 0.659033 48.8339 0.599669 49.0879C0.439388 49.8027 0.0475884 52.2542 0.0179066 52.7209C-0.0533296 53.9436 0.457197 55.574 0.991468 55.8162C1.56729 56.0761 2.03627 55.8694 2.67739 55.0719C2.92672 54.7647 3.09294 54.4694 3.18198 54.1976C3.22947 54.0382 3.28884 53.8609 3.30665 53.8137C3.62127 52.963 4.4583 50.482 4.80854 49.3538C4.89759 49.0643 5.58027 46.3884 5.63963 46.0871C5.66931 45.9335 5.71087 45.7563 5.72274 45.6913C5.74055 45.6263 5.84741 45.1715 5.9602 44.6871C6.51821 42.2947 6.80316 41.1723 6.91001 40.9242C7.0881 40.5048 7.40867 40.4162 7.8064 40.682C8.04386 40.8356 8.55438 41.2432 8.72654 41.4086C8.77403 41.4559 8.95212 41.6036 9.1124 41.7335C9.27862 41.8635 9.42109 41.9816 9.4389 41.9993C9.55763 42.1234 10.27 42.6491 10.3175 42.6491C10.3531 42.6491 10.3887 42.6728 10.4006 42.7023C10.4362 42.8027 12.977 44.4272 13.3866 44.6044C13.4994 44.6576 13.7012 44.7698 14.1167 45.0238C14.2177 45.0888 14.3067 45.1183 14.3067 45.0888C14.3067 45.0652 14.3305 45.0711 14.3542 45.1065C14.4136 45.1951 15.6246 45.8213 16.5032 46.223C16.9128 46.4061 17.4174 46.6365 17.6311 46.7369C18.4325 47.1149 21.1038 48.1841 22.2021 48.5681C22.3801 48.6272 22.7007 48.7394 22.9144 48.8162C23.9177 49.1765 24.8022 49.4719 25.6451 49.7436C27.1352 50.228 27.8772 50.4938 28.7914 50.8719C29.7056 51.25 29.7294 51.2677 30.6851 51.8998C31.0235 52.1242 31.4924 52.4314 31.724 52.5909C32.466 53.0812 34.0866 53.8432 34.7812 54.0263C36.5205 54.4812 37.7909 54.558 39.2631 54.3099C39.7855 54.2213 40.7472 53.9791 40.9906 53.8787C41.0559 53.8491 41.3052 53.7546 41.5427 53.666C42.724 53.2289 44.5584 52.0888 45.7575 51.0491C45.8465 50.9723 46.0128 50.8424 46.1256 50.7538C46.3036 50.6238 46.7251 50.2753 47.2238 49.8441C47.2891 49.7909 47.5443 49.5782 47.7877 49.3715C48.0311 49.1706 48.2448 48.9875 48.2626 48.9698C48.3398 48.8871 48.9038 48.5149 49.0344 48.4559C49.2896 48.3495 49.4796 48.4795 49.913 49.0584C50.6016 49.9858 51.118 50.5588 51.5217 50.8424C52.3587 51.4213 53.9615 52.012 55.0657 52.1419C55.594 52.201 57.2147 52.201 57.6599 52.1419C58.6809 52.0002 59.9098 51.6753 60.818 51.3031C60.9486 51.25 61.1327 51.1732 61.2336 51.1377C61.8984 50.8719 63.899 49.7732 63.9999 49.6137C64.0177 49.5782 64.0593 49.5546 64.083 49.5605C64.1186 49.5723 64.8191 49.0761 65.5196 48.5445C65.8224 48.3082 66.2914 47.9183 66.6357 47.6111C67.0868 47.2036 69.8175 44.4685 69.7938 44.4449C69.7819 44.4331 69.966 44.2145 70.2094 43.9664C70.4468 43.7124 70.8208 43.2871 71.0404 43.0272C71.5272 42.4483 71.5985 42.3951 71.7884 42.4778C71.8953 42.5251 71.9487 42.6314 72.0318 42.9917C72.1921 43.6474 72.2099 44.4036 72.1208 47.5816C72.0734 49.1411 72.0377 50.8128 72.0377 51.3031C72.0437 52.1833 72.0437 52.1951 72.2396 52.585C72.6611 53.4356 73.5693 53.9909 74.721 54.0854C75.3146 54.1327 75.7836 54.0382 76.1457 53.796C76.6028 53.4888 76.7334 53.1993 76.959 52.0415C77.1014 51.3031 77.422 49.72 77.4695 49.531C77.5348 49.2533 77.7544 48.2373 77.796 48.0365C77.9088 47.4221 78.7102 44.4626 78.8942 43.9782C78.9536 43.8128 79.0783 43.482 79.1673 43.2398C79.4582 42.4365 80.0993 41.1014 80.3071 40.8474C80.3308 40.812 80.3724 40.747 80.3961 40.6998C80.4199 40.6525 80.4852 40.5403 80.5445 40.4576C81.1857 39.5065 81.156 39.542 81.8624 38.7563C82.0702 38.52 82.4323 38.1715 82.6638 37.9825C83.1328 37.6103 84.0529 37.0373 84.1895 37.0373C84.2369 37.0373 84.2963 37.0196 84.3201 36.996C84.3794 36.931 84.7594 36.8069 85.2758 36.6829C86.2078 36.4525 87.9472 36.4702 88.2202 36.7183C88.3508 36.8365 88.3687 37.3149 88.2737 38.1597C88.2262 38.6204 88.1431 39.4592 87.9828 41.2019C87.87 42.3774 87.6266 45.5495 87.5554 46.7251C87.4782 48.0365 87.5257 48.8221 87.7216 49.5014C87.7691 49.6787 87.8166 49.85 87.8225 49.8854C87.8284 49.9149 87.87 50.039 87.9116 50.1512C88.6595 52.0947 90.0486 53.2702 92.0729 53.6719C92.4766 53.7487 93.9429 53.7664 94.2991 53.6955C94.495 53.6601 94.7383 53.6128 94.8333 53.601C95.0589 53.5656 95.9137 53.2879 96.1096 53.1934C96.1928 53.1521 96.4065 53.0457 96.5846 52.9571C96.9051 52.7976 98.1161 52.0238 98.3773 51.8052C98.4545 51.7462 98.7573 51.4981 99.0481 51.2559C99.7546 50.6829 100.96 49.4365 101.5 48.7335C101.731 48.4263 101.951 48.1428 101.975 48.1133C102.123 47.9301 102.889 46.7546 103.085 46.4002C103.215 46.1698 103.346 45.9453 103.382 45.8863C103.411 45.8331 103.56 45.5614 103.708 45.2837C103.952 44.8171 104.361 44.3031 104.486 44.3031C104.516 44.3031 104.539 44.3504 104.539 44.4036C104.539 44.5985 104.711 46.9909 104.753 47.3158C104.812 47.8592 104.955 48.7394 105.044 49.0879C105.246 49.9149 105.335 50.163 105.62 50.7419C105.875 51.25 106.011 51.439 106.38 51.8111C106.89 52.3192 107.585 52.7327 108.321 52.963C108.95 53.158 109.211 53.1934 109.941 53.1875C111.829 53.1816 113.557 52.1597 115.818 49.7023C117 48.4263 117.273 48.1251 117.712 47.6111C118.116 47.1504 118.674 46.5301 119.131 46.0398C119.172 45.9926 119.202 45.9571 119.19 45.9571C119.172 45.9571 119.285 45.8272 119.434 45.6618C119.582 45.5023 119.719 45.3841 119.736 45.4137C119.76 45.4373 119.831 45.7327 119.903 46.0753C119.974 46.4179 120.104 47.0027 120.182 47.3749C120.265 47.747 120.342 48.1192 120.36 48.2019C120.419 48.5622 120.835 49.9149 120.953 50.1512C120.995 50.2339 121.09 50.423 121.167 50.5765C121.244 50.736 121.327 50.8601 121.351 50.8601C121.381 50.8601 121.399 50.8955 121.399 50.9369C121.399 51.1968 122.883 52.455 123.185 52.455C123.251 52.455 123.298 52.4787 123.298 52.5082C123.298 52.5614 123.815 52.7563 124.343 52.8981C125.097 53.1048 126.082 53.1462 127.097 53.0162C127.905 52.9099 129.193 52.4255 129.882 51.9588C130.054 51.8407 130.208 51.7462 130.226 51.7462C130.238 51.7462 130.404 51.628 130.588 51.4863C131.116 51.0846 132.019 50.1158 132.428 49.5133C132.814 48.9344 133.307 48.0246 133.224 48.0246C133.2 48.0246 132.737 48.3436 132.203 48.7335C130.808 49.7436 130.303 49.9858 129.205 50.1749C127.97 50.3875 127.05 50.3403 126.456 50.0331C125.465 49.5192 124.972 48.2728 124.931 46.1934C124.901 44.7344 125.097 43.8542 126.076 41.1133C126.29 40.5107 126.551 39.7664 126.658 39.4592C127.121 38.1006 127.281 37.6517 127.335 37.5394C127.365 37.4744 127.442 37.25 127.513 37.0373C127.578 36.8246 127.691 36.5175 127.75 36.358C127.81 36.1926 127.946 35.8204 128.053 35.531C128.297 34.8398 128.273 34.9048 128.498 34.2609C128.985 32.9023 129.407 31.5732 129.442 31.2837C129.531 30.569 129.169 29.8306 128.582 29.5116C128.012 29.2044 127.537 29.2989 126.89 29.8424C126.557 30.1259 125.72 30.9529 125.495 31.2187C125.138 31.6382 124.604 32.3647 124.42 32.666C124.313 32.8432 124.195 33.0322 124.159 33.0795C124.016 33.2508 123.102 34.9225 122.9 35.3774C122.651 35.9268 120.781 39.6306 120.377 40.3749C120.164 40.7647 119.908 41.2314 119.814 41.4086C119.202 42.5251 118.223 44.1318 118.122 44.1732C118.092 44.185 118.074 44.2204 118.074 44.2559C118.074 44.3858 116.923 45.6086 116.418 46.0162C116.275 46.1284 116.127 46.2525 116.085 46.2938C115.872 46.4947 114.738 47.1799 114.204 47.428C112.642 48.1546 111.307 48.4322 110.666 48.1723C110.428 48.0719 109.823 47.5166 109.823 47.3926C109.823 47.3512 109.799 47.3158 109.763 47.3158C109.734 47.3158 109.686 47.2449 109.668 47.1504C109.645 47.0618 109.603 46.9614 109.573 46.9259C109.544 46.8846 109.508 46.8078 109.496 46.7487C109.478 46.6837 109.431 46.477 109.377 46.282C109.217 45.6441 109.104 44.5867 109.069 43.3875C108.992 40.7884 109.371 38.1774 110.274 35.0584C110.577 33.9892 110.606 33.8238 110.618 33.0795C110.624 32.0694 110.488 31.2187 110.28 31.0002C110.238 30.9588 110.161 30.8525 110.102 30.7639C109.834 30.3445 109.152 30.2263 108.564 30.4981C108.06 30.7225 107.128 31.6677 106.718 32.3706C106.463 32.796 105.252 35.3124 105.252 35.4069C105.252 35.4247 105.163 35.6255 105.05 35.8559C104.937 36.0863 104.842 36.2871 104.836 36.2989C104.83 36.3284 104.747 36.5116 104.094 37.9529C103.839 38.5023 103.601 39.0517 103.56 39.1639C103.483 39.3647 103.198 39.9791 102.646 41.1428C102.485 41.4677 102.218 42.0407 102.04 42.4128C100.93 44.7698 99.8258 46.282 98.3061 47.5048C97.2079 48.3909 95.9553 48.7335 94.8274 48.45C94.3703 48.3377 93.8479 48.1251 93.6936 47.9951C93.652 47.9656 93.5036 47.8415 93.3611 47.7293C92.6428 47.1445 92.2213 46.2584 91.9839 44.8289C91.8533 43.996 91.8474 42.0466 91.9839 40.9597C92.0848 40.1445 92.3876 38.5909 92.6963 37.3031C92.7437 37.1082 92.8328 36.7242 92.8981 36.4466C92.9634 36.169 93.0999 35.6137 93.1949 35.2061C93.7114 33.0618 94.0497 31.3192 93.9963 31.0711C93.9726 30.9588 93.9488 30.8289 93.937 30.7816C93.9073 30.6162 93.6936 30.3917 93.4086 30.2145C93.1355 30.0491 93.0881 30.0373 92.4944 30.0373C91.9186 30.0373 91.8355 30.055 91.509 30.2086C91.0281 30.4449 90.6482 30.8525 90.3395 31.4668C90.0368 32.0694 89.7459 32.3529 89.3778 32.3943C89.2472 32.412 88.802 32.4415 88.4043 32.4593C85.9466 32.5833 83.7027 33.3926 81.7318 34.8694C81.1322 35.3242 80.1646 36.3048 79.6481 36.9901C78.9002 37.9825 78.2709 39.1344 77.6713 40.6111C77.4101 41.2668 77.238 41.6272 77.0955 41.8398C77.0362 41.9284 77.0065 41.9993 77.0302 41.9993C77.048 41.9993 77.0361 42.0407 76.9946 42.0879C76.953 42.1352 76.8996 42.1765 76.8759 42.1765C76.8106 42.1765 76.6622 41.3023 76.5494 40.2863C76.4959 39.8137 76.401 39.0576 76.3357 38.6027C76.1813 37.5335 75.9379 35.9268 75.8964 35.7377C75.8786 35.655 75.8548 35.4542 75.8311 35.2947C75.7895 34.8989 75.4927 33.174 75.2671 31.9571C75.1484 31.3487 75.1187 31.2483 74.9287 30.8348C74.7744 30.5158 74.2164 29.9901 73.8186 29.7951C73.3378 29.5647 72.7204 29.5529 72.2811 29.7774C71.9784 29.9251 71.551 30.374 71.5094 30.5749C71.4916 30.6339 71.4322 30.7934 71.3729 30.9234C71.2779 31.136 71.266 31.2955 71.2957 32.6365C71.3491 35.4837 71.3313 36.4938 71.2126 37.0373C71.0523 37.8171 70.7852 38.5495 70.3103 39.5538C70.1975 39.7841 70.1084 40.0027 70.1084 40.0382C70.1084 40.0736 70.0728 40.1386 70.0372 40.1799C69.9956 40.2213 69.8947 40.3749 69.8175 40.5225C69.6513 40.8297 68.9152 42.0111 68.8618 42.0584C68.844 42.0761 68.7253 42.2238 68.5947 42.3951C68.4641 42.5605 68.2978 42.7732 68.2266 42.8677C68.1554 42.9563 67.9713 43.169 67.8111 43.3344C67.6567 43.5057 67.4549 43.7242 67.3658 43.8246C67.2768 43.9251 67.1877 44.0078 67.164 44.0078C67.1462 44.0078 67.0571 44.0787 66.9681 44.1732C66.6653 44.4685 66.4338 44.6517 65.8402 45.0829C64.9735 45.7149 64.7598 45.8567 64.5104 45.969C64.3858 46.028 64.2077 46.1225 64.1246 46.1816C63.8337 46.3825 62.4683 46.9732 61.6966 47.2272C61.097 47.428 59.7554 47.7765 59.2152 47.8711C58.1348 48.0601 57.0366 48.0601 56.3361 47.877C55.6297 47.6879 54.8461 47.1681 54.4602 46.6306C54.0031 45.9926 53.7063 45.0888 53.5994 43.9841C53.3917 41.8162 53.92 39.5951 55.0598 37.8348C55.2082 37.6044 55.3447 37.374 55.3625 37.3209C55.3863 37.2618 55.4219 37.2145 55.4456 37.2145C55.4694 37.2145 55.6059 37.0491 55.7484 36.8483C56.0096 36.4702 57.3571 35.0939 57.7905 34.7512C57.9211 34.6449 58.1882 34.4322 58.3901 34.2787C58.7463 33.9951 60.2303 32.9259 60.4203 32.8137C60.4737 32.7782 60.7705 32.5833 61.0733 32.3706C61.382 32.158 61.7204 31.9276 61.8272 31.8567C61.9341 31.7858 62.0409 31.6972 62.0647 31.6618C62.0884 31.6204 61.9934 31.3605 61.851 31.0829C61.4948 30.374 60.919 29.801 60.3491 29.5766C59.5714 29.2635 58.6928 29.3048 57.464 29.7124C55.2022 30.4567 53.4332 31.6145 51.8185 33.4162C51.3377 33.9479 50.4769 35.1529 50.1563 35.7436C49.533 36.8896 49.0047 38.201 48.7732 39.1816C48.7197 39.4002 48.6366 39.7487 48.5891 39.9495C48.3161 41.1014 48.227 43.0272 48.322 45.8095C48.3576 46.7369 48.322 46.8787 47.9836 47.2981C47.8708 47.4398 47.6156 47.6761 47.4137 47.8297C47.2119 47.9833 47.0398 48.131 47.0279 48.1546C47.016 48.1782 46.9685 48.2019 46.927 48.2019C46.8854 48.2019 46.8379 48.2196 46.826 48.2432C46.8082 48.2905 46.3689 48.5917 46.1434 48.7158C45.7931 48.8989 45.615 49.0052 45.5319 49.0643C45.3776 49.1765 44.0597 49.7377 43.5789 49.8913C42.8249 50.1394 42.0354 50.3225 41.4121 50.3934C40.3139 50.5175 38.3667 50.3934 37.7375 50.1571C37.6484 50.1217 37.5772 50.104 37.5772 50.1217C37.5772 50.169 36.574 49.7791 36.0872 49.5369C35.4223 49.2061 35.2205 49.0879 34.5794 48.6095C33.677 47.9419 33.4218 47.6466 33.4218 47.2685C33.4218 47.0322 33.6533 46.6955 34.0451 46.3706C34.1401 46.2879 34.5141 45.969 34.8762 45.6618C35.2323 45.3546 35.6063 45.0356 35.7013 44.9529C36.1406 44.5867 37.1142 43.7065 37.5178 43.3225C37.7612 43.0863 38.0462 42.8204 38.1471 42.7259C38.5092 42.3951 39.9814 40.7943 40.1773 40.5166C40.2189 40.4576 40.3257 40.3335 40.4148 40.239C40.8481 39.7782 42.2313 37.8525 42.2372 37.693C42.2432 37.6753 42.3085 37.5512 42.3916 37.4213C42.8249 36.7538 43.4661 35.1293 43.662 34.2078C43.8401 33.3571 43.7629 32.5538 43.4305 31.8685C42.9081 30.7757 41.7861 30.1259 40.0705 29.9133C39.3106 29.8187 37.7197 29.8542 37.1201 29.9782C35.9032 30.2322 34.5497 30.7816 33.6592 31.3841C33.119 31.7504 32.5907 32.1521 32.5907 32.1993C32.5907 32.2289 32.5551 32.2525 32.5194 32.2525C32.4423 32.2525 32.3592 32.3293 31.4924 33.1799C30.228 34.4263 29.4029 35.5546 28.6786 37.0491C28.0909 38.2483 27.7941 39.0576 27.5092 40.2272C27.3014 41.0778 27.0877 42.3833 27.0402 43.0626C26.963 44.3327 26.9096 44.6576 26.7434 44.8643C26.5653 45.1065 26.3338 45.1597 25.8054 45.1006C25.3127 45.0415 25.3661 45.0592 24.4579 44.7225C24.0186 44.563 23.4724 44.3622 23.2409 44.2736C23.0153 44.1909 22.6592 44.0432 22.4514 43.9487C22.2436 43.8483 22.0655 43.7715 22.0477 43.7715C21.8756 43.7715 18.2544 41.9521 17.5717 41.5268C17.5242 41.4972 17.4055 41.4263 17.3046 41.3732C17.2096 41.3141 16.8653 41.1014 16.5447 40.9006C16.2241 40.6938 15.957 40.5225 15.9451 40.5225C15.9036 40.5225 13.4222 38.8272 13.3569 38.7563C13.3391 38.7386 12.9948 38.4728 12.5852 38.1656C11.4216 37.2972 9.85444 35.6491 9.53982 34.958C9.20738 34.2373 9.46858 33.5757 10.2937 33.05C10.4718 32.9377 10.6321 32.8432 10.6499 32.8432C10.6677 32.8432 10.8221 32.7782 10.9942 32.7014C11.4691 32.4888 11.855 32.3529 13.1194 31.9571C13.7546 31.7622 14.3958 31.5555 14.5442 31.5023C14.6926 31.4432 14.841 31.396 14.8766 31.3901C14.9597 31.3782 15.8442 31.0829 15.9986 31.0179C16.0639 30.9884 16.2004 30.9352 16.2954 30.9057C16.4853 30.8407 17.1265 30.5985 17.4233 30.4744C17.5242 30.4331 17.637 30.3976 17.6845 30.3858C17.726 30.3799 17.7913 30.3445 17.827 30.309C17.8626 30.2736 17.9279 30.2441 17.9694 30.2441C18.0525 30.2441 18.2663 30.1555 19.0855 29.7715C20.3796 29.169 21.4125 28.6078 22.3505 27.9993C22.5464 27.8694 22.7482 27.7453 22.7957 27.7276C23.3359 27.4677 26.8265 24.969 27.3845 24.4373C27.4795 24.3487 27.5685 24.2778 27.5804 24.2778C27.5982 24.2778 27.6457 24.2424 27.6872 24.201C27.7288 24.1656 27.9188 23.9943 28.1087 23.8348C29.1832 22.9251 30.881 21.2179 31.2194 20.7158C31.2728 20.639 31.3618 20.5268 31.4212 20.4736C31.4746 20.4145 31.5993 20.2728 31.6883 20.1546C31.7774 20.0306 31.8605 19.9242 31.8842 19.9065C32.0386 19.7706 33.2377 17.9985 33.5583 17.4255C34.0629 16.5276 34.609 15.2162 34.704 14.6609C34.7159 14.5723 34.7693 14.2888 34.8168 14.0289C34.9059 13.5622 34.9058 11.9968 34.8227 11.5183C34.3241 8.74786 31.8783 5.58752 28.554 3.41369C28.2749 3.23647 27.9544 3.03563 27.8416 2.97656C27.7288 2.91158 27.5507 2.80525 27.4498 2.73437C27.2301 2.58078 25.7995 1.84238 25.4077 1.68288C25.2593 1.62381 25.0278 1.5293 24.8972 1.47023C24.1314 1.13943 22.1961 0.560524 21.4659 0.448288C21.3413 0.42466 21.2226 0.401031 21.1988 0.389217C21.1751 0.371498 21.0504 0.34787 20.9257 0.330147C20.7951 0.312424 20.3974 0.259258 20.0353 0.206093C19.406 0.111576 16.5566 0.0347862 15.9095 0.0938568ZM18.9964 5.19175C20.1243 5.27445 20.528 5.3217 21.2107 5.46348C21.4481 5.51073 21.7034 5.55799 21.7865 5.57571C22.5048 5.71748 23.9117 6.17234 24.5766 6.47951C24.82 6.59175 25.0812 6.70989 25.1584 6.73943C25.4314 6.84576 26.6959 7.58415 27.0639 7.86179C27.5863 8.23985 28.1978 8.8601 28.554 9.35039C28.8686 9.78753 29.1832 10.4846 29.2366 10.8508C29.2544 10.9749 29.2841 11.1166 29.3019 11.1639C29.3316 11.2466 29.3316 12.8356 29.3019 13.0837C29.1595 14.2356 28.7142 15.3698 27.9722 16.4863C27.6398 16.9884 27.5092 17.1656 27.4439 17.2069C27.4023 17.2306 27.3667 17.2837 27.3667 17.3192C27.3667 17.3546 27.2658 17.4964 27.147 17.6323C27.0224 17.7681 26.8265 17.9926 26.7196 18.1344C26.6068 18.2702 26.4762 18.4238 26.4287 18.4652C26.3872 18.5124 26.3634 18.5479 26.3753 18.5479C26.3931 18.5479 26.3041 18.6483 26.1854 18.7723C26.0666 18.8964 25.7995 19.1858 25.5917 19.4103C24.7903 20.2787 23.9592 21.0702 23.1163 21.7791C22.0121 22.7065 22.0477 22.677 20.8961 23.4449C20.4568 23.7403 20.0709 24.0002 20.0353 24.0297C20.0056 24.0533 19.7919 24.1774 19.5604 24.3074C19.3348 24.4314 19.127 24.5614 19.1033 24.5968C19.0795 24.6322 19.0558 24.6382 19.0558 24.6145C19.0558 24.585 18.9667 24.6145 18.8658 24.6795C18.5453 24.8803 17.6429 25.3116 16.9484 25.601C16.5922 25.7546 16.242 25.9023 16.1767 25.9318C15.9155 26.05 14.6273 26.4871 14.1583 26.6112C12.8404 26.9656 12.8582 26.9656 12.4961 27.0306C12.4011 27.0483 12.1577 27.0955 11.9618 27.1428C11.76 27.1901 11.4691 27.2373 11.3089 27.2609C11.1486 27.2787 10.7805 27.3318 10.4837 27.3791C9.82476 27.4854 9.10646 27.4913 8.90463 27.3909C8.61375 27.2491 8.53657 26.9833 8.57219 26.1976C8.59594 25.5715 8.77996 23.4154 9.05304 20.6449C9.10053 20.1546 9.15395 19.5993 9.16583 19.4044C9.18364 19.2095 9.23706 18.6365 9.28455 18.1344C9.36766 17.2955 9.46264 16.2559 9.52794 15.5057C9.54575 15.3403 9.5695 15.104 9.58731 14.974C9.60512 14.8441 9.62886 14.5487 9.65261 14.3242C9.69416 13.7631 9.70603 13.6626 9.93755 11.3706C10.0622 10.1124 10.175 9.24997 10.2403 9.06685C10.359 8.72424 10.7568 8.1217 11.0892 7.78499C11.297 7.57233 11.8134 7.12339 11.95 7.04069C12.039 6.98753 12.1103 6.92255 12.1103 6.89892C12.1103 6.87529 12.1399 6.85167 12.1696 6.85167C12.2052 6.85167 12.2646 6.82213 12.3062 6.79259C13.1016 6.11327 14.8647 5.38668 15.9986 5.27445C16.1648 5.25673 16.3844 5.22719 16.4913 5.20356C16.8534 5.13858 18.1238 5.12677 18.9964 5.19175ZM39.1088 33.6584C39.4056 33.812 39.744 34.2491 39.8271 34.5858C39.9043 34.8812 39.9221 35.5901 39.8627 35.8204C39.7737 36.1512 38.9782 37.504 38.5923 37.9766C38.343 38.2778 37.2982 39.3411 37.2566 39.3411C37.2388 39.3411 37.1735 39.3825 37.1201 39.4297C37.0133 39.5124 36.473 39.92 36.1822 40.1386C36.0931 40.2036 35.921 40.3217 35.7963 40.4044C34.9593 40.9597 34.4666 41.2846 34.1044 41.5149C33.8789 41.6626 33.5346 41.8812 33.3505 42.0052C33.1665 42.1352 32.9943 42.2356 32.9706 42.2356C32.9528 42.2356 32.8341 42.3124 32.7094 42.4128C32.5847 42.5074 32.466 42.5901 32.4482 42.5901C32.4245 42.5901 32.2226 42.7141 31.9911 42.8677C31.6824 43.0685 31.4924 43.1453 31.2906 43.169L31.0116 43.1926L30.9404 42.6609C30.8573 42.0348 30.8454 40.6348 30.9226 40.1386C30.9582 39.9436 30.9938 39.6778 31.0175 39.5479C31.1066 38.9335 31.5221 37.7403 31.8605 37.0964C32.561 35.7791 33.3327 34.8989 34.2707 34.3259C34.9652 33.9124 35.6598 33.6643 36.4196 33.5757C36.5858 33.5521 36.7224 33.5284 36.7342 33.5225C36.7461 33.5107 37.227 33.5048 37.8028 33.5107C38.7704 33.5225 38.8713 33.5344 39.1088 33.6584Z" fill="black"/>
<path d="M192.16 0.19495C192.142 0.206764 191.768 0.242207 191.329 0.259926C190.04 0.324905 186.823 0.762035 184.947 1.12238C183.315 1.44136 182.792 1.54178 182.632 1.57132C182.169 1.65992 180.726 1.9671 179.782 2.19157C179.492 2.25655 179.141 2.33925 179.005 2.36288C178.744 2.42195 175.758 3.16626 174.915 3.39073C174.25 3.56794 173.656 3.72744 172.926 3.92828C172.617 4.01689 172.214 4.12322 172.036 4.17048C171.857 4.21773 171.667 4.2709 171.62 4.29453C171.572 4.31225 171.489 4.33588 171.442 4.34178C171.311 4.3595 170.266 4.66077 169.958 4.7671C169.809 4.82027 169.596 4.9325 169.483 5.0152C169.37 5.10381 169.174 5.23967 169.055 5.31647C168.931 5.39917 168.83 5.48187 168.83 5.5055C168.83 5.53503 168.794 5.55276 168.747 5.55276C168.699 5.55276 168.646 5.64136 168.622 5.77132C168.592 5.94854 168.604 6.00761 168.693 6.07258C168.996 6.29115 170.551 7.26583 170.605 7.26583C170.64 7.26583 170.67 7.28946 170.67 7.31309C170.67 7.34262 171.133 7.59663 171.697 7.87427C173.258 8.65992 173.312 8.73081 173.306 9.9536C173.306 10.4085 173.288 11.0582 173.264 11.4009C173.217 12.1865 173.015 15.0279 172.896 16.5401C172.849 17.1722 172.795 17.8751 172.783 18.1055C172.766 18.33 172.7 19.1806 172.629 19.9958C172.564 20.8051 172.457 22.1224 172.392 22.9198C172.249 24.6211 172.285 24.2194 171.946 27.8523C171.798 29.4414 171.679 30.7764 171.679 30.8118C171.679 30.9004 171.288 30.9713 169.78 31.1604C169.109 31.2431 168.296 31.3553 167.969 31.4025C167.643 31.4498 167.269 31.4971 167.138 31.5089C167.007 31.5148 166.461 31.5798 165.921 31.6447C165.381 31.7156 164.621 31.7983 164.229 31.8397C163.837 31.8751 163.452 31.9165 163.368 31.9342C163.285 31.946 162.609 31.9755 161.855 31.9933C158.75 32.0819 155.627 31.5975 152.44 30.5401C152.048 30.4101 151.698 30.3038 151.668 30.3038C151.638 30.3038 151.484 30.2506 151.33 30.1798C150.724 29.9139 150.659 29.8903 150.558 29.8903C150.498 29.8903 150.427 29.8667 150.392 29.8431C150.326 29.784 149.756 29.5654 149.721 29.589C149.709 29.6009 149.679 29.5772 149.661 29.5477C149.602 29.4473 148.997 29.1165 148.943 29.1519C148.884 29.1874 148.937 28.9983 149.329 27.7342C149.465 27.2793 149.626 26.7477 149.685 26.5528C149.739 26.3578 149.845 25.9975 149.923 25.7553C150.107 25.1823 150.35 24.3848 150.463 24.0127C150.51 23.8473 150.623 23.4633 150.718 23.1561C150.813 22.849 150.95 22.3941 151.021 22.1519C151.092 21.9097 151.181 21.6025 151.223 21.4726C151.264 21.3426 151.347 21.0768 151.407 20.8819C151.466 20.6869 151.549 20.4211 151.591 20.2911C151.632 20.1612 151.763 19.7359 151.882 19.346C151.994 18.9561 152.143 18.4776 152.202 18.2827C152.267 18.0878 152.374 17.7274 152.446 17.4852C152.517 17.243 152.612 16.9359 152.653 16.8059C152.701 16.676 152.861 16.1561 153.009 15.654C153.164 15.1519 153.354 14.5494 153.425 14.3249C153.502 14.0945 153.74 13.3384 153.959 12.6414C154.179 11.9443 154.488 10.9874 154.642 10.5148C155.443 8.10465 155.515 7.79748 155.408 7.15359C155.283 6.36203 154.642 5.4287 153.787 4.80254C153.134 4.32406 152.671 4.48355 152.03 5.40507C151.917 5.56457 151.81 5.71225 151.793 5.72997C151.662 5.85993 150.783 7.11815 150.783 7.17132C150.783 7.18904 150.706 7.31309 150.611 7.45486C150.415 7.74431 149.181 10.2549 149.181 10.3612C149.181 10.3848 149.127 10.5089 149.068 10.6506C148.498 11.8793 147.59 14.4312 146.96 16.5401C146.699 17.4203 146.141 19.4996 146.034 19.9958C146.005 20.1258 145.904 20.5511 145.809 20.9409C145.619 21.6912 145.453 22.3941 145.411 22.6245C145.399 22.7013 145.316 23.0439 145.233 23.3865C145.156 23.7291 144.978 24.503 144.841 25.1055C144.71 25.708 144.58 26.2515 144.55 26.3165C144.521 26.3814 144.479 26.4937 144.461 26.5646C144.431 26.6768 144.402 26.6886 144.307 26.6414C144.242 26.6059 144.158 26.5941 144.123 26.6177C144.087 26.6414 144.075 26.6355 144.093 26.6C144.117 26.5646 144.028 26.5114 143.897 26.4701C143.767 26.4346 143.494 26.3106 143.292 26.1924C143.084 26.0802 142.823 25.9443 142.71 25.8852C142.597 25.8321 142.49 25.7671 142.472 25.7494C142.431 25.6962 140.858 24.8042 140.454 24.6093C140.276 24.5207 140.033 24.3907 139.92 24.3258C139.807 24.2608 139.368 24.0363 138.94 23.8236C138.519 23.6169 138.127 23.422 138.08 23.3924C137.688 23.1502 137.433 23.0734 137.064 23.0734C136.797 23.0734 136.643 23.103 136.584 23.162C136.305 23.4338 136.263 23.9182 136.471 24.3671C137.26 26.0566 137.504 26.4405 138.323 27.2557C138.679 27.6101 138.97 27.8819 138.97 27.8701C138.97 27.8523 139.101 27.9646 139.255 28.1122C139.415 28.2599 139.629 28.449 139.73 28.5317C139.837 28.6144 140.033 28.7857 140.169 28.9156C140.68 29.3882 141.131 29.7426 141.232 29.7367C141.285 29.7367 141.327 29.7722 141.321 29.8253C141.315 29.8726 141.374 29.9435 141.445 29.9789C141.523 30.0203 141.564 30.0616 141.546 30.0793C141.529 30.0971 141.612 30.1739 141.724 30.2447C141.843 30.3156 141.938 30.4042 141.938 30.4338C141.938 30.4692 141.956 30.4869 141.974 30.4692C141.992 30.4456 142.098 30.5224 142.217 30.6346C142.33 30.7468 142.455 30.8177 142.484 30.7941C142.526 30.7764 142.532 30.7882 142.508 30.8236C142.467 30.8945 142.811 31.2312 142.9 31.2017C142.93 31.1958 142.941 31.2076 142.924 31.2371C142.906 31.2667 142.971 31.3671 143.072 31.4616C143.179 31.562 143.232 31.6625 143.215 31.7215C143.173 31.822 142.556 35.449 142.508 35.8861C142.484 36.0456 142.461 36.2228 142.449 36.2701C142.431 36.3173 142.407 36.5063 142.389 36.6836C142.366 36.8608 142.342 37.0734 142.324 37.1561C142.247 37.5815 141.95 39.7258 141.736 41.4093C141.724 41.5215 141.653 42.0118 141.588 42.5021C141.523 42.9865 141.451 43.5063 141.44 43.654C141.41 43.9258 141.006 46.8912 140.834 48.1435C140.727 48.8937 140.692 50.784 140.763 52.1072C140.81 53.0169 140.905 53.3359 141.19 53.6017C141.356 53.7553 141.404 53.7671 141.707 53.7376C142.069 53.708 142.271 53.6135 142.894 53.1823C143.244 52.9401 143.933 52.2017 144.081 51.9123C144.236 51.611 144.805 49.2009 144.989 48.0844C145.043 47.7477 145.084 47.535 145.144 47.3165C145.168 47.2042 145.227 46.9089 145.263 46.6667C145.304 46.4245 145.346 46.1705 145.358 46.1055C145.375 46.0405 145.494 45.4262 145.619 44.735C145.749 44.0439 145.933 43.1165 146.028 42.6675C146.123 42.2186 146.212 41.7696 146.23 41.6751C146.248 41.5747 146.343 41.1258 146.444 40.6709C146.545 40.2161 146.652 39.6962 146.687 39.519C146.723 39.3418 146.776 39.0996 146.806 38.9874C146.848 38.822 147.412 36.1814 147.702 34.8051C147.774 34.4447 147.845 34.3975 148.124 34.5156C148.231 34.5629 148.563 34.7047 148.854 34.8228C149.151 34.9469 149.584 35.1418 149.828 35.254C150.071 35.3663 150.308 35.4608 150.35 35.4608C150.392 35.4608 150.427 35.4844 150.427 35.5139C150.427 35.5376 150.457 35.5612 150.492 35.5612C150.522 35.5612 150.861 35.6971 151.24 35.8566C151.62 36.022 151.971 36.1401 152.024 36.1224C152.072 36.1047 152.095 36.1047 152.072 36.1283C151.994 36.2051 153.354 36.719 153.455 36.654C153.49 36.6363 153.514 36.6422 153.514 36.6717C153.514 36.7544 154.986 37.227 155.889 37.4338C156.102 37.481 156.435 37.5578 156.631 37.6051C156.827 37.6582 157.052 37.7055 157.135 37.7232C157.218 37.735 157.349 37.7587 157.432 37.7705C157.515 37.7823 157.664 37.8118 157.759 37.8296C159.997 38.2667 162.757 38.3612 165.12 38.0954C165.416 38.0599 165.802 38.0186 165.98 38.0068C166.39 37.9713 167.773 37.7882 169.085 37.5992C169.637 37.5165 170.177 37.4515 170.29 37.4515C170.403 37.4515 170.587 37.4101 170.7 37.3688C170.955 37.2625 170.949 37.1443 170.765 38.6329C170.682 39.265 170.575 40.2869 170.522 40.9072C170.427 42.065 170.409 42.2481 170.314 43.2996C170.284 43.6422 170.16 45.0245 170.047 46.3713C169.542 52.3376 169.53 52.6034 169.714 53.3418C169.964 54.346 170.266 54.9013 170.67 55.1258C170.908 55.2557 171.436 55.2439 171.685 55.108C172.338 54.7359 172.979 54.0507 173.359 53.3063C173.514 53.0051 173.882 52.0068 173.864 51.9359C173.858 51.9123 173.87 51.8532 173.894 51.8059C173.923 51.7291 174.042 51.0557 174.089 50.7131C174.095 50.6481 174.291 49.4785 174.523 48.1139C175.122 44.5637 175.508 42.0414 175.746 40.1983C175.912 38.8751 176.031 38.0481 176.161 37.2743C176.25 36.7722 176.327 36.2701 176.345 36.1578C176.381 35.892 176.393 35.8743 176.648 35.827C176.773 35.8034 176.969 35.7443 177.081 35.6971C177.194 35.6439 177.319 35.6025 177.349 35.5966C177.438 35.5907 178.951 34.9882 179.385 34.7874C179.592 34.6928 179.788 34.616 179.818 34.616C179.848 34.616 179.871 34.5865 179.871 34.5452C179.871 34.5097 179.889 34.4979 179.913 34.5156C179.931 34.5393 180.061 34.492 180.192 34.4152C180.329 34.3384 180.602 34.1907 180.809 34.0844C181.011 33.984 181.177 33.8658 181.177 33.8304C181.177 33.795 181.195 33.7831 181.213 33.8068C181.272 33.8599 182.721 32.9561 182.679 32.8852C182.662 32.8557 182.673 32.8439 182.703 32.8616C182.768 32.903 182.822 32.8675 183.582 32.3418C184.057 32.011 185.452 31.0009 185.719 30.7941C185.82 30.7173 185.927 30.6346 185.956 30.611C186.217 30.4101 187.203 29.6954 187.44 29.53C187.761 29.3114 188.194 28.9924 188.242 28.9452C188.26 28.9274 188.503 28.762 188.782 28.5789C189.316 28.2363 189.821 27.8405 190.242 27.4506C190.379 27.3207 190.551 27.1789 190.616 27.1317C190.682 27.0844 190.717 27.0194 190.699 26.984C190.676 26.9485 190.682 26.9367 190.717 26.9544C190.842 27.0312 192.189 25.3949 192.13 25.2414C192.118 25.2 192.136 25.1705 192.172 25.1823C192.213 25.1882 192.373 24.9342 192.534 24.6152C192.807 24.0776 192.831 24.0009 192.831 23.6051C192.836 23.0912 192.736 22.8962 192.409 22.7603C192.065 22.6186 191.388 22.6836 190.943 22.9021C190.747 23.0025 190.527 23.0971 190.45 23.1207C190.379 23.1443 190.337 23.1916 190.355 23.227C190.379 23.2625 190.367 23.2743 190.331 23.2506C190.236 23.1975 188.349 24.1958 188.23 24.3612C188.206 24.3966 188.182 24.4025 188.182 24.3789C188.182 24.3494 187.868 24.4971 187.488 24.6979C187.102 24.8987 186.479 25.2236 186.105 25.4127C185.731 25.6076 185.274 25.8557 185.095 25.962C184.917 26.0684 184.567 26.2515 184.324 26.3696C184.08 26.4937 183.849 26.6295 183.813 26.6768C183.778 26.7182 183.73 26.7418 183.712 26.7182C183.689 26.7004 183.641 26.7122 183.6 26.7477C183.522 26.8068 182.412 27.3857 180.881 28.1536C180.109 28.5435 178.548 29.1224 178.269 29.1224C178.215 29.1224 178.15 29.146 178.114 29.1696C178.067 29.2169 177.622 29.3587 177.533 29.3587C177.485 29.3587 177.515 29.022 177.639 28.1182C177.669 27.9055 178.073 24.8042 178.114 24.4852C178.126 24.3848 178.203 23.8709 178.286 23.3333C178.488 22.0692 178.678 20.8228 178.72 20.5274C178.785 20.0312 178.797 19.9544 178.827 19.8009C178.845 19.7122 178.874 19.5468 178.886 19.4346C178.898 19.3224 178.939 19.0684 178.975 18.8734C179.011 18.6785 179.052 18.4245 179.064 18.3122C179.088 18.1232 179.592 14.8211 180.044 11.903C180.145 11.2827 180.275 10.3671 180.346 9.86499C180.418 9.36288 180.495 8.86668 180.53 8.76625C180.56 8.66583 180.584 8.5536 180.584 8.51225C180.584 8.47089 180.667 8.24642 180.768 8.01604C180.952 7.59663 181.237 7.19495 181.534 6.92912C181.664 6.81689 182.501 6.35613 182.596 6.35022C182.614 6.34431 182.768 6.31478 182.929 6.27343C183.095 6.23799 183.974 6.09621 184.888 5.96626C185.802 5.8363 186.906 5.6709 187.345 5.60592C187.785 5.53503 188.212 5.47596 188.295 5.46415C188.687 5.41098 189.862 5.24558 190.972 5.08018C191.643 4.97976 192.284 4.88524 192.397 4.87343C192.51 4.86161 193.062 4.77891 193.614 4.69621C194.172 4.61351 194.73 4.53081 194.861 4.51309C195.092 4.48946 195.348 4.44811 197.829 4.07596C198.927 3.91647 200.477 3.65655 200.827 3.57385C200.91 3.55613 201.07 3.52659 201.183 3.50887C201.527 3.45571 202.4 3.29031 202.424 3.27259C202.477 3.22533 201.818 2.34516 201.42 1.93166C200.738 1.2228 200.055 0.767944 199.26 0.490307C198.933 0.372162 198.648 0.330814 198.007 0.289463C197.022 0.230392 192.201 0.14769 192.16 0.19495Z" fill="black"/>
<path d="M261.858 4.41266C261.811 4.43038 261.734 4.48354 261.68 4.52489C261.627 4.56625 261.526 4.64894 261.449 4.70802C261.229 4.88523 260.689 5.66498 260.374 6.2616C260.214 6.56878 259.917 7.12996 259.715 7.50211C259.122 8.59494 258.154 10.5916 258.142 10.7511C258.136 10.7688 258.095 10.8574 258.047 10.9578C257.994 11.0523 257.899 11.2827 257.828 11.4599C257.762 11.6371 257.561 12.157 257.382 12.6118C257.204 13.0667 256.979 13.6633 256.872 13.9409C256.765 14.2186 256.658 14.4962 256.634 14.5612C256.492 14.9038 256.415 15.0987 256.148 15.8312C255.702 17.0245 255.441 17.7333 255.37 17.8987C255.34 17.9755 255.204 18.3359 255.073 18.6962C254.794 19.47 254.61 19.9544 254.545 20.1139C254.444 20.3443 253.779 22.1933 253.779 22.2346C253.779 22.2819 253.672 22.5359 253.476 22.9494C253.251 23.4456 252.918 23.5814 251.594 23.7232C251.44 23.735 251.114 23.7764 250.87 23.8118C250.627 23.8414 250.306 23.8827 250.158 23.9004C249.713 23.9536 248.62 24.1249 248.318 24.1899C248.235 24.2017 247.89 24.2608 247.546 24.308C246.252 24.503 245.985 24.562 245.741 24.7333C245.409 24.9696 245.266 25.2768 245.243 25.8262C245.219 26.2101 245.243 26.3283 245.367 26.6C245.735 27.4034 247.077 28.3013 248.11 28.4371C248.211 28.4549 248.46 28.4903 248.674 28.5257C248.888 28.5553 249.196 28.6025 249.356 28.6203C249.523 28.6439 249.707 28.6675 249.772 28.6793C249.837 28.6911 250.318 28.7561 250.841 28.8211C252.271 29.0101 252.117 28.9274 252.117 29.5063C252.117 29.7781 252.01 30.8709 251.885 31.9401C251.755 33.0034 251.636 33.9958 251.618 34.1435C251.6 34.2911 251.559 34.6101 251.523 34.8523C251.494 35.0945 251.452 35.4135 251.44 35.5612C251.422 35.7089 251.357 36.276 251.292 36.8312C251.084 38.562 250.829 41.0017 250.787 41.6751C250.775 41.8996 250.734 42.5139 250.692 43.0397C250.597 44.3333 250.651 47.6236 250.781 48.6751C250.965 50.1873 251.357 51.9359 251.701 52.7983C252.574 54.9662 254.485 56.254 256.284 55.876C256.522 55.8228 256.652 55.7519 256.824 55.5865C257.026 55.3797 257.044 55.3325 257.044 55.0312C257.044 54.854 257.02 54.6473 256.991 54.5705C256.961 54.4937 256.902 54.3165 256.86 54.1688C256.818 54.0211 256.587 53.4186 256.349 52.8219C256.106 52.2253 255.875 51.611 255.827 51.4633C255.774 51.3097 255.714 51.103 255.679 51.0084C255.376 50.0456 255.133 47.2456 255.133 44.7173C255.127 42.9274 255.15 42.5789 255.471 39.7553C255.524 39.3122 255.928 36.6068 256.07 35.7679C256.154 35.2776 256.231 34.8169 256.243 34.7342C256.255 34.6515 256.344 34.1494 256.444 33.6118C256.545 33.0743 256.646 32.5308 256.658 32.4008C256.676 32.2709 256.706 32.1232 256.723 32.07C256.735 32.011 256.765 31.8928 256.777 31.8042C256.807 31.6093 256.824 31.5443 257.02 30.5696C257.157 29.9021 257.489 29.0397 257.584 29.0987C257.608 29.1105 257.655 29.081 257.697 29.0338C257.863 28.8388 258.415 28.7502 262.06 28.3249C262.488 28.2776 263.046 28.2068 263.307 28.1713C263.568 28.1359 263.877 28.0945 263.99 28.0827C264.209 28.0591 265.503 27.8878 265.8 27.8464C265.901 27.8346 266.097 27.811 266.245 27.7933C266.394 27.7755 266.928 27.7046 267.433 27.6397C267.937 27.5747 268.46 27.5097 268.59 27.492C268.721 27.4802 268.923 27.4506 269.035 27.4329C269.148 27.4152 269.35 27.3857 269.481 27.3738C269.896 27.3266 274.366 26.7181 274.675 26.665C274.788 26.6414 274.966 26.6177 275.061 26.6059C275.162 26.6 275.518 26.5468 275.862 26.4937C276.207 26.4405 276.604 26.3873 276.753 26.3696C276.901 26.3519 277.085 26.3283 277.168 26.3106C277.251 26.2928 277.424 26.2633 277.554 26.2515C277.685 26.2397 277.887 26.2101 277.999 26.1924C278.112 26.1688 278.29 26.1451 278.385 26.1333C278.486 26.1215 279.02 26.0447 279.573 25.962C280.131 25.8793 280.677 25.7966 280.789 25.7848C281.359 25.7021 283.117 25.4363 283.936 25.3063C284.44 25.2236 284.963 25.1409 285.093 25.1291C285.224 25.1114 285.651 25.0464 286.043 24.9814C286.435 24.9165 286.839 24.8515 286.934 24.8397C287.035 24.8219 287.248 24.7865 287.408 24.7511C287.575 24.7156 287.771 24.6802 287.854 24.6624C288.323 24.5738 288.685 24.4911 288.893 24.4262C289.023 24.3848 289.344 24.2903 289.605 24.2194C290.347 24.0127 290.703 23.7823 290.858 23.4101C291.125 22.7899 290.757 22.2464 289.712 21.697C288.786 21.2186 288.299 21.0709 287.527 21.0532C286.34 21.0236 278.332 21.4549 274.111 21.7738C273.458 21.8211 272.722 21.8743 272.479 21.892C271.731 21.9392 269.196 22.1519 269.006 22.1814C268.911 22.1933 268.614 22.2228 268.353 22.2405C268.092 22.2641 267.088 22.3587 266.127 22.4532C264.298 22.6363 264.227 22.6422 263.218 22.7485C262.874 22.784 262.553 22.8135 262.505 22.8135C262.458 22.8135 262.226 22.8371 261.995 22.8667C261.763 22.8903 261.36 22.9316 261.105 22.9494C260.843 22.9671 260.368 23.0084 260.042 23.038C259.715 23.0675 259.211 23.1089 258.914 23.1325C258.623 23.1502 258.362 23.1797 258.338 23.1975C258.196 23.2802 258.374 22.5122 258.724 21.5316C258.807 21.3013 259.051 20.6101 259.264 19.9958C259.484 19.3755 259.704 18.7671 259.751 18.6371C259.804 18.5072 259.905 18.2118 259.983 17.9873C260.06 17.757 260.196 17.3848 260.279 17.1603C260.546 16.4574 260.713 15.9494 260.683 15.9494C260.665 15.9494 260.677 15.9139 260.713 15.8726C260.748 15.8312 260.885 15.4945 261.015 15.1224C261.508 13.7106 261.651 13.3207 261.686 13.2616C261.704 13.2262 261.746 13.108 261.781 12.9958C261.817 12.8835 261.965 12.4405 262.12 12.0211C262.274 11.5958 262.428 11.1587 262.458 11.0464C262.494 10.9342 262.535 10.8101 262.559 10.7806C262.583 10.7452 262.648 10.5738 262.707 10.3966C262.767 10.2194 262.832 10.0186 262.862 9.95359C263.01 9.59325 263.093 9.33334 263.064 9.33334C263.04 9.33334 263.058 9.29789 263.093 9.25064C263.135 9.20338 263.188 9.09114 263.218 8.99663C263.242 8.90802 263.378 8.52405 263.515 8.1519C263.865 7.17722 263.918 6.97637 263.918 6.46835C263.918 5.81266 263.758 5.38144 263.337 4.96202C263.158 4.7789 262.903 4.58397 262.773 4.51899C262.529 4.40675 262.013 4.34177 261.858 4.41266Z" fill="black"/>
<path d="M200.524 26.2397C200.221 26.3164 199.77 26.6768 199.509 27.0548C199.384 27.2321 199.283 27.3975 199.283 27.4211C199.283 27.4388 199.182 27.6397 199.052 27.8641C198.927 28.0827 198.678 28.5435 198.5 28.8861C198.322 29.2287 198.072 29.6894 197.942 29.9198C197.336 31.0186 196.297 33.0565 195.971 33.789C195.876 34.0017 195.757 34.2675 195.704 34.3797C194.908 36.1637 194.047 39.1291 193.353 42.4726C193.115 43.6304 192.931 44.5283 192.842 45.0127C192.789 45.2903 192.724 45.6093 192.694 45.7215C192.664 45.8338 192.623 46.0582 192.599 46.2236C192.569 46.3831 192.546 46.5308 192.546 46.5485C192.516 46.6844 192.391 47.2633 192.367 47.4051C192.094 48.7696 192.088 48.8346 192.065 50.4C192.029 52.1308 192.059 52.4143 192.326 52.9932C192.652 53.708 193.009 53.897 193.662 53.7257C194.801 53.4304 195.84 52.3907 196.434 50.9494C196.63 50.4886 196.76 49.9097 196.944 48.7814C197.591 44.7527 198.351 41.4624 199.527 37.5991C199.74 36.8962 200.649 34.1848 200.732 33.9958C200.779 33.8954 200.833 33.7536 200.856 33.6709C200.928 33.4405 201.854 30.9949 202.156 30.2506C202.305 29.8844 202.441 29.524 202.453 29.4532C202.513 29.146 202.691 28.5907 202.732 28.5907C202.851 28.5907 202.827 28.3781 202.679 28.1595C202.584 28.0236 202.424 27.7637 202.323 27.5865C201.723 26.5409 201.124 26.0861 200.524 26.2397Z" fill="black"/>
<path d="M237.175 27.0017C236.095 27.1258 234.759 27.6101 233.803 28.2304C232.954 28.7798 232.402 29.2641 231.488 30.2684C230.639 31.2076 229.832 31.4203 228.484 31.0658C227.356 30.7764 227.232 30.7587 226.116 30.7528C225.041 30.7468 224.519 30.7823 223.979 30.9063C223.83 30.9359 223.658 30.9713 223.593 30.989C223.005 31.1072 222.803 31.1544 222.673 31.2076C222.589 31.2371 222.483 31.2726 222.435 31.2785C222.257 31.308 221.438 31.5975 221.093 31.757C220.904 31.8456 220.66 31.9519 220.553 31.9874C220.322 32.076 219.129 32.773 218.725 33.0566C218.137 33.4701 217.817 33.73 217.514 34.0135C217.348 34.173 217.211 34.2911 217.211 34.2793C217.211 34.1907 215.763 35.7561 215.466 36.1755C215.401 36.2641 215.3 36.3941 215.24 36.465C215.175 36.53 215.068 36.6836 215.003 36.8017C214.932 36.9139 214.854 37.0203 214.837 37.038C214.813 37.0557 214.623 37.3333 214.403 37.6582C213.928 38.373 213.436 38.8869 213.376 38.7274C213.311 38.562 213.394 37.162 213.495 36.6836C213.542 36.4414 213.596 36.1578 213.614 36.0633C213.626 35.9629 213.75 35.2895 213.881 34.557C214.017 33.8245 214.166 33.0152 214.213 32.7553C214.445 31.4793 214.498 30.8945 214.427 30.4574C214.32 29.8253 214.017 29.2582 213.572 28.8506C213.37 28.6675 213.151 28.4962 213.085 28.4667C213.02 28.4371 212.889 28.3663 212.789 28.3013C212.45 28.1004 211.993 27.9823 211.672 28.0177C211.251 28.0709 211.043 28.2954 210.657 29.0928C210.2 30.0321 209.987 30.7528 209.874 31.7511C209.856 31.881 209.832 32.0287 209.82 32.076C209.779 32.2118 209.434 34.2498 209.399 34.5865C209.381 34.746 209.357 34.8937 209.345 34.9114C209.322 34.9468 208.805 38.0363 208.758 38.3966C208.746 38.5089 208.704 38.7629 208.669 38.9578C208.615 39.265 208.562 39.6076 208.402 40.6414C208.271 41.4506 208.235 41.6928 208.212 41.8228C208.146 42.2245 208.069 42.703 208.039 42.9333C208.022 43.0751 207.998 43.2464 207.98 43.3173C207.962 43.3882 207.939 43.5418 207.927 43.654C207.909 43.7663 207.844 44.2152 207.772 44.6523C207.363 47.2397 207.286 47.9249 207.286 48.9705C207.286 49.5376 207.315 50.3114 207.357 50.6836C207.392 51.0557 207.434 51.4928 207.452 51.6582C207.523 52.3907 207.547 52.5266 207.648 52.7688C207.873 53.2886 208.206 53.5485 208.829 53.6962C209.286 53.8025 209.803 53.7139 210.295 53.4481C210.699 53.2295 211.168 52.5857 211.393 51.9359C211.589 51.357 211.797 50.8194 211.862 50.6895C211.898 50.6245 212.088 50.1519 212.284 49.638C212.48 49.1241 212.664 48.6515 212.694 48.5865C212.723 48.5215 212.789 48.3738 212.842 48.2557C212.889 48.1376 213.056 47.73 213.204 47.3401C213.352 46.9561 213.501 46.5781 213.537 46.5013C213.667 46.1882 213.715 46.0819 213.916 45.6447C214.029 45.3907 214.124 45.1663 214.124 45.1426C214.124 45.1013 214.463 44.3924 214.985 43.3528C215.519 42.2895 216.505 40.8009 217.187 40.0211C217.419 39.7612 218.351 38.8101 218.612 38.5738C219.681 37.5992 221.236 36.6599 222.75 36.0692C223.136 35.9215 223.468 35.7975 223.492 35.7975C223.516 35.7975 223.735 35.7325 223.979 35.6557C224.792 35.4017 226.222 35.1536 227.077 35.1182C228.128 35.0768 228.834 35.3544 229.125 35.9156C229.244 36.1519 229.262 36.2819 229.286 37.1266C229.309 38.3021 229.339 38.4734 229.654 39.1528C229.731 39.3241 229.796 39.4776 229.796 39.4954C229.796 39.5426 230.419 40.4701 230.55 40.6118C230.609 40.6827 230.805 40.9072 230.983 41.1139C231.162 41.3266 231.666 41.9055 232.111 42.4076C232.551 42.9097 233.031 43.4532 233.174 43.6186C233.316 43.784 233.56 44.0675 233.72 44.2447C234.266 44.865 234.735 45.4439 234.795 45.5798C234.83 45.6565 234.89 45.7215 234.919 45.7215C234.955 45.7215 234.967 45.7392 234.943 45.757C234.925 45.7747 234.967 45.9165 235.032 46.0641C235.21 46.4658 235.246 47.2869 235.109 47.8836C234.967 48.5215 234.551 49.449 234.284 49.7089C234.243 49.7502 234.148 49.8625 234.064 49.957C233.904 50.146 233.34 50.5418 232.972 50.7249C232.426 50.9966 231.553 51.1502 230.568 51.1561C228.941 51.1679 227.772 50.5654 226.87 49.2363C226.656 48.9291 225.938 47.5646 225.938 47.47C225.938 47.4523 225.854 47.2574 225.754 47.0388C225.368 46.1941 225.285 46.011 225.285 45.9933C225.285 45.9755 225.231 45.8456 225.166 45.692C225.047 45.4203 225.047 45.4203 224.881 45.5089C224.637 45.6329 223.913 46.4127 223.67 46.8203C223.308 47.411 223.13 48.0194 223.124 48.7046C223.124 49.0295 223.136 49.3899 223.153 49.5021C223.248 50.0692 223.533 50.7781 223.824 51.1857C223.89 51.2802 223.949 51.3806 223.949 51.4042C223.949 51.4751 224.59 52.243 224.899 52.5384C225.73 53.3477 226.579 53.9148 227.511 54.2869C228.603 54.7241 229.577 54.9013 230.924 54.8954C233.435 54.8954 235.768 54.1452 237.377 52.8397C237.692 52.5798 238.701 51.5696 238.701 51.5106C238.701 51.4869 238.814 51.3215 238.956 51.1384C239.645 50.2228 240.12 49.2009 240.309 48.2144C240.351 47.984 240.369 47.5941 240.345 47.1806C240.304 46.3654 240.131 45.8219 239.692 45.1072C239.348 44.5519 239.187 44.3511 238.285 43.3587C237.211 42.1831 237.175 42.1418 234.783 39.7021C234.67 39.584 234.486 39.3713 234.373 39.2236C234.26 39.076 234.153 38.946 234.136 38.9283C234.029 38.8456 233.649 38.2667 233.489 37.9536C232.776 36.5418 232.871 34.8641 233.732 33.6473C234.023 33.2338 234.474 32.8025 235.008 32.4245C235.293 32.2236 235.62 31.9814 235.733 31.8987C235.845 31.8101 236 31.7215 236.077 31.6979C236.148 31.6743 236.207 31.627 236.207 31.5975C236.207 31.5679 236.231 31.5443 236.261 31.5443C236.291 31.5443 236.659 31.3494 237.08 31.1072C238.499 30.292 239.769 29.6422 240.968 29.0987L241.194 28.9983L241.081 28.7798C240.927 28.4903 240.345 27.9114 239.959 27.6633C239.395 27.303 238.796 27.0844 238.196 27.0253C238 27.0076 237.787 26.984 237.721 26.9722C237.656 26.9604 237.413 26.9781 237.175 27.0017Z" fill="black"/>
<path d="M204.974 10.3353C204.79 10.3943 204.522 10.5125 204.379 10.5951C203.939 10.855 203.094 11.7292 202.737 12.2962C202.648 12.438 202.541 12.6093 202.499 12.6742C202.25 13.07 201.869 13.9559 201.678 14.5938C201.488 15.2258 201.452 15.4148 201.458 15.8932C201.458 16.7497 201.714 17.4171 202.244 17.9546C203.457 19.195 205.67 18.7874 207.532 16.9918C208.329 16.224 208.865 15.4444 209.12 14.6824C209.471 13.6429 209.002 11.7883 208.192 10.9968C207.734 10.542 206.991 10.2998 205.968 10.2526C205.426 10.2289 205.254 10.2408 204.974 10.3353Z" fill="#F05937"/>
<path d="M129.906 12.5147C128.829 12.9163 127.657 14.0563 127.104 15.2435C126.866 15.7514 126.699 16.3362 126.699 16.6492C126.699 16.8855 126.807 17.3875 127.039 18.2263C127.288 19.1359 127.776 19.8505 128.306 20.0868C128.704 20.2581 129.281 20.2463 129.781 20.0514C130.846 19.632 131.976 18.5806 132.523 17.5057C132.964 16.6433 133.196 15.7337 133.207 14.8596C133.213 14.2335 133.207 14.198 133.011 13.8259C132.749 13.3298 132.262 12.8573 131.762 12.6269C131.417 12.4615 131.298 12.4379 130.774 12.4261C130.328 12.4143 130.114 12.4379 129.906 12.5147Z" fill="#F05937"/>
<path d="M191.423 22.7211C191.018 22.8747 190.013 23.3531 189.341 23.7193C188.585 24.1269 187.068 24.9301 186.128 25.4204C185.753 25.6094 185.295 25.8574 185.117 25.9638C184.938 26.0701 184.587 26.2532 184.344 26.3772C184.1 26.5013 183.832 26.643 183.749 26.6844C183.451 26.8497 182.202 27.4935 181.131 28.031C180.399 28.4031 179.751 28.6748 179.204 28.8579C178.746 29.0056 178.341 29.1237 178.294 29.1237C178.252 29.1237 178.169 29.1473 178.109 29.1769C177.449 29.5076 176.937 29.6553 174.409 30.2696C172.886 30.6358 171.589 30.937 171.524 30.937C171.458 30.937 170.774 31.0197 170.007 31.126C169.239 31.2264 168.288 31.3505 167.895 31.3977C167.502 31.445 167.009 31.5158 166.794 31.5454C166.432 31.5985 165.533 31.7048 164.236 31.8407C161.601 32.1242 159.382 32.0651 156.89 31.6576C156.051 31.5158 154.73 31.2323 154.183 31.0729C153.969 31.0138 153.541 30.8898 153.231 30.8012C152.922 30.7126 152.624 30.624 152.577 30.6003C152.434 30.5354 151.696 30.305 151.631 30.305C151.595 30.305 151.452 30.2578 151.31 30.1928C150.983 30.051 150.667 29.927 150.227 29.7734C150.031 29.7026 149.495 29.4427 149.037 29.1887C147.586 28.3854 144.052 26.5426 143.802 26.4658C143.541 26.3831 143.32 26.265 142.464 25.7688C141.577 25.255 140.739 24.7884 140.382 24.6112C140.203 24.5226 139.959 24.3926 139.846 24.3277C139.733 24.2627 139.132 23.9497 138.508 23.6366C137.407 23.0873 137.366 23.0696 136.985 23.0755C136.717 23.0755 136.563 23.105 136.503 23.1641C136.223 23.4358 136.182 23.9201 136.39 24.369C136.812 25.2727 137.104 25.8338 137.336 26.2C137.598 26.6135 138.597 27.6412 139.4 28.3263C139.632 28.5213 139.936 28.7871 140.084 28.917C140.364 29.1592 140.459 29.2359 141.066 29.7439C141.256 29.9034 141.464 30.0806 141.518 30.1278C141.571 30.1751 141.702 30.2814 141.809 30.3641C141.916 30.4468 142.309 30.8012 142.678 31.1555C143.541 31.9706 144.51 32.6263 146.378 33.6481C147.175 34.0852 147.842 34.4395 147.859 34.4395C147.877 34.4395 147.972 34.475 148.074 34.5222C148.181 34.5636 148.508 34.7053 148.799 34.8235C149.097 34.9475 149.525 35.1365 149.751 35.2428C151.631 36.1229 154.302 37.0738 156.075 37.4814C156.426 37.5641 156.806 37.6586 156.919 37.6881C157.211 37.7708 158.793 38.0248 159.507 38.1015C162.172 38.391 164.278 38.2787 169.085 37.5995C169.644 37.5227 170.203 37.4459 170.334 37.4341C170.59 37.4046 176.206 36.0048 176.402 35.9221C176.467 35.8925 176.711 35.8098 176.937 35.739C177.96 35.4259 179.763 34.664 180.744 34.1265C181.298 33.8253 182.529 33.0811 182.916 32.8153C183.065 32.7149 183.374 32.5022 183.6 32.3427C184.064 32.0238 185.468 31.0079 185.741 30.7953C185.843 30.7185 185.95 30.6358 185.979 30.6122C186.229 30.4172 187.229 29.6966 187.467 29.5313C187.633 29.419 187.978 29.1769 188.24 28.9879C188.502 28.7989 188.936 28.4976 189.204 28.3086C190.691 27.275 192.012 25.8102 192.624 24.5167C192.969 23.802 192.975 23.1995 192.648 22.8747C192.517 22.7388 192.44 22.7211 192.006 22.7034C191.732 22.6975 191.47 22.7034 191.423 22.7211Z" fill="#F05937"/>
</svg>
