<svg width="136" height="26" viewBox="0 0 136 26" fill="none" xmlns="http://www.w3.org/2000/svg">
<g clip-path="url(#clip0)">
<path d="M7.38648 0.0439129C6.77736 0.0987644 6.15172 0.1975 5.67766 0.315432C5.46819 0.367542 4.97759 0.512901 4.87837 0.554041C4.84254 0.567753 4.7378 0.60615 4.64409 0.636318C4.37399 0.726826 3.74007 0.96269 3.65188 1.00931C3.27152 1.2013 2.91322 1.56881 2.75888 1.92809C2.60178 2.29286 2.58524 2.62472 2.701 3.06902C2.77817 3.36248 2.77542 3.43104 2.59075 5.18357C2.56043 5.46332 2.53012 5.74581 2.5246 5.81437C2.51634 5.88294 2.49153 6.11606 2.46672 6.33547C2.40609 6.884 2.31789 7.72049 2.30411 7.88505C2.29033 8.01944 2.22143 8.66669 2.08362 9.94201C2.04503 10.2876 2.0092 10.6414 2.00093 10.7237C1.99266 10.8059 1.94305 11.2557 1.89069 11.7247C1.83832 12.191 1.78871 12.649 1.78044 12.7395C1.77217 12.83 1.74737 13.0521 1.72532 13.2332C1.68673 13.5486 1.65917 13.7954 1.63988 13.9737C1.63436 14.0175 1.61231 14.2095 1.58751 14.3988C1.56546 14.588 1.52687 14.9144 1.50207 15.1256C1.47726 15.3367 1.45246 15.5452 1.44694 15.5918C1.41387 15.877 1.31189 16.6395 1.26779 16.9768C1.23748 17.1962 1.20716 17.4239 1.20165 17.4842C1.19338 17.5445 1.17408 17.6734 1.1603 17.7722C1.14377 17.8709 1.12723 17.9943 1.11896 18.0464C1.09416 18.2357 0.937054 19.2175 0.881931 19.5412C0.848857 19.7222 0.813026 19.9306 0.799246 20.0074C0.788221 20.0815 0.757903 20.2488 0.733098 20.3777C0.711048 20.5066 0.683487 20.6464 0.677974 20.6903C0.669706 20.7342 0.650413 20.8329 0.636632 20.9097C0.620095 20.9865 0.603558 21.0798 0.595289 21.1182C0.581509 21.2114 0.545678 21.3952 0.531898 21.461C0.50158 21.6146 0.4437 21.9108 0.432676 21.9821C0.402358 22.1576 0.305892 22.6732 0.278331 22.7912C0.203914 23.123 0.0220074 24.2612 0.0082266 24.4779C-0.0248474 25.0456 0.212183 25.8026 0.460237 25.915C0.727585 26.0357 0.945322 25.9397 1.24299 25.5694C1.35875 25.4268 1.43592 25.2897 1.47726 25.1635C1.49931 25.0895 1.52687 25.0072 1.53514 24.9853C1.68122 24.5903 2.06984 23.4384 2.23245 22.9146C2.27379 22.7802 2.59075 21.5378 2.61831 21.3979C2.63209 21.3266 2.65139 21.2443 2.6569 21.2142C2.66517 21.184 2.71478 20.9728 2.76715 20.7479C3.02623 19.6372 3.15852 19.1161 3.20813 19.0009C3.29082 18.8061 3.43965 18.765 3.62431 18.8884C3.73456 18.9597 3.97159 19.149 4.05152 19.2258C4.07357 19.2477 4.15625 19.3163 4.23067 19.3766C4.30784 19.4369 4.37399 19.4918 4.38226 19.5C4.43738 19.5576 4.76812 19.8017 4.79017 19.8017C4.80671 19.8017 4.82324 19.8127 4.82876 19.8264C4.84529 19.873 6.02493 20.6272 6.21511 20.7095C6.26747 20.7342 6.36118 20.7863 6.55412 20.9042C6.60097 20.9344 6.64231 20.9481 6.64231 20.9344C6.64231 20.9234 6.65334 20.9262 6.66436 20.9426C6.69192 20.9838 7.25418 21.2745 7.66209 21.461C7.85227 21.546 8.08654 21.653 8.18576 21.6996C8.55785 21.8751 9.79812 22.3715 10.308 22.5498C10.3907 22.5772 10.5395 22.6294 10.6387 22.665C11.1045 22.8323 11.5152 22.9694 11.9066 23.0956C12.5984 23.3205 12.9429 23.4439 13.3674 23.6194C13.7918 23.795 13.8028 23.8032 14.2466 24.0967C14.4037 24.2009 14.6214 24.3435 14.7289 24.4175C15.0734 24.6452 15.8259 24.999 16.1483 25.084C16.9559 25.2952 17.5457 25.3308 18.2292 25.2156C18.4718 25.1745 18.9183 25.0621 19.0313 25.0154C19.0616 25.0017 19.1773 24.9578 19.2876 24.9167C19.8361 24.7137 20.6877 24.1844 21.2445 23.7017C21.2858 23.6661 21.363 23.6057 21.4153 23.5646C21.498 23.5042 21.6937 23.3424 21.9252 23.1422C21.9556 23.1175 22.0741 23.0188 22.1871 22.9228C22.3001 22.8296 22.3993 22.7445 22.4076 22.7363C22.4434 22.6979 22.7052 22.5251 22.7659 22.4977C22.8844 22.4483 22.9726 22.5087 23.1738 22.7775C23.4935 23.208 23.7333 23.4741 23.9207 23.6057C24.3093 23.8745 25.0535 24.1488 25.5661 24.2091C25.8114 24.2365 26.5639 24.2365 26.7706 24.2091C27.2446 24.1433 27.8152 23.9924 28.2369 23.8196C28.2975 23.795 28.3829 23.7593 28.4298 23.7429C28.7385 23.6194 29.6673 23.1093 29.7142 23.0353C29.7224 23.0188 29.7417 23.0078 29.7527 23.0106C29.7693 23.0161 30.0945 22.7857 30.4197 22.5388C30.5603 22.4291 30.778 22.2481 30.9379 22.1055C31.1474 21.9163 32.4152 20.6464 32.4042 20.6355C32.3987 20.63 32.4841 20.5285 32.5971 20.4133C32.7074 20.2954 32.881 20.0979 32.983 19.9772C33.209 19.7085 33.2421 19.6838 33.3302 19.7222C33.3799 19.7441 33.4047 19.7935 33.4432 19.9608C33.5177 20.2652 33.5259 20.6163 33.4846 22.0918C33.4625 22.8158 33.446 23.592 33.446 23.8196C33.4488 24.2283 33.4488 24.2338 33.5397 24.4148C33.7354 24.8097 34.1571 25.0675 34.6918 25.1114C34.9674 25.1334 35.1851 25.0895 35.3533 24.977C35.5655 24.8344 35.6261 24.7 35.7309 24.1625C35.797 23.8196 35.9458 23.0846 35.9679 22.9969C35.9982 22.868 36.1002 22.3962 36.1195 22.303C36.1719 22.0177 36.5439 20.6437 36.6294 20.4188C36.6569 20.342 36.7148 20.1884 36.7562 20.076C36.8912 19.703 37.1889 19.0831 37.2853 18.9652C37.2964 18.9488 37.3157 18.9186 37.3267 18.8967C37.3377 18.8747 37.368 18.8226 37.3956 18.7842C37.6933 18.3426 37.6795 18.3591 38.0075 17.9943C38.1039 17.8846 38.272 17.7228 38.3795 17.635C38.5973 17.4623 39.0245 17.1962 39.0879 17.1962C39.1099 17.1962 39.1375 17.188 39.1485 17.177C39.1761 17.1469 39.3525 17.0893 39.5923 17.0317C40.025 16.9247 40.8325 16.9329 40.9593 17.0481C41.0199 17.103 41.0282 17.3251 40.9841 17.7173C40.9621 17.9313 40.9235 18.3207 40.8491 19.1298C40.7967 19.6756 40.6837 21.1483 40.6506 21.6941C40.6148 22.303 40.6368 22.6677 40.7278 22.9831C40.7498 23.0654 40.7719 23.145 40.7746 23.1614C40.7774 23.1751 40.7967 23.2327 40.816 23.2848C41.1633 24.1872 41.8082 24.7329 42.7481 24.9194C42.9355 24.9551 43.6163 24.9633 43.7816 24.9304C43.8726 24.9139 43.9856 24.892 44.0297 24.8865C44.1344 24.8701 44.5313 24.7412 44.6222 24.6973C44.6608 24.6781 44.7601 24.6287 44.8427 24.5876C44.9916 24.5135 45.5538 24.1542 45.6751 24.0528C45.7109 24.0253 45.8515 23.9102 45.9865 23.7977C46.3145 23.5317 46.874 22.953 47.1248 22.6266C47.2323 22.484 47.3343 22.3523 47.3453 22.3386C47.4142 22.2536 47.7698 21.7078 47.8607 21.5433C47.9214 21.4363 47.982 21.3321 47.9986 21.3047C48.0123 21.28 48.0812 21.1538 48.1501 21.0249C48.2631 20.8083 48.4533 20.5696 48.5112 20.5696C48.525 20.5696 48.536 20.5916 48.536 20.6163C48.536 20.7068 48.6159 21.8175 48.6352 21.9684C48.6628 22.2207 48.7289 22.6294 48.7703 22.7912C48.864 23.1751 48.9053 23.2903 49.0376 23.5591C49.1561 23.795 49.2195 23.8827 49.3904 24.0555C49.6274 24.2914 49.9499 24.4834 50.2917 24.5903C50.5838 24.6808 50.7051 24.6973 51.0441 24.6945C51.9206 24.6918 52.7226 24.2173 53.7727 23.0764C54.3212 22.484 54.448 22.3441 54.6519 22.1055C54.8393 21.8916 55.0984 21.6036 55.3107 21.376C55.3299 21.354 55.3437 21.3376 55.3382 21.3376C55.3299 21.3376 55.3823 21.2772 55.4512 21.2004C55.5201 21.1264 55.5835 21.0715 55.5918 21.0853C55.6028 21.0962 55.6359 21.2334 55.669 21.3924C55.702 21.5515 55.7627 21.823 55.7985 21.9958C55.8371 22.1686 55.8729 22.3414 55.8812 22.3798C55.9087 22.5471 56.1017 23.1751 56.1568 23.2848C56.1761 23.3232 56.2202 23.411 56.256 23.4823C56.2918 23.5564 56.3304 23.614 56.3415 23.614C56.3552 23.614 56.3635 23.6304 56.3635 23.6496C56.3635 23.7703 57.0525 24.3545 57.1931 24.3545C57.2234 24.3545 57.2455 24.3654 57.2455 24.3791C57.2455 24.4038 57.4853 24.4943 57.7306 24.5602C58.0806 24.6561 58.5381 24.6753 59.0094 24.615C59.3843 24.5656 59.9824 24.3407 60.3021 24.1241C60.382 24.0692 60.4537 24.0253 60.4619 24.0253C60.4674 24.0253 60.5446 23.9705 60.6301 23.9047C60.8753 23.7182 61.2943 23.2684 61.4845 22.9886C61.6636 22.7199 61.8924 22.2975 61.8538 22.2975C61.8428 22.2975 61.6278 22.4456 61.3797 22.6266C60.732 23.0956 60.4978 23.208 59.9879 23.2958C59.4146 23.3945 58.9874 23.3726 58.7118 23.23C58.2515 22.9914 58.0227 22.4127 58.0034 21.4473C57.9896 20.7699 58.0806 20.3612 58.5354 19.0886C58.6346 18.8089 58.7559 18.4633 58.8055 18.3207C59.0205 17.6899 59.0949 17.4815 59.1197 17.4294C59.1335 17.3992 59.1693 17.295 59.2024 17.1962C59.2327 17.0975 59.285 16.9549 59.3126 16.8808C59.3402 16.804 59.4036 16.6313 59.4532 16.4969C59.5662 16.176 59.5551 16.2061 59.6599 15.9072C59.8859 15.2764 60.0816 14.6593 60.0981 14.5249C60.1395 14.1931 59.9713 13.8502 59.6985 13.7021C59.4339 13.5595 59.2134 13.6034 58.913 13.8557C58.7586 13.9874 58.37 14.3713 58.2653 14.4948C58.0999 14.6895 57.8518 15.0268 57.7664 15.1667C57.7168 15.249 57.6617 15.3367 57.6451 15.3587C57.579 15.4382 57.1545 16.2144 57.0608 16.4256C56.9451 16.6806 56.0769 18.4002 55.8894 18.7458C55.7902 18.9268 55.6717 19.1435 55.6276 19.2258C55.3437 19.7441 54.889 20.4901 54.8421 20.5093C54.8283 20.5148 54.8201 20.5312 54.8201 20.5477C54.8201 20.608 54.2854 21.1758 54.0511 21.365C53.9849 21.4171 53.916 21.4747 53.8967 21.4939C53.7975 21.5872 53.2711 21.9053 53.023 22.0205C52.2982 22.3578 51.678 22.4867 51.3804 22.3661C51.2701 22.3194 50.989 22.0616 50.989 22.004C50.989 21.9848 50.978 21.9684 50.9614 21.9684C50.9476 21.9684 50.9256 21.9355 50.9173 21.8916C50.9063 21.8504 50.887 21.8038 50.8732 21.7874C50.8595 21.7682 50.8429 21.7325 50.8374 21.7051C50.8291 21.6749 50.8071 21.5789 50.7823 21.4884C50.7079 21.1922 50.6555 20.7013 50.639 20.1445C50.6031 18.9378 50.7795 17.7256 51.1985 16.2775C51.339 15.781 51.3528 15.7042 51.3583 15.3587C51.3611 14.8897 51.2977 14.4948 51.2012 14.3933C51.1819 14.3741 51.1461 14.3247 51.1185 14.2836C50.9945 14.0888 50.6775 14.034 50.4047 14.1602C50.1704 14.2644 49.7377 14.7032 49.5475 15.0296C49.429 15.227 48.8667 16.3954 48.8667 16.4393C48.8667 16.4475 48.8254 16.5407 48.773 16.6477C48.7207 16.7547 48.6766 16.8479 48.6738 16.8534C48.6711 16.8671 48.6325 16.9521 48.3293 17.6213C48.2108 17.8764 48.1005 18.1315 48.0812 18.1836C48.0454 18.2768 47.9131 18.5621 47.6568 19.1023C47.5824 19.2532 47.4583 19.5192 47.3757 19.692C46.8603 20.7863 46.3476 21.4884 45.642 22.0561C45.1321 22.4675 44.5506 22.6266 44.0269 22.495C43.8147 22.4429 43.5722 22.3441 43.5005 22.2838C43.4812 22.2701 43.4123 22.2125 43.3461 22.1604C43.0127 21.8888 42.817 21.4775 42.7067 20.8137C42.6461 20.427 42.6433 19.522 42.7067 19.0173C42.7536 18.6388 42.8941 17.9175 43.0375 17.3196C43.0595 17.2291 43.1008 17.0509 43.1312 16.922C43.1615 16.7931 43.2249 16.5353 43.269 16.346C43.5088 15.3504 43.6659 14.5414 43.6411 14.4262C43.63 14.3741 43.619 14.3137 43.6135 14.2918C43.5997 14.215 43.5005 14.1108 43.3682 14.0285C43.2414 13.9517 43.2194 13.9462 42.9437 13.9462C42.6764 13.9462 42.6378 13.9545 42.4862 14.0258C42.263 14.1355 42.0866 14.3247 41.9433 14.6099C41.8027 14.8897 41.6676 15.0213 41.4968 15.0405C41.4361 15.0488 41.2294 15.0625 41.0448 15.0707C39.9037 15.1283 38.8619 15.504 37.9468 16.1897C37.6684 16.4009 37.2192 16.8561 36.9794 17.1743C36.6321 17.635 36.34 18.1699 36.0616 18.8555C35.9403 19.1599 35.8604 19.3272 35.7943 19.426C35.7667 19.4671 35.7529 19.5 35.7639 19.5C35.7722 19.5 35.7667 19.5192 35.7474 19.5412C35.7281 19.5631 35.7033 19.5823 35.6923 19.5823C35.662 19.5823 35.5931 19.1764 35.5407 18.7047C35.5159 18.4853 35.4718 18.1342 35.4415 17.923C35.3698 17.4266 35.2568 16.6806 35.2375 16.5929C35.2292 16.5545 35.2182 16.4612 35.2072 16.3872C35.1879 16.2034 35.0501 15.4026 34.9454 14.8376C34.8902 14.5551 34.8765 14.5085 34.7883 14.3165C34.7166 14.1684 34.4575 13.9243 34.2729 13.8338C34.0496 13.7268 33.763 13.7213 33.559 13.8256C33.4184 13.8941 33.22 14.1026 33.2007 14.1958C33.1924 14.2232 33.1649 14.2973 33.1373 14.3576C33.0932 14.4564 33.0877 14.5304 33.1015 15.153C33.1263 16.4749 33.118 16.9439 33.0629 17.1962C32.9885 17.5583 32.8645 17.8983 32.644 18.3646C32.5916 18.4715 32.5503 18.573 32.5503 18.5895C32.5503 18.6059 32.5337 18.6361 32.5172 18.6553C32.4979 18.6745 32.451 18.7458 32.4152 18.8144C32.338 18.957 31.9963 19.5055 31.9715 19.5275C31.9632 19.5357 31.9081 19.6042 31.8474 19.6838C31.7868 19.7606 31.7096 19.8593 31.6765 19.9032C31.6435 19.9443 31.558 20.0431 31.4836 20.1199C31.412 20.1994 31.3182 20.3009 31.2769 20.3475C31.2356 20.3941 31.1942 20.4325 31.1832 20.4325C31.1749 20.4325 31.1336 20.4654 31.0922 20.5093C30.9517 20.6464 30.8442 20.7315 30.5686 20.9317C30.1662 21.2251 30.0669 21.291 29.9512 21.3431C29.8933 21.3705 29.8106 21.4144 29.772 21.4418C29.637 21.535 29.0031 21.8093 28.6448 21.9272C28.3664 22.0205 27.7435 22.1823 27.4927 22.2262C26.9911 22.314 26.4812 22.314 26.156 22.2289C25.828 22.1412 25.4642 21.8998 25.285 21.6502C25.0728 21.354 24.935 20.9344 24.8854 20.4215C24.7889 19.415 25.0342 18.3838 25.5634 17.5665C25.6323 17.4595 25.6957 17.3526 25.7039 17.3279C25.715 17.3004 25.7315 17.2785 25.7425 17.2785C25.7536 17.2785 25.8169 17.2017 25.8831 17.1085C26.0044 16.9329 26.63 16.2939 26.8312 16.1348C26.8918 16.0855 27.0159 15.9867 27.1096 15.9154C27.275 15.7838 27.964 15.2874 28.0522 15.2353C28.077 15.2188 28.2148 15.1283 28.3554 15.0296C28.4987 14.9308 28.6558 14.8239 28.7054 14.791C28.755 14.758 28.8046 14.7169 28.8157 14.7004C28.8267 14.6813 28.7826 14.5606 28.7164 14.4317C28.5511 14.1026 28.2837 13.8365 28.0191 13.7323C27.6581 13.5869 27.2502 13.6061 26.6796 13.7954C25.6295 14.141 24.8082 14.6785 24.0585 15.515C23.8353 15.7618 23.4356 16.3213 23.2868 16.5956C22.9974 17.1277 22.7521 17.7365 22.6446 18.1918C22.6198 18.2933 22.5812 18.4551 22.5592 18.5483C22.4324 19.0831 22.391 19.9772 22.4351 21.269C22.4517 21.6996 22.4351 21.7654 22.278 21.9602C22.2257 22.026 22.1071 22.1357 22.0134 22.207C21.9197 22.2783 21.8398 22.3469 21.8343 22.3578C21.8288 22.3688 21.8067 22.3798 21.7874 22.3798C21.7681 22.3798 21.7461 22.388 21.7406 22.399C21.7323 22.4209 21.5284 22.5608 21.4236 22.6184C21.261 22.7034 21.1783 22.7528 21.1397 22.7802C21.0681 22.8323 20.4562 23.0929 20.233 23.1642C19.8829 23.2794 19.5164 23.3644 19.227 23.3973C18.7171 23.4549 17.813 23.3973 17.5209 23.2876C17.4795 23.2711 17.4465 23.2629 17.4465 23.2711C17.4465 23.2931 16.9807 23.1121 16.7547 22.9996C16.446 22.846 16.3523 22.7912 16.0546 22.569C15.6357 22.2591 15.5172 22.122 15.5172 21.9464C15.5172 21.8367 15.6247 21.6804 15.8066 21.5296C15.8507 21.4912 16.0243 21.3431 16.1924 21.2004C16.3578 21.0578 16.5314 20.9097 16.5755 20.8713C16.7795 20.7013 17.2315 20.2926 17.4189 20.1144C17.5319 20.0047 17.6642 19.8812 17.7111 19.8374C17.8792 19.6838 18.5627 18.9405 18.6537 18.8116C18.673 18.7842 18.7226 18.7266 18.7639 18.6827C18.9651 18.4688 19.6073 17.5747 19.6101 17.5007C19.6128 17.4924 19.6431 17.4348 19.6817 17.3745C19.8829 17.0646 20.1806 16.3104 20.2715 15.8825C20.3542 15.4876 20.3184 15.1146 20.1641 14.7964C19.9215 14.2891 19.4006 13.9874 18.6041 13.8886C18.2513 13.8448 17.5126 13.8612 17.2342 13.9188C16.6692 14.0367 16.0408 14.2918 15.6274 14.5715C15.3766 14.7416 15.1313 14.9281 15.1313 14.95C15.1313 14.9637 15.1148 14.9747 15.0982 14.9747C15.0624 14.9747 15.0238 15.0104 14.6214 15.4053C14.0343 15.984 13.6512 16.5078 13.315 17.2017C13.0421 17.7585 12.9043 18.1342 12.772 18.6772C12.6756 19.0722 12.5763 19.6783 12.5543 19.9937C12.5185 20.5834 12.4936 20.7342 12.4165 20.8302C12.3338 20.9426 12.2263 20.9673 11.981 20.9399C11.7522 20.9125 11.777 20.9207 11.3554 20.7644C11.1514 20.6903 10.8978 20.5971 10.7903 20.5559C10.6856 20.5175 10.5202 20.449 10.4238 20.4051C10.3273 20.3585 10.2446 20.3228 10.2364 20.3228C10.1564 20.3228 8.47516 19.4781 8.1582 19.2806C8.13615 19.2669 8.08103 19.234 8.03417 19.2093C7.99008 19.1819 7.83022 19.0831 7.68139 18.9899C7.53255 18.8939 7.40853 18.8144 7.40301 18.8144C7.38372 18.8144 6.23164 18.0272 6.20133 17.9943C6.19306 17.9861 6.0332 17.8627 5.84303 17.7201C5.30282 17.3169 4.57519 16.5517 4.42911 16.2308C4.27477 15.8962 4.39604 15.5891 4.77915 15.345C4.86183 15.2929 4.93625 15.249 4.94452 15.249C4.95278 15.249 5.02444 15.2188 5.10437 15.1831C5.32487 15.0844 5.50402 15.0213 6.09108 14.8376C6.38599 14.7471 6.68365 14.6511 6.75256 14.6264C6.82146 14.599 6.89037 14.577 6.9069 14.5743C6.94549 14.5688 7.35616 14.4317 7.42782 14.4015C7.45814 14.3878 7.52153 14.3631 7.56563 14.3494C7.65382 14.3192 7.95149 14.2068 8.0893 14.1492C8.13615 14.13 8.18852 14.1135 8.21057 14.108C8.22986 14.1053 8.26018 14.0888 8.27672 14.0724C8.29325 14.0559 8.32357 14.0422 8.34286 14.0422C8.38145 14.0422 8.48067 14.0011 8.86102 13.8228C9.46187 13.5431 9.94144 13.2825 10.3769 13C10.4679 12.9397 10.5616 12.8821 10.5836 12.8739C10.8344 12.7532 12.4551 11.5931 12.7141 11.3462C12.7582 11.3051 12.7996 11.2722 12.8051 11.2722C12.8134 11.2722 12.8354 11.2557 12.8547 11.2365C12.874 11.2201 12.9622 11.1405 13.0504 11.0665C13.5493 10.6441 14.3375 9.85151 14.4946 9.61838C14.5194 9.58273 14.5608 9.53062 14.5883 9.50594C14.6131 9.47851 14.671 9.41269 14.7124 9.35783C14.7537 9.30024 14.7923 9.25087 14.8033 9.24265C14.875 9.17957 15.4317 8.35678 15.5806 8.09075C15.8148 7.67387 16.0684 7.06501 16.1125 6.8072C16.118 6.76606 16.1428 6.63442 16.1649 6.51374C16.2062 6.29708 16.2062 5.57028 16.1676 5.34813C15.9361 4.06184 14.8006 2.59455 13.2571 1.58526C13.1276 1.50298 12.9787 1.40974 12.9264 1.38231C12.874 1.35214 12.7913 1.30277 12.7445 1.26986C12.6425 1.19855 11.9782 0.855726 11.7963 0.781677C11.7274 0.75425 11.6199 0.710369 11.5593 0.682943C11.2038 0.529356 10.3053 0.26058 9.96625 0.208471C9.90837 0.1975 9.85324 0.186529 9.84222 0.181046C9.83119 0.172817 9.77331 0.161846 9.71544 0.153618C9.6548 0.145391 9.47014 0.120707 9.30201 0.0960217C9.00986 0.0521412 7.6869 0.0164871 7.38648 0.0439129ZM8.81968 2.41079C9.34335 2.44919 9.53077 2.47113 9.84773 2.53695C9.95798 2.55889 10.0765 2.58083 10.1151 2.58906C10.4486 2.65488 11.1018 2.86606 11.4105 3.00868C11.5235 3.06079 11.6447 3.11564 11.6806 3.12936C11.8074 3.17872 12.3944 3.52155 12.5653 3.65045C12.8079 3.82598 13.0917 4.11395 13.2571 4.34159C13.4032 4.54454 13.5493 4.86817 13.5741 5.03821C13.5823 5.09581 13.5961 5.16163 13.6044 5.18357C13.6182 5.22197 13.6182 5.95973 13.6044 6.07492C13.5382 6.60973 13.3315 7.13631 12.987 7.65467C12.8327 7.88779 12.772 7.97007 12.7417 7.98927C12.7224 8.00024 12.7059 8.02492 12.7059 8.04138C12.7059 8.05783 12.659 8.12366 12.6039 8.18674C12.546 8.24982 12.4551 8.35404 12.4055 8.41986C12.3531 8.48294 12.2924 8.55425 12.2704 8.57345C12.2511 8.59539 12.2401 8.61184 12.2456 8.61184C12.2539 8.61184 12.2125 8.65847 12.1574 8.71606C12.1023 8.77366 11.9782 8.90804 11.8818 9.01226C11.5097 9.41543 11.1238 9.78294 10.7325 10.1121C10.2198 10.5426 10.2364 10.5289 9.70165 10.8855C9.4977 11.0226 9.31855 11.1433 9.30201 11.157C9.28823 11.168 9.18901 11.2256 9.08152 11.2859C8.97678 11.3435 8.88032 11.4038 8.86929 11.4203C8.85827 11.4367 8.84724 11.4395 8.84724 11.4285C8.84724 11.4148 8.8059 11.4285 8.75905 11.4587C8.61021 11.5519 8.19128 11.7521 7.86881 11.8865C7.70344 11.9578 7.54082 12.0264 7.5105 12.0401C7.38923 12.095 6.79115 12.2979 6.57341 12.3555C5.96154 12.5201 5.96981 12.5201 5.80168 12.5502C5.75758 12.5585 5.64458 12.5804 5.55363 12.6023C5.45992 12.6243 5.32487 12.6462 5.25045 12.6572C5.17603 12.6654 5.00515 12.6901 4.86734 12.7121C4.56141 12.7614 4.22791 12.7642 4.1342 12.7175C3.99915 12.6517 3.96332 12.5283 3.97986 12.1635C3.99088 11.8728 4.07632 10.8718 4.20311 9.58547C4.22516 9.35784 4.24996 9.10003 4.25548 9.00952C4.26374 8.91902 4.28855 8.65298 4.3106 8.41986C4.34918 8.03041 4.39328 7.54771 4.4236 7.1994C4.43187 7.1226 4.44289 7.0129 4.45116 6.95256C4.45943 6.89222 4.47046 6.75509 4.48148 6.65087C4.50077 6.39033 4.50629 6.3437 4.61378 5.27957C4.67166 4.69539 4.72402 4.29497 4.75434 4.20995C4.80946 4.05087 4.99413 3.77113 5.14847 3.6148C5.24494 3.51606 5.48472 3.30762 5.54812 3.26923C5.58946 3.24454 5.62253 3.21438 5.62253 3.20341C5.62253 3.19244 5.63631 3.18147 5.65009 3.18147C5.66663 3.18147 5.69419 3.16775 5.71349 3.15404C6.08281 2.83864 6.90139 2.5013 7.42782 2.44919C7.50499 2.44096 7.60697 2.42725 7.65658 2.41628C7.82471 2.38611 8.41453 2.38062 8.81968 2.41079ZM18.1576 15.6275C18.2954 15.6988 18.4525 15.9017 18.4911 16.058C18.5269 16.1952 18.5352 16.5243 18.5076 16.6313C18.4663 16.7848 18.0969 17.4129 17.9178 17.6323C17.802 17.7722 17.3169 18.2658 17.2976 18.2658C17.2894 18.2658 17.2591 18.285 17.2342 18.307C17.1846 18.3454 16.9338 18.5346 16.7988 18.6361C16.7574 18.6663 16.6775 18.7211 16.6196 18.7595C16.231 19.0173 16.0022 19.1682 15.8341 19.2751C15.7294 19.3437 15.5695 19.4452 15.4841 19.5028C15.3986 19.5631 15.3187 19.6097 15.3077 19.6097C15.2994 19.6097 15.2443 19.6454 15.1864 19.692C15.1285 19.7359 15.0734 19.7743 15.0651 19.7743C15.0541 19.7743 14.9604 19.8319 14.8529 19.9032C14.7096 19.9964 14.6214 20.0321 14.5277 20.0431L14.3982 20.054L14.3651 19.8072C14.3265 19.5165 14.321 18.8665 14.3568 18.6361C14.3734 18.5456 14.3899 18.4222 14.4009 18.3618C14.4423 18.0766 14.6352 17.5226 14.7923 17.2237C15.1175 16.6121 15.4758 16.2034 15.9113 15.9374C16.2338 15.7454 16.5562 15.6302 16.909 15.5891C16.9862 15.5781 17.0496 15.5671 17.0551 15.5644C17.0606 15.5589 17.2839 15.5561 17.5512 15.5589C18.0005 15.5644 18.0473 15.5699 18.1576 15.6275Z" fill="white"/>
<path d="M89.2168 0.0905132C89.2085 0.0959988 89.0349 0.112453 88.8309 0.120682C88.2329 0.15085 86.739 0.353804 85.8681 0.521103C85.1101 0.669205 84.8676 0.715828 84.7932 0.729542C84.5782 0.770681 83.9084 0.913298 83.4702 1.01752C83.3352 1.04769 83.1725 1.08608 83.1091 1.09705C82.9879 1.12448 81.6015 1.47005 81.2101 1.57427C80.9015 1.65655 80.6258 1.7306 80.2868 1.82384C80.1435 1.86498 79.9561 1.91435 79.8734 1.93629C79.7907 1.95823 79.7025 1.98292 79.6805 1.99389C79.6584 2.00212 79.6198 2.01309 79.5978 2.01583C79.5372 2.02406 79.0521 2.16393 78.9088 2.2133C78.8398 2.23798 78.7406 2.29009 78.6883 2.32849C78.6359 2.36963 78.5449 2.43271 78.4898 2.46836C78.4319 2.50676 78.3851 2.54515 78.3851 2.55613C78.3851 2.56984 78.3685 2.57807 78.3465 2.57807C78.3244 2.57807 78.2996 2.61921 78.2886 2.67954C78.2748 2.76182 78.2803 2.78925 78.3217 2.81942C78.4623 2.92089 79.1844 3.37342 79.2092 3.37342C79.2257 3.37342 79.2395 3.38439 79.2395 3.39536C79.2395 3.40908 79.4545 3.52701 79.7163 3.65591C80.4412 4.02068 80.466 4.05359 80.4632 4.62132C80.4632 4.8325 80.455 5.13418 80.4439 5.29325C80.4219 5.65802 80.3282 6.97722 80.2731 7.67933C80.251 7.97279 80.2262 8.29916 80.2207 8.40613C80.2124 8.51035 80.1821 8.90528 80.149 9.28376C80.1187 9.6595 80.0691 10.2711 80.0388 10.6414C79.9726 11.4312 79.9892 11.2447 79.8321 12.9314C79.7632 13.6692 79.708 14.289 79.708 14.3055C79.708 14.3466 79.5261 14.3795 78.8261 14.4673C78.5146 14.5057 78.137 14.5578 77.9854 14.5798C77.8338 14.6017 77.6602 14.6236 77.5996 14.6291C77.5389 14.6319 77.2854 14.662 77.0346 14.6922C76.7838 14.7251 76.431 14.7635 76.2491 14.7827C76.0671 14.7992 75.888 14.8184 75.8494 14.8266C75.8108 14.8321 75.4966 14.8458 75.1466 14.854C73.7051 14.8952 72.2554 14.6703 70.7753 14.1793C70.5934 14.119 70.4308 14.0696 70.417 14.0696C70.4032 14.0696 70.3316 14.0449 70.2599 14.012C69.9788 13.8886 69.9485 13.8776 69.9016 13.8776C69.874 13.8776 69.841 13.8667 69.8244 13.8557C69.7941 13.8283 69.5295 13.7268 69.513 13.7378C69.5075 13.7433 69.4937 13.7323 69.4854 13.7186C69.4579 13.6719 69.1767 13.5184 69.1519 13.5348C69.1244 13.5513 69.1492 13.4635 69.3311 12.8766C69.3945 12.6654 69.4689 12.4186 69.4965 12.3281C69.5213 12.2376 69.5709 12.0703 69.6067 11.9578C69.6921 11.6918 69.8051 11.3215 69.8575 11.1487C69.8796 11.0719 69.9319 10.8937 69.976 10.7511C70.0201 10.6084 70.0835 10.3973 70.1166 10.2848C70.1497 10.1724 70.191 10.0298 70.2103 9.96942C70.2296 9.90908 70.2682 9.78566 70.2957 9.69515C70.3233 9.60465 70.3619 9.48123 70.3812 9.42089C70.4005 9.36055 70.4611 9.16309 70.5162 8.98207C70.5686 8.80106 70.6375 8.57891 70.6651 8.4884C70.6954 8.3979 70.745 8.2306 70.7781 8.11815C70.8111 8.0057 70.8552 7.86309 70.8745 7.80275C70.8966 7.74241 70.971 7.50106 71.0399 7.26794C71.1116 7.03481 71.1998 6.75507 71.2328 6.65085C71.2687 6.54389 71.3789 6.19283 71.4809 5.8692C71.5829 5.54557 71.7262 5.10127 71.7979 4.88186C72.1699 3.76287 72.203 3.62026 72.1534 3.32131C72.0955 2.9538 71.7979 2.52047 71.401 2.22975C71.0978 2.0076 70.8828 2.08165 70.5851 2.5095C70.5328 2.58355 70.4832 2.65212 70.4749 2.66035C70.4143 2.72068 70.0063 3.30486 70.0063 3.32954C70.0063 3.33777 69.9705 3.39536 69.9264 3.46119C69.8355 3.59557 69.2622 4.76119 69.2622 4.81055C69.2622 4.82152 69.2374 4.87912 69.2098 4.94494C68.9452 5.51541 68.5235 6.70022 68.2314 7.67933C68.1101 8.08798 67.851 9.05338 67.8014 9.28376C67.7876 9.3441 67.7408 9.54157 67.6967 9.72258C67.6085 10.0709 67.5313 10.3973 67.512 10.5042C67.5065 10.5399 67.4679 10.699 67.4293 10.858C67.3935 11.0171 67.3108 11.3764 67.2474 11.6561C67.1868 11.9359 67.1262 12.1882 67.1124 12.2184C67.0986 12.2485 67.0793 12.3006 67.071 12.3336C67.0572 12.3857 67.0435 12.3911 66.9994 12.3692C66.9691 12.3527 66.9305 12.3473 66.9139 12.3582C66.8974 12.3692 66.8919 12.3665 66.9001 12.35C66.9112 12.3336 66.8698 12.3089 66.8092 12.2897C66.7486 12.2732 66.6218 12.2156 66.5281 12.1608C66.4316 12.1087 66.3103 12.0456 66.258 12.0182C66.2056 11.9935 66.156 11.9633 66.1477 11.9551C66.1284 11.9304 65.398 11.5163 65.2106 11.4257C65.1279 11.3846 65.0149 11.3243 64.9626 11.2941C64.9102 11.2639 64.7062 11.1597 64.5078 11.061C64.3121 10.965 64.1302 10.8745 64.1082 10.8608C63.9262 10.7483 63.8077 10.7127 63.6368 10.7127C63.5128 10.7127 63.4412 10.7264 63.4136 10.7538C63.2841 10.88 63.2648 11.1049 63.3612 11.3133C63.7278 12.0977 63.8408 12.276 64.2212 12.6544C64.3865 12.819 64.5216 12.9452 64.5216 12.9397C64.5216 12.9314 64.5822 12.9836 64.6539 13.0521C64.7283 13.1207 64.8275 13.2084 64.8744 13.2468C64.924 13.2852 65.0149 13.3648 65.0783 13.4251C65.3154 13.6445 65.5248 13.8091 65.5717 13.8063C65.5965 13.8063 65.6158 13.8228 65.613 13.8475C65.6103 13.8694 65.6378 13.9023 65.6709 13.9188C65.7067 13.938 65.726 13.9572 65.7178 13.9654C65.7095 13.9736 65.7481 14.0093 65.8004 14.0422C65.8556 14.0751 65.8997 14.1163 65.8997 14.13C65.8997 14.1464 65.9079 14.1546 65.9162 14.1464C65.9245 14.1355 65.9741 14.1711 66.0292 14.2232C66.0816 14.2753 66.1394 14.3082 66.1532 14.2973C66.1725 14.289 66.1753 14.2945 66.1643 14.311C66.145 14.3439 66.3048 14.5002 66.3462 14.4865C66.3599 14.4838 66.3655 14.4892 66.3572 14.503C66.3489 14.5167 66.3792 14.5633 66.4261 14.6072C66.4757 14.6538 66.5005 14.7004 66.4922 14.7279C66.4729 14.7745 66.1863 16.4584 66.1643 16.6614C66.1532 16.7355 66.1422 16.8177 66.1367 16.8397C66.1284 16.8616 66.1174 16.9494 66.1091 17.0317C66.0981 17.1139 66.0871 17.2127 66.0788 17.2511C66.043 17.4485 65.9052 18.4441 65.806 19.2257C65.8004 19.2779 65.7674 19.5055 65.737 19.7331C65.7067 19.958 65.6737 20.1994 65.6681 20.2679C65.6544 20.3941 65.4669 21.7709 65.387 22.3523C65.3374 22.7006 65.3209 23.5783 65.3539 24.1926C65.376 24.615 65.4201 24.7631 65.5524 24.8865C65.6296 24.9578 65.6516 24.9633 65.7922 24.9496C65.9603 24.9359 66.054 24.892 66.3434 24.6918C66.506 24.5793 66.8257 24.2365 66.8946 24.1021C66.9663 23.9622 67.2309 22.8433 67.3163 22.3249C67.3411 22.1686 67.3604 22.0698 67.388 21.9684C67.399 21.9163 67.4266 21.7791 67.4431 21.6667C67.4624 21.5542 67.4817 21.4363 67.4872 21.4061C67.4955 21.376 67.5506 21.0907 67.6085 20.7698C67.6691 20.449 67.7546 20.0184 67.7987 19.8099C67.8428 19.6015 67.8841 19.393 67.8924 19.3492C67.9006 19.3025 67.9447 19.0941 67.9916 18.8829C68.0384 18.6717 68.0881 18.4304 68.1046 18.3481C68.1211 18.2658 68.1459 18.1534 68.1597 18.1013C68.179 18.0245 68.4408 16.7985 68.5759 16.1595C68.609 15.9922 68.642 15.9703 68.7716 16.0251C68.8212 16.0471 68.9755 16.1129 69.1106 16.1677C69.2484 16.2253 69.4496 16.3158 69.5626 16.3679C69.6756 16.4201 69.7859 16.4639 69.8051 16.4639C69.8244 16.4639 69.841 16.4749 69.841 16.4886C69.841 16.4996 69.8548 16.5106 69.8713 16.5106C69.8851 16.5106 70.0422 16.5736 70.2186 16.6477C70.395 16.7245 70.5576 16.7793 70.5824 16.7711C70.6044 16.7629 70.6155 16.7629 70.6044 16.7738C70.5686 16.8095 71.1998 17.0481 71.2466 17.0179C71.2632 17.0097 71.2742 17.0125 71.2742 17.0262C71.2742 17.0646 71.9577 17.284 72.3766 17.38C72.4759 17.4019 72.6302 17.4376 72.7212 17.4595C72.8121 17.4842 72.9169 17.5061 72.9554 17.5144C72.994 17.5198 73.0547 17.5308 73.0932 17.5363C73.1318 17.5418 73.2007 17.5555 73.2448 17.5637C74.2839 17.7667 75.5655 17.8106 76.6625 17.6871C76.8003 17.6707 76.9794 17.6515 77.0621 17.646C77.2523 17.6295 77.8945 17.5445 78.5036 17.4568C78.7599 17.4184 79.0107 17.3882 79.0631 17.3882C79.1155 17.3882 79.2009 17.369 79.2533 17.3498C79.3718 17.3004 79.369 17.2456 79.2836 17.9367C79.245 18.2302 79.1954 18.7047 79.1706 18.9926C79.1265 19.5302 79.1182 19.6152 79.0741 20.1034C79.0603 20.2625 79.0025 20.9042 78.9501 21.5295C78.7158 24.2996 78.7103 24.423 78.7958 24.7658C78.9115 25.2321 79.0521 25.4899 79.2395 25.5941C79.3497 25.6544 79.595 25.649 79.7108 25.5859C80.014 25.4131 80.3116 25.0949 80.488 24.7494C80.5597 24.6095 80.7306 24.146 80.7223 24.1131C80.7196 24.1021 80.7251 24.0747 80.7361 24.0528C80.7499 24.0171 80.805 23.7044 80.827 23.5454C80.8298 23.5152 80.9208 22.9722 81.0282 22.3386C81.3066 20.6903 81.4858 19.5192 81.596 18.6635C81.6732 18.0492 81.7283 17.6652 81.7889 17.3059C81.8303 17.0728 81.8661 16.8397 81.8744 16.7876C81.8909 16.6641 81.8964 16.6559 82.015 16.634C82.0728 16.623 82.1638 16.5956 82.2162 16.5736C82.2685 16.549 82.3264 16.5298 82.3402 16.527C82.3815 16.5243 83.0843 16.2445 83.2855 16.1513C83.382 16.1074 83.473 16.0717 83.4867 16.0717C83.5005 16.0717 83.5115 16.058 83.5115 16.0388C83.5115 16.0224 83.5198 16.0169 83.5308 16.0251C83.5391 16.0361 83.5997 16.0141 83.6604 15.9785C83.7238 15.9428 83.8506 15.8743 83.947 15.8249C84.0407 15.7783 84.1179 15.7234 84.1179 15.707C84.1179 15.6905 84.1262 15.685 84.1344 15.696C84.162 15.7207 84.8345 15.3011 84.8152 15.2682C84.8069 15.2544 84.8125 15.249 84.8262 15.2572C84.8566 15.2764 84.8814 15.2599 85.2341 15.0158C85.4546 14.8622 86.1023 14.3933 86.2264 14.2973C86.2732 14.2616 86.3228 14.2232 86.3366 14.2122C86.4579 14.119 86.9154 13.7871 87.0257 13.7103C87.1745 13.6089 87.3757 13.4608 87.3977 13.4388C87.406 13.4306 87.519 13.3538 87.6485 13.2688C87.8966 13.1097 88.1309 12.926 88.3266 12.7449C88.39 12.6846 88.4699 12.6188 88.5002 12.5968C88.5305 12.5749 88.5471 12.5447 88.5388 12.5283C88.5278 12.5118 88.5305 12.5063 88.5471 12.5146C88.6049 12.5502 89.2306 11.7905 89.203 11.7192C89.1975 11.7 89.2058 11.6863 89.2223 11.6918C89.2416 11.6945 89.316 11.5766 89.3904 11.4285C89.5172 11.1789 89.5283 11.1433 89.5283 10.9595C89.531 10.7209 89.4842 10.6304 89.3326 10.5673C89.1727 10.5015 88.8585 10.5317 88.6518 10.6331C88.5608 10.6798 88.4589 10.7236 88.423 10.7346C88.39 10.7456 88.3707 10.7675 88.3789 10.784C88.39 10.8004 88.3844 10.8059 88.3679 10.7949C88.3238 10.7703 87.4473 11.2338 87.3922 11.3106C87.3812 11.327 87.3702 11.3298 87.3702 11.3188C87.3702 11.3051 87.2241 11.3736 87.0477 11.4669C86.8686 11.5601 86.5792 11.711 86.4055 11.7987C86.2319 11.8892 86.0197 12.0044 85.937 12.0538C85.8543 12.1032 85.6917 12.1882 85.5787 12.243C85.4657 12.3006 85.3582 12.3637 85.3416 12.3857C85.3251 12.4049 85.3031 12.4158 85.2948 12.4049C85.2838 12.3966 85.2617 12.4021 85.2424 12.4186C85.2066 12.446 84.6912 12.7148 83.9801 13.0713C83.6218 13.2523 82.8969 13.5211 82.7674 13.5211C82.7426 13.5211 82.7123 13.5321 82.6957 13.543C82.6737 13.565 82.467 13.6308 82.4256 13.6308C82.4036 13.6308 82.4174 13.4745 82.4752 13.0549C82.489 12.9561 82.6764 11.5163 82.6957 11.3682C82.7012 11.3215 82.7371 11.0829 82.7757 10.8333C82.8694 10.2464 82.9576 9.66773 82.9769 9.5306C83.0072 9.30022 83.0127 9.26456 83.0265 9.19326C83.0347 9.15212 83.0485 9.07532 83.054 9.02321C83.0595 8.9711 83.0788 8.85317 83.0954 8.76266C83.1119 8.67216 83.1312 8.55423 83.1367 8.50212C83.1477 8.41435 83.382 6.88123 83.5915 5.52638C83.6383 5.2384 83.699 4.8133 83.732 4.58018C83.7651 4.34705 83.8009 4.11667 83.8175 4.07005C83.8313 4.02342 83.8423 3.97131 83.8423 3.95212C83.8423 3.93292 83.8809 3.8287 83.9277 3.72174C84.0132 3.52701 84.1455 3.34051 84.2833 3.21709C84.3439 3.16499 84.7325 2.95106 84.7766 2.94832C84.7849 2.94558 84.8566 2.93186 84.931 2.91267C85.0081 2.89621 85.4161 2.83039 85.8405 2.77005C86.265 2.70971 86.7776 2.63292 86.9816 2.60275C87.1855 2.56984 87.384 2.54241 87.4225 2.53693C87.6045 2.51224 88.1502 2.43545 88.6656 2.35866C88.977 2.31203 89.2747 2.26815 89.3271 2.26266C89.3794 2.25718 89.6357 2.21878 89.8921 2.18039C90.1511 2.14199 90.4102 2.10359 90.4709 2.09537C90.5784 2.08439 90.6969 2.0652 91.8489 1.89241C92.3588 1.81836 93.0782 1.69769 93.2408 1.65929C93.2794 1.65106 93.3538 1.63735 93.4062 1.62912C93.566 1.60444 93.9712 1.52765 93.9822 1.51942C94.007 1.49747 93.7011 1.08883 93.5164 0.896843C93.1995 0.567728 92.8825 0.356546 92.5132 0.227644C92.3616 0.172791 92.2293 0.153593 91.9316 0.134396C91.4741 0.106968 89.2361 0.068573 89.2168 0.0905132Z" fill="white"/>
<path d="M121.577 2.04874C121.555 2.05696 121.519 2.08165 121.494 2.10085C121.469 2.12004 121.423 2.15844 121.387 2.18587C121.285 2.26815 121.034 2.63017 120.888 2.90718C120.813 3.04979 120.676 3.31034 120.582 3.48313C120.306 3.99051 119.857 4.91751 119.852 4.99157C119.849 4.99979 119.83 5.04093 119.807 5.08756C119.783 5.13144 119.739 5.2384 119.706 5.32068C119.675 5.40296 119.581 5.64431 119.499 5.85549C119.416 6.06667 119.311 6.34367 119.262 6.47258C119.212 6.60148 119.163 6.73038 119.152 6.76055C119.085 6.91962 119.05 7.01013 118.926 7.35021C118.719 7.90422 118.598 8.23334 118.564 8.31013C118.551 8.34578 118.487 8.51308 118.427 8.68038C118.297 9.03967 118.212 9.26456 118.181 9.33861C118.135 9.44557 117.826 10.304 117.826 10.3232C117.826 10.3452 117.776 10.4631 117.685 10.6551C117.581 10.8854 117.426 10.9485 116.812 11.0143C116.74 11.0198 116.588 11.039 116.475 11.0555C116.362 11.0692 116.213 11.0884 116.145 11.0966C115.938 11.1213 115.431 11.2008 115.29 11.231C115.252 11.2365 115.092 11.2639 114.932 11.2859C114.331 11.3764 114.207 11.4038 114.094 11.4833C113.94 11.593 113.873 11.7357 113.862 11.9907C113.851 12.169 113.862 12.2238 113.92 12.35C114.091 12.723 114.714 13.1399 115.194 13.203C115.241 13.2112 115.356 13.2276 115.456 13.2441C115.555 13.2578 115.698 13.2797 115.772 13.288C115.85 13.2989 115.935 13.3099 115.965 13.3154C115.996 13.3209 116.219 13.3511 116.462 13.3812C117.126 13.469 117.054 13.4306 117.054 13.6994C117.054 13.8255 117.004 14.3329 116.947 14.8293C116.886 15.323 116.831 15.7838 116.823 15.8523C116.814 15.9209 116.795 16.069 116.778 16.1814C116.765 16.2939 116.745 16.442 116.74 16.5106C116.732 16.5791 116.701 16.8424 116.671 17.1002C116.575 17.9038 116.456 19.0365 116.437 19.3492C116.431 19.4534 116.412 19.7386 116.393 19.9827C116.349 20.5833 116.373 22.111 116.434 22.5992C116.519 23.3013 116.701 24.1131 116.861 24.5135C117.266 25.52 118.154 26.1179 118.989 25.9424C119.099 25.9177 119.16 25.8848 119.24 25.808C119.333 25.712 119.342 25.6901 119.342 25.5502C119.342 25.4679 119.331 25.3719 119.317 25.3363C119.303 25.3006 119.276 25.2184 119.256 25.1498C119.237 25.0812 119.129 24.8015 119.019 24.5245C118.906 24.2475 118.799 23.9622 118.777 23.8937C118.752 23.8224 118.724 23.7264 118.708 23.6825C118.567 23.2354 118.454 21.9354 118.454 20.7616C118.451 19.9306 118.462 19.7688 118.611 18.4578C118.636 18.2521 118.824 16.996 118.89 16.6065C118.928 16.3789 118.964 16.165 118.97 16.1266C118.975 16.0882 119.016 15.8551 119.063 15.6055C119.11 15.3559 119.157 15.1036 119.163 15.0433C119.171 14.9829 119.185 14.9143 119.193 14.8897C119.198 14.8622 119.212 14.8074 119.218 14.7662C119.231 14.6757 119.24 14.6456 119.331 14.193C119.394 13.8831 119.548 13.4827 119.593 13.5101C119.604 13.5156 119.626 13.5019 119.645 13.48C119.722 13.3895 119.978 13.3483 121.671 13.1508C121.869 13.1289 122.128 13.096 122.249 13.0795C122.371 13.0631 122.514 13.0439 122.566 13.0384C122.668 13.0274 123.269 12.9479 123.407 12.9287C123.454 12.9232 123.545 12.9122 123.614 12.904C123.683 12.8958 123.931 12.8629 124.165 12.8327C124.399 12.8025 124.642 12.7724 124.702 12.7641C124.763 12.7587 124.857 12.7449 124.909 12.7367C124.962 12.7285 125.055 12.7148 125.116 12.7093C125.309 12.6873 127.384 12.4049 127.527 12.3802C127.58 12.3692 127.663 12.3582 127.707 12.3527C127.754 12.35 127.919 12.3253 128.079 12.3006C128.239 12.276 128.423 12.2513 128.492 12.243C128.561 12.2348 128.646 12.2238 128.685 12.2156C128.724 12.2074 128.804 12.1937 128.864 12.1882C128.925 12.1827 129.019 12.169 129.071 12.1608C129.123 12.1498 129.206 12.1388 129.25 12.1333C129.297 12.1279 129.545 12.0922 129.801 12.0538C130.06 12.0154 130.314 11.977 130.366 11.9715C130.631 11.9331 131.447 11.8097 131.827 11.7494C132.061 11.711 132.304 11.6726 132.365 11.6671C132.425 11.6589 132.624 11.6287 132.806 11.5985C132.987 11.5684 133.175 11.5382 133.219 11.5327C133.266 11.5245 133.365 11.508 133.439 11.4916C133.517 11.4751 133.608 11.4587 133.646 11.4504C133.864 11.4093 134.032 11.3709 134.129 11.3407C134.189 11.3215 134.338 11.2776 134.459 11.2447C134.804 11.1487 134.969 11.0418 135.041 10.869C135.165 10.581 134.994 10.3287 134.509 10.0736C134.079 9.85148 133.853 9.78292 133.495 9.77469C132.943 9.76097 129.225 9.96119 127.266 10.1093C126.962 10.1312 126.621 10.1559 126.508 10.1641C126.16 10.1861 124.984 10.2848 124.895 10.2985C124.851 10.304 124.713 10.3177 124.592 10.326C124.471 10.3369 124.005 10.3808 123.559 10.4247C122.71 10.5097 122.677 10.5125 122.208 10.5618C122.048 10.5783 121.899 10.592 121.877 10.592C121.855 10.592 121.748 10.603 121.64 10.6167C121.533 10.6276 121.345 10.6468 121.227 10.6551C121.106 10.6633 120.885 10.6825 120.734 10.6962C120.582 10.7099 120.348 10.7291 120.21 10.7401C120.075 10.7483 119.954 10.762 119.943 10.7703C119.876 10.8087 119.959 10.4521 120.122 9.99684C120.16 9.88988 120.273 9.56899 120.373 9.28376C120.474 8.99578 120.576 8.71329 120.599 8.65296C120.623 8.59262 120.67 8.45549 120.706 8.35127C120.742 8.24431 120.805 8.07152 120.844 7.9673C120.968 7.64093 121.045 7.40507 121.031 7.40507C121.023 7.40507 121.028 7.38861 121.045 7.36941C121.062 7.35021 121.125 7.19389 121.186 7.0211C121.414 6.36562 121.48 6.1846 121.497 6.15718C121.505 6.14072 121.525 6.08587 121.541 6.03376C121.558 5.98165 121.627 5.77595 121.698 5.58123C121.77 5.38376 121.842 5.18081 121.855 5.1287C121.872 5.07659 121.891 5.01899 121.902 5.00528C121.913 4.98882 121.944 4.90929 121.971 4.82701C121.999 4.74473 122.029 4.65148 122.043 4.62131C122.112 4.45401 122.15 4.33334 122.136 4.33334C122.125 4.33334 122.134 4.31688 122.15 4.29494C122.17 4.273 122.194 4.22089 122.208 4.17701C122.219 4.13587 122.283 3.9576 122.346 3.78481C122.509 3.33228 122.533 3.23903 122.533 3.00317C122.533 2.69874 122.459 2.49853 122.263 2.3038C122.181 2.21878 122.062 2.12827 122.001 2.0981C121.888 2.04599 121.649 2.01583 121.577 2.04874Z" fill="white"/>
<path d="M93.1004 12.1827C92.9599 12.2184 92.7504 12.3857 92.6291 12.5612C92.5712 12.6435 92.5244 12.7203 92.5244 12.7312C92.5244 12.7395 92.4775 12.8327 92.4169 12.9369C92.359 13.0384 92.2433 13.2523 92.1606 13.4114C92.0779 13.5705 91.9621 13.7844 91.9015 13.8913C91.6204 14.4015 91.138 15.3477 90.9865 15.6878C90.9424 15.7865 90.8872 15.9099 90.8624 15.962C90.4931 16.7903 90.0935 18.1671 89.771 19.7194C89.6607 20.257 89.5753 20.6738 89.534 20.8987C89.5092 21.0276 89.4788 21.1757 89.4651 21.2278C89.4513 21.28 89.432 21.3842 89.421 21.461C89.4072 21.535 89.3962 21.6036 89.3962 21.6118C89.3824 21.6749 89.3245 21.9437 89.3135 22.0095C89.1867 22.643 89.1839 22.6732 89.1729 23.4C89.1564 24.2036 89.1701 24.3352 89.2942 24.604C89.4458 24.9359 89.6111 25.0236 89.9143 24.9441C90.4435 24.807 90.9258 24.3243 91.2014 23.6551C91.2924 23.4411 91.353 23.1724 91.4385 22.6485C91.7389 20.7781 92.0917 19.2504 92.6374 17.4568C92.7366 17.1304 93.1583 15.8715 93.1969 15.7838C93.2189 15.7371 93.2437 15.6713 93.2548 15.6329C93.2878 15.5259 93.7178 14.3905 93.8584 14.0449C93.9273 13.8749 93.9907 13.7076 93.9962 13.6747C94.0237 13.5321 94.1064 13.2743 94.1257 13.2743C94.1808 13.2743 94.1698 13.1755 94.1009 13.074C94.0568 13.011 93.9824 12.8903 93.9355 12.808C93.6572 12.3226 93.3788 12.1114 93.1004 12.1827Z" fill="white"/>
<path d="M110.117 12.5365C109.615 12.5941 108.995 12.819 108.551 13.107C108.157 13.362 107.901 13.5869 107.476 14.0532C107.082 14.4892 106.707 14.588 106.082 14.4234C105.558 14.289 105.5 14.2808 104.982 14.278C104.483 14.2753 104.241 14.2918 103.99 14.3494C103.921 14.3631 103.841 14.3795 103.811 14.3878C103.538 14.4426 103.444 14.4645 103.383 14.4892C103.345 14.5029 103.295 14.5194 103.273 14.5221C103.191 14.5359 102.81 14.6702 102.65 14.7443C102.562 14.7854 102.449 14.8348 102.4 14.8513C102.292 14.8924 101.738 15.216 101.551 15.3477C101.278 15.5396 101.129 15.6603 100.988 15.792C100.911 15.866 100.848 15.9209 100.848 15.9154C100.848 15.8742 100.175 16.601 100.037 16.7958C100.007 16.8369 99.9603 16.8972 99.9328 16.9302C99.9024 16.9603 99.8528 17.0316 99.8225 17.0865C99.7894 17.1386 99.7536 17.188 99.7453 17.1962C99.7343 17.2044 99.6461 17.3333 99.5441 17.4842C99.3236 17.816 99.0949 18.0546 99.0673 17.9806C99.037 17.9038 99.0756 17.2538 99.1224 17.0316C99.1445 16.9192 99.1693 16.7875 99.1776 16.7437C99.1831 16.697 99.241 16.3844 99.3016 16.0443C99.365 15.7042 99.4339 15.3285 99.4559 15.2078C99.5634 14.6154 99.5882 14.3439 99.5552 14.1409C99.5056 13.8475 99.365 13.5842 99.1583 13.3949C99.0646 13.3099 98.9626 13.2304 98.9323 13.2167C98.902 13.2029 98.8413 13.17 98.7945 13.1399C98.6374 13.0466 98.4251 12.9918 98.2763 13.0082C98.0806 13.0329 97.9842 13.1371 97.805 13.5074C97.5928 13.9434 97.4936 14.278 97.4412 14.7415C97.4329 14.8019 97.4219 14.8705 97.4164 14.8924C97.3971 14.9555 97.2372 15.9017 97.2207 16.058C97.2124 16.1321 97.2014 16.2006 97.1959 16.2088C97.1849 16.2253 96.9451 17.6597 96.923 17.827C96.9175 17.8791 96.8982 17.997 96.8817 18.0875C96.8569 18.2302 96.8321 18.3892 96.7577 18.8692C96.697 19.2449 96.6805 19.3574 96.6695 19.4177C96.6391 19.6042 96.6033 19.8264 96.5895 19.9333C96.5813 19.9991 96.5702 20.0787 96.562 20.1116C96.5537 20.1445 96.5427 20.2158 96.5372 20.2679C96.5289 20.32 96.4986 20.5285 96.4655 20.7314C96.2753 21.9327 96.2395 22.2508 96.2395 22.7363C96.2395 22.9996 96.2533 23.3588 96.2726 23.5316C96.2891 23.7044 96.3084 23.9074 96.3167 23.9842C96.3497 24.3242 96.3608 24.3873 96.4076 24.4998C96.5124 24.7411 96.6667 24.8618 96.9561 24.9304C97.1683 24.9797 97.4081 24.9386 97.6369 24.8152C97.8243 24.7137 98.042 24.4148 98.1468 24.1131C98.2377 23.8443 98.3342 23.5947 98.3645 23.5344C98.381 23.5042 98.4692 23.2848 98.5602 23.0462C98.6511 22.8076 98.7366 22.5882 98.7504 22.558C98.7641 22.5278 98.7945 22.4593 98.8193 22.4044C98.8413 22.3496 98.9185 22.1603 98.9874 21.9793C99.0563 21.801 99.1252 21.6255 99.1417 21.5899C99.2024 21.4445 99.2244 21.3951 99.3181 21.1922C99.3705 21.0742 99.4146 20.97 99.4146 20.9591C99.4146 20.9399 99.5717 20.6107 99.8142 20.128C100.062 19.6344 100.52 18.9432 100.837 18.5812C100.944 18.4605 101.377 18.019 101.498 17.9093C101.994 17.4567 102.716 17.0207 103.419 16.7464C103.598 16.6778 103.753 16.6202 103.764 16.6202C103.775 16.6202 103.877 16.5901 103.99 16.5544C104.367 16.4365 105.032 16.3213 105.429 16.3048C105.916 16.2856 106.244 16.4145 106.379 16.6751C106.435 16.7848 106.443 16.8451 106.454 17.2373C106.465 17.7831 106.479 17.8626 106.625 18.178C106.661 18.2576 106.691 18.3289 106.691 18.3371C106.691 18.3591 106.98 18.7896 107.041 18.8555C107.068 18.8884 107.159 18.9926 107.242 19.0886C107.325 19.1873 107.559 19.4561 107.766 19.6892C107.97 19.9223 108.193 20.1747 108.259 20.2515C108.325 20.3283 108.438 20.4599 108.513 20.5422C108.766 20.8302 108.984 21.0989 109.012 21.162C109.028 21.1977 109.056 21.2278 109.069 21.2278C109.086 21.2278 109.091 21.2361 109.08 21.2443C109.072 21.2525 109.091 21.3183 109.122 21.3869C109.204 21.5734 109.221 21.9546 109.158 22.2316C109.091 22.5278 108.899 22.9584 108.775 23.0791C108.755 23.0983 108.711 23.1504 108.673 23.1943C108.598 23.2821 108.336 23.4658 108.165 23.5508C107.912 23.677 107.507 23.7483 107.049 23.751C106.294 23.7565 105.751 23.4768 105.332 22.8597C105.233 22.7171 104.899 22.0835 104.899 22.0396C104.899 22.0314 104.861 21.9409 104.814 21.8394C104.635 21.4472 104.596 21.3622 104.596 21.354C104.596 21.3458 104.571 21.2854 104.541 21.2141C104.486 21.088 104.486 21.088 104.409 21.1291C104.296 21.1867 103.96 21.5487 103.847 21.738C103.678 22.0122 103.596 22.2947 103.593 22.6129C103.593 22.7637 103.598 22.931 103.607 22.9831C103.651 23.2464 103.783 23.5755 103.918 23.7648C103.948 23.8086 103.976 23.8553 103.976 23.8662C103.976 23.8991 104.274 24.2557 104.417 24.3928C104.803 24.7686 105.197 25.0318 105.63 25.2046C106.137 25.4076 106.589 25.4899 107.215 25.4871C108.38 25.4871 109.464 25.1388 110.21 24.5327C110.357 24.412 110.825 23.943 110.825 23.9156C110.825 23.9046 110.877 23.8278 110.944 23.7428C111.263 23.3177 111.484 22.8432 111.572 22.3852C111.591 22.2783 111.6 22.0972 111.589 21.9053C111.569 21.5268 111.489 21.2745 111.285 20.9426C111.126 20.6848 111.051 20.5915 110.632 20.1308C110.133 19.585 110.117 19.5658 109.006 18.4331C108.954 18.3783 108.868 18.2795 108.816 18.211C108.764 18.1424 108.714 18.0821 108.706 18.0738C108.656 18.0354 108.48 17.7667 108.405 17.6213C108.074 16.9658 108.119 16.1869 108.518 15.6219C108.653 15.4299 108.863 15.2297 109.111 15.0542C109.243 14.961 109.395 14.8485 109.447 14.8101C109.499 14.769 109.571 14.7278 109.607 14.7169C109.64 14.7059 109.668 14.684 109.668 14.6702C109.668 14.6565 109.679 14.6456 109.692 14.6456C109.706 14.6456 109.877 14.5551 110.073 14.4426C110.731 14.0641 111.321 13.7624 111.878 13.5101L111.983 13.4635L111.93 13.362C111.859 13.2276 111.589 12.9588 111.409 12.8437C111.148 12.6764 110.869 12.5749 110.591 12.5475C110.5 12.5392 110.401 12.5283 110.37 12.5228C110.34 12.5173 110.227 12.5255 110.117 12.5365Z" fill="white"/>
<path d="M95.1665 4.79853C95.0809 4.82595 94.9566 4.8808 94.8903 4.91919C94.686 5.03985 94.2938 5.44571 94.128 5.70897C94.0866 5.77478 94.0369 5.85431 94.0176 5.88447C93.9016 6.06821 93.7248 6.47955 93.6364 6.77572C93.548 7.06914 93.5315 7.15689 93.5342 7.37902C93.5342 7.77665 93.653 8.08653 93.8988 8.33608C94.4622 8.91196 95.4897 8.72274 96.3542 7.88909C96.7243 7.53259 96.9729 7.17061 97.0916 6.81685C97.2546 6.33421 97.0364 5.47313 96.6608 5.10566C96.4481 4.89451 96.1028 4.78208 95.6278 4.76014C95.3765 4.74917 95.2964 4.75465 95.1665 4.79853Z" fill="#F05937"/>
<path d="M60.3134 5.8104C59.8135 5.99687 59.2694 6.52613 59.0125 7.07733C58.902 7.31317 58.8247 7.58466 58.8247 7.73C58.8247 7.83969 58.8744 8.07278 58.9821 8.46219C59.0981 8.8845 59.3246 9.21632 59.5704 9.32601C59.7555 9.40554 60.0234 9.40005 60.2554 9.30956C60.7498 9.11485 61.2745 8.62673 61.5286 8.12763C61.733 7.72726 61.8407 7.30494 61.8463 6.89909C61.849 6.6084 61.8463 6.59195 61.7551 6.41918C61.6336 6.18883 61.4071 5.96945 61.1751 5.8625C61.0149 5.78572 60.9597 5.77475 60.7166 5.76926C60.5095 5.76378 60.4101 5.77475 60.3134 5.8104Z" fill="#F05937"/>
<path d="M88.8749 10.5491C88.687 10.6204 88.2203 10.8425 87.9082 11.0125C87.5574 11.2017 86.8531 11.5747 86.4167 11.8023C86.2427 11.8901 86.03 12.0052 85.9472 12.0546C85.8643 12.104 85.7014 12.189 85.5881 12.2466C85.4749 12.3041 85.3506 12.37 85.3119 12.3892C85.1738 12.4659 84.5938 12.7648 84.0967 13.0144C83.757 13.1872 83.4559 13.3133 83.2018 13.3983C82.9891 13.4669 82.8013 13.5217 82.7792 13.5217C82.7599 13.5217 82.7212 13.5327 82.6936 13.5464C82.387 13.7 82.1495 13.7685 80.9757 14.0537C80.2686 14.2237 79.6665 14.3636 79.6361 14.3636C79.6057 14.3636 79.2881 14.402 78.9318 14.4514C78.5755 14.498 78.1336 14.5556 77.9513 14.5775C77.769 14.5994 77.5398 14.6323 77.4404 14.6461C77.2719 14.6707 76.8548 14.7201 76.2527 14.7832C75.0292 14.9148 73.999 14.8874 72.8417 14.6982C72.4523 14.6323 71.8391 14.5007 71.585 14.4267C71.4856 14.3992 71.2867 14.3417 71.1431 14.3005C70.9995 14.2594 70.8614 14.2183 70.8393 14.2073C70.773 14.1771 70.4305 14.0702 70.4001 14.0702C70.3836 14.0702 70.3173 14.0482 70.251 14.0181C70.0991 13.9523 69.9527 13.8947 69.7483 13.8234C69.6572 13.7905 69.4086 13.6698 69.1959 13.5519C68.522 13.1789 66.8814 12.3233 66.7654 12.2877C66.6439 12.2493 66.5417 12.1944 66.144 11.9641C65.7324 11.7255 65.343 11.5089 65.1773 11.4266C65.0944 11.3855 64.9812 11.3251 64.9287 11.295C64.8762 11.2648 64.5973 11.1195 64.3073 10.9741C63.7963 10.7191 63.777 10.7109 63.6002 10.7136C63.4759 10.7136 63.4041 10.7273 63.3765 10.7547C63.2467 10.8809 63.2273 11.1058 63.324 11.3142C63.5201 11.7337 63.6554 11.9943 63.7632 12.1643C63.8847 12.3562 64.3487 12.8334 64.7216 13.1515C64.8293 13.242 64.9701 13.3654 65.0392 13.4257C65.169 13.5382 65.2132 13.5738 65.4949 13.8097C65.5833 13.8837 65.68 13.966 65.7048 13.9879C65.7297 14.0098 65.7904 14.0592 65.8401 14.0976C65.8899 14.136 66.0722 14.3005 66.2434 14.4651C66.6439 14.8435 67.0941 15.1479 67.9613 15.6223C68.3314 15.8252 68.6408 15.9898 68.6491 15.9898C68.6573 15.9898 68.7015 16.0062 68.7485 16.0282C68.7982 16.0474 68.9501 16.1132 69.0854 16.168C69.2235 16.2256 69.4224 16.3134 69.5274 16.3627C70.4001 16.7713 71.6403 17.2128 72.4633 17.4021C72.6263 17.4404 72.803 17.4843 72.8555 17.498C72.9909 17.5364 73.7255 17.6543 74.057 17.69C75.2943 17.8244 76.2721 17.7723 78.5037 17.4569C78.7633 17.4212 79.023 17.3856 79.0837 17.3801C79.2025 17.3664 81.8098 16.7165 81.9009 16.6781C81.9313 16.6644 82.0445 16.626 82.1495 16.5931C82.6246 16.4477 83.4614 16.094 83.9171 15.8444C84.174 15.7046 84.7457 15.359 84.9253 15.2356C84.9943 15.189 85.1379 15.0903 85.2429 15.0163C85.4583 14.8682 86.1101 14.3965 86.2372 14.2978C86.2841 14.2621 86.3339 14.2237 86.3477 14.2128C86.4637 14.1223 86.9277 13.7877 87.0382 13.7109C87.1155 13.6588 87.2757 13.5464 87.3972 13.4586C87.5187 13.3709 87.7204 13.231 87.8446 13.1433C88.5351 12.6634 89.1483 11.9833 89.4328 11.3827C89.593 11.0509 89.5957 10.7712 89.4438 10.6204C89.3831 10.5573 89.3472 10.5491 89.1455 10.5408C89.0185 10.5381 88.897 10.5408 88.8749 10.5491Z" fill="#F05937"/>
</g>
<defs>
<clipPath id="clip0">
<rect width="135.107" height="26" fill="white"/>
</clipPath>
</defs>
</svg>
