<svg width="317" height="229" viewBox="0 0 317 229" fill="none" xmlns="http://www.w3.org/2000/svg">
<path d="M163.448 121.511L163.122 122.433L163.665 122.923L162.346 124.099L161.243 123.392L159.924 124.099L159.266 123.629L157.067 123.16L156.187 124.336L155.53 124.099L154.867 124.336L155.313 125.279L157.289 125.748L157.388 127.563L159.706 128.104L159.82 129.826L159.23 131.213L154.785 135.049L155.851 136.966L155.095 137.43H153.501L150.018 134.791L150.603 132.925L151.617 133.234L156.844 131.373L156.7 130.44L155.825 130.285L153.217 131.218L152.202 130.754L151.333 126.712L153.801 126.094L153.651 125.315L152.927 125.161L150.893 125.939L150.608 124.233L149.009 120.191L148.574 120.036L147.85 120.66L146.251 119.263L146.401 115.536L145.526 113.824L144.801 114.133V113.515H144.512L144.801 112.344L144.998 112.288L145.102 112.298L149.164 110.22L151.364 106.689L157.652 106.22L157.517 103.627L158.18 102.214L157.962 101.508L157.082 101.271V100.564L161.704 99.3889L162.144 99.8581L161.513 100.951L161.709 102.446L163.246 102.683L164.349 101.977V103.389L163.686 104.096L162.366 104.333L161.927 105.513L163.246 107.163L162.144 107.87L161.704 109.045L162.584 111.164L162.361 111.87L161.487 112.339L160.167 114.221L160.607 118.933L162.144 119.639V120.346L163.448 121.511ZM138.99 111.025L141.163 111.334L143.197 112.576L143.047 115.685L144.061 117.237L143.916 118.17L144.641 119.258L145.366 119.567L144.786 122.052L144.931 122.671L145.945 123.449L145.661 124.691L146.385 126.089L145.51 127.486L145.8 128.573L145.215 128.728L144.781 130.435L143.766 131.058L143.332 132.77H142.462L141.298 131.218H140.283L139.849 131.837H139.269L138.255 131.373L137.82 130.285H136.655L136.221 130.749L136.366 132.301L134.627 132.455L132.738 129.816L133.323 127.486L134.047 126.553L133.757 125.774L133.323 126.238L133.033 126.083L133.178 125.465H133.618V125.15L133.038 125.305V123.284L133.907 123.129L133.183 122.665L131.009 122.356L130.43 121.423V120.026H129.265L128.83 118.783V117.696L129.265 116.917L128.685 115.206L127.961 114.427L128.106 113.803L130.43 112.406L131.734 112.252L132.174 111.164L133.188 111.318L133.478 112.406L134.352 112.561L135.946 111.473H137.691L138.125 111.009H138.99V111.025Z" fill="#E2E8F0"/>
<path d="M203.029 127.867L198.413 128.573L196.876 127.161L195.773 127.635L193.574 127.398L193.134 126.929L191.814 126.692L188.295 129.048L186.758 127.867L185.878 127.635L185.216 128.341H184.336V127.161L183.679 126.929V125.042L182.359 124.336L182.799 122.217L181.919 121.511H181.262V120.567L180.382 119.392L182.359 118.448L183.901 118.923L186.494 118.448L186.318 117.036L186.758 116.567H187.638L188.295 117.505L189.615 117.273L190.717 115.386L191.374 115.86L194.893 115.623L195.773 115.149L196.431 115.386L197.755 115.149L197.973 114.211H199.075L200.172 113.504H202.149L201.999 117.824L203.215 125.733L203.029 127.867Z" fill="#E2E8F0"/>
<path d="M145.091 112.288L145.226 111.489L144.791 110.241L143.777 109.463L143.342 108.38L141.308 106.983H140.439L138.695 107.916L138.26 108.535L136.226 108.689V108.999L134.777 109.153L134.342 109.617H133.178L132.743 110.241L129.84 108.529L127.371 108.22L124.763 109.617L123.888 110.55L123.743 111.329L122.144 111.638L120.4 111.329L119.525 110.241L117.646 110.396L116.772 110.086L116.337 110.71H115.468L114.303 111.953L112.709 112.262L112.13 113.355L109.087 112.886L108.647 113.355H108.067L107.342 114.443L107.053 114.288L106.763 115.061L104.879 114.907L104.144 115.53L102.56 115.84V116.159L100.837 115.84L100.242 115.417L100.32 113.51L102.302 112.097L104.279 109.509L106.038 109.272L106.696 108.803L106.918 108.096L106.696 107.39L104.719 107.864L104.056 107.39L103.399 105.271L102.296 105.034V103.147L103.176 102.678L104.056 103.147L104.719 102.91L106.478 100.791L109.118 102.204H110.442L110.003 99.8478L110.882 98.4352L114.402 99.6106L115.281 98.6672L118.356 98.9044L119.458 98.6672V97.2546L120.12 96.0741L122.537 94.4243L123.412 94.1872L124.074 94.6563L125.394 92.3003L126.051 92.5375L127.811 92.3003L130.01 89.9443L130.885 89.47L132.205 89.7072L133.53 90.6506H134.627L137.271 88.5318L138.591 86.65L140.568 86.4129L141.23 86.882L141.448 87.5883H142.11L142.767 87.1192L143.647 87.3563L144.967 86.882L145.407 85.9386L147.167 84.526L148.269 84.9952H150.028V84.2889L151.348 82.8763L151.566 81.4637L151.529 82.3453L153.791 81.5462L162.517 81.9123L162.786 84.0517L167.278 84.0672L168.603 84.4332L170.367 83.6445L173.338 83.9538L173.121 85.9334L174.001 86.8769L174.218 88.5266V90.1763L173.338 90.6506L173.783 93.7129L173.338 94.4192L171.361 95.8318L170.699 97.2443L169.162 98.4249L167.842 100.075L165.425 100.781L164.323 101.961L163.22 102.668L161.683 102.431L161.487 100.936L162.118 99.8426L161.678 99.3735L157.057 100.549V101.255L157.936 101.492L158.154 102.199L157.491 103.611L157.626 106.204L151.338 106.673L149.138 110.205L145.091 112.288ZM105.474 138.982L83.7119 138.75L85.0213 137.121L85.8907 135.1L86.6153 134.946L87.2001 135.41L87.4899 134.946L90.533 133.703L90.9677 133.079L92.422 132.925L92.2771 131.373L93.2914 131.064L94.016 130.285H95.6151L96.6295 128.424L97.0694 128.579V129.357L98.8135 128.733L98.089 126.558H98.6686L99.3931 127.182V128.269L99.2482 129.048L98.2339 129.826V130.914L97.2195 131.692V132.471L99.2534 131.692L100.702 130.141V129.677L102.012 127.965L104.041 126.413L104.915 126.259L105.93 125.326L106.654 125.171L107.234 124.552L107.524 123.465L108.398 123.155L108.543 123.934L109.413 124.088L109.563 123.624L109.128 122.691L109.708 122.382L109.563 120.83L109.852 120.521L111.446 121.145L112.171 120.99L113.33 121.609L115.219 123.475L115.364 124.717L116.813 127.048L115.069 127.826L115.359 129.538L116.234 130.161V130.625L115.794 131.404H115.359L115.214 132.801L114.49 133.889L115.504 134.667L115.649 135.291L114.49 134.827L113.04 136.688L110.862 136.533L110.717 137.621L109.992 137.93L108.978 137.467L108.833 136.688L107.524 135.291L107.234 133.739L106.509 132.961H105.64L105.49 132.651L104.33 132.806L104.765 134.048L104.62 134.667H104.91L105.2 136.533L105.635 136.997L105.474 138.982ZM118.097 115.216L118.387 116.149L119.836 115.525L120.56 115.68L120.41 116.299H119.691V117.696L119.111 118.005L118.821 118.783L119.256 119.562L120.131 119.407L121 120.804V121.423L117.372 123.135L116.937 121.892L116.213 121.423V120.645L115.048 119.866L114.764 119.088L116.213 118.933L116.358 118.624L116.503 117.072L115.633 116.763L116.068 115.675L116.943 115.206H118.097V115.216ZM144.791 112.334L144.988 112.277L144.791 112.334Z" fill="#E2E8F0"/>
<path d="M163.448 121.511H164.768L165.431 120.33L166.31 120.804L167.402 120.33L169.384 121.273L170.264 120.098H170.922L171.584 119.392L172.904 120.567L174.223 120.804L175.321 120.33L176.863 120.567L177.08 121.511L176.423 122.454V123.16L177.743 124.099L178.622 126.217V128.811L177.525 131.636L176.863 131.167H170.922L170.487 131.636L171.118 132.347L170.264 132.579L168.484 134.007L168.065 133.048L166.968 132.105L166.083 133.048L166.067 133.987L162.931 131.687H161.911L161.187 132.925L162.641 133.863L163.221 134.791L161.482 136.502L161.772 137.436L161.337 138.209H160.752L159.593 136.812L156.4 136.657L155.851 136.966L154.79 135.049L159.236 131.213L159.826 129.826L159.707 128.104L157.388 127.563L157.29 125.748L155.313 125.279L154.873 124.336L155.535 124.099L156.187 124.336L157.072 123.16L159.272 123.629L159.929 124.099L161.249 123.392L162.346 124.099L163.666 122.923L163.122 122.433L163.448 121.511Z" fill="#E2E8F0"/>
<path d="M193.574 127.398V132.342L192.472 133.517L195.991 137.049L196.431 137.992L195.867 138.147L193.548 136.812L193.253 136.193L192.673 136.033L191.514 134.791L191.224 135.879L192.384 137.121L193.253 137.436L194.273 138.833L194.847 138.987V139.451L196.881 140.854V141.318L198.04 141.163L198.625 141.472L198.475 141.936L199.055 142.405V143.179L199.903 143.957L199.929 144.576L199.199 145.199L197.75 144.112L196.301 142.251L194.707 141.163L190.355 136.502L188.901 135.569L188.176 136.193L187.886 137.436H187.596V138.054L186.872 138.678L186.722 139.297L187.446 140.694V141.627L187.886 141.781L187.446 145.509L185.997 146.597H185.418V146.906L184.258 146.751L183.679 147.061L183.389 147.994L183.083 147.999L183.016 145.292L181.919 144.586V143.643L178.405 138.936L177.08 135.404L176.64 133.755L177.525 131.636L178.622 128.811V126.217L177.743 124.099L176.423 123.16V122.454L177.08 121.511L176.863 120.567L177.525 119.392H180.382L181.262 120.567V121.511H181.919L182.799 122.217L182.359 124.336L183.679 125.042V126.929L184.336 127.161V128.341H185.216L185.878 127.635L186.758 127.867L188.295 129.048L191.814 126.692L193.134 126.929L193.574 127.398Z" fill="#E2E8F0"/>
<path d="M120.131 96.074L119.469 97.2546V98.6672L118.366 98.9043L115.292 98.6672L114.412 99.6106L110.893 98.4352L110.013 99.8478L110.453 102.204H109.128L106.489 100.791L104.729 102.91L104.067 103.147L103.187 102.678L102.307 103.147V105.034L103.41 105.271L104.067 107.39L104.729 107.864L106.706 107.39L106.929 108.096L106.706 108.803L106.049 109.272L104.289 109.509L102.312 112.097L100.33 113.509L100.253 115.417L100.848 115.84L100.247 116.154L98.6483 115.53L98.0686 115.84L97.194 115.685L96.0347 114.597L95.7449 113.509L94.0008 111.643L92.2619 112.267L91.6823 110.246L89.2137 111.179L88.4891 111.958L86.1654 112.272L85.4408 111.339L84.5662 111.184L84.2816 110.72L82.6824 110.566L82.1028 109.478L82.2477 108.859H81.6629L81.373 107.772H80.9383V109.014H80.6485L80.3639 110.102L79.6393 110.88H78.4749L77.0258 111.659L76.736 110.88L75.7216 110.256L75.8665 111.654L76.3012 112.123L76.0114 112.901H74.5623L74.2725 112.592L74.5623 111.659L74.1276 110.88L72.9683 109.638L71.659 109.483L70.7895 108.395H69.7752L69.6251 109.174L70.065 109.638V110.875L69.3404 111.344L67.0167 111.813L65.4227 110.102L65.1329 110.571L65.8574 112.123L66.0024 113.52L66.4371 113.674L66.7269 113.365L67.3117 114.298L66.7269 114.453L66.582 115.231H66.2922L65.4227 113.834L64.5481 113.68L64.1134 113.061L63.5337 113.216L64.1134 116.015L63.5337 116.324L62.9541 115.706L63.3888 114.927H62.804L62.6591 115.706L61.3497 115.551L59.7557 114.309L59.3158 113.375L59.0312 113.839L58.3015 113.994L57.7218 113.061L56.1227 112.437L55.6879 111.973L55.9778 111.355L55.6879 110.112H55.1083L54.5287 108.87L53.9439 109.024L52.6397 112.597H52.0549L51.765 111.509L52.4896 109.488L52.0186 108.555L50.7455 108.401L50.1659 109.334L48.7116 109.488L48.132 109.952L44.9388 108.246L45.2286 107.313L44.5041 105.606L43.9244 105.916V106.534L43.4897 106.844L42.0406 104.359L42.2166 103.25L42.7962 103.096L42.9411 102.627L43.5259 102.781L44.5403 101.848L45.2648 98.2702L44.8249 96.5587L42.0717 95.1615L41.9216 93.6046L41.4869 93.2953V92.6767L42.2114 92.2127L42.0665 90.3464L41.0521 89.4133L39.8929 89.568L39.0182 88.6348L37.859 88.7895L35.5352 88.1657L35.1005 87.3873L38.0039 83.3454H38.5835L38.8733 82.567L41.1919 80.8554L41.7767 78.6798H43.2258L45.9842 77.4374L49.3223 77.9014L49.757 77.2776L51.2061 76.9683L51.9307 76.3445L54.2854 75.8702L54.1509 78.8603L54.5908 79.8037L57.8926 75.798L59.6522 72.0294L70.4272 72.2666V72.9729L71.0845 73.442L77.683 73.6791L78.3403 73.442L79.0028 73.9163L80.9797 73.442L81.4248 72.9729L84.0642 72.5037V73.21L83.1844 74.6226V76.0351L84.7215 78.154L85.3839 77.9168L89.5604 78.154L89.7778 81.6906L90.4402 82.1649H91.7599L92.1998 82.634L92.4224 87.5832H112.653V86.1706L113.093 85.7015H117.052L117.492 86.1706L117.269 87.5832L115.949 87.8203L115.732 88.5266V92.058H119.691L120.354 92.5323L120.131 96.074ZM23.7873 100.92L24.5118 101.693H26.111L26.6906 102.317V102.941L25.9661 103.56L25.8212 104.647L26.2559 105.89L25.8212 107.287L25.2364 107.911H24.3669L23.9322 107.442L24.3669 105.266L24.9465 105.111L24.8016 103.56L23.2076 102.472L22.333 102.317V100.92H23.7873ZM68.766 127.646L68.9109 128.579L70.3548 129.043L70.2151 129.976L69.4905 130.754L68.0466 130.445L68.1812 128.115L68.766 127.646ZM28.1397 120.191L28.8643 120.969H29.3042V120.5L29.7389 120.346L30.0287 121.279L29.4439 121.897L29.594 122.985L29.3042 123.294H28.8643L28.1397 120.809L27.1254 120.5L27.41 119.882L28.1397 120.191ZM77.3259 123.764L77.9108 125.006L77.4709 125.47L77.3259 126.712L76.3116 127.8L76.4617 125.779L77.0361 125.47L77.3259 123.764ZM27.1254 118.479V117.082L27.9948 116.773L28.4295 117.706L27.1254 118.479ZM54.3993 75.7413L54.2906 75.8856L54.3993 75.7413Z" fill="#E2E8F0"/>
<path d="M203.029 127.867L206.109 127.635L207.651 130.929L208.308 133.517L208.971 134.224H209.845L211.605 135.404H212.485L212.925 134.698L213.587 134.93L213.147 136.817L212.045 137.992L213.587 138.229L214.462 139.168L212.707 141.993L211.605 142.699L212.045 144.112L212.925 144.349L213.147 145.055L213.804 145.292V146.705L214.462 147.411L214.684 149.53L212.925 149.056L212.485 149.762L212.925 150.231L212.485 150.705L213.147 152.118L212.262 153.293L212.925 153.763L213.147 154.706L213.856 154.515L213.421 154.984H212.842L210.668 154.366L210.233 153.742L210.373 152.345L207.765 150.015L206.461 147.684L203.702 145.509L202.683 144.421L202.393 143.493L200.219 141.627L199.929 140.384L198.19 139.451H196.301L195.867 138.147L196.431 137.992L195.991 137.049L192.472 133.517L193.574 132.342V127.398L195.774 127.635L196.876 127.161L198.413 128.573L203.029 127.867Z" fill="#E2E8F0"/>
<path d="M183.084 147.999L182.954 148.618L182.23 148.927L181.355 147.994L180.341 147.839L178.597 149.705L178.457 150.324L177.438 151.102L175.844 150.638L174.974 150.948L174.394 150.788L173.815 150.015H172.795L174.105 149.396L173.955 148.308H172.94V147.061L173.665 146.906L173.38 144.421L172.361 144.576L171.636 145.354L170.477 145.664L168.008 147.22L167.718 144.89L168.153 144.266L167.718 143.024L167.428 138.518L169.023 138.209V137.9L167.718 135.569L166.067 133.987L166.083 133.048L166.968 132.105L168.065 133.048L168.484 134.007L170.265 132.579L171.119 132.347L170.487 131.636L170.922 131.167H176.863L177.526 131.636L176.641 133.755L177.08 135.404L178.405 138.936L181.919 143.643V144.586L183.017 145.292L183.084 147.999Z" fill="#E2E8F0"/>
<path d="M92.2724 184.174L92.852 184.638L94.5961 184.793L95.0308 185.571L95.7554 184.947L96.0452 185.571L96.7645 185.726L96.7697 186.035L95.6105 186.499L96.0452 187.432L95.8951 187.896H95.4604L95.6105 188.206L94.1562 189.139L92.5622 189.453L91.5478 190.696L91.8376 191.624L89.5139 192.247L88.6445 194.418H87.0453L86.6106 193.954V193.175L85.886 192.866V192.557H85.0166L83.7072 193.33L83.4174 194.109L82.8378 194.418L81.9631 194.263L81.3835 194.727L81.0989 196.124L80.0845 195.815L79.5049 196.124L79.6549 194.727L79.3651 194.263L78.0558 194.418L76.3117 193.175V192.557L77.1863 191.938L78.2007 189.763L76.027 187.278L75.0127 187.123L74.728 186.35L75.3077 185.726L75.4578 184.174L76.4721 183.401L76.9069 182.004L75.3077 180.761L74.5831 180.916L74.0035 180.292L72.5544 180.137L71.8247 180.761L70.6654 181.071L70.3756 181.844L68.7816 182.468L68.1968 182.313L66.8926 183.246L66.7425 184.019L67.0323 184.174L66.5976 184.638L65.5832 184.483L64.9984 185.107H64.4188V185.417L63.834 184.953L63.9789 184.019L63.1094 183.71L61.6603 184.019V183.71H61.2256L56.1435 185.417L55.8588 186.195H55.274L54.6944 186.968L53.2453 186.814L52.5207 187.278L52.2309 188.211L51.6513 188.675L49.1827 189.608L48.308 189.299L47.7284 188.211L46.419 188.52L46.2741 189.139L45.8342 189.293L45.5444 190.691L44.0953 191.154V192.397L46.8538 193.17V192.706L48.013 191.933V192.242L50.3367 193.016L50.6266 193.325L50.3419 196.439L51.3563 197.063L51.2062 197.372L49.6122 197.217L48.7376 197.681L48.1579 197.527L47.4334 197.836V198.145L45.2598 198.769L44.8199 198.46L44.6749 197.686H43.9504L43.5157 196.444L42.2063 196.289L41.7716 196.444L41.3369 198.929H40.7572L40.3225 199.393L39.7429 198.774L38.2938 198.31L36.8447 196.758L36.1201 197.073L35.8303 195.83H35.3956L34.9609 195.052H33.7964L33.5118 194.743L33.222 193.191L32.6423 192.572L33.0771 191.484L33.517 191.33L33.3669 190.551H31.333L31.1881 190.861L30.8982 189.928L30.0288 189.773V191.17L28.8643 191.948L28.1398 191.634V190.861L26.6907 191.015L24.662 192.722L24.2221 194.119L23.0628 194.737L23.6424 196.753L22.7678 197.068L22.3331 196.444H21.3187L20.3044 197.377H19.8696L18.7104 199.393L17.9858 199.702V200.475L17.5511 200.63V201.249L16.9663 201.872L16.6765 201.563L15.5172 201.872L15.6621 200.63L14.6477 200.475L13.7783 200.63L13.3436 201.254L12.0342 201.099L11.8893 201.563L10.1452 201.872L9.56039 202.496V203.115L10.435 203.584V204.208H9.85539L9.56557 204.981L8.11648 204.363H7.10212L6.52248 204.981L6.67256 205.754L6.08775 205.909L5.2183 204.512L6.52248 203.739L6.52766 201.723H7.68693L7.83184 200.481L7.39711 200.017H6.52248L6.23784 200.481L6.08775 200.017L5.23382 199.707L5.07339 199.089L3.76921 198.465L3.91412 197.377L3.6243 196.753L4.0642 195.665H4.64384L4.79392 193.804L2.76002 192.098V188.685L3.04984 188.221L2.89976 187.912L2.46503 188.066V187.133L3.33966 186.2L3.91929 183.251L5.95319 182.787L7.9871 184.808V185.272L8.56673 185.427L9.726 183.411L9.29128 182.014V180.308L8.56673 179.844L9.15154 178.137L10.021 177.983L11.0354 177.204H13.209L14.9531 175.807L14.8082 173.631L13.4988 173.317L13.7886 172.544L12.1895 172.234L12.0445 172.858H11.4649L11.1803 173.322H9.71565L9.13602 172.08V171.147L10.5799 170.213L10.8749 169.126L12.0342 168.971L13.0486 168.347L14.3579 168.502L14.9376 169.744H15.8122L16.3918 168.502L17.1164 168.038L17.8409 166.486H18.1307L18.4205 164.78L19.4349 164.156L21.6137 164.31L22.6281 163.532L24.0772 163.377L24.9466 162.135L26.1111 162.599L26.256 163.527L26.8408 163.682V164.46L27.8552 163.996V162.29L27.4153 162.135L26.8356 161.047L26.9805 159.186L30.1737 157.789L31.1881 156.701L31.0431 155.773L31.4779 154.376L31.1881 153.443H31.4779V152.824L32.3473 152.67L32.4974 151.427L32.7872 151.891L34.0914 151.577L34.2415 152.665H35.4008L35.5457 151.886L36.2702 151.422V150.798L37.8694 150.953L38.1592 151.417L38.5939 151.262L39.0287 152.195H40.043V151.572L41.3524 151.262L41.7871 150.644L42.5117 150.489L42.6566 150.953L44.2557 151.262L44.4007 151.726L45.8497 151.572L46.8641 152.35L47.2988 153.278V154.83L47.8836 155.139L48.3184 156.072H48.7531L48.6082 156.691L49.0429 156.846L49.4828 157.779H50.2074L50.787 157.315L51.8014 157.624L51.3666 156.536L52.2257 155.448L52.381 154.984L52.0912 154.83L54.4097 150.638H55.4241L55.864 149.86H56.7334L57.1682 150.638H58.6173L59.0572 149.86L62.9749 149.396L65.1537 147.999L67.6223 147.69L71.1001 146.602L74.7073 144.581L76.0322 143.184V142.72L77.3416 141.632L79.8102 140.39L82.5687 139.926L83.7279 138.76L105.49 138.992V140.24L105.93 140.864L104.621 141.642H103.746L103.022 140.245L101.428 139.616L101.277 140.075L99.3833 141.333L96.2004 141.019L95.6208 142.575L94.7462 142.73L95.1809 143.818L94.7462 145.06H96.4903L96.925 146.303L95.7657 146.921L94.4564 147.076L94.1665 148.319L94.8963 148.783L95.9106 148.319L96.6352 149.097L97.0751 148.009L97.6547 147.855L98.2343 148.473L98.6691 147.54L99.2487 147.385L99.8283 149.406L100.993 150.958V151.737H100.543L100.398 151.273L98.5138 151.582L97.3494 150.339H96.7697L96.4799 150.803L97.0596 151.891H97.4943L96.335 152.824L96.7697 154.845L97.2045 155.469H98.2188L98.5086 155.933L98.3586 157.33L97.9238 157.639L98.6484 159.037L97.634 159.346L97.7841 160.279L97.3442 160.588L98.3586 161.521V162.295L97.7789 163.073V163.852L98.2137 164.161L97.634 164.934L97.7841 165.867L96.6197 165.558L95.3155 166.491L93.7163 166.182L93.1367 165.718H91.9722L91.5375 164.321L89.9435 164.166L89.5036 163.233L88.1994 162.455H87.035L85.8757 164.006L86.1655 165.249L87.9096 166.182L87.7595 167.424L89.3587 167.888L89.6485 168.662L90.373 169.126L91.6824 172.074H92.262L92.6968 172.693V173.781L91.5375 173.936L90.5231 174.559L90.3782 175.023L89.2189 175.487L87.0401 175.797L86.3156 177.503L83.2725 178.9V179.833L84.2869 180.143L84.5715 180.607L85.8809 179.988L86.1707 181.076H86.7503L87.7647 182.164L88.3443 183.87L88.9291 184.179L90.3782 184.334L91.2477 183.092L91.8273 183.246L92.2724 184.174ZM151.758 215.06L151.607 213.972L150.738 213.199L150.303 213.354L149.863 214.287L148.414 214.132L147.98 213.508L146.386 212.89L145.946 211.647L146.67 209.317L147.4 209.162L147.685 209.472L148.409 208.229L149.284 208.074V205.435L149.574 204.347L150.008 204.192L150.153 201.089L149.863 200.78H150.443L150.593 200.161L149.434 199.697L149.009 199.073L149.139 198.449L149.863 198.295L149.718 197.052L150.153 196.738V196.274L149.429 195.495L149.718 194.722L149.284 194.258V193.17H148.994L149.139 192.397L147.835 192.088L147.255 191.469H145.946L145.511 193.639H140.144V192.397L141.019 191.464V190.84L142.613 189.134L144.352 188.36L144.212 187.896H143.337L143.192 187.278V186.814L144.062 186.19L144.031 185.411L142.178 184.638L141.743 183.705L143.606 182.927L144.067 182.153L145.226 181.999L146.536 181.225H147.41L147.99 179.673L148.425 179.828L148.575 180.601L150.024 180.756L150.314 181.529L150.748 181.684L150.603 183.705L149.439 184.014L149.294 184.947L149.729 186.803L151.033 187.273L152.166 188.206L152.197 189.603L151.908 189.912L152.492 190.067L153.652 191.773L155.251 192.082L155.396 191.309L156.845 190.845L158.149 192.088L158.004 193.639L157.28 193.794L156.995 193.485L157.43 194.882L155.396 195.191L152.927 197.831L152.637 199.382L154.086 201.089L154.666 200.78V199.382L155.825 198.918L157.274 197.676L160.033 197.521L162.501 198.454V197.681L163.086 197.527L163.231 196.439L164.246 196.593V196.129L165.115 195.82H165.84L166.424 197.217L169.618 197.063L170.342 198.145L170.052 199.233L169.328 199.542L168.748 200.63L167.149 200.785L166.135 199.388L165.41 199.233L164.975 199.852H164.251L164.541 200.161L164.39 200.939H163.666L163.381 201.558L162.802 201.403L162.657 203.11L161.787 203.264L161.497 203.888L159.753 203.579L159.608 205.131L160.918 204.976L161.353 205.6L161.497 207.152L164.111 211.652L164.256 213.359L163.671 213.049L163.526 212.271L162.802 212.116V211.807L161.927 211.962L160.768 210.41L160.043 210.255L159.608 209.482L158.734 209.173L158.154 208.554L158.004 207.621L156.845 208.554V209.173L158.444 212.431L158.294 215.225L156.845 214.606L155.536 212.121L153.507 214.142V214.921L152.342 215.38L151.758 215.06ZM41.7819 136.657L44.3903 136.038L44.6801 135.574L51.496 133.244L54.1096 133.708L52.8002 134.172V134.951L54.8341 134.487L55.7036 134.641L55.8536 134.332L56.7231 134.641L57.0129 133.863L57.7375 134.172L57.8824 133.708H58.3171V135.569L57.7375 136.812L57.3027 136.966L57.4476 137.585L55.8536 140.07L55.2688 140.384V141.163L54.8341 141.627L54.5443 143.648L55.1239 144.736L53.9646 145.978L53.385 145.664L53.5299 147.839L54.3994 150.015L51.6461 152.5H51.2062L50.7715 151.726L48.1631 151.572L42.6462 149.551H41.7768L41.6267 149.86V149.551L39.0183 149.396L37.859 149.86L35.2455 150.015L33.7964 150.638H31.6228L31.333 150.015L29.5941 150.479L29.8787 149.7L30.8931 149.391L31.9074 147.525L33.2168 146.591L33.5066 145.813L32.1972 144.107V142.864L30.7482 142.24L29.0041 142.55L28.8592 141.926L30.1685 141.617L30.6033 140.374L32.4922 140.06L41.7819 136.657ZM218.064 224.376V223.752L219.368 222.355L217.624 222.819L217.044 222.2V221.576L217.479 220.643L218.064 220.334L218.498 218.627L220.817 216.143L224.3 215.369L224.45 213.972L225.464 213.817L225.609 213.508L226.044 213.663L226.479 214.745L228.513 215.833L228.947 217.694H229.237L228.658 220.025L229.962 222.04V223.747L228.078 224.056L226.919 223.592L225.609 223.747L225.464 222.814L224.885 222.659L224.45 223.587L223.141 224.675V225.917L221.692 227.314L220.532 227.778H220.092L219.948 227.314L221.257 225.608V225.144L220.092 224.52L218.064 224.376ZM217.339 224.216L217.189 224.68L216.609 224.835V225.298L217.914 225.144L218.064 224.365L217.339 224.216ZM96.0452 201.872H97.4943L97.929 201.563L98.6535 199.542H99.9629L101.122 198.609L100.253 196.748L98.5086 196.439L98.0739 195.351V194.887L99.0883 195.042L99.5282 194.732L99.6731 193.645L100.253 193.49L100.103 192.717L99.3781 192.407L99.8128 191.319L100.827 190.701L100.977 190.237H103.006L103.296 190.546L103.731 189.773L104.745 189.309V190.087L105.469 190.397V190.861L105.035 191.634L103.586 192.567H105.33L105.475 193.34L103.731 194.119H102.716L101.842 194.892L101.986 196.289L102.856 197.841L104.165 198.774L105.035 198.929L105.62 198.15H106.489L106.779 198.929L107.648 199.547L106.924 200.171V201.104L105.475 201.728L105.33 202.816L104.75 202.507L104.026 201.11H103.591L103.301 201.573H102.432L101.122 202.661V203.28L100.398 203.744H99.5282V204.677L98.9485 204.522L98.8036 204.832H97.7893L97.6392 204.058L96.1901 204.213L96.0452 202.971L95.6105 202.661V202.037L96.0452 201.872ZM102.137 169.739V170.203L103.881 169.889L107.364 170.353L108.378 170.043L109.537 170.507L110.262 171.595L109.537 174.699L110.407 175.472L111.131 177.024L110.841 178.73L110.117 179.503L109.247 179.813L107.648 178.725L107.364 177.482L106.489 176.395V174.998L104.605 174.534V173.755L104.17 173.6L103.731 172.667L100.977 172.513L100.253 170.961H101.122L100.977 169.873L102.137 169.739ZM40.6227 218.942L40.9073 220.03L42.2167 219.875L42.9412 220.339L42.7963 221.427L41.0574 221.736L41.2023 223.288L42.0769 223.443L42.2218 224.685L42.8015 225.304L42.5117 225.613L41.7871 225.149L40.7728 225.304L40.4829 226.237H39.7584L39.4686 225.773L38.4542 226.237L37.5848 226.082L37.2949 226.855L35.7009 227.319L35.4111 226.696L34.3968 226.386V225.922L33.6774 225.613L34.1018 223.907L35.8458 222.973H36.8602L37.15 223.747H37.7297L38.0195 222.814L38.4542 223.123L39.3288 222.35V221.576L38.7596 221.267L39.039 219.561L39.9137 218.937H40.6227V218.942ZM80.2294 208.544L79.9396 207.765H78.9252L78.6354 207.141L77.621 206.987L77.1863 206.213L77.621 203.574L79.7999 201.398L81.1092 201.553L82.4134 202.95L82.2685 203.569L82.7032 204.347L82.1236 204.656V205.59H82.7032L82.8481 205.126L83.7176 205.28L83.5727 208.229L81.8286 208.853L81.5388 209.626L80.2294 208.544ZM219.953 208.389L220.822 209.322L220.538 212.426L219.663 213.354L217.919 214.287L217.049 213.508L216.035 213.663L215.6 213.039H215.015V214.436L214.431 214.591V213.812L213.706 213.039L213.996 211.333L213.706 209.317L219.953 208.389ZM109.537 151.102L109.972 152.5L107.938 153.742L107.648 154.675L108.228 155.139L108.663 154.206H110.697L111.281 155.912L109.972 157.933H108.813L107.369 158.712L107.219 157.933L106.349 157.469L105.915 156.691L106.059 155.763L105.045 154.675L105.19 153.742L104.75 152.654L109.537 151.102ZM38.0091 209.477V209.786L39.6083 210.41L40.1879 211.807L41.3524 212.116L41.4973 211.652H42.2218L43.0965 212.895H43.6761L44.1108 212.431L44.5507 212.585L45.4202 213.828L45.1304 215.07H44.5507L44.4007 214.452L43.3863 213.678L42.9516 213.833L43.3863 214.766L43.1017 215.545L42.3719 215.39L42.0873 214.147L41.7975 214.766H41.0729L40.9228 213.993L41.2127 213.529L40.7779 212.755L39.0338 213.065V213.998L38.3093 214.153V214.771L36.9999 214.462V213.374L37.5848 212.601L37.15 211.982V211.049L37.4398 209.652L38.0091 209.477ZM115.049 166.476L115.924 167.409L115.489 169.115L113.02 170.982L111.421 170.518L110.836 169.744L111.276 167.878L112.001 167.723L112.435 166.79L115.049 166.476ZM238.232 208.234L238.672 209.008L237.657 211.028L237.947 211.807L237.657 213.204L237.073 213.668L235.189 213.359L234.604 212.74L234.314 210.415L235.039 209.951L235.769 210.26L236.203 208.554L237.073 208.399L237.657 208.863L238.232 208.234ZM127.816 154.206V156.846H125.643L125.063 155.603L126.078 154.67H127.092L127.816 154.206ZM245.343 213.044L245.053 213.508H244.613L244.178 212.58L245.053 212.116V211.652L245.633 211.188L245.922 209.167L246.797 208.858L246.647 210.874L245.343 213.044ZM1.15567 192.711L1.30576 193.021L1.87504 192.711L2.32012 193.175L2.0303 194.263L1.30576 194.727L0.871029 194.573V193.794L0.146484 193.485L0.291393 192.711H1.15567ZM157.559 188.211V189.453L156.69 189.917L155.675 189.608L156.255 188.365L156.985 187.901H157.709L157.559 188.211ZM46.8589 226.701L47.0038 228.098L46.4242 228.871H45.8394L45.5496 227.789L46.4242 226.701H46.8589ZM117.373 152.345L117.957 153.123V153.742L116.793 154.051L116.648 153.428L115.924 152.964L117.373 152.345ZM35.2507 217.545L35.5405 217.699L35.2507 218.787L34.2363 218.473L34.0862 219.097H33.3617L32.927 218.633L33.0719 218.323L34.8108 218.014L35.2507 217.545ZM46.714 213.668L47.1488 214.441L48.0182 214.905L47.8733 215.524H47.2885L46.5639 214.905L46.2793 213.817L46.714 213.668ZM37.1397 216.308L37.4295 217.844L36.9896 218.014L36.41 217.705L36.2599 216.931L37.1397 216.308Z" fill="#E2E8F0"/>
<path d="M200.363 20.9964L201.088 20.2179L202.247 17.7279L204.421 18.5064L204.856 17.8826L206.165 17.2588L206.315 16.0163H206.895L208.204 16.9494L209.653 16.3256L209.798 15.5472L210.673 14.9234L211.107 11.9694L212.267 10.5671V9.01017L212.707 8.6957L212.991 7.29859L213.571 7.14393L214.006 7.60791L214.59 6.98411L215.46 7.13878L215.75 7.4481V9.00502L216.474 9.78348L217.349 9.15968L217.199 8.22656H218.508L219.093 9.00502H219.528L219.673 7.13878L221.122 7.29344L221.556 7.91724L222.141 7.60791H222.576V7.91724L220.832 9.62882L220.982 10.0928L222.866 9.00502L223.59 9.15968L223.156 9.93814L221.706 10.2475L221.556 11.4899L220.252 12.8922L220.397 13.3561L221.272 13.6706L222.286 13.0468L222.571 12.2684L223.735 12.423L224.315 13.2015L223.3 14.9131V15.8462L223.885 15.5369L224.47 14.2944L225.919 14.4491L226.354 15.3822L226.064 16.47L224.755 16.6246L224.03 17.5578L223.595 18.8002L224.03 20.6665H225.34L225.774 19.888H227.084L227.373 20.5118H229.112L229.982 19.424L229.402 18.8002L229.687 18.1764L230.701 19.1095L233.46 18.6455L232.011 21.2903L232.445 22.2234L233.46 21.9141L234.329 20.8263L235.343 20.3571L235.928 20.5118L236.073 21.7542L235.638 21.9089V22.378L234.044 23.3112L233.755 24.7134L232.72 24.8887L232.575 26.291H232.135V27.5334H231.7L231.115 26.4456L230.101 25.9765V25.6672L228.936 25.5125V26.1363H229.376L228.936 27.2241L230.101 27.3787L229.516 29.3996L230.241 30.1781H230.53V29.3996L231.545 29.0903L235.173 28.7758L235.318 29.3739L234.738 30.1729H236.912L237.056 31.1061L237.641 31.4154V30.3276L239.09 30.0131L239.38 30.6369H239.815L240.25 32.0392L241.409 32.1939L242.139 31.4154L241.554 31.1061V30.6369L242.278 29.8585L241.554 28.9254H240.974L240.395 27.9922H243.003L243.438 27.5282H244.022L244.457 27.8376L244.602 28.616L245.477 29.0852L245.911 27.6829L246.346 27.0591H247.071L247.361 25.662L248.375 24.7289L248.525 23.9504L247.94 23.172L248.23 21.3057L247.645 20.8366L247.79 20.2128L251.273 21.615L252.287 23.4813L251.853 23.7906L251.998 24.2546H253.307L254.321 25.3424L254.171 25.9662H253.592L253.007 27.2086L252.282 27.5179L251.848 28.2964L249.524 28.9202L248.654 30.3225H248.09L247.055 29.544L245.896 29.8533L245.026 31.4102H244.152L241.973 32.8125L242.408 33.591H243.422L244.731 34.9829L245.601 35.3025L246.325 34.3694L248.07 33.4363H249.519L250.533 32.6578H253.147L255.9 31.5701L257.209 31.4154L258.519 29.8585L260.961 28.7707L261.277 29.6162L260.175 30.3225L259.512 31.735L257.535 33.1476L255.336 33.3847L251.599 35.9779L250.719 37.1585L249.4 37.6328L244.561 40.9322H243.903L241.704 39.7516H240.384L239.722 38.8082L235.105 36.215L231.809 35.9779L230.266 36.9213H228.729L228.072 36.447L227.192 37.1533H225.873L226.09 37.8596L225.65 38.3339L224.325 38.571L217.949 38.3339L216.847 37.3905L214.647 34.3282L213.11 33.3847L212.893 32.2093L211.791 32.4465L211.351 32.9208L211.568 34.3333L211.128 34.8025L210.466 34.5653L209.146 35.7407L207.826 36.2099L206.946 38.0967L206.067 39.0402L204.566 39.5196L204.126 39.9939L203.681 42.1128L201.486 40.4631H200.167L197.967 39.7568L195.105 40.2311L191.586 38.8133L188.947 38.5762L188.072 37.6328L186.747 37.8699L184.108 36.9265L181.691 37.1636L179.931 37.8699L177.732 39.7568L176.412 43.5305H175.75L175.092 42.3499L174.43 42.1128L172.453 42.5871L172.23 40.2311L168.716 40.9374H166.299L165.637 41.6436V42.3499L166.957 44.4739V45.8865L165.42 45.4174L164.317 46.3608L164.1 47.3042L163.22 48.4848L160.581 49.4282L156.844 52.2585L156.182 52.4957L154.862 52.2585L153.102 53.434L150.023 53.9083L148.703 52.2585H148.046L146.721 50.846L146.064 50.6088L142.767 51.7842L140.35 51.5471L138.813 52.7277L137.054 53.1968L133.095 53.434V45.6494L134.632 41.8808V39.7568L135.077 39.0505L133.974 37.4008L133.535 35.9882L134.409 34.8076L133.969 31.7453L133.307 31.2762V29.8636L133.752 29.3893L134.409 29.6265L135.072 28.683L134.192 27.7396V26.559L133.752 26.0847L134.409 23.0225L133.307 22.079H132.65L131.547 23.4916L130.667 23.7287L131.982 21.3573L131.765 20.4242L128.908 18.063L128.69 17.3567L132.427 15.9441L134.187 13.8201H135.724L137.68 15.4595L140.34 15.0007L140.557 15.9441L140.118 16.6504L140.78 16.8876L141.66 16.4133L142.322 15.2327L143.202 14.9956L143.859 14.2893L144.077 16.4133L144.739 17.5939L146.059 18.063L146.939 17.5939L147.818 16.4133V15.2327H150.018L150.458 14.2893H151.115L150.898 13.3458L152.88 11.9333L153.32 12.4024H153.977L155.074 11.2218L159.691 10.5155L160.353 10.0464L162.553 11.459L164.53 10.9898L164.969 10.2835L164.53 9.80925L166.729 8.15954L166.512 7.21611L165.409 6.74697L166.512 5.32924V4.15382L167.614 3.91667L168.271 4.38581L168.934 3.91667L169.374 1.56067L170.921 0.142944L171.801 0.380091L172.463 1.32352H173.121L174 0.380091H175.32L176.64 1.08638H178.177L179.057 0.617238L179.936 1.56067L180.159 3.21039L181.039 3.67952L183.896 3.44238L186.752 4.14866L187.415 3.67437L192.031 2.49379L193.568 3.43722L194.231 2.96808L198.625 3.91152H200.167L203.024 6.03553L204.126 6.27267L205.88 8.15954L205.001 9.57211V10.7269L203.986 10.8816V11.1909L203.401 10.4124L200.648 10.7218L200.063 11.8095L199.339 12.1189L198.904 14.4542L198.179 14.9234L198.029 15.5472L197.595 16.0163L195.851 15.707L195.561 16.3308L195.711 17.2639H196.001V18.0424L195.416 18.8208L195.706 20.9964H196.285L196.435 20.3726L198.319 20.5273L199.334 19.4395L199.623 19.5941V20.6819L200.363 20.9964ZM239.686 4.0404L240.12 4.34972L239.686 5.59732L240.12 6.22112L243.458 6.53044L246.941 6.22112L248.39 6.69026L252.018 6.84492L251.149 6.99958L250.274 8.23687L249.26 8.39668V8.70601L247.521 7.77289L247.371 8.70601L246.067 8.55135L245.917 9.48447L245.192 10.1083L242.289 7.61822L241.564 8.08736L241.129 7.77804L240.405 8.5565L240.115 10.2681L241.709 10.7372L241.859 11.825L242.584 12.9128L244.757 14.6244L246.067 14.315L246.351 15.2482L245.337 17.1144L243.013 16.8051L243.158 15.2482L242.874 14.9388L241.709 15.0935L240.55 16.1813H237.357L236.772 16.3359V16.6401L235.618 16.3308V15.5523L236.777 14.6192V13.3716H238.086L238.666 12.5932H239.101L238.811 13.3716H239.535L240.12 12.9076L239.396 11.5054L238.381 10.8816V10.4124L236.058 8.70085V8.08221H237.367L237.802 7.61307L236.787 6.37063L236.937 4.96837H237.372L237.952 4.03525H239.686V4.0404ZM253.757 13.9954L254.482 16.0163V17.2588L253.902 17.4134L253.752 19.7488L254.627 21.3057H254.187L253.752 22.0842H253.027L252.738 21.1511H251.289L250.129 19.9086L247.521 18.8208L247.371 16.3308L248.246 15.243L249.84 16.1761L250.854 18.5064L251.868 18.661L252.738 17.1041L252.303 15.5472L252.448 14.4594L252.883 13.9903H253.757V13.9954ZM247.806 11.3507L248.82 12.4385L246.791 14.1501L245.917 13.9954L245.772 12.2838L246.931 11.3507H247.806ZM204.716 12.4436L205.151 13.0674L204.716 14.3099L203.991 14.779H202.977L202.247 13.3768L203.407 13.2221L204.716 12.4436ZM236.203 23.0225L236.347 23.3318L237.362 23.4864L237.217 24.2649L235.473 23.9556L235.323 23.1771L236.203 23.0225ZM259.269 11.0414L259.849 11.9745L259.564 12.753L258.984 12.9076L258.399 11.3507L259.269 11.0414Z" fill="#E2E8F0"/>
<path d="M153.114 53.4289L152.451 55.5478L149.92 58.7235L149.744 59.6102L148.497 60.7341L145.18 65.1574L144.755 66.6267L145.64 69.2198L146.945 71.318L147.328 74.3545L151.307 79.3295L151.571 81.469L151.354 82.8815L150.034 84.2941V85.0004H148.275L147.177 84.5312L145.418 85.9438L144.978 86.8872L143.658 87.3615L142.778 87.1244L142.121 87.5935H141.459L141.241 86.8872L140.579 86.4181L138.602 86.6501L137.282 88.537L134.638 90.6558H133.546L132.221 89.7124L130.901 89.4804L130.026 89.9495L127.827 92.3055L126.062 92.5427L125.405 92.3055L124.085 94.6615L123.428 94.1924L122.548 94.4244L120.131 96.0741L120.349 92.5427L119.686 92.0684H115.732V88.537L115.95 87.8307L117.269 87.5935L117.487 86.181L117.052 85.7118H113.093L112.653 86.181V87.5935H92.4226L92.2 82.6444L91.7601 82.1752H90.4404L89.778 81.7061L89.5606 78.1695L85.3841 77.9375L84.7217 78.1695L83.1846 76.0507V74.6381L84.0644 73.2204V72.5141L81.425 72.9884L80.9851 73.4575L79.0081 73.9318L78.3457 73.4575L77.6884 73.6947L71.0899 73.4575L70.4326 72.9884V72.2821L59.6576 72.0449L57.898 75.8135L54.5962 79.8192L54.1562 78.8758L54.2908 75.8857L54.3995 75.7413L58.1723 73.2513L58.7571 71.3851V69.8333L60.2062 67.6526L62.09 66.4101L62.2401 64.2346L63.1096 63.3014H64.7036L68.3315 60.8166L71.0847 60.5021L74.428 58.6358L74.5677 58.0172L75.4423 57.2387L75.8771 54.7487L77.0363 52.4185L79.0702 50.8615L79.6499 49.7738L80.5193 49.6191L80.9541 48.3715H81.6786L82.5532 47.4435L82.988 46.0413L83.5676 45.4175L84.2922 42.4635L85.1616 41.9943L86.3209 40.4425L86.9005 40.7519L88.4997 40.5972L89.3691 41.5303L92.7072 42.3088L92.2725 46.9744H91.1132L90.9631 49.7738L90.3835 50.2377V50.7069L91.403 50.2377L91.5428 51.3307L94.1563 53.9702H94.7359L95.7555 52.8824L96.9148 53.1969L97.4944 52.4185L96.48 51.1709L95.8952 51.0162L97.2046 49.4644H98.2189L98.9487 48.8406H99.8129L100.977 49.4644L101.557 50.3976L100.977 54.13L101.267 54.9034L101.847 54.594L101.992 52.4185L102.282 52.104H103.446L105.909 53.0371L106.634 53.8156L108.518 54.594L108.523 54.9034L109.682 55.5271L109.392 54.13L108.523 53.9702L106.634 52.5731L103.881 51.3307L102.861 50.3976L102.571 49.4644L101.412 49.3046L98.8037 46.1959L98.2189 46.3506V47.1291L96.7698 47.2837L95.1707 48.3715L94.5962 49.9284H94.3012L94.1563 52.8824H93.8665V50.0831L93.1419 49.4644H92.5623L91.5428 48.2168L92.2725 48.0622L92.7072 48.686L93.8665 48.3715L94.5962 47.5982V46.6599L96.6249 45.5773L97.7842 45.4175L98.0792 44.7988L99.6732 44.175L99.8129 43.0872H99.5283L99.3782 41.685L100.398 40.7519L100.688 38.5763L103.198 35.746L104.072 35.514L106.712 32.4466L107.591 32.6837L108.471 31.7403L111.773 32.6837L115.51 32.4466L117.052 30.7969V29.1471L117.709 27.2603L119.909 25.3786L122.771 24.4351L124.97 24.198L127.382 25.8477L130.684 23.7237L131.564 23.4917L132.666 22.074H133.318L134.42 23.0174L133.763 26.0848L134.203 26.554V27.7346L135.083 28.678L134.42 29.6214L133.763 29.3843L133.318 29.8586V31.2711L133.98 31.7403L134.42 34.8077L133.546 35.9832L133.98 37.4009L135.083 39.0506L134.638 39.7569V41.8757L133.101 45.6495V53.4289L137.06 53.1918L138.819 52.7226L140.356 51.542L142.778 51.7792L146.075 50.5986L146.732 50.8358L148.057 52.2483H148.715L150.034 53.8981L153.114 53.4289Z" fill="#E2E8F0"/>
<path d="M196.591 52.4184L195.867 53.6608L196.157 54.9032L195.577 56.4602L195.727 57.7026L197.321 58.4811L198.631 58.3264L198.92 58.7904H200.804L201.819 60.0328L202.543 60.3421L203.702 60.1875V60.9659L201.524 61.2753L200.799 60.9659L200.654 59.7235L200.069 59.5688L198.91 60.6566L199.635 61.5588L202.243 62.5229L202.533 63.1467L201.948 63.7705L199.919 63.3013L200.209 64.2344L199.484 64.7036L198.76 63.6158L196.291 63.4611L196.007 62.8373L196.731 62.5229L196.876 61.5897L196.007 61.4351L195.132 61.9042H194.118L193.683 60.9711L193.973 60.038L195.277 59.8833V59.574L194.992 59.2647H193.828L192.379 58.4862L192.234 57.7078H191.649L190.345 59.1049L190.49 60.6618L189.62 61.5949L187.586 62.528L184.973 61.7547L181.93 61.4402L181.205 61.9094L181.055 63.1518L179.896 63.4611L179.461 64.2396L180.331 66.0698L181.495 66.8791H182.654V67.6576L183.814 68.4361L185.123 68.7505L186.282 68.1267L188.456 68.2814L189.33 68.5907L189.475 69.3692L190.2 70.1477L192.234 70.6168L192.669 71.0859V72.1737L192.084 72.6429V73.112L192.958 73.4213L193.393 74.8184L194.842 75.1277L195.36 75.5969L194.832 76.3702L193.108 76.1743L192.643 77.9787L192.27 77.9477L191.763 76.4991H191.271L190.728 77.5817L190.096 80.7935L183.4 80.8141L182.887 82.4277L177.846 82.2731L177.153 82.5515L176.661 83.6599H174.182L173.334 83.9795L170.363 83.6702L168.598 84.4589L167.273 84.0929L162.781 84.0775L162.512 81.938L153.786 81.5719L151.525 82.371L151.561 81.4895L151.297 79.35L147.317 74.3751L146.934 71.3385L145.625 69.2352L144.745 66.642L145.169 65.1779L148.487 60.7546L149.739 59.6307L149.915 58.744L152.446 55.5683L153.108 53.4443L154.868 52.2688L156.188 52.506L156.85 52.2688L160.587 49.4385L163.226 48.4951L164.106 47.3145L164.323 46.3711L165.426 45.4277L166.963 45.8968V44.4842L165.643 42.3602V41.6436L166.306 40.9373H168.722L172.236 40.2311L172.459 42.5871L174.436 42.1128L175.098 42.3499L175.756 43.5305H176.418L177.738 39.7568L179.937 37.8699L181.697 37.1636L184.114 36.9265L186.753 37.8699L188.078 37.6328L188.953 38.5762L191.592 38.8133L195.111 40.2311L197.973 39.7568L200.173 40.4631H201.492L203.687 42.1128L204.132 39.9939L204.572 39.5196L206.109 39.0505L206.989 38.1071L207.868 36.2202L209.188 35.751L210.508 34.5756L211.17 34.8128L211.61 34.3436L211.393 32.9311L211.833 32.4568L212.935 32.2196L213.152 33.395L214.69 34.3385L216.889 37.4008L217.991 38.3442L224.367 38.5813L225.692 38.3442L226.132 37.8699L225.915 37.1636H227.235L228.114 36.4573L228.772 36.9316H230.309L231.851 35.9882L235.148 36.2253L239.764 38.8185L240.426 39.7619H241.746L243.946 40.9425H244.603L249.442 37.6431L250.762 37.1688L251.641 35.9882L255.378 33.395L257.577 33.1579L259.554 31.7453L260.217 30.3328L261.319 29.6265L261.003 28.781L262.328 29.4048L262.473 30.6472L259.425 33.2919H258.845L257.391 34.8489L256.522 35.0035L255.362 36.7151L253.623 38.1174L253.189 39.2051L251.74 40.1383L251.145 41.2209L250.13 41.8447L249.261 41.3756L247.951 41.5302L247.372 42.618L248.096 43.0871V43.5511L247.372 43.8604L247.227 44.3296L246.212 44.9534H245.198L243.164 46.5103L240.846 46.8196L239.831 48.3714L238.232 48.8405L237.947 49.3097L235.479 49.7736L234.754 50.5521L233.88 50.7068L232.865 51.4852L230.837 51.0161L229.387 51.3306L228.663 52.2637L229.098 52.5782L229.822 52.4235L229.387 53.3566L226.194 54.7589L225.32 55.8467L223.726 56.4705L221.692 59.5792L219.518 61.4454L219.083 60.8216L217.629 60.9763L217.484 61.6001L216.325 61.9094L215.6 62.9972H215.311V60.5071H215.745V60.038L208.929 53.0421L207.915 52.7328V51.645L207.191 50.7119L204.582 51.3357L203.418 52.7328L200.809 53.202L200.52 52.8926L199.94 53.0473L199.795 51.4904L199.215 50.5573H198.201L197.761 51.645L197.037 51.7997L196.591 52.4184ZM214.876 73.4058L215.311 72.7872L217.629 72.3232L218.069 71.6994H218.649L219.089 71.2354L220.103 72.947L226.055 72.0139L226.634 71.8592L226.774 71.3953L227.069 72.483L228.068 73.5708L228.373 77.458L226.629 80.2573H227.643L227.788 81.4998L229.237 82.4329V82.902L229.962 83.5258L230.112 84.7683H230.397L230.547 83.2113L230.112 82.4329L230.692 80.2573L231.416 79.4789L234.03 78.5457L235.189 76.9888L236.783 75.901L236.638 74.8133L235.914 74.6586L235.329 74.9679L235.479 73.7255L234.604 72.947L234.459 71.2354L233.874 70.7663L233.295 69.0547V68.2763L234.309 67.4978L234.459 66.874L232.425 66.5647L231.701 67.0338L231.266 66.41V65.4769L232.28 65.1676L233.874 62.3682L235.184 61.8991L236.053 60.6566L237.497 61.2804L237.937 62.6775H238.662L238.807 58.3264L239.241 58.0171L239.966 58.3264L240.84 59.5688L243.014 59.2595L243.159 60.3473H244.173L244.903 58.9502L244.323 55.6817L245.628 55.2126L246.207 52.7225L247.222 51.9441L247.801 50.8563L250.125 50.0778L251.284 48.0569L251.869 47.7476H253.753L254.338 45.8813H254.917L255.792 47.7476L256.227 47.9022L255.502 49.2994L255.937 50.3871L257.386 50.6965L258.4 49.7633H259.565L259.71 51.4698L258.84 51.3203L258.55 51.7842L258.261 54.2743L257.536 55.3621L257.826 56.2952H258.695L259.71 54.8981L261.454 55.5219L262.323 55.2126L262.039 53.8103L263.053 53.1865L263.777 51.1656L263.493 49.9231L262.768 49.4592V48.99L263.922 48.8354L264.067 47.4383L264.942 46.5051L265.666 46.9743L266.536 49.7736L266.391 51.4852L268.275 55.8415L266.531 57.084L265.371 56.9293L263.488 55.5322L263.048 55.8415L263.627 57.2386L262.613 60.3473L263.488 61.9042L263.338 63.9251L264.937 64.5489L265.082 65.7914L263.633 68.4309L261.164 68.2763V69.0547L262.613 70.6116L262.903 71.5448L262.613 73.411H262.323L261.454 75.1226L262.178 75.2772L263.193 74.4988L263.043 73.5657L263.332 73.1017H265.076V70.9261H265.366L266.236 69.2145L267.4 68.9001L268.109 69.5239L267.98 71.0808L268.994 72.6377L269.714 75.1226L269.579 76.2104L268.13 76.6743L268.275 77.6075L268.999 78.3859H272.193L271.323 77.6075L271.173 76.829L272.048 76.6743L271.323 75.2772V72.4779L271.613 71.8541L271.463 69.9878L272.337 68.7454L271.898 68.1216H271.463L271.613 69.364H270.883L270.448 67.4978L271.323 64.5438L270.599 63.7653V62.9869L271.468 62.3631L272.193 62.6724L273.067 62.5177L273.212 61.8939L273.937 61.2701L274.661 61.7393H275.536L274.661 59.409L274.946 58.945L274.661 57.3881L274.951 56.6097H275.536L276.695 57.6974L278.579 58.0068V58.9399L280.163 60.337L279.883 62.6672L278.284 64.5335V65.7759L278.864 66.245L279.008 67.4308L278.465 66.8482L277.145 67.3174L276.928 68.0236L277.368 69.9105L276.711 71.3231L277.15 72.2665L278.253 72.9728L277.813 75.3288L279.133 76.7414L277.59 80.9842V82.3968L276.053 83.3402L275.396 84.7528L272.534 87.3459L270.997 87.5831L270.335 87.114V85.7014L269.015 84.9951H267.255L263.519 80.5202L262.856 80.2831L261.309 82.4071L259.114 82.6391L256.915 81.6957L255.595 80.5202L254.715 79.3397L256.04 78.1591L255.378 77.6899L254.058 77.4528L252.961 76.0402L248.122 75.0968L246.585 76.2774L247.025 78.6334L245.923 80.2831L246.585 81.2265L245.265 82.17L242.848 81.6957L241.529 82.17L239.769 81.4637L237.13 82.17L236.69 82.8763L236.245 85.9385L234.268 87.8254L233.605 89.238H232.286L231.623 88.7688L228.766 91.594H221.071L220.631 92.3003L218.214 93.95V91.594L219.094 89.7071L218.654 89.2328V87.8203L217.774 86.8768V84.0517L215.792 82.8711L216.672 78.1591V75.8031L215.569 75.334L216.232 73.2151L214.876 73.4058ZM274.506 42.4633L276.68 43.2418L277.259 44.4842L276.68 46.5051L277.839 47.4383L278.713 48.8354L277.989 50.547L276.68 51.0161L276.529 51.9492L276.969 52.2585L276.68 53.3463L275.955 53.501L275.37 54.5888L273.626 54.1196L273.916 50.8563H273.331L273.481 48.99L272.896 48.3662L271.882 48.5209L271.013 46.0308L271.157 45.2524H271.742L272.177 44.4739L272.902 44.3193L273.336 43.2315L274.506 42.4633ZM311.209 5.28284L311.064 7.58213L311.354 7.77288L311.499 9.48446L311.934 9.94844H312.513L314.258 11.8147L315.127 11.3455L316.871 11.8147V12.4385L316.286 12.7478L315.852 13.6809L313.243 13.9902L313.093 13.5263L310.775 12.124L309.76 12.2787L309.036 11.3455L308.451 9.94329L308.741 9.01017L308.016 8.23171V7.76772L308.601 7.29858L308.891 6.05614L311.209 5.28284ZM207.91 58.0171L208.634 58.3264L209.069 59.4142L207.62 61.7496L206.751 62.528L204.862 62.9972L204.427 63.621L203.413 63.3065L203.128 62.528L204.867 61.4402L205.307 59.574L207.046 58.0171H207.91ZM274.216 32.0443L275.96 32.6681L277.119 32.199L277.264 32.9775L275.815 33.7559V34.689L275.236 34.9984V36.8646L274.946 37.1791H273.347L273.062 36.8698L273.347 36.246L272.622 35.7768V35.3128L272.042 35.1582V34.6942L273.057 34.3797V33.4466L272.617 33.2919V32.828L273.492 32.6733L274.216 32.0443ZM202.393 55.3724L203.268 56.3055L203.413 57.2386H201.668L201.384 56.1508L202.393 55.3724ZM259.56 45.5772L259.994 45.8865V47.4434L259.844 47.9074L259.265 48.0621L259.114 46.0412L259.56 45.5772ZM202.833 68.1216L203.123 69.0547H202.833L202.688 69.6785H202.253V68.1216L202.398 67.8123H203.128L202.833 68.1216ZM280.597 43.8656V44.3347H281.182V44.7987L279.878 44.4894L279.728 43.8656H280.597Z" fill="#E2E8F0"/>
<path d="M202.149 113.504H200.172L199.075 114.211H197.973L197.755 115.149L196.43 115.386L195.773 115.149L194.893 115.623L192.694 115.86H191.374L190.717 115.386L189.614 117.273L188.295 117.505L187.637 116.567H186.758L186.318 117.036L186.494 118.448L183.901 118.923L182.359 118.448L180.382 119.392H177.525L176.862 120.567L175.32 120.33L174.223 120.804L172.903 120.567L171.584 119.392L170.921 120.098H170.264L169.384 121.273L167.402 120.33L166.31 120.804L165.43 120.33L164.768 121.511H163.448L162.128 120.33V119.624L160.591 118.923L160.151 114.211L161.471 112.324L162.346 111.855L162.568 111.148L161.688 109.029L162.128 107.854L163.226 107.148L161.911 105.498L162.346 104.317L163.665 104.085L164.328 103.379V101.967L165.43 100.786L167.847 100.08L169.167 98.4301L170.704 97.2546L171.366 95.8421L173.343 94.4243L173.783 93.7181L173.343 90.6558L174.223 90.1866V88.5369L174.006 86.8872L173.121 85.9438L173.343 83.9641L174.192 83.6445H176.671L177.157 82.5361L177.851 82.2577L182.892 82.4123L183.409 80.7936L190.101 80.7729L190.738 77.5611L191.281 76.4837H191.773L192.28 77.9323L192.652 77.9633L193.118 76.164L194.842 76.3599L195.369 75.5866L197.315 77.6075H199.054L198.625 79.0046L198.764 81.9587L198.04 84.2889L198.915 85.222H199.349L200.074 86.7738L194.557 92.3725L193.982 93.7696L193.108 93.9294L192.823 94.8574L191.514 95.7905L191.079 96.8783L189.48 97.9661V98.4352L188.466 99.2137L188.321 99.987L187.446 100.765V101.235L185.417 103.405L184.838 103.56L184.983 103.874L186.147 103.56L186.872 102.632L187.446 102.477L188.031 101.853L188.321 100.765L189.34 100.142L190.065 98.8992L191.224 98.2754L191.079 97.8114L191.659 97.6568L192.383 96.569L193.832 95.4812L194.557 93.9294L195.576 93.3056L196.156 92.2178L196.736 92.0632L198.04 90.6609L200.798 87.0883L202.247 86.9336L202.392 86.1551L201.813 85.222L202.247 84.758L202.108 83.6703L202.537 83.3558L203.122 81.0255L202.972 80.0924H203.407L203.557 78.5355L205.151 75.5866L207.04 74.9628L208.634 75.5866L208.924 74.6535L209.793 74.4937L211.242 73.2513V71.8542L210.373 71.2304V70.6117L210.957 70.4519L211.392 70.7664L211.967 69.8333L213.421 69.9879L214.435 71.2304H215.015L215.305 70.7664L216.034 71.0757L215.89 71.385H215.16L214.145 72.4779V73.2513L214.875 73.4059L216.226 73.2203L215.564 75.3443L216.666 75.8135V78.1695L215.781 82.8815L217.763 84.0621V86.8872L218.643 87.8306V89.2432L219.083 89.7123L218.203 91.5992V93.9552V96.0741L219.083 97.0175V97.7238H215.124L215.564 99.1363L214.026 101.492L212.924 101.729L212.484 103.142L211.604 104.085L209.845 105.498L208.748 105.73L208.308 106.204L205.451 106.436L204.566 107.148L204.131 108.56L202.812 110.679L203.029 113.504H202.149Z" fill="#E2E8F0"/>
<path d="M179.471 156.072L179.616 155.448L181.939 155.294V154.984L182.229 155.139L183.388 154.206L184.693 154.52L184.982 153.433L186.437 152.654L187.596 151.102L189.19 150.788L190.499 149.86L192.238 150.015L192.383 149.545H193.108L194.122 150.324L195.431 150.169L196.011 150.948H197.895V151.257L199.349 151.721L199.639 152.345H200.653L201.668 153.113L202.247 153.123L204.571 154.675L204.861 156.072L205.73 156.691L207.764 156.227L208.923 155.448L209.508 155.608L210.373 156.851L211.682 157.469L212.841 158.712L213.276 160.733L214 161.506H214.435L213.276 163.681L213.421 164.615L214.725 163.681L214.58 162.903L215.015 162.13L215.739 163.681L216.609 163.836L217.483 164.914L218.353 165.079L218.498 165.857L220.966 168.027V168.651L220.387 168.961V171.909L219.952 172.219L220.677 173.461L219.083 175.946L218.063 175.482L217.364 176.395L215.563 172.827L214.026 172.59L212.707 171.414L210.942 170.945H210.067L208.308 172.121H207.205L205.886 170.708L201.709 170.476L199.51 169.77L198.63 168.589L196.213 168.826L194.236 169.77L193.134 169.296L191.374 170.002L190.09 169.873L190.587 166.419L194.386 163.413L194.355 161.728L191.814 159.413L191.374 159.882V160.583L189.899 161.485L188.574 159.954L186.98 156.351L184.449 157.614L184.325 157.036L183.368 156.443L179.471 156.072Z" fill="#E2E8F0"/>
<path d="M173.757 157.16L174.461 158.768L174.445 160.825L173.586 161.748L173.141 163.63V166.924L172.039 168.806L171.149 169.533L170.486 169.296L169.384 169.765L168.504 169.528L167.402 168.584H166.527L165.647 170.466L162.791 172.11L162.128 171.641L162.345 170.229L160.808 168.816L161.026 168.11L159.923 165.991L159.266 165.522L158.164 163.171L156.627 161.759L155.084 160.815H152.668L150.908 161.759L148.269 161.8L147.109 160.722L147.399 158.392L148.269 157.15L151.897 155.907L152.186 154.665L153.496 154.355L154.075 153.732H155.24L155.524 152.953L156.249 152.489L157.848 152.644L159.442 151.865L163.075 152.02L164.819 152.798L165.399 152.175H166.123L166.413 152.798H166.848V153.262H170.766L170.621 155.747L171.345 156.211L173.229 156.521L173.757 157.16ZM145.955 154.83L146.535 155.139L146.68 155.917L144.651 156.541L144.501 155.453L145.226 155.299V154.835H145.955V154.83Z" fill="#E2E8F0"/>
<path d="M190.091 169.873L183.694 171.868L181.054 171.399L180.175 170.456H179.295L179.078 171.162L178.42 171.399L175.558 170.688L172.039 168.806L173.136 166.924V163.63L173.581 161.748L174.44 160.825L174.456 158.763L173.757 157.16L175.988 157.005L176.133 155.294H177.732L178.161 156.536H178.891L179.471 156.072L183.368 156.443L184.325 157.036L184.449 157.614L186.98 156.351L188.574 159.954L189.899 161.485L191.374 160.583V159.882L191.814 159.413L194.355 161.728L194.386 163.413L190.587 166.419L190.091 169.873Z" fill="#E2E8F0"/>
<path d="M230.396 111.953L231.845 112.886L232.135 114.128L231.555 114.907L231.7 116.304L230.686 117.082L230.541 118.634H230.106L229.231 118.01L228.362 116.144L227.348 116.299L227.493 115.52L228.217 115.365L228.072 114.901L224.879 115.056L225.169 113.35L226.328 113.04L226.908 112.417L227.487 110.396L227.198 109.617L226.038 109.463L225.748 109.772L225.314 109.463L225.604 107.596L224.879 106.818H224.444L224.589 107.751L224.004 108.375V109.308L223.859 108.999L222.845 108.844L222.995 110.55L222.41 110.86L222.555 112.102H221.106L220.961 112.566V113.03L221.831 113.654L222.121 114.742L218.638 116.448L219.077 116.603L219.657 116.139L220.242 116.603L221.836 116.448L221.986 115.206L222.421 115.051L222.855 115.984L224.015 116.293L225.614 117.85L227.063 118.16L226.773 119.711H226.483L225.614 121.418L225.759 122.815L226.049 122.97L225.759 123.898L226.199 125.295L227.353 125.604L228.083 127.316L227.932 129.022L228.792 130.264L228.662 133.682L229.387 134.146L230.981 134.301L231.995 135.698L234.029 135.229L234.314 134.765L235.043 134.61H235.618L236.053 135.544H236.777L237.652 134.765L238.231 137.095V138.962L239.396 139.426V141.137L238.961 141.292L238.521 142.689H239.536L239.686 144.241L240.845 144.086L240.695 142.689L241.274 142.534L241.13 142.225L242.144 141.292L243.158 141.601L243.448 141.137L244.167 141.446L244.318 140.982H245.187L245.767 141.761L245.622 142.694L246.636 143.313L246.786 143.936H247.221L248.38 145.179V145.643L249.539 146.421V148.128L248.67 148.282L249.105 149.216L248.96 150.613L248.235 151.386H246.491L246.201 152.005L245.042 152.469L244.318 154.175L243.303 154.33L240.545 153.556L240.255 153.092H239.82L240.11 152.628L239.82 152.005H238.371L237.212 153.247L237.357 154.644L238.516 154.335L238.226 155.577L236.922 156.201L237.067 157.289L237.652 158.067L238.521 158.377L240.845 158.222L241.28 158.531L240.99 159.769L241.425 159.774L242.004 159.464L242.294 158.531L243.019 157.913L244.902 158.067L244.468 158.691L243.598 159L243.743 160.552L244.178 160.862L244.468 162.723L245.482 163.187V164.274L246.207 163.81L247.221 164.274L246.791 166.135L245.917 166.754H245.192L243.743 165.666L243.453 166.13V166.909L243.888 167.218L243.743 168.461L243.598 168.925L242.724 169.079L241.58 168.146L241.414 167.058L240.835 166.28L238.801 165.661V165.352L238.076 165.043L237.786 163.645H236.917L236.192 163.181L234.593 163.336L234.303 162.872H233.869L233.724 163.491H234.013L234.158 164.269L232.709 165.048V166.599L232.419 166.445L230.97 168.311L230.386 167.692L229.081 167.847L229.226 166.914L228.647 166.605L228.357 165.362L227.192 164.274V163.81L228.502 162.413L230.246 162.568V161.944L229.087 161.79L228.942 161.326H228.507L229.231 160.547V159.923H228.652L227.487 161.166L226.618 161.32V161.63L225.169 161.32L224.589 160.542L224.879 159.145L226.038 157.902L225.748 156.351L226.913 154.02L226.763 151.69L225.459 150.602L225.604 149.515L224.444 147.808L224.294 146.411L221.101 145.947L221.251 144.859L220.811 144.55L219.942 144.705L220.376 145.792L220.232 146.571H220.521L220.371 147.504L218.627 148.437L217.468 150.303L215.434 152.164L215.724 152.788L214.854 153.721H214.27L213.835 154.495L213.121 154.685L212.903 153.742L212.241 153.273L213.121 152.097L212.463 150.685L212.903 150.216L212.463 149.747L212.903 149.04L214.658 149.509L214.44 147.391L213.783 146.684V145.272L213.121 145.035L212.903 144.328L212.024 144.091L211.584 142.679L212.686 141.972L214.446 139.147L213.566 138.204L212.024 137.972L213.126 136.796L213.566 134.915L212.903 134.677L212.463 135.384H211.584L209.824 134.208H208.949L208.287 133.502L207.63 130.914L206.087 127.62L203.013 127.857L203.2 125.723L201.983 117.814L202.133 113.489H203.013L202.796 110.664L204.116 108.545L204.556 107.132L205.435 106.426L208.292 106.189L208.732 105.715L209.829 105.477L211.589 104.065L212.469 103.121L212.908 101.709L214.011 101.472L215.548 99.1157L215.108 97.7032H219.067V96.9969L218.187 96.0535V93.9346L220.604 92.2849L221.044 91.5786H228.74L231.597 88.7535L232.259 89.2226H233.579L234.241 87.81L236.218 85.9232L236.663 82.8609L237.103 82.1546L239.743 81.4483L241.502 82.1546L242.822 81.6803L245.239 82.1546L246.558 81.2112L245.896 80.2677L246.998 78.618L246.558 76.262L248.096 75.0814L252.934 76.0249L254.032 77.4374L255.351 77.6746L256.014 78.1437L254.689 79.3243L255.569 80.5049L256.888 81.6803L259.088 82.6237L261.282 82.3917L262.83 80.2677L263.492 80.5049L267.229 84.9797H268.988L270.308 85.686V87.0986L270.97 87.5677L272.508 87.3306L275.369 84.7374L276.027 83.3249L277.564 82.3814V80.9689L279.106 76.726L277.786 75.3134L278.226 72.9574L277.124 72.2511L276.684 71.3077L277.341 69.8951L276.901 68.0083L277.119 67.302L278.438 66.8328L278.982 67.4154L279.706 69.493L280.581 69.9622L281.016 69.6528L282.175 69.8075L282.9 68.8744H283.339L283.774 69.9622L285.808 70.4261L287.402 69.3384L288.561 69.029L290.595 69.1837L290.885 68.0959L291.465 67.6268L291.32 69.6477L291.61 70.1117L292.919 69.3332L293.644 71.1994L293.933 70.8901L295.382 71.1994L295.667 70.421L296.681 70.7303L294.937 72.2872V73.5297L294.358 73.6843V73.9936H293.633L293.343 74.6175L293.928 74.9268L294.073 75.7001L294.508 76.0146L294.363 78.3448L295.232 78.8139L295.377 79.5924L296.247 79.4377L296.681 79.9017H297.266V80.9895L297.991 81.4586L297.701 82.5464L298.281 82.8557L298.426 83.7888L297.411 84.4126L295.962 84.258L294.948 84.5725L295.098 84.258L294.373 83.794L294.223 83.1702L292.629 82.3917L292.479 80.9946L291.61 79.5975L289.726 80.0667L289.001 79.912L288.416 79.1335H287.832L286.238 81.6184L285.223 81.3091L284.064 83.0207L283.914 83.9538L284.789 84.7323L284.638 85.6654L284.059 85.8201L283.044 84.7323L282.17 85.6654V86.2892L282.61 86.5985L282.32 89.5525L281.445 90.4857L279.996 90.6403L279.561 91.2641L279.996 91.8828L280.721 92.0374L280.871 92.9706H281.59L282.03 92.1921L282.749 92.5014L282.9 91.723H283.484L284.209 93.1201L285.223 92.9654L286.093 94.5172V95.9143L287.107 95.7596L287.547 97.002L288.851 95.9143V96.8422L289.726 96.6927L290.74 97.3165V101.358L291.465 103.534L290.74 104.153H289.286L289.141 104.462L290.59 107.101L291.025 107.256L291.315 108.653L290.735 109.277L290.88 110.055L290.445 110.365L288.701 110.21L287.977 109.432L287.542 107.411L287.102 107.256L286.377 105.859V104.617L285.073 105.704L284.349 105.55L284.059 104.926L283.334 104.617L282.61 105.704L283.044 107.725L284.789 108.658L284.933 109.127L285.658 109.282L285.803 110.679L284.928 111.767L283.479 111.612L282.465 113.479L284.209 113.788L284.789 114.566L282.615 114.721L282.76 115.499L282.035 115.969L281.89 117.051L280.726 117.056L280.581 117.835L279.422 117.52L279.132 116.742L277.388 116.273L276.808 117.515L278.257 117.83L278.697 118.448L278.552 119.227L277.828 118.918L277.538 119.696L276.689 119.387L276.524 118.763L275.799 118.608L275.219 117.83L274.495 118.139L274.785 119.382L274.495 121.866L275.074 122.176L275.364 123.882L274.495 124.197L274.345 126.212L273.91 126.681L272.601 127.151L271.876 126.372L271.591 125.439L271.736 123.573L270.862 122.954L270.577 120.779L269.992 120.469L270.427 119.851L270.137 118.763L270.717 118.294L270.427 116.427L269.847 116.582V117.206H269.123V118.912L268.398 119.222L267.958 118.603L267.089 118.758L266.799 119.845L265.93 120.779L263.606 118.139L263.461 117.051L263.031 116.582L263.026 116.118L264.915 116.273L264.625 115.185L263.611 115.03L262.597 113.788H261.148L259.554 111.922L259.409 110.989L260.283 110.519V109.122L260.863 108.968L260.573 108.035L261.153 107.256L261.008 105.704L261.443 104.771V103.374L260.133 104.307L259.988 103.838L258.974 103.369L257.23 103.06L255.196 101.503L254.911 100.106L254.472 100.26V100.729L252.878 101.199L252.588 100.111L253.167 98.5538L252.727 98.7085L252.003 100.106L250.844 99.4869L251.718 97.3114H252.298V95.1358L253.022 94.9811L252.443 94.512L248.815 95.1358L248.67 96.5329L247.795 97.6207V98.0898L248.81 98.8683L248.665 99.4921L247.066 99.1828L245.617 99.9612L245.332 99.0281H244.457V99.3374L242.573 99.9561L242.423 98.559L241.409 97.002L240.25 97.6258L238.511 97.3165L238.076 96.0741L237.352 95.4503V94.3625L236.917 94.0532L234.883 93.584L234.013 94.3625L233.863 94.9811H233.139L232.704 94.3625L231.98 94.2078L231.255 95.2956V96.8525H230.965V98.559L231.55 99.6313L228.502 102.755L228.652 103.225L229.666 103.07L230.37 104.467L229.811 105.086L229.661 106.173L228.792 107.107L228.647 108.504L229.226 109.437V110.525L229.811 110.834L230.101 111.922H230.396V111.953ZM243.163 104.807L243.453 101.853L244.328 101.544L246.357 102.322L246.646 103.101L246.357 104.498L246.646 104.962L247.081 104.807L247.521 103.719L247.081 101.544L248.096 102.322L249.26 101.858L250.419 102.013L250.564 102.792L249.84 104.034H250.274L250.859 103.101L252.308 102.946L252.888 104.189L252.163 105.431L252.308 106.519L253.467 107.916L254.047 109.937L253.467 112.576L253.757 113.046L255.646 113.515L256.226 114.293L257.825 115.072L257.24 116.623L257.385 118.33L256.806 119.263L256.95 119.887L256.806 120.196L255.791 120.351L256.226 121.438L255.936 123.305L256.226 123.774L256.95 123.929L257.385 125.326L259.274 127.811V129.367L259.124 131.388H258.11L257.235 132.631H256.8L256.076 131.852L255.491 132.162L254.622 132.007L254.472 132.316L253.457 132.162L252.733 129.053L252.153 128.434V127.037L251.278 125.64L251.863 124.398V123.31H252.733L252.883 122.686H251.868L251.144 121.444L250.419 121.289L249.985 122.531L249.26 122.841L248.385 121.753L246.936 121.289L246.502 120.356L245.917 120.041L245.627 118.644H245.342L244.902 117.556L245.192 116.159L245.917 115.85L246.351 114.762L245.917 113.051L246.351 112.896L246.502 112.277L245.487 109.793L244.473 109.483L243.603 108.705L243.748 106.998L243.163 104.807ZM241.419 171.136L242.289 171.446L242.004 172.379L241.569 172.533V173.466L241.859 173.621L241.709 174.085L242.584 174.549L242.729 175.637L241.569 176.725L241.714 177.812L241.28 178.276L241.135 179.519L240.26 179.674L238.521 179.21L238.376 179.983H238.086L238.376 180.447L238.226 181.22L236.922 181.839L236.197 181.22V180.756L236.922 179.983L236.487 179.359L235.178 179.204L234.164 178.74L233.579 177.967L232.854 177.812L233.144 176.106L232.709 175.018L233.434 174.554L234.448 172.848L235.758 172.069L236.192 172.688H237.352V171.915H237.786L238.511 170.982L239.385 170.827L239.53 170.208H240.545L241.409 169.744L241.13 170.518L241.419 171.136ZM277.988 134.327L277.838 135.724L278.997 136.502L279.582 137.9L279.292 139.297L279.872 139.92L280.741 140.075L280.162 141.163L278.713 141.477L278.997 142.565L278.713 143.344L276.824 142.725L277.258 141.019L276.974 140.555L275.809 140.091L274.94 138.07L275.23 135.739L276.389 135.585L277.548 134.342H277.988V134.327ZM240.41 105.271L240.555 105.581L241.14 105.426L241.285 105.895H239.401L240.126 107.138L239.975 108.225L240.99 109.004L240.7 109.158L240.99 109.782L242.004 109.937V111.025L241.28 111.179L240.99 111.803L241.425 115.066L241.864 115.536V116.623L241.28 117.402L240.555 117.093V116.159L241.14 115.85V115.226L240.265 114.608L239.541 114.762L239.691 113.675L239.106 113.056L239.251 111.659L237.657 110.571L236.932 109.329H236.498L238.092 108.086L237.947 107.622L238.526 106.844L238.237 106.38L238.966 105.292L240.56 104.673L240.41 105.271ZM272.906 132.306L273.056 132.919L271.312 135.1L271.162 137.43L270.292 137.585L270.142 138.204H268.983L268.693 137.74L268.548 139.606H267.829L267.244 138.673V137.121L268.119 136.188L267.969 135.1L268.554 133.858L269.423 132.925H270.437L271.022 133.548L271.892 132.306H272.906ZM277.258 125.784L277.403 124.851L278.713 125.006L278.997 125.47V126.403L278.418 127.646L277.833 127.955V128.888L278.418 129.666V130.13L277.833 130.285V130.909L276.239 129.976H274.64L275.225 128.579L274.79 128.269L275.074 125.475L276.384 125.011L276.674 125.63L277.258 125.784ZM240.695 129.043L244.468 132.461L244.613 134.167L244.178 134.636L241.274 134.167L240.26 133.389L240.41 132.925L239.831 132.615L239.396 131.064L239.831 129.976L239.686 129.357L240.695 129.043ZM255.206 103.874L255.351 104.343H256.511L257.67 105.431L258.544 105.586L258.834 106.828L258.684 107.607H258.105L258.25 109.782L257.375 110.401L257.09 108.38L256.65 108.225V106.204L256.94 106.05L255.926 105.431V106.519L255.201 107.452L255.056 106.828L253.897 106.21L254.182 105.9L254.037 105.122H254.327L254.037 104.189L254.616 104.343V103.874H255.206ZM269.863 162.594L270.148 163.991L269.133 165.543V166.94L268.119 167.718H266.67L267.104 167.254L267.394 164.924L268.554 164.151L268.698 163.218L269.863 162.594ZM280.012 127.182L280.307 128.115H280.892L282.92 130.29L284.23 130.754L283.94 131.533H282.196L280.602 130.914L279.877 129.048L280.022 127.96L279.587 127.805L279.732 127.187H280.012V127.182ZM270.587 168.337L270.872 170.203L271.162 170.358L271.017 172.379L270.582 172.843L269.418 172.688L268.693 172.997L268.259 172.533V170.518L269.708 170.672L269.997 168.651L270.587 168.337ZM250.854 159.336L251.434 160.109L251.579 161.351L251.144 161.815H250.564L250.419 161.037L249.405 160.573V160.264L249.985 159.485L250.854 159.336ZM261.153 125.784L262.167 127.651L261.443 128.115H260.428L259.994 127.027H260.283L260.568 125.939L261.153 125.784ZM233.009 101.075L234.314 101.853L234.169 102.941L233.299 102.786L233.154 102.008L232.575 102.163L232.285 101.229L233.009 101.075ZM279.292 131.687L279.727 132.62L277.843 132.775L277.993 131.997L279.292 131.687ZM288.142 88.7999L288.432 90.5114H287.847L287.563 88.9545L288.142 88.7999ZM267.104 171.6L267.539 172.379L268.119 172.533V173.152L266.954 172.843L266.809 171.6H267.104ZM279.582 165.543L280.281 166.476L280.307 167.1H279.872L279.147 166.166V165.702L279.582 165.543ZM236.203 104.338V105.426L235.913 105.735L235.188 105.581L235.038 105.111L235.768 104.957L236.203 104.338ZM310.194 53.3516L310.634 54.7538H310.194L309.47 53.8207V53.3567H310.194V53.3516ZM237.072 102.008V102.317H237.657V103.25L236.643 102.472L237.072 102.008ZM236.492 111.025L236.203 112.112L235.623 111.494L236.492 111.025Z" fill="#E2E8F0"/>
<path d="M202.398 200.939L202.832 202.182L203.267 202.336L203.852 203.424L203.562 205.131L201.238 205.749L200.079 205.44L199.5 205.904L198.05 206.059L196.891 204.507L196.746 202.491L197.181 201.558L196.891 197.831L198.459 196.124L198.63 194.882L197.616 193.175H197.181V192.711H196.596L196.161 193.33H195.287L194.707 193.954L194.997 194.578L194.122 195.82L191.944 195.665L191.219 196.908L190.634 197.217L189.475 197.062L189.185 195.82L189.625 194.114L189.91 193.959L190.06 194.268L190.784 193.335L191.654 193.49L191.944 193.18V192.407L191.219 191.01L189.475 190.855L187.591 189.458V188.835L188.895 189.458H189.475L189.765 188.994L189.04 186.509L189.91 186.045V183.875L189.475 182.633L188.605 181.699L186.137 182.942L184.827 182.009L183.813 180.148L184.103 179.06L184.688 178.751L184.398 177.818L183.523 177.508L183.378 177.818L181.495 177.663L180.185 177.977L179.751 178.596L179.895 179.22L178.586 180.462L177.717 182.169L177.572 184.184L176.987 184.963V185.736L176.112 186.2L173.359 184.339L173.209 183.715L173.649 182.782L172.919 182.473L172.634 180.297L172.05 179.364L171.035 179.055L170.456 176.725L162.475 176.261L160.296 175.951L160.152 175.642L158.552 176.106L157.393 175.797L156.518 174.09L155.359 173.466L155.069 170.981L153.765 170.048L153.325 168.497L152.021 166.945L150.422 163.218L148.678 162.439L148.243 161.81L150.883 161.769L152.642 160.825H155.059L156.601 161.769L158.138 163.181L159.241 165.532L159.898 166.001L161 168.12L160.783 168.827L162.32 170.239L162.103 171.652L162.765 172.121L165.622 170.476L166.502 168.595H167.376L168.479 169.538L169.358 169.775L170.461 169.306L171.123 169.543L172.013 168.816L175.533 170.698L178.395 171.404L179.052 171.167L179.269 170.461H180.149L181.029 171.404L183.668 171.873L190.065 169.878L191.348 170.012L193.108 169.306L194.21 169.775L196.187 168.832L198.604 168.595L199.484 169.77L201.684 170.476L205.86 170.708L207.18 172.121H208.282L210.042 170.945H210.916L212.676 171.415L213.996 172.59L215.533 172.827L217.334 176.395L216.873 177.034L215.569 176.725L215.419 177.189L216.583 179.05L217.743 179.514L217.887 180.447L217.598 180.911L219.197 182.617L218.612 184.324L218.177 184.478V185.102L219.192 185.257L219.337 185.566L221.805 185.411L222.095 185.102L222.68 185.411L222.53 186.19L221.95 186.654L220.501 186.344L220.351 186.963H218.902L218.467 186.499H217.882L217.303 187.278L217.882 187.742V188.515L219.192 189.757L219.776 191.154L220.061 193.639L219.776 196.743L221.805 196.434L222.095 197.367L223.109 197.831L222.675 198.918L222.82 200.47L222.24 200.625L221.51 200.006V199.382L222.095 199.228L222.245 198.604L220.791 198.759L220.211 198.295L219.776 199.377H218.902L218.317 198.604L215.274 199.228L212.95 198.14L212.515 196.588L213.24 196.124L213.39 195.351L212.805 193.954V192.866L212.515 192.557L211.206 192.711L210.337 191.778L210.482 191.314L209.322 190.226L210.047 187.896L209.467 187.278V184.793L209.027 183.396L208.593 183.086L209.027 181.225L207.143 179.673H205.26L204.68 180.137L204.095 177.343L203.226 176.879V179.828H204.095L206.129 181.535L206.709 184.638L206.559 185.881L206.414 186.19L204.701 186.499L203.805 184.947L203.221 184.638L202.206 186.344L200.462 186.654L200.317 188.36L199.158 189.134L198.718 190.376L198.868 191.928L199.883 192.237L200.172 192.861L201.621 193.325L202.931 194.413L202.786 196.119L202.061 195.964L201.621 197.207L200.752 197.516L202.398 200.939ZM169.022 177.189L169.462 177.343L169.607 178.586L171.056 180.292V181.689L170.621 182.777H170.331L170.187 183.865L171.056 184.329L171.346 186.814H170.761L169.892 185.881L169.312 183.55H168.153L167.428 182.926H166.848L166.269 181.22L164.82 181.684V181.065H163.805L163.221 179.044L162.496 178.581V178.117L163.51 177.498L166.553 177.807L169.022 177.189ZM184.403 182.158L185.562 183.091V183.555L184.693 184.489L183.818 184.334L183.239 184.953H182.509L181.35 183.555L181.5 182.777L184.403 182.158ZM183.099 192.871L184.548 193.644L184.698 195.042L184.113 194.887L183.679 195.351L182.804 195.042L182.224 193.021L183.099 192.871ZM221.836 187.901L221.986 188.68L221.696 188.989L220.092 188.365L220.382 187.901H221.836Z" fill="#E2E8F0"/>
</svg>
