<svg width="317" height="105" viewBox="0 0 317 105" fill="none" xmlns="http://www.w3.org/2000/svg">
<path d="M250.577 39.7053L250.645 39.9696L250.869 40.274L251.081 40.334L251.049 40.5143L251.289 40.7225L251.801 41.0629L251.993 41.3072L251.893 41.8599L251.937 41.9881L252.197 42.2164L252.285 42.3645L252.313 42.6168L252.237 42.9453L252.293 43.1135L252.465 43.2737L252.441 43.518L252.337 43.6742L252.453 43.8063L252.773 44.0266L252.845 44.4872L252.781 44.6794L252.769 44.9918L252.517 45.3522L252.569 45.5445L252.525 45.9009L252.641 46.0491V46.4215L252.729 46.6538L252.649 46.9302L252.717 47.1544L252.813 47.3347L253.081 47.631L253.665 48.0716L253.849 48.428L254.065 48.6723L254.049 48.9607L253.817 49.185L253.581 49.3211L253.477 49.3492L253.289 49.3011L253.141 49.1529L253.053 48.9206L252.937 48.8205L252.729 48.7244L252.229 48.7885L252.145 48.3599L252.021 48.2678L251.393 48.3159L250.553 48.0115L250.337 48.0355L250.265 48.0756H250.025L249.837 47.9434L249.781 47.8393L249.849 47.4708L249.717 46.9582L249.781 46.4376L249.253 44.7315L249.045 44.391L248.973 44.1547L248.961 43.8103L248.901 43.6661L248.869 43.2937L248.745 43.0374L248.753 42.8611L248.805 42.5928L248.649 42.0842L248.865 41.5235L248.857 41.4554L248.685 41.3553L248.653 41.1991L248.685 41.159L248.893 41.2111L248.913 41.3993L249.061 41.5555L248.997 41.3593L249.041 40.9748L249.141 40.8787L249.565 40.7105L249.925 40.6264L249.989 40.4462L249.937 40.334L249.761 40.2459L249.693 40.1258L249.685 39.9295L249.989 39.7293L250.577 39.7053ZM248.973 37.6107L249.077 37.6627L249.493 37.6427L249.117 37.915L249.029 38.2394L248.825 38.1794L248.597 38.2114L248.637 38.5638L248.785 38.724L248.737 38.8122L248.461 39.0284L248.301 39.3168L248.305 39.497L248.381 39.537L248.429 39.6652L248.409 39.8054L248.101 39.9616L247.605 40.8987L247.393 41.0109L246.513 41.135L246.005 41.2672L245.797 41.4033L245.553 42.0201L245.377 42.1683L244.917 42.2123L244.777 42.2564L244.681 42.3565L244.613 42.6649L244.625 42.9613L244.977 43.546L245.041 43.9505L245.205 45.4443L245.177 46.0331L245.269 47.0663L245.381 47.2746L245.557 47.3787L246.089 47.4989L246.189 47.563L246.165 48.3519L245.745 49.193L245.201 49.8097L245.169 50.058L245.205 50.1582L245.341 50.1461L245.725 49.7777L245.773 49.8097L245.601 50.3144L244.997 51.1994L244.793 51.3837L244.741 51.5959L244.769 51.656L245.121 51.6119L245.089 51.7201L244.997 51.8603L244.469 52.2327L244.205 52.6693L243.929 53.0177L243.557 53.3701L242.817 53.8067L242.161 54.0109L241.897 53.9468L241.917 53.8347L242.193 53.5343L242.141 53.3701L241.613 53.282L241.225 53.0377L240.869 52.469L240.753 52.1526L240.501 51.8923L239.929 51.8282L239.541 51.1874L239.273 50.6107L239.201 50.3023L239.177 49.8978L239.077 49.7737L238.945 49.7336L238.817 49.7737L238.633 50.03L238.509 50.0741L237.949 49.8978L237.841 49.9219L237.661 50.066L237.501 50.1101L237.097 50.01L236.981 49.9219L236.961 49.3972L237.161 48.6923L237.113 48.6082L236.821 48.38L236.781 48.2919L236.833 47.6471L236.117 46.4055L235.681 45.8408L235.361 45.6326L235.209 45.5885L235.017 45.6526L234.637 45.16L234.385 45.0238L233.921 44.9117L235.077 44.8636L235.977 44.7194L237.357 44.2949L238.985 43.6782L239.493 43.4218L240.085 43.0694L240.765 42.5568L242.957 40.6424L244.585 39.5851L245.613 38.7321L245.697 38.7801L245.829 38.7561L248.525 37.6467L248.953 37.5186L248.973 37.6107Z" fill="#E2E8F0"/>
<path d="M61.1176 97.6608L61.0656 97.6207L61.0496 97.5126L61.0936 97.1281L61.3696 97.3083L61.3616 97.5446L61.1176 97.6608ZM46.1216 84.7008L46.5016 84.6127L46.7576 84.4645L46.7776 84.088L46.7456 83.9598L46.5496 83.7756L45.9496 83.5634L45.8976 83.3511L45.9176 83.239L46.1416 83.0948L46.2176 82.9706V82.2978L46.3176 82.1256L46.5536 80.852L46.9056 80.5476L46.9456 80.2993L47.6576 80.023L47.7056 79.8067L47.7296 79.3782L47.8096 79.254L48.0776 79.0618L48.1136 78.9176L48.0216 78.5572L48.1536 78.2608L48.0616 77.8763L48.0776 77.5079L48.2216 77.2716L48.2416 77.1034L48.5176 76.9632L48.5576 76.8471L48.3896 76.5547L48.3496 76.3585L49.4776 73.2066L50.9736 73.6471L53.7856 76.9432L56.6496 78.1887H56.7696L58.8256 77.3437L59.8056 77.1154L60.0856 77.1034L61.0616 77.6441L61.6216 77.7362L62.0216 78.2248L63.7736 79.1099L64.0096 79.1579L64.1496 79.0498L64.2696 79.1499L64.3616 79.1379L64.5536 78.8375L64.4336 78.7214V78.5091L64.2976 78.2969L64.3056 78.0606L64.2456 78.0205L63.9416 78.1006L63.8336 78.0125L63.8896 77.632L64.1496 77.5239L64.2496 77.5399L64.2056 77.3637L64.0496 77.4678L63.9896 77.4478L63.9656 77.2996L64.0776 77.1755L64.3056 77.1394L64.1896 77.0353L64.2296 76.8871L64.3216 76.827L64.2376 76.6628V76.5427L64.2896 76.4906L64.1896 76.3985L64.1776 76.1742L64.0976 76.4386L63.9256 76.4266L63.8376 76.3024L63.8136 76.0421L63.9056 75.9259L64.0696 75.8819L64.3336 75.97L64.4496 75.966L64.4816 75.8218L64.5856 75.9019L64.8336 75.95L64.9736 75.9059L65.0896 75.9219L65.5776 76.1742L66.1976 76.3705L66.3776 76.2984L66.3896 76.1182L66.5216 76.0741L66.6576 76.2543L66.5456 76.5026L66.5896 76.6228L67.3216 77.1715L67.4176 77.2075L67.4976 77.0954L67.6016 77.1595V77.2235L67.4656 77.3157L67.5776 77.8483L67.7176 78.1327L67.9536 78.381L67.9096 78.445L67.5496 78.5332L67.4976 78.6493L67.8576 79.5224L68.0856 79.6145L68.2896 79.9829L69.0136 80.8881L69.4056 80.9882L69.5016 81.1724L69.8136 81.5489L69.6495 81.685L69.6776 81.7852L69.8896 82.1416L70.1295 82.3819L70.1495 82.5261L69.9735 82.47L69.7816 82.5862L69.7376 82.9987L69.8016 83.1789L70.7375 84.4364L71.1855 85.4337L72.2935 87.0196L72.4335 87.5202L72.5455 87.6925L72.5375 87.8006L72.5015 87.8046L72.4015 87.7165L72.3615 87.5763L72.2455 87.5403L72.1455 87.9848V88.2892L72.2175 88.5175L72.3455 88.7297L72.5895 88.982L72.7255 89.0261L72.8815 88.986V88.8339L73.0575 88.982L73.0055 89.2904L73.1655 89.5708L73.4855 89.9753L73.6735 90.4438L73.6895 90.7162L74.0135 91.1407L73.9095 91.2849L73.9215 91.409L74.1975 91.8256L74.4535 92.0819L74.4775 92.17L74.3815 92.2821L74.4055 92.4103L74.7175 92.7787L74.5415 92.9389L74.5895 93.1712L74.5495 93.5236L74.7055 93.796L75.0215 94.1885L75.0535 94.3927L74.8735 94.4928L74.8575 94.6891L74.9575 94.9935L75.2055 95.39L75.2015 95.4981L74.9415 95.6383L74.9095 95.7144L74.8855 96.0468L75.0335 96.6315L74.9135 96.7316L74.6135 96.8237L74.5055 96.6595L74.4015 96.6555L74.0895 96.9559L73.9615 96.9479L73.7495 97.1361L73.5175 97.024L73.3295 96.9919L73.1095 97.0961L72.9855 97.0079L72.6655 97.0961L72.5455 96.8838L72.1655 96.7236L71.8935 96.6795L71.9415 96.5314L72.1255 96.3752L72.4695 95.9506L72.4175 95.9346L72.1815 96.0748L71.9815 95.7945L71.1215 95.1697L71.4495 94.7331L71.3415 94.5049L71.5815 94.3046H72.0135L72.5855 93.9081L72.6455 93.7039L72.3135 93.9802L71.9335 94.2165L71.7855 94.2125L71.5855 94.1164L71.3055 94.2846L71.1935 94.4928L71.1815 94.613L71.1135 94.625L70.9255 94.0123L70.9976 93.7199L70.9416 93.5797L70.7815 93.3234L70.3216 92.9229L70.1536 92.7187L70.0096 92.226L69.5496 92.0298L69.3496 92.0819L69.5656 92.2301L69.9136 92.5825L69.8776 92.7787L69.9776 93.1071L70.0216 93.1752L70.4416 93.4516L70.7096 94.0603L70.6935 94.1644L70.5255 94.3607L70.6175 95.0696L70.5575 95.3739L70.2615 95.6343L69.8136 95.7304L69.2256 95.5702L68.8256 95.5822L68.5816 95.458L68.4096 95.2698L68.3456 95.0776L67.4896 94.7812L67.1416 94.7972L66.6976 95.2618L66.5776 95.2978L66.1896 95.1977L66.0416 95.0655L65.9216 94.8573L65.8016 94.8853L65.8696 95.1096L65.3096 95.4981L64.8136 96.0548L64.7496 96.3511L64.6056 96.5874L64.0976 97.024L63.7296 97.044L63.1576 96.8878L63.0096 96.3952L63.0456 96.0668L62.9656 96.0267L62.8936 96.0988L62.9456 96.8437L63.1376 97.2042L62.7976 97.4445L62.6256 97.6768L62.5656 98.0893L62.5976 98.3015L62.5216 98.3256L61.7336 97.5246L61.5376 97.4285L61.1216 96.4473L60.8096 95.41L60.3416 94.3006L60.1256 93.9642L59.9136 93.7639L59.4896 93.4596L57.7176 92.7627L57.0936 92.4543L56.6336 92.194L56.1976 91.8135L55.2856 91.1487L54.7456 90.8844L54.3776 90.7282L54.0416 90.6601L53.3616 90.6922L52.4776 89.8511L52.6216 89.7029L52.6336 89.5628L51.5296 88.8819L51.0696 88.7337L50.6296 88.6616L49.9936 88.6697L49.6816 88.8939L49.6016 88.8859L49.3016 88.6616L48.7376 87.8807L48.0896 87.1157L46.9936 86.0664L46.8816 85.5819L46.6976 85.3576L46.0616 84.921L45.7656 84.7929L46.0456 84.7248L46.1216 84.7008ZM73.2015 72.1052L73.3535 72.1733L73.3295 72.2774L73.4575 72.4216L73.5815 73.0344L73.6975 73.2226L73.7935 73.539L73.9215 73.6391L73.8975 73.7192L73.8055 73.6832L73.7495 73.7633L73.7775 73.9475L74.0695 74.1598L74.0375 74.38L73.9375 74.5362L73.9935 74.6884L73.9335 74.9367L73.8895 74.9607L73.3735 74.9648L73.1415 75.0328L73.0175 75.0048L72.8575 74.9167L72.4055 74.4962L72.4335 74.2919L72.3535 73.9315L72.6255 73.6031L73.0295 73.3347L73.1055 73.1986L73.0215 72.9022L72.8535 72.762L72.8495 72.5938L72.9495 72.4216L72.9775 72.1613L73.2015 72.1052Z" fill="#E2E8F0"/>
<path d="M3.15336 18.6514L3.19736 18.7796L3.16136 18.9038L3.01337 19.2402L2.94137 19.2842V19.5085L2.89737 19.5245L2.77337 19.3443L2.69737 19.092L2.64537 19.104L2.54937 19.2682L2.46137 19.2282L2.50537 19.072L2.37737 18.9158L2.24137 18.8677L2.22537 18.6795L2.15337 18.6114L2.28537 18.4312L2.48137 18.295L2.60137 18.0066L2.64137 17.7543L2.95337 17.6342L3.09337 17.5261L3.08937 17.458L3.22536 17.3618L3.31336 17.3699L3.32936 17.6782L3.07737 17.8064L3.05737 17.9706L3.09337 18.0787L3.12537 18.1108L3.22536 17.8905L3.40936 17.7864L3.65736 18.0467L3.66536 18.1468L3.58936 18.259L3.72136 18.275L3.71736 18.3591L3.60536 18.6595L3.54536 18.7075L3.49336 18.4952L3.18936 18.5393L3.12537 18.6114L3.15336 18.6514ZM3.25336 14.4983L3.53736 14.6825L3.60936 14.8467L3.54936 14.9188L3.56936 15.075L4.18536 15.4435L4.27336 15.6437L4.29336 15.828L4.43336 15.7519L4.46536 15.7959L4.48136 15.9121L4.38536 16.1363L4.29736 16.2285L4.32536 16.3085L4.51736 16.5048L4.46536 16.8332L4.29336 16.8532L3.97736 16.9894L3.98936 17.1095L3.94536 17.1576L3.71736 17.2537L3.72536 17.3338L3.65736 17.3458L3.52536 17.3138L3.46136 17.2057L3.53336 17.1336L3.43336 16.9453L3.31336 16.8853L2.91737 16.9413L2.72937 17.0294L2.72537 17.1536L2.66137 17.2617L2.22537 17.6302L2.14137 17.5701L1.99337 17.5581L1.88137 17.6262L1.89737 17.7383L1.85737 17.7904L1.63737 17.9586L1.52937 17.9546L1.49337 17.9025L1.55737 17.7423L1.52537 17.5661L1.27737 17.1296L1.42137 16.8773L1.38137 16.5288L1.25337 16.3005L0.953372 16.3927L0.789373 16.3246L0.717373 16.2124L0.357374 16.3166L0.293374 16.2845L0.201375 16.1524L0.117375 15.7759L0.169375 15.6077L0.109375 15.1031L0.245375 15.067L0.525374 15.2512L0.633373 15.2232L0.705373 15.087L0.873373 15.1471L1.14137 15.079L1.48537 15.1792L1.58137 15.1631L1.52537 15.3714L1.56937 15.4355L1.64537 15.4475L1.69737 15.2633L1.78137 15.2432L2.30137 15.3273L2.54937 15.2753L2.88537 14.7907L3.04537 14.8467L3.15336 14.7626L3.40536 14.9509L3.31336 14.7026L2.97337 14.6385L2.96537 14.5784L3.07737 14.4302L3.25336 14.4983ZM12.1133 13.5612L12.8173 13.7454L13.2893 13.5572L13.4733 13.7294L13.8093 13.6573L13.8973 13.7133L14.0373 14.0498L14.4133 14.274L14.7573 14.3101L14.8053 14.218L14.9653 14.1379L15.1653 14.3421L15.7133 14.5344L16.1693 14.7506L16.5933 14.8548L16.9333 14.8147L17.3373 14.5344L17.4093 14.3541L17.7253 13.9096H17.7733L17.9013 13.9937L17.8933 14.258L17.9453 14.5544L18.0453 14.7226L18.5293 14.7947L18.9813 14.9629L19.1893 15.1952L19.2253 15.3434L19.1533 15.6998L19.1653 16.3806L19.2973 16.5368L19.4813 16.3726L19.5773 16.4207L19.6093 17.0935L19.4093 17.3178L19.3813 17.47L19.6813 18.1989L19.7933 18.259L19.9013 18.1989L20.0053 17.9586L20.0893 17.9025L20.5053 18.1708L20.7453 18.0667L21.0733 18.0948L21.1893 18.0026L21.5733 17.49L21.6773 17.454L21.8453 17.5421L22.0093 17.7864L22.2253 17.9866L22.3493 18.0347L23.5413 17.9145L23.8133 18.0587L23.8413 18.1108L23.7373 18.287L24.0813 18.9758L23.9573 19.136L23.7773 19.2322L23.2613 19.3803L23.1813 19.5686L22.9853 19.8289L23.5453 20.0412L24.1693 20.4817L24.1893 20.5698L24.1533 20.6339L23.9813 20.742L23.8973 21.0063L23.7413 21.1345L23.6933 21.2426L23.8493 21.503L23.7533 22.1437L24.0853 22.4802L23.6213 23.0208L23.4493 23.3372L23.4733 23.4534L23.4173 23.5655L23.2533 23.4534L22.9453 23.4854L22.6213 23.4534L22.4493 23.5375L22.5053 23.7217L22.1893 24.1702L22.1853 24.6148L22.2373 24.8391L22.0333 25.0634L21.8373 25.1915L21.8213 25.3357L21.8773 25.4999L21.8933 25.572L21.8093 25.7963L21.6773 25.8083L21.3493 25.7282L21.2933 25.7402L21.2493 25.8243L21.2733 26.2448L21.4533 26.4611L21.6653 26.5852L21.7413 26.6894L21.7573 26.8095L21.6013 27.25L21.6093 27.5464L21.5573 27.7507L21.3933 27.8067L21.2333 27.7747L21.1373 28.1271L20.9053 28.3074L20.8773 28.3875L20.8893 28.6037L21.0693 28.816L21.0893 29.1965L21.1653 29.3326V29.4408L20.7933 30.2297L20.5533 30.3419L20.2773 30.2738L20.1533 30.3619L20.0613 30.5261L19.9533 30.8545L19.9373 31.3271L19.7413 31.6555L19.7853 31.9198L19.6173 32.6607L19.4173 32.7649L19.0453 33.1453L18.8533 33.1253L18.5853 33.2134L18.3733 33.1653L17.9333 33.2655L17.9013 33.4257L17.7933 33.5779L17.8013 33.9703L17.6533 34.1185L17.4573 34.1666L17.2893 34.2667L17.2173 34.2907L17.0893 34.2507L17.0493 34.2827L17.0093 34.491L16.7173 34.9195L16.8093 35.0597L16.6973 35.328L16.6133 35.3841L16.4053 35.3881L16.2533 35.5323L16.0973 35.5483L15.8373 36.161L15.7533 36.2131L15.4013 36.2492L15.1733 36.6537L14.9733 36.8579L14.8733 36.8619L14.6973 36.7057L14.4813 36.7818L14.1893 36.6657L14.1413 36.5255L14.2533 36.3893L14.2413 36.3212L14.1173 36.2131L13.9533 36.2692L13.8853 36.101L14.0253 35.8927L14.4053 35.9408L14.7053 36.0449L14.7773 35.9688L14.5293 33.9343L14.5173 33.4497L14.3853 32.3203L14.4093 31.9398L14.3773 31.6835L14.4453 30.5221L14.4293 29.2525L14.3133 29.1524L14.0653 29.1003L13.7893 29.2365L13.6533 29.2565L13.4413 29.2325L13.1373 29.1083L12.6813 29.1324L12.2093 28.86L11.9493 28.84L11.7813 28.9441L11.5053 28.9361L11.4093 28.9001L11.3693 28.82L11.4053 28.2112L11.3533 27.5905L11.6013 27.1459L11.5373 26.8215L11.7373 26.369L11.8253 25.7722L11.7973 24.9072L11.6013 23.0609L11.4853 22.4681L11.1613 21.3948L10.9213 21.0144L10.5813 20.718L10.4773 20.5618L10.2853 19.6607L10.0053 19.0519L9.52134 18.4151L9.02135 18.0948L9.04935 18.0227L9.13335 17.6662L9.26534 17.4299L9.89334 16.7611L10.0533 16.5088L10.4293 16.1604L10.7893 15.5716L11.4973 15.063L11.7813 14.7106L11.8173 14.6185L11.8853 13.457L12.1133 13.5612Z" fill="#E2E8F0"/>
<path d="M39.7014 18.2429L40.5094 18.7916L40.9854 18.9117L41.0614 18.8236L41.0294 18.6755L41.5934 18.5113L41.7454 18.5433L41.8934 18.8557L41.9654 18.8036L42.0254 18.6514L42.9814 19.108L43.4294 19.2482L43.7934 19.4965L44.2574 20.1653L45.4654 22.9207L45.7534 23.4614L45.9854 23.7898L45.8814 23.8899L45.9134 24.1022L46.3134 24.4265L46.4614 24.3505L46.8574 24.6588L46.5214 25.0914L46.1534 25.3957L45.8294 25.8363L45.2574 26.2848L44.9574 26.6573L44.3854 27.1659L44.4014 27.6225L44.5934 28.2953L44.6214 28.872L44.7774 29.3526L44.7214 29.5649L44.5334 29.8492L44.5174 30.0134V30.5581L44.6374 30.8224L44.6614 31.275L44.3974 31.4352L44.3854 31.5393L44.4534 31.6354L44.9614 31.9679L45.1214 32.2162L45.2854 32.2882L45.3334 32.3603L45.1854 32.6327L45.1534 32.933L44.9854 33.2414L44.9494 33.4096L44.9054 34.3548L44.9974 34.8194L44.8854 35.3841L45.1854 35.4281L46.0174 35.8406L46.1694 36.0449L46.4894 36.2411L46.6854 36.6456L46.6334 36.7938L46.4094 36.8699L46.2894 37.0702L46.3214 37.2183L46.5174 37.4586L46.5934 37.8231L46.3774 38.3037L46.5654 38.9605L46.5694 39.1207L46.5014 39.341L46.5094 39.8215L46.5774 39.9016L46.6934 39.9297L46.9294 39.8576L47.2014 39.8736L47.5254 40.0618L47.7134 40.2501L47.9574 40.2741L48.6534 40.7026L48.6934 40.7827L48.6654 41.1512L48.7774 41.3234L48.9534 41.844L48.9134 41.9802L48.7894 42.1284L48.6414 42.1324L48.1534 41.8721L48.0014 41.9241L47.8734 42.0843L47.8494 42.2565L48.0174 43.1537L47.8454 43.2177L47.5454 43.1897L47.4414 43.1697L47.2494 43.0175L47.0774 43.0255L46.7614 43.454L46.5414 43.6463L46.4174 43.6663L46.3134 43.6262L46.0494 43.426L45.7334 43.0615L45.5734 42.9414L45.3614 42.8893L44.7214 42.8653L44.1814 42.9774L44.1294 43.0856L44.1974 43.45L43.6294 44.1148L43.4134 44.1589L43.1054 44.0347L42.8374 43.8425H42.1534L42.0654 43.8946L41.9734 44.271L41.8494 44.2871L41.6654 44.243L41.3014 43.8786L41.0374 43.7143L40.9454 43.3739L40.8054 43.1456L40.3174 42.8052L40.2614 42.3887L40.0574 42.1604L39.9414 42.1484L39.7414 42.2125L39.1654 42.4888L38.9854 42.625L38.7454 42.4488L38.5134 42.5649L38.4094 42.5049L38.2694 42.3086L38.2174 42.1204L38.1094 42.1805L38.0254 42.4127L37.8694 42.3647L37.7294 42.1564L37.6374 42.1084L37.5094 42.2045L37.4054 42.3687L37.4694 42.9414L37.3174 43.5902L37.0334 43.8745L36.8374 44.4833L36.7374 44.5113L36.5774 44.3872L36.5214 44.279L36.5454 43.9667L36.4694 43.5902L36.2894 43.454L35.8814 43.3619L35.8174 43.3139L35.6574 42.8092L35.5854 42.7532L35.4214 42.7612L35.2934 42.621L35.3694 42.3727L35.3014 42.2165L35.1454 42.1244L34.7454 42.1284L34.6134 42.2565L34.5534 42.4568V42.645L34.6454 42.9454L34.5374 43.3659L34.5934 43.7184L34.4174 44.279L34.2054 44.4913L33.9254 44.3632L33.8374 44.3672L33.6814 44.6395L33.2734 44.7556L33.0054 44.9038L32.8414 45.2723L32.6574 45.4004L32.4894 45.4124L32.2334 45.5326L31.8574 45.3564L31.6614 45.4885L31.5374 45.4245L31.3614 45.1962L31.0694 45.1201L30.6414 44.6115L30.4534 44.5594L30.0654 44.6075L29.9254 44.7156L29.7134 45.04L29.5454 45.1161L29.1774 44.9078L28.6374 44.4793L28.2574 44.5554L28.0294 44.279L27.7094 43.7103L27.5614 43.5261L27.4854 43.3659L27.4814 43.1497L27.6094 42.9574L27.9294 43.0215L28.2214 42.9574L28.2654 42.8413L28.1054 42.2405L28.1774 42.1604L28.4614 42.0603L28.7094 41.4155L28.7254 41.3394L28.6094 40.991L28.6414 40.8108L28.7854 40.6586L29.3054 40.5264L29.1454 40.3782L29.1814 40.2581L29.3454 40.1019L29.4094 39.8856L29.3254 39.4291L29.3334 39.0886L28.9934 38.7843L28.9774 38.6121L29.3334 38.2636L29.3534 38.1635L29.3014 38.0393L29.4774 37.8151L29.5934 37.2464L29.9014 36.942L29.8574 36.6256L29.9414 36.2171L29.9054 35.9728L29.9734 35.7886L29.9694 35.5683L30.0694 35.344L30.3334 35.0196L30.3014 34.7072L30.5494 34.3628L30.4734 34.0785L30.4934 33.9503L30.5574 33.9062L30.7814 33.9423L30.9974 33.71L31.2374 33.6139L31.3094 33.1814L31.3814 33.0652L31.6014 32.909L31.6814 32.4965L31.7614 32.4124L31.9974 32.4845L32.3254 32.8489L33.0454 33.0492L33.2254 33.0412L33.4334 32.9531L33.5574 32.8249L33.8814 32.7488L34.1654 32.3283V32.1681L34.0494 31.9759L34.0334 31.8077L34.1334 31.9318L34.9534 32.5686L35.5894 32.5806L36.3494 32.6807L36.6854 32.6647L36.8734 32.5245L37.6094 31.7195L37.6414 31.5994L37.5534 31.2229L37.5654 31.0627L37.7094 30.9426L37.8934 30.9065L38.0934 30.6142L38.1054 30.5381L38.0054 30.3258L38.1454 29.6971L37.8934 29.6009L37.6694 29.613L37.6334 29.5248L37.7574 28.9842L37.7454 28.7879L37.6374 28.6237L37.3614 28.4675L37.4534 28.2192L37.7054 28.1391L37.7614 27.8308L37.8614 27.7066L37.8454 27.5864L37.6214 27.3061L37.5574 27.1219V27.0097L37.7094 26.8656L37.7494 26.7174L37.6374 26.6533L37.5054 26.7574L37.3894 26.7654L37.2494 26.5011L37.0334 26.441L36.9734 26.2368L36.5614 25.9845L36.4934 25.8563L36.4174 25.4438L36.2254 25.1715L36.1974 25.0193L36.3014 24.767L36.5174 24.6668L36.8414 24.6709L37.2294 24.2864L37.2454 24.1262L37.0934 23.6816L36.9254 23.5855L36.9094 23.4734L37.0374 23.185V22.9647L37.1654 22.9688L37.2574 22.8927L37.2454 22.4521L37.3014 22.356L37.7294 22.0476L37.7174 21.8313L37.9814 21.539L38.4374 21.2707L38.8814 20.9102L39.0494 20.8461L39.1774 20.4777L39.4294 20.1893L39.5174 19.937L39.6814 19.7688L39.4494 19.3683L39.4294 19.0519L39.4814 18.4992L39.7014 18.2429Z" fill="#E2E8F0"/>
<path d="M37.7217 80.4715L38.1537 80.2833L38.3057 80.043L38.6737 79.7506L38.7057 79.6025L39.0057 79.6625L39.1657 79.3301L39.3897 79.1699L39.9617 79.222L40.0217 79.1619L40.5857 79.1499L40.9617 78.5852L41.2057 78.6533L41.7497 79.0137L42.1217 79.1139L42.7217 79.0938L43.6457 78.7334L44.0137 78.6773L44.6257 78.8215L44.8737 78.9617L45.0697 79.1699L45.2417 79.242L46.2857 79.4863L47.2816 79.8508L47.7176 79.8147L47.6696 80.031L46.9577 80.3073L46.9177 80.5556L46.5656 80.86L46.3297 82.1336L46.2297 82.3058V82.9786L46.1537 83.1028L45.9297 83.2469L45.9097 83.3591L45.9617 83.5713L46.5617 83.7836L46.7577 83.9678L46.7897 84.096L46.7696 84.4725L46.5137 84.6206L46.0657 84.7248L45.7857 84.7929L45.2857 84.7128L44.7177 84.4044L44.1937 84.3763L43.7537 84.08L43.3377 83.9919L43.1417 83.8317L42.1697 83.5233L41.3497 83.0187L41.0377 82.9706L40.8457 83.0467L40.7017 83.0347L40.4737 82.6142L40.1457 82.2177L39.6937 81.9734L39.4617 81.7731L39.3417 81.3806L39.1377 81.0643L38.4577 80.6558L38.2257 80.5957L37.8177 80.5797L37.7217 80.4715Z" fill="#E2E8F0"/>
<path d="M36.8771 66.3342L36.8971 66.2021L36.9651 66.1099L37.1771 65.9818L37.2931 65.9778L37.4091 66.0859L37.6971 66.118L37.7891 66.2541L37.8971 66.5945L38.0491 66.7307L38.6651 66.7708L38.8611 66.8308L38.9851 67.0391L39.0171 67.3194L39.1451 67.6599L39.2771 67.784L39.4651 67.752L39.6971 67.4716L39.9651 67.4436L40.1171 67.2794L40.2411 67.3034L40.4611 67.2634L40.7931 67.6158L40.8851 67.6599L42.8091 68.2286L44.4691 68.601L44.5451 68.6451L45.5571 69.9267L45.6811 70.1629L45.8251 70.219L48.7491 72.1894L49.1411 72.2575L49.2371 72.3256L49.4851 73.1827L48.3571 76.3346L48.3971 76.5308L48.5651 76.8232L48.5251 76.9393L48.2491 77.0795L48.2291 77.2477L48.0851 77.484L48.0691 77.8524L48.1611 78.2369L48.0291 78.5333L48.1211 78.8937L48.0851 79.0379L47.8171 79.2301L47.7371 79.3543L47.7131 79.7828L47.2771 79.8189L46.2811 79.4544L45.2371 79.2101L45.0651 79.138L44.8691 78.9298L44.6211 78.7896L44.0091 78.6454L43.6411 78.7015L42.7171 79.0619L42.1171 79.0819L41.7451 78.9818L41.2011 78.6214L40.9571 78.5533L40.5811 79.118L40.0171 79.13L39.9571 79.1901L39.3851 79.138L39.1611 79.2982L39.0011 79.6306L38.7011 79.5705L38.6691 79.7187L38.3011 80.0111L38.1491 80.2514L37.7171 80.4396L37.6731 80.3115L37.7251 80.2193L37.6611 80.0511L37.4091 80.0031L37.2811 79.911L37.1931 79.7428L37.0451 79.6707L36.8931 79.6667L36.5091 79.7988L36.2771 79.7508L36.0211 79.7668L35.9051 79.8309L35.8891 79.9991L35.8171 80.0071L35.7211 79.8789L35.8491 79.7428L35.8811 79.4864L35.6571 78.6534L35.2531 78.1288L35.1051 78.0927L34.9931 78.1368L34.7931 78.1128L34.7771 77.9606L34.9331 77.7803L34.8651 77.2637L34.6171 77.0074L34.2251 76.8111L34.0331 76.8151L33.8091 76.9553L33.5771 76.9313L33.5371 76.8672L33.5571 76.7511L33.9011 76.6389L33.8771 76.2825L34.1211 76.0502L34.0571 75.8339L34.2131 75.6417L34.2771 75.4535L34.3371 74.9488L34.1291 72.5058L36.0931 72.5739L36.3611 72.2495L36.9371 70.9239L37.2051 70.4833L37.2451 70.243L37.6891 69.9707L37.7011 69.7064L37.3331 68.9054L37.3651 68.7011L37.5491 68.3727L37.5571 68.2045L37.3651 67.812L37.2971 67.4716L37.3011 67.0751L37.1091 66.7547L37.0691 66.4143L36.8771 66.3342Z" fill="#E2E8F0"/>
<path d="M28.2618 44.5553L28.6418 44.4792L29.1818 44.9078L29.5498 45.116L29.7178 45.0399L29.9298 44.7155L30.0698 44.6074L30.4578 44.5593L30.6458 44.6114L31.0738 45.12L31.3658 45.1961L31.5418 45.4244L31.6658 45.4885L31.8618 45.3563L32.2378 45.5325L32.4938 45.4124L32.6618 45.4004L32.8458 45.2722L33.0098 44.9038L33.2778 44.7556L33.6858 44.6394L33.8418 44.3671L33.9298 44.3631L34.2098 44.4913L34.4218 44.279L34.5978 43.7183L34.5418 43.3659L34.6498 42.9453L34.5578 42.645V42.4567L34.6178 42.2565L34.7498 42.1283L35.1498 42.1243L35.3058 42.2165L35.3738 42.3726L35.2978 42.6209L35.4258 42.7611L35.5898 42.7531L35.6618 42.8092L35.8218 43.3138L35.8858 43.3619L36.2938 43.454L36.4738 43.5901L36.5498 43.9666L36.5218 44.279L36.5778 44.4031L36.7378 44.5273L36.8378 44.4993L37.0338 43.8905L37.3178 43.6062L37.4698 42.9574L37.4058 42.3847L37.5098 42.2205L37.6378 42.1243L37.7298 42.1724L37.8698 42.3807L38.0258 42.4287L38.1098 42.1964L38.2178 42.1363L38.2698 42.3246L38.4098 42.5208L38.5138 42.5809L38.7458 42.4648L38.9858 42.641L39.1658 42.5048L39.7418 42.2285L39.9418 42.1644L40.0578 42.1764L40.2618 42.4047L40.3178 42.8212L40.8058 43.1616L40.9458 43.3899L41.0378 43.7303L41.3018 43.8785L41.6578 44.2349L41.8418 44.279L41.9658 44.263L42.0578 43.8865L42.1458 43.8344H42.8298L43.0978 44.0267L43.4058 44.1508L43.6218 44.1068L44.1898 43.442L44.1218 43.0775L44.1738 42.9694L44.7138 42.8572L45.3538 42.8813L45.5658 42.9333L45.7258 43.0535L46.0418 43.4179L46.3058 43.6182L46.4098 43.6582L46.5338 43.6382L46.7538 43.446L47.0698 43.0174L47.2418 43.0094L47.4338 43.1616L47.5378 43.1816L47.8378 43.2097L48.0098 43.1456L47.8418 42.2485L47.8658 42.0763L47.9938 41.9161L48.1458 41.864L48.6338 42.1243L48.7818 42.1203L49.2818 42.8212L49.5818 42.9574L49.8938 43.2898L50.7978 43.506L51.2898 43.442L51.8258 43.51L51.8218 43.6102L52.1298 43.8745L52.2298 44.2189L52.4818 44.5473L52.0898 44.7155V44.7796L52.2498 44.9438L52.1538 45.2162L51.7858 45.3123L51.8138 45.8209L51.9898 46.3415L52.1898 46.4777L52.3418 46.726L52.5298 46.8341H53.1698L53.5978 46.6419L53.8897 46.698L54.2337 47.0104L54.4297 47.2987L54.6377 47.7473L54.6937 47.9836L54.4577 48.2719L54.3737 48.4882L54.4097 48.7205L54.5257 48.8887L54.5377 48.9768L54.4097 49.0569L54.1297 48.9968L53.8617 49.0809L53.7538 49.2732L53.6777 49.6136L53.2698 50.0021L53.2458 50.1783L53.2978 50.4706L53.0578 50.8271L53.0138 50.9793L53.1218 51.4999V51.6801L53.0818 51.7843L52.7898 52.0726L52.7338 52.2128L52.7778 52.353L53.0057 52.6093L53.3737 52.8135L53.8457 52.5452L54.2777 52.377L54.6817 52.5452L54.9897 52.5172L55.3977 52.5732L55.6737 52.8576L56.1177 52.9537L56.5337 53.4703L56.9417 53.7026L57.0977 53.8989L57.3057 53.9109L57.6177 53.7947L57.6817 53.8068L57.7617 54.039L57.8737 54.1552L57.9777 54.1712L58.2617 54.0951L58.3537 54.1392L58.3897 54.4515L58.9257 54.9361L58.8257 55.0923L58.8417 55.2405L59.2537 55.8252L59.3577 56.1016L59.4337 56.1136L59.6057 56.0295L59.4617 55.7692V55.669L59.8017 55.3687L59.8537 55.0923V54.9442L59.6697 54.3674L59.6657 53.6145L59.5657 53.4663L59.3497 53.3222L59.2697 53.1539L59.3457 52.6093L59.5697 52.3249L59.6537 52.0366L59.5137 51.2115L59.5777 51.1835L59.7857 51.3998L59.9537 51.4959L60.2537 51.552L61.4937 51.3918V51.4639L61.3537 51.552L61.1697 51.5039L61.0297 51.568L60.9377 51.7362L60.9177 52.1647L60.5537 52.4571L60.5217 52.6493L60.5577 52.9857L60.7377 53.7146L61.1577 54.6077L61.4177 54.9482L61.3057 55.0603L60.9057 54.8641L60.7897 54.9001L60.5737 55.1284L60.2457 55.6931L60.2097 56.2658L60.4137 57.259L60.3217 57.3431L60.3537 57.5113L60.3137 57.5794L60.0817 57.4432L59.8257 57.4833L59.6097 58.072L59.5657 58.5766L59.7817 59.2214L60.2737 60.0705L61.3537 61.4482L61.6497 61.7486L61.8697 61.8927L61.9977 62.3413L62.0097 62.4654L61.9377 62.5936L61.6537 62.8379L61.4737 63.1222L61.2377 63.8832L61.1377 64.6922L61.1777 65.2649L61.4017 66.2741L61.5177 67.1032L61.4577 67.764L61.5417 68.4248L61.5177 68.7852L61.4097 68.9014L61.3497 69.2738L61.2937 70.1429L61.3217 70.6475L61.2177 71.1481L61.3057 71.7449L61.4457 72.2455L61.6697 72.7141L62.8337 74.1999L64.3217 75.5536L64.4657 75.7939L64.4337 75.9381L64.3177 75.9421L64.0537 75.854L63.8897 75.898L63.7977 76.0142L63.8217 76.2745L63.9097 76.3986L64.0817 76.4106L64.1617 76.1463L64.1737 76.3706L64.2737 76.4627L64.2217 76.5148V76.6349L64.3057 76.7991L64.2137 76.8592L64.1737 77.0074L64.2897 77.1115L64.0617 77.1476L63.9497 77.2717L63.9737 77.4199L64.0337 77.4399L64.1897 77.3358L64.2337 77.512L64.1337 77.496L63.8737 77.6041L63.8177 77.9846L63.9257 78.0727L64.2297 77.9926L64.2897 78.0326L64.2817 78.2689L64.4177 78.4812V78.6935L64.5377 78.8096L64.3457 79.11L64.2537 79.122L64.1337 79.0219L63.9937 79.13L63.7577 79.0819L62.0057 78.1968L61.6057 77.7082L61.0457 77.6161L60.0697 77.0755L59.7897 77.0875L58.8097 77.3158L56.7537 78.1608H56.6337L53.7697 76.9153L50.9578 73.6192L49.4618 73.1787L49.2138 72.3216L49.1178 72.2535L48.7258 72.1854L45.8018 70.215L45.6578 70.1589L45.5338 69.9226L44.5218 68.6411L44.4458 68.597L42.7858 68.2245L40.8618 67.6558L40.7698 67.6118L40.4378 67.2593L40.2178 67.2994L40.0938 67.2754L39.9418 67.4396L39.6738 67.4676L39.4418 67.748L39.2538 67.78L39.1218 67.6558L38.9938 67.3154L38.9618 67.0351L38.8378 66.8268L38.6418 66.7667L38.0258 66.7267L37.8738 66.5905L37.7658 66.2501L37.6738 66.1139L37.3858 66.0819L37.2698 65.9738L37.1538 65.9778L36.9418 66.1059L36.8738 66.198L36.8538 66.3302L36.5218 66.158L36.0618 66.17L35.2338 65.7054L34.6338 64.8404L34.5818 64.6922L34.3018 64.5039L34.4258 64.0834L34.7058 63.8592L34.7738 63.6789L34.6298 63.0742L34.3058 62.4454L34.6858 61.7646L35.0138 61.6404L35.0858 61.5683L35.0738 61.2159L35.1818 60.9716L35.1698 60.7593L35.1218 60.6472L34.8258 60.3989L34.7498 60.2707L34.6738 59.8863L34.4978 59.6059L34.0418 59.1413L33.8298 59.0332L33.4018 59.0692L33.0938 59.0132L32.6418 58.7368L32.1258 58.068L31.9778 57.7636L31.5618 57.5914L31.6018 57.0548L31.7698 56.8465V56.7143L31.6538 56.2738L31.3338 55.9975L31.3178 55.5169L31.2658 55.3487L31.3258 55.1043L31.3058 54.5116L31.2618 54.3915L31.0498 54.2072L30.9898 54.0711L31.0618 53.7787L31.4018 53.2981L31.3938 53.0698L31.2018 52.8175L30.6018 52.401L30.3178 52.413L30.2138 52.3369L30.0378 51.7162L30.2098 51.1595V51.0353L29.5858 50.9672L29.4658 50.9112L29.3818 50.791L29.3218 50.5187L29.4898 50.3144L29.2338 49.97L29.2098 49.8619L29.2858 49.6216L29.2778 49.2531L29.2418 49.157L28.9978 48.9888L28.9378 48.8727L29.1618 48.34L29.1178 48.2239L28.9498 48.1077L28.6218 48.0476L28.4018 47.8915L27.8498 48.0116L27.7698 47.9435L27.7378 47.6912L27.6698 47.547L27.5258 47.4669L27.4138 47.4589L27.3818 47.3708L27.4418 47.1786L27.6658 47.0424L27.7778 46.8622L27.8938 46.4296L28.1298 46.3375L28.2298 46.1894L28.2098 46.0372L27.9098 45.901L27.8098 45.7688L27.7178 44.9999L27.7498 44.8237L27.8818 44.6715L28.0378 44.5593L28.2618 44.5553Z" fill="#E2E8F0"/>
<path d="M10.3334 30.5581L10.5014 30.7343L10.6174 30.7023L10.8774 30.7744L10.9374 30.9386V31.2069L11.2134 31.4112L11.4814 31.4552L11.4574 31.6034L11.0094 32.088L10.9814 32.5966L10.4654 33.9143L10.4814 34.0664L10.4294 34.1185L10.3334 34.1105L10.2094 33.8662L10.0894 33.7741L9.9214 33.7661L9.5774 33.6419L9.3934 33.718L8.9614 33.742L8.8934 33.8422L8.8894 33.9823L8.7694 33.7621L8.8654 33.5098L8.8374 33.3536L8.9534 33.2815L9.0654 33.2775L9.0254 33.0372L9.0494 32.7688L8.8974 32.3083L8.8614 31.9598V31.3431L8.8094 31.1508L8.8694 30.9466L8.8334 30.7824L8.7334 30.6983V30.6462L8.8054 30.5821L8.9254 30.6863L9.3134 30.8665L9.7414 30.7784L10.0254 30.494L10.3334 30.5581ZM11.5094 28.9401L11.7854 28.9481L11.9534 28.844L12.2134 28.864L12.6854 29.1364L13.1414 29.1123L13.4454 29.2365L13.6574 29.2605L13.7934 29.2405L14.0694 29.1043L14.3174 29.1564L14.4334 29.2565L14.4494 30.5261L14.3814 31.6875L14.4134 31.9438L14.3894 32.3243L14.5214 33.4537L14.5334 33.9383L14.7814 35.9728L14.7094 36.0489L14.4094 35.9448L14.0294 35.8967L13.9094 35.9007L13.7574 36.0329L13.6094 36.0609L12.3934 36.181L12.1814 36.149L12.2174 36.0569L12.4694 35.8607L12.7254 35.5523L12.7214 35.4722L12.6414 35.4201L12.7494 34.6792L12.5094 33.9183L12.6334 33.7941V33.6619L12.5294 33.2334L12.3934 33.1093L12.4374 32.8409L11.7814 32.0439L11.7414 31.8437L11.9374 31.4472L12.0374 30.8024L11.8814 29.8252L11.7254 29.4087L11.6174 29.2445L11.3574 29.0402L11.3654 28.9882L11.5094 28.9401Z" fill="#E2E8F0"/>
<path d="M15.8332 43.9145L16.6012 44.5913L16.5412 44.7515L16.4572 44.7555L16.3692 44.8396L16.4412 45.2361L16.2332 45.2682L15.9852 45.4043L15.8292 45.4324L15.4452 45.2722H15.3292L15.2892 45.2241L15.3732 44.8797L15.3452 44.6634L15.4252 44.4191L15.6212 44.0827L15.8332 43.9145ZM15.9012 42.1603L16.5252 42.4447L16.6412 42.725L16.2412 43.482L16.1972 43.51L15.9772 43.4459L15.7852 43.478L15.5132 43.6021L15.2572 42.8452L15.1972 42.4327L15.2132 42.2564L15.3372 42.0322L15.5612 42.1123L15.9012 42.1603ZM31.4371 23.2009L32.1051 23.7656L32.3051 24.082L32.7331 24.2022L32.7691 24.3263L32.7571 25.1193L32.8851 25.3556L33.2251 25.668L33.3731 26.0124L33.4731 26.0244L33.5611 25.9363L33.6171 25.688L33.7371 25.6039L33.9211 25.5598L34.1131 25.4237L34.2731 25.3876L34.4011 25.4477L34.6771 25.9523L34.9731 26.2367L35.1851 26.3849L35.3211 26.3688L35.3051 25.9483L35.4411 25.5719L35.7131 25.5278L36.0291 25.2515L36.2251 25.1754L36.4171 25.4477L36.4931 25.8562L36.5691 25.9804L36.9811 26.2327L37.0411 26.4369L37.2571 26.497L37.3971 26.7613L37.5131 26.7533L37.6451 26.6492L37.7571 26.7133L37.7171 26.8614L37.5651 27.0056V27.1178L37.6291 27.302L37.8531 27.5823L37.8691 27.7025L37.7691 27.8266L37.7131 28.135L37.4611 28.2151L37.3691 28.4634L37.6451 28.6196L37.7531 28.7838L37.7651 28.9801L37.6411 29.5207L37.6771 29.6088L37.9011 29.5968L38.1531 29.6929L38.0131 30.3217L38.1131 30.534L38.1011 30.6101L37.9011 30.9024L37.7171 30.9385L37.5651 31.0626L37.5571 31.2148L37.6451 31.5913L37.6131 31.7114L36.8771 32.5164L36.6891 32.6566L36.3531 32.6726L35.5931 32.5725L34.9571 32.5605L34.1371 31.9237L34.0371 31.7995L34.0531 31.9678L34.1691 32.16V32.3202L33.8851 32.7407L33.5611 32.8168L33.4371 32.945L33.2291 33.0331L33.0491 33.0411L32.3291 32.8408L32.0011 32.4764L31.7651 32.4043L31.6851 32.4884L31.6051 32.9009L31.3851 33.0571L31.3131 33.1732L31.2411 33.6058L31.0011 33.7019L30.7851 33.9342L30.5611 33.8981L30.4971 33.9422L30.4771 34.0703L30.5531 34.3547L30.3011 34.7071L30.3491 35.0075L30.0851 35.3319L29.9851 35.5562L29.9891 35.7765L29.9211 35.9607L29.9571 36.205L29.8731 36.6135L29.9171 36.9299L29.6091 37.2343L29.4931 37.803L29.3171 38.0272L29.3691 38.1514L29.3491 38.2515L28.9931 38.5999L29.0091 38.7722L29.3491 39.0765L29.3411 39.4169L29.4251 39.8735L29.3611 40.0898L29.1971 40.246L29.1611 40.3661L29.3211 40.5143L28.8011 40.6465L28.6571 40.7987L28.6251 40.9789L28.7411 41.3273L28.7251 41.4034L28.4771 42.0482L28.1931 42.1483L28.1211 42.2284L28.2811 42.8292L28.2371 42.9453L27.9451 43.0094L27.6251 42.9453L27.4971 43.1375L27.5011 43.3538L27.5771 43.514L27.7251 43.6982L28.0451 44.2669L28.2731 44.5433L28.0571 44.5513L27.9011 44.6634L27.7691 44.8156L27.7371 44.9918L27.8291 45.7608L27.9291 45.8929L28.2291 46.0291L28.2491 46.1813L28.1491 46.3295L27.9131 46.4216L27.7971 46.8541L27.6851 47.0343L27.4611 47.1705L27.4011 47.3628L27.4331 47.4509L27.5451 47.4589L27.6891 47.539L27.7571 47.6831L27.7891 47.9355L27.8691 48.0035L28.4211 47.8834L28.6411 48.0396L28.9691 48.0997L29.1371 48.2158L29.1811 48.3319L28.9571 48.8646L29.0171 48.9808L29.2611 49.149L29.2971 49.2451L29.3051 49.6135L29.2291 49.8538L29.2531 49.962L29.5091 50.3064L29.3411 50.5106L29.4011 50.783L29.4851 50.9031L29.6051 50.9592L30.2291 51.0273V51.1514L30.0571 51.7081L30.2331 52.3289L30.3371 52.405L30.6211 52.393L31.2211 52.8095L31.4131 53.0618L31.4211 53.2901L31.0811 53.7707L31.0091 54.063L31.0691 54.1992L31.2811 54.3834L31.3251 54.5036L31.3451 55.0963L31.2851 55.3406L31.3371 55.5088L31.3531 55.9894L31.6731 56.2657L31.7891 56.7063V56.8384L31.6211 57.0467L31.5811 57.5834L31.9971 57.7556L32.1451 58.06L31.7491 58.0399L31.6971 58.1441L31.7971 58.2762L31.7651 58.4524L31.6531 58.6046L31.5371 58.5486L31.4331 58.6407L31.3171 58.8649L31.3771 59.0292L31.3131 59.1773L31.1531 59.2775L30.9691 59.3175L30.7931 59.6259L30.5731 59.6739L30.3611 59.6019L29.8091 59.0852L29.3251 58.889L29.2291 58.5846L29.1531 58.5165L28.8571 58.3964L28.4291 58.112L28.2971 58.1401L28.2411 57.8076L28.0731 57.6635L27.8171 57.6234L27.6491 57.7235L27.4971 57.7396L27.4691 57.8517L27.3171 58.0439L27.6411 58.917L27.6291 59.3015L27.4971 59.4016L27.1811 59.4857L27.0371 59.6459L26.8131 59.6339L26.5171 59.754L26.1811 59.71L26.0451 59.6459L26.0331 59.1773L26.0771 58.937L26.0091 58.921L25.5371 59.0972L25.3411 58.9531L25.2251 58.933L24.8731 59.0292L24.6571 58.7768L24.5731 58.5325L24.5331 58.5486L24.4931 58.7168L24.3491 58.7007L24.2491 58.6287L24.3571 58.4364L24.2211 58.2522L24.0211 58.5606L23.8611 58.5245L23.7771 58.6967L23.7251 58.7048L23.5491 58.5405L23.2971 58.7849L23.2291 58.7328V58.6767L23.3091 58.2522L23.3971 58.2322L23.6011 58.3163L23.6731 58.2962L23.5091 58.1401V57.9478L23.4731 57.9118L23.1131 58.3123L23.0051 58.3043L22.9411 57.9278L22.9611 57.7235L22.5211 57.8837L22.4811 57.7996L22.5051 57.6394L22.4531 57.5954L22.3691 57.5593L22.0371 57.5914L21.8851 57.6835L21.8331 57.9318L21.7491 58.0519L21.5211 58.0279L21.4371 57.9518L21.3811 57.7315L21.4331 57.5834L21.5931 57.4392L21.6171 57.315L21.5291 57.2189L21.1451 57.1108L21.0491 57.0347L21.0651 56.5901L21.0051 56.5261L20.4651 56.7103L19.2611 56.8304L19.1571 56.9306L19.0691 57.3751L18.9611 57.5273L19.1091 56.8825L19.1211 56.6622L18.8571 56.6262L18.6171 56.6943L18.4131 56.8344L18.0612 56.7584L17.4252 56.3378L17.2732 55.8252L17.2012 55.0923L17.2612 54.5036L17.3292 54.3594L17.4212 54.2913L17.6412 54.2833L18.1691 54.083L18.2811 53.6425L18.1932 52.9937L17.9812 52.6893L17.7452 52.5371L17.3012 51.9644L17.1092 51.8082L16.5972 51.624H16.1772L16.0052 51.8483L15.8332 51.7201L15.7732 51.4798L15.6212 51.3116L15.6252 51.1875L15.7372 51.1034L15.7332 50.9352L15.5092 50.7469L15.4332 50.4706L15.6812 50.5106L15.9652 50.6348L16.2252 50.5587L16.3812 50.4546L16.5252 50.3104L16.6412 50.1021L16.5972 49.8819L16.7172 49.5374L16.6932 49.2691L16.5412 49.209L16.5772 49.3532L16.4572 49.8058L16.4412 50.1582L16.1772 50.3945L15.6852 50.3264L15.4332 50.2463L15.3612 49.6816L15.1852 49.3892L15.1412 49.3532L14.9012 49.3933L14.9212 49.213L15.0452 49.0328L15.3372 48.348L15.3732 47.7392L15.2932 47.6671L15.4412 47.4429L15.5132 47.567L15.6772 47.535L15.7772 47.3147L15.8772 46.8021L15.8652 46.1573L15.9292 45.913L16.3412 45.5966L16.5332 45.172L16.4492 44.8476L16.5892 44.7475L16.6132 44.5873L15.9452 43.9345L16.5252 43.3738L16.7452 42.6449L16.6252 42.3886L16.2772 42.1523L15.8172 42.0121L15.7612 41.9481L15.7932 41.7518L15.9412 41.6717L16.0332 41.5155L15.9572 41.2712L16.0532 40.9629L15.9732 40.8587L15.6292 40.7586L15.3652 40.7706L15.1852 40.4783L15.0972 40.4662L14.9172 40.5423L14.7452 40.4502L14.7172 40.246L14.8012 40.1939L14.8132 40.1018L14.5532 39.9616L14.5892 39.8695L14.6332 39.8295L14.7092 39.8455L14.9012 40.0417L14.9812 40.0537L15.1252 39.9736L15.2092 39.8935L15.1692 39.6372L15.2372 39.5651L15.1852 39.473L15.0572 39.425L14.8132 39.5731L14.6812 39.3529H14.5292L14.4332 39.441L14.5212 39.6572L14.4492 39.6693L14.3452 39.5851L14.2812 39.6292L14.2732 39.6933L14.3732 39.8455L14.3012 39.9055L14.1932 39.7133L14.0812 39.6212L13.5052 39.433L13.1252 39.6332L13.0452 39.6292L12.8372 39.3729L12.7012 39.0765L12.6612 38.3997L12.6252 38.3516L12.4532 38.4277L12.3892 38.3596L12.2372 38.0272L12.1612 37.6868L12.0612 37.5466L12.0332 37.3904L11.8932 37.0901L11.7012 36.8498L11.7052 36.7456L11.7852 36.6055L12.0812 36.4253L12.1692 36.1409L12.3812 36.1729L13.5972 36.0528L13.7452 36.0248L13.8972 35.8926L14.0172 35.8886L13.8772 36.0968L13.9532 36.2691L14.1212 36.209L14.2452 36.3171L14.2572 36.3852L14.1452 36.5214L14.1932 36.6615L14.4852 36.7777L14.7012 36.7016L14.8772 36.8578L14.9772 36.8538L15.1772 36.6495L15.4052 36.245L15.7572 36.209L15.8412 36.1569L16.1012 35.5442L16.2572 35.5281L16.4092 35.384L16.6172 35.38L16.7012 35.3239L16.8132 35.0556L16.7212 34.9154L17.0132 34.4869L17.0532 34.2786L17.0932 34.2466L17.2212 34.2866L17.2892 34.2666L17.4492 34.1625L17.6452 34.1144L17.7932 33.9662L17.7852 33.5737L17.8932 33.4215L17.9252 33.2613L18.3651 33.1612L18.5771 33.2093L18.8451 33.1212L19.0371 33.1412L19.4091 32.7607L19.6091 32.6566L19.7771 31.9157L19.7331 31.6514L19.9291 31.323L19.9451 30.8504L20.0531 30.522L20.1451 30.3578L20.2691 30.2697L20.5451 30.3377L20.7851 30.2256L21.1571 29.4366V29.3285L21.0811 29.1923L21.0611 28.8199L20.8811 28.6076L20.8691 28.3913L20.8971 28.3112L21.1291 28.131L21.2251 27.7786L21.3851 27.8106L21.5491 27.7545L21.6011 27.5503L21.5931 27.2539L21.7491 26.8134L21.7331 26.6932L21.6571 26.5891L21.4451 26.465L21.2651 26.2487L21.2411 25.8282L21.2851 25.7441L21.3411 25.7321L21.6691 25.8122L21.8011 25.8001L21.8851 25.5759L21.8691 25.5038L22.2891 25.7961L22.5171 26.2046L22.5931 26.2407L22.9531 26.2126L23.0691 26.3128L23.7891 27.278L24.0171 27.6865L24.1611 27.9948L24.1971 28.3313L24.5731 28.0749L24.8371 27.7746L25.1851 27.6985L25.3491 27.5863L25.7611 27.1017L26.1771 26.7333L26.2211 26.4529L26.0611 25.9764L26.2771 25.4077L26.5691 25.0752L26.6851 25.0112L26.7651 25.0312L27.1251 25.2314L27.6011 25.0432L27.9851 24.7869L28.3891 24.1621L28.6611 24.102L29.6291 24.1661L29.8531 24.106L30.7491 23.4532L31.1611 23.3771L31.4371 23.2009V23.2009Z" fill="#E2E8F0"/>
<path d="M9.22215 10.4492L9.37815 10.5013L9.70215 10.9258L9.99015 10.8577V10.7216L10.0621 10.6575L10.1221 10.7376L10.1181 10.9258L10.3021 10.9659L10.2981 10.8777L10.3941 10.7015L10.6701 10.6895L10.6781 11.0419L10.8021 11.2342L11.1461 11.4264L11.1101 11.7628L11.1621 12.1473L10.9701 12.2875L10.9621 12.3836L11.6141 12.9243L11.7021 13.3128L11.8981 13.4649L11.8301 14.6264L11.7901 14.7145L11.5061 15.0709L10.8021 15.5755L10.4421 16.1643L10.0621 16.5127L9.90215 16.765L9.27415 17.4338L9.13815 17.6701L9.05415 18.0266L8.89815 17.8984L8.65015 17.4338L8.10216 15.908L7.95416 15.7317L7.91016 15.5956L7.94216 15.3633L8.28616 14.8146L8.24216 14.7225L8.24616 14.5663L8.47815 14.2619L8.38215 13.1966L8.43015 12.8161L8.45415 12.7881L8.53015 12.8642L8.80215 12.9042L8.87415 12.8161L8.62615 12.2354L8.58215 11.9511L8.70215 11.6627L8.82215 11.5666L8.77815 11.3463L8.80615 11.1581L8.70215 11.09L8.67415 10.9298L8.81015 10.8497L8.93015 10.5694L9.22215 10.4492Z" fill="#E2E8F0"/>
<path d="M18.958 57.5274L19.066 57.3752L19.154 56.9306L19.258 56.8305L20.462 56.7104L21.002 56.5261L21.062 56.5902L21.046 57.0348L21.142 57.1108L21.526 57.219L21.614 57.3151L21.59 57.4392L21.43 57.5834L21.378 57.7316L21.434 57.9519L21.518 58.028L21.746 58.052L21.83 57.9319L21.882 57.6836L22.034 57.5914L22.366 57.5594L22.45 57.5954L22.502 57.6395L22.478 57.7997L22.518 57.8838L22.958 57.7236L22.938 57.9279L23.002 58.3043L23.11 58.3123L23.47 57.9118L23.506 57.9479V58.1401L23.67 58.2963L23.598 58.3163L23.394 58.2322L23.306 58.2523L23.226 58.6768V58.7328L23.294 58.7849L23.546 58.5406L23.722 58.7048L23.774 58.6968L23.858 58.5246L24.018 58.5606L24.218 58.2523L24.354 58.4365L24.246 58.6287L24.346 58.7008L24.49 58.7168L24.53 58.5486L24.57 58.5326L24.654 58.7769L24.87 59.0292L25.222 58.9331L25.338 58.9531L25.534 59.0973L25.994 58.9171L26.062 58.9331L26.018 59.1734L26.03 59.642L26.166 59.706L26.502 59.7501L26.798 59.63L27.022 59.642L27.166 59.4818L27.482 59.3977L27.614 59.2975L27.626 58.9131L27.302 58.04L27.454 57.8478L27.482 57.7356L27.634 57.7196L27.802 57.6195L28.058 57.6595L28.226 57.8037L28.282 58.1361L28.414 58.1081L28.842 58.3924L29.138 58.5126L29.214 58.5807L29.31 58.885L29.794 59.0813L30.346 59.5979L30.558 59.67L30.778 59.6219L30.954 59.3136L31.138 59.2735L31.298 59.1734L31.362 59.0252L31.302 58.861L31.418 58.6367L31.522 58.5446L31.638 58.6007L31.75 58.4485L31.782 58.2723L31.682 58.1401L31.734 58.036L32.13 58.056L32.646 58.7248L33.098 59.0012L33.406 59.0573L33.834 59.0212L34.046 59.1293L34.502 59.5939L34.678 59.8743L34.754 60.2587L34.83 60.3869L35.1259 60.6352L35.174 60.7473L35.186 60.9596L35.0779 61.2039L35.09 61.5563L35.018 61.6284L34.69 61.7526L34.31 62.4334L34.634 63.0622L34.778 63.6669L34.71 63.8472L34.43 64.0714L34.306 64.492L34.586 64.6802L34.638 64.8284L35.2379 65.6934L36.0659 66.158L36.5259 66.146L36.8579 66.3182L37.0499 66.4303L37.0899 66.7708L37.2819 67.0912L37.2779 67.4877L37.3459 67.8281L37.5379 68.2206L37.5299 68.3888L37.3459 68.7172L37.3139 68.9214L37.6819 69.7224L37.6699 69.9867L37.2259 70.2591L37.1859 70.4994L36.9179 70.9399L36.3419 72.2656L36.0739 72.59L34.11 72.5219L34.318 74.9649L34.258 75.4695L34.194 75.6577L34.038 75.85L34.102 76.0662L33.858 76.2985L33.882 76.655L33.538 76.7671L33.518 76.8833L33.514 76.9353L33.246 76.9593L33.134 76.8672L33.054 76.715L32.85 76.5989L32.162 76.3826L31.858 76.3466L31.354 76.0262L30.726 75.878L30.054 75.5416L29.818 75.4695L29.478 75.1331L28.938 74.0958L28.654 73.8715L28.558 73.7234L28.722 73.5391L28.75 73.2588L28.674 73.1186L28.73 72.9304L28.866 72.8823L28.89 72.638L29.206 72.602L29.226 72.3977L29.354 72.2656L29.314 72.1174L29.07 72.0573L28.946 71.9291L28.87 71.9892L28.978 72.1454L28.902 72.2575V72.4458L28.83 72.4338L28.818 72.2976L28.686 72.1774L28.838 71.8891L28.958 71.8771L29.002 71.809L28.882 71.5687L28.618 71.5527L28.586 71.4646L28.766 71.3684L28.878 71.2203L29.094 71.1281L29.122 71.012L28.87 70.8118L28.694 70.8198L28.61 70.9039L28.538 71.1842L28.27 71.4445L28.238 71.781L28.17 71.9331L28.038 71.9772L27.826 71.7689L27.818 71.6208L27.906 71.4485L27.982 71.1201L28.174 70.8999L28.342 70.7877L28.41 70.6556L28.322 70.4393L27.93 70.4593L27.794 70.2511L27.87 69.4741L27.794 69.2618L27.506 68.9094L27.186 68.6371L27.078 68.4168L26.95 67.0351L26.79 66.3543L26.614 66.0539L26.31 65.6614L25.942 65.369L25.358 64.9886L25.09 64.8764L24.906 64.3878L24.378 63.5788L24.042 63.2464L23.614 62.5896L23.382 61.9368L23.006 61.0757L22.622 60.5271L22.334 60.2267L21.846 59.8382L21.034 59.5939L20.686 58.7929L20.358 58.4165L19.762 58.028L19.538 57.9679L19.146 57.9599L19.03 57.8397L18.958 57.5274Z" fill="#E2E8F0"/>
<path d="M47.2258 24.8712L47.8418 25.2236L48.3578 25.6561L48.7058 26.1728L49.2858 26.8656L49.8978 27.4183L50.4178 27.6906L51.0578 28.1792L51.8458 28.9602L52.5938 29.4288L52.9978 29.617L53.2578 29.6811L53.4858 29.569L53.8978 29.8173L54.1458 30.0335L56.0458 31.8998L56.7258 32.889L57.3218 33.9383L57.2738 34.1706L57.4738 34.5631L57.9858 35.3481L58.8898 37.2184L59.9618 39.1848L61.1738 41.2594L61.4098 41.8201L61.1498 41.9322L61.1218 42.0443L61.5698 43.3259L61.4018 44.0588L61.6778 44.8838L61.8618 45.2924L62.0058 45.9011L61.8498 46.0933L61.5418 46.3376L61.4818 46.8142L61.6738 47.3869L61.6578 47.9917L61.8378 48.4202L62.2658 49.1611L61.9258 50.2585L61.7418 50.5348L61.4458 50.667L61.3978 50.9113L61.4938 51.4119L60.2538 51.5721L59.9538 51.516L59.7858 51.4199L59.5778 51.2036L59.5138 51.2317L59.6538 52.0567L59.5698 52.3451L59.3458 52.6294L59.2698 53.1741L59.3498 53.3423L59.5658 53.4865L59.6658 53.6346L59.6698 54.3876L59.8538 54.9643V55.1125L59.8018 55.3888L59.4618 55.6892V55.7893L59.6058 56.0496L59.4338 56.1337L59.3578 56.1217L59.2538 55.8454L58.8418 55.2607L58.8258 55.1125L58.9258 54.9563L58.3898 54.4717L58.3538 54.1593L58.2618 54.1152L57.9778 54.1913L57.8738 54.1753L57.7618 54.0592L57.6818 53.8269L57.6178 53.8149L57.3058 53.931L57.0978 53.919L56.9418 53.7228L56.5338 53.4905L56.1178 52.9738L55.6738 52.8777L55.3978 52.5934L54.9898 52.5373L54.6818 52.5653L54.2778 52.3971L53.8458 52.5653L53.3738 52.8337L53.0058 52.6294L52.7778 52.3731L52.7338 52.2329L52.7898 52.0928L53.0818 51.8044L53.1218 51.7003V51.52L53.0138 50.9994L53.0578 50.8472L53.2978 50.4908L53.2458 50.1984L53.2698 50.0222L53.6778 49.6337L53.7538 49.2933L53.8618 49.1011L54.1298 49.0169L54.4098 49.077L54.5378 48.9969L54.5258 48.9088L54.4098 48.7406L54.3738 48.5083L54.4578 48.2921L54.6938 48.0037L54.6378 47.7674L54.4298 47.3189L54.2338 47.0305L53.8898 46.7181L53.5978 46.662L53.1698 46.8543H52.5298L52.3418 46.7461L52.1898 46.4978L51.9898 46.3617L51.8138 45.841L51.7858 45.3324L52.1538 45.2363L52.2498 44.9639L52.0898 44.7997V44.7357L52.4818 44.5675L52.2298 44.2391L52.1298 43.8946L51.8218 43.6303L51.8258 43.5302L51.2898 43.4621L50.7978 43.5262L49.8938 43.3099L49.5818 42.9775L49.2818 42.8413L48.7818 42.1405L48.9058 41.9923L48.9458 41.8561L48.7698 41.3355L48.6578 41.1633L48.6858 40.7948L48.6458 40.7147L47.9498 40.2862L47.7058 40.2621L47.5178 40.0739L47.1938 39.8857L46.9218 39.8697L46.6858 39.9418L46.5698 39.9137L46.5018 39.8336L46.4938 39.353L46.5618 39.1328L46.5578 38.9726L46.3698 38.3157L46.5858 37.8352L46.5098 37.4707L46.3138 37.2304L46.2898 37.0702L46.4058 36.862L46.6298 36.7859L46.6818 36.6377L46.4858 36.2332L46.1658 36.0369L46.0138 35.8327L45.1818 35.4202L44.8818 35.3761L44.9938 34.8114L44.9018 34.3468L44.9458 33.4017L44.9818 33.2335L45.1498 32.9251L45.1818 32.6247L45.3298 32.3524L45.2818 32.2803L45.1178 32.2082L44.9578 31.9599L44.4498 31.6275L44.3818 31.5314L44.3938 31.4272L44.6578 31.267L44.6338 30.8145L44.5138 30.5502V30.0055L44.5298 29.8413L44.7178 29.5569L44.7738 29.3447L44.6178 28.8641L44.5898 28.2874L44.3978 27.6145L44.3818 27.158L44.9538 26.6493L45.2538 26.2769L45.8258 25.8283L46.1498 25.3878L46.5178 25.0834L46.8538 24.6509L47.2258 24.8712Z" fill="#E2E8F0"/>
<path d="M285.52 11.5026L285.528 11.3784L285.612 11.2663L285.736 11.1942L286.276 11.1381L286.836 11.2583L287.068 11.1381L287.296 10.9379L287.1 10.7376L286.632 10.6215L286.504 10.2891L286.568 10.1529L287.004 9.94864L287.14 10.0207L287.472 10.0728L287.884 9.88857L287.948 9.98068L287.932 10.0968L288.24 10.6855L288.5 10.9939L288.508 11.3103L288.356 11.5346L288.02 11.7549L287.568 11.823L287.208 12.0753L286.928 12.0392L286.664 12.1273L286.412 11.9231L285.836 11.855L285.52 11.5026ZM278.568 2.59957L278.564 2.51947L278.364 2.43937L278.196 2.51146L278.26 2.32323L278.4 2.28719L278.524 2.31122L278.564 2.3793L278.616 2.35927L278.676 2.2992L278.7 2.11898L278.852 2.11497L279.148 2.2191L279.396 2.09495L279.56 1.95077L279.924 2.09094L280.064 2.04689L279.964 1.76254L279.784 1.65841L279.7 1.49821L279.74 1.27394L279.94 1.00961L280.228 1.10573L280.144 1.326L280.288 1.46617L280.612 1.57831L280.652 1.4902L280.536 1.22988L280.624 0.801352L280.528 0.480957L280.372 0.212626L280.26 0.216631L280.124 0.404863L280.092 0.661179L279.964 0.829387L279.72 0.925505L279.172 1.26593L278.996 1.26192L278.952 1.14177L278.808 1.12976L278.768 1.22988L278.584 1.35003L278.432 1.326L278.348 1.51824L278.34 1.67443L278.208 1.81861L278.092 2.07092L278.1 2.27918L278.04 2.49945L277.884 2.74375L277.912 2.82785L278.024 2.89594L278.568 2.59957ZM281.112 2.89594L281.128 3.00407L281.276 3.04011L281.212 3.12422L281.244 3.16026L281.472 3.14024L281.456 3.24837L281.28 3.40857L281.236 3.84911L281.244 3.94523L281.508 4.11744L281.436 4.3257L281.476 4.36175L281.732 4.11344L281.776 3.96526L281.736 3.79705L281.8 3.72896L282.484 3.3525L282.816 3.08417L283.256 2.91596L283.376 2.98805L283.828 2.99606L284.02 2.65164L284.232 2.41935L284.268 2.47141L284.256 2.76778L284.152 2.98004L284.232 3.0281L284.408 2.96402L284.472 2.91196L284.444 2.81584L284.508 2.62761L284.664 2.52348L284.84 2.2191L284.796 2.09895L284.808 1.95478L284.748 1.94276L284.652 2.02686L284.516 2.02286L284.464 1.87468L284.748 1.72649L284.688 1.66642L284.552 1.69846L284.5 1.62236L284.508 1.51423L284.696 1.22187L284.692 1.0817L285.012 0.849411L285.04 0.713243L284.828 0.344789L284.744 0.268695L284.668 0.312749L284.496 0.304739L284.056 0.104492L283.752 0.164566L283.536 0.304739L283.452 0.28071L283.344 0.148547L283.22 0.172576L283.044 0.404863L282.944 0.452922L282.812 0.416878L282.776 0.308744L282.708 0.2727L282.596 0.537026L282.248 0.877446L281.984 0.977569L281.864 0.917495L281.72 0.92951L281.468 1.04565L281.248 1.2419L281.384 1.75453L281.22 2.14701L281.156 2.51146L281.144 2.59156L281.332 2.64363L281.3 2.75576L281.216 2.76778L281.112 2.89594ZM305.148 44.4352L305.316 44.8918L305.412 44.7796L305.452 44.5273L305.532 44.4152L305.612 44.3631L305.744 44.3951L305.856 44.315L305.872 44.1669L305.376 43.9506L305.24 43.8264L305.152 43.8144L305.04 43.9746L304.78 43.9266L304.804 43.8224L304.732 43.7343L304.6 43.7303L304.572 43.9706L304.492 44.0507H304.412L304.384 43.7664L304.212 43.5941L304.244 43.514L304.032 43.478L303.928 43.3859L303.876 43.3018L303.916 43.1897L303.836 43.1015L303.736 43.0975L303.448 43.3338L303.356 43.3619L303.336 43.5381L303.372 43.6462L303.332 43.6943L302.944 43.7303L302.696 43.6502L302.376 43.7103L301.94 43.6262L301.688 43.6943L301.568 43.8024L301.916 43.9906L302.068 44.0107L302.384 43.9466L302.976 44.1789L303.468 44.251L303.564 44.3511L303.616 44.5794L303.924 44.6234L303.992 44.4993L304.124 44.4392L304.7 44.7796L304.988 44.7716L305.004 44.6955L304.928 44.6354L305.04 44.4592L305.148 44.4352ZM316.812 34.2987L316.644 34.3748L316.596 34.3227L316.612 34.1946L316.524 33.9823L316.56 33.8702L316.688 33.7901L316.82 33.2574L316.692 32.4764L316.44 32.0038L315.784 31.351L315.116 31.0146L314.848 31.0467L314.32 31.2349L314.168 31.6234L313.876 31.7515L313.524 31.8036L312.748 31.6955L311.86 31.339L311.648 31.311L311.616 31.4512L311.7 31.9238L311.672 32.112L311.284 32.2281L311.02 32.2241L310.608 32.0479L310.972 31.7916L311.244 31.7515L311.32 31.6314L311.5 31.5313L311.284 31.2029L310.832 30.8905L310.14 30.5461L309.628 30.1175L309.456 30.0494L309.52 30.4619L309.508 30.7984L309.472 31.1508L309.352 31.2349L309.3 31.0507L309.304 30.522L309.412 30.2417L309.252 29.9854L308.904 29.709L308.448 29.5688L307.864 29.1643L306.94 28.095L306.788 27.9589L306.592 27.8788L306.396 27.9148L306.172 28.1191L305.992 28.2112L305.872 28.6958L305.832 29.1043L305.6 29.4086L305.464 29.9093L305.336 29.9053L305.216 29.7891L305.34 29.2084L305.54 29.0442L305.676 28.7558L305.596 28.4234L305.628 28.1311L305.856 28.1191L306.192 27.8627L306.108 27.6625L305.7 27.234L305.268 27.0097L304.144 26.2047L302.956 25.5519L302.064 24.9271L301.98 24.9632L302.004 25.2675L302.1 25.4157L302.048 25.7441L301.996 25.7922L301.76 25.1794L301.652 25.0913L301.088 25.0192L300.296 24.7028L300.244 24.6988L300.128 24.8791L299.896 25.0673L298.888 25.3156L298.776 25.4678L298.836 25.5479L299.024 26.1206L298.9 26.3048L298.72 26.3529L298.6 26.3048L298.452 26.5371L298.812 27.1058L298.728 27.23L298.544 27.302L298.496 27.4983L298.4 27.5343L298.34 27.4743L298.236 26.8775L297.992 26.8014L297.804 27.0337L297.48 26.9296L297.516 26.6532L297.34 26.6372L296.94 26.7974L296.768 27.0457L296.532 27.1178L296.308 27.302L296.084 27.3461L295.648 27.3221L295.472 27.5223L295.492 27.3301L295.68 27.1419L295.548 27.1018L295.428 27.1819L295.36 26.8735L295.4 26.7253L295.552 26.6653L295.604 26.5772L295.564 26.453L295.256 26.3849L295.052 26.3929L294.872 26.2447L295.012 26.0525L294.924 26.0245L294.732 26.0845L294.572 25.9564L294.956 25.7802L294.744 25.5559L294.76 25.4758L294.936 25.4718L295.06 25.3516L295.404 25.4598L295.676 25.4638L295.792 25.3997L295.7 25.2836L296.244 25.2876L296.552 25.0913L296.696 25.4958L296.912 25.5439L297.352 25.2595L297.692 25.2275L297.776 25.0953L297.76 24.9552L297.976 24.843L298.412 24.7189L298.568 24.5306L298.264 24.2343L298.1 24.2303L297.98 24.042L298.048 23.6696L298.02 23.6095L297.724 23.6936L297.228 23.3452L297.324 23.1049L297.516 22.9407L297.532 22.7925L297.356 22.6563L296.988 22.1317L296.976 22.0356L297.112 21.8754L297.18 21.627L297.164 21.551L297.084 21.5429L296.82 21.6911L296.648 21.7031L296.576 21.1625L296.408 21.1705L296.168 21.0704L295.956 21.2065L295.94 21.4348L295.864 21.5349L295.7 21.6351L295.572 21.8313L295.228 22.1237L295.016 22.2118L294.78 22.4641L294.904 22.6123L294.752 22.8886L294.436 23.0528L293.92 23.1649L293.592 23.177L293.04 23.1129L292.5 23.1249L292.492 23.3091L292.732 23.6295L292.776 23.8378L292.764 23.9779L292.684 24.1341L292.632 23.6856L292.452 23.6816L292.044 23.7977L291.74 23.7617L291.248 23.6055L290.368 23.8218L289.884 23.6616L288.356 24.0621L288.224 24.1822L288.144 24.3344L287.968 24.3464L287.876 24.3023L288.088 24.034L288.184 23.9739L288.704 23.8618L289.696 23.3492L289.532 23.177L289.48 23.3412L289.436 23.3492L289.384 23.2811L289.348 22.9086L289.38 22.8005L289.496 22.8045L289.536 23.0128L289.604 23.0288L289.704 22.5362L289.804 22.5001L289.904 22.5762L290.02 22.5722L290.424 22.2318V22.1677L290.356 22.1036L290.36 21.7031L290.492 21.4228L290.696 21.2906L290.868 21.2466L290.908 21.1425L290.872 20.9422L290.608 20.4576L290.392 20.5097L290.384 20.4095L290.528 20.2694L290.2 19.933L290.092 19.6286L289.94 19.4363L289.696 19.3042L290.068 18.8276L290.872 18.2989L291.3 18.327L291.684 18.4151L291.756 18.307L291.988 17.6742L292.088 17.2577L292.06 16.9533L291.94 16.6369L291.908 16.3726L291.94 15.8719L292.172 15.6116L292.252 15.2552L290.948 14.2259L290.572 14.0177L290.456 13.8775L290.36 13.8655L290.184 13.9336L290.052 13.9135L289.188 13.465L289.288 13.2287L288.916 12.7801L288.772 12.4157L288.696 11.9431L288.556 12.0512L288.216 12.5759L287.904 13.1926L287.74 13.2047L287.58 13.1326L287.156 13.1966L286.824 13.0284L286.636 12.6079L286.668 12.4718L286.536 12.3876L286.128 12.3196L285.992 12.1313L285.696 12.3316L285.428 12.1073L285.276 12.3035L284.984 12.1874L284.804 11.5746L284.632 11.1942L284.544 10.8217L284.828 10.5814L284.86 10.3812L284.688 10.1529L284.388 10.0007L284.24 9.85653L284.156 9.37593L284.056 9.11561L283.904 9.06355L283.844 8.90735L284.068 8.67507L283.968 8.52288L284.012 8.41074L284.352 8.15843L284.36 8.05831L284.312 8.00224L284.168 7.98622L284.428 7.73391L284.376 7.38147L284.272 7.12115L284.356 6.97697L284.348 6.90488L284.296 6.86083L283.904 6.86483L283.716 6.81677L283.452 6.6726L283.36 6.58849L283.324 6.41628L283.164 6.188L282.976 6.08787L282.728 5.75947L282.404 5.76748L282.316 5.84357L282.428 6.10389L282.392 6.17198L282.228 6.18399L281.892 6.00377L281.448 6.20001L281.216 6.36422L281.168 6.55245L281.216 6.60451L281.452 6.77272L281.632 6.80476L281.424 6.97697L281.292 7.02103L281.104 7.00501L281.072 6.84881L280.876 6.73668L280.788 6.76471L280.748 6.83279L280.712 7.00901L280.824 7.15719L280.772 7.71388L280.956 7.74993L281.152 7.94216L281.168 8.22251L281.068 8.48684L281.216 8.49084L281.204 8.57494L280.932 8.619L280.676 8.73915L280.64 8.81524L280.712 8.91136L280.46 9.38795L280.172 9.56817L280.188 9.74839L279.884 10.0608L279.828 10.1649L279.856 10.2851L279.996 10.4773L279.944 10.7616L279.316 11.1461L279.124 11.3864L278.812 11.4385L278.288 12.1073L277.98 12.1874L277.92 12.4397L277.912 12.7441L277.216 13.0204L276.9 13.0164L276.312 12.7881L276.284 12.644L276.364 11.9071L276.672 11.5827L276.788 11.3984L277.34 10.2891L277.98 9.6723L277.872 9.31986L277.96 8.83126L277.672 8.59096V8.51086L277.976 8.2986L277.54 8.19848L277.168 8.2946L277.044 8.38271L276.864 8.15442L276.824 7.84604L276.92 7.85005L277.208 8.07833L277.272 8.04629L277.348 7.80599L277.464 7.74993H277.572L277.852 7.99423L277.992 7.95818L278.032 7.78597L277.648 7.09712L277.624 6.98098L277.696 6.84881L277.504 6.50839L277.244 6.4283L276.684 5.77549L276.296 5.40704L276.176 5.41104L275.82 6.188V6.53242L275.488 6.63255L275.452 6.73267L275.552 6.96496L275.52 7.12115L275.132 7.81801L274.92 8.01425L274.452 8.17845L274.52 8.60698L274.88 8.74315L274.944 8.87932L274.628 8.97944L274.452 9.41198L274.268 9.54414L274.408 9.80046L274.512 10.233L274.544 10.5694L274.504 10.7136L274.068 11.3544L273.852 11.4785L273.56 11.5586L273.4 11.6828L273.328 11.891L272.92 12.4437L272.856 12.7161L272.252 13.485L272.116 13.5531L272.22 13.6612L272.116 14.0938L272.012 14.298L271.872 14.4582L271.012 15.0589L270.044 15.6797L269.552 15.876L269.528 15.944L269.704 16.0922L269.708 16.2164L269.528 16.3165L269.452 16.1683L269.268 16.2564L269.192 16.3726L269.348 16.6609L269.272 16.9212L269.456 17.1535L269.304 17.3057L269.008 17.3498L268.888 17.3177L268.932 17.1295L268.884 17.0574L268.784 17.0975L268.632 17.3658L268.52 17.4619L267.996 17.6061L267.856 17.7102L267.696 18.0506L267.448 18.2148L267.096 18.5793L266.876 19.12L266.692 19.3763L266.508 19.5365L266.4 19.8168L265.9 20.2493L265.732 20.2734L265.496 20.4015L265.796 20.8741L266.028 20.5537L266.236 20.7139L266.032 21.1785L265.9 21.3267L265.928 21.599L265.896 22.1637L265.72 22.2758L265.536 22.1677L265.252 22.4721L265.08 22.5041L264.88 23.0047L264.868 23.3692L264.82 23.5815L264.736 23.7136L264.904 24.2463L264.82 24.5066L264.664 24.7709L264.66 24.8831L264.32 24.9672L264.224 25.1314L264.22 25.2876L263.668 25.664L263.256 25.8763L262.568 26.1446L262.44 26.457L262.408 27.4182L262.236 28.3994L262.124 28.7318L261.828 29.1163L261.452 29.3646L261.132 29.5008L260.58 29.669L260.308 29.705L259.928 29.701L258.668 29.5408L258.316 29.4607L258.024 29.3125L257.756 29.0722L257.9 28.6317L257.992 28.4955L258.004 28.3513L257.936 28.2032L257.568 28.099L257.3 28.7799L256.996 29.3005L256.796 29.5568L255.952 30.2016L254.812 31.4271L254.528 31.6034L254.192 31.6394L254.04 31.7435L253.96 31.8717L253.948 32.4965L253.808 33.0812L253.7 33.2654L253.484 33.4256L253.488 33.4857L253.896 33.4937L254.04 33.3815L254.116 33.0812L254.348 32.917L254.424 32.929L254.304 33.2854L254.108 33.5177L254.66 33.8862L254.668 33.734L254.812 33.6339L255.02 33.8621L255.032 34.0424L254.888 34.0464L254.92 34.1865L255.684 34.6591L256.008 34.9435L256.24 34.9235L256.348 34.9595L256.424 35.0877L256.808 34.9675L256.916 35.0036L256.86 35.1758L256.852 35.2999L256.892 35.2959L257.1 35.1958L257.432 34.6071L257.616 34.6551L257.644 34.7112L257.496 34.8634L257.472 34.9635L257.532 35.34L257.32 35.364L257.216 35.5282L257.208 35.6524L256.904 36.0008L256.944 36.4133L256.816 37.0861L256.5 37.4305L256.24 37.799L255.924 37.8631L255.556 38.0313L255.324 38.4959L255.736 38.6921L256.1 38.7922L256.396 38.7081L257.06 38.3317L257.876 38.2315L258.052 38.2756L258.164 38.3877L258.216 38.5319L258.268 38.8883L258.248 39.0886L258.44 39.5411L258.524 40.1018L258.736 40.8548L258.72 41.6357L258.652 41.7719L258.492 41.86L258.384 42.0162L257.832 43.3458L257.164 44.0307L257.04 44.3511L257.024 44.5593L257.08 44.7115L257.376 45.1361L257.364 45.5566L257.532 45.881L257.52 46.1373L257.296 46.3215L257.264 46.4457L257.272 46.5298L257.56 46.9783L257.78 47.4829L257.756 47.7593L257.66 48.0837L257.684 48.324L258.028 48.6203L258.64 48.7805L258.892 49.0449L258.968 49.2531L258.976 49.5775L258.576 50.3265L258.424 51.3237L258.648 52.1207L258.788 52.2368L259.044 52.3409L259.12 51.8523L259.4 51.2997L259.504 51.2356L259.74 51.2957L259.82 51.2716L259.936 51.0353L260.264 50.8992L260.492 50.4586L260.576 50.4266L260.84 50.4546L261.032 50.791L261.208 50.803L261.38 50.6989L261.44 50.5828L261.452 50.3144L261.512 50.1663L261.724 50.0301L261.836 49.8419L262.184 49.6256L262.044 49.2291L262.192 48.2559L262.28 48.1237L262.428 48.0917L262.7 48.1317L262.916 48.5162L263.076 48.6684L263.624 48.6884L264.156 48.7805L264.644 49.0969L264.804 49.6857L265.36 50.0181L265.504 49.926L265.828 49.2772L266.012 49.0208L266.496 48.9568L266.672 48.8486L266.76 48.6444L266.788 48.312L266.888 48.1958L268.188 48.36L268.532 48.5683L268.896 48.4361L269.172 48.4401L269.684 48.2038L269.916 48.2118L270.608 48.6444L270.812 49.0208L271.048 49.109L271.104 49.2171L271.136 49.5976L271.18 49.6696L271.316 49.7297L271.668 49.6296L271.812 49.5415L272.016 49.0369L272.312 49.2131L272.604 49.2011L272.784 49.137L272.812 49.0369L272.696 48.7165L272.724 48.5763L272.82 48.376L273.176 48.1197L273.264 47.8995L273.34 47.9315L273.532 48.316L273.644 48.3841L273.884 48.4081L273.98 48.4962L274.076 48.9528L274.208 49.0569L274.624 48.9848L274.856 48.8206L275.14 48.9528H275.608L275.948 48.7485L276.14 48.2679L276.228 48.2439L276.532 48.4882L276.832 48.9247L276.96 48.9568L277.188 48.8526L277.32 48.9247L277.524 49.133H277.66L278.156 48.9848L278.676 48.5723L278.84 48.5242L279.068 48.6764L279.396 48.7004L279.56 48.8967L279.66 48.9488L280.28 48.9207L280.352 48.9728L280.472 49.2531L280.572 49.2852L280.676 49.2291L280.804 48.9528L280.996 48.8526L281.944 49.0569L282.116 49.0329L282.532 48.8606L283.072 49.0369L283.556 48.9808L283.716 48.8486L283.72 48.6724L283.764 48.6284L284.284 48.3921L284.756 48.8687L285.412 49.4213L287.128 50.4786L287.272 50.6909L287.284 50.9713L287.364 51.1274L287.724 51.4398L288.824 51.7482L288.872 51.7202L289.008 51.3758L288.9 50.8551L288.936 50.7229L288.868 50.5908L289.308 50.2303L289.18 50.0902L289.188 49.974L289.092 49.8699L289.024 49.6296L289.08 49.5295L289.068 49.4494L289.208 49.2651L289.756 49.3332L290.068 49.2411L290.192 49.5175L290.308 49.5094L290.348 49.4374L290.416 48.7966L290.332 48.6484L290.212 48.5923L290.116 48.8126L289.936 48.356L289.776 48.0877L289.916 48.0036L290.052 48.0476L290.316 47.9996L290.32 47.9435L289.952 47.8274L289.968 47.7353L290.148 47.6672L290.252 47.7913L290.48 47.5871L290.896 47.4229L291.176 47.5671L291.268 47.7633L291.2 48.0637L291.424 48.312L291.864 48.6564L292.068 48.6444L292.264 48.7085L292.548 49.0168L292.912 49.117L293.116 49.0769L293.26 49.161L293.436 49.4814L294.068 49.7377L294.224 49.93L294.452 50.4746L294.596 50.5427L294.82 50.5507L295.112 50.4146L295.312 50.4025L295.876 50.5948L296.072 50.799L296.36 50.8191L297.656 50.2944L298.004 50.0221L298.476 49.7818L299.224 49.5976L299.436 49.7017L299.568 49.7057L300.008 49.5936L300.18 49.4093L300.388 49.3372L301.06 49.185L301.66 49.161L301.86 48.9608L301.884 48.7245L301.836 48.6804L301.628 48.6964L301.54 48.5723L301.532 48.4802L301.932 48.5803L302.156 48.9167L302.336 48.8286L302.572 48.8366L302.716 49.0689L302.868 49.1049L303.044 49.109L303.428 48.8566L304.244 48.6043L304.624 48.6484L304.916 48.7645L305.312 48.7485L305.228 48.5122L305.216 48.3841L305.26 48.2919L305.356 48.2719L305.332 48.3841L305.384 48.4361L305.472 48.4241L306.032 47.9675L305.856 47.7072L305.712 47.6351L305.688 47.511L306.016 47.523L306.164 47.5991L306.168 47.8514L306.316 47.9035L306.404 47.8514L306.432 47.6832L306.8 47.2867L306.756 47.1666L306.488 46.9062L306.408 46.73L306.292 46.6499L306.008 46.5939L305.98 46.4377L305.824 46.3896L305.78 46.4497L305.82 46.5538L305.628 46.5178L305.664 46.4016L305.996 46.2054L305.964 46.1173L305.5 45.9891L305.172 45.937L305.008 45.9611L304.64 46.4176L304.508 46.6579L304.3 46.6139L304.24 46.4457L304.128 46.3295L303.512 45.945L303.548 45.8569L303.684 45.8129L303.836 45.865L303.908 45.945L304.096 45.881L304.284 45.3603L304.224 45.2482L304.08 45.1441L303.872 45.2362L303.74 45.0439L303.416 44.7235L303.16 44.7396L303.056 44.9839L302.896 45.0439L302.808 44.8837L302.556 44.7436L302.376 44.5553L302.4 44.3391L302.368 44.283L302.104 44.2069L301.956 44.283L301.768 44.311L301.328 44.2189L301.308 43.8505L301.052 43.7584L300.76 43.7904L300.696 43.7543L300.536 43.3659L300.068 43.0375L299.96 42.7291L299.608 42.1924L299.568 41.5957L299.464 41.3914L299.172 41.2072L299.084 41.003L299.116 40.9188L299.052 40.8828L298.524 40.8668L298.5 40.4783L298.416 40.3501L298.424 40.258L298.764 40.1539L298.924 40.254L299.024 39.9977L299.048 39.7374L299.516 39.5652L299.536 39.4851L299.388 39.4611L299.364 39.389L299.484 39.2448L299.704 39.0405L300.18 38.7922L300.452 38.7642L300.944 38.9004L300.996 38.7642L300.992 38.62L301.12 38.592L301.172 38.7802L301.108 38.8964L301.296 38.9364L301.396 38.4598L301.5 38.2235L301.68 37.9952L301.8 37.9472L302.144 38.0113L302.7 37.9752L303.112 38.1554L303.368 38.2075L303.548 38.3437L303.676 38.5319L303.572 38.8803L303.672 39.1046L303.948 39.381L303.996 39.5492L304.72 39.5532L304.9 39.429L305.288 38.9324L305.472 39.0485L305.788 39.0726L306.2 39.2087L307.204 39.381L307.356 39.3729L307.596 39.1687L308 39.0766L308.06 39.1807L308.412 39.1447L308.608 39.0686L309.392 38.5639L309.928 38.4037L310.312 38.3997L310.82 37.9472L311.188 37.803L311.696 37.6388L314 37.0701L315.288 36.5495L316.104 35.9007L316.312 35.6844L316.86 34.9555L316.832 34.8674L316.896 34.5109L316.812 34.2987ZM290.296 49.8338L290.008 49.8779L289.52 49.4814L289.312 49.4133L289.228 49.4654L289.276 49.4133L289.224 49.2852L289.092 49.4173L289.04 49.5976L289.092 49.7057L289.084 49.8258L289.188 49.9179L289.184 50.0581L289.304 50.1983L289.428 50.2303L289.724 50.4987L290.216 50.7069L290.476 50.4466L290.772 50.2944L290.712 49.9981L290.636 49.9179L290.296 49.8338ZM308.228 46.7861L308.352 46.8782L308.276 47.1185L308.236 47.0945V46.9503L308.028 46.9022L307.988 46.7741L307.936 46.7781L307.916 46.8382L307.748 46.746L307.6 46.7861L307.532 46.6659L307.424 46.6099L307.444 46.5418L307.396 46.4617L307.26 46.4697L307.256 46.3896L306.9 46.4577L306.6 46.3215L306.536 46.3415L306.704 46.5057L306.504 46.5538L306.528 46.678L306.68 46.8221L306.692 46.9102L306.972 47.0905L306.96 47.1986L307.008 47.2386L306.78 47.5831L306.792 47.6832L306.892 47.7072L307.04 47.6271L307.092 47.539L307.26 47.515L307.464 47.2947L308.048 47.3628L308.112 47.2867L308.348 47.2587L308.58 47.0304L308.424 47.0064L308.396 46.8542L308.228 46.7861Z" fill="#E2E8F0"/>
<path d="M175.197 92.3702L175.569 92.4824L175.681 92.6866L175.777 93.0631L175.913 93.2553L175.869 93.5877L175.801 93.6959L175.705 93.7239L175.325 93.4596L175.181 93.4476L174.945 93.792L174.897 93.9161L174.921 94.0363L175.029 94.1404L175.137 94.1484L175.201 94.0924L175.273 93.8801L175.389 93.812L175.449 93.8801L175.341 94.0483L175.345 94.1685L175.429 94.2205L175.617 94.2285L175.641 94.3367L175.281 94.3967L175.185 94.2646L175.105 94.2486L174.957 94.3527L174.853 94.3166L174.677 94.4208L174.605 94.3607L174.493 94.3487L174.405 94.2205L174.305 94.1845L174.169 93.8961L174.165 93.5918L174.229 93.5237L174.345 93.6678L174.457 93.6158L174.533 93.4436L174.389 93.2954L174.741 93.2553L174.865 93.0831L174.857 92.959L174.713 92.6987L174.721 92.5945L174.921 92.4664L175.197 92.3702ZM171.549 91.1487L171.669 91.1768L171.737 91.2649L171.781 91.1928L171.905 91.2008L171.941 91.381L171.821 91.4771L171.805 91.6293L172.021 91.9177L172.193 92.0098L172.169 92.0899L171.913 92.3783L171.721 92.4503L171.489 92.4624L171.413 92.4183L171.449 92.2661L171.417 92.19L171.285 92.0979L171.309 91.8736L171.237 91.7495L170.745 91.6574L170.649 91.5733L170.641 91.4571L170.765 91.3009L171.549 91.1487ZM175.413 90.524L175.477 90.528L175.609 90.6441L175.781 90.9525L175.569 91.0206L175.341 91.2128L175.209 91.6093L175.281 91.7535L175.237 91.8216L175.045 91.8616L175.021 92.0058L175.101 92.0979L175.293 92.15L174.941 92.2701L174.609 92.5545L174.613 92.8268L174.757 93.0551L174.681 93.1072L174.089 93.2153L173.941 93.3394L173.889 93.3114L173.881 93.1913L173.769 93.1031L173.689 93.0751L173.585 93.1632L173.513 93.1512L173.537 92.951L173.505 92.8989L173.381 92.943L173.197 92.8548L173.121 92.5344L172.977 92.2221L173.193 92.0619L173.333 92.1139L173.413 92.0699L173.425 91.9657L173.341 91.7655L173.345 91.5132L173.577 91.4291L173.893 91.4892L174.081 91.6934L174.281 91.7375L174.169 91.6333L174.229 91.4411L174.417 91.2208L174.461 90.8524L174.729 90.7683L174.885 90.7763L175.021 90.9685L175.229 90.9365L175.409 90.8283L175.309 90.6121L175.413 90.524ZM172.729 89.6189L172.901 89.751L172.757 89.9432L172.769 90.0634L172.889 90.2636L173.033 90.3878L172.997 91.0286L173.301 91.2529L173.305 91.7335L173.405 91.9938L173.365 92.0859L173.173 92.0418L173.077 92.154L172.969 92.198L172.781 91.7735L172.853 91.2729L172.749 91.1247L172.649 91.0726L172.381 91.0766L172.337 90.8724L172.165 90.7362L172.229 90.548L172.385 90.4599L172.445 90.3678L172.397 90.2516L172.449 90.0834L172.581 89.9032L172.553 89.8351L172.593 89.711L172.729 89.6189ZM189.285 83.239L189.329 83.0748L189.597 83.0227L189.593 83.2109L189.861 83.275L189.977 83.4232L189.873 83.5714L189.717 83.6114L189.621 83.4472L189.521 83.4192L189.445 83.4512L189.405 83.5233L189.409 83.7836L189.077 83.8918L188.913 84.048L188.865 84.1922L188.885 84.4685L188.857 84.5566L188.781 84.6127L188.573 84.5406L188.225 84.2723L187.421 84.068L187.081 84.1321L186.845 84.1161L186.385 84.3123L185.981 83.9599L186.109 83.5153L186.361 83.4152L186.721 83.1028L186.873 82.7824L186.949 82.7103L187.021 82.7344L187.189 83.1068L187.401 83.4112L187.709 83.4793L187.977 83.3431L188.053 83.243L188.101 82.9747L188.077 82.3979L187.973 82.0455L187.997 81.9774L188.361 82.0735L188.753 82.3058L188.941 82.474L189.089 82.8465L189.033 83.1629L189.173 83.2991L189.285 83.239ZM187.457 79.4743L187.513 79.4944L187.509 79.5504L187.321 79.8748L187.373 79.9389L187.541 79.7587L188.109 80.031L188.701 80.2112L188.737 80.2913L188.697 80.3754L188.437 80.5837L188.317 80.784L188.349 80.9041L188.561 81.0082L188.597 81.1284L188.313 81.2485L188.277 81.4448L187.885 81.9894V82.6823L187.985 83.2109L187.865 83.3191L187.597 83.3952L187.477 83.3591L187.349 82.9386L187.121 82.6462L186.989 82.5501L186.797 82.5261L186.521 82.7744L186.465 82.6222L186.517 81.8332L186.429 81.2525L186.397 80.6278L186.621 80.1311L186.929 79.7867L187.329 79.5464L187.373 79.4823L187.457 79.4743ZM189.789 74.9768L189.625 74.4041L189.949 74.1838L189.977 74.2279L189.789 74.9768ZM188.829 73.6071L189.001 73.7312L189.333 74.4561L189.617 74.6964L189.681 74.8486L189.573 75.5134L189.641 76.4386L189.629 76.9192L189.533 77.3517L189.577 78.1847L189.537 78.6413L189.833 79.1099L189.969 79.979L190.073 80.1872L190.253 80.3514L190.205 80.5156L190.137 80.5757L190.029 80.5797L189.777 80.4916L189.565 80.5356L189.465 80.6638L189.405 80.86L189.293 80.9281L189.001 80.5717L189.009 80.2273L188.925 80.015L188.709 79.7987L188.305 79.5905L188.277 79.0298L188.441 78.2729L187.965 76.1502L187.957 75.149L188.089 74.5122L188.253 74.1478L188.489 73.7833L188.717 73.6311L188.829 73.6071ZM197.725 72.4777L199.573 72.2054L202.121 71.6367L204.025 71.072L207.729 70.275L208.709 70.1068L208.973 70.1909L209.157 70.1228L209.285 69.9706L209.597 69.8264L210.537 69.5301L211.757 69.2417L213.585 68.8853L214.469 68.6209L215.361 68.1724L215.813 67.872L216.141 67.5957L216.453 67.2072L216.905 66.5224L216.877 66.4422L216.605 66.1499L216.997 65.7934L217.789 65.2568L218.197 64.8723L218.845 63.7549L219.513 63.2503L220.357 62.4533L220.597 62.0729L220.445 61.8125L220.625 61.5482L221.717 60.4509L222.405 59.2934L222.577 58.913L222.517 58.5886L222.709 58.2802L223.185 57.9277L224.633 57.0106L226.517 55.4567L226.905 55.0802L228.001 53.8908L228.341 53.4382L228.909 52.3929L229.525 51.7321L230.637 50.2983L231.013 49.6896L231.265 49.1689L231.381 48.7324L231.261 48.6403L231.221 48.5161L231.589 48.0596L231.801 47.2265L231.825 46.754L231.761 46.2974L231.329 45.0118L231.577 44.7995L233.149 44.9237L233.917 44.9157L234.381 45.0278L234.633 45.164L235.013 45.6566L235.205 45.5925L235.357 45.6366L235.677 45.8448L236.113 46.4095L236.829 47.6511L236.777 48.2959L236.817 48.384L237.109 48.6123L237.157 48.6964L236.957 49.4012L236.977 49.9259L237.093 50.014L237.497 50.1141L237.657 50.0701L237.837 49.9259L237.945 49.9018L238.505 50.0781L238.629 50.034L238.813 49.7777L238.941 49.7376L239.073 49.7777L239.173 49.9018L239.197 50.3063L239.269 50.6147L239.537 51.1914L239.925 51.8322L240.497 51.8963L240.749 52.1566L240.865 52.473L241.221 53.0417L241.609 53.286L242.137 53.3741L242.189 53.5383L241.913 53.8387L241.893 53.9508L242.157 54.0149L242.813 53.8107L243.553 53.3741L243.925 53.0217L244.201 52.6733L244.465 52.2367L244.993 51.8643L245.085 51.7241L245.117 51.616L244.765 51.66L244.737 51.5999L244.789 51.3877L244.993 51.2034L245.597 50.3184L245.769 49.8137L245.721 49.7817L245.337 50.1501L245.201 50.1622L245.165 50.062L245.197 49.8137L245.741 49.197L246.161 48.3559L246.185 47.567L246.085 47.5029L245.553 47.3827L245.377 47.2786L245.265 47.0703L245.173 46.0371L245.201 45.4483L245.037 43.9545L244.973 43.55L244.621 42.9653L244.609 42.6689L244.677 42.3605L244.773 42.2604L244.913 42.2164L245.373 42.1723L245.549 42.0241L245.793 41.4074L246.001 41.2712L246.509 41.139L247.389 41.0149L247.601 40.9027L248.097 39.9656L248.409 39.8094L248.461 40.0897L248.529 40.2019L248.089 40.7225L247.937 41.3193V41.7278L248.025 41.8079L248.109 41.7758L248.193 40.8066L248.345 40.5463L248.429 40.5062L248.485 40.6144L248.421 40.8307L248.429 41.0389L248.593 41.3072L248.857 41.4714L248.865 41.5395L248.649 42.1002L248.805 42.6088L248.753 42.8772L248.745 43.0534L248.869 43.3097L248.901 43.6822L248.961 43.8263L248.973 44.1708L249.045 44.4071L249.253 44.7475L249.781 46.4536L249.717 46.9742L249.849 47.4869L249.781 47.8553L249.837 47.9594L250.025 48.0916H250.265L250.337 48.0516L250.553 48.0275L251.393 48.3319L252.021 48.2838L252.145 48.376L252.229 48.8045L252.729 48.7404L252.937 48.8365L253.053 48.9367L253.141 49.1689L253.289 49.3171L253.477 49.3652L253.581 49.3371L253.817 49.201L254.049 48.9767L254.065 48.6883L253.849 48.444L253.665 48.0876L253.081 47.6471L252.813 47.3507L252.717 47.1705L252.649 46.9462L252.729 46.6699L252.641 46.4376V46.0651L252.525 45.9169L252.569 45.5605L252.517 45.3682L252.769 45.0078L252.781 44.6954L252.841 44.5072L252.769 44.0466L252.449 43.8263L252.333 43.6942L252.437 43.538L252.461 43.2937L252.289 43.1335L252.233 42.9653L252.309 42.6369L252.281 42.3846L252.193 42.2364L251.933 42.0081L251.889 41.8799L251.989 41.3273L251.797 41.083L251.285 40.7425L251.045 40.5343L251.077 40.3541L250.865 40.294L250.641 39.9896L250.573 39.7253L250.465 39.7133L250.385 39.5771L251.209 39.2887L251.297 39.1245L251.253 38.7401L251.461 38.652L251.745 38.6359L251.869 38.692L251.909 38.7641L252.105 39.3248L252.305 39.477L252.841 39.5891L253.241 39.8534L253.473 39.8615L253.885 39.7894L254.177 39.6612L254.377 39.461L254.321 39.3088L254.317 39.1005L254.505 39.0525L254.961 38.5839L255.309 38.5198L255.721 38.716L256.101 38.7921L256.397 38.708L257.061 38.3316L257.877 38.2314L258.053 38.2755L258.165 38.3876L258.217 38.5318L258.269 38.8883L258.249 39.0885L258.441 39.5411L258.525 40.1018L258.737 40.8547L258.721 41.6356L258.653 41.7718L258.493 41.8599L258.385 42.0161L257.833 43.3458L257.165 44.0306L257.041 44.351L257.025 44.5593L257.081 44.7114L257.377 45.136L257.365 45.5565L257.533 45.8809L257.521 46.1372L257.297 46.3214L257.265 46.4456L257.273 46.5297L257.561 46.9782L257.781 47.4829L257.757 47.7592L257.661 48.0836L257.685 48.3239L258.029 48.6203L258.641 48.7805L258.893 49.0448L258.969 49.253L258.977 49.5774L258.577 50.3264L258.425 51.3236L258.649 52.1206L258.789 52.2367L259.045 52.3409L259.141 52.3649L259.013 53.2019L258.593 54.5676L258.329 55.0001L258.061 55.1964L257.801 55.2965L257.373 55.3085L257.237 55.3726L257.205 55.4367L257.281 55.6409L257.485 55.8812L257.989 56.1936L258.105 56.3017L258.141 56.4579L258.053 56.9385L257.649 57.8757L257.529 58.3002L257.409 58.8329L257.381 59.7981L257.529 60.7472L257.881 61.1918L258.005 62.2451L258.497 62.958L258.597 63.2343L258.329 63.7349L258.201 63.795L258.105 63.7589L257.921 63.2183L257.633 63.1342L257.529 63.1702L256.957 64.3036L256.761 65.1206L256.677 65.3129L256.665 66.1339L256.713 66.3982L256.681 66.6545L256.533 66.9989L256.721 67.1872L257.221 67.5196L257.253 67.6598L257.201 67.7919L256.449 68.5048L256.413 68.677L256.457 68.9894L256.429 69.4019L256.297 69.6422L255.873 69.9266L255.293 69.9185L255.077 69.9786L254.889 70.1909L254.813 70.3631L254.521 70.6354L253.537 70.7155L253.321 70.6635L253.197 70.1588L252.733 69.6622L252.513 70.3631L252.125 70.7836L251.545 71.0159L251.265 71.3523L250.885 71.4805L250.833 71.5325L250.693 72.4176L250.377 72.7901L250.033 72.9743L249.793 73.2426L249.761 73.3227L249.989 73.4589L250.337 73.4549L250.437 73.551L250.481 73.6792L250.297 74.0116L250.313 74.4121L250.201 74.5643L249.821 74.7765L249.729 74.8927L249.745 75.2772L249.941 75.8619L249.837 76.2624L249.561 76.4786L249.569 76.6629L249.761 76.8431L249.837 77.0353L249.881 77.0513L250.141 77.0313L250.365 76.8311L250.633 76.735L250.813 76.775L251.153 77.2276L251.433 77.4919L251.477 77.8323L251.873 77.9925L251.921 78.1567L251.889 78.4931L251.713 78.6733L251.185 78.9377L250.657 78.8656L250.185 78.9657L249.801 79.2661L249.637 79.4663L249.481 80.007L249.425 80.035L249.009 79.9709L248.837 79.991L248.501 80.3074L248.349 80.5717L248.121 80.6478L247.905 80.848L247.757 80.8L247.549 80.5797L247.353 80.6278L247.181 80.9081L247.097 81.3206L247.145 81.4888L247.357 81.653L247.345 81.8092L247.269 81.9093L246.941 82.0055L246.673 82.3098L246.509 82.3659L246.077 82.3258L245.045 82.462L244.825 82.5862L244.785 82.8665L244.661 83.1429L244.557 83.7316L244.517 84.1641L244.557 84.4605L244.673 84.6768L244.913 84.7048L245.029 84.8329L245.057 85.0692L244.909 85.2094L244.881 85.2935L244.877 85.7821L245.105 86.2507L245.269 86.2667L245.845 85.9423L246.061 85.9944L246.253 86.1386L246.297 86.3308L245.729 86.8434L245.621 87.0597L245.645 87.3521L246.021 87.6965L246.057 87.8046L245.693 88.133L245.161 88.157L244.813 88.5295L244.689 88.8058L244.537 88.8779L244.377 88.8659L244.105 88.6657L243.909 88.6296L243.717 88.6657L243.517 88.8018L243.577 89.0461L243.545 89.1863L243.109 89.5267L243.141 89.6349L243.301 89.7911L243.361 90.0073L243.289 90.4038L243.417 90.8363L243.305 91.1247L243.325 91.4491L243.277 91.7254L243.157 91.9217L242.837 92.162L242.673 92.6185L242.497 92.8989L241.725 93.3394L241.713 93.6038L241.565 93.9482L241.705 94.3247L241.629 94.6811L241.337 95.0976L241.217 95.3699L240.969 95.6463L240.521 95.5862L239.833 95.0255L239.457 95.0015L238.325 94.2766L238.193 94.2806L238.093 94.3887L238.037 94.573L237.925 94.6891L237.277 94.8773L236.801 95.0776L236.473 95.3299L236.233 95.39L235.829 95.3739L235.705 95.422L235.621 95.4821L235.289 95.9547L235.145 96.0428L234.985 95.8105L234.453 95.4941L234.177 95.1777L234.065 95.1377L233.601 95.2738L233.381 95.1537L233.137 95.1577L232.173 95.442L231.913 95.426L231.697 95.3259L231.525 95.3179L231.025 95.5101L230.909 95.6383L230.817 95.8465L229.437 96.3672L229.001 96.5995L228.921 96.7757L229.061 96.9399L229.085 97.2042L228.857 97.6287L228.745 97.7529L227.697 98.2094L227.093 98.3777L226.405 99.0505L226.129 99.0144L225.873 99.0745L225.749 98.9824V98.63L225.353 98.4177L225.069 97.7369L224.973 97.6728L224.741 97.6447L224.401 97.4045L224.269 97.4125L223.997 97.5286L223.677 97.5326L223.129 97.7369L222.845 97.9972L222.557 98.0292L222.381 97.9131L222.061 97.5246L221.633 97.3444L221.445 96.8678L221.365 96.8077L221.025 96.6475L220.101 96.3672L219.257 96.3031L218.941 96.4473L218.489 96.4913L217.893 96.2911L217.529 95.6943L217.281 95.5021H217.201L216.565 95.8225L215.949 96.0227L215.281 96.0268L215.205 95.9026L215.201 95.6383L215.353 95.3699L216.209 94.9895L216.265 94.9294L216.397 94.3607L216.529 94.1885L216.713 94.0804L216.741 93.9962L216.609 93.6598L216.117 93.5076L215.625 93.2754L215.501 93.3074L215.337 93.4876L215.105 93.4956L214.421 93.4235L214.157 93.2313L213.965 93.1672L213.769 93.1712L213.661 93.2313L213.489 93.4996L213.253 93.6959L213.165 93.9041L212.457 93.8641L212.333 93.6799L211.941 93.5157L211.665 93.6278L211.557 93.6198L211.325 93.5076L210.777 93.6799L210.457 93.6678L210.309 93.6158L210.061 93.4316L209.737 93.5277L209.181 93.4316L207.801 93.3475L207.533 93.2593L207.273 93.3394L206.789 93.6718L206.713 93.764L206.633 94.0123L206.501 94.1444L206.073 94.2125L205.217 94.5009L204.709 94.4648L204.005 95.0255L203.533 95.1937L203.117 95.2418L202.865 95.41L202.789 95.5181L202.709 95.9667L202.761 96.0468L203.129 96.239L203.161 96.3552L202.869 97.1602L202.433 97.5767L202.357 97.7329L202.265 98.0933L202.285 98.4097L202.097 98.662L202.185 98.9704L202.125 99.2627L201.861 99.6352L201.989 99.9556L201.925 100.16L201.697 100.272L201.005 100.268L200.181 100.42L198.897 100.536L198.685 100.62L198.569 100.733L198.393 101.097L198.089 101.353L197.789 101.51L197.585 101.85L197.593 102.11L197.525 102.415L197.457 102.483L197.237 102.531L196.845 102.487L196.337 102.266L196.273 102.302L196.201 102.535H196.109L195.813 102.222L195.329 102.371L195.137 102.367L194.993 102.146L194.181 101.814L193.853 101.95L193.153 102.555L192.949 102.659L192.709 102.635L192.473 102.679L192.497 103.16L192.477 103.252L192.381 103.308L192.029 103.176L191.749 102.443L191.529 102.198L191.197 101.99L190.933 101.978L190.609 102.234L190.429 102.315L190.061 102.359L189.781 102.331L189.601 102.274L189.105 101.95L187.509 101.473L187.225 101.225L186.961 101.309L186.585 101.514L185.693 101.714L184.405 101.81L183.845 102.03L182.373 102.174L181.981 102.122L181.805 102.242L181.701 102.411L181.669 102.667L181.041 103.372L180.605 103.34L180.253 103.432L180.217 103.6L180.365 103.872L180.329 104.017L180.261 104.097L180.149 104.117L179.993 104.033L179.825 103.744L179.669 103.688L179.573 103.764L179.549 104.021L179.489 104.113L179.361 104.141L178.921 104.065L178.445 104.413L178.037 104.513L177.809 104.421L177.741 104.329L177.717 104.105L177.557 104.041L177.465 104.081L177.449 104.437L177.341 104.613L176.509 104.894L175.857 104.649L175.173 104.521L174.473 103.997L174.313 103.768L174.309 103.692L174.393 103.6L174.385 103.484L174.253 103.412L173.889 103.36L173.853 102.935L173.793 102.795L173.661 102.671L173.449 102.663L173.153 102.799L172.901 102.723L172.737 102.595L171.857 102.639L171.753 102.607L171.717 102.527L171.785 102.311L171.793 101.81L171.525 101.722L171.249 101.237L171.245 100.933L171.185 100.773L171.037 100.684L170.737 100.705L170.665 100.664L170.613 100.492L170.637 100.124L170.409 99.7594L170.297 99.6472L169.721 99.3789L169.169 99.435L168.865 99.3949L168.645 99.1426L167.977 99.2788L167.993 99.1106L168.293 98.8422L168.361 98.7261L168.301 98.4097L168.229 98.3096L167.645 98.0493L167.373 97.837L167.045 97.845L166.965 97.7769L166.661 96.7557L166.65 96.243L166.301 95.8986L166.081 95.8025L164.958 95.8425L164.574 95.7624L164.53 95.2298L164.67 94.8293L164.55 94.8213L164.277 95.0856L164.213 95.1096L164.094 95.0375L163.778 94.5009L162.354 93.0711L162.242 92.8148L161.918 92.6987L161.694 92.3783L161.894 90.8203L162.158 90.2556V90.0354L162.014 89.8792L161.63 89.743L161.158 89.6949L160.85 89.5668L160.734 89.4146L160.554 88.9821L160.45 88.91L160.174 88.8699L160.102 88.7858L160.09 88.5295L159.982 88.3813L159.854 87.7886L159.922 87.7005L160.066 87.6524L160.246 87.7325L160.374 87.6684L160.498 87.5122L160.674 87.0196L161.158 86.7273L161.386 86.3668L161.538 86.0665L161.614 85.69L161.678 85.8182L161.782 85.9023L161.714 85.9343L161.722 86.1426L161.618 86.3869L161.706 86.5431L161.886 86.6552L161.942 86.7593L161.79 86.7313L161.686 86.8034L161.69 87.2079L161.622 87.32L161.674 87.8767L161.782 88.093L162.23 88.5015L162.186 88.7538L162.31 88.8619L162.866 89.1503L163.682 89.4346L163.762 89.6589L163.994 89.9032L164.042 89.8872L164.022 89.7831L163.882 89.5988L164.782 89.9312L164.926 90.1916L165.417 90.4799L165.25 90.8404L165.501 91.0006L165.91 91.1407L166.105 91.325L166.053 91.377L165.893 91.2689L165.769 91.2649L165.617 91.3209L165.622 91.377L165.81 91.353L165.91 91.4691L166.105 91.5693L166.326 91.5572L166.489 91.4731L166.526 91.345L166.657 91.3129L166.926 91.4371L166.897 91.5172L166.945 91.6894L167.225 91.4371L167.425 91.365L169.273 91.361L170.509 91.2328L170.581 91.325L170.545 91.6093L170.813 91.7575L171.153 91.7895L171.249 91.8656L171.245 92.0979L171.277 92.174L171.421 92.2541L171.381 92.4223L171.517 92.6546L171.693 92.5985L172.013 92.3863L172.273 92.1099L172.221 91.7575L172.105 91.6413L172.073 91.5412L172.301 91.4251L172.361 91.2809L172.637 91.1207L172.721 91.1447L172.841 91.2889L172.745 91.8096L173.089 92.5545L173.189 92.8749L173.377 92.967L173.517 92.947V93.1792L173.621 93.1953L173.697 93.1272L173.857 93.1752L173.881 93.2914L173.837 93.4396L173.665 93.5317L173.757 93.6678L173.889 93.6718L173.961 93.6078L174.041 93.3675L174.145 93.2874L174.493 93.4035L174.517 93.4556L174.397 93.6158L174.257 93.4876L174.157 93.5637L174.185 93.9762L174.277 94.1645L174.405 94.2125L174.505 94.3447L174.685 94.4208L174.873 94.3206L174.961 94.3647L175.153 94.2486L175.325 94.4168L175.409 94.3687L175.609 94.3927L175.685 94.3407L175.689 94.2365L175.641 94.1885L175.385 94.1364L175.501 93.8881L175.453 93.772L175.381 93.756L175.245 93.8401L175.129 94.1084L175.049 94.0844L174.969 93.9922L174.985 93.8481L175.249 93.4916H175.309L175.633 93.7519L175.845 93.756L175.965 93.5998L176.053 93.1672L176.457 92.979L176.861 92.9269L177.169 92.987L178.173 93.4676L178.641 93.6398L179.009 93.7159L179.121 93.796L179.313 94.3086L179.305 94.6771L179.245 94.8293L178.721 95.0736L178.325 95.3419L177.817 95.5382L177.717 95.6543L177.677 95.9707L177.741 96.0948L177.957 96.259L178.137 96.231L178.461 95.9707L178.689 95.8626L179.041 96.0027L179.329 96.235L179.397 96.199L179.313 96.0628L179.081 95.9146L178.709 95.7704L178.501 95.8145L178.145 96.1029L177.973 96.1629L177.837 96.0067L177.793 95.7744L177.909 95.6583L178.365 95.5341L179.109 95.2057L179.465 94.9695L179.637 94.621L179.717 94.0363L179.677 93.5837L179.745 93.4596L179.885 93.4275L180.009 93.2834L180.253 93.2874L181.169 93.7399L181.429 93.9322L182.489 94.1765L183.109 94.5569L183.373 94.7492L183.557 94.9534L183.837 95.4861L184.033 95.7264L184.333 95.9947L184.549 96.1149L185.061 96.199L185.441 96.3151L185.917 96.6675L186.209 96.7877L186.601 96.6235L186.989 96.2791L187.533 96.219L187.665 96.2831L187.729 96.3752L187.901 96.9239L187.989 97.068L188.481 97.3123L188.641 97.3244L188.689 97.2803V97.1682L188.497 96.9639L188.425 96.7637L188.413 96.3111L188.221 96.1349L187.673 95.8906L187.341 95.8626L186.729 96.0067L186.253 96.3351L185.613 95.8385L184.717 95.5301L184.509 95.378L184.397 95.2218L184.309 94.8293L184.049 94.3967L183.677 94.1524L183.553 94.1324L183.441 94.1965L183.377 94.1524L183.461 93.8721L183.377 93.3675L183.469 93.2353L183.745 92.0979L183.913 91.8536L184.117 91.6654L184.689 91.7094L185.097 91.5572L185.501 91.6574L185.729 91.6614L185.793 91.7134L185.809 91.9978L185.917 92.2901L186.205 92.4864L186.437 92.4704L186.821 92.2901L186.905 92.3262L187.057 92.5465L187.277 92.6626L187.765 92.6145L187.877 92.6666L188.041 92.5905L187.917 92.4984L187.713 92.4303L187.289 92.4543L187.073 92.198L186.857 92.0899H186.673L186.305 92.2982L186.165 92.2581L186.045 92.0579L186.065 91.6894L185.981 91.4691L185.861 91.365L185.469 91.2969L185.245 90.9925L185.225 90.7803L184.861 90.4038L184.969 90.1715L185.133 89.9913L185.529 89.8752L185.665 89.6829L185.737 89.4306L185.665 89.3826L185.373 89.8071L185.173 89.8271L185.117 89.6309L185.137 89.3786L185.309 88.926L186.193 87.2319L186.241 87.0797L186.193 86.9756L186.245 86.6552L186.365 86.2907L186.633 85.7341L186.869 84.9531L187.217 85.2895L187.561 85.4257L187.837 85.4417L188.045 85.3256L188.217 85.3816L188.369 85.5699L188.601 85.5338L188.813 85.3896L188.829 85.2294L189.101 84.9851L189.073 84.7328L189.141 84.6287L189.241 84.0039H189.365L189.637 84.1962L189.853 84.1801L190.149 84.0239L190.549 84.2602L190.621 84.1681L190.377 84.072L190.149 83.9038H189.973L189.637 84.076L189.477 83.8637L189.533 83.7596L189.537 83.5113L189.565 83.4793L189.781 83.6875L189.989 83.7877L190.069 83.7316L190.105 83.5674L190.037 83.3751L189.921 83.235L189.669 83.1469L189.713 82.9987L189.677 82.9626L189.361 83.0147L189.301 83.2109H189.209L189.137 83.1108L189.197 82.8104L189.065 82.438L188.825 82.1817L188.433 81.8813L188.357 81.7091L188.385 81.601L188.733 81.1284L188.705 80.9481L188.461 80.7479L188.557 80.6438L188.781 80.5396L189.197 81.0683L189.445 81.0803L189.541 81.0242L189.753 80.6278L190.161 80.7079L190.333 80.6358L190.589 80.4235L190.913 80.6558L191.209 80.7559L191.401 80.9602L191.457 80.9682L191.377 80.7279L191.241 80.5877L190.941 80.3634L190.541 80.1552L190.197 79.8148L190.133 79.6626L190.157 79.1579L190.105 79.0298L189.813 78.6653L189.897 78.5892L190.157 78.6012L190.421 78.6653L190.825 78.8616L191.045 78.8976L191.329 78.8135L191.577 78.6053L191.637 78.6773L191.649 78.9737L191.717 79.1419L192.277 79.5184L192.505 79.4423L192.553 79.3702L192.585 79.1259L192.653 79.0418L192.821 79.2621L192.953 79.3542L193.149 79.4263L193.237 79.2861L192.945 79.222L192.825 78.9537L192.633 78.9136L192.521 78.9777L192.405 79.3582L192.353 79.4183L192.289 79.4143L192.069 79.182L191.833 79.0218L191.817 78.6373L191.713 78.4931L191.465 78.4531L191.165 78.6573L190.997 78.6693L190.409 78.3449L189.937 77.9645L189.901 77.8884L189.933 77.4839L190.281 76.3745L190.405 75.7858L190.453 75.2852L190.725 75.1009L191.161 74.9487L191.309 74.6083L191.425 74.5282L192.305 74.1878L193.161 73.7352L193.341 73.551L193.477 73.1746L193.761 72.8462H193.989L194.129 73.1585L194.773 73.4709L195.465 73.6992L195.521 73.5991L194.453 73.0544L194.573 72.9703L194.953 72.8662L196.701 72.5218L197.445 72.4096L197.725 72.4777Z" fill="#E2E8F0"/>
<path d="M249.869 34.631L249.981 34.6029L250.041 34.639L250.081 34.7551L249.913 34.8072L249.833 34.675L249.713 34.5989L249.761 34.5468L249.869 34.631ZM253.269 33.9021L253.241 33.9821L253.141 33.9261L252.993 33.9181L252.925 33.85L253.077 33.6778L253.237 33.7098L253.269 33.9021ZM251.861 32.0398L251.949 32.1359L251.933 32.1959H251.857L251.757 32.4002L251.773 32.7006L251.869 32.8087L251.925 33.1411L252.145 33.3734L252.189 33.5616L252.297 33.6938L252.225 33.8099L252.069 33.886L251.929 33.9061L251.809 33.83L251.741 33.862L251.781 33.9141L251.777 34.0863L251.949 34.1624L251.869 34.2945V34.3947L251.825 34.4107L251.745 34.2985L251.609 34.2665L251.573 34.2104L251.605 34.1784L251.449 33.886L251.257 33.854L251.209 33.7939L251.149 33.854L250.957 33.894L250.881 34.0582L250.801 34.1343L250.705 34.1183L250.609 34.2945L250.381 34.3146L250.373 34.1944L250.513 33.9902L250.553 33.834L250.573 33.5536L250.833 33.037L250.941 32.9248V32.8608L251.133 32.5684L251.565 32.0878L251.673 32.0918L251.841 32.0117L251.861 32.0398Z" fill="#E2E8F0"/>
</svg>
