<svg width="315" height="195" viewBox="0 0 315 195" fill="none" xmlns="http://www.w3.org/2000/svg">
<path d="M169.638 30.4409L170.102 30.6058L170.857 30.806L171.424 31.4302L172.152 31.9563L172.581 32.5805L172.876 33.1183L172.912 33.6209L173.301 34.2294L174.104 35.0302L174.604 35.5013L175.162 35.7761L175.658 36.1648L176.319 36.3689L176.681 36.4003L176.811 36.6948L177.173 36.8597L177.618 36.895L177.882 36.4003L178.444 35.8743H178.842L179.633 35.9057L180.16 36.0352L181.053 36.628L181.679 37.0245L182.316 37.2405L182.938 37.425L183.69 37.6095L184.788 37.6213L185.559 37.794L186.055 37.8293L186.492 38.0727L186.838 38.3829L187.243 38.7401L187.66 38.9953L188.282 39.5214L188.164 39.6352L187.534 40.5931L186.137 42.7209L184.996 43.565L183.78 44.1539L182.785 44.8173L182.194 45.5161L182.049 47.428L181.789 47.8677L181.529 48.4919L181.372 49.2143L181.305 49.5205L180.349 51.028L179.353 51.4323L178.397 51.9113L178.362 54.3375L177.846 55.0363L177.22 55.366L177.169 56.0256L176.485 57.1758L175.737 58.5185L175.363 59.9357L174.989 61.5767L174.466 63.5906L173.793 65.3023L173.069 66.539L171.7 66.4565L169.897 66.1189L168.603 65.8951L167.194 65.7813L165.899 66.3976L164.888 68.0229L164.211 69.766L163.593 72.1804L162.582 73.9745L161.512 75.7175L161.457 78.022L162.303 78.9171L163.09 80.6013L163.483 82.1167L163.538 83.2983L162.806 84.0285L160.78 84.1424L159.485 84.6998V86.1603L161.118 86.2152L163.145 86.5528L164.609 86.8905L164.892 88.0132L164.947 89.7563L165.679 91.5504L166.576 93.0658L167.253 93.4034L169.055 93.9648L170.35 94.5262L171.361 96.0416L173.049 97.2193L173.274 99.1312L173.946 100.144L173.797 100.674L173.608 101.326L172.652 101.718L172.089 102.056L171.582 102.955L170.118 104.133L169.724 105.479L169.893 106.041L170.287 106.716L170.566 107.332L170.846 108.4L170.649 108.824L170.684 109.119L170.739 109.727L170.661 110.155L170.448 110.767L170.153 111.329L169.563 111.871L168.862 112.416L168.445 112.66L168.142 112.84L168.087 113.072L167.808 113.696L167.343 113.947L166.674 114.681L166.029 115.302L165.899 116.087L165.746 117.367L165.887 118.552L166.076 119.404L166.403 120.456L166.375 121.151L166.348 122.031L165.466 122.27L164.825 122.25L163.888 122.223L162.873 122.168L162.07 122.035L161.295 122.089L159.879 121.983L159.505 123.318L159.312 123.738L159.182 124.681L159.103 125.265L159.206 126.581L159.461 126.812L159.957 128.061L160.76 128.139L161.209 127.091L161.885 126.082L162.389 125.128L162.735 124.567L162.869 123.848L163.456 123.821L164.231 123.876L164.794 124.088L165.301 124.382L166.112 124.61L167.395 125.179L168.725 126.031L169.724 126.93L170.676 128.021L171.153 128.685L171.058 129.443L164.369 134.691H163.621L163.027 134.507L162.09 134.224L161.059 133.851L160.76 133.6L160.492 133.494L160.52 133.121L160.76 132.96V132.56L160.414 132.348L159.808 132.403L159.69 132.328L159.158 132.045L158.596 131.888L158.033 131.637L157.037 132.434L157.112 132.823L157.124 138.904L156.695 139.249L156.774 139.756L157.498 140.513L157.277 140.67L156.935 140.36L156.372 139.705L155.715 139.018L155.094 138.397L154.373 137.589L153.622 136.902L153.185 136.933L152.937 137.153L152.705 137.663L152.28 138.052L152.843 138.692L153.295 139.253L153.669 139.732L153.724 140.133H153.457L152.343 138.865L151.749 138.401L151.186 138.028L150.863 137.522L150.462 137.121L150.116 136.855L149.695 136.395L148.164 136.297L144.426 136.25L144.162 136.442L143.473 136.819L142.663 137.286L141.195 138.189L140.534 138.649L139.951 138.743L139.259 139.155H136.075L135.981 138.688L135.635 138.656L135.387 138.472L134.82 138.421L134.706 138.668L134.482 138.621L134.47 138.397L134.93 138.06L134.096 137.51L133.927 137.993L133.474 138.656L133.077 138.503L132.608 138.068L132.235 137.695L132.396 137.42L132.892 136.87L132.463 136.584L132.156 136.556L131.487 136.23L130.515 135.41L129.842 134.142L129.468 132.948L129.767 131.755L130.665 130.487L131.412 129.741L132.608 128.697L132.459 127.354L131.861 126.459L130.066 126.534L128.496 126.459L127.375 126.011L125.73 125.937L124.833 126.534L123.188 126.011L121.543 124.598L120.87 123.33L120.571 121.171L120.272 119.231L119.973 117.889L119.45 116.546L118.403 115.8L117.805 114.234L118.328 113.04L119.076 111.698L119.3 110.359L120.205 111.058L120.972 111.729L121.551 112.306L122.224 112.212L122.511 110.869L122.704 110.104L122.991 109.048V107.992L122.897 106.936L123.184 105.88L124.144 104.345L125.203 102.81L126.068 101.852L126.741 100.988L127.607 100.796L128.858 100.317L129.818 99.0684V97.9181L130.299 96.3831L130.106 94.9423L130.586 93.9844L131.452 93.4073L132.124 92.5437L131.932 91.2952L130.971 91.1029H129.818L128.567 90.3373L127.029 88.7081L125.49 87.3655L124.53 86.3094L122.991 85.2534L122.605 83.6242L123.184 81.8968L124.337 80.456L125.49 79.7847L126.45 78.4421L126.93 76.8129L128.949 75.0855L130.487 73.9352L131.739 72.9773L132.51 71.1557L133.277 68.8552L134.383 67.0768L134.954 64.7998L134.336 63.7712L133.663 62.9076L133.277 61.5649L132.99 59.8376L133.183 57.6312V55.0402L132.605 52.7397L131.452 51.2046L130.491 49.4773L130.011 48.6136L130.684 47.7499L132.223 47.4633L133.954 47.271L135.3 46.2149L136.646 44.3933L137.799 42.0928L138.759 39.6941L139.337 37.7744L140.01 35.5681L141.163 34.0331L142.702 33.3617L145.201 33.6483L146.354 34.1273L147.605 35.4699L148.372 36.7183L149.624 38.1591L151.45 38.3515L153.083 37.4878L155.05 37.4407L155.656 37.1659L156.483 36.8322L157.034 36.7772L157.655 36.7851L157.47 37.2994L157.321 37.7037L156.99 38.2573L156.435 39.066L155.845 39.5803L154.885 40.4282L153.889 40.9425L153.26 41.1624L152.374 41.7159L151.009 42.0457L149.643 42.56L148.534 42.7798L147.322 43.0389L145.618 43.2234L145.028 43.6671L144.327 44.0008L144.142 44.8487L143.402 45.3277L143.143 45.7713L143.473 46.4348L143.694 46.949L143.729 47.6871L143.804 48.0561L144.134 48.2406L144.579 48.0561L145.177 47.4044L145.634 46.8666L146.216 46.0186L146.507 45.0254L146.724 44.5582H147.664L149.88 44.6328L152.134 44.4483L153.354 43.934L154.165 43.2705L154.314 43.2077L155.585 42.666L156.955 42.3794L157.47 41.7552L158.383 41.4254L158.745 40.9818L159.186 40.2987L159.489 39.7883L159.938 39.4075L160.233 39.1445L160.685 38.5792L161.268 38.0531L161.46 37.4446L161.543 36.5888L161.791 35.9253L162.153 35.4542L162.625 34.9282L163.097 34.6808L163.318 34.5709V34.0998L163.735 33.4089L164.152 32.235L164.845 31.4616L165.207 31.2968L165.884 31.073L166.116 30.9474H166.612L166.631 30.912L166.95 30.6883L167.564 30.5666L168.024 30.5037L168.693 30.5783L169.213 30.4017L169.638 30.4409ZM188.007 36.1216L187.554 36.5103L187.294 36.5417L186.972 36.3807L186.322 36.3493L185.35 36.416L184.052 36.2865L182.95 36.1255L182.269 35.835L181.62 35.4464L181.167 35.1559L180.42 34.9949L179.739 34.8025L179.672 34.5434L179.932 34.0566L180.514 33.6366L180.967 33.0555L181.549 32.1487L182.261 31.4028L182.879 30.4331L183.497 30.4017L184.048 30.7589L185.28 31.4695L186.059 31.921L186.869 32.4706L187.81 33.0869L188.392 33.5737L188.715 34.1234L188.648 34.4806L188.451 34.8379L188.321 35.4856L188.007 36.1216ZM179.054 33.7583L178.436 34.4688L176.457 34.4374L175.776 33.986L174.934 33.3382L174.316 32.659L173.927 32.1722L173.636 31.6854L173.116 31.2968L172.274 30.6804L171.105 29.7421L170.326 29.2907L169.937 29.0316L169.968 28.321L170.358 27.7046L171.298 27.155L172.369 26.2795L173.081 25.8281L173.632 25.569L175.544 25.4708L176.355 25.8595L178.267 26.8959L179.79 28.0305L181.411 29.1297L181.769 29.4516L181.738 29.9031L180.439 31.7482L179.597 32.8161L179.054 33.7583Z" fill="#E2E8F0"/>
<path d="M209.712 43.3019L210.208 43.7141L210.731 44.1145L210.924 44.566L210.963 45.1156L210.881 45.4297L210.511 45.5278L210.098 45.4061L209.905 45.0057L209.507 44.672L208.945 44.1106L208.626 43.9261L208.162 43.6631L207.666 43.3804H207.323L207.032 43.6984L206.867 44.0871L206.662 44.0831L206.399 43.9183L206.497 43.5335L206.733 43.2587L206.761 42.874L206.647 42.3204L206.107 41.9004L205.222 41.2094L204.683 41.0053L204.301 40.5617L204.175 39.9021L203.955 39.4075L203.719 39.1876L203.416 38.693L202.944 38.426L202.688 38.1826L202.22 38.0727L202.058 37.6683L201.736 37.37L201.244 37.0873L200.815 36.6947L200.661 36.31L200.689 35.9135L201.118 35.7643L201.488 35.8036L201.846 36.1058L202.259 36.4356L202.672 37.0009L202.893 37.6055L203.306 37.8097L204.148 38.1551L204.577 38.3357L205.128 38.6262L205.525 39.0659L206.17 39.6469L206.776 40.4164L207.272 41.021L207.894 41.6138L208.374 42.1084L209.051 42.7837L209.712 43.3019ZM199.178 36.3689L199.343 37.2286L199.28 37.8882L199.115 38.5124V39.1052L199.312 39.5998L200.311 40.067L201.956 41.5588L204.27 43.7966L205.69 44.8369L207.634 46.1795L207.186 47.2199L205.092 48.4879L205.242 49.383L205.761 50.0111L206.737 49.3084L208.606 48.2642L209.877 47.6674L211.148 47.5182L212.195 48.2642L213.167 49.2338L214.064 50.6471L214.812 52.2881L215.709 53.7799L216.831 54.2275L218.251 54.8988L219.506 56.1197L220.069 56.7125L220.797 57.27L221.49 57.3014L222.052 57.7961L222.548 57.9924L222.91 58.3221L223.375 58.6166L223.969 58.648L224.697 59.0445L225.456 59.0131L226.019 59.178L226.247 59.7708L226.149 60.234L226.578 60.4617L226.609 60.1673L226.908 59.5431H227.302H227.664L227.927 59.9356L228.356 59.704L228.652 59.6059L229.08 59.8375L229.675 59.9356H230.599L231.028 59.5745L231.689 59.4763L232.284 59.3114L232.811 59.1466L233.307 59.0484L233.901 59.2486L234.495 59.708L234.877 59.8139L235.53 59.9082L235.723 59.1976V58.6283L235.987 58.012L236.514 57.8353L236.73 57.4585L237.128 57.1836L237.309 58.3614L237.683 59.4803L238.58 60.5991L239.776 61.6434L240.673 62.1655L241.122 63.4336L240.823 64.8508L239.627 65.4475L239.103 66.0442L238.206 67.5361L236.785 68.9533L235.963 69.923L234.916 70.7435L233.57 71.7877L232.972 72.1607L233.197 73.2796L233.869 74.0255L234.318 75.5919L234.468 77.2329L234.318 78.9485L232.972 79.4706L230.804 79.9181L229.683 80.4403L228.412 81.3354L227.066 82.6034L225.795 83.5731L224.449 84.7665L222.804 85.2141H221.608L220.711 84.3936L219.589 83.6477L218.318 83.7223L215.63 83.946L213.537 84.1698L211.967 83.7969L210.546 83.4985L209.2 83.3493L208.791 84.5153L209.405 84.6959L210.393 84.7901L210.377 85.0688L210.542 85.7048L211.03 85.7794L211.192 86.5881L211.766 86.6235L212.136 86.9218L212.695 87.55L212.774 88.1506L212.998 88.3312L213.01 88.8023L212.415 89.5443L211.294 89.8426H209.5L208.378 90.514L207.257 91.4836L206.285 91.782L205.462 91.9312L204.565 92.9009L205.088 94.0197L204.341 94.6165L203.518 95.8099L204.266 96.6304L204.939 97.0779V98.1968L204.789 98.9427L204.191 99.5395L202.023 99.4649L200.004 99.6886L197.761 99.987L195.668 100.285L194.471 100.136L193.799 99.2411L193.35 97.8239L194.098 96.6304L194.172 95.437L192.901 94.6165L192.378 93.423L191.481 92.0804L189.686 90.3648L188.116 89.0967L186.696 87.3811L185.126 86.7844L184.079 85.8147L183.256 84.8451L183.481 83.577L183.107 81.936L182.359 81.1155L179.742 80.9663L178.471 80.5188L177.275 80.0712L175.929 79.7729L174.957 78.5048L174.509 77.6097L174.434 76.1179L173.537 74.9991L172.191 74.0294L171.443 72.6122V70.3705L171.967 68.7295L172.714 67.0885L173.037 66.535L173.761 65.2983L174.434 63.5867L174.957 61.5727L175.331 59.9317L175.705 58.5145L176.453 57.1719L177.137 56.0216L177.189 55.3621L177.814 55.0323L178.33 54.3335L178.365 51.9073L179.321 51.4284L180.317 51.024L181.273 49.5165L181.494 48.4879L181.753 47.8637L182.013 47.424L182.159 45.5121L182.749 44.8133L183.744 44.1499L184.96 43.561L186.102 42.7169L188.128 39.6312L188.246 39.5174L188.687 39.117L188.84 38.426L190.037 37.8293L191.831 37.2757L192.24 36.8635L192.933 36.8949L193.015 36.3807L193.33 36.0705L193.893 35.937L193.751 35.2736L194.129 34.8888L194.46 34.5551L194.755 34.2529L194.877 33.6483L195.215 33.2949H195.613L196.691 33.2243L197.01 32.9141L197.328 32.604L197.793 32.5059L198.288 32.7375L198.584 33.0005L198.615 33.5619L198.383 33.8917L198.119 34.1233L198.084 34.5512L198.513 34.5826L198.643 34.881L198.772 35.3403L199.072 35.7015L199.178 36.3689Z" fill="#E2E8F0"/>
<path d="M162.059 13.9288H162.445L162.85 14.3332L163 14.7768L163.259 15.1066L163.554 15.401L163.885 15.5856L164.035 15.6955L164.44 16.0292L164.625 16.5827L164.735 17.1716L164.955 17.5014L165.215 17.9057L165.62 18.2002L165.841 18.4946L165.951 18.8244L166.321 19.0442L166.651 19.5232L166.687 20.222L166.946 20.591L167.131 20.9208L167.206 21.3644L166.911 21.6235L166.396 21.4743L166.211 21.0699L165.99 20.8854L165.805 20.4811L165.546 20.1866L165.176 19.7077L164.881 19.4132L164.585 19.0442L164.29 18.6398L164.031 18.4553L163.92 17.9764L163.625 17.6074L163.476 17.2383L163.551 16.7947L163.7 16.5749L163.551 16.1705L163.291 15.9114L163.106 15.6523L163.181 15.3932L162.96 15.2087L162.59 14.9888L162.48 14.5099L162.516 14.1801L162.059 13.9288ZM162.059 13.9288H162L161.925 13.8543L162.059 13.9288ZM136.186 2.2652L135.706 2.77949L135.446 3.33303L135.151 3.9965L135.631 4.55004L136.111 4.33019L136.591 4.00042L136.851 3.5568L137.331 2.89334L137.457 2.8266L137.776 2.70882L138.146 2.78341L138.185 3.14852L138.22 3.2977L138.331 3.77665L138.48 4.10642L138.85 4.2556V4.33019L138.842 4.34982L138.846 4.46367L138.85 4.45582V4.66389L138.63 4.99366L138.26 5.47261L137.89 5.91623L138.22 6.21066L138.811 6.17533L139.07 5.51187L139.55 4.81307L140.105 4.59322L140.44 4.22419L140.81 3.41155L141.475 2.41831L141.919 1.68025L142.549 1.58211L143.131 1.9001L144.82 2.88156L145.89 3.65495L145.78 4.02398L145.52 4.42834L145.15 5.05647L145.001 5.50009L144.741 5.82986L144.591 6.23422L144.627 6.52866L144.847 6.78776L145.252 7.00761L145.768 6.82309L146.173 6.30881L146.394 5.75527L146.724 5.31165L146.909 4.90729L147.094 4.35375H148.09L148.562 4.64818L149.223 4.97795L149.75 5.30772L150.277 5.83378L151.186 6.37948L151.663 6.75635L152.186 7.00368L152.922 7.71033L153.65 8.23639L154.543 8.89593L155.334 9.2257L155.897 9.48873L156.585 9.73214L157.085 10.2464L157.313 10.7411L157.742 11.2671L158.061 11.9031L157.99 12.8492L158.061 12.9003L158.246 13.3439L158.581 13.8582L158.95 14.188L159.281 14.557L159.604 14.9339L159.722 14.9613L159.942 15.405L160.127 15.774L160.312 16.3275L160.461 17.0263L160.867 18.0196L160.847 18.0313L161.162 18.314L161.457 18.6084L161.607 18.9029L161.792 19.3426L161.831 19.3465L162.311 19.7509L162.756 20.4143L162.933 21.0856L163.295 21.4468L164.086 22.3341L164.582 23.1349L164.652 23.9162L164.837 24.3205L164.637 25.2745L164.432 25.5375L163.987 25.8673L163.507 26.2717L163.063 26.4208L162.952 26.6054L163.102 26.8252L163.212 27.0451L163.472 27.1196L163.212 27.4141L162.807 27.4887L162.401 27.524L162.071 27.9284L161.886 28.7018L161.666 29.0708L161.406 29.6597L160.89 29.7696L160.485 30.064V30.5783L160.41 31.2771L160.261 32.235L159.93 32.714L159.745 33.2282L159.375 33.5227L159.139 33.7347L159.155 33.9113L158.824 34.3157L158.565 34.6455L158.38 34.9399L158.27 35.568L158.049 36.1216L157.711 36.785L157.089 36.7772L156.538 36.8321L155.712 37.1658L155.106 37.4407L153.138 37.4878L151.505 38.3514L149.679 38.1591L148.428 36.7183L147.661 35.4699L146.409 34.1273L145.256 33.6483L142.758 33.3617L141.219 34.033L140.066 35.568L138.815 39.6941L137.854 42.0928L136.701 44.3933L135.356 46.2149L134.01 47.2709L132.278 47.4633L130.74 47.7499L130.067 48.6136L131.507 51.2046L132.66 52.7396L133.239 55.0402V57.6312L133.046 59.8375L133.333 61.5649L133.719 62.9075L134.392 63.7712L135.009 64.7998L134.439 67.0768L133.333 68.8552L132.566 71.1557L131.794 72.9773L130.543 73.9352L129.004 75.0854L126.986 76.8128L126.506 78.442L125.545 79.7847L124.392 80.456L123.24 81.8968L122.661 83.6241L123.047 85.2534L124.585 86.3094L125.545 87.3655L127.084 88.7081L128.623 90.3373L129.874 91.1028H131.027L131.987 91.2952L132.18 92.5436L131.507 93.4073L130.641 93.9844L130.161 94.9423L130.354 96.3831L129.874 97.9181V99.0684L128.914 100.317L127.663 100.796L126.797 100.988L126.124 101.852L125.258 102.81L124.2 104.345L123.24 105.88L122.952 106.936L123.047 107.992V109.048L122.759 110.104L122.567 110.869L122.279 112.212L121.606 112.306L121.028 111.729L120.261 111.058L119.356 110.359L118.982 109.016L117.113 108.647L115.094 107.529L113.374 106.484L111.729 105.291L110.907 104.396H108.664L106.944 103.426L104.851 101.785L103.206 99.9203L100.739 98.3539L98.7948 96.7874L97.9723 95.8924L97.2247 94.7735L97.0004 93.953V91.5661L98.4957 91.8605H100.141L101.412 91.4876L102.608 90.5925L103.655 89.8466L104.926 89.5482L105.15 87.8366H106.87L108.44 87.6128L109.266 86.7177L109.042 85.006L108.145 84.1109L107.098 83.5142L105.976 82.9921L104.331 80.9781L102.163 78.5912L100.593 76.432L100.294 74.1943L100.07 70.6179L99.8454 68.5293L98.9482 67.116L97.8267 65.0275L97.3034 62.7897L96.3314 60.4028L95.6585 58.3182L94.9108 56.4535L93.4903 54.9616L91.8454 52.5041L90.6492 50.0465L90.1258 46.6899L89.752 44.5307L90.7987 42.3676L91.6959 41.0995L91.4716 38.1159V36.0313L91.7707 32.6747L93.9389 30.5901L95.6585 28.5761L96.5557 27.1589L96.4062 24.772L95.808 22.9072L95.6467 21.757L96.2212 21.7334L96.6383 21.6431L96.7407 21.8276L96.7997 21.6196L97.0948 21.3604L97.5001 21.1013L97.7599 20.9168L97.9094 20.5871L98.1298 20.0335L98.3501 19.8137L98.6452 19.4093L98.8656 18.7458L99.0506 18.3768L99.2709 18.0078L99.7864 17.8233L100.932 17.7487L100.967 17.3443L100.782 17.0852L100.817 16.6416L101.038 16.1273L101.333 15.723L101.998 15.3186L102.443 14.9888L102.702 14.6591L103.403 14.3646L104.048 14.1723L104.087 14.1055H104.272L104.461 13.9603L104.717 13.7522L105.032 13.5795L105.437 13.5323L105.85 13.4342L106.185 13.2104L106.299 13.1319L106.995 13.0848L107.889 12.5273L107.897 12.4724L107.979 12.4841L108.424 12.225L109.235 11.7461L110.529 10.8235L111.379 10.0148L112.265 9.316L113.26 8.83705L114 8.24817L115.44 7.18035L115.995 6.99583L116.735 6.59147L117.915 5.85341L119.06 4.93084L120.056 4.30271L120.516 3.98079L120.843 3.87479L121.016 3.62747L121.162 3.5254L121.791 3.23096L122.421 3.01111L123.023 2.65779L123.027 2.65386L123.047 2.64208L123.055 2.62638L123.487 2.22595L124.015 1.46826L124.633 1.1856L125.557 1.15027L126.022 0.985382L127.06 0.828349L127.651 0.643835H128.461L129.39 0.557467L130.35 0.314065L131.802 0.294436L132.924 0.129551L134.014 0.0981445H134.84L135.93 0.19629L136.591 0.361175L137.221 0.757684L137.882 1.02071L138 1.3073L138.087 1.4447L137.854 1.52715L137.41 1.67633L136.819 1.86084L136.186 2.2652Z" fill="#E2E8F0"/>
<path d="M249.296 51.7307L250.165 52.0133L250.681 51.9859L251.92 52.5315L252.904 52.7907L253.872 53.0969L254.931 53.2303L255.415 53.5366L256.119 53.67L256.159 53.7368L257.048 54.1647L257.658 54.5926L258.445 55.0205L259.413 55.951L260.416 56.8107L261.384 58.2436L261.994 59.2801L262.211 60.2458L262.64 61.2116L262.962 62.1067L263.143 64.6467L263.037 66.1503L262.891 67.2966L262.927 67.3241L262.891 71.4501L263.93 71.5208L265.044 71.984L266.012 72.5925L265.225 74.5947L263.934 77.5627L262.183 81.7554L260.711 85.1631L259.637 87.7737L257.953 91.3502L256.446 95.0012L255.907 96.2889L255.8 97.0034L255.549 97.8631L256.088 98.6876L256.985 98.9035L257.811 98.9741L258.708 98.8328L260.035 98.5816L260.932 98.5109L261.471 98.3696L262.116 98.2636L262.797 97.977L263.946 97.6904L264.591 97.7611L265.308 97.977L266.169 98.2636L266.85 98.6208L267.354 98.9427L267.928 99.3706L268.467 99.5512L269.254 99.6926L269.758 100.014L270.62 100.266L271.372 100.804L271.387 101.271L271.427 102.35L271.257 103.112L271.002 103.45L270.994 103.461H270.974L270.561 103.838L269.597 104.093L268.774 104.349L268.023 104.517L267.031 104.843L266.083 105.31L265.319 105.707L264.584 105.891L263.891 106.174L263.069 106.457L262.431 106.712L262.006 106.853L260.79 106.975L258.76 107.214L257.276 107.136L256.025 106.441L254.466 105.691L251.964 104.784L249.481 105.33L247.977 105.856L247.478 103.363L247.167 102.825L249.422 97.7964L248.949 97.7139L248.06 99.881L247.226 101.381L246.821 102.837L245.986 103.033L244.149 102.924L243.133 103.245L242.744 103.442L242.354 103.666L242.102 103.556L242.043 103.014L241.559 102.982L241.225 103.595L240.702 103.434L239.127 103.473H238.588L238.321 103.74L237.829 103.516H237.514L237.066 103.697L236.841 103.921H235.944L235.676 104.235L235.185 104.368H234.736L234.197 104.635H233.17L233.146 104.718L232.461 104.623L231.93 104.749L231.682 105.059H231.183L230.679 105.322L230.305 105.601L229.805 105.664L229.711 105.942L229.117 105.911L228.275 106.131L227.775 106.567L226.984 107.042L225.685 107.265L224.788 107.446L223.938 107.76L223.356 108.117L222.549 108.208L221.967 108.388L221.25 108.569L220.219 108.793L219.771 109.016L219.098 109.507L218.606 109.774L217.351 109.908L216.009 110.175L215.001 109.935L214.486 110.712L213.852 110.418L213.813 110.414L213.231 110.292L212.66 110.665L211.971 110.634L211.098 110.854L210.63 111.321L210.035 111.258L209.567 111.289L208.796 111.144L208.304 111.368L207.765 111.549L207.139 111.682L206.632 112.157L205.699 112.353L205.231 112.416H204.542L204.074 112.573L203.7 112.946L203.295 112.915L202.535 112.832L202.421 113.103L201.673 113.26L200.938 113.343L200.178 113.566L199.706 114.136L199.08 114.261L198.553 114.489L198.207 114.976L197.396 115.007L196.68 115.227L196.117 115.321L195.149 115.353L194.468 115.455L193.457 115.624L192.249 116.161L191.265 116.385L190.1 116.742L189.191 117.363L188.566 118.065L187.629 118.69L186.287 119.259L185.65 119.695L185.012 119.997L184.406 120.366L183.541 120.696L183.096 120.393L182.793 120.425L182.12 120.759L181.246 121.63L180.845 122.133L180.377 122.333H180.042L179.672 122.297L179.169 122.533L179.015 122.933L178.484 123.432L178.016 123.931L177.174 124.677L176.481 124.508H176.009L175.54 124.841L175.068 125.313L174.565 125.815L174.289 126.325L173.762 126.553L173.565 127.071L173.156 126.922L172.617 126.384L172.227 125.733L171.507 125.21L170.948 124.425L170.511 123.832L170.106 123.208L169.606 122.431L169.233 121.995L168.957 121.057L168.387 119.75L167.682 118.509L167.655 116.53L167.777 116.134L168.257 116.063L168.591 116.366L169.968 116.432L170.472 116.263L170.873 116.13L171.444 115.997H172.585L173.089 116.232L174.132 116.334L174.533 115.898L174.427 115.372L174.23 115.094L173.663 114.772L172.947 114.709L172.322 114.085L171.727 113.46L171.645 111.847L171.043 111.317L170.165 111.34L170.46 110.779L170.673 110.167L170.751 109.739L170.696 109.13L170.661 108.836L170.858 108.412L170.578 107.344L170.299 106.728L169.905 106.052L169.736 105.491L170.13 104.144L170.917 103.528L171.594 102.967L172.101 102.068L172.664 101.73L173.62 101.337L173.959 100.16L173.282 99.1508L173.057 97.2428L171.369 96.0651L170.354 94.5497L169.059 93.9883L167.257 93.4269L166.58 93.0893L165.679 91.5739L164.947 89.7759L164.892 88.0368L164.609 86.914L163.145 86.5764L161.118 86.2387L159.485 86.1838V84.7234L160.78 84.162L162.807 84.0481L163.538 83.3179L163.483 82.1402L163.09 80.6248L162.303 78.9406L161.457 78.0416L161.512 75.7411L162.582 74.0019L163.598 72.2039L164.215 69.7895L164.892 68.0504L165.903 66.4211L167.198 65.8048L168.607 65.9186L169.902 66.1424L171.704 66.48L173.073 66.5625L172.751 67.116L172.003 68.757L171.479 70.398V72.6357L172.227 74.053L173.573 75.0226L174.47 76.1415L174.545 77.6333L174.994 78.5284L175.965 79.7964L177.311 80.0948L178.508 80.5424L179.779 80.9899L182.395 81.1391L183.143 81.9596L183.517 83.6006L183.293 84.8686L184.115 85.8383L185.162 86.808L186.732 87.4047L188.152 89.1203L189.723 90.3883L191.517 92.1039L192.414 93.4466L192.937 94.64L194.209 95.4605L194.134 96.654L193.386 97.8474L193.835 99.2646L194.508 100.16L195.704 100.309L197.797 100.011L200.04 99.7122L202.059 99.4884L204.227 99.563L204.825 98.9663L204.975 98.2204V97.1015L204.302 96.654L203.554 95.8335L204.377 94.64L205.124 94.0433L204.601 92.9244L205.498 91.9548L206.321 91.8056L207.293 91.5072L208.414 90.5375L209.536 89.8662H211.33L212.452 89.5678L213.046 88.8259L213.034 88.3548L212.81 88.1742L212.731 87.5735L212.172 86.9454L211.802 86.647L211.228 86.6117L211.066 85.803L210.578 85.7284L210.413 85.0924L210.429 84.8137L209.441 84.7194L208.827 84.5389L209.237 83.3729L210.582 83.5221L212.003 83.8204L213.573 84.1934L215.667 83.9696L218.354 83.7458L219.625 83.6712L220.747 84.4172L221.644 85.2376H222.84L224.485 84.7901L225.831 83.5967L227.102 82.627L228.448 81.3589L229.719 80.4638L230.84 79.9417L233.008 79.4942L234.354 78.972L234.504 77.2564L234.354 75.6154L233.906 74.049L233.233 73.3031L233.008 72.1843L233.607 71.8113L234.952 70.767L235.999 69.9465L236.822 68.9769L238.242 67.5596L239.139 66.0678L239.663 65.4711L240.859 64.8744L241.158 63.4571L240.709 62.1891L239.812 61.667L238.616 60.6227L237.719 59.5038L237.345 58.385L237.164 57.2072L237.817 56.6458L238.218 55.9627L238.439 55.7507L238.655 55.629L239.509 54.6908L240.21 54.0901L240.434 53.3285L241.095 53.0223L241.402 52.5394L241.886 52.3627L242.677 52.1429L243.775 51.9898L244.401 52.1429L245.451 51.8367L246.325 52.241H246.864L247.615 51.9073L248.127 51.7817L248.717 51.7228L249.296 51.7307ZM226.22 47.0629L226.012 47.1218L225.776 47.0903L225.481 46.9137L224.741 46.1442L223.911 45.4062L223.879 44.994L223.493 44.4914L223.761 44.4326L224.147 44.727L224.532 44.7859L224.886 44.9625L225.3 45.1392L225.713 45.2884L225.681 45.6142L225.74 45.8498L225.917 45.999L226.094 46.2659L225.976 46.474V46.7095L226.185 46.9451L226.22 47.0629ZM222.521 43.0467L222.372 43.1959L222.045 43.0781L221.837 42.7523L221.424 42.3401L220.92 41.9279L221.187 41.7787L221.306 41.8376L221.691 41.8965L221.959 42.0731L222.226 42.3401L222.376 42.7523L222.521 43.0467ZM272.981 38.4339L272.359 38.5242L271.895 38.3672L271.383 38.057L270.738 37.527L270.337 37.2169L269.916 36.6869L269.648 36.1098L269.491 35.5798L269.29 35.0263L269.534 34.6926L269.754 34.4256L270.022 34.0487L270.376 33.5816L270.529 33.0948L270.773 32.5844L270.974 32.2507L270.998 31.917L270.844 31.7403L270.935 31.5205L271.092 31.3438L271.293 31.4773L271.36 31.9209L271.45 32.341L271.671 32.5412L271.871 32.7846L272.005 33.1183L272.603 33.2518L273.201 33.3421L273.78 33.5619L274.291 33.7622L274.535 34.3157L274.913 34.7593L275.468 35.4463L275.736 36.0902V36.6005L275.602 37.1305L275.468 37.5938L275.157 37.9471L274.626 37.9903L274.004 38.1237L273.406 38.2808L272.981 38.4339ZM227.669 35.0184L227.944 35.254H232.485L233.119 34.9792L233.67 34.7044L234.142 34.5473L237.101 34.5866L237.573 34.4295H238.958L240.182 34.6258L241.367 34.8221L242.276 35.0969L243.067 35.254L243.539 35.411L244.168 35.4503L244.562 34.9792L245.313 35.0969L246.104 35.254H246.856L247.446 35.0184L247.84 34.8614L248.233 34.9006L248.391 35.4895L248.509 35.7251L249.02 35.6466L249.374 35.3325L249.611 35.1362L250.52 35.0184L250.677 35.411L250.992 35.6073L251.307 35.9999L251.267 36.3925L251.385 37.103L251.543 37.4956L251.503 38.0452L251.621 38.5948L251.464 38.9482L251.228 39.5763L251.307 40.3654L251.739 40.7187L251.976 40.9543L252.212 41.0721L252.094 41.3469L251.661 41.2291L250.988 41.0328L250.079 41.1506L249.646 41.4254L249.095 41.1898L248.343 41.4254L247.871 41.6217L247.556 41.7787H246.765L246.372 41.5824L245.738 41.4254L245.502 41.6609L245.148 41.7787L244.519 41.6609L243.846 41.5039L243.255 41.6609L242.504 41.7002L242.15 41.8965L241.638 42.2105L241.205 42.3283L241.087 42.6424L240.654 42.7602L240.025 42.9172L239.789 43.4668L239.71 43.9379L239.395 44.0949L239.002 44.2912L238.726 44.6446L238.372 44.9979L237.782 45.1157L237.703 44.6838L237.191 44.6446L236.916 44.7623L236.798 45.0371L236.208 45.3905L235.456 45.469L234.744 45.7045L234.071 45.8616L233.162 46.1364L232.292 46.4504L231.265 46.6075L230.396 46.686L229.963 47.0001L229.29 46.9215L228.975 46.3719L228.7 45.7006L228.149 44.8723L227.598 44.5189L227.322 43.8084L226.889 43.137L226.378 42.823L225.705 42.7052H224.639L224.206 42.2341L223.93 41.6845L223.733 41.1741L223.537 40.3458L222.667 39.5567L221.876 39.2819L220.574 39.1641L219.861 38.7715L218.952 38.4967L218.319 38.1826L217.292 37.315L216.859 36.9224L216.347 36.6476H216.032L215.442 36.8047L214.691 36.6084H214.1L213.388 36.2551L213.309 35.9802L212.837 35.3521L212.522 34.9988H212.011L211.696 35.3521L211.303 35.3914L210.948 35.1558L210.673 34.9595L210.437 34.6847L210.201 34.3314L209.728 34.1351L209.256 33.6247L209.178 33.1536L208.941 32.604L208.863 32.0937L208.705 31.7796L208.745 31.23L209.217 31.1122L210.126 30.9159L210.716 30.5626L211.07 30.2485L211.306 29.6597L212.609 29.5419L212.884 29.2671L213.042 28.7567L213.317 28.4819H213.711L214.58 28.7175L215.21 29.1886L216.001 29.4241L217.067 29.9737L218.409 30.4841L219.751 30.8767L221.172 31.1515L221.923 31.5441L222.396 31.8974L223.186 32.1722L223.344 32.4863V33.1144L224.095 33.7857L225.004 34.1783L225.595 34.3353L227.094 34.5316L227.669 35.0184ZM303.576 28.4073L304.957 28.9177L305.748 29.589L306.461 30.0601L307.134 30.5312L307.964 31.1593L308.755 32.0662L309.384 32.3803L310.136 32.6551L310.687 33.1262L311.199 33.6365L311.789 33.9506L312.222 34.1076L312.654 34.6572L312.694 35.4463L313.205 36.0745L313.756 36.7026L313.953 37.2247L314.626 38.1709L314.862 38.8814L314.901 40.4164L314.587 41.2448L314.232 41.8337L314.193 42.5835L313.76 43.2548L313.603 43.8044L313.445 44.8683L313.249 45.3002L313.013 45.889L312.895 46.7567L312.816 47.8598L312.501 48.2131L312.344 49.1985L311.989 50.2232L311.714 51.0123L311.281 51.5226L311.045 51.8759L309.9 52.2685L309.109 52.6218L308.436 52.8574L308.043 52.6218L307.134 52.2293L306.303 51.8367L305.713 51.5619L305.083 51.7189L304.45 52.0722L303.383 52.3863L301.963 53.0576L300.818 53.6857L299.633 54.3963L298.528 54.9067L298.173 55.103L296.95 55.417L296.119 55.8489L295.962 56.477L295.529 56.7911L295.214 57.0266L294.86 57.3014L294.227 58.012L293.554 58.5616L293.081 58.6401L292.527 58.9935L291.976 59.1898L291.503 58.8364L291.346 58.3261L290.953 58.012L290.559 57.8942L290.323 57.2622L289.851 57.0659L289.654 56.7518L289.418 56.2022L288.906 55.5701L288.473 55.2168L288.395 54.3492L287.923 54.1922V53.6033L287.293 53.1715L286.541 52.3431L285.75 51.3577L285.278 50.6864L284.806 50.0151L284.373 49.5833H283.7L283.346 49.1907L283.425 48.7981L283.464 48.0679L283.11 47.318L282.795 46.8077L282.52 46.3758L282.205 45.8655L281.493 45.1549L280.902 44.7623L280.072 44.5268L279.718 43.6984L278.77 43.4629L278.057 43.2273L277.86 42.7562L277.585 42.0849L277.27 41.8494L276.995 41.6138L277.624 41.182L277.742 40.8286L277.939 40.279L278.254 39.4899L278.687 38.7794L278.962 38.269L279.277 36.9696L279.002 36.0234L278.687 35.6701L278.293 34.9595L277.979 34.1704L277.782 33.1851L277.624 32.3567L277.506 31.4106L277.27 30.1111L277.703 29.64L278.136 29.5615L278.687 29.9541L279.12 30.0719L279.671 30.3074L280.225 30.3859H280.776H281.489L282.04 30.6607L282.59 30.5822L283.181 30.4252L283.614 30.3074L284.165 30.0719L284.597 29.5615L285.349 28.8509L285.801 28.584L286.116 28.1914V27.579L286.47 27.2256L286.785 26.9508L286.982 26.5975L287.139 26.1264L287.494 26.0479L287.848 26.2049L288.084 26.5583L288.477 27.0293L288.93 27.3827L290.036 27.4612L290.429 27.1864L290.941 27.3042L291.452 27.8145L291.885 27.893L292.597 28.0108L292.991 28.5212L293.463 28.5997L293.857 28.3249L294.25 27.6143L294.565 27.3002L295.317 26.9076L295.474 26.1578L296.182 25.8438L297.052 25.9615L297.524 26.04L297.957 26.3934L298.669 26.6289L299.618 26.8252L300.369 27.1L301.436 27.3356L302.187 27.7281L303.576 28.4073Z" fill="#E2E8F0"/>
<path d="M73.2872 190.32V190.631L72.9331 190.587L72.4215 190.654L72.3782 190.898L72.4215 191.184L72.8662 191.318L73.4446 191.537L73.7555 192.001L73.5351 192.354L73.3148 192.707L72.7835 192.731L72.0083 192.864L71.54 193.018L70.8514 193.084L69.9424 193.394L69.722 193.528L69.2538 193.928L68.6753 194.348L68.0968 194.902H67.8293L67.6522 194.482L67.4948 194.081L67.5184 193.151V192.354L67.2705 192.071L67.4279 191.718L67.7624 191.475L68.1834 191.498L68.9153 191.388L69.6906 191.255L70.1116 191.035L70.4461 190.682L70.7137 190.328L70.9813 189.928L70.9144 189.641L70.7806 189.421V189.021L70.9144 188.558L71.3826 188.515L71.784 188.648L72.3822 188.801L72.7599 189.088L72.9803 189.355L72.7599 189.508L72.7363 189.794L73.0236 190.038L73.2872 190.32ZM77.2026 179.363L76.9862 179.623L76.7186 179.556L76.6517 179.336L76.5415 179.093L76.2739 178.983V178.673H76.5848L76.8052 178.716L76.9626 179.026L77.2026 179.363ZM108.199 176.933L107.818 176.984L107.786 176.768L107.503 176.619L107.204 176.588L107.086 176.388L107.117 176.203L107.499 176.254L107.9 176.372L108.431 176.521L108.4 176.702L108.302 176.867L108.199 176.933ZM123.365 180.91L123.286 181.107L122.775 180.989L121.984 180.832L121.512 180.518L121.197 180.282L120.288 179.85L119.339 179.34L118.667 178.786L118.391 178.315L117.998 177.605L117.722 177.212L117.565 176.741L117.368 176.309V175.442L117.407 174.892L117.722 174.578L118.037 174.813L118.273 175.088L118.588 175.52L118.903 175.795L119.414 176.227L120.005 176.58L120.717 177.169L120.874 177.719L121.425 178.307L121.661 178.661L122.334 179.21L122.767 179.842L122.964 180.313L123.279 180.588L123.365 180.91ZM95.9572 175.752L96.1894 176.168L96.6065 176.117L96.8898 176.05L97.122 176.101L97.2873 176.415L97.5352 176.615L97.8185 176.949L98.1019 177.35L98.1687 177.766L98.1176 178.331L97.8697 178.429L97.6218 178.614L97.3739 178.947L97.0748 179.395L96.941 180.074L96.7757 180.274L96.6105 180.325L96.5436 180.043L95.9926 179.992L95.792 180.208L95.5244 180.588L95.2411 180.753L95.0089 180.455L94.9262 180.09L94.7413 179.458L94.5091 178.625L94.2415 177.962L94.1904 177.279L94.3753 176.765L94.4265 176.184L94.576 175.685L94.8239 175.037L95.0915 174.703L95.3237 174.421L95.3552 174.189L95.4535 173.824L95.6188 173.443L96.3193 173.392L96.3862 173.573L96.2878 173.722L95.9061 173.789L95.7565 173.871L95.6582 174.119L95.5244 174.452L95.6424 174.652L95.6739 175.084L95.7565 175.465L95.9572 175.752ZM71.6778 175.591L72.2326 175.767L72.6104 175.524L73.0551 175.19L73.4761 174.947L73.787 174.703L74.0546 174.613L74.2985 174.857L74.6094 175.19V175.391L74.3654 175.591H74.0113L73.6099 175.724L73.3423 176.235L73.2518 176.765L73.4958 177.165L73.9168 177.499L74.6291 177.589L75.0738 177.722L75.3846 178.009L75.8057 178.409L75.605 178.696L74.8927 178.763L74.7589 179.316L74.4717 180.047L73.8067 180.137L73.1416 180.27L72.6301 180.18L72.1185 180.003L71.5204 179.87L70.4973 179.893H68.4982L68.1874 180.027L67.4318 180.294L66.7432 180.204L65.5902 179.893L64.2562 179.693L63.2134 179.583L62.5012 179.363L61.4584 179.273L60.5494 179.163L60.0811 178.92L60.0142 178.433L60.3251 177.989L60.6359 177.636L61.3915 177.546L61.8125 177.389L62.1903 177.122L62.7215 176.702L63.1426 176.215L63.5204 175.661L63.9414 175.241L64.7402 174.731L65.362 174.354L65.9601 174.068L67.4043 173.867L67.9591 173.734L68.4904 173.557L69.179 173.247L69.7102 173.157L70.332 173.29L70.5327 173.734L70.576 173.977L70.7097 174.507L71.1977 175.061L71.6778 175.591ZM146.248 172.324L146.086 172.348L145.83 172.234V172.05L145.992 171.979L146.086 171.885L146.248 171.771L146.318 171.586L146.48 171.355L146.598 171.123L146.83 171.052L146.877 171.284L147.015 171.398L146.92 171.582L146.826 171.63L146.712 171.814L146.551 171.975L146.389 172.136L146.248 172.324ZM144.902 170.75L144.67 170.774L144.599 170.542L144.646 170.334L144.807 170.15L145.11 170.173L145.224 170.428L145.11 170.636L144.902 170.75ZM154.838 166.44L155.141 166.695L155.511 166.671L155.904 167.064L156.231 167.272L156.624 167.366L156.975 167.621L156.998 167.853L156.86 168.34L156.975 169.196L157.112 169.729L157.183 170.519L157.23 171.19L156.998 171.374L156.813 171.261L156.487 170.982L156.278 170.727L156.117 170.471L155.932 170.193L156.003 169.867L155.928 169.498L155.601 169.384L155.231 169.082L154.606 168.571L154.236 168.108L153.701 167.645L153.284 167.134L152.843 166.856L152.496 166.624L152.473 166.208L152.705 165.929L152.914 165.651L153.402 165.537L153.587 165.721L153.795 166.114L154.259 166.275L154.838 166.44ZM161.386 167.88L161.154 168.018L160.784 167.81L160.528 167.555L160.134 167.346L159.694 166.93L159.324 166.491L159.021 166.122L158.741 165.776L158.718 165.105L158.671 164.712L158.391 164.343L158.462 163.88L158.694 163.766L159.088 163.79L159.182 164.021L159.528 164.229L159.831 164.532L160.296 164.971L160.689 165.387L160.921 165.757L161.362 165.917L161.709 166.196L161.893 166.475L161.823 166.915L161.638 167.146L161.453 167.586L161.386 167.88ZM90.6803 165.694L90.2081 165.89L89.3384 165.851L88.7088 165.929L88.1579 166.047L87.607 165.654L87.3709 165.419L86.9774 165.066L86.8593 164.516L86.938 164.084L86.9774 163.531L86.8593 163.177L87.0954 162.785L87.607 162.745L88.2366 162.981L89.0669 163.295L89.6965 163.57L90.2081 163.923L90.9203 164.394L91.3925 164.865L91.5499 165.219L91.2351 165.611L90.6803 165.694ZM158.25 161.163L157.994 161.509L157.667 161.717L157.274 161.764L156.904 161.556L156.577 161.395L156.691 161.21L157.038 161.163L157.223 161.258L157.502 161.281L157.71 161.234L157.895 160.888L158.151 160.586L158.289 160.217L158.521 160.288V160.496V160.728L158.313 160.865L158.25 161.163ZM160.945 161.163L160.528 161.21L160.39 161.097L160.437 160.912L160.67 160.798L160.855 160.684L161.063 160.57L161.158 160.154L161.272 159.899L161.551 159.829L161.689 160.131L161.594 160.476L161.386 160.731L161.154 160.963L160.945 161.163ZM149.777 161.65L149.569 161.697L149.313 161.466L149.081 161.21L148.825 160.885L148.569 160.629L148.361 160.304L148.081 159.887L147.967 159.424L148.313 159.703L148.451 159.911L148.683 160.119L148.963 160.351L149.356 160.72L149.588 161.022L149.773 161.324V161.65H149.777ZM94.1156 161.952L93.6828 162.031L93.3286 161.638V161.246L93.0531 160.932L92.6596 160.539L92.4235 160.264L91.9513 159.911L91.8333 159.401L91.912 158.729L92.3055 157.94L92.699 157.312L93.608 157.037L93.9228 157.234L94.1196 157.391L94.3163 157.979L94.5524 158.608L94.7098 159.079L94.9459 159.668L94.9066 160.256L94.6311 160.806L94.3557 161.395L94.1156 161.952ZM85.1948 160.064L84.4038 160.339L83.7309 160.221L83.1013 159.986L82.7865 159.829L82.4324 159.475L82.4717 159.122L82.2749 158.651L82.6291 158.18L83.2587 157.944L83.6916 157.552L84.4432 157.198L85.1948 156.806L85.6276 156.609L86.2179 156.413H87.0876L87.7998 156.57L88.3901 156.923L88.7049 157.477L88.9803 157.87L88.8623 158.301L88.5868 158.615L88.154 158.89L87.3237 159.244L86.1786 159.832L85.1948 160.064ZM102.6 158.372L102.836 158.765L103.347 158.686L103.583 158.608L103.741 158.843L103.859 159.039L104.488 159.393L104.646 159.785L105.039 160.139L105.83 160.81L106.503 161.399L106.975 161.948L107.29 162.38L107.094 162.577L107.054 162.891L107.526 163.362L107.762 163.676L108.077 164.186L108.156 164.618L107.762 164.854L107.133 164.814L106.303 164.775L106.145 164.343L105.752 164.422L105.476 164.657L104.965 164.618L104.65 164.225L104.532 163.754L104.414 163.044L104.178 162.651L103.942 162.337L102.914 161.627L102.56 161.352L102.206 161.195L101.616 161.038L101.222 160.841H100.75L100.553 161.195L100.632 161.509L100.947 161.587L101.38 161.862L101.813 162.098L102.206 162.412L102.56 162.687L102.482 162.961L102.167 163.079L102.009 163.393L101.458 163.511L101.222 163.904L100.908 164.218L100.077 164.257L99.3257 164.375L98.1019 164.257L97.3109 164.061L96.7206 163.904L96.0084 163.825L95.5362 163.629L95.2214 163.236L95.182 162.687L95.4181 162.176L95.6149 161.823L96.0084 161.43L96.2445 161.195L96.3232 160.92L96.7167 160.881L97.1496 161.155L97.9012 161.469L98.5741 161.509L99.125 161.352L99.3611 160.72L98.9676 160.327H98.0586L97.429 160.052L96.6774 159.581L96.4412 159.032L96.2838 158.282L95.969 157.532L95.7723 157.1L95.6936 156.55L95.7329 155.761V155.447L96.0084 155.133L96.2051 154.78L96.7954 154.623L97.2283 154.701L98.0979 154.858L98.5701 155.015L99.2824 155.251L99.5578 155.565L99.8333 155.997L100.187 156.272L100.62 156.704L101.171 156.939L101.722 157.253L102.116 157.646L102.391 157.999L102.6 158.372ZM131.172 141.954L132.007 142.17L132.935 142.107L133.431 142.323L133.927 142.417L134.297 142.323L134.667 142.107L134.977 141.923L135.162 141.581L135.442 141.428L135.473 141.797L135.816 142.26L136.618 142.508L137.516 143.124L138.94 143.619L139.715 144.361L140.459 144.608L141.262 144.95L142.191 145.071L143.119 145.04L143.985 144.918H144.634L145.283 145.26L145.653 145.413L146.055 145.692L146.736 146.002L147.479 146.096L147.912 145.849L148.408 145.507L149.152 145.413H149.769L150.356 145.535L150.942 145.597L151.19 145.876L151.284 146.524L151.1 146.956L151.501 147.203L151.965 147.14L152.119 146.799L152.398 146.736L152.925 146.367L153.327 146.214L153.854 145.998L154.72 145.876L155.247 146.092L155.648 146.339V146.771L155.432 147.14L155.279 147.666L154.814 148.251L154.318 148.777L153.949 149.394L153.484 150.01L153.236 150.536L152.65 151.337L152.323 151.553L152.012 151.769L151.89 152.263L151.674 152.201V151.832L151.643 151.431L151.58 151.152L151.21 150.842L150.93 150.595L150.682 150.442L150.372 150.226H150.029L149.907 150.689L149.97 151.09V151.678V152.11L149.754 152.542L149.659 153.005L150.002 153.469L150.281 153.747V153.932L150.033 153.995L149.817 154.273L149.384 154.642L149.136 154.796L148.609 155.043L148.298 155.227L148.113 155.412L147.833 155.196L147.523 155.102L147.212 155.286L146.625 155.408L146.161 155.561L145.76 155.655L145.39 155.903L145.205 156.272L144.662 156.335L144.075 156.15L143.796 155.965L143.426 155.655L143.304 155.07L143.119 154.391L142.686 154.112L142.253 153.865L142.222 153.496L141.911 153.343L141.262 152.974L140.735 152.511L140.365 151.985L139.869 151.553L139.499 150.995L139.188 150.316L138.877 149.853L138.476 149.543L138.507 149.727L137.948 149.48L137.701 149.386L137.516 148.923L137.299 148.675L136.898 148.396L136.001 148.365L135.847 148.487L135.725 148.671L135.261 148.577L134.981 148.361L134.58 148.082L134.238 147.682L133.895 147.282L133.431 146.665L132.967 146.418L132.408 146.017L131.944 145.77L131.849 145.338L131.448 145.091L130.861 144.659L130.429 144.164L129.901 143.886L129.189 143.733L128.941 143.391L128.725 142.928L128.571 142.559L128.26 142.064L128.075 141.817L128.17 141.507L128.571 141.444L128.973 141.35L129.716 141.471L130.551 141.719L131.172 141.954ZM150.639 142.696L150.734 143.065L150.517 143.191L150.269 143.407H149.372L149.002 143.56L148.691 143.776L148.38 144.023L147.822 144.208L147.479 144.455L147.2 144.702L146.983 144.796L146.641 144.612L146.362 144.581L145.96 144.365L145.374 144.27L144.973 144.086H144.508L144.386 143.87L144.481 143.717L144.544 143.501L144.327 143.222L143.863 143.006L143.493 142.943L143.151 143.313L142.903 143.497L142.438 143.56L142.191 143.375L141.848 143.191L141.352 142.975L140.919 142.881L140.487 142.759L140.117 142.48L139.806 142.08L139.495 141.738L139.837 141.028L140.455 140.749L141.014 140.407L141.817 140.066L142.619 139.724L143.426 139.571L144.229 139.355H145.221H145.748L146.645 139.234L147.263 139.418L147.849 139.819L148.345 140.345L148.904 140.871L149.152 141.118L149.585 141.581L150.049 142.166L150.639 142.696ZM131.298 139.269L131.019 139.43L130.558 139.371L130.059 139.351L130.078 139.112L130.318 138.994L130.46 138.794L130.61 138.715L130.877 138.774L130.976 138.872L131.157 139.053L131.298 139.269ZM72.7127 122.447L72.9882 123.55L73.0669 125.56L73.3817 125.795L73.8145 126.384L74.5268 127.134L75.4358 128.198L76.2267 128.551L76.817 128.787L79.1466 128.944L80.331 129.062L81.3187 129.611L82.3064 130.243L82.8573 131.307L82.9361 132.41L82.7393 132.842L81.8303 133.592L80.7639 134.499L79.7762 135.21L79.1859 135.524L78.0408 135.641L77.1318 135.406L76.6202 135.013L75.7112 134.542L74.2513 133.832L73.2636 133.557L72.3153 133.439L71.725 133.518L71.2134 133.871L70.5405 134.303L69.7889 134.892L69.1593 135.524L69.0413 136.195L69.5922 136.784L70.4618 136.941L70.934 137.137H71.5243L71.7604 136.823L72.1146 136.745L72.0359 137.216L71.8391 137.53L72.1933 137.726L72.2326 138.197L72.0359 138.433L71.7604 138.904L71.0482 139.575L70.3753 140.085L70.1785 140.517L69.1908 140.635L68.3605 140.125L67.6876 139.493L67.0147 139.453L66.7393 139.022L66.1096 138.55L64.2169 137.526L62.8356 136.937L62.7963 135.441L62.4815 135.049L62.0486 135.245L61.6551 135.418L61.419 135.971L61.0255 135.932L60.4352 135.775L59.9237 135.696L59.6482 135.893L59.2154 136.325L58.9006 136.957L58.8219 137.545L59.0973 137.703L59.967 138.095L61.2301 138.845L62.4146 139.673L63.9139 140.423L64.8229 140.973L65.4525 141.405L65.6099 141.758L65.2951 142.072L64.8229 142.19L63.9139 142.622L63.2016 142.936L62.5681 143.313L61.7378 143.328L60.8681 143.839L59.4475 145.02L57.8696 146.163L55.6974 147.384L54.4342 148.33L53.844 148.369L53.6472 147.58L52.935 146.045L52.2227 144.204L51.6325 142.904L51.3177 141.95L50.6054 140.533H50.0938L49.661 140.729L48.8307 141.318L48.1184 141.789L47.4062 142.3L47.5242 142.81L47.9177 144.109L48.5474 145.762L49.3383 148.165L50.0112 150.053L49.9719 150.725L49.6177 151.078L48.7874 151.627L47.8784 152.26L47.2881 152.456L47.2488 151.867L46.3004 149.621L45.1553 146.63L44.325 144.463L43.9315 144.267L43.6561 144.463L42.4716 145.33L41.5626 146.041L41.1691 146.512L41.2084 147.537L42.7471 151.474L43.5774 154.27L43.538 154.898L43.2625 155.133L41.842 155.722L40.1853 156.472L38.6467 156.786L37.2655 156.943L35.8449 156.389L34.6998 155.683L33.7515 154.619L32.7637 153.359L32.4096 152.77L32.1735 152.377L31.1464 150.842L29.9226 148.754L28.9743 147.022L28.144 145.213L27.5143 143.717L27.2389 142.732L27.0421 142.26L26.5306 141L26.1371 139.575L25.8616 138.433L25.7042 137.604L26.0977 137.015L26.5306 136.187L27.5183 135.359L28.5453 134.452L29.7691 133.506L31.3471 132.167L32.4922 131.064L33.4012 130L34.4676 129.25L35.4553 128.5L37.112 127.515L38.9851 126.019L39.9728 125.269L41.1179 124.559L42.0269 123.848L42.9359 123.299L43.9236 122.627L44.7539 121.956L45.9778 121.603L47.0835 121.446L47.477 121.21L47.9689 121.281L48.2444 121.516L49.4682 121.556L49.901 121.241L50.0584 120.57L50.57 120.178L51.479 120.06H52.27L52.6241 120.295L52.5061 121.124L51.9551 121.477L51.601 121.713L50.8887 122.345L49.8223 123.173L49.3108 123.644L48.8779 124.433L48.7205 125.262L48.5238 125.536L47.9335 126.208L47.3039 127.154L46.3162 128.218L45.3678 129.085L44.6162 129.757L44.6556 130.467L44.8523 130.703L45.4032 131.292L46.2335 131.963L46.9458 132.395L47.1425 132.041L47.6934 131.688L48.4057 131.256L48.9173 130.864L49.3501 130.393L49.6256 130.157L49.8617 130.275L50.0584 130.55L50.57 130.785L50.8848 130.55L51.239 130.236H51.7112L52.1834 130.157L52.3801 129.552L51.9866 129.081L51.9079 128.532L51.9866 127.943L52.3408 127.232L52.8917 126.522L53.6826 125.733L54.3123 125.262L54.7058 124.869L55.2173 124.751L55.5321 124.869L55.8076 125.144L56.3192 125.065L56.752 124.633L56.9094 124.241L56.8701 123.848L56.634 123.534L56.5946 123.024L56.752 122.828L56.9488 123.063L57.1455 123.259L57.4997 123.456H58.0506L58.4047 122.906L58.7983 122.435L58.5621 121.925L58.0899 121.532L57.7358 121.375V121.014L57.9719 120.739L58.5621 120.386L59.3138 119.915L60.0654 119.522L60.6556 119.443L61.4466 119.404L62.3949 118.972L63.2252 118.815L64.331 118.58L65.8302 118.344L67.0934 118.501L68.1205 118.737L68.9508 119.09L69.9778 119.483L70.7688 120.233L71.3984 120.759L72.028 121.347L72.3822 121.74L72.7127 122.447ZM53.8558 114.485H52.9822L52.5179 114.195L52.3447 113.79V113.209L52.2581 112.455L52.085 111.992L51.9394 111.411L51.7938 111.003L51.7348 110.567L51.8214 110.19L52.2306 110.163L52.6084 110.249L52.872 110.567L53.1632 110.972L53.8597 111.698L54.1509 112.134L54.2965 112.452L54.2375 112.828L54.1785 113.178L54.1194 114.25L53.8558 114.485ZM70.0919 15.3854L70.6861 15.6994L71.3708 15.5149L72.6065 15.2951L73.2675 14.7258L74.1766 14.3764L74.7668 14.4628L75.2705 14.4432L75.5145 15.0752L75.4948 15.5306L75.9001 15.7662L76.5297 15.9978L76.8288 16.3629L76.8957 16.8575L77.1279 17.4189L77.5922 17.8154L78.269 18.0235L78.9223 18.2119L79.3866 18.7066L79.8195 18.9382L79.788 19.4682L79.2253 19.9315L79.1269 20.7598L79.6975 21.2859L80.6537 21.3212L81.2833 21.2898L84.3369 21.1367L85.061 20.697L85.2066 20.6538L85.8677 20.9168L86.8357 21.227L87.847 21.8865L88.3743 22.5893L88.9016 22.6756L89.2715 22.6481L90.2081 22.5853L90.7708 22.6167L91.1328 22.2202L91.4949 21.9572L91.9907 21.9258L92.8131 21.7373L93.1476 21.7648L93.4506 21.8787L93.7851 21.8394L94.0999 21.8865L94.3832 21.9022L94.6272 21.8198L95.123 21.702H95.5008L95.67 21.7727L95.8313 22.9229L96.4294 24.7877L96.579 27.1746L95.6818 28.5919L93.9622 30.6058L91.7939 32.6904L91.4949 36.047V38.1316L91.7191 41.1153L90.8219 42.3833L89.7752 44.5464L90.1491 46.7056L90.6724 50.0622L91.8687 52.5198L93.5135 54.9774L94.9341 56.4692L95.6818 58.334L96.3547 60.4186L97.3266 62.8055L97.85 65.0432L98.9715 67.1318L99.8687 68.5451L100.093 70.6336L100.317 74.21L100.616 76.4478L102.186 78.607L104.355 80.9939L106 83.0078L107.121 83.53L108.168 84.1267L109.065 85.0218L109.289 86.7334L108.463 87.6285L106.893 87.8523H105.173L104.949 89.564L103.678 89.8623L102.631 90.6082L101.435 91.5033L100.164 91.8763H98.519L97.0236 91.5818V93.9687L97.2479 94.7892L97.9956 95.9081L98.818 96.8032L100.762 98.3696L103.229 99.936L104.874 101.801L106.968 103.442L108.687 104.411H110.93L111.753 105.307L113.398 106.5L115.117 107.544L117.136 108.663L119.005 109.032L119.379 110.375L119.155 111.714L118.407 113.056L117.884 114.25L118.482 115.816L119.528 116.562L120.052 117.905L120.351 119.247L120.65 121.187L120.949 123.346L121.622 124.614L123.267 126.027L124.912 126.549L125.809 125.952L127.454 126.027L128.575 126.475L130.145 126.549L131.94 126.475L132.538 127.37L132.687 128.712L131.491 129.757L130.743 130.503L129.846 131.771L129.547 132.964L129.921 134.157L130.594 135.426L131.566 136.246L132.018 136.466L131.491 137.31L130.421 137.275L129.941 137.491L129.744 137.844L129.386 138.162L128.815 138.127L128.28 138.056L127.816 137.593L127.19 137.114L125.447 135.394L124.864 135.355L124.923 136.014L126.726 137.754L126.753 138.464L126.525 138.672L126.222 138.872L125.62 138.853L125.278 138.653L124.837 138.174L124.455 137.714L124.136 137.553L123.975 136.972L123.495 136.493L122.952 136.093L122.81 135.673L122.409 135.414L121.846 135.335L121.547 135.076L121.449 134.735L121.268 134.275L121.008 133.957L120.445 133.698H119.824L119.505 133.518L119.367 133.31L118.844 133.255L118.702 133.514L118.501 133.753L118.34 133.953H117.919L117.6 133.714L116.9 133.372L116.077 132.893L115.617 132.752L115.023 132.238L113.779 131.519L112.717 130.958L111.233 130.079L109.769 129.18L108.707 128.618L108.427 128.52L108.361 128.665L107.326 130.361L106.263 132.159L104.941 134.201L104.079 135.842L102.875 137.942L102.474 137.962L99.6287 136.144L96.9843 134.385L92.7541 131.665L89.606 129.647L88.7836 129.026L88.2838 128.606L87.2607 128.206L86.5406 127.766L86.1392 127.507L86.3005 127.107L86.9026 126.286L89.0472 122.796L89.3463 122.376L90.2474 122.235L91.0305 122.356L91.8136 122.757L94.6193 124.716L94.6154 124.991L94.4186 125.014L94.4776 125.733L94.7964 125.992L95.2174 126.212L95.8785 126.592L96.8387 126.612L97.1417 126.482L97.4998 126.153L97.7398 125.733L98.1019 125.634L98.4836 125.795V127.134L99.2784 127.707L99.6562 127.923L100.305 127.872L100.526 127.613L100.947 127.633L101.368 127.911L101.73 128.033L102.43 128.014L102.871 127.052L103.292 126.153L103.552 125.713L103.631 125.25L99.4122 122.588L96.5593 120.712L97.2991 119.353L97.4408 118.297L97.5627 117.598L97.4211 117.449L96.9528 117.17L96.575 117.045L96.1068 116.578L95.67 115.895L94.7413 114.725L93.9897 114.175L93.9307 113.245L93.4191 112.526L92.9075 111.564L92.7265 110.512L92.274 109.582L91.8844 109.311L91.4043 108.801L90.8338 108.259L90.1451 107.823L89.5234 107.607L88.4609 107.481H87.4338L86.6508 107.54L85.7181 107.509L84.9666 107.69L85.0256 108.051L85.2066 108.322L86.0802 108.561L86.6153 108.404L88.1185 108.506L88.9056 108.828L89.6296 108.985L89.7792 109.429L90.7078 110.065L90.8967 110.532L90.6527 110.932L90.6842 111.474L91.0738 111.655L91.0148 111.835L90.9243 112.314L91.6168 112.613L91.9159 113.394L92.1874 114.293L92.6951 115.125L92.7895 115.855L91.1958 115.887L89.8421 116.067L88.0084 116.099L86.1117 115.588L84.0654 114.988L82.2907 114.658L80.0949 114.179L78.4107 113.7L76.7855 113.158L75.8529 112.797L74.7078 112.766L74.5268 113.037H73.9837L73.7122 113.366L73.4997 113.547V112.887L73.7988 110.426L74.0388 107.874L74.1884 106.822L74.4284 105.259L74.9085 104.329L76.1284 103.183L77.0728 101.879L77.2735 101.204L76.9193 100.976L76.4077 100.917L75.6876 100.976L75.1761 101.275L74.8927 101.938L74.2356 103.249L72.9803 104.341L72.7088 104.729L72.4687 105.75L72.2287 107.43L72.0477 108.212L71.9886 109.228L71.9572 109.625L71.7762 110.014L71.7604 111.333L71.6542 111.925L71.4417 112.467L71.3512 112.746L70.4461 112.208L69.2144 111.368L67.8293 110.139L66.5071 109.087L65.6335 108.455L64.6694 108.365L63.9178 108.243L63.1662 108.184L62.2651 108.216L61.8755 108.785L61.423 108.997L60.5494 109.087L60.3093 109.539L60.2188 110.32L59.9788 110.952L59.9079 112.192L59.8922 112.342L59.8843 112.42L59.4987 112.805H56.9409L56.8819 111.694L56.4608 111.215L55.5597 111.066L54.8986 110.587L54.147 109.927L53.7692 109.303L53.3678 108.965L52.1637 108.753L51.7112 109.052L51.1406 109.232L50.6605 109.802L50.448 110.551L50.2355 111.184L50.267 111.725L50.3575 112.295L50.6841 112.652L50.6487 113.908L49.8459 114.006L49.2439 114.155L47.9965 114.434L47.0796 114.422L46.1548 114.713L44.4903 114.662L44.2778 112.652L43.9158 111.03L43.8253 109.621L43.6757 108.659L43.3137 108.298L43.1051 107.996L42.7156 107.607L42.204 107.788L42.023 108.329L41.7239 108.718V109.68L41.9049 110.669L41.9954 112.561L42.2355 115.714L41.7554 116.044L41.1651 116.177L40.8543 116.373L40.2207 116.252L37.2104 112.919L36.9979 111.207L36.6634 109.853L35.4947 109.825L34.0426 110.131L33.72 110.544L33.842 112.283L34.141 114.446L36.9074 117.477V117.897L35.8489 118.788L35.0697 119.542L33.5035 120.743L32.2994 121.913L31.4573 120.892L30.8867 120.201L30.4342 120.111L29.7101 120.653L28.325 121.854L28.0259 121.135L26.8336 119.718L26.4047 119.455L25.5429 118.56L24.9802 117.767L24.5473 117.304L24.4135 116.809L24.9093 116.413L25.2399 116.016L25.2714 115.62L25.1218 115.192L24.4765 114.493L23.9452 113.731H23.3156L22.9851 114.03L22.4893 114.36L22.1587 114.328L21.4346 113.857L21.2103 113.409L21.6944 113.197L23.2527 111.478L24.5788 109.821L25.5744 108.926L26.0072 108.494L26.4047 108L26.5384 107.105L26.0741 106.708L25.5783 106.575L25.0825 106.673L24.6496 106.838L24.02 107.434L23.3235 108.098L22.627 109.024L22.0643 109.421L21.5999 110.018L21.3363 110.347L21.0726 110.579H20.6752L20.2108 110.147L19.7465 109.586L19.2507 109.154L19.1523 108.659L19.4514 107.996L19.8173 107.631L20.5138 107.034L21.2772 106.241L22.4066 104.773L22.4696 104.305L22.0328 103.838L21.4701 103.249L20.8483 102.967L20.0888 103.512L19.1877 104.392L17.9285 105.55L16.6338 106.924L16.0121 106.394L15.292 105.711L14.5719 105.275L13.9777 104.62L13.167 104.09L10.625 106.276L10.259 106.641L10.7903 107.073L12.8089 108.855L12.9388 109.295L16.3269 115.416L16.4961 116.373L19.0185 120.81L20.3446 123.346L21.3048 125.167L21.6393 125.792L21.7062 126.718L21.4071 127.346L20.687 127.629L19.4828 127.809L13.9108 127.908L8.60235 127.817L6.04848 127.645L4.09668 126.934L2.26686 125.756L1.03912 124.665L0.342608 123.24L0.177334 121.685L0.0986328 120.056L0.263906 117.673L0.653479 116.44L0.7007 116.083L1.16504 115.086L1.57035 113.81L1.97567 112.467L2.56986 111.097L3.1011 109.664L3.66382 108.106L4.19505 106.488L4.69087 105.338L4.98994 104.176L7.99241 96.285L9.28705 92.7085L10.381 90.1254L10.4479 89.2852L11.2428 87.3655L11.6402 85.909L12.136 84.6174L11.9354 83.8244L11.6048 82.5995L11.7386 81.5396L12.1715 80.9428L12.7027 80.5777L13.5015 79.9339L14.0642 79.981L14.2649 79.0231L14.8158 77.8728L15.229 76.6558L15.3825 76.33L15.5911 75.9452L16.1459 75.6037L16.6378 75.1287L17.3264 73.9313L17.779 73.1383L18.2354 72.2707L18.7273 71.3991L19.3687 70.3077L19.7858 69.3263L20.4312 68.0818L20.8837 67.4026L20.9585 66.9119L21.3009 66.4958L21.6786 66.535H22.1115L22.1351 66.1189L22.8749 65.8402L23.3077 65.6282L23.6186 65.5732V65.1139L23.9374 64.8155L24.1853 63.7987L24.563 63.2334L24.7519 62.4796L25.169 61.7612L26.3063 59.6452L26.4047 59.1976L26.4243 58.4007L26.6801 58.0199L26.9438 57.7569L27.3609 57.643L27.8173 57.5723L28.081 57.3093L28.1125 56.8461L28.4194 56.3985L28.5099 56.0177L29.0726 55.951L29.3993 55.3778L29.3363 54.9931L29.4032 54.2668L29.5881 53.9095L29.5685 53.5052L29.5999 50.0622L29.8006 49.6657L29.899 48.8374L30.08 48.8138V48.2838L30.2296 47.7538L30.2965 47.1807L30.3948 46.686L30.5286 46.5879L30.4971 45.8263L30.2965 45.5946L30.1312 45.1314L30.1627 44.4679L30.4617 44.303L31.0244 44.1696L31.4573 43.4433L31.7446 43.3176L31.8193 42.8662L31.7839 42.2263L31.6265 41.8651L31.7249 41.4686L32.6221 41.3704L33.0549 41.2723L33.2123 41.8298L32.7913 41.9672L32.6575 42.6934L32.8582 43.09L33.5862 43.0585L33.9443 42.6424L33.9836 42.2655L34.0269 41.9318L34.5031 41.9358L34.7667 42.2341L35.1996 42.0692L35.4986 41.8062L35.8095 41.4607L35.8331 41.2134L35.6993 40.7816L35.4986 40.2869L35.3334 39.7923L35.0028 39.6274L35.1012 39.329L35.4671 39.1955L36.8287 39.062L36.7972 38.4653L36.4667 38.3672L36.1361 38.1355L36.1873 37.6291L36.1479 37.2522L36.1873 36.8754L36.1991 36.5495L36.7972 36.5181L37.0176 36.1216L37.2065 35.8978L36.9979 35.5838L36.6673 35.3521L36.8326 35.1519L37.0963 35.1833L37.3284 35.3482L38.025 35.2815L38.1233 34.5552L38.387 33.6954L38.0564 33.3657L37.5095 33.668V32.8396L37.8243 32.6394L37.8125 31.8581L37.9226 31.4459L38.2532 31.1829L38.9182 31.0848L39.1819 30.755L39.4376 30.386L39.6147 30.0248L39.6462 29.5929L39.9453 29.3927L40.2758 29.0276L40.6418 29.059L41.0077 29.3888L41.6728 29.1572L42.0387 29.0904L42.5346 28.6939L42.8808 28.1129L43.1838 27.6222L43.7269 27.3709L44.0928 27.3042L44.4234 27.3709L44.9546 27.6339L45.7849 27.8342V26.8331L46.45 26.7349L46.8159 26.998L47.481 27.0294L47.7131 26.3345L47.9177 25.9498L48.4096 25.8359L48.8425 26.0008L49.5075 25.7378H50.2355L50.8455 25.353L51.8568 24.8662L52.7382 24.1203L53.7063 23.3273L55.115 22.1417L55.7761 21.2191L56.6576 20.8226L57.5194 20.6892L57.9168 19.8294L58.5149 19.6645L58.4834 18.8048L58.9517 18.1452L60.2739 17.2226L61.3718 16.622L62.5326 15.6955L63.5833 14.8985L64.5081 14.6787L65.6846 14.506L67.2115 14.0741L68.0732 13.6776L69.6669 13.5795L70.0644 13.8778L70.0329 14.6708L70.0919 15.3854Z" fill="#E2E8F0"/>
</svg>
