<svg width="201" height="255" viewBox="0 0 201 255" fill="none" xmlns="http://www.w3.org/2000/svg">
<path d="M175.81 72.2095L178.029 73.0592L179.459 75.6865L180.065 77.9831L178.521 80.05L175.856 82.4293L172.377 83.6373L170.355 83.1229L170.268 80.3578L171.665 78.0612L172.685 75.7692L173.438 75.0802L172.984 73.5782L175.81 72.2095Z" fill="#E2E8F0"/>
<path d="M178.6 244.569L178.66 244.629L178.747 244.583L178.82 244.597V244.707L178.733 244.753L178.604 244.721L178.545 244.661V244.583L178.6 244.569ZM178.09 244.243V244.335L178.251 244.551V244.689L178.177 244.78V244.858L178.09 244.904L178.131 245.387L178.278 245.465L178.338 245.557L178.411 245.57L178.499 245.694V245.773L178.439 245.818L178.411 245.727H178.177L178.163 245.837L178.062 245.823L177.961 245.933L177.947 246.011L177.86 246.044V246.278L177.92 246.324L178.081 246.806L178.673 247.27L178.935 247.394L179.11 247.426L179.602 247.688L179.703 247.78L179.73 247.872L179.818 247.918L179.831 248.074L179.73 248.244L179.583 248.336L179.409 248.878L179.206 249.034L178.977 249.047L178.747 248.878L178.168 248.956L178.094 248.538L177.952 248.446L177.892 248.276L177.561 247.918L177.286 247.78L177.226 247.702L177.083 247.656H176.909L176.504 247.794L176.445 247.715L176.284 247.637L176.137 247.435L175.976 247.325L175.787 246.953H175.627L175.553 246.893L175.438 246.691L175.323 246.613V246.489H175.075L175.034 246.567H174.992L174.933 246.411L175.048 246.301V246.191L174.988 246.08L174.9 246.034V245.924L174.841 245.938L174.827 245.892L174.9 245.754L174.974 245.74L174.96 245.524L175.048 245.479L175.061 245.414L175.02 245.4L174.933 245.088L174.455 244.56V244.468L174.514 244.408L174.73 244.298H174.832L175.121 244.532H175.539L175.682 244.454L175.797 244.486L175.884 244.44L176.026 244.486L176.054 244.578L176.114 244.61L176.173 244.532L176.651 244.454L177.474 244.395L177.603 244.551H177.644L177.86 244.413L177.975 244.275L178.09 244.243ZM116.17 229.173L116.272 229.237L116.345 229.361H116.46V229.425L116.607 229.471L116.648 229.687L116.575 229.954L115.996 230.326V230.417L115.748 230.555L115.647 230.679L115.633 230.771L115.545 230.881L115.417 230.946V230.992L115.086 231.129L114.769 231.005L114.728 230.868L114.815 230.62L115.104 230.417L115.164 230.183L115.279 230.105V229.995L115.178 229.825L115.164 229.715L115.325 229.623L115.472 229.435L115.587 229.37L115.716 229.356L116.033 229.186L116.17 229.173ZM110.192 214.654L110.67 214.778L110.711 214.87L110.812 214.934V215.012L110.899 215.044L110.927 215.182L110.867 215.338L110.982 215.292L111.07 215.384L111.111 215.494L111.051 215.54L111.037 215.682L111.166 215.871V215.995L111.442 216.119L111.717 216.523L112.048 216.895L112.09 217.097L112.002 217.189L112.09 217.235L112.218 217.097L112.448 217.488L112.522 217.52L112.581 217.644H112.641L112.944 217.97L112.797 218.126L112.669 218.066L112.494 217.8H112.407L112.333 217.864L112.218 217.74L112.03 217.272L111.699 216.913L111.161 216.165L110.844 215.82L110.683 215.508L110.38 215.15L110.353 215.039L110.164 214.837L110.104 214.902L110.031 214.87V214.745L110.104 214.654H110.192ZM174.083 211.007L174.156 211.209L174.312 211.177L174.4 211.223L174.992 211.034L175.006 211.126L175.093 211.236L175.052 211.301L175.112 211.549L175.084 211.686L175.126 211.732L175.227 211.719L175.287 211.765L175.172 211.843L175.185 211.889H175.084L175.011 211.98L175.038 212.072L174.923 212.274L174.951 212.366L175.112 212.32V212.458L175.071 212.504H174.91L174.882 212.582L174.809 212.614H174.68L174.551 212.894V212.94L174.813 213.188L174.841 213.358L175.015 213.579L175.029 213.643L174.983 213.675L174.519 213.629L174.459 213.707L174.285 213.694L174.184 213.57L174.11 213.303L173.968 213.225L173.88 213.115L173.301 212.991L173.26 212.945L173.173 212.991L173.071 212.913V212.789L173.159 212.6V212.228L172.97 211.856L172.828 211.686L172.626 211.549L172.58 211.425L172.626 211.177L172.699 211.085H172.842L173.292 211.209L173.32 211.287H173.421L173.522 211.241L173.536 211.177L173.71 211.039L174 211.071L174.014 211.007H174.083ZM175.126 210.864L175.227 210.929V211.007L175.153 211.053L175.025 210.942L175.052 210.864H175.126ZM170.25 185.836L170.291 185.928L170.42 185.864H170.549L170.59 185.942L170.516 186.033L170.388 186.047L170.3 186.125L170.199 186.093L169.983 186.125V186.047L170.25 185.836ZM67.2793 180.549L67.6286 180.641L67.5275 180.875L67.3988 180.921L67.3713 180.986L67.3988 181.155L67.3575 181.206L67.3299 181.472L67.4034 181.537L67.4172 181.679L67.3161 181.803L67.2426 181.743L66.9944 181.693L66.806 181.959L66.659 182.005L66.6865 182.207L66.7738 182.29V182.455L66.7003 182.589H66.6406L66.5992 182.556L66.6268 182.465L66.5716 182.4L66.4292 182.368L66.3878 182.308L66.227 182.354V182.23L66.0386 182.212L66.0524 182.152H66.1994L66.2408 182.106L66.227 182.047L66.0248 182.079L66.0661 181.955L66.1718 181.89L66.1672 181.592L65.9788 181.468L65.7491 181.151H65.6893L65.6296 181.087L65.6158 180.93L65.7169 180.903L65.7766 180.995L65.8088 180.963L65.7628 180.871L65.8639 180.884L65.9237 180.806L66.1397 180.82L66.2546 180.728L66.4843 180.742L66.6865 180.646L67.2793 180.549ZM76.3876 178.758L76.6495 178.799V178.942L76.576 179.006V179.084L76.7092 179.272L76.6909 179.318L76.576 179.254L76.4013 179.364L76.2589 179.254H76.1532L76.0521 179.176L76.0429 179.084L75.951 179.052L75.9786 178.896L76.0383 178.85L76.1256 178.863L76.1854 178.785L76.3876 178.758ZM79.5584 178.184L79.6917 178.234L79.733 178.423L79.6917 178.455L79.6319 178.409V178.629L79.5722 178.675V178.739L79.4114 178.831V178.909L79.3378 178.896L79.4252 179.157L79.3424 179.19L79.2505 179.346L79.1954 179.236L79.1494 179.254L79.1356 179.144L78.961 179.047L78.9794 178.969L78.9197 178.937L78.9794 178.781L79.0621 178.767V178.675L78.9197 178.551V178.459L78.9932 178.335L79.0989 178.271L79.2873 178.225L79.4022 178.271L79.5584 178.184ZM78.722 178.138L78.7634 178.248L78.6623 178.409H78.4601L78.4739 178.234H78.5153L78.5566 178.156L78.722 178.138ZM71.3371 178.101L71.5118 178.216L71.498 178.326L71.4245 178.386H71.3371L71.1487 178.698L71.0017 178.652L70.9419 178.808L70.7811 178.749L70.7673 178.606L70.8546 178.542H70.9419L71.0568 178.4V178.225L71.2314 178.147L71.2682 178.083L71.3371 178.101ZM70.8316 177.665L70.9144 177.812L70.9052 178.064L70.8316 178.078L70.8041 178.032L70.6432 178.018L70.4824 177.908L70.4686 177.688L70.8316 177.665ZM70.3951 176.604L70.4089 176.654L70.4962 176.668V176.723L70.3215 176.934V176.636L70.3951 176.604ZM61.8016 174.84L61.8751 174.932L61.8613 175.056L61.921 175.088V175.166L61.8337 175.23L61.7326 175.184L61.6913 175.06L61.7051 174.918L61.8016 174.84ZM60.9744 174.587L61.0617 174.757L61.2501 174.789L61.2363 174.867L61.1122 174.835L61.0203 174.881L60.8319 174.803L60.8457 174.725L60.9192 174.711L60.9054 174.596L60.9744 174.587ZM72.3206 173.283L72.4079 173.301V173.384L72.3481 173.43H72.2884L72.247 173.37L72.3206 173.283ZM72.247 172.566L72.3206 172.676L72.3068 172.814L72.1597 172.768V172.626L72.247 172.566ZM104.199 172.534L104.227 172.58H104.356L104.397 172.736L104.337 172.8L104.424 172.975L104.365 172.961L104.291 172.837L104.163 172.851L104.075 172.709L104.048 172.644L104.075 172.552L104.199 172.534ZM71.5485 171.891L71.5945 171.937L71.6864 171.9L71.7415 172.029L71.5118 171.997L71.498 171.9L71.5485 171.891ZM72.247 171.813L72.3068 171.937L72.4814 172.079L72.5412 172.222L72.4998 172.364L72.5733 172.378L72.6468 172.497L72.4768 172.529L72.4309 172.451L72.27 172.497L72.0219 172.405L72.0081 172.484L71.907 172.497L71.7461 172.653H71.691L71.7323 172.828L71.6588 172.934L71.5439 172.952L71.5302 172.888L71.5715 172.874L71.5577 172.81L71.5991 172.764L71.4842 172.732L71.3693 172.796L71.3555 172.686L71.3969 172.64L71.2544 172.562L71.2682 172.438L71.3417 172.36H71.4704L71.5991 172.424L71.714 172.281L71.7278 172.203L71.668 172.185L71.6956 172.061L71.8013 172.029L71.8151 172.075L71.9162 172.093L71.9483 172.001L72.0035 172.043L72.1046 172.015L72.1781 171.978L72.1643 171.873L72.247 171.813ZM71.7875 171.689L71.8748 171.781L71.8472 171.873H71.7875L71.6726 171.716L71.691 171.675L71.7875 171.689ZM71.0614 171.372L71.1349 171.574L71.1074 171.625H70.9787L70.9373 171.579V171.487L70.9971 171.473L70.9695 171.381L71.0614 171.372ZM70.0366 170.678L70.078 170.715L70.0642 170.798L70.1653 170.807L70.2204 170.871V171.014L70.3491 170.982L70.3767 171.06H70.4181L70.4043 170.982L70.5054 170.949L70.5329 170.807H70.6065L70.6524 170.858L70.6386 170.922L70.7397 170.982L70.7673 171.078L70.7076 171.188L70.68 171.501L70.7627 171.487L70.7811 171.831L70.9419 171.859L70.9741 171.909L70.7995 172.13H71.0017L71.0752 171.928H71.1349L71.2085 172.038L71.1212 172.162L71.1763 172.318L71.1349 172.41L71.0752 172.396L70.9603 172.461L70.9465 172.525H70.873L70.8546 172.447L70.7259 172.511L70.8408 172.686L70.7673 172.81L70.8087 172.998L70.9235 173.012L70.9695 173.104L71.0522 173.15L71.0384 173.214H70.9098L70.8224 173.15L70.634 173.214L70.5927 173.058L70.4181 173.026L70.3032 173.168L70.1147 173.104L70.055 173.168L69.8069 173.264L69.7793 173.09L69.5311 173.012L69.5449 172.966L69.646 172.934L69.7747 172.699L69.8942 172.608L69.9217 172.511L70.0228 172.507L70.009 172.382L69.908 172.226V172.162L70.0228 172.084L69.9217 172.098L69.8804 171.923V171.859L69.9677 171.827L69.9723 171.776L69.8666 171.73L69.8528 171.666L69.8804 171.524L70.055 171.349V171.225L69.9401 171.147L69.8804 170.913L69.7195 170.881L69.8344 170.66L70.0366 170.678ZM60.9468 169.792L61.0479 169.916L61.2087 169.948L61.2639 170.026L61.2501 170.09L61.4523 170.077L61.535 170.187V170.279L61.3742 170.389V170.564L61.2731 170.545L61.1582 170.623H60.9974L60.9376 170.701H60.7078L60.6986 170.605L60.6389 170.577L60.6113 170.343L60.7722 170.169H60.8135L60.8549 170.012L60.8273 169.87L60.8871 169.792H60.9468ZM104.333 168.299L104.346 168.396L104.475 168.428L104.415 168.602L104.254 168.492L104.241 168.336L104.333 168.299ZM174.602 166.779L174.643 166.811L174.602 166.985L174.459 166.972L174.446 166.88L174.487 166.816L174.602 166.779ZM72.2792 164.946L72.4952 165.121L72.656 165.167L72.6377 165.263L72.3344 165.295L72.3206 165.341H72.247L71.8702 165.653H71.521L71.3739 165.732L71.1671 165.727L71.112 165.842L71.0522 165.856H70.8776L70.7627 165.759L70.7949 165.337L70.9971 165.35L71.0384 165.598L71.0798 165.617L71.1395 165.506H71.1993L71.2269 165.571L71.328 165.479L71.3785 165.277L71.6772 165.263L71.8059 165.088L71.9943 165.056L72.1413 165.088L72.2792 164.946ZM71.452 164.032L71.4934 164.147L71.4796 164.349L71.305 164.413L71.1303 164.4L71.043 164.335L71.0568 164.225L71.1166 164.193L71.1303 164.037H71.2452L71.305 164.115L71.3004 164.193L71.3417 164.161L71.328 164.05L71.4015 164.005L71.452 164.032ZM72.0586 162.498L72.0862 162.672L72.0586 162.718L71.9575 162.672L71.93 162.581H71.7875L71.8151 162.516L72.0586 162.498ZM72.4952 161.717L72.6101 161.791V161.855L72.463 161.919L72.4355 161.745L72.4952 161.717ZM79.5584 158.915L79.5722 158.998L79.3976 159.122L79.3241 159.025L79.2505 159.03L79.2643 158.966L79.5584 158.915ZM78.2074 158.635L78.3085 158.718L78.4096 158.704L78.4371 158.782L78.5382 158.846V159.067L78.4371 159.191L78.4647 159.315L78.5796 159.379L78.7404 159.347L78.8002 159.425L78.7129 159.471L78.6945 159.581L78.6393 159.6L78.6669 159.756L78.768 159.788L78.8277 159.691L78.9288 159.737L79.0575 159.646L79.0759 159.517H78.9426L78.8553 159.567L78.7404 159.554V159.522L79.0437 159.443V159.333L79.0851 159.283L79.0437 159.195L79.1035 159.182L79.1173 159.117L79.3057 159.195L79.2919 159.338L79.3195 159.416L79.3792 159.443L79.3746 159.508L79.4343 159.522L79.5217 159.43L79.563 159.443L79.609 159.554L79.5492 159.646L79.5906 159.691L79.5768 159.816L79.7055 159.88V160.022L79.8525 160.132L79.779 160.321V160.463L79.8388 160.56L79.779 160.573L79.7193 160.73L79.7606 160.775L79.8342 160.771L79.7928 160.913L79.8525 160.945L79.8204 161.042L79.8617 161.198L79.9031 161.276L80.1053 161.308L80.1788 161.373L80.2661 161.327L80.3397 161.373L80.3213 161.437H80.4499L80.4362 161.749L80.5097 161.846L80.3488 161.814L80.1466 161.878L80.1053 161.8L80.0915 161.91L79.9307 161.988L79.8571 161.896H79.7698V161.961L79.6687 162.071L79.6549 162.02L79.4665 161.993L79.3516 161.837L79.393 161.712L79.5217 161.699L79.5079 161.602L79.4114 161.506L79.2781 161.552L79.2367 161.455L79.1081 161.396L78.9472 161.409L78.8737 161.52L78.382 161.455L78.1063 161.487L77.9041 161.391L77.7892 161.566L77.587 161.657V161.735L77.4997 161.814L77.5134 161.91L77.5548 161.864L77.6421 161.896L77.6559 161.974L77.5962 161.988L77.5364 161.924L77.3756 161.938L77.3342 162.268L77.132 162.314L77.1182 162.204L77.0585 162.181L76.9988 162.232V162.328L76.8379 162.342L76.8241 162.406L76.6219 162.516L76.6817 162.64L76.6219 162.829L76.5346 162.861L76.4795 162.751L76.4197 162.718L76.2313 162.751L76.1578 162.875L76.1854 163.017L76.0567 163.031L75.9694 163.219L75.8407 163.251V163.518L75.7993 163.55L75.9464 163.614L76.0337 163.568L76.1486 163.614L76.0889 163.835L75.9602 163.926L75.8315 163.959V164.005L75.9464 164.101L75.9923 164.432L75.7901 164.459L75.7488 164.381L75.5604 164.367L75.4731 164.216L75.372 164.211L75.3122 164.289L75.2709 164.257L75.2846 164.147L75.1422 164.179L75.0135 164.101L74.9262 164.147L74.94 164.271L74.7791 164.367L74.4023 164.381L74.2599 164.491L74.0301 164.427L73.9703 164.363L73.9566 164.11L74.1312 163.908L74.0714 163.628L73.7406 163.389L73.667 163.44L73.6073 163.426L73.5338 163.55L73.2305 163.564L73.0696 163.283L73.1156 163.187L73.088 163.109L72.9869 163.031H72.8123L72.7847 162.875L72.8996 162.778L72.8445 162.668L72.5825 162.778L72.3941 162.732L72.3803 162.498H72.4538L72.4263 162.401L72.486 162.356V162.153L72.5733 162.121L72.5595 162.186L72.6009 162.218L72.7296 162.153L72.702 162.075L72.7434 161.841L72.8445 161.777L72.8858 161.791L72.8996 161.882L72.8261 161.915V161.993L72.9134 162.025L72.9272 162.071H73.0145L73.0558 162.13L73.0421 162.195L72.9685 162.209L73.0145 162.553L73.088 162.645L73.2029 162.613L73.304 162.728L73.2718 162.884L73.3316 163.008L73.2029 163.118L73.1891 163.242L73.35 163.352H73.4786L73.4051 163.274L73.4189 163.164L73.4786 163.118L73.6808 163.086L73.6533 162.93L73.713 162.865L73.8003 162.911L73.7865 163.003L73.8463 163.1L73.9749 162.971H74.0623V163.081L74.2369 163.27L74.0623 163.458L74.1909 163.711H74.2323L74.2736 163.614H74.361L74.3747 163.522L74.4345 163.476L74.4207 163.412L74.508 163.348L74.4529 163.017L74.554 162.985L74.5815 162.921H74.6229L74.6643 162.999L74.7837 163.031L74.7975 163.173L74.8848 163.049L74.9721 163.017L75.133 163.077V163.219L75.1789 163.265L75.3076 163.219L75.28 163.077H75.3949V163.045L75.2525 162.966V162.856L75.0779 162.7L75.0503 162.544L75.0916 162.53L75.2065 162.608L75.2938 162.604L75.3076 162.558L75.4087 162.571L75.3949 162.475L75.4363 162.461L75.496 162.195L75.5558 162.163L75.5971 162.209L75.6707 162.144L75.7304 161.956L75.5512 162.002L75.4363 162.098L75.3076 162.08L75.2663 162.144L75.2065 162.112V162.066H75.0916L75.0503 162.002L74.9354 162.034L74.8343 162.002L74.7194 162.158H74.6183L74.531 162.094L74.315 162.218L74.1863 162.204L74.1588 162.236L74.099 162.222L74.0714 162.126L73.9106 162.112L73.8371 161.988L73.7222 162.02L73.736 162.098L73.6762 162.176L73.6349 162.163L73.6487 162.103L73.5476 162.13L73.5751 161.956L73.6487 161.924V161.892L73.5338 161.905L73.5476 161.823L73.5062 161.749L73.5476 161.703L73.69 161.639L73.7498 161.685L73.8233 161.653L73.8417 161.699L73.9703 161.667L74.0577 161.731L74.1588 161.653V161.607H74.1174L74.1312 161.515L74.3058 161.607L74.3334 161.543L74.2461 161.464L74.361 161.354L74.3472 161.276L74.4345 161.304V161.244L74.2047 161.037L74.0301 161.226L73.8692 161.244L73.7681 161.4L73.7222 161.386V161.322L73.5935 161.386L73.52 161.34L73.4924 161.405L73.3637 161.451L73.2029 161.308L73.2167 161.23L73.4327 161.216L73.4465 161.042L73.5797 160.945L73.5476 160.821L73.7498 160.711L73.7911 160.615L73.7773 160.44L73.5154 160.142L73.474 159.999L73.6349 159.967L73.8233 160.018L73.9244 159.926L74.1725 159.972L74.2139 159.848L74.3288 159.724L74.5034 159.737L74.5494 159.673V159.531L74.6918 159.466L74.7194 159.623L74.8343 159.701L74.8067 159.825L74.8481 159.903L74.8343 159.999L74.7056 160.064L74.678 160.16L74.8067 160.256V160.38L74.8848 160.335L74.9676 160.348L74.8802 160.629L75.0227 160.661L75.0962 160.55L75.2387 160.564L75.28 160.766L75.3398 160.798V160.674L75.4271 160.578V160.514L75.3536 160.482L75.4271 160.279L75.3811 160.247L75.3536 160.013L75.2663 159.967L75.2938 159.843H75.4225L75.5236 159.953H75.8269L75.8545 159.921V159.829L75.7855 159.714L75.7993 159.494L75.712 159.462L75.6844 159.319L75.5833 159.287L75.6569 159.099L75.7718 159.003L75.8131 158.846L76.1164 158.879L76.0889 159.021H76.2359V158.975L76.3232 158.961L76.3508 158.897H76.4381L76.4105 159.021L76.4703 159.035L76.4978 158.97L76.5852 158.957L76.5116 158.86L76.6265 158.764L76.6173 158.699L76.7046 158.686L76.746 158.75L76.9068 158.736L76.9206 158.796L76.9804 158.782L77.0401 158.846L77.1412 158.8V158.924L77.2423 158.957L77.155 159.081L76.9942 159.048L76.9068 159.159V159.315L76.9804 159.329L77.0493 159.517L76.9482 159.549L76.9666 159.797L76.8793 159.926L76.9206 160.018L76.8931 160.096L76.9528 160.192L76.8931 160.224L76.8517 160.38L76.7644 160.426L76.7782 160.532L76.6771 160.647L76.7368 160.661L76.8839 160.537L76.8701 160.426L76.985 160.238L77.0999 160.174L77.1872 160.05L77.1734 159.958L77.2745 159.765V159.627H77.1872L77.1734 159.549L77.2469 159.439L77.4215 159.361L77.4491 159.251L77.5778 159.232L77.711 159.283L77.7386 159.457L77.6237 159.632L77.6375 159.728L77.6835 159.724L77.711 159.618H77.7708L77.7846 159.76H78.1614V159.508L78.0879 159.476L78.0603 159.379L77.9592 159.393L77.9316 159.549H77.8167L77.7892 159.471L77.95 159.296L78.0098 159.062L78.0971 159.03L78.1246 158.966L78.1109 158.869H77.95L77.9362 158.837L78.1109 158.773L78.1246 158.663L78.2074 158.635ZM80.7992 158.116L80.813 158.231L80.7349 158.277L80.7257 158.355H80.62L80.5924 158.291L80.6659 158.226V158.116H80.7992ZM73.9428 157.923L74.0301 158.075L74.0163 158.139L74.0623 158.171L74.0301 158.249L73.883 158.263L73.6946 158.167L73.7222 158.102L73.8233 158.075L73.7957 157.978L73.8417 157.932L73.9428 157.923ZM75.9234 157.9L76.0245 158.01L76.1118 157.964L76.2865 158.088L76.2589 158.562L76.167 158.608L76.0934 158.823L75.9648 158.699L75.8637 158.732L75.7901 158.667L75.689 158.704L75.6753 158.64L75.5466 158.58L75.5328 158.483L75.3444 158.359V158.217H75.6201L75.7166 158.107L75.7626 157.951L75.8499 157.964L75.9234 157.9ZM77.7616 157.9L77.7754 157.964L77.6881 158.061L77.4859 158.093L77.5272 158.015L77.7616 157.9ZM80.0226 157.661L80.0777 157.693L80.0823 157.758L79.9353 157.854L79.8479 157.73L80.0226 157.661ZM72.6652 156.329L72.725 156.348V156.444L72.6239 156.508L72.5963 156.43L72.6652 156.329ZM77.3434 156.283L77.371 156.329H77.4721L77.4307 156.55L77.3021 156.582L77.2745 156.678L77.1734 156.711L77.1136 156.885H77.1872L77.201 156.931L77.0999 156.995L77.0585 156.963V156.839L77.1458 156.605L77.0723 156.619L77.0585 156.554L77.1642 156.508L77.1596 156.384L77.2193 156.288H77.3434V156.283ZM78.0971 155.718L78.1568 155.783L78.143 155.861L78.0833 155.796H77.973L77.9224 155.842H77.6191L77.5318 155.953L77.5043 155.939L77.6191 155.764L77.9224 155.796L77.95 155.718H78.0971ZM78.8048 155.512L78.9059 155.654L79.0116 155.7L78.9794 155.764L79.007 155.829L78.6899 155.907L78.6164 155.893L78.5888 155.829L78.4279 155.893L78.3682 155.861V155.783L78.4555 155.737L78.5153 155.594H78.575L78.6026 155.672L78.6899 155.659L78.7496 155.627L78.7634 155.516H78.8048V155.512ZM78.9334 155.264L78.9794 155.452L78.9059 155.438L78.8461 155.503L78.8186 155.47L78.8461 155.296L78.9334 155.264ZM74.678 154.836L74.7056 154.887H74.7791L74.8067 154.961L74.8665 154.965L74.9262 155.14L75.1008 155.186H75.2157L75.2295 155.043H75.303L75.4317 154.887L75.5052 154.951L75.6063 154.965L75.6247 155.016L75.565 155.08L75.6063 155.236L75.8269 155.333L75.7855 155.585L75.8912 155.567L75.9188 155.631H76.0061L76.0337 155.553H76.2497L76.3508 155.36L76.4059 155.333L76.4335 155.034L76.4795 154.988L76.5484 155.02L76.3002 155.617L76.098 155.613L75.9096 155.852V155.962L75.9832 156.008L76.0567 156.182H76.1991L76.2589 156.228L76.1854 156.306L76.144 156.559L76.0705 156.591L75.9234 156.495L75.7764 156.481L75.7166 156.591L75.6017 156.655L75.6615 156.89H75.735L75.8499 157.064L75.8085 157.078L75.6615 156.968L75.6017 156.871L75.4593 156.885L75.3857 156.949L75.5328 157.073V157.184L75.6477 157.06L75.7074 157.28L75.9234 157.078L76.098 157.188L76.0843 157.409L75.9694 157.487L75.8866 157.455L75.7672 157.551L75.7534 157.675L75.8407 157.831H75.7534L75.6661 157.909L75.6247 158.052L75.5512 158.098L75.4363 158.084V157.909L75.3214 157.923L75.2019 157.859L75.0319 157.845L75.0043 158.02L74.8894 158.006L74.9308 157.886L74.9032 157.707L74.9905 157.675L75.0043 157.551L75.0916 157.487V157.422L75.1973 157.436L75.28 157.34V157.275L75.1835 157.165L75.2111 157.069L75.1698 157.023H75.2111L75.2249 156.959L75.1835 156.862L74.8619 156.678L74.7332 156.522L74.5586 156.554L74.5126 156.508L74.5264 156.444L74.6413 156.49L74.7286 156.426V156.38L74.5815 156.315L74.554 156.141L74.6275 156.109V156.063L74.5586 156.077L74.485 155.999L74.4942 155.888L74.4253 155.856L74.3839 155.746L74.2369 155.792L74.2093 155.7L74.0485 155.714L73.9749 155.792L73.9887 155.856L73.8463 155.98V156.058L73.7727 156.123L73.7452 156.325L73.6441 156.389L73.6027 156.375L73.5889 156.233H73.5016L73.4602 156.136L73.3729 156.09L73.258 156.155L73.2718 156.09L73.1707 155.994L72.4906 156.903L72.5182 156.936L72.6331 156.89L72.6514 157.014L72.5917 157.124H72.4906L72.509 157.266L72.463 157.331L72.4217 157.317L72.3941 157.427L72.0219 157.367L71.861 157.556L71.6129 157.542L71.5256 157.606V157.51L71.4245 157.496L71.2958 157.574L71.2544 157.652L71.2958 157.795L71.4566 158.029L71.3417 158.171V158.249L71.4888 158.405L71.4612 158.608L71.3877 158.672L71.5164 158.796V158.906L71.5761 158.984L71.5347 158.998L71.5485 159.172L71.5026 159.205L71.4015 159.517L71.328 159.563H71.0982L71.0246 159.641L71.0982 159.926L71.2269 160.036L71.1855 160.206L70.9971 160.38V160.569L71.1533 160.633V160.743L71.0798 160.775L71.066 160.964L71.1074 161.01L71.2958 161.042L71.1809 161.262L70.873 161.29L70.8179 161.226L70.5973 161.152H70.4456L70.3491 161.198L70.3078 161.069L70.1193 161.042L69.9769 161.088L69.9171 161.166V161.258L69.8298 161.354L69.6874 161.368L69.4852 161.29L69.3243 161.354L69.3105 161.419H69.1957L69.1083 161.561L69.0072 161.515L68.8464 161.561L68.6442 161.483L68.6028 161.437L68.6442 161.23L68.7637 161.138L69.1681 160.964L69.3473 160.587L69.5036 160.615L69.7517 160.9L69.8942 160.886L69.9217 160.918L70.1285 160.794L70.2296 160.684V160.606L70.4594 160.431L70.4456 160.229L70.5191 160.119L70.5054 160.022L70.5467 160.008L70.5329 159.884L70.2434 159.65H70.0964L69.9355 159.572L69.7747 159.604L69.7609 159.494L69.8023 159.448L69.8942 159.462L69.862 159.26L69.9631 159.136H70.0045L70.032 159.2H70.101L70.1469 159.14L70.248 159.218L70.2664 159.361L70.1929 159.457V159.535L70.2342 159.549L70.4364 159.315L70.3951 159.081L70.4686 158.966V158.874L70.5559 158.796L70.5697 158.686L70.7719 158.589L70.6892 158.382L70.5697 158.318L70.5146 158.382L70.4135 158.318L70.2986 158.208L70.2572 158.098L70.3583 157.974L70.5329 157.877V157.785L70.4318 157.703L70.4043 157.487L70.4732 157.409L70.5191 157.188H70.6938L70.7213 157.151V157.046L70.8087 156.903L70.9373 156.481L71.0798 156.495L71.1671 156.384L71.2085 156.508L71.3096 156.495L71.2085 156.352L71.2223 156.306L71.1487 156.293L71.089 156.338L71.0292 156.274V156.132L71.3188 156.118L71.3463 156.072L71.5623 156.104L71.6175 156.169L71.5761 156.247L71.6037 156.371L71.4566 156.481L71.4428 156.545L71.3555 156.559V156.701L71.4566 156.798L71.645 156.733L71.7048 156.908L71.8656 156.986L71.9529 156.972L72.0127 157.05L72.1551 157.064L72.2838 156.922L72.4309 156.89L72.4906 156.766L72.7939 156.403L72.7663 156.182H72.9547L73.111 156.008L73.0972 155.93L72.9547 156.012L72.9088 155.999L72.9685 155.842L72.9272 155.7L73.0145 155.649L73.0421 155.48L73.1156 155.461L73.1432 155.305L73.4051 155.259L73.4327 155.02L73.4786 155.039V155.195L73.52 155.241H73.6211L73.8509 155.172L73.8646 155.112H73.9933L74.0531 155.016L74.1266 155.062L74.1955 154.993L74.3104 155.029L74.4023 154.859L74.678 154.836ZM79.0667 154.543L79.0943 154.685L79.0529 154.749L79.1494 154.827L79.154 154.887L79.0943 154.924L78.8783 154.859L78.8921 154.795L78.9334 154.814L78.8921 154.625L79.0667 154.543ZM79.3103 154.134V154.419L79.2689 154.483L79.2965 154.579L79.2551 154.593L79.1678 154.515L79.2 154.451L79.154 154.262L79.2551 154.138H79.3103V154.134ZM78.2395 153.918L78.3131 153.991L78.2855 154.115L78.1384 154.051L78.0971 153.987L78.1384 153.909L78.2395 153.918ZM73.4694 153.785L73.5246 153.803V153.849L73.4648 153.913L73.4786 153.991L73.4189 154.005L73.3913 153.863L73.4694 153.785ZM75.2019 153.739L75.2295 153.817L75.1973 153.863L75.2892 153.895L75.3444 154.051L75.4133 154.097L75.3995 154.143H75.3122L75.2984 154.193L75.1973 154.083L75.1238 153.849V153.771L75.2019 153.739ZM73.5384 153.592L73.5246 153.693L73.4373 153.771L73.4097 153.739L73.4373 153.642L73.4924 153.578L73.5384 153.592ZM76.098 152.779L76.0705 152.935L76.2129 152.889L76.2267 152.935L76.167 152.999L76.0383 153.004L75.9786 153.077L75.9188 152.981V152.838L76.098 152.779ZM104.751 152.407L104.765 152.549L104.838 152.563L104.866 152.453H104.939L105.013 152.563L104.925 152.609H104.622L104.595 152.563L104.636 152.485L104.751 152.407ZM73.2902 152.379L73.3316 152.48H73.4189V152.526L73.3316 152.572L73.3454 152.636L73.2718 152.779L73.3316 152.825L73.3729 152.981L73.1891 153.096L73.0742 152.907L73.1891 152.811L73.1478 152.623L73.2213 152.59L73.0926 152.512L73.065 152.416L73.1386 152.37L73.2902 152.379ZM75.4593 150.413L75.5604 150.583L75.5328 150.615L75.372 150.491L75.3857 150.413H75.4593ZM76.1394 150.243L76.1808 150.331L76.2543 150.363L76.1945 150.427L76.1808 150.583L76.2405 150.647H76.314L76.3462 150.519L76.5346 150.523L76.4932 150.698L76.6954 150.776V150.854L76.7552 150.868V151.098L76.7276 151.153L76.6265 151.185L76.5852 151.327L76.4565 151.323L76.4473 151.245H76.3876L76.36 151.341L76.4013 151.497L75.9832 151.419L75.8545 151.562L75.8131 151.736L75.6844 151.833L75.6109 151.768L75.542 151.562L75.3674 151.548L75.28 151.47V151.405L75.3811 151.327L75.3352 151.167L75.3995 151.139L75.4731 151.203L75.7028 151.079L75.7626 150.923L75.9096 150.735H75.951L75.9372 150.638H75.8499L75.8223 150.56L75.951 150.514L76.0245 150.386L76.1532 150.372L76.0934 150.275L76.1394 150.243ZM75.8085 149.338L75.8958 149.38V149.481L75.9372 149.513L75.8223 149.655L75.6201 149.701L75.5925 149.591L75.6799 149.577L75.6936 149.481L75.8085 149.338ZM75.6063 148.59L75.6339 148.677L75.5925 148.773L75.519 148.806L75.4777 148.773V148.695L75.5236 148.682L75.5374 148.585L75.6063 148.59ZM181.389 138.03L181.348 138.154L181.173 138.342L181.187 138.2L181.477 137.773L181.504 137.539H181.546V137.773L181.389 138.03ZM118.124 131.687L118.197 131.751L118.183 131.875L117.981 132.348L117.705 132.504L117.646 132.601L117.659 132.725L117.6 132.739L117.54 132.973L117.264 133.271L116.685 133.285L116.57 133.299L116.529 133.363L116.299 133.299L115.518 133.345L115.403 133.267L115.375 133.203L115.403 133.06L115.982 131.737L116.097 131.705L117.397 131.719L118.124 131.687ZM144.01 91.5699H143.968L143.982 91.4734L144.056 91.4275L144.01 91.5699ZM198.062 88.1939L198.324 88.2903L198.438 88.3868L198.54 88.7496L198.668 88.7818L198.71 88.8461L198.622 89.0528L198.48 89.0987L198.319 88.9701L198.218 89.0206L198.016 89.016L197.988 88.9839L197.859 89.0344L197.846 88.9701L197.731 89.0023L197.671 88.9242L197.51 88.9563L197.336 88.6394L197.147 88.4786L197.207 88.4649L197.368 88.5751L197.616 88.621L197.818 88.226L198.062 88.1939ZM176.472 62.5133L176.615 62.6557L176.555 62.8165L176.582 62.9267L176.684 62.991L176.858 63.0048L176.918 63.0507L177.047 63.037L177.12 63.0829L177.281 62.9221L177.584 62.9864H177.672L177.699 62.9405L177.929 62.9543L177.943 62.7797L178.03 62.7476L178.071 62.6373H178.274L178.517 62.573L178.719 62.7016L178.761 62.7797L178.889 62.7154L178.876 62.8257L179.105 63.0186L179.308 62.9864L179.455 63.0324L179.482 62.9864H179.625L179.597 63.1472L179.698 63.161L179.772 63.2712H179.873L179.974 63.3998H180.015L180.089 63.5927L180.277 63.6387L180.351 63.703L180.613 63.7489L180.64 63.827H180.682L180.856 64.0337L181.146 64.2725L181.187 64.3828L181.362 64.5757L181.49 64.8604L181.463 65.0534L181.55 65.453L181.463 66.0731L181.637 66.119L181.725 66.3119L181.812 66.39L181.886 66.3257L181.959 66.3395L181.932 66.5783H182.074L182.102 66.4818L182.262 66.5278L182.235 66.4175L182.382 66.3532L182.368 66.4818L182.483 66.6105L182.409 66.6885L182.423 66.785L182.249 66.9458L182.308 66.9917L182.382 67.2122L182.86 67.7679L182.975 67.7358L183.002 67.8139L183.117 67.846L183.232 68.0068L183.407 68.117L183.48 68.1492L183.609 68.117V68.0068L183.655 67.9746H183.728L183.857 68.1032L184.22 67.722H184.261L184.289 67.9287L184.349 67.8001H184.45L184.624 67.6577L184.726 67.4189H184.785L184.9 67.2902L185.001 67.2581L185.043 67.3545L184.969 67.451L184.781 67.5934L184.721 67.6899L184.592 67.7542L184.533 67.9471L184.675 68.0757L184.56 68.1859L184.574 68.2824H184.5L184.413 68.3605L184.386 68.5028L184.211 68.6131L184.151 68.8519L184.211 68.9943L184.326 69.201L184.514 69.3939L184.661 69.3296L184.689 69.3985L184.735 69.3939L184.781 69.2837L184.84 69.348L185.056 69.4123L185.158 69.619L185.42 69.6649L185.433 69.7292L185.374 69.7614L185.42 69.9681L185.346 70.014L185.286 70.1885L185.328 70.2666L185.732 70.1885L185.874 70.2529L186.237 70.2207L186.325 70.3172H186.513L186.587 70.4274L186.734 70.5239L186.936 70.4779V70.5744L187.083 70.703L187.184 70.6708L187.327 70.7168H187.543L187.556 70.7627L187.657 70.7949L187.644 70.8592L187.455 70.8729L187.34 71.0658L187.455 71.1118L187.483 70.9372L187.584 70.9051L187.644 71.0337L187.529 71.0475L187.543 71.1118L187.616 71.098L187.529 71.1945V71.2588L187.589 71.2909L187.648 71.2128H187.722L187.749 71.2771L187.635 71.3736L187.648 71.4838L187.501 71.5298L187.428 71.6262L187.198 71.7365L187.212 71.8329L187.111 71.9432L187.083 72.1958L187.157 72.1636L187.345 71.8145L187.648 71.7365L187.736 71.5941L187.938 71.4838V71.3874L188.025 71.2588L188.388 70.974L188.361 70.8775H188.273L188.214 71.0061L188.112 71.0383L188.085 70.9281L188.011 70.8959L188.039 70.7214L187.938 70.6892L187.878 70.7857L187.864 70.7351L187.952 70.4825L188.126 70.4687L188.154 70.3401L188.282 70.3263L188.531 70.4228L188.59 70.533L188.907 70.5468L188.921 70.6433L188.793 70.7397L188.646 70.726L188.604 70.804H188.765L188.839 70.9464H188.926L188.972 71.0107L189.248 70.997L189.275 71.075L189.404 71.1393L189.376 71.2358H189.316L189.33 71.3001L189.491 71.3323L189.505 71.4425L189.693 71.4103L189.781 71.5711L189.854 71.5849L189.868 71.4884L189.753 71.3277L189.767 71.2496L189.928 71.2174L190.144 71.2955L190.171 71.2312L190.401 71.245L190.488 71.1807V71.245L190.548 71.2909L190.36 71.4195L190.259 71.6722L190.318 71.7365V71.911L190.447 71.9432L190.589 72.0855L190.838 72.0396L190.897 72.0718L191.1 72.058L191.26 71.9156L191.463 71.9477L191.361 72.0901L191.26 72.1039L191.306 72.2141L191.219 72.2463L191.145 72.3749L191.219 72.5494L191.191 72.6597L191.306 72.7378H191.435L191.495 72.6918L191.536 72.5816L191.623 72.5357L191.651 72.3749L191.711 72.4208L191.784 72.3749L192.349 72.329L192.409 72.4071L192.754 72.4208L192.928 72.5173H193.016L193.076 72.5816L193.365 72.4851L193.439 72.5494L193.48 72.6781H193.595L193.737 72.6L193.765 72.5357H194.041L194.155 72.6781L194.183 72.6138L194.514 72.6L194.615 72.6643L194.817 72.6505L194.831 72.825L195.093 72.7607L195.295 72.825L195.337 72.7791L195.378 72.8113L195.553 72.6184L195.612 72.6229L195.686 72.701L195.814 72.6872L196.003 72.577L196.104 72.5908L196.191 72.4162L196.38 72.3979L196.541 72.3014L196.642 72.3152L196.541 72.6505L196.439 72.7148L196.38 72.9077L196.017 73.1925L196.03 73.2384L196.279 73.2844L196.508 73.1741V73.2384L196.568 73.2522L196.541 73.4405L196.6 73.5508L196.559 73.5829L196.573 73.7575L196.458 73.7712L196.329 73.9136L196.389 74.1663L196.329 74.2765H196.256L196.214 74.3408V74.4694L196.099 74.5475L196.086 74.8506L196.113 74.9609H196.2L196.228 75.0252V75.1859L196.168 75.2502L196.21 75.3926L196.325 75.3467L196.485 75.5855L196.628 75.5993L196.655 75.8198L197.046 76.0265V76.201L197.005 76.247L196.83 76.3113L196.715 76.2975V76.3756L196.789 76.3434L196.816 76.4537L196.931 76.4399L197.005 76.4858V76.6604L196.89 76.7247L196.876 76.8533L196.789 76.8395L196.816 76.9038L196.917 76.9176L196.931 77.1243L196.917 77.1886L196.816 77.2345L196.802 77.3631L196.977 77.6341L196.991 77.7765L197.064 77.8408L197.078 77.9189L197.455 78.2818L197.414 78.3598L197.239 78.3461L197.225 78.4425L197.441 78.4609L197.703 78.5849H197.919L197.965 78.4104L198.484 78.4563L198.659 78.392L198.76 78.4058L199.077 78.2312L199.339 78.2175L199.454 78.2496L199.509 78.3323L199.684 78.3139L199.785 78.4241H199.886L200.033 78.5206L200.006 78.8559L200.047 78.9661L200.134 78.9524L200.336 78.764L200.378 78.5757L200.506 78.7503L200.635 78.764L200.736 78.9064L200.851 78.9524L200.879 79.1131L200.819 79.1912L200.846 79.2555L200.819 79.5081L200.732 79.5724L200.401 79.5862L200.327 79.6184L200.313 79.7286H200.097L199.983 79.7745L199.665 80.1098L199.376 80.142L199.1 80.4773H198.999L198.668 80.6656H198.337L198.209 80.7759L197.758 80.9825L197.483 81.1709L197.018 81.2811L196.789 81.4097L196.559 81.6623L196.545 81.869L196.315 82.0574L196.242 82.3605L196.127 82.4386L195.865 82.5029L195.778 82.6637L195.575 82.7739L195.603 83.0127L195.562 83.123H195.3L195.125 83.0771L194.836 83.2837L194.606 83.5547V83.6512L194.679 83.7293L194.693 83.9498L194.546 84.0784L194.587 84.3953L194.399 84.5836L194.298 84.6158L194.224 84.7719L194.096 84.8684L193.82 85.2175L193.733 85.2634H193.558L193.416 85.5803L193.154 85.833L192.951 85.9111H192.823L192.749 85.9891L192.662 86.2923L192.432 86.499L192.29 86.7378L192.175 87.1007L191.973 87.4819L191.554 88.7496L191.366 89.558L191.09 91.4596L191.063 92.7733L191.122 93.646L191.325 94.5325L192.065 96.3697L192.023 97.27L192.124 98.4734L192.386 99.7228L192.69 100.531L193.181 101.578L193.531 101.923L193.733 102.001L193.949 101.987L194.022 102.033L194.082 102.176H194.344L194.431 102.286H194.62L194.56 102.382L194.633 102.492L194.606 102.557L194.174 102.603L194.027 102.699L193.985 102.685L193.999 102.653L194.303 102.479L194.261 102.368L193.857 102.511L193.797 102.368L193.521 102.212L193.246 102.29L193.172 102.387L193.232 102.607L193.204 102.672L193.351 102.626L193.365 102.8L193.406 102.846L193.609 102.658L193.724 102.69L193.71 102.897L193.609 102.975L193.65 103.085L193.549 103.149L193.576 103.278L193.737 103.246L193.838 103.168L193.898 103.296H194.059L194.289 102.947L194.362 102.869L194.404 102.887L194.142 103.283L194.027 103.361L194.013 103.439L194.275 103.705L194.215 103.769L194.114 103.737L194.027 103.815L193.884 103.769L193.783 103.99L193.843 104.307L193.857 105.129L193.917 105.271V105.428L194.045 105.57L193.93 105.809V105.965L193.972 106.121L194.059 106.231H194.133L194.16 106.277L193.972 106.309L193.912 106.433L193.783 106.512L193.769 106.608L193.54 106.622L193.512 106.59L193.282 106.668L193.122 106.81L192.892 106.907L192.428 106.985L192.313 107.095L192.166 107.586L192.152 107.935L192.193 108.202L192.267 108.298L192.469 108.284L192.529 108.363L192.676 108.349L192.703 108.413L192.832 108.459L192.86 108.537L192.786 108.601L192.814 109.042L192.887 109.12L193.305 109.102L193.406 109.231L193.42 109.327L193.305 109.391H193.144L193.085 109.313L192.694 109.378L192.593 109.488L192.418 109.502L192.317 109.58L192.143 109.865L191.982 109.878L191.881 109.956L191.853 110.034L191.403 110.223L191.274 110.351L191.302 110.48L191.242 110.512L191.228 110.59L191.288 110.636L191.315 110.811L191.201 110.875L191.04 111.063L190.966 111.238L190.838 111.394L190.419 111.693L190.144 112.042L189.739 113.071L189.638 113.704L189.578 113.833L189.565 114.467L189.491 114.784L189.505 115.082L189.464 115.211L189.505 115.275L189.491 115.45L189.362 115.574L189.335 115.73L189.261 115.84L189.248 116.015L189.045 116.313L189.018 116.52L188.829 116.915L188.701 117.388L188.627 117.498V117.705L188.802 118.509L188.742 119.138L188.627 119.267L188.567 119.441L188.338 119.648L188.278 119.758L187.901 120.025L187.653 120.309L187.363 120.989L187.249 121.793L186.812 122.202L186.697 122.409L186.219 122.771L185.943 122.739L185.695 122.914L185.392 123.401L185.351 123.699L185.236 123.855L184.73 124.094L184.657 124.204L184.542 124.269L184.413 124.301L184.124 124.6L183.981 124.613L183.866 124.71L183.664 124.756L183.462 124.93L183.361 125.215L183.319 125.233V125.311L183.145 125.468L183.103 125.624L183.03 125.702L182.883 126.065L182.754 126.57L182.841 127.36L183.071 127.755L183.131 128.04V128.577L183.002 129.004L182.612 129.684L182.437 129.872L182.033 130.189L181.683 130.364L181.164 130.819L180.659 131.779L180.558 132.284L180.571 133.088L180.815 133.956L181.219 134.76L181.38 134.948L181.454 135.123L181.702 135.357L181.95 135.481L182.037 135.577L182.212 136.018L182.226 136.225L182.065 136.432L181.978 136.684L181.904 136.698L181.775 136.886L181.716 137.01L181.688 137.309L181.527 137.529L181.555 137.277L181.683 137.056L181.711 136.693L181.771 136.661L181.784 136.427L181.725 136.349L181.683 136.363V136.583L181.624 136.487H181.578V136.661L181.665 136.836L181.578 137.18L181.316 137.525L181.1 137.635L181.04 137.731L181.068 137.855L181.182 137.979L181.155 138.136H181.114L180.939 137.915H180.778L180.59 138.025V138.103L180.443 138.278V138.453L180.126 138.77L180.139 138.976L180.052 139.086V139.321L180.24 139.794L180.342 140.455L180.227 140.662V140.896L180.098 141.163L180.024 141.604L179.978 141.668L179.937 142.012L179.997 142.09L180.024 142.325L179.822 143.758L179.533 144.984L179.317 145.659L179.202 145.756V145.852L179.027 146.275L178.954 146.289L178.926 146.431L178.954 146.555L178.839 146.918L178.609 147.235L178.536 147.249L178.494 147.373L178.421 147.405L178.434 147.547L178.32 147.8L178.246 148.176L178.274 148.378L178.246 148.599H178.218L178.246 148.709L178.159 148.976L178.2 149.072V149.715L178.159 149.981L178.301 150.046L178.342 150.188L178.301 150.39L178.228 150.487L178.269 150.551L178.14 150.772L178.127 150.914L178.025 151.01V151.199L177.938 151.355L177.823 151.451L177.837 151.575L177.708 151.686L177.667 151.952L177.538 152.076L177.566 152.14L177.492 152.218L177.304 152.232L177.189 152.544L177.116 152.609L177.143 152.705L177.083 152.751L177.056 153.064L177.129 153.394L177.102 153.491L177.175 153.633L177.318 153.555L177.377 153.601L177.318 153.679L177.276 153.913L177.161 153.991V154.212L177.06 154.322L177.12 154.368L177.079 154.588L176.918 154.901L176.904 154.997L176.991 155.094L176.918 155.282L176.831 155.36L176.904 155.548L176.803 155.627L176.716 155.911L176.803 156.178L176.716 156.302L176.527 156.348L176.366 156.6L176.307 156.789L176.279 157.165L176.118 157.528L176.077 158.235L176.105 159.287L176.063 159.65L176.017 159.682L175.976 159.917L176.003 159.962L175.976 160.105L175.916 160.119L175.875 160.215L175.916 160.546L175.875 160.56V160.638L175.774 160.734L175.76 160.812L175.7 160.844L175.686 161.111L175.571 161.143L175.411 161.396L175.424 161.492L175.309 161.556L175.222 161.855L175.135 161.901L175.162 162.011L175.089 162.108L175.075 162.31L174.946 162.718L175.006 162.783L174.933 163.003L174.946 163.146L174.818 163.237V163.49L174.717 163.756L174.818 164.243L174.744 164.478L174.79 164.491L174.776 164.634L174.878 164.648L174.818 164.96L174.933 165.102L174.96 165.304L175.264 165.291L175.236 165.479L175.296 165.511V165.589L175.236 165.653L175.222 165.828L175.236 165.874L175.397 165.828V165.92L175.08 166.03L175.02 166.14L175.034 166.283L174.988 166.315L174.974 166.425L175.015 166.522L174.827 166.568L174.685 166.802L174.469 166.737L174.395 166.816L174.147 166.829L173.972 166.733L173.899 166.747L174.06 166.857H174.133L174.207 166.953H174.28L174.354 167.031L174.441 167.018L174.528 167.064L174.588 167.109V167.174L174.427 167.707L174.312 168.772L174.211 168.786V168.91L174.138 168.942L174.096 169.098L173.968 169.255L173.908 169.567L173.848 169.631L173.788 169.833L173.687 169.944L173.646 170.178L173.674 170.32L173.559 170.476L173.572 170.729L173.384 170.761L173.324 170.885L173.31 171.197L173.196 171.276L173.223 171.556L173.182 171.569L173.053 172.18V172.323L173.127 172.497L173.113 172.608L173.173 172.653L173.012 172.952L173.053 173.251L172.98 173.264L172.92 173.342L172.819 173.641L172.846 173.861L172.819 174.252L172.86 174.454L172.8 174.468L172.741 174.56L172.768 174.858L172.708 175.014L172.607 175.079L172.534 175.253L172.575 175.377L172.534 175.487H172.405L172.345 175.423L172.194 175.409L172.042 175.455L171.739 175.69L171.679 175.814L171.431 176.066L171.288 176.397L171.059 176.709L171.045 176.898L170.944 176.93L170.856 177.04L170.682 177.587L170.755 177.729L170.714 178.152L170.512 178.23L170.438 178.386V178.496L170.323 178.762V179.043L170.264 179.167L170.222 179.635L170.181 179.759L170.094 179.837L170.048 180.058L170.107 180.241L170.254 180.177L170.369 180.269V180.393L170.181 180.613L170.094 180.646L169.864 181.036L169.735 181.114L169.473 181.1L169.414 181.27L169.211 181.381L169.138 181.537L169.078 181.991L169.106 182.166L169.179 182.29L169.207 182.68L169.381 182.979L169.441 182.965L169.501 183.03L169.515 182.965L169.588 182.951L169.427 183.342L169.542 183.42L169.63 183.562H169.671L169.712 183.718V183.893L169.625 184.081L169.565 184.407L169.45 184.564L169.276 184.674L169.248 184.784L169.276 185.005L169.202 185.349L169.289 185.459L169.377 185.785L169.519 185.942L169.823 186.098H169.91V186.24L169.809 186.304L169.62 186.585L169.459 186.677L169.317 186.69L169.175 186.534H169.101L169 186.709L168.972 186.879H168.926L168.784 187.099L168.683 187.163L168.655 187.287L168.596 187.32L168.623 187.43L168.563 187.462V187.604L168.476 187.682L168.448 187.825H168.389L168.347 187.715H168.232L168.246 187.618H168.131L168.09 187.715L167.989 187.669L167.874 187.701L167.557 187.669L167.47 187.715V187.779L167.382 187.811L167.369 187.953L167.281 187.999L167.134 188.188L167.107 188.298L167.047 188.33L167.074 188.408L167.134 188.394V188.486L166.96 188.629V188.693L167.061 188.817L167.074 188.973L166.872 189.051L166.812 189.161L166.684 189.175L166.583 189.409L166.555 189.722L166.495 189.832L166.509 190.209L166.394 190.333L166.422 190.567L166.233 190.801L166.261 190.957L166.174 190.99L166.086 191.316L166.073 191.472L166.146 191.486V191.564L166.086 191.642L165.972 191.688L165.958 191.812L165.912 191.798L165.884 191.844L165.898 191.89L165.999 191.922L166.013 192L165.852 192.124H165.705L165.563 192.216L165.535 192.372L165.576 192.386V192.51L165.448 192.556L165.507 192.634L165.494 192.712L165.291 192.804L165.176 193.208L165.264 193.35V193.507L165.19 193.695L165.029 193.883L164.956 194.182L164.813 194.324V194.48L164.597 194.761L164.483 194.774L164.409 194.917L164.147 195.151L164.087 195.371L163.913 195.436V195.482L163.697 195.67L163.495 195.684L163.38 195.794L163.366 195.918L163.219 195.95L162.989 196.511L162.961 197.011L162.745 197.181L162.732 197.402L162.617 197.572L162.631 197.714L162.47 197.902L162.442 198.058L162.093 198.339L161.992 198.573L161.978 198.807L161.937 198.853H161.836L161.693 199.322L161.666 199.308L161.638 199.418L161.564 199.464L161.404 199.763L161.316 199.808L161.068 199.795L160.953 199.887L160.751 200.245L160.737 200.415L160.797 200.493L160.71 200.649L160.521 200.713L160.259 200.525H160.186L159.997 200.571L159.956 200.695L159.653 200.681L159.524 200.759L159.262 200.695L159.221 200.883L158.917 201.021L158.816 201.209L158.743 201.287L158.582 201.352L158.352 201.65L158.38 201.917L158.32 202.197L158.159 202.385L158.145 202.606L158.187 202.698L158.348 202.743L158.435 202.822L158.449 203.024L158.476 203.088L158.564 203.12L158.518 203.263L158.646 203.465L158.821 203.993L158.908 204.618L158.821 204.631L158.793 204.723L158.518 204.911H158.458L158.343 204.787L158.228 204.82L157.911 205.164L157.851 205.274L157.805 205.743L157.718 206.041L157.658 206.074L157.617 206.198L157.53 206.184L157.429 206.248L157.456 206.372L157.516 206.386L157.53 206.556H157.571L157.686 206.276L157.727 206.262L157.686 206.432L157.484 206.808L156.992 207.135L156.702 207.199L156.169 207.7L156.082 207.856L155.981 207.902L155.953 207.98L154.855 209.073L154.478 209.197L153.771 209.679H153.481L153.178 209.789L152.686 210.07L152.295 210.382L152.167 210.396L151.588 211.048L151.326 211.25L150.531 211.562L150.283 211.732L149.818 212.293L149.313 213.492L149.065 214.442L148.918 215.687L148.945 215.999L148.918 216.169L148.467 216.665L148.325 216.711L148.353 216.744H148.293L147.64 217.336L147.466 217.584L147.291 217.988L147.001 218.815L146.96 219.081L146.73 219.734V219.844L146.684 219.876L146.569 220.28L146.321 220.841L146.262 221.245L145.871 222.508L145.595 223.721L145.508 223.753L145.494 223.845L145.535 223.877L145.32 224.327L144.915 225.558L144.828 225.746L144.653 225.962L144.593 226.178L144.506 226.302L144.345 226.954L143.982 227.593L143.821 228.369L143.706 228.663L143.72 228.897L143.679 229.067L143.362 229.361L143.275 229.687L143.1 229.999V230.142L142.925 230.436L142.884 230.854L142.843 230.886L142.769 231.786L142.755 233.467L142.815 234.322L142.976 235.13V235.502L143.15 235.893L143.164 236.205L143.123 236.297L143.022 236.343L142.893 236.871L142.967 237.385L143.04 237.509V237.757L142.98 237.817L143.008 237.895L142.967 237.955L142.866 238.065L142.792 238.079L142.718 238.189L142.705 238.469L142.764 238.626V238.998L142.879 239.31V239.604L142.778 239.806L142.764 240.008L142.792 240.132L142.879 240.224L142.907 240.518L142.778 240.858L142.994 241.06L143.054 241.184L142.939 241.386L142.434 241.772V241.882L142.475 242.194L142.677 242.86L142.824 243.049L143.013 243.081L143.114 243.173L143.376 243.251L143.362 243.329H143.261L143.16 243.421L143.173 243.637L143.132 243.871L143.091 243.885L143.017 244.073L142.787 244.307L142.801 244.555L142.76 244.771L142.787 244.987L142.875 245.111L142.847 245.423L142.889 245.685V246.429L143.003 246.618L143.091 246.879L143.206 247.036L143.233 247.238L143.072 247.316L142.654 247.674L142.594 247.766L142.622 248.138L142.594 248.184L142.319 248.386L142.043 248.464V248.928L141.969 249.144L141.478 249.378L141.23 249.594L141.128 249.58L140.867 249.75L140.577 249.718L140.435 249.81L140.26 249.778L140.287 249.856L140.347 249.87L140.361 250.007L140.315 250.021L140.301 250.269L140.389 250.283L140.416 250.577L140.154 251.413L140.228 252.047L140.356 252.419L140.531 252.681L140.517 252.837L140.793 253.039L141.211 253.751L141.239 254.045L141.197 254.169L141.257 254.385L141.386 254.541L141.487 254.573L141.514 254.651L141.413 254.775L141.211 254.885H140.775L140.628 254.794L140.499 254.61V254.454L140.439 254.343L140.467 253.939L140.407 253.88L140.117 253.893L139.915 253.801L139.8 253.677L139.685 253.37L139.281 252.998L139.12 252.717L138.831 252.828H138.615L138.399 252.717L138.27 252.41H138.21L138.151 252.612L138.063 252.644L137.935 252.612L137.907 252.318L137.847 252.272L137.443 252.194L137.126 252.254L137.084 252.175L136.896 252.051L136.868 251.96L136.708 251.927L136.505 251.817L136.317 251.477L136.156 251.385L135.968 251.399L135.908 251.509L135.766 251.542L135.706 251.712L135.402 251.822L135.315 251.946L135.2 252.226L135.187 252.396L135.2 252.566L135.26 252.676V252.956L135.214 253.002L135.141 252.956L135.039 253.158L134.892 253.223V253.609L134.851 253.641L134.212 253.7L133.996 253.53L133.794 253.172L133.767 252.786L133.624 252.754L133.477 252.832L133.39 252.818L133.33 252.616V252.276L133.417 251.918L133.459 251.362L133.431 251.05L133.592 250.77L133.606 250.398L133.477 250.04L133.229 249.851L133.215 249.649L133.114 249.415L133.054 249.369L132.893 249.355L132.765 249.263L132.475 248.827L132.388 248.455L132.227 248.239L132.213 248.115L132.085 247.853L132.043 247.541L132.144 247.229L132.273 247.059L132.664 246.811L132.691 246.719L132.576 246.687L132.503 246.425L132.645 246.053L132.733 245.993L132.875 246.039L133.036 246.025L133.123 245.887L133.183 245.626L133.371 245.488V245.442H133.312L133.169 245.552L133.155 245.258L132.981 244.698L132.939 244.62L132.838 244.587L132.824 244.496L132.985 244.307L133.233 244.294L133.436 244.169L133.523 244.078L133.537 243.986L133.564 244.064L133.665 244.032L133.707 243.894L133.606 243.678L133.619 243.242L133.472 243.053L133.431 242.713L133.289 242.465L133.316 242.204L133.229 242.171L133.201 242.034L132.999 241.923L132.912 241.786L132.898 241.648L132.958 241.46L132.755 241.395L132.696 241.303L132.682 241.069L132.824 240.789L132.765 240.633L132.618 240.509L132.59 240.261L132.65 240.091L132.475 239.608L132.434 239.126L132.218 238.584L132.057 238.414L131.956 238.088V237.95L132.071 237.762L132.085 237.528L131.956 237.261L131.841 237.137L131.827 237.045L131.639 236.875L131.597 236.609L131.524 236.545L131.51 236.329L131.294 235.957L130.688 235.318L130.297 235.052L130.182 234.914V234.634L130.223 234.418L130.311 234.308V234.12L130.182 233.853L130.067 233.339L129.906 233.105L129.805 232.14L129.589 231.86L129.488 231.593L128.606 230.675L128.243 230.427L127.995 230.179L127.746 229.742L127.632 229.338L127.457 229.136L127.37 228.948L127.296 228.98L127.167 228.888L127.227 228.75L126.951 228.438L126.823 228.373L126.097 227.767L125.867 227.643L125.766 227.533L125.651 227.501L125.403 227.285L125.086 227.115L124.943 226.959L124.796 226.927L124.043 226.477L123.289 226.118L123.33 225.994L123.316 225.852L123.431 225.714L123.606 225.296L123.592 225.03L123.532 225.062L123.505 225.218L123.418 225.264L123.358 225.452L123.169 225.668L123.142 225.76L123.054 225.852L122.912 225.916L122.347 225.526L121.175 224.933L120.003 224.125L119.989 224.047L120.118 223.982H120.293L120.366 224.106L120.614 224.23L120.601 224.309L120.642 224.354L120.918 224.446L120.991 224.635L121.235 224.759L121.308 224.745L121.552 224.883L121.713 224.727L121.699 224.616L121.827 224.336L121.639 224.29L121.579 224.01L121.331 224.024L121.317 223.744L121.23 223.698L121.244 223.665L121.042 223.633L121 223.587L120.959 223.601L120.973 223.633L120.771 223.601L120.784 223.711H120.725L120.582 223.647L120.61 223.537L120.582 223.491L120.453 223.459L120.394 223.597H120.334L120.233 223.707V223.923L120.086 223.909L119.897 224.051L119.176 223.197L119.203 223.105L119.102 223.091L119.162 222.954L119.291 222.889L119.521 222.875L119.392 222.719H119.263L118.987 222.921L118.974 222.719L118.914 222.595L118.523 222.407L118.436 222.297L118.073 222.361V222.425L117.972 222.49L117.783 222.503L117.567 222.444L117.062 222.196L116.699 221.902L115.757 221.277L115.178 220.749H115.091L115.063 220.795L114.962 220.781L114.902 220.547L114.613 220.234L114.466 220.17L114.479 220.014L114.291 219.904L114.204 219.702L114.103 219.715L114.061 219.578L113.932 219.513L113.831 219.325L113.615 219.311L113.367 219.017L113.092 218.797H113.018L112.756 218.53L112.683 218.517L112.857 218.301L113.133 218.314L113.496 218.843L113.611 218.934H113.841L114.057 218.824L114.231 218.948H114.319L114.466 219.091L114.567 219.059L113.9 218.466L113.873 218.342L114.121 218.154L114.162 218.108L114.148 218.043H114.089L113.827 218.246L113.726 218.278L113.638 218.37L113.523 218.259L113.988 217.947L114.015 217.869L113.969 217.823H113.91L113.432 218.149L113.317 217.979L113.579 217.809L113.505 217.685L113.432 217.699L113.229 217.901L113.101 217.933L112.839 217.639L112.779 217.483L112.604 217.267L112.747 217.377L112.949 217.267L112.761 217.065L112.687 217.079L112.558 217.203L112.444 217.125L112.053 216.61L111.966 216.422L111.865 216.39L111.649 216.11L111.056 214.989L111.07 214.925L111.143 214.938L111.621 215.205L111.782 215.595L111.823 215.673L111.924 215.705L112.053 215.986L111.91 215.471L112.862 214.943L112.761 212.729L111.966 209.394L110.431 207.589L108.781 207.006L108.68 206.707L108.478 206.395L108.491 206.317L108.418 206.097L108.142 205.568L107.49 203.901L107.389 203.869L107.127 203.961L106.708 203.974L106.621 203.85L106.594 203.681L106.695 203.759L106.722 203.915L106.938 203.883L106.897 203.57L107.145 203.538L107.274 203.428V203.382L106.837 202.055L106.676 201.756L106.428 200.883L106.603 200.819L106.934 200.961L107.081 200.819L107.154 200.709L107.182 200.305L107.343 200.194L107.37 200.102L107.209 200.089L107.196 200.011L107.356 199.997L107.384 199.887L107.094 199.873L106.92 200.015L107.035 200.314L106.961 200.222L106.86 200.254L106.934 200.488L106.906 200.598L106.603 200.677L106.662 200.585L106.589 200.318L106.46 200.332L106.433 200.396L106.548 200.722L106.419 200.755L106.23 200.098L105.826 199.101L105.523 198.15L105.583 197.962L106.074 197.585L106.028 197.572L105.927 197.636L105.537 197.948L105.435 197.884L105.55 196.915L105.537 196.524L105.362 195.835L105.086 195.289L104.898 195.022L104.884 194.88L104.843 194.848V194.783L104.985 194.692L105.086 194.738L105.201 194.894H105.275L105.261 194.724L105.376 194.614L105.477 194.393L105.463 194.237L105.403 194.173L105.316 194.186V194.122H105.39L105.449 194.058V193.98L105.307 193.934H104.801L104.498 193.732V193.387L104.76 193.323L104.875 193.148L104.7 193.272L104.484 193.337H104.424V193.259L104.553 193.226L104.581 193.18L104.406 193.213L104.379 193.337L104.25 193.539L104.107 193.428L104.006 193.507L104.746 194.131L104.907 194.508L104.981 194.586L104.953 194.678L104.792 194.71L104.719 194.508L104.617 194.416L104.47 194.136L103.731 193.387V193.199L103.891 193.029H103.979L104.227 192.827L104.199 192.762L104.025 192.873L103.777 192.841L103.878 192.464L104.094 192.322H104.282L104.429 192.23L104.732 192.152H104.981L105.068 192.106L105.298 191.807L105.371 191.775V191.743H105.27L105.298 191.6L105.238 191.536L105.178 191.55V191.642L105.137 191.656L105.077 191.858L104.962 191.715L104.889 191.729L104.962 191.871L104.921 191.982L104.994 192.078L104.631 192.11L104.314 192.234H104.254L104.314 192.202V192.138L104.199 191.78L104.14 191.747L104.098 192.028L104.172 192.041L103.983 192.074L103.942 192.184L103.97 192.262L104.057 192.308L103.928 192.386L103.942 192.276L103.841 192.262L103.827 192.404L103.868 192.436L103.74 192.501L103.666 192.593L103.712 192.717L103.652 192.781L103.625 193.139L103.524 193.153L102.945 192.593L102.076 191.89L102.205 191.61L102.145 191.623L102.044 191.78H101.984L101.97 191.825L101.911 191.812L101.722 191.656L100.766 191.091L100.707 191.012L100.532 190.967L100.417 190.875L100.114 190.81L99.8658 190.7L99.852 190.604L99.9531 190.526L100.04 190.199L99.852 190.057L99.6038 190.278L99.4292 190.388H99.3419L99.1535 190.154L98.9789 189.873V189.809L99.0386 189.699L99.2546 189.713L99.4292 189.635V189.446L99.2684 189.056L99.4476 188.978L99.4292 188.854L99.227 188.932L99.1259 188.619L98.3309 188.633L98.3447 188.789L98.2849 188.854L98.0092 188.762L98.2114 187.682L98.1976 187.26L98.9237 186.778L99.0386 186.635L100.137 186.089L100.555 186.043H100.716L100.845 186.107L101.235 186.511L101.612 186.589L101.626 186.497L101.194 186.405L101.153 186.139H100.973L100.799 185.841L100.785 185.652L100.858 185.372L100.771 185.17L100.785 185.014L100.725 184.968L100.955 184.655L100.996 184.513L100.969 183.498L100.854 183.356H100.289L100.128 183.259L99.999 183.039L100.059 182.74H99.9853V182.708L100.233 182.129L100.422 181.849L100.596 181.394L100.537 181.33L100.362 181.316L100.201 181.114L100.229 181.1L100.344 181.257L100.486 181.27L100.587 181.335L100.661 181.211L100.675 180.958L100.325 181.004L100.284 180.972L100.573 180.94L100.647 180.848H100.707L100.693 180.457L100.766 179.865L100.881 179.879L100.84 179.97L100.826 180.379L101.116 180.444L101.189 180.756L101.35 180.71V180.508L101.391 180.489V180.411H101.433L101.474 180.522L101.562 180.568L101.676 180.554L101.791 180.444L101.92 180.457L101.98 180.393L102.228 180.425L102.389 180.315L103.069 180.347L103.055 180.379H103.096L103.083 180.347L103.211 180.333L103.285 180.269L103.271 180.223L102.793 180.269L102.301 180.177L101.984 180.223L101.346 180.177L101.304 179.755L101.116 179.612L101.13 179.548L101.231 179.594L101.46 179.548L101.575 179.392V179.19L101.837 178.987L101.865 178.831H101.993L102.067 178.707L102.154 178.694L102.141 178.427H102.081L102.039 178.57H101.952L101.925 178.446L101.952 178.101L102.113 177.913L102.329 177.881L102.577 177.678V177.6L102.43 177.587L101.925 177.945H101.695L101.506 177.821L101.332 177.476L101.405 176.663L101.465 176.507L101.552 176.475L101.58 176.553H101.653L101.667 176.489L101.768 176.457L102.219 176.489L102.246 176.209L101.943 176.222L101.929 176.02L101.989 175.988L102.237 175.552L102.384 175.051L102.425 174.693L102.54 174.679L102.844 174.932L103.147 174.978L103.726 174.789L104.089 175.07L104.319 175.451L104.622 175.809L104.797 175.933L104.089 174.978L103.726 174.757L103.161 174.803L102.857 174.661L102.784 174.583L102.756 174.459H102.917L102.931 174.381L102.857 174.335V174.16L102.77 174.238L102.743 174.335H102.655L102.83 174.082L103.106 174.114L103.147 174.068L103.161 173.99L103.087 173.848H103.014L102.986 173.926H102.926L102.913 173.751L102.784 173.719V173.687L103.262 172.842L103.147 172.81L103.018 172.92L102.715 173.388L102.6 173.669L102.572 173.604L102.747 173.246L102.834 173.168L103.083 172.745L103.17 172.401L103.418 172.199L103.547 172.185L103.561 172.139L103.547 172.107H103.197V172.061L103.501 172.075L103.731 172.029L103.689 172.153L103.588 172.167L103.629 172.277L103.57 172.323L103.556 172.433L103.179 172.764H103.28L103.34 172.842L103.441 172.856L103.542 172.732L103.57 172.589H103.611L103.597 172.699H103.657L103.685 172.777H103.859L103.832 172.98L103.873 172.993L103.859 173.168L103.947 173.104L103.974 172.961L103.914 172.897L103.988 172.805L104.236 173.007L104.337 173.274L104.843 173.494L104.93 173.715L105.247 173.682L105.477 173.747L105.55 173.636H105.596L105.656 173.462L105.831 173.37L105.872 173.512L105.757 173.48L105.771 173.572L105.624 173.65L105.463 173.871L105.523 173.884L105.564 174.041L105.739 174.105V174.041L105.638 173.995L105.61 173.93L105.624 173.866L105.697 173.834L105.799 174.146H105.858V174.036L105.946 174.082L105.959 174.174L105.812 174.22L105.753 174.33L105.812 174.629L105.886 174.739L106.175 174.629L106.263 174.518L106.249 174.44L106.088 174.266L105.987 174.013L106.116 173.903H106.028L106.042 173.839L106.217 173.728L106.244 173.37L106.102 173.104H106.015L105.927 173.26L105.753 173.274L105.679 173.209V172.911L105.766 172.8L105.679 172.548L105.78 172.456L105.606 172.015L105.187 171.905L105.086 171.827H104.971L104.824 171.905L104.507 171.891L104.48 171.827H104.163L104.149 171.749L103.974 171.684L103.698 171.698L103.584 171.932L103.193 171.946L103.207 171.4H102.991L102.931 171.478L102.871 171.432L102.972 171.34L103.243 171.326H104.461L104.489 171.358L104.737 171.124L104.884 170.89V170.812L104.723 170.247L104.696 170.26L104.682 170.196L104.434 170.242L104.374 170.463L104.259 170.527L104.158 170.196L104.13 169.567L104.176 169.535L104.19 169.126L104.42 169.002L104.48 168.814L104.466 168.515L104.595 168.469L104.636 168.327V168.184H104.576L104.562 168.23L104.549 168.166L104.59 168.102L104.516 168.088L104.489 167.996L104.562 168.01L104.604 167.932H104.489L104.516 167.854L104.489 167.821L104.401 167.867L104.374 167.821L104.434 167.711H104.507L104.682 167.835L104.755 167.978L104.884 167.867L104.944 167.978L105.045 168.042L105.261 168.056L105.651 167.854L105.739 167.601L105.711 166.912L105.753 166.834L105.693 166.82L105.578 166.944L105.592 167.256L105.532 167.431L105.472 167.477L105.412 167.757L105.311 167.743L105.27 167.808H105.054L104.838 167.619L104.677 167.353L104.415 167.275L104.241 167.353L104.181 167.431L104.066 167.445L103.629 167.679H103.602L103.616 167.555L103.542 167.541V167.619L103.455 167.633L103.469 167.679L103.542 167.693V167.739L103.4 167.785L103.312 167.596L103.34 167.454L103.602 167.188L103.832 167.109L103.933 167.155L104.034 167.142L104.075 166.967L104.149 166.921L104.135 166.875L104.25 166.811L104.277 166.623L104.149 166.733L104.25 166.499L104.089 166.673L104.029 166.816L103.942 166.802L103.956 166.756L103.868 166.71L103.855 166.522L103.914 166.457L103.928 166.315L104.089 166.191L104.236 165.911L104.452 165.722L104.493 165.502L104.406 165.456V165.359L104.549 165.314L104.925 165.346H105.174V165.314L104.723 165.217L104.287 165.203L103.317 165.534L102.913 165.548L102.798 165.484L102.623 165.295L102.55 165.093L102.522 164.781L102.536 163.963L102.563 163.853L102.678 163.711L102.807 163.665L103.009 163.678L103.561 163.821H103.749L103.79 163.775L103.965 163.761L103.937 163.371L104.098 163.384L104.199 163.164V163.054L104.14 163.008L104.126 162.911H104.227L104.241 162.865L103.956 162.691L103.836 162.516H103.795V162.452L103.648 162.264L103.588 161.997L103.648 161.653L103.606 161.354L103.749 161.198L103.809 160.978V160.775L103.662 160.697L103.648 160.541L103.694 159.71L103.735 159.567L103.864 159.522L103.905 159.43L104.08 159.398L104.121 159.319L104.006 159.306L104.094 159.039H103.993L103.891 159.306H103.675L103.703 158.566L103.662 158.424L103.703 158.015L103.629 157.813L103.758 156.885L103.832 156.871L103.96 156.573L104.034 156.527L104.163 156.274L104.222 155.976L104.337 155.773L104.424 155.365L104.585 155.144L104.847 154.469L105.109 154.216L105.339 153.808L105.656 153.495L105.799 153.482L105.987 153.67L106.028 153.606H106.129V153.417L105.523 153.293H105.422L105.394 153.357H105.353L105.164 153.215L105.252 152.333L105.036 152.301V152.443H104.994L104.953 152.319H104.838V152.273H104.953L104.925 152.163L104.838 152.131L104.866 152.085L104.838 151.897L105.04 151.585L105.141 151.598L105.128 151.676L105.086 151.69L105.045 151.644L104.916 151.833L104.889 151.975L105.063 152.039V152.228L105.279 152.292L105.367 151.585L105.408 151.41L105.509 151.364L105.435 151.24L105.449 151.162L105.578 150.817L105.909 150.831V150.455H105.707L105.606 150.252L105.187 150.266L104.898 149.669L104.81 149.306L104.824 149.132L104.87 149.118V149.417L105.174 150.188L105.449 150.22L105.408 150.174H105.449L105.638 149.752L105.578 149.655L105.491 149.623L105.518 149.403L105.647 149.325L105.776 148.948L105.964 148.902L106.226 148.337L106.185 148.259H106.125L106.01 148.48L105.895 148.558L105.794 148.48H105.72L105.881 148.181L105.955 148.227V148.273H106.028L106.102 148.085L106.001 148.006L106.015 147.91L105.941 147.846L105.854 147.859L105.707 148.016L105.665 148.002V147.938L105.491 147.924L105.463 147.878L105.477 147.956L105.348 148.02L105.187 148.241L105.072 148.273L105.118 148.176L105.045 148.163L104.714 148.695L104.7 148.585L104.99 148.112L105.206 147.988L105.481 147.722L105.495 147.676L105.435 147.644L105.206 147.598L105.233 147.501L105.697 147.625L105.959 147.34L106.713 146.886L106.8 146.743L107.062 146.523L107.191 146.537L107.251 146.821L107.499 146.932L107.54 146.918V146.854L107.641 146.886L107.669 146.964L107.77 147.01V147.074H107.729L107.701 147.138L107.917 147.249L108.092 146.886L108.367 146.964L108.441 146.899L108.689 146.867L108.675 146.789L108.239 146.665L108.266 146.569L108.427 146.555L109.121 146.711H109.369L109.53 146.334L109.571 145.958L110.077 146.022L109.888 146.054L109.861 146.178L109.888 146.243L110.137 146.353L110.628 146.197L110.642 145.852H110.601L110.541 145.71L110.5 145.696L110.486 145.6L110.27 145.521L109.907 145.269L109.921 145.191L110.049 145.094V144.938L109.787 144.814L109.585 144.782L109.484 144.672H109.424L109.484 144.465L109.627 144.419L109.774 144.529H109.847L110.008 143.997L110.15 144.185L110.252 144.042L110.339 144.01L110.555 144.024L110.743 144.134L110.991 143.882L111.295 143.675V143.565L111.336 143.533L111.396 143.312L111.713 142.89L111.842 142.403L112.278 141.787L112.292 141.645L112.568 141.094L112.728 140.621H112.77L112.958 140.226L112.944 140.18L112.324 140.083L112.237 140.037L112.209 139.941L113.004 138.604L113.151 138.43H113.252L113.193 138.209L113.556 137.203L113.684 137.107L114.364 137.093L114.424 137.157L114.525 137.093L114.484 136.905L114.585 136.34L114.801 136.023L115.077 135.361L115.582 134.7L115.596 134.525L115.697 134.291L115.84 134.277L115.881 134.199H115.954L117.14 133.492L117.301 133.506L117.342 133.57L117.356 133.648L117.315 133.68L117.301 133.79L117.342 134.075L117.402 134.089L117.361 133.882L117.388 133.455L117.563 133.345L117.535 133.028L117.636 132.872V132.762L117.797 132.445L117.926 132.477L117.999 132.431V132.321L118.202 131.88L118.303 131.802L118.289 131.678L118.101 131.567L118.041 131.379L118.39 131.205L118.491 131.048L118.243 131.255L118.041 131.191L117.926 131.205L117.885 131.329L117.77 131.439L117.609 131.453L117.407 131.374L117.365 131.264L117.425 131.012L117.687 131.025L117.99 130.649L118.018 130.538L117.958 130.493L117.917 130.681L117.829 130.727L117.728 130.883L117.6 130.929H117.269L117.195 131.007L117.154 131.149L117.255 131.182L117.227 131.292L116.318 131.356L116.143 131.26L116.157 131.085L116.258 131.007L116.359 130.8L116.52 130.644L116.681 130.327L116.754 130.313L116.841 130.125L116.988 130.015V129.891H117.062L117.076 129.813L117.393 129.404L117.885 129.45L117.912 129.34H117.954L117.995 129.418L118.068 129.386L118.055 129.289L118.17 129.05L118.156 128.894L118.459 128.499L118.211 128.265L118.79 127.507H119.006L119.047 127.461L119.176 127.507L119.507 127.521L119.594 127.489L119.769 127.535L120.031 127.438L120.146 127.502L120.132 127.677L119.727 128.196L119.599 128.306L119.383 128.683L119.181 128.917L119.121 129.358L119.222 129.372L119.249 128.931H119.291L119.406 128.788L119.567 128.49L119.626 128.476L119.828 128.224L120.205 127.672L120.293 127.626V127.502L120.394 127.438V127.374L120.582 127.36L120.555 127.218L120.669 127.153L120.522 127.043L120.449 127.057L120.435 126.947L120.812 126.46H120.899L121 126.271L121.074 126.226L121.088 126.147H121.147L121.336 125.941L121.423 125.752L121.437 125.578L121.538 125.422L121.598 125.408L121.625 125.472L121.855 125.55L121.984 125.661L122.131 125.518L122.158 125.266H122.117V125.201L122.002 125.187L121.929 125.077L121.8 124.967H121.74L121.579 124.792L121.492 124.838L121.405 124.774V124.71H121.276L121.189 124.613L121.101 124.627V124.563L120.941 124.577L120.899 124.498L120.784 124.512L120.771 124.448L120.394 124.324L120.38 124.26L120.453 124.246L120.803 124.37L121.005 123.69L121.12 123.516L121.294 122.978L121.368 122.964L121.396 123.029L121.538 123.015L121.579 122.794L121.607 122.808L121.809 122.349L121.869 122.096L121.855 122.032L121.74 121.986L121.726 121.94H121.827L121.887 121.844L122.117 121.214L122.177 121.201L122.204 121.265L122.319 121.251L122.379 121.315L122.452 121.302L122.843 120.42H122.903L122.949 120.498L123.036 120.484L123.077 120.659L122.917 120.815V120.939L122.843 121.113V121.43L122.742 121.586L122.668 121.825L122.554 121.968L122.379 122.395L122.305 122.409V122.376L122.158 122.344L122.099 122.266H121.924L121.896 122.441L121.837 122.487L121.763 122.785L121.703 122.831L121.616 123.208L121.354 123.888L121.515 123.966L121.63 123.92V123.713L121.745 123.649L121.832 123.318L122.007 122.941L122.255 123.019L122.37 123.226V123.336L122.457 123.369L122.498 123.493H122.572L122.673 123.176L122.558 123.079L122.485 122.794L122.572 122.67L122.613 122.464L122.701 122.308L122.687 122.243L122.935 121.738L122.949 121.582L123.009 121.55L122.995 121.439L123.054 121.426L123.128 121.219V121.077L123.202 121.012L123.261 120.76L123.537 120.856L123.624 121.012V121.077L123.523 121.141L123.381 121.329L123.422 121.568L123.321 121.71L123.362 121.775H123.436L123.698 121.444L123.656 121.256L123.771 121.021L123.758 120.815L123.597 120.608L123.67 120.512L123.9 120.369H124.015V120.466L124.056 120.479L124.286 120.433L124.36 120.277V120.153H124.286L124.185 120.25L123.955 120.264L123.895 120.309L123.767 120.264L123.652 120.342L123.321 120.296L123.22 120.218L123.234 120.043L123.509 120.057L123.67 119.993L123.656 119.947L123.496 119.979L123.422 119.914H123.307V119.869L123.408 119.648L123.45 119.634L123.679 119.083L123.794 118.876L123.969 118.954L124.056 119.078L124.171 119.046L124.231 118.936L124.553 119.143L124.764 119.207L124.778 119.492L124.824 119.478L124.851 119.147L124.911 119.069L124.998 119.056L125.04 118.899L125.012 118.661L125.113 118.394L125.054 118.174L125.127 118.031L125.026 117.967L124.985 117.843L125.044 117.746L125.072 117.526L125.187 117.384L125.247 117.48L125.361 117.416L125.476 117.195L125.564 117.163L125.591 116.91L125.78 116.754L125.94 116.515L126.129 116.405L126.317 116.217L126.418 115.951L126.579 115.762V115.62L126.506 115.588L126.533 115.491L126.492 115.413L126.607 115.381L126.735 115.16L126.795 114.986L126.754 114.94L126.827 114.733L127.076 114.384L127.062 114.164L127.177 113.943L127.117 113.847L127.131 113.75L127.218 113.783L127.319 113.737L127.305 113.613H127.204L127.232 113.516L127.434 113.264L127.595 113.231L127.581 113.167L127.655 113.057L127.829 112.882H127.889L127.949 112.786L128.05 112.74L128.096 112.597L128.298 112.281H128.486L128.5 112.17L128.661 111.886L128.675 111.757L128.776 111.647V111.523L128.923 111.458L129.111 111.27L129.373 111.224L129.433 111.068H129.562L129.709 110.861L129.883 110.783V110.719L129.984 110.673L130.058 110.531L130.086 110.292L130.159 110.305L130.2 110.209L130.302 110.195L130.288 110.351L130.462 110.338V110.209L130.55 110.113L130.577 109.984L130.476 109.938L130.334 110.113V110.016L130.407 109.92L130.393 109.855L130.467 109.809L130.54 109.842L130.642 109.699L130.871 109.511L130.931 109.336L131.018 109.258L130.977 109.084L131.005 109.019L131.179 109.006L131.207 108.96V108.882L131.092 108.707L131.34 108.441L131.4 108.454V108.138L131.515 108.073L131.602 107.821L131.745 107.678L131.731 107.582L131.832 107.485V107.375L132.062 107.012L132.149 106.966L132.222 106.668L132.471 106.084L132.429 105.974L132.517 105.896L132.618 105.657L132.677 105.359L132.953 104.725L132.994 104.66L133.04 104.674V104.578L133.142 104.422L133.358 103.82L133.399 103.379L133.528 103.14L133.702 102.649L134.093 102.065L134.254 101.923L134.571 101.909L134.672 101.767L134.732 101.753H134.846L134.92 101.831L135.108 101.909L135.182 102.006H135.255L135.343 101.941L135.384 101.831H135.471L135.632 101.721L135.692 101.735L135.779 101.657L135.821 101.702L135.908 101.689L136.156 101.785L136.345 101.928V101.973L136.505 102.052L136.795 102.038L136.868 102.006L136.882 101.941H137.084L137.126 101.877L136.749 101.891L136.763 101.845L136.675 101.831L136.515 101.689L136.152 101.248L136.064 101.202L135.936 101.216L135.876 101.151L135.701 101.294L135.687 101.216L135.775 101.027L136.05 100.614L136.064 100.2L136.427 99.7733L136.588 99.6631L136.501 99.5666L136.515 99.5023H136.657L136.671 99.438L136.8 99.3921L137.13 98.8868L137.87 98.8225L138.376 98.7123L138.523 98.6342L138.725 98.6663L138.84 98.5699L139.272 98.602L139.373 98.5561H139.704L139.676 98.3356L139.704 98.083L140.081 97.812L140.513 97.3527L140.862 97.0679L140.963 96.9577L141.004 96.6867L141.207 96.7326L141.179 96.5443L141.239 96.5121L141.312 96.3238L141.372 96.0528L141.344 95.9104L141.459 95.6394L141.473 95.4833L141.56 95.3409L141.703 95.2766L141.877 95.0561L142.254 94.7392L142.516 94.5968L142.59 94.5003L142.737 94.5141L143.082 94.3717L143.486 94.0548L143.615 93.7057L143.601 93.0856L143.661 93.0535L143.922 93.0672L144.037 92.8146L144.065 92.3094L144.125 92.2634V92.121L144.037 91.9787L144.079 91.9649V91.7582L144.152 91.6296L144.138 91.501L144.18 91.4872L144.138 91.4229L144.152 90.8993L144.079 90.6926L144.207 90.6788L144.134 90.5685L144.175 90.4905L144.115 90.4445L143.785 90.5226L143.725 90.3802L143.624 90.2838L143.582 90.1276L143.684 89.8244L143.858 89.5856L143.872 89.4248L144.001 89.186L144.29 88.8553L144.263 88.7588L144.304 88.52L144.244 88.4878V88.4235L144.331 88.3592L144.446 88.5016H144.506L144.566 88.3408L144.52 88.2628L144.593 88.2765L144.607 88.1985L144.534 88.1663L144.433 88.1985V88.1204L144.506 88.0423L144.736 88.0744L144.837 88.1387V88.2168L144.924 88.2949L144.938 88.4695L144.979 88.5154L145.126 88.5016L145.085 88.2628L145.172 88.2306L145.246 88.373L145.274 88.5797L145.618 88.7221L145.82 88.8645L145.862 88.8507L145.848 88.7864L145.471 88.5981L145.324 88.4373L145.365 88.2168L145.237 88.1387L145.195 88.0101L145.223 87.9458L145.384 88.0239L145.471 88.0101L145.499 87.8356L145.627 87.7575L145.788 87.7254L146.105 87.7575L146.119 87.7254L145.77 87.6289L145.306 87.7391L145.333 87.6748L145.246 87.6289L145.306 87.5968L145.407 87.3441L145.568 87.2017L145.696 86.8986L145.756 86.8664L145.83 86.5817L145.944 86.4255V86.329L146.032 86.2004L146.004 86.1223L146.064 86.0764L146.151 85.8054L146.367 85.6171L146.381 85.539L146.496 85.4425L146.744 85.0292L146.831 85.0108L146.758 84.7903L146.698 84.7582L146.827 84.2529L146.974 84.1105L147.148 83.7752L147.351 83.6145L147.553 83.2654L147.801 83.1689L147.787 83.0265L147.847 82.9484L147.806 82.7739L147.921 82.5994L148.339 82.3789L148.541 82.14L148.771 81.6899L149.079 81.4419L149.226 81.2536L149.354 80.808L149.368 80.3946L149.295 80.2063L149.524 79.9675V79.871L149.713 79.3612L149.915 79.1866L150.246 78.7273L150.361 78.6308L150.287 78.6171L150.113 78.8054V78.7411L150.315 78.4058L150.618 78.1669V78.0705L150.834 77.8959L151.096 77.5147L151.326 77.4366L151.454 77.308L151.716 77.1794L152.093 77.1472L152.355 77.037L152.442 76.9084L152.746 76.7798L152.819 76.6695L152.948 76.6236L152.989 76.495L153.32 76.3021L153.38 76.1735L153.522 76.1275L153.582 76.0311L153.872 75.8382L154.203 75.7922L154.538 75.5855L154.699 75.6177L154.786 75.5212L155.117 75.5075L155.177 75.4294L155.54 75.3835L155.554 75.3375L155.77 75.2594L155.884 75.2732L155.958 75.1951L156.303 75.163L156.376 75.2089L156.491 75.0987L156.895 74.9884L157.157 74.8139L157.36 74.7496L157.488 74.7634L157.805 74.4005L157.994 74.3546L158.141 74.2443L158.315 74.2581L158.706 73.9228L159.17 73.6702L159.212 73.5921H159.326L159.386 73.4957L159.487 73.4819L159.575 73.4038L160.08 73.2614L160.282 73.243L160.31 73.2752L160.397 73.2109L160.512 73.2246L160.659 73.0317H160.76L160.802 73.1098L160.875 73.096L160.935 73.1603L161.064 73.1466L161.178 72.9858V72.9215L160.99 72.9077V72.8434L161.064 72.7607L161.496 72.825L161.509 72.6964L161.67 72.7286L162.006 72.6184L162.323 72.6964L162.382 72.7745L162.369 72.871L162.497 72.9031L162.598 72.8572L162.801 72.9215L162.943 72.8756L163.058 72.9077L163.55 72.8939L163.724 72.8159L163.899 72.6551L163.94 72.6689L164.041 72.5265L164.184 72.5403L164.331 72.6367L164.345 72.4162L164.634 72.4025L164.694 72.6413H165.085L165.144 72.6872L165.347 72.5449L165.535 72.4989L165.751 72.5127L165.898 72.4346L166.174 72.3887L166.247 72.3244L166.711 72.1958L166.799 72.0855L166.973 72.1039L167.102 71.9432L167.162 72.0075L167.392 71.8651L167.479 71.8788L167.695 71.7181L167.768 71.7319L167.856 71.6676L167.883 71.5389L168.173 71.4746L168.591 71.2863L168.664 71.3001L168.724 71.222L168.784 71.2358L168.71 70.9189L168.508 70.7122L168.536 70.6938L168.651 70.8362L168.766 70.9005L168.839 70.7903L169.041 70.68L169.069 70.4871L169.156 70.4412L169.198 70.3309L168.894 70.0599L168.853 69.9497L169.446 70.5055L169.648 70.3952L169.708 70.285L169.956 70.0462L170.043 70.0324L170.071 69.9681L170.172 69.9221L170.374 69.9681L170.415 69.5547L170.374 69.5409L170.259 69.3021L169.91 69.2056L169.634 69.1918L169.593 69.1275L169.754 68.9208L169.868 68.9392L170.172 68.8611V68.8152L170.333 68.6866V68.6085L170.144 68.4983L170.333 68.1032L170.434 68.0389L170.549 68.0527L170.59 67.9425L170.663 67.9103L170.737 67.7817L170.811 67.7679L170.884 67.5934L171.1 67.2902L171.288 67.2581L171.436 67.0836L171.477 66.8769L171.417 66.7483L171.431 66.638L171.472 66.5599H171.601L171.674 66.4956V66.4313H171.716L171.73 66.3532L171.656 66.2752L171.642 66.1649L171.872 65.8296L171.9 65.7332L171.872 65.6551L171.946 65.4484L172.074 65.2738L172.276 65.2095L172.437 65.4162L172.699 65.4024L172.759 65.3244L172.901 65.2922L173.163 65.0855L173.237 64.8788L173.278 64.865V64.7364L173.407 64.64L173.421 64.5435H173.361L173.389 64.3828L173.517 64.2541L173.605 64.2404L173.646 64.1439H173.807L173.834 64.0796L173.963 64.0015L174.037 64.0153L174.239 63.9188L174.326 63.8224L174.455 63.804L174.514 63.7259L174.675 63.7581L174.776 63.6295L174.905 63.6157V63.5514L175.052 63.5055L175.066 63.4274L175.025 63.4136V63.2391L174.965 63.0967L175.006 63.0002L175.121 62.968L175.195 63.0461L175.222 63.285L175.369 63.3309L175.443 63.409L175.617 63.3631L175.663 63.2207L175.824 63.2345L175.898 63.3447H175.939L175.967 63.2482L176.127 63.2161L176.155 63.1196L176.196 63.1518L176.27 63.1196L176.371 62.8992L176.284 62.867L176.256 62.7062L176.431 62.4536H176.472V62.5133ZM173.439 75.0803L172.685 75.7693L171.665 78.0613L170.268 80.3533L170.356 83.123L172.378 83.6374L175.852 82.4294L178.517 80.0501L180.061 77.9832L179.455 75.682L178.03 73.0593L175.81 72.2096L172.984 73.5783L173.439 75.0803Z" fill="#E2E8F0"/>
<path d="M112.765 212.724L111.97 209.39L110.435 207.584L108.817 207.01L109.148 207.667L109.121 207.713L109.162 207.855L109.378 208.278L109.419 208.448L109.479 208.526L109.566 208.494L109.58 208.402L109.668 208.462L109.654 208.526L109.553 208.54L109.539 208.632L109.727 208.99L109.686 209.132L109.888 209.477L110.017 209.867L110.031 210.056L109.902 210.101L109.888 210.166L110.104 210.088L110.191 210.101V210.037L110.077 209.973V209.881L110.164 209.633L110.293 209.541L110.265 209.463L110.164 209.477L110.205 209.417L110.407 209.385L110.669 209.541V209.808L110.61 209.872H110.495V210.06L110.61 210.028L110.669 210.074L110.642 210.12H110.481L110.568 210.23L110.596 210.464L110.522 210.556L110.564 210.758L110.476 210.823V210.933L110.361 210.979L110.315 210.933L110.228 210.451L110.012 210.464V210.542L110.113 210.556L110.127 210.882L110.201 211.038L110.141 211.084V211.378L109.865 211.626L109.723 211.64L109.419 211.998L109.433 212.168L109.373 212.311L109.401 212.435L109.355 212.669L109.47 213.092L109.557 213.17L109.672 213.496L109.948 213.744L110.095 214.07L109.994 214.258L110.168 214.318L110.196 214.52L110.237 214.566L110.412 214.502L110.527 214.548L110.757 214.47L111.377 214.75L111.405 214.561L111.506 214.497L111.547 214.529V214.621L111.446 214.791L111.676 214.869L111.662 214.961L111.763 215.039L111.892 215.443L112.843 214.915L112.765 212.724Z" fill="#E2E8F0"/>
<path d="M0.281704 114.839L0.341445 114.852L0.414972 114.995L0.603386 114.949L0.649341 114.981L0.548241 115.059L0.34604 115.105L0.258727 115.009L0.171413 115.022L0.157626 114.926L0.0703125 114.94L0.212772 114.83H0.281704V114.839ZM0.571218 114.095L0.773418 114.159V114.237L0.658532 114.301V114.379L0.732059 114.457L0.860732 114.536L1.06293 114.503L1.17782 114.536L1.15025 114.692L0.846946 114.77L0.704487 114.614L0.543645 114.627L0.644746 114.531L0.630959 114.402L0.401186 114.214L0.516073 114.09H0.571218V114.095ZM2.29452 113.984L2.32209 114.141L2.14746 114.095L2.2072 113.984H2.29452ZM5.10235 110.81L5.16209 110.875L5.36429 110.889L5.53891 111.095L5.84222 111.334L5.98927 111.398H6.1639L6.07658 111.839L5.98927 111.853L5.88817 111.996L5.98927 112.041V112.262L5.90196 112.308L5.87438 112.386L6.00306 112.4L5.91574 112.542H5.87438L5.88817 112.652L5.74112 112.62L5.69976 112.492L5.46998 112.446L5.29536 112.459L5.18047 112.524L4.99205 112.776V112.937L5.12073 112.905L5.03341 113.079L4.845 113.144L4.80364 113.24L4.7439 113.259L4.71633 113.226L4.7439 113.084L4.50034 113.038L4.2384 113.194L4.07756 113.401L4.01782 113.576L3.97186 113.589H3.85697L3.78345 113.511L3.76966 113.383L3.69613 113.337L3.44798 113.305L3.33309 113.35L3.17225 113.176L3.23199 113.162L3.31931 113.226L3.49393 113.02L3.55367 113.006L3.58125 113.052L3.64099 112.864L3.46636 112.391L3.88455 112.358L3.97186 112.267L4.07296 111.458L4.16028 111.16L4.36248 111.036L4.69794 111.049L4.75769 110.939L5.10235 110.81ZM13.5075 106.511L13.4477 106.654L13.5902 106.64L13.5764 106.718L13.6637 106.814H13.8245L13.7786 106.718L13.921 106.608L14.0497 106.621L14.2657 106.745L14.3071 106.7L14.4219 106.732L14.3484 106.902L14.3622 106.952L14.4495 106.966L14.4633 107.044L14.4219 107.076L14.4633 107.251L14.5644 107.517L14.6793 107.66L14.8263 107.627L14.9274 107.705L14.9734 107.66H15.2216L15.2813 107.614L15.6306 107.788L15.6168 107.885L15.5157 107.871L15.4559 108.188L15.5157 108.202V108.344L15.5892 108.454L15.7179 108.44L15.8052 108.486L15.7638 108.725L15.8511 109.056L16.1544 109.451L16.182 109.341L16.2969 109.263L16.4256 109.359L16.398 109.515L16.3245 109.612L16.2234 109.566L16.182 109.708L16.2234 109.947L16.182 110.232L16.2693 110.406L16.2418 110.659L16.3566 110.833L16.4164 110.82L16.4302 110.916L16.5313 111.013L16.7473 110.948L16.807 110.884L16.8667 111.183L16.637 111.357L16.6967 111.513L16.6232 111.578L16.5496 111.591V111.481L16.375 111.513L16.2739 111.578L16.1131 111.798V111.862L16.3015 112.179L16.3153 112.354L16.2739 112.368L16.2463 112.478L16.1177 112.51L16.0579 112.432L15.9844 112.418L15.8557 112.515L15.8144 112.721L15.9293 112.786L15.943 112.85L15.7822 112.96L15.7408 113.038H15.5662L15.4651 113.084L15.2629 113.24L15.0745 113.286L14.8585 113.461L14.4265 113.507L14.399 113.378L14.6609 113.392L14.7207 113.36L14.7069 113.153L14.8355 113.029L14.5322 112.556L14.4174 112.478L14.1278 112.413V112.368L13.9394 112.303H13.7924L13.7786 112.349H13.7188L13.6775 112.271L13.604 112.257L13.388 112.069L13.0111 111.862L12.2437 111.908L11.4349 112.147L10.695 112.478L10.3642 112.744L10.1022 113.029L9.98732 113.185L9.97354 113.282L9.88622 113.328L9.78512 113.548L9.65645 113.672L9.51399 114.191L9.42668 114.347L9.44046 114.568L9.26584 114.632L9.07742 114.568L9.01768 114.696H8.82927L8.78791 114.568L8.68681 114.581L8.61328 114.485L8.25024 114.471L8.26402 114.425L8.07561 114.173V114.095L7.57011 114.108L7.62526 113.98H7.57011L7.55632 113.856L7.44144 113.842L7.31276 113.621L7.11056 113.465L6.99568 113.452L7.02325 113.355L6.79348 113.309V113.199L6.65102 113.153L6.60506 113.089L6.82105 112.933H6.98189L7.0692 113.043L7.33115 112.946L7.35872 113.057H7.44603L7.47361 113.135H7.54713L7.70797 113.006L7.82286 112.992L7.80907 112.85L7.89639 112.721V112.565L7.82286 112.551L7.83665 112.455H7.95153L7.99289 112.377L8.05263 112.358H8.13995L8.15373 112.404H8.31458L8.32836 112.138L8.26862 112.041L8.28241 111.536L8.15373 111.109L7.93775 110.792L7.87801 110.507L8.00668 110.144H8.25483L8.34215 110.08V109.86L8.26862 109.749H8.19509L8.18131 109.828L8.09399 109.873L7.77691 109.841L7.66202 109.887V110.03L7.79069 110.172L7.61606 110.186L7.40008 110.011L7.38629 109.837L7.25762 109.759L7.33115 109.584L7.40467 109.52L7.41846 109.377L7.56092 109.267H7.79069L7.86422 109.047L7.93775 108.969L8.03885 108.95L8.12616 108.872H8.32836V108.762L8.42946 108.716L8.83386 108.936L9.31179 109.428L9.78972 109.809L9.97813 109.938L10.2952 110.034L10.4561 110.19L10.6307 110.158L11.3246 110.411H11.6417L11.9588 110.333L11.945 110.255L12.1931 109.988L12.2667 109.465L11.9358 109.102L11.9818 109.088L12.0691 109.152H12.2851L12.4137 109.088L12.354 109.01L12.4689 108.932L12.4827 108.854H12.6113L12.6711 108.789L12.6435 108.693L12.7722 108.583L12.7446 108.473L12.6849 108.459V108.349L12.57 108.284L12.6986 108.188V107.825L12.5975 107.604L13.1766 107.508L13.2179 107.366L13.3052 107.301L13.5948 107.237L13.581 106.998L13.4937 106.92L13.5212 106.764L13.4064 106.718L13.3466 106.608L13.4477 106.497L13.5075 106.511ZM68.9471 80.5L68.9747 80.5643H69.0896L69.1769 80.6929L69.1631 80.7894L68.9885 80.8215L69.0023 80.9501L68.8552 80.9042L68.8966 80.872L68.8828 80.7297L68.7357 80.794L68.676 80.7297V80.8077L68.4738 80.7434L68.5473 80.647L68.6346 80.6791L68.676 80.5827L68.7771 80.601L68.8047 80.5229L68.9471 80.5ZM67.6742 79.8202L67.7339 79.9488L68.0372 80.0269L68.0786 80.2014L68.0648 80.376L68.1521 80.3897V80.4541L68.0051 80.4862V80.4403L67.8304 80.4081L67.8166 80.33L67.5685 80.1877L67.495 80.059L67.4812 79.8983L67.5547 79.834L67.6742 79.8202ZM95.1137 23.6455L95.201 23.8062L95.0861 24.0451L95.3481 24.1094L95.3756 24.1875L95.4767 24.1369L95.5181 23.9762H95.78L95.8398 24.0083V24.0542L95.5916 24.3574L95.564 24.5319L95.4492 24.5962L95.2883 24.6146L95.247 24.8856L95.1459 24.8672L95.0907 24.9637L94.9896 24.9958L94.9161 24.9315L94.9023 24.8535L94.6725 25.1107H94.599L94.4979 25.2852H94.4566L94.3417 25.2071V25.1291L94.4152 25.0969L94.4887 24.8581L94.576 24.78L94.5163 24.7616L94.4887 24.6835L94.6174 24.7157L94.8472 24.4447L94.8609 24.2196L95.0218 23.9486L95.0356 23.7557L95.1137 23.6455ZM92.3197 23.5306L92.3334 23.6592L92.2323 23.6776V23.7557L92.1588 23.7878L92.1726 23.6914L92.2737 23.6455L92.3197 23.5306ZM93.5191 23.2734L93.5329 23.3699H93.6661L93.6064 23.4158L93.7534 23.4479L93.7259 23.5444L93.6661 23.5582L93.6202 23.6868L93.5329 23.7052L93.4318 23.8659L93.1836 23.8521L93.0411 24.1553L92.94 24.1875L92.8665 24.1553L92.8941 24.0772L92.8344 23.9991L92.6184 23.9853V23.8751L92.5035 23.797L92.3564 23.4939L92.3978 23.4158L92.4989 23.3699L92.9033 23.4204L93.0182 23.3561L93.1468 23.3882L93.5191 23.2734ZM92.0899 12.2084L92.191 12.2268L92.2323 12.3554L92.3334 12.4197L92.6505 12.4013L92.6367 12.5299L92.5219 12.5116L92.5356 12.6402L92.4208 12.8009L92.3748 13.0398L92.4759 13.0076L92.6781 13.0398L92.7654 12.9617L92.7792 13.0398L92.7057 13.0536L92.7195 13.15L92.8068 13.1959L92.8665 13.1133H92.9538L92.94 13.3062L93.0274 13.4669H93.1147V13.3383L93.1882 13.3062L93.2296 13.1959L93.2571 13.2281L93.418 13.2097L93.3904 13.1454L93.418 13.0352L93.2433 12.9249H93.4593L93.6891 12.6539L93.8637 12.6034L93.9373 12.6677V12.7963H93.9786L94.0659 12.6356L94.1533 12.6034L94.2406 12.6218L94.3003 12.5759L94.4152 12.6723L94.5898 12.6539L94.6633 12.5759L94.7047 12.608L94.5898 12.7045L94.5301 12.6907L94.5439 12.755L94.429 12.8698L94.4428 13.0122L94.4014 13.0444V13.173L94.2406 13.2189L94.1395 13.444L94.167 13.4899H94.1257L94.0521 13.6185H93.9786L93.8362 13.3475L93.8086 13.4302L93.6799 13.5404L93.6937 13.715L93.6523 13.7609L93.5788 13.7288L93.5512 13.8574L93.4318 13.9217L93.4042 14.0181L93.3169 14.0686H93.1285L93.1009 13.8941H93.0274L92.6505 14.1513L92.7378 14.2156L92.7241 14.2662L92.5954 14.2478L92.5816 14.2937L92.4208 14.3718L92.361 14.3259L92.3748 14.133L92.0301 14.1835L91.8279 14.1008V13.94H91.7406L91.7131 13.986L91.6257 13.94V13.8757L91.6993 13.8252V13.6966L91.9153 13.5037L91.929 13.3934L92.0577 13.2327L91.998 13.0903L91.8371 13.1087L91.8233 13.0765L91.8969 13.0444L91.9244 12.9663H92.0255L92.0531 12.8193L92.1266 12.755V12.6448H92.0531L91.975 12.5437L92.0164 12.4656L91.975 12.3232L92.0164 12.213H92.0899V12.2084ZM95.0126 11.0693L95.1137 11.1014V11.1795L95.054 11.2301L94.9529 11.1979L94.9666 11.0831L95.0126 11.0693ZM96.3866 8.55222L96.4004 8.64868L96.4877 8.76351L96.6164 8.74514L96.7037 8.80944L96.6762 8.98398L96.7497 9.15853L96.9105 9.11259L97.1725 9.15853L97.1311 9.48005L96.9427 9.62244L97.0576 9.73268L97.0714 9.92559L97.2 9.91181L97.2276 9.94396L97.2138 10.0083L97.0989 10.0726L97.1403 10.1047V10.1828L96.9932 10.2609L96.9197 10.2287L96.9059 10.1644L96.9657 10.1001L96.9519 9.97152L96.837 9.9164L96.8094 9.72349L96.6624 9.6454L96.6899 9.50302L96.6348 9.37441L96.5199 9.47086L96.4326 9.63162H96.3912L96.4326 9.45708H96.3039L96.2166 9.74645L96.0144 9.7143L95.872 9.95315L95.7984 9.921L95.8122 9.72808L95.5365 9.69593L95.4767 9.77401L95.2286 9.87047L95.201 9.921L95.0723 9.87047L94.9575 9.98071V10.2517L94.9161 10.3941L94.9575 10.44L94.9712 10.6789L94.9115 10.8396L94.9988 10.9039V11.0188L94.9391 11.0969L94.8104 11.0785L94.6358 11.1244L94.5944 10.5962L94.6955 10.5319V10.4768L94.6082 10.3482H94.6955L94.7093 10.2517L94.8518 10.1093V10.0266L94.7644 9.99449L94.7369 9.70512L94.6771 9.68674L94.6633 9.55813L94.8931 9.59029L95.0677 9.38359H95.1688L95.2837 9.27336L95.4584 9.35144L95.4721 9.28714L95.5595 9.26876L95.6468 9.108L95.9363 8.88293L95.996 8.80485V8.67624L96.1109 8.566L96.3269 8.57978L96.3866 8.55222ZM96.8921 7.54172L96.9335 7.61981H97.1219L97.1357 7.68411L97.0898 7.74842L96.7451 7.81272L96.6578 7.97348V8.06994L96.5429 8.10209L96.5153 8.21692H96.4004L96.2718 8.34553L96.1707 8.37768L96.1247 8.26285L96.2855 7.90918H96.3729L96.4142 7.95511L96.5015 7.79435L96.6302 7.85865L96.791 7.69789L96.8048 7.56928L96.8921 7.54172ZM95.8811 5.90655L95.8949 5.97085L95.9363 5.9387L95.9639 5.98463L95.849 6.08109L95.8628 6.11324H95.8214L95.78 6.24185L95.9547 6.19132L95.8949 6.31993L95.9685 6.35209L95.9822 6.43017L95.7938 6.57256V6.68739L95.8811 6.70117L95.8674 6.78385L95.6376 6.94461L95.5778 6.91246L95.3619 6.94461V6.83437L95.2745 6.78844L95.2608 6.56337L95.3481 6.57715L95.3619 6.51285L95.5227 6.49907V6.33831L95.4216 6.32453L95.4078 6.22807L95.4951 6.19592L95.5227 6.11783L95.6376 6.14998L95.6652 5.95707L95.8811 5.90655ZM108.326 2.2274L108.353 2.38816L108.078 2.67753L108.064 2.75562L107.917 2.80155L107.788 2.98068L107.471 2.99906L107.512 2.91638L107.586 2.94853L107.627 2.88423H107.687L107.816 2.5627H107.93L108.032 2.40194L108.326 2.2274ZM121.395 0.14209L121.423 0.348783L121.524 0.330411L121.538 0.445241H121.597L121.551 0.509545L121.597 0.57385L121.469 0.716239L121.496 0.858628H121.597L121.639 0.922933L121.754 0.909153V0.831069L121.983 0.895373L121.97 0.68868L122.071 0.527918L122.218 0.449834L122.406 0.468206L122.448 0.564664L122.406 0.743798L122.549 0.840255H122.65L122.751 0.762171L122.806 0.922933L122.967 1.10207L123.013 1.19852L122.999 1.29498L122.884 1.31335L122.783 1.2169L122.641 1.24905L122.581 1.08829H122.493L122.448 1.18474L122.461 1.34551L122.346 1.37766L122.245 1.49249L122.158 1.73133L122.043 1.76349V1.63488H121.928L121.827 1.69918L121.786 1.6211L121.685 1.60272L121.698 1.69918L121.758 1.71296L121.731 1.80942L121.703 1.84157L121.588 1.80942L121.561 1.71296L121.432 1.6165L121.446 1.5522H121.519L121.547 1.47412V1.31335L121.473 1.23527L121.602 1.26742L121.689 1.17096L121.602 0.959678H121.427L121.299 1.10666L121.225 1.08829L121.239 0.766764L121.179 0.734612L121.221 0.495766H121.161L121.147 0.56007L121.046 0.624375L120.89 0.927526H120.816L120.775 0.849441L120.848 0.702459L120.775 0.527918L121.05 0.399309L121.032 0.14209L121.193 0.174242V0.238547L121.294 0.155869L121.395 0.14209Z" fill="#E2E8F0"/>
</svg>
