<svg width="102" height="28" viewBox="0 0 102 28" fill="none" xmlns="http://www.w3.org/2000/svg">
<path d="M58.9768 8.10861L64.8063 5.93807L58.9768 3.70551V0.666748L68.9613 4.69776V7.17838L58.9768 11.2094V8.10861Z" fill="#A100FF"/>
<path d="M3.84496 27.3335C1.73643 27.3335 0 26.2792 0 23.9226V23.7986C0 20.9459 2.48062 19.9536 5.51938 19.9536H6.94574V19.3955C6.94574 18.2172 6.44961 17.535 5.2093 17.535C4.09302 17.535 3.53488 18.1552 3.47287 19.0234H0.372093C0.620155 16.4187 2.66667 15.1784 5.39535 15.1784C8.18605 15.1784 10.2326 16.3567 10.2326 19.2714V27.0854H7.06977V25.7211C6.44961 26.5893 5.39535 27.3335 3.84496 27.3335ZM6.94574 23.2404V22.1242H5.64341C4.03101 22.1242 3.22481 22.5583 3.22481 23.6125V23.7366C3.22481 24.5428 3.72093 25.1009 4.83721 25.1009C5.95349 25.0389 6.94574 24.4187 6.94574 23.2404ZM17.6124 27.3335C14.3876 27.3335 12.031 25.349 12.031 21.38V21.1939C12.031 17.2249 14.5116 15.1164 17.6124 15.1164C20.2791 15.1164 22.4496 16.4807 22.6977 19.5195H19.5969C19.4109 18.4032 18.7907 17.659 17.6744 17.659C16.3101 17.659 15.3178 18.7753 15.3178 21.0699V21.442C15.3178 23.7986 16.186 24.8528 17.6744 24.8528C18.7907 24.8528 19.5969 24.0466 19.7829 22.7443H22.7597C22.5736 25.473 20.7752 27.3335 17.6124 27.3335ZM29.7674 27.3335C26.5426 27.3335 24.186 25.349 24.186 21.38V21.1939C24.186 17.2249 26.6667 15.1164 29.7674 15.1164C32.4341 15.1164 34.6047 16.4807 34.8527 19.5195H31.7519C31.5659 18.4032 30.9457 17.659 29.8295 17.659C28.4651 17.659 27.4729 18.7753 27.4729 21.0699V21.442C27.4729 23.7986 28.3411 24.8528 29.8295 24.8528C30.9457 24.8528 31.7519 24.0466 31.938 22.7443H34.9147C34.7287 25.473 32.9302 27.3335 29.7674 27.3335ZM41.9845 27.3335C38.6357 27.3335 36.3411 25.349 36.3411 21.442V21.1939C36.3411 17.2869 38.7597 15.1164 41.9225 15.1164C44.8372 15.1164 47.2558 16.7288 47.2558 20.6358V22.0621H39.6279C39.7519 24.1707 40.6822 24.9769 42.0465 24.9769C43.2868 24.9769 43.969 24.2947 44.2171 23.4885H47.2558C46.8837 25.659 45.0233 27.3335 41.9845 27.3335ZM39.6899 19.8916H44.031C43.969 18.1552 43.1628 17.411 41.8605 17.411C40.8682 17.473 39.938 18.0311 39.6899 19.8916ZM49.2403 15.4265H52.5271V17.1629C53.0853 16.0466 54.2636 15.1784 56.062 15.1784C58.1705 15.1784 59.5969 16.4807 59.5969 19.2714V27.0854H56.3101V19.7676C56.3101 18.4032 55.7519 17.7831 54.5736 17.7831C53.4574 17.7831 52.5271 18.4652 52.5271 19.9536V27.0854H49.2403V15.4265ZM65.6124 11.8916V15.4265H67.845V17.8451H65.6124V23.3645C65.6124 24.2327 65.9845 24.6668 66.7907 24.6668C67.2868 24.6668 67.5969 24.6048 67.907 24.4807V27.0234C67.5349 27.1474 66.8527 27.2714 66.0465 27.2714C63.5039 27.2714 62.3256 26.0932 62.3256 23.7366V17.8451H60.9612V15.4265H62.3256V13.2559L65.6124 11.8916ZM80.124 27.0854H76.8992V25.349C76.3411 26.4652 75.2248 27.3335 73.4884 27.3335C71.3798 27.3335 69.8295 26.0311 69.8295 23.3025V15.4265H73.1163V22.8683C73.1163 24.2327 73.6744 24.8528 74.7907 24.8528C75.907 24.8528 76.8372 24.1087 76.8372 22.6823V15.4265H80.124V27.0854ZM82.5426 15.4265H85.8295V17.597C86.5116 16.0466 87.6279 15.3025 89.3643 15.3025V18.5273C87.1318 18.5273 85.8295 19.2094 85.8295 21.1319V27.1474H82.5426V15.4265ZM96 27.3335C92.6512 27.3335 90.3566 25.349 90.3566 21.442V21.1939C90.3566 17.2869 92.7752 15.1164 95.938 15.1164C98.8527 15.1164 101.271 16.7288 101.271 20.6358V22.0621H93.7054C93.8295 24.1707 94.7597 24.9769 96.124 24.9769C97.3643 24.9769 98.0465 24.2947 98.2946 23.4885H101.333C100.837 25.659 99.0388 27.3335 96 27.3335ZM93.6434 19.8916H98.0465C97.9845 18.1552 97.1783 17.411 95.876 17.411C94.8837 17.473 93.9535 18.0311 93.6434 19.8916Z" fill="black"/>
</svg>
