<svg width="336" height="334" viewBox="0 0 336 334" fill="none" xmlns="http://www.w3.org/2000/svg">
<path d="M0 324.621C0.575503 318.682 1.10673 312.743 1.72651 306.815C4.12295 284.088 10.3691 261.933 20.1979 241.298C24.8794 231.433 30.0811 221.811 35.0614 212.079C35.4469 211.221 36.0787 210.498 36.8764 210C36.8215 210.658 36.7028 211.31 36.5223 211.946C29.4724 230.581 25.4549 250.024 21.1829 269.401C18.7038 280.571 15.0406 291.465 12.3291 302.579C9.8389 312.533 7.84679 322.664 5.63331 332.706C5.55584 333.06 5.43407 333.392 5.25699 334H0.0664014L0 324.621Z" fill="#1C1B18" fill-opacity="0.05"/>
<path d="M302.869 -0.0222168C302.238 0.442286 301.652 1.21646 300.955 1.32706C276.606 5.2311 253.442 13.3157 230.533 22.1523C226.792 23.59 226.493 23.5237 225.42 20.7588C225.185 20.2062 225.073 19.6089 225.092 19.0087C225.112 18.4085 225.262 17.8198 225.533 17.2837C225.804 16.7476 226.189 16.2771 226.661 15.905C227.132 15.5329 227.68 15.2682 228.264 15.1295C233.898 13.2714 239.498 10.9268 245.297 9.98671C263.558 7.02274 281.321 1.26068 299.936 0.375913C300.386 0.308815 300.826 0.182374 301.242 -0.000109741L302.869 -0.0222168Z" fill="#1C1B18" fill-opacity="0.05"/>
<path d="M312.741 106.769C310.993 106.858 310.107 106.935 309.222 106.957C282.527 107.311 255.91 108.926 229.338 111.381C228.221 111.413 227.134 111.755 226.2 112.368C225.266 112.982 224.521 113.842 224.048 114.854C202.312 153.22 184.776 193.814 171.743 235.934C163.631 262.939 157.345 290.459 152.929 318.306C152.517 321.249 151.824 324.145 150.859 326.955C150.396 326.249 149.986 325.509 149.631 324.743C142.747 306.856 135.9 288.965 129.09 271.071C128.721 269.956 128.671 268.761 128.946 267.62C136.163 235.814 146.384 204.763 159.47 174.885C172.75 144.527 189.351 116.026 208.066 88.7421C208.847 87.6739 210.007 86.9456 211.309 86.7072C222.996 85.3579 234.694 84.1118 246.404 82.969C253.542 82.2833 260.703 81.8077 267.863 81.3875C269.312 81.2585 270.767 81.5463 272.058 82.2169C285.095 89.9587 298.055 97.7004 311.026 105.52C311.402 105.685 311.723 105.995 312.741 106.769Z" fill="#1C1B18" fill-opacity="0.05"/>
<path d="M281.388 148.033L287.497 165.396C291.47 176.743 295.498 188.08 299.35 199.471C299.831 200.997 299.831 202.634 299.35 204.16C285.162 246.253 272.047 288.656 261.555 331.843C261.378 332.54 261.112 333.215 260.88 333.9H222.731C235.912 269.921 256.11 208.296 281.388 148.033Z" fill="#1C1B18" fill-opacity="0.05"/>
<path d="M249.37 37.5804C251.661 35.5344 253.575 33.6985 255.612 32.0506C263.591 25.4148 271.438 18.7127 279.683 12.4751C282.339 10.4733 285.98 9.67702 289.279 8.68165C295.775 6.71304 302.327 4.99883 308.868 3.20717C309.809 2.97391 310.793 2.97391 311.734 3.20717C301.422 10.6435 292.082 19.3414 283.933 29.0977C334.278 53.6942 383.539 79.806 430.022 110.861L429.79 111.613C425.075 111.326 420.36 111.016 415.646 110.751C405.685 110.198 395.835 109.291 385.919 109.236C378.581 109.236 372.461 107.024 366.208 103.219C348.788 92.5724 331.143 82.3017 313.273 72.4071C293.019 61.1263 272.5 50.2879 252.103 39.3168C251.395 38.8633 250.742 38.3988 249.37 37.5804Z" fill="#1C1B18" fill-opacity="0.05"/>
<path d="M39.7097 170.672C41.3919 167.763 43.0299 164.799 44.7674 161.946C47.822 157.035 51.1865 152.302 54.064 147.292C60.8483 135.425 71.1299 127.528 82.9277 121.224C99.7611 112.244 117.812 106.57 136.051 101.494C138.862 100.72 141.684 100.001 144.971 99.127C144.34 102.566 143.865 105.608 143.223 108.616C140.71 120.859 140.688 133.268 140.533 145.677C140.5 147.939 139.939 150.161 138.895 152.169C130.436 168.371 122.865 185.022 116.218 202.048C115.796 203.213 115.195 204.307 114.436 205.288C110.651 181.344 109.711 157.466 113.772 132.593C86.5135 141.441 60.129 150.012 40.2188 171.169L39.7097 170.672Z" fill="#1C1B18" fill-opacity="0.05"/>
<path d="M342.258 333.978H313.184C310.417 333.978 307.65 333.978 304.895 333.978C302.139 333.978 301.574 333.337 302.327 330.66C303.733 325.739 305.171 320.817 306.754 315.94C311.506 301.031 316.301 286.13 321.141 271.237C321.514 270.419 321.942 269.628 322.425 268.87C329.032 290.956 335.54 312.235 342.258 333.978Z" fill="#1C1B18" fill-opacity="0.05"/>
<path d="M208.343 22.8711C207.5 23.3716 206.632 23.8293 205.742 24.2424C192.207 29.9934 180.907 38.7747 170.957 49.4915C168.535 51.9825 165.852 54.2071 162.956 56.1273C149.066 65.7602 135.232 75.5037 121.066 84.7274C113.706 89.5162 105.693 93.2875 97.9572 97.5012C97.3563 97.6207 96.7429 97.6653 96.131 97.6339C100.359 93.8847 104.044 90.6111 107.741 87.3485C121.686 75.006 137.091 64.6542 152.597 54.3799C159.237 49.956 165.225 44.5589 171.865 40.1461C182.654 33.1498 194.155 27.3146 206.174 22.7383C206.829 22.5211 207.498 22.3474 208.177 22.2185L208.343 22.8711Z" fill="#1C1B18" fill-opacity="0.05"/>
</svg>
