<svg width="54" height="54" viewBox="0 0 54 54" fill="none" xmlns="http://www.w3.org/2000/svg">
<path d="M27 11.8125C29.7959 11.8125 32.0625 9.54594 32.0625 6.75C32.0625 3.95406 29.7959 1.6875 27 1.6875C24.2041 1.6875 21.9375 3.95406 21.9375 6.75C21.9375 9.54594 24.2041 11.8125 27 11.8125Z" stroke="#FEBF10" stroke-width="2" stroke-miterlimit="10" stroke-linecap="square"/>
<path d="M6.75 20.25C9.54594 20.25 11.8125 17.9834 11.8125 15.1875C11.8125 12.3916 9.54594 10.125 6.75 10.125C3.95406 10.125 1.6875 12.3916 1.6875 15.1875C1.6875 17.9834 3.95406 20.25 6.75 20.25Z" stroke="#FEBF10" stroke-width="2" stroke-miterlimit="10" stroke-linecap="square"/>
<path d="M47.25 20.25C50.0459 20.25 52.3125 17.9834 52.3125 15.1875C52.3125 12.3916 50.0459 10.125 47.25 10.125C44.4541 10.125 42.1875 12.3916 42.1875 15.1875C42.1875 17.9834 44.4541 20.25 47.25 20.25Z" stroke="#FEBF10" stroke-width="2" stroke-miterlimit="10" stroke-linecap="square"/>
<path d="M27 37.125C31.6599 37.125 35.4375 33.3474 35.4375 28.6875C35.4375 24.0276 31.6599 20.25 27 20.25C22.3401 20.25 18.5625 24.0276 18.5625 28.6875C18.5625 33.3474 22.3401 37.125 27 37.125Z" stroke="#1C1B18" stroke-width="2" stroke-miterlimit="10" stroke-linecap="square"/>
<path d="M10.125 49.5383C10.125 46.1211 12.6681 43.2574 16.0599 42.8355C18.8494 42.4879 22.5484 42.1875 27 42.1875C31.4516 42.1875 35.1506 42.4879 37.9401 42.8355C41.3319 43.2574 43.875 46.1211 43.875 49.5383V52.3125H10.125V49.5383Z" stroke="#1C1B18" stroke-width="2" stroke-miterlimit="10" stroke-linecap="square"/>
</svg>
