<svg width="64" height="48" viewBox="0 0 64 48" fill="none" xmlns="http://www.w3.org/2000/svg">
<path d="M49.7028 23.1485H39.6188H39.5515L32.0221 0L29.826 6.31933L36.616 27.1821H44.3471L49.7028 23.1485Z" fill="#FDBE10"/>
<path d="M27.2717 27.1147L29.6471 19.7646L27.4958 13.4229L24.3585 23.0363V23.0811H0L5.33333 27.1147H27.2717Z" fill="#AF892E"/>
<path d="M63.8206 23.238L57.1428 23.1035L51.5405 27.1819H58.3977L63.8206 23.238Z" fill="#FDBE10"/>
<path d="M12.3923 32.3364C16.045 32.3364 18.0394 33.6361 18.0394 36.3924C18.0394 37.9835 17.2326 39.0815 16.0001 39.6866C17.5912 40.2692 18.5323 41.4345 18.5323 43.3616C18.5323 45.7594 16.9637 47.7986 12.8853 47.7986H7.21582V32.3364H12.3923ZM10.3531 38.4541H12.4371C14.1626 38.4541 14.9021 37.7818 14.9021 36.6838C14.9021 35.6081 14.3643 34.9807 12.101 34.9807H10.3531V38.4541ZM10.3531 45.1544H12.6164C14.4987 45.1544 15.3951 44.4373 15.3951 43.1151C15.3951 41.6586 14.4315 41.0983 12.3251 41.0983H10.3531V45.1544Z" fill="white"/>
<path d="M23.9328 45.1544H30.4314V47.7986H20.7955V32.3364H23.9328V45.1544Z" fill="white"/>
<path d="M36.9525 48.0003C33.4791 48.0003 31.0365 45.8939 31.0365 41.1656V38.9695C31.0365 34.1964 33.4791 32.1348 36.9525 32.1348C40.4483 32.1348 42.8908 34.1964 42.8908 38.9695V41.1656C42.8908 45.8939 40.4483 48.0003 36.9525 48.0003ZM34.1738 41.1656C34.1738 44.1236 35.1373 45.3561 36.9525 45.3561C38.7676 45.3561 39.7536 44.1236 39.7536 41.1656V38.9695C39.7536 36.0115 38.7676 34.779 36.9525 34.779C35.1373 34.779 34.1738 36.0115 34.1738 38.9695V41.1656Z" fill="white"/>
<path d="M56.605 39.7538V41.1656C56.605 45.8939 54.409 48.0003 50.9132 48.0003C47.4398 48.0003 44.9972 45.8939 44.9972 41.1656V39.1936C44.9972 34.1964 47.4398 32.1348 50.9132 32.1348C54.1625 32.1348 56.112 33.9723 56.5826 37.132H53.5798C53.3109 35.7202 52.4818 34.779 50.9132 34.779C49.098 34.779 48.1344 36.0115 48.1344 38.9695V41.1656C48.1344 44.1236 49.098 45.3561 50.9132 45.3561C52.6835 45.3561 53.4006 44.258 53.5798 42.3981H50.9804V39.7538H56.605Z" fill="white"/>
</svg>
