<svg width="18" height="18" viewBox="0 0 18 18" fill="none" xmlns="http://www.w3.org/2000/svg">
<path fill-rule="evenodd" clip-rule="evenodd" d="M9.49794 10.9212L3.71039 16.7008C3.31871 17.0919 2.68413 17.0915 2.29302 16.6998C1.90192 16.3081 1.90239 15.6735 2.29407 15.2824L8.08116 9.50328L2.29328 3.71059C1.90206 3.31902 1.90234 2.68445 2.29392 2.29323C2.68549 1.90201 3.32007 1.9023 3.71129 2.29387L9.49951 8.08689L15.3014 2.29302C15.6931 1.90192 16.3276 1.90239 16.7187 2.29407C17.1098 2.68576 17.1094 3.32033 16.7177 3.71144L10.9163 9.50485L16.7162 15.3095C17.1074 15.7011 17.1071 16.3357 16.7155 16.7269C16.3239 17.1181 15.6894 17.1178 15.2981 16.7263L9.49794 10.9212Z" fill="white"/>
</svg>
