<svg width="32" height="32" viewBox="0 0 32 32" fill="none" xmlns="http://www.w3.org/2000/svg">
<path d="M16.4004 27V21" stroke="#1C1B18" stroke-width="2" stroke-linecap="round" stroke-linejoin="round"/>
<path d="M12.4004 27H20.4004C21.4613 27 22.4787 27.4214 23.2288 28.1716C23.979 28.9217 24.4004 29.9391 24.4004 31H8.40039C8.40039 29.9391 8.82182 28.9217 9.57196 28.1716C10.3221 27.4214 11.3395 27 12.4004 27V27Z" stroke="#1C1B18" stroke-width="2" stroke-linecap="round" stroke-linejoin="round"/>
<path d="M24.4004 3H30.4004V9C30.4004 10.5913 29.7683 12.1174 28.643 13.2426C27.5178 14.3679 25.9917 15 24.4004 15V15" stroke="#1C1B18" stroke-width="2" stroke-linecap="round" stroke-linejoin="round"/>
<path d="M8.40039 3H2.40039V9C2.40039 10.5913 3.03253 12.1174 4.15775 13.2426C5.28297 14.3679 6.80909 15 8.40039 15" stroke="#1C1B18" stroke-width="2" stroke-linecap="round" stroke-linejoin="round"/>
<path d="M8.40039 1H24.4004V13C24.4004 15.1217 23.5575 17.1566 22.0572 18.6569C20.557 20.1571 18.5221 21 16.4004 21C14.2787 21 12.2438 20.1571 10.7435 18.6569C9.24324 17.1566 8.40039 15.1217 8.40039 13V1Z" stroke="#1C1B18" stroke-width="2" stroke-linecap="round" stroke-linejoin="round"/>
<path d="M16.5 4L18.4397 6.83024L21.7308 7.80041L19.6385 10.5198L19.7328 13.9496L16.5 12.8L13.2672 13.9496L13.3615 10.5198L11.2692 7.80041L14.5603 6.83024L16.5 4Z" fill="#FEBF10"/>
</svg>
