<svg width="13" height="12" viewBox="0 0 13 12" fill="none" xmlns="http://www.w3.org/2000/svg">
<g clip-path="url(#clip0)">
<path d="M0.5 3.75H3.1835V12H0.5V3.75Z" fill="white" fill-opacity="0.6"/>
<path d="M10.493 3.84675C10.4645 3.83775 10.4375 3.828 10.4075 3.81975C10.3715 3.8116 10.3352 3.80459 10.2987 3.79875C10.1403 3.76635 9.97898 3.75002 9.81725 3.75C8.25275 3.75 7.2605 4.88775 6.9335 5.32725V3.75H4.25V12H6.9335V7.5C6.9335 7.5 8.9615 4.6755 9.81725 6.75V12H12.5V6.43275C12.4989 5.84035 12.3012 5.26507 11.938 4.79708C11.5748 4.32909 11.0666 3.99485 10.493 3.84675Z" fill="white" fill-opacity="0.6"/>
<path d="M1.8125 2.625C2.53737 2.625 3.125 2.03737 3.125 1.3125C3.125 0.587626 2.53737 0 1.8125 0C1.08763 0 0.5 0.587626 0.5 1.3125C0.5 2.03737 1.08763 2.625 1.8125 2.625Z" fill="white" fill-opacity="0.6"/>
</g>
<defs>
<clipPath id="clip0">
<rect width="12" height="12" fill="white" transform="translate(0.5)"/>
</clipPath>
</defs>
</svg>
