<svg width="100" height="32" viewBox="0 0 100 32" fill="none" xmlns="http://www.w3.org/2000/svg">
<rect x="2" y="2" width="96" height="28" rx="14" fill="#1C1B18" fill-opacity="0.7"/>
<path d="M18 19C19.6569 19 21 17.6569 21 16C21 14.3431 19.6569 13 18 13C16.3431 13 15 14.3431 15 16C15 17.6569 16.3431 19 18 19Z" fill="#FB4848"/>
<path d="M12 16C12 14.4 12.6 12.9 13.8 11.7C14.2 11.3 14.2 10.7 13.8 10.3C13.4 9.9 12.8 9.9 12.4 10.3C10.9 11.8 10 13.8 10 16C10 18.2 10.9 20.2 12.4 21.7C12.6 21.9 12.9 22 13.1 22C13.4 22 13.6 21.9 13.8 21.7C14.2 21.3 14.2 20.7 13.8 20.3C12.6 19.1 12 17.6 12 16Z" fill="#FB4848"/>
<path d="M23.6 10.3C23.2 9.9 22.6 9.9 22.2 10.3C21.8 10.7 21.8 11.3 22.2 11.7C23.4 12.9 24 14.4 24 16C24 17.6 23.4 19.1 22.2 20.3C21.8 20.7 21.8 21.3 22.2 21.7C22.4 21.9 22.7 22 22.9 22C23.2 22 23.4 21.9 23.6 21.7C25.1 20.2 26 18.2 26 16C26 13.8 25.1 11.8 23.6 10.3Z" fill="#FB4848"/>
<path d="M31.02 10.72H32.052V18.064H36.012V19H31.02V10.72ZM37.9317 19H36.9717V13H37.9317V19ZM37.9917 11.8H36.9117V10.72H37.9917V11.8ZM41.9185 17.776L43.7425 13H44.8225L42.4225 19H41.4625L39.0145 13H40.0945L41.9185 17.776ZM49.3454 17.56L50.0894 18.088C49.8814 18.448 49.6094 18.708 49.2734 18.868C48.9454 19.02 48.5174 19.096 47.9894 19.096C47.1894 19.096 46.5614 18.856 46.1054 18.376C45.6494 17.888 45.4214 17.224 45.4214 16.384V15.592C45.4214 14.728 45.6254 14.064 46.0334 13.6C46.4414 13.136 47.0294 12.904 47.7974 12.904C48.5814 12.904 49.1734 13.136 49.5734 13.6C49.9734 14.056 50.1734 14.72 50.1734 15.592V16.216H46.3814V16.384C46.3814 16.944 46.5134 17.392 46.7774 17.728C47.0414 18.064 47.4214 18.232 47.9174 18.232C48.6134 18.232 49.0894 18.008 49.3454 17.56ZM47.7974 13.768C46.9174 13.768 46.4454 14.304 46.3814 15.376H49.2014C49.1534 14.304 48.6854 13.768 47.7974 13.768ZM58.6728 13.9L57.9528 14.404C57.7848 14.18 57.5928 14.024 57.3768 13.936C57.1608 13.84 56.8568 13.792 56.4648 13.792C56.1048 13.792 55.8208 13.864 55.6128 14.008C55.4048 14.144 55.3008 14.34 55.3008 14.596C55.3008 15.164 55.7648 15.48 56.6928 15.544C57.3088 15.592 57.8048 15.728 58.1808 15.952C58.6288 16.2 58.8528 16.66 58.8528 17.332C58.8528 17.892 58.6608 18.328 58.2768 18.64C57.8928 18.944 57.3328 19.096 56.5968 19.096C55.5328 19.096 54.7608 18.764 54.2808 18.1L54.9888 17.596C55.1568 17.812 55.3608 17.968 55.6008 18.064C55.8488 18.16 56.1848 18.208 56.6088 18.208C57.0088 18.208 57.3208 18.136 57.5448 17.992C57.7768 17.84 57.8928 17.628 57.8928 17.356C57.8928 17.036 57.7808 16.808 57.5568 16.672C57.3328 16.528 56.9288 16.436 56.3448 16.396C55.0088 16.3 54.3408 15.704 54.3408 14.608C54.3408 14.088 54.5288 13.676 54.9048 13.372C55.2808 13.06 55.8088 12.904 56.4888 12.904C57.5208 12.904 58.2488 13.236 58.6728 13.9ZM60.4106 13.864H59.6426V13H60.4106V11.68H61.3706V13H62.7506V13.864H61.3706V16.912C61.3706 17.376 61.4266 17.688 61.5386 17.848C61.6506 18.008 61.8946 18.088 62.2706 18.088H62.7506V19H62.2346C61.5546 19 61.0786 18.86 60.8066 18.58C60.5426 18.292 60.4106 17.816 60.4106 17.152V13.864ZM68.0238 13.72L67.2078 14.296C66.9678 13.96 66.6318 13.792 66.1998 13.792C65.8158 13.792 65.5038 13.928 65.2638 14.2C65.0318 14.464 64.9158 14.812 64.9158 15.244V19H63.9558V13H64.9158V13.588C65.1958 13.132 65.6598 12.904 66.3078 12.904C67.0678 12.904 67.6398 13.176 68.0238 13.72ZM72.3024 17.56L73.0464 18.088C72.8384 18.448 72.5664 18.708 72.2304 18.868C71.9024 19.02 71.4744 19.096 70.9464 19.096C70.1464 19.096 69.5184 18.856 69.0624 18.376C68.6064 17.888 68.3784 17.224 68.3784 16.384V15.592C68.3784 14.728 68.5824 14.064 68.9904 13.6C69.3984 13.136 69.9864 12.904 70.7544 12.904C71.5384 12.904 72.1304 13.136 72.5304 13.6C72.9304 14.056 73.1304 14.72 73.1304 15.592V16.216H69.3384V16.384C69.3384 16.944 69.4704 17.392 69.7344 17.728C69.9984 18.064 70.3784 18.232 70.8744 18.232C71.5704 18.232 72.0464 18.008 72.3024 17.56ZM70.7544 13.768C69.8744 13.768 69.4024 14.304 69.3384 15.376H72.1584C72.1104 14.304 71.6424 13.768 70.7544 13.768ZM74.2378 17.248C74.2378 16.104 74.9858 15.532 76.4818 15.532H77.9098V14.836C77.9098 14.436 77.8098 14.164 77.6098 14.02C77.4178 13.868 77.0738 13.792 76.5778 13.792C76.1618 13.792 75.8578 13.832 75.6658 13.912C75.4738 13.992 75.2978 14.156 75.1378 14.404L74.4178 13.9C74.6338 13.54 74.9058 13.284 75.2338 13.132C75.5698 12.98 76.0218 12.904 76.5898 12.904C77.3898 12.904 77.9698 13.052 78.3298 13.348C78.6898 13.644 78.8698 14.14 78.8698 14.836V19H77.9098V18.412C77.7498 18.676 77.5578 18.856 77.3338 18.952C77.1178 19.048 76.8018 19.096 76.3858 19.096C75.6978 19.096 75.1658 18.936 74.7898 18.616C74.4218 18.288 74.2378 17.832 74.2378 17.248ZM77.9098 16.696V16.348H76.4818C76.0338 16.348 75.7058 16.424 75.4978 16.576C75.2978 16.72 75.1978 16.952 75.1978 17.272C75.1978 17.896 75.5938 18.208 76.3858 18.208C76.8898 18.208 77.2698 18.112 77.5258 17.92C77.7818 17.712 77.9098 17.304 77.9098 16.696ZM81.3923 19H80.4323V13H81.3923V13.588C81.6883 13.132 82.1843 12.904 82.8803 12.904C83.7043 12.904 84.2883 13.22 84.6323 13.852C85.0403 13.22 85.6403 12.904 86.4323 12.904C87.0883 12.904 87.5963 13.108 87.9563 13.516C88.3163 13.916 88.4963 14.496 88.4963 15.256V19H87.5363V15.268C87.5363 14.284 87.1203 13.792 86.2883 13.792C85.9043 13.792 85.5843 13.932 85.3283 14.212C85.0723 14.484 84.9443 14.832 84.9443 15.256V19H83.9843V15.268C83.9843 14.284 83.5683 13.792 82.7363 13.792C82.3523 13.792 82.0323 13.932 81.7763 14.212C81.5203 14.492 81.3923 14.84 81.3923 15.256V19Z" fill="white"/>
<rect x="1" y="1" width="98" height="30" rx="15" stroke="white" stroke-opacity="0.2" stroke-width="2"/>
</svg>
