<svg width="61" height="28" viewBox="0 0 61 28" fill="none" xmlns="http://www.w3.org/2000/svg">
<rect x="2" y="2" width="57" height="24" rx="12" fill="#1C1B18" fill-opacity="0.7"/>
<path d="M18 17C19.6569 17 21 15.6569 21 14C21 12.3431 19.6569 11 18 11C16.3431 11 15 12.3431 15 14C15 15.6569 16.3431 17 18 17Z" fill="#FB4848"/>
<path d="M12 14C12 12.4 12.6 10.9 13.8 9.7C14.2 9.3 14.2 8.7 13.8 8.3C13.4 7.9 12.8 7.9 12.4 8.3C10.9 9.8 10 11.8 10 14C10 16.2 10.9 18.2 12.4 19.7C12.6 19.9 12.9 20 13.1 20C13.4 20 13.6 19.9 13.8 19.7C14.2 19.3 14.2 18.7 13.8 18.3C12.6 17.1 12 15.6 12 14Z" fill="#FB4848"/>
<path d="M23.6 8.3C23.2 7.9 22.6 7.9 22.2 8.3C21.8 8.7 21.8 9.3 22.2 9.7C23.4 10.9 24 12.4 24 14C24 15.6 23.4 17.1 22.2 18.3C21.8 18.7 21.8 19.3 22.2 19.7C22.4 19.9 22.7 20 22.9 20C23.2 20 23.4 19.9 23.6 19.7C25.1 18.2 26 16.2 26 14C26 11.8 25.1 9.8 23.6 8.3Z" fill="#FB4848"/>
<path d="M31.02 8.72H32.052V16.064H36.012V17H31.02V8.72ZM37.9317 17H36.9717V11H37.9317V17ZM37.9917 9.8H36.9117V8.72H37.9917V9.8ZM41.9185 15.776L43.7425 11H44.8225L42.4225 17H41.4625L39.0145 11H40.0945L41.9185 15.776ZM49.3454 15.56L50.0894 16.088C49.8814 16.448 49.6094 16.708 49.2734 16.868C48.9454 17.02 48.5174 17.096 47.9894 17.096C47.1894 17.096 46.5614 16.856 46.1054 16.376C45.6494 15.888 45.4214 15.224 45.4214 14.384V13.592C45.4214 12.728 45.6254 12.064 46.0334 11.6C46.4414 11.136 47.0294 10.904 47.7974 10.904C48.5814 10.904 49.1734 11.136 49.5734 11.6C49.9734 12.056 50.1734 12.72 50.1734 13.592V14.216H46.3814V14.384C46.3814 14.944 46.5134 15.392 46.7774 15.728C47.0414 16.064 47.4214 16.232 47.9174 16.232C48.6134 16.232 49.0894 16.008 49.3454 15.56ZM47.7974 11.768C46.9174 11.768 46.4454 12.304 46.3814 13.376H49.2014C49.1534 12.304 48.6854 11.768 47.7974 11.768Z" fill="white" fill-opacity="0.7"/>
<rect x="1" y="1" width="59" height="26" rx="13" stroke="white" stroke-opacity="0.2" stroke-width="2"/>
</svg>
