<svg width="152" height="52" viewBox="0 0 152 52" fill="none" xmlns="http://www.w3.org/2000/svg">
<path d="M139.466 15.2646H0V48.5632H139.466V15.2646Z" fill="#25211C"/>
<path d="M8.31428 29.3895C6.2357 29.3895 4.77124 28.1258 4.77124 25.2914V23.9805C4.77124 21.1165 6.2357 19.8824 8.31428 19.8824C10.3929 19.8824 11.8573 21.1165 11.8573 23.9805V25.2914C11.8573 28.1258 10.3988 29.3895 8.31428 29.3895ZM6.64905 25.2914C6.64905 27.0629 7.23956 27.807 8.31428 27.807C9.389 27.807 9.99132 27.0688 9.99132 25.2914V23.9805C9.99132 22.209 9.40081 21.4649 8.31428 21.4649C7.22775 21.4649 6.64905 22.209 6.64905 23.9805V25.2914Z" fill="white"/>
<path d="M15.6307 25.9823V29.2478H13.7529V20.0063H17.0657C19.2033 20.0063 20.5319 20.9866 20.5319 22.9589C20.5319 24.9312 19.2151 25.9823 17.0657 25.9823H15.6307ZM16.8118 24.3997C18.1109 24.3997 18.6659 23.9391 18.6659 22.9471C18.6659 22.0613 18.1109 21.5771 16.8118 21.5771H15.6307V24.3997H16.8118Z" fill="white"/>
<path d="M27.7833 20.0063V21.6007H23.886V23.6852H27.3818V25.2678H23.886V27.6829H27.7833V29.2655H22.0082V20.0063H27.7833Z" fill="white"/>
<path d="M36.387 20.0063V29.2655H34.8163L31.2083 23.5376V29.2655H29.4191V20.0063H30.978L34.6037 25.8169V20.0063H36.387Z" fill="white"/>
<path d="M43.7683 20.0772C45.9414 20.0772 47.1283 20.8508 47.1283 22.4924C47.1415 22.9019 47.0329 23.3062 46.8164 23.6541C46.5999 24.002 46.2851 24.2779 45.9119 24.447C46.3739 24.5875 46.7745 24.8809 47.0481 25.2789C47.3216 25.6769 47.4519 26.156 47.4176 26.6377C47.4176 28.0609 46.4846 29.2714 44.0636 29.2714H40.6918V20.0772H43.7683ZM42.5578 23.7147H43.7919C44.8194 23.7147 45.2623 23.3191 45.2623 22.6636C45.2623 22.0082 44.9434 21.648 43.5971 21.648H42.5578V23.7147ZM42.5578 27.7006H43.8982C45.0202 27.7006 45.5516 27.2755 45.5516 26.5196C45.5516 25.7638 44.9611 25.3386 43.727 25.3386H42.546L42.5578 27.7006Z" fill="white"/>
<path d="M48.1381 29.2478L51.3386 20.0772H53.1101L56.3107 29.2714H54.3266L53.7361 27.4999H50.7009L50.1104 29.2714L48.1381 29.2478ZM51.191 25.9291H53.2696L52.2303 22.6932L51.191 25.9291Z" fill="white"/>
<path d="M64.442 20.0536V29.2478H62.8771L59.2928 23.5612V29.2478H57.5212V20.0536H59.0684L62.6646 25.8228V20.0536H64.442Z" fill="white"/>
<path d="M71.9 29.2478L69.5557 25.3741L68.4633 26.809V29.2478H66.5973V20.0536H68.4633V24.0277L71.3686 20.0536H73.583L70.7722 23.7738L74.1262 29.2478H71.9Z" fill="white"/>
<path d="M77.5276 20.0536H75.6616V29.2478H77.5276V20.0536Z" fill="white"/>
<path d="M86.7217 20.0536V29.2478H85.1628L81.5784 23.5612V29.2478H79.8069V20.0536H81.354L84.9502 25.8228V20.0536H86.7217Z" fill="white"/>
<path d="M95.5085 24.4647V25.3032C95.5085 28.1199 94.1976 29.3718 92.119 29.3718C90.0404 29.3718 88.6055 28.1199 88.6055 25.3032V24.1222C88.6055 21.1697 90.0522 19.9237 92.119 19.9237C94.0558 19.9237 95.2132 21.0161 95.4908 22.8762H93.7193C93.6803 22.4857 93.4922 22.1253 93.194 21.8701C92.8959 21.6149 92.5108 21.4845 92.119 21.5063C91.0443 21.5063 90.4656 22.2385 90.4656 23.9982V25.3032C90.4656 27.0747 91.0561 27.7952 92.119 27.7952C93.1819 27.7952 93.6012 27.1456 93.7074 26.0236H92.1603V24.4647H95.5085Z" fill="white"/>
<path d="M11.6803 32.779V34.6864H7.03299V37.1724H11.1961V39.062H7.03299V41.9437H11.6803V43.8333H4.78906V32.779H11.6803Z" fill="#F9BF14"/>
<path d="M12.749 43.8333L15.861 38.129L13.0856 32.779H15.5244L17.2841 36.3043L19.0615 32.779H21.4826L18.6954 38.129L21.8192 43.8333H19.3981L17.2841 40.0718L15.1878 43.8333H12.749Z" fill="#F9BF14"/>
<path d="M29.0293 36.2099C28.9915 35.7368 28.7715 35.297 28.4157 34.983C28.0598 34.669 27.596 34.5055 27.1219 34.5269C25.8287 34.5269 25.1378 35.4068 25.1378 37.5208V39.0915C25.1378 41.1406 25.8287 42.0854 27.1219 42.0854C28.2439 42.0854 28.7931 41.5303 29.0293 40.4084H31.161C30.7949 42.8885 29.3895 43.9514 27.1219 43.9514C24.6418 43.9514 22.8939 42.4456 22.8939 39.062V37.5208C22.8939 34.1077 24.6654 32.6373 27.1219 32.6373C29.3186 32.6373 30.8067 33.7888 31.1787 36.1803L29.0293 36.2099Z" fill="#F9BF14"/>
<path d="M40.0363 32.779V34.6864H35.389V37.1724H39.558V39.062H35.389V41.9437H40.0363V43.8333H33.151V32.779H40.0363Z" fill="#F9BF14"/>
<path d="M44.2349 41.9437H48.8822V43.8333H41.991V32.779H44.2349V41.9437Z" fill="#F9BF14"/>
<path d="M52.7145 41.9437H57.3559V43.8333H50.4706V32.779H52.7145V41.9437Z" fill="#F9BF14"/>
<path d="M65.8356 32.779V34.6864H61.1883V37.1724H65.3513V39.062H61.1883V41.9437H65.8356V43.8333H58.9443V32.779H65.8356Z" fill="#F9BF14"/>
<path d="M76.1045 32.779V43.8333H74.2267L69.9219 36.9952V43.8333H67.7902V32.779H69.6444L73.9728 39.7175V32.779H76.1045Z" fill="#F9BF14"/>
<path d="M84.5015 36.2099C84.4623 35.7374 84.2419 35.2984 83.8864 34.9847C83.5309 34.671 83.0678 34.507 82.5942 34.5269C81.295 34.5269 80.6042 35.4068 80.6042 37.5208V39.0915C80.6042 41.1406 81.295 42.0854 82.5942 42.0854C83.7161 42.0854 84.2594 41.5303 84.5015 40.4084H86.6273C86.2612 42.8885 84.8558 43.9514 82.5942 43.9514C80.1081 43.9514 78.3602 42.4456 78.3602 39.062V37.5208C78.3602 34.1077 80.1317 32.6373 82.5942 32.6373C84.7849 32.6373 86.2789 33.7888 86.645 36.1803L84.5015 36.2099Z" fill="#F9BF14"/>
<path d="M95.5085 32.779V34.6864H90.8612V37.1724H95.0243V39.062H90.8612V41.9437H95.5085V43.8333H88.6173V32.779H95.5085Z" fill="#F9BF14"/>
<path d="M130.868 19.8351H130.815L124.372 0L122.495 5.40313L128.305 23.2778H134.919L139.507 19.8351H130.868Z" fill="#FEBF10"/>
<path d="M117.812 19.7229L117.8 19.7701H96.9435L101.502 23.2305L120.298 23.2187L122.341 16.9357L120.481 11.5031L117.812 19.7229Z" fill="#B58D2E"/>
<path d="M113.726 32.0114L113.767 32.0409L107.325 51.876L112.019 48.6046L117.824 30.7241L112.474 26.8385L106.734 26.933L113.726 32.0114Z" fill="#B58D2E"/>
<path d="M124.225 39.7706L124.266 39.7411L141.137 52L139.478 46.526L124.266 35.4835L118.916 39.3691L117.233 44.849L124.225 39.7706Z" fill="#FEBF10"/>
<path d="M134.742 32.2121L134.724 32.1649L151.595 19.906L145.879 19.7879L130.673 30.8422L132.716 37.131L137.411 40.432L134.742 32.2121Z" fill="#FEBF10"/>
</svg>
