<svg width="120" height="22" viewBox="0 0 120 22" fill="none" xmlns="http://www.w3.org/2000/svg">
<path d="M51.9688 14.5285V10.1559C51.9688 8.50887 50.9194 7.40118 49.2287 7.38657C48.7471 7.35521 48.2658 7.45361 47.8351 7.67152C47.4044 7.88943 47.0401 8.21887 46.7801 8.6255C46.5431 8.23099 46.2041 7.90769 45.7988 7.68965C45.3935 7.47161 44.9369 7.36691 44.4771 7.38657C44.0764 7.36643 43.6773 7.45132 43.3194 7.63284C42.9615 7.81435 42.6572 8.0862 42.4367 8.42145V7.56149H40.9208V14.5285H42.4512V10.666C42.4512 9.45625 43.1217 8.81506 44.1565 8.81506C45.1622 8.81506 45.6724 9.47086 45.6724 10.6515V14.5285H47.2028V10.666C47.2028 9.45625 47.9024 8.81506 48.9081 8.81506C49.9429 8.81506 50.4384 9.47086 50.4384 10.6515V14.5285H51.9688ZM74.6188 7.56149H72.141V5.44813H70.6106V7.56149H69.1968V8.94616H70.6106V12.1235C70.6106 13.7415 71.2374 14.7035 73.0301 14.7035C73.6998 14.7054 74.3565 14.5185 74.9248 14.1641L74.4877 12.8669C74.0811 13.1094 73.6198 13.2448 73.1467 13.2605C72.3888 13.2605 72.141 12.794 72.141 12.0945V8.94616H74.6188V7.56149ZM87.547 7.38657C87.1775 7.37568 86.8118 7.46472 86.4886 7.64428C86.1654 7.82385 85.8966 8.08729 85.7106 8.40685V7.56149H84.2093V14.5285H85.7251V10.6223C85.7251 9.47086 86.2207 8.82953 87.2119 8.82953C87.5361 8.82507 87.858 8.88452 88.1593 9.00448L88.6257 7.5761C88.2795 7.45216 87.9147 7.38807 87.547 7.38657ZM68.0016 8.11541C67.1436 7.60518 66.1571 7.3522 65.1594 7.38657C63.3958 7.38657 62.259 8.23193 62.259 9.61656C62.259 10.7535 63.1043 11.4531 64.6638 11.6718L65.3781 11.7738C66.2088 11.8903 66.6024 12.1089 66.6024 12.5025C66.6024 13.0418 66.0484 13.3479 65.0137 13.3479C64.1813 13.3718 63.365 13.1151 62.6961 12.6191L61.982 13.7996C62.8649 14.4163 63.9225 14.7332 64.9991 14.7035C67.0104 14.7035 68.1764 13.7559 68.1764 12.4296C68.1764 11.2053 67.2583 10.5639 65.7424 10.3453L65.0283 10.2433C64.3724 10.1559 63.8477 10.0248 63.8477 9.5584C63.8477 9.04818 64.3431 8.74213 65.174 8.74213C65.9369 8.75361 66.6843 8.95928 67.3457 9.33974L68.0016 8.11541ZM108.608 7.38657C108.239 7.37567 107.873 7.4647 107.55 7.64427C107.227 7.82383 106.958 8.08728 106.772 8.40685V7.56149H105.271V14.5285H106.786V10.6223C106.786 9.47086 107.282 8.82953 108.273 8.82953C108.597 8.82506 108.919 8.8845 109.221 9.00448L109.687 7.5761C109.341 7.45216 108.976 7.38806 108.608 7.38657ZM89.0774 11.0449C89.0774 13.1584 90.5496 14.7035 92.7943 14.7035C93.7043 14.7491 94.5985 14.4527 95.301 13.8726L94.5724 12.6482C94.0483 13.0477 93.4093 13.2675 92.7504 13.2749C91.5407 13.2605 90.6516 12.3859 90.6516 11.0449C90.6516 9.7041 91.5407 8.82952 92.7504 8.81506C93.4093 8.82249 94.0483 9.04227 94.5724 9.44176L95.301 8.21743C94.5985 7.63725 93.7043 7.34087 92.7943 7.38657C90.5496 7.38657 89.0774 8.93155 89.0774 11.0449ZM103.274 11.0449V7.56149H101.758V8.40685C101.499 8.07342 101.164 7.80681 100.781 7.6293C100.399 7.4518 99.9787 7.36857 99.557 7.38657C97.604 7.38657 96.0736 8.91709 96.0736 11.0449C96.0736 13.1729 97.604 14.7035 99.557 14.7035C99.9787 14.7215 100.399 14.6382 100.781 14.4607C101.164 14.2832 101.499 14.0166 101.758 13.6831V14.5285H103.274V11.0449ZM97.6331 11.0449C97.6331 9.82062 98.4347 8.81506 99.7466 8.81506C101 8.81506 101.845 9.77691 101.845 11.0449C101.845 12.313 101 13.2749 99.7466 13.2749C98.4347 13.2749 97.6331 12.2693 97.6331 11.0449ZM79.3412 7.38657C77.3007 7.38657 75.8723 8.87324 75.8723 11.0449C75.8723 13.2605 77.359 14.7035 79.4433 14.7035C80.4832 14.7399 81.5001 14.3923 82.3 13.7269L81.5566 12.6045C80.981 13.0658 80.2682 13.3222 79.5307 13.3333C78.5541 13.3333 77.665 12.8815 77.4464 11.6279H82.6206C82.6352 11.4385 82.6497 11.2491 82.6497 11.0449C82.6353 8.87324 81.2943 7.38657 79.3412 7.38657ZM79.312 8.74213C80.2886 8.74213 80.9153 9.35422 81.0757 10.4328H77.461C77.6213 9.42715 78.2334 8.74213 79.312 8.74213ZM117.339 11.0449V4.76309H115.823V8.40685C115.564 8.07343 115.23 7.80682 114.847 7.62932C114.464 7.45182 114.044 7.36858 113.622 7.38657C111.669 7.38657 110.139 8.91709 110.139 11.0449C110.139 13.1729 111.669 14.7035 113.622 14.7035C114.044 14.7214 114.464 14.6382 114.847 14.4607C115.23 14.2832 115.564 14.0166 115.823 13.6831V14.5285H117.339V11.0449ZM119.11 13.8856C119.171 13.8852 119.23 13.897 119.286 13.9203C119.339 13.9425 119.387 13.9747 119.429 14.0151C119.47 14.0554 119.502 14.1032 119.525 14.156C119.548 14.2102 119.56 14.2685 119.56 14.3275C119.56 14.3864 119.548 14.4448 119.525 14.499C119.502 14.5515 119.469 14.5991 119.429 14.6393C119.387 14.6797 119.339 14.712 119.286 14.7346C119.23 14.7583 119.171 14.7703 119.11 14.7699C119.022 14.7708 118.935 14.7456 118.861 14.6974C118.786 14.6492 118.728 14.5802 118.693 14.499C118.67 14.4448 118.658 14.3864 118.658 14.3275C118.658 14.2685 118.67 14.2102 118.693 14.156C118.738 14.049 118.825 13.9643 118.932 13.9203C118.989 13.8969 119.049 13.8851 119.11 13.8856ZM119.11 14.6723C119.156 14.6727 119.202 14.6635 119.244 14.6453C119.284 14.6277 119.321 14.6027 119.352 14.5715C119.416 14.5066 119.452 14.419 119.452 14.3277C119.452 14.2364 119.416 14.1487 119.352 14.0838C119.321 14.0528 119.284 14.028 119.244 14.0108C119.202 13.9928 119.156 13.9838 119.11 13.9842C119.064 13.9838 119.018 13.9929 118.974 14.0108C118.923 14.0328 118.877 14.0673 118.841 14.1111C118.806 14.1549 118.782 14.2067 118.771 14.262C118.76 14.3173 118.763 14.3745 118.779 14.4284C118.796 14.4824 118.825 14.5315 118.864 14.5715C118.896 14.6029 118.933 14.628 118.974 14.6453C119.017 14.6634 119.064 14.6727 119.11 14.6723ZM119.136 14.1207C119.18 14.1179 119.223 14.1304 119.258 14.156C119.273 14.1676 119.284 14.1822 119.291 14.1989C119.299 14.2155 119.302 14.2336 119.301 14.2518C119.302 14.2674 119.299 14.283 119.293 14.2974C119.287 14.3119 119.278 14.325 119.267 14.3358C119.24 14.3597 119.206 14.374 119.17 14.3765L119.304 14.5314H119.199L119.075 14.3775H119.035V14.5314H118.947V14.1207H119.136ZM119.035 14.1977V14.3071H119.135C119.155 14.3081 119.174 14.3034 119.191 14.2936C119.198 14.289 119.203 14.2828 119.207 14.2755C119.21 14.2681 119.212 14.26 119.211 14.2518C119.212 14.2439 119.21 14.2359 119.206 14.2288C119.203 14.2216 119.197 14.2156 119.191 14.2112C119.174 14.2014 119.155 14.1967 119.135 14.1977H119.035ZM111.698 11.0449C111.698 9.82062 112.5 8.81506 113.812 8.81506C115.065 8.81506 115.91 9.77691 115.91 11.0449C115.91 12.313 115.065 13.2749 113.812 13.2749C112.5 13.2749 111.698 12.2693 111.698 11.0449ZM60.51 11.0449V7.56149H58.9941V8.40685C58.7353 8.07342 58.4005 7.8068 58.0176 7.62929C57.6347 7.45179 57.2149 7.36856 56.7932 7.38657C54.8401 7.38657 53.3098 8.91709 53.3098 11.0449C53.3098 13.1729 54.8401 14.7035 56.7932 14.7035C57.2149 14.7215 57.6347 14.6382 58.0176 14.4607C58.4005 14.2832 58.7353 14.0166 58.9941 13.6831V14.5285H60.51V11.0449ZM54.8694 11.0449C54.8694 9.82062 55.671 8.81506 56.9828 8.81506C58.2362 8.81506 59.0815 9.77691 59.0815 11.0449C59.0815 12.313 58.2362 13.2749 56.9828 13.2749C55.671 13.2749 54.8694 12.2693 54.8694 11.0449Z" fill="white"/>
<path d="M21.5807 2.76367H12.4142V19.2361H21.5807V2.76367Z" fill="#FF5F00"/>
<path d="M12.9961 10.9998C12.9947 9.41342 13.3542 7.84747 14.0474 6.42052C14.7406 4.99358 15.7494 3.74305 16.9974 2.76361C15.4519 1.54887 13.5959 0.79344 11.6415 0.583666C9.687 0.373891 7.71295 0.718229 5.94494 1.57734C4.17693 2.43644 2.68629 3.77565 1.64341 5.44189C0.600533 7.10812 0.0474854 9.03415 0.0474854 10.9998C0.0474854 12.9655 0.600533 14.8916 1.64341 16.5578C2.68629 18.224 4.17693 19.5632 5.94494 20.4223C7.71295 21.2815 9.687 21.6258 11.6415 21.416C13.5959 21.2062 15.4519 20.4508 16.9974 19.2361C15.7494 18.2566 14.7406 17.0061 14.0474 15.5792C13.3542 14.1522 12.9947 12.5863 12.9961 10.9998Z" fill="#EB001B"/>
<path d="M33.9468 10.9998C33.9469 12.9655 33.3939 14.8915 32.3511 16.5578C31.3082 18.224 29.8177 19.5632 28.0497 20.4223C26.2817 21.2814 24.3077 21.6258 22.3532 21.416C20.3988 21.2063 18.5428 20.4508 16.9974 19.2361C18.2443 18.2556 19.2523 17.0049 19.9454 15.5782C20.6385 14.1515 20.9986 12.586 20.9986 10.9998C20.9986 9.41368 20.6385 7.84822 19.9454 6.4215C19.2523 4.99478 18.2443 3.74405 16.9974 2.76361C18.5428 1.54887 20.3988 0.793435 22.3532 0.583663C24.3077 0.373891 26.2817 0.718244 28.0497 1.57736C29.8177 2.43648 31.3082 3.77569 32.3511 5.44193C33.3939 7.10816 33.9469 9.03419 33.9468 10.9998Z" fill="#F79E1B"/>
<path d="M32.9473 17.4916V17.1544H33.0833V17.0857H32.7369V17.1544H32.873V17.4916H32.9473ZM33.6196 17.4916V17.085H33.5135L33.3914 17.3647L33.2692 17.085H33.163V17.4916H33.238V17.1849L33.3525 17.4494H33.4302L33.5447 17.1843V17.4916H33.6196Z" fill="#F79E1B"/>
</svg>
