<svg width="137" height="137" viewBox="0 0 137 137" fill="none" xmlns="http://www.w3.org/2000/svg">
<rect width="137" height="137" fill="white"/>
<path d="M88.2 13.8C89.55 13.8 90.6 12.75 90.6 11.4C90.6 10.05 89.55 9 88.2 9C86.85 9 85.8 10.05 85.8 11.4C85.8 12.75 86.85 13.8 88.2 13.8Z" fill="black"/>
<path d="M49.8 23.4C48.45 23.4 47.4 24.45 47.4 25.8C47.4 27.15 48.45 28.2 49.8 28.2H52.2H54.6C55.95 28.2 57 27.15 57 25.8C57 24.45 58.05 23.4 59.4 23.4C60.75 23.4 61.8 24.45 61.8 25.8C61.8 27.15 62.85 28.2 64.2 28.2C65.55 28.2 66.6 27.15 66.6 25.8V23.4V21C66.6 19.65 67.65 18.6 69 18.6H71.4H76.2H78.6C79.95 18.6 81 17.55 81 16.2V13.8V11.4C81 10.05 79.95 9 78.6 9C77.25 9 76.2 10.05 76.2 11.4C76.2 12.75 75.15 13.8 73.8 13.8H71.4H66.6H64.2C62.85 13.8 61.8 14.85 61.8 16.2C61.8 17.55 60.75 18.6 59.4 18.6C58.05 18.6 57 17.55 57 16.2V13.8V11.4C57 10.05 55.95 9 54.6 9C53.25 9 52.2 10.05 52.2 11.4C52.2 12.75 51.15 13.8 49.8 13.8C48.45 13.8 47.4 14.85 47.4 16.2C47.4 17.55 48.45 18.6 49.8 18.6C51.15 18.6 52.2 19.65 52.2 21C52.2 22.35 51.15 23.4 49.8 23.4Z" fill="black"/>
<path d="M73.8 28.2C75.15 28.2 76.2 27.15 76.2 25.8C76.2 24.45 75.15 23.4 73.8 23.4C72.45 23.4 71.4 24.45 71.4 25.8C71.4 27.15 72.45 28.2 73.8 28.2Z" fill="black"/>
<path d="M81 28.2V30.6C81 31.95 79.95 33 78.6 33H76.2H73.8C72.45 33 71.4 34.05 71.4 35.4C71.4 36.75 72.45 37.8 73.8 37.8C75.15 37.8 76.2 38.85 76.2 40.2C76.2 41.55 77.25 42.6 78.6 42.6C79.95 42.6 81 41.55 81 40.2C81 38.85 82.05 37.8 83.4 37.8C84.75 37.8 85.8 36.75 85.8 35.4C85.8 34.05 86.85 33 88.2 33C89.55 33 90.6 31.95 90.6 30.6V28.2V25.8C90.6 24.45 89.55 23.4 88.2 23.4H85.8H83.4C82.05 23.4 81 24.45 81 25.8V28.2Z" fill="black"/>
<path d="M59.4 28.2C58.05 28.2 57 29.25 57 30.6V33V37.8V40.2C57 41.55 58.05 42.6 59.4 42.6C60.75 42.6 61.8 41.55 61.8 40.2V37.8V33V30.6C61.8 29.25 60.75 28.2 59.4 28.2Z" fill="black"/>
<path d="M69 33C70.35 33 71.4 31.95 71.4 30.6C71.4 29.25 70.35 28.2 69 28.2C67.65 28.2 66.6 29.25 66.6 30.6C66.6 31.95 67.65 33 69 33Z" fill="black"/>
<path d="M49.8 42.6C51.15 42.6 52.2 41.55 52.2 40.2V37.8V35.4C52.2 34.05 51.15 33 49.8 33C48.45 33 47.4 34.05 47.4 35.4V37.8V40.2C47.4 41.55 48.45 42.6 49.8 42.6Z" fill="black"/>
<path d="M88.2 47.4C89.55 47.4 90.6 46.35 90.6 45V42.6V40.2C90.6 38.85 89.55 37.8 88.2 37.8C86.85 37.8 85.8 38.85 85.8 40.2V42.6V45C85.8 46.35 86.85 47.4 88.2 47.4Z" fill="black"/>
<path d="M40.2 47.4C38.85 47.4 37.8 48.45 37.8 49.8C37.8 51.15 38.85 52.2 40.2 52.2H42.6H47.4H49.8C51.15 52.2 52.2 53.25 52.2 54.6V57V59.4C52.2 60.75 51.15 61.8 49.8 61.8C48.45 61.8 47.4 62.85 47.4 64.2V66.6V69C47.4 70.35 46.35 71.4 45 71.4C43.65 71.4 42.6 72.45 42.6 73.8C42.6 75.15 43.65 76.2 45 76.2C46.35 76.2 47.4 77.25 47.4 78.6C47.4 79.95 48.45 81 49.8 81C51.15 81 52.2 79.95 52.2 78.6V76.2V73.8C52.2 72.45 53.25 71.4 54.6 71.4C55.95 71.4 57 70.35 57 69C57 67.65 58.05 66.6 59.4 66.6C60.75 66.6 61.8 67.65 61.8 69C61.8 70.35 62.85 71.4 64.2 71.4C65.55 71.4 66.6 70.35 66.6 69V66.6V64.2C66.6 62.85 67.65 61.8 69 61.8C70.35 61.8 71.4 60.75 71.4 59.4C71.4 58.05 70.35 57 69 57H66.6H64.2C62.85 57 61.8 58.05 61.8 59.4C61.8 60.75 60.75 61.8 59.4 61.8C58.05 61.8 57 60.75 57 59.4V57V54.6C57 53.25 58.05 52.2 59.4 52.2C60.75 52.2 61.8 51.15 61.8 49.8C61.8 48.45 60.75 47.4 59.4 47.4H57H52.2H47.4H42.6H40.2Z" fill="black"/>
<path d="M73.8 47.4C72.45 47.4 71.4 46.35 71.4 45V42.6V40.2C71.4 38.85 70.35 37.8 69 37.8C67.65 37.8 66.6 38.85 66.6 40.2V42.6V47.4V49.8C66.6 51.15 67.65 52.2 69 52.2H71.4H73.8C75.15 52.2 76.2 51.15 76.2 49.8C76.2 48.45 75.15 47.4 73.8 47.4Z" fill="black"/>
<path d="M88.2 52.2C86.85 52.2 85.8 51.15 85.8 49.8C85.8 48.45 84.75 47.4 83.4 47.4C82.05 47.4 81 48.45 81 49.8C81 51.15 79.95 52.2 78.6 52.2C77.25 52.2 76.2 53.25 76.2 54.6V57V59.4C76.2 60.75 77.25 61.8 78.6 61.8H81H83.4C84.75 61.8 85.8 60.75 85.8 59.4C85.8 58.05 86.85 57 88.2 57C89.55 57 90.6 58.05 90.6 59.4C90.6 60.75 89.55 61.8 88.2 61.8C86.85 61.8 85.8 62.85 85.8 64.2C85.8 65.55 86.85 66.6 88.2 66.6H90.6H93C94.35 66.6 95.4 65.55 95.4 64.2C95.4 62.85 96.45 61.8 97.8 61.8C99.15 61.8 100.2 60.75 100.2 59.4C100.2 58.05 99.15 57 97.8 57C96.45 57 95.4 55.95 95.4 54.6V52.2V49.8C95.4 48.45 94.35 47.4 93 47.4C91.65 47.4 90.6 48.45 90.6 49.8C90.6 51.15 89.55 52.2 88.2 52.2Z" fill="black"/>
<path d="M112.2 47.4C110.85 47.4 109.8 48.45 109.8 49.8C109.8 51.15 110.85 52.2 112.2 52.2C113.55 52.2 114.6 51.15 114.6 49.8C114.6 48.45 113.55 47.4 112.2 47.4Z" fill="black"/>
<path d="M121.8 52.2C123.15 52.2 124.2 51.15 124.2 49.8C124.2 48.45 123.15 47.4 121.8 47.4C120.45 47.4 119.4 48.45 119.4 49.8C119.4 51.15 120.45 52.2 121.8 52.2Z" fill="black"/>
<path d="M126.6 52.2C125.25 52.2 124.2 53.25 124.2 54.6C124.2 55.95 125.25 57 126.6 57C127.95 57 129 55.95 129 54.6C129 53.25 127.95 52.2 126.6 52.2Z" fill="black"/>
<path d="M105 59.4C105 60.75 106.05 61.8 107.4 61.8C108.75 61.8 109.8 60.75 109.8 59.4V57V54.6C109.8 53.25 108.75 52.2 107.4 52.2C106.05 52.2 105 51.15 105 49.8C105 48.45 103.95 47.4 102.6 47.4C101.25 47.4 100.2 48.45 100.2 49.8V52.2V54.6C100.2 55.95 101.25 57 102.6 57C103.95 57 105 58.05 105 59.4Z" fill="black"/>
<path d="M117 61.8C118.35 61.8 119.4 60.75 119.4 59.4C119.4 58.05 118.35 57 117 57C115.65 57 114.6 58.05 114.6 59.4C114.6 60.75 115.65 61.8 117 61.8Z" fill="black"/>
<path d="M73.8 61.8C72.45 61.8 71.4 62.85 71.4 64.2V66.6V69C71.4 70.35 72.45 71.4 73.8 71.4C75.15 71.4 76.2 70.35 76.2 69V66.6V64.2C76.2 62.85 75.15 61.8 73.8 61.8Z" fill="black"/>
<path d="M40.2 66.6H37.8H35.4C34.05 66.6 33 65.55 33 64.2C33 62.85 34.05 61.8 35.4 61.8H37.8H40.2C41.55 61.8 42.6 60.75 42.6 59.4C42.6 58.05 41.55 57 40.2 57H37.8H33H28.2H25.8C24.45 57 23.4 55.95 23.4 54.6C23.4 53.25 24.45 52.2 25.8 52.2H28.2H30.6C31.95 52.2 33 51.15 33 49.8C33 48.45 31.95 47.4 30.6 47.4H28.2H23.4H18.6H13.8H11.4C10.05 47.4 9 48.45 9 49.8V52.2V54.6C9 55.95 10.05 57 11.4 57C12.75 57 13.8 55.95 13.8 54.6C13.8 53.25 14.85 52.2 16.2 52.2C17.55 52.2 18.6 53.25 18.6 54.6V57V59.4C18.6 60.75 19.65 61.8 21 61.8H23.4H25.8C27.15 61.8 28.2 62.85 28.2 64.2C28.2 65.55 27.15 66.6 25.8 66.6H23.4H21C19.65 66.6 18.6 65.55 18.6 64.2C18.6 62.85 17.55 61.8 16.2 61.8H13.8H11.4C10.05 61.8 9 62.85 9 64.2V66.6V71.4V76.2V81V85.8V88.2C9 89.55 10.05 90.6 11.4 90.6C12.75 90.6 13.8 89.55 13.8 88.2V85.8V81V76.2V73.8C13.8 72.45 14.85 71.4 16.2 71.4H18.6H21C22.35 71.4 23.4 72.45 23.4 73.8C23.4 75.15 22.35 76.2 21 76.2C19.65 76.2 18.6 77.25 18.6 78.6C18.6 79.95 19.65 81 21 81C22.35 81 23.4 82.05 23.4 83.4C23.4 84.75 22.35 85.8 21 85.8C19.65 85.8 18.6 86.85 18.6 88.2C18.6 89.55 19.65 90.6 21 90.6H23.4H28.2H33H37.8H40.2C41.55 90.6 42.6 89.55 42.6 88.2C42.6 86.85 41.55 85.8 40.2 85.8C38.85 85.8 37.8 84.75 37.8 83.4C37.8 82.05 36.75 81 35.4 81H33H30.6C29.25 81 28.2 79.95 28.2 78.6V76.2V73.8C28.2 72.45 29.25 71.4 30.6 71.4H33H37.8H40.2C41.55 71.4 42.6 70.35 42.6 69C42.6 67.65 41.55 66.6 40.2 66.6Z" fill="black"/>
<path d="M83.4 66.6C82.05 66.6 81 67.65 81 69C81 70.35 82.05 71.4 83.4 71.4C84.75 71.4 85.8 70.35 85.8 69C85.8 67.65 84.75 66.6 83.4 66.6Z" fill="black"/>
<path d="M126.6 66.6H124.2H121.8C120.45 66.6 119.4 67.65 119.4 69C119.4 70.35 120.45 71.4 121.8 71.4H124.2H126.6C127.95 71.4 129 70.35 129 69C129 67.65 127.95 66.6 126.6 66.6Z" fill="black"/>
<path d="M59.4 71.4C58.05 71.4 57 72.45 57 73.8C57 75.15 58.05 76.2 59.4 76.2C60.75 76.2 61.8 75.15 61.8 73.8C61.8 72.45 60.75 71.4 59.4 71.4Z" fill="black"/>
<path d="M69 71.4C67.65 71.4 66.6 72.45 66.6 73.8C66.6 75.15 67.65 76.2 69 76.2C70.35 76.2 71.4 75.15 71.4 73.8C71.4 72.45 70.35 71.4 69 71.4Z" fill="black"/>
<path d="M40.2 76.2C38.85 76.2 37.8 77.25 37.8 78.6C37.8 79.95 38.85 81 40.2 81C41.55 81 42.6 79.95 42.6 78.6C42.6 77.25 41.55 76.2 40.2 76.2Z" fill="black"/>
<path d="M126.6 76.2H124.2H119.4H117C115.65 76.2 114.6 77.25 114.6 78.6C114.6 79.95 115.65 81 117 81C118.35 81 119.4 82.05 119.4 83.4C119.4 84.75 120.45 85.8 121.8 85.8C123.15 85.8 124.2 86.85 124.2 88.2V90.6V93C124.2 94.35 123.15 95.4 121.8 95.4H119.4H117C115.65 95.4 114.6 96.45 114.6 97.8C114.6 99.15 115.65 100.2 117 100.2H119.4H124.2H126.6C127.95 100.2 129 99.15 129 97.8V95.4V90.6V85.8V81V78.6C129 77.25 127.95 76.2 126.6 76.2Z" fill="black"/>
<path d="M45 81C43.65 81 42.6 82.05 42.6 83.4C42.6 84.75 43.65 85.8 45 85.8C46.35 85.8 47.4 84.75 47.4 83.4C47.4 82.05 46.35 81 45 81Z" fill="black"/>
<path d="M54.6 81C53.25 81 52.2 82.05 52.2 83.4C52.2 84.75 53.25 85.8 54.6 85.8C55.95 85.8 57 84.75 57 83.4C57 82.05 55.95 81 54.6 81Z" fill="black"/>
<path d="M49.8 90.6C48.45 90.6 47.4 91.65 47.4 93V95.4V97.8C47.4 99.15 48.45 100.2 49.8 100.2C51.15 100.2 52.2 99.15 52.2 97.8V95.4V93C52.2 91.65 51.15 90.6 49.8 90.6Z" fill="black"/>
<path d="M59.4 95.4C60.75 95.4 61.8 94.35 61.8 93V90.6V88.2C61.8 86.85 60.75 85.8 59.4 85.8C58.05 85.8 57 86.85 57 88.2V90.6V93C57 94.35 58.05 95.4 59.4 95.4Z" fill="black"/>
<path d="M97.8 95.4C96.45 95.4 95.4 96.45 95.4 97.8C95.4 99.15 96.45 100.2 97.8 100.2C99.15 100.2 100.2 99.15 100.2 97.8C100.2 96.45 99.15 95.4 97.8 95.4Z" fill="black"/>
<path d="M59.4 109.8C58.05 109.8 57 110.85 57 112.2V114.6V117C57 118.35 58.05 119.4 59.4 119.4C60.75 119.4 61.8 118.35 61.8 117V114.6V112.2C61.8 110.85 60.75 109.8 59.4 109.8Z" fill="black"/>
<path d="M126.6 109.8H124.2H121.8C120.45 109.8 119.4 110.85 119.4 112.2C119.4 113.55 120.45 114.6 121.8 114.6C123.15 114.6 124.2 115.65 124.2 117C124.2 118.35 125.25 119.4 126.6 119.4C127.95 119.4 129 118.35 129 117V114.6V112.2C129 110.85 127.95 109.8 126.6 109.8Z" fill="black"/>
<path d="M78.6 119.4C79.95 119.4 81 118.35 81 117C81 115.65 79.95 114.6 78.6 114.6H76.2H73.8C72.45 114.6 71.4 113.55 71.4 112.2V109.8V107.4C71.4 106.05 70.35 105 69 105C67.65 105 66.6 103.95 66.6 102.6C66.6 101.25 67.65 100.2 69 100.2C70.35 100.2 71.4 99.15 71.4 97.8C71.4 96.45 70.35 95.4 69 95.4H66.6H64.2C62.85 95.4 61.8 96.45 61.8 97.8C61.8 99.15 60.75 100.2 59.4 100.2H57H54.6C53.25 100.2 52.2 101.25 52.2 102.6C52.2 103.95 51.15 105 49.8 105C48.45 105 47.4 106.05 47.4 107.4V109.8V114.6V119.4V124.2V126.6C47.4 127.95 48.45 129 49.8 129C51.15 129 52.2 127.95 52.2 126.6V124.2V119.4V114.6V112.2C52.2 110.85 53.25 109.8 54.6 109.8C55.95 109.8 57 108.75 57 107.4C57 106.05 58.05 105 59.4 105C60.75 105 61.8 106.05 61.8 107.4C61.8 108.75 62.85 109.8 64.2 109.8C65.55 109.8 66.6 110.85 66.6 112.2V114.6V119.4V124.2V126.6C66.6 127.95 67.65 129 69 129C70.35 129 71.4 127.95 71.4 126.6V124.2V121.8C71.4 120.45 72.45 119.4 73.8 119.4H76.2H78.6Z" fill="black"/>
<path d="M117 119.4C118.325 119.4 119.4 118.325 119.4 117C119.4 115.675 118.325 114.6 117 114.6C115.674 114.6 114.6 115.675 114.6 117C114.6 118.325 115.674 119.4 117 119.4Z" fill="black"/>
<path d="M112.2 119.4C110.85 119.4 109.8 118.35 109.8 117V114.6V112.2C109.8 110.85 110.85 109.8 112.2 109.8C113.55 109.8 114.6 108.75 114.6 107.4V105V102.6C114.6 101.25 113.55 100.2 112.2 100.2C110.85 100.2 109.8 99.15 109.8 97.8V95.4V93C109.8 91.65 110.85 90.6 112.2 90.6C113.55 90.6 114.6 89.55 114.6 88.2C114.6 86.85 113.55 85.8 112.2 85.8H109.8H105H100.2H97.8C96.45 85.8 95.4 84.75 95.4 83.4C95.4 82.05 96.45 81 97.8 81C99.15 81 100.2 79.95 100.2 78.6C100.2 77.25 101.25 76.2 102.6 76.2C103.95 76.2 105 77.25 105 78.6C105 79.95 106.05 81 107.4 81C108.75 81 109.8 79.95 109.8 78.6V76.2V73.8C109.8 72.45 110.85 71.4 112.2 71.4C113.55 71.4 114.6 70.35 114.6 69C114.6 67.65 113.55 66.6 112.2 66.6H109.8H105H100.2H97.8C96.45 66.6 95.4 67.65 95.4 69C95.4 70.35 94.35 71.4 93 71.4H90.6H88.2C86.85 71.4 85.8 72.45 85.8 73.8C85.8 75.15 86.85 76.2 88.2 76.2C89.55 76.2 90.6 77.25 90.6 78.6V81V83.4C90.6 84.75 89.55 85.8 88.2 85.8H85.8H81H78.6C77.25 85.8 76.2 84.75 76.2 83.4C76.2 82.05 77.25 81 78.6 81C79.95 81 81 79.95 81 78.6C81 77.25 79.95 76.2 78.6 76.2H76.2H73.8C72.45 76.2 71.4 77.25 71.4 78.6C71.4 79.95 70.35 81 69 81C67.65 81 66.6 82.05 66.6 83.4V85.8V88.2C66.6 89.55 67.65 90.6 69 90.6H71.4H73.8C75.15 90.6 76.2 91.65 76.2 93V95.4V100.2V102.6C76.2 103.95 77.25 105 78.6 105C79.95 105 81 103.95 81 102.6V100.2V95.4V93C81 91.65 82.05 90.6 83.4 90.6C84.75 90.6 85.8 91.65 85.8 93V95.4V100.2V105V107.4C85.8 108.75 84.75 109.8 83.4 109.8C82.05 109.8 81 110.85 81 112.2C81 113.55 82.05 114.6 83.4 114.6H85.8H88.2C89.55 114.6 90.6 113.55 90.6 112.2C90.6 110.85 91.65 109.8 93 109.8C94.35 109.8 95.4 110.85 95.4 112.2C95.4 113.55 96.45 114.6 97.8 114.6C99.15 114.6 100.2 113.55 100.2 112.2C100.2 110.85 101.25 109.8 102.6 109.8C103.95 109.8 105 110.85 105 112.2V114.6V117C105 118.35 103.95 119.4 102.6 119.4H100.2H95.4H90.6H88.2C86.85 119.4 85.8 120.45 85.8 121.8C85.8 123.15 86.85 124.2 88.2 124.2H90.6H95.4H100.2H105H109.8H112.2C113.55 124.2 114.6 123.15 114.6 121.8C114.6 120.45 113.55 119.4 112.2 119.4ZM100.2 105H95.4H93C91.65 105 90.6 103.95 90.6 102.6V100.2V95.4V93C90.6 91.65 91.65 90.6 93 90.6H95.4H100.2H102.6C103.95 90.6 105 91.65 105 93V95.4V100.2V102.6C105 103.95 103.95 105 102.6 105H100.2Z" fill="black"/>
<path d="M59.4 124.2C58.05 124.2 57 125.25 57 126.6C57 127.95 58.05 129 59.4 129C60.75 129 61.8 127.95 61.8 126.6C61.8 125.25 60.75 124.2 59.4 124.2Z" fill="black"/>
<path d="M83.4 124.2H81H78.6C77.25 124.2 76.2 125.25 76.2 126.6C76.2 127.95 77.25 129 78.6 129H81H83.4C84.75 129 85.8 127.95 85.8 126.6C85.8 125.25 84.75 124.2 83.4 124.2Z" fill="black"/>
<path d="M126.6 124.2C125.25 124.2 124.2 123.15 124.2 121.8C124.2 120.45 123.15 119.4 121.8 119.4C120.45 119.4 119.4 120.45 119.4 121.8C119.4 123.15 118.35 124.2 117 124.2C115.65 124.2 114.6 125.25 114.6 126.6C114.6 127.95 115.65 129 117 129H119.4H124.2H126.6C127.95 129 129 127.95 129 126.6C129 125.25 127.95 124.2 126.6 124.2Z" fill="black"/>
<path d="M10.05 42.6H41.55C42.15 42.6 42.6 42.15 42.6 41.55V37.8V33V28.2V23.4V18.6V13.8V10.05C42.6 9.45 42.15 9 41.55 9H10.05C9.45 9 9 9.45 9 10.05V13.8V18.6V23.4V28.2V33V37.8V41.55C9 42.15 9.45 42.6 10.05 42.6ZM13.8 33V28.2V23.4V18.6V14.4C13.8 14.1 14.1 13.8 14.4 13.8H37.2C37.5 13.8 37.8 14.1 37.8 14.4V18.6V23.4V28.2V33V37.2C37.8 37.5 37.5 37.8 37.2 37.8H14.4C14.1 37.8 13.8 37.5 13.8 37.2V33Z" fill="black"/>
<path d="M19.65 33H31.95C32.55 33 33 32.55 33 31.95V28.2V23.4V19.65C33 19.05 32.55 18.6 31.95 18.6H19.65C19.05 18.6 18.6 19.05 18.6 19.65V23.4V28.2V31.95C18.6 32.55 19.05 33 19.65 33Z" fill="black"/>
<path d="M127.95 9H96.45C95.85 9 95.4 9.45 95.4 10.05V13.8V18.6V23.4V28.2V33V37.8V41.55C95.4 42.15 95.85 42.6 96.45 42.6H127.95C128.55 42.6 129 42.15 129 41.55V37.8V33V28.2V23.4V18.6V13.8V10.05C129 9.45 128.55 9 127.95 9ZM124.2 18.6V23.4V28.2V33V37.2C124.2 37.5 123.9 37.8 123.6 37.8H100.8C100.5 37.8 100.2 37.5 100.2 37.2V33V28.2V23.4V18.6V14.4C100.2 14.1 100.5 13.8 100.8 13.8H123.6C123.9 13.8 124.2 14.1 124.2 14.4V18.6Z" fill="black"/>
<path d="M118.35 18.6H106.05C105.45 18.6 105 19.05 105 19.65V23.4V28.2V31.95C105 32.55 105.45 33 106.05 33H118.35C118.95 33 119.4 32.55 119.4 31.95V28.2V23.4V19.65C119.4 19.05 118.95 18.6 118.35 18.6Z" fill="black"/>
<path d="M41.55 95.4H10.05C9.45 95.4 9 95.85 9 96.45V100.2V105V109.8V114.6V119.4V124.2V127.95C9 128.55 9.45 129 10.05 129H41.55C42.15 129 42.6 128.55 42.6 127.95V124.2V119.4V114.6V109.8V105V100.2V96.45C42.6 95.85 42.15 95.4 41.55 95.4ZM37.8 105V109.8V114.6V119.4V123.6C37.8 123.9 37.5 124.2 37.2 124.2H14.4C14.1 124.2 13.8 123.9 13.8 123.6V119.4V114.6V109.8V105V100.8C13.8 100.5 14.1 100.2 14.4 100.2H37.2C37.5 100.2 37.8 100.5 37.8 100.8V105Z" fill="black"/>
<path d="M31.95 105H19.65C19.05 105 18.6 105.45 18.6 106.05V109.8V114.6V118.35C18.6 118.95 19.05 119.4 19.65 119.4H31.95C32.55 119.4 33 118.95 33 118.35V114.6V109.8V106.05C33 105.45 32.55 105 31.95 105Z" fill="black"/>
</svg>
