<svg width="123" height="16" viewBox="0 0 123 16" fill="none" xmlns="http://www.w3.org/2000/svg">
<g clip-path="url(#clip0)">
<path d="M74.7707 0C74.9024 0.0494875 75.0415 0.0846601 75.1642 0.150507C75.6959 0.436798 75.8595 0.937809 75.8656 1.48708C75.8824 2.90095 75.8729 4.31482 75.8738 5.72828V5.98063C76.1601 5.73523 76.423 5.5242 76.6737 5.30048C78.2242 3.91892 80.9015 4.03507 82.3759 5.13688C83.3104 5.83544 83.8748 6.78183 84.146 7.89264C84.6065 9.77971 84.5398 11.6439 83.6724 13.414C83.0319 14.7191 82.0078 15.6102 80.5407 15.881C78.8565 16.1918 77.3821 15.8037 76.2267 14.4712C76.1294 14.3591 76.0259 14.2524 75.8995 14.1133C75.8746 14.3788 75.8697 14.6111 75.8292 14.8373C75.7339 15.3665 75.4353 15.737 74.9184 15.9149C74.4276 16.0826 73.9752 15.9967 73.5883 15.6503C73.2374 15.3366 73.1495 14.9096 73.1434 14.4643C73.1339 13.7436 73.1409 13.0234 73.1409 12.3028C73.1409 8.80918 73.1425 5.31548 73.1458 1.82163C73.1501 1.52361 73.1879 1.22702 73.2583 0.9374C73.3683 0.463793 73.6673 0.149689 74.1527 0.0355817C74.1703 0.0314918 74.1842 0.0122696 74.1998 0H74.7707ZM78.8197 6.43378C77.7122 6.48123 76.9253 7.04522 76.4406 8.05992C76.1576 8.65254 76.0488 9.28279 76.0222 9.93267C75.9924 10.6582 76.0537 11.3715 76.3335 12.0492C76.9433 13.5273 78.3629 13.9412 79.4054 13.6663C80.2974 13.4312 80.8561 12.8074 81.1869 11.9809C81.5223 11.1437 81.555 10.2631 81.4618 9.37563C81.4025 8.81123 81.2655 8.26809 80.9894 7.76627C80.526 6.92457 79.8275 6.45996 78.8181 6.43378H78.8197Z" fill="white"/>
<path d="M122.606 14.9718C122.579 15.0327 122.551 15.0945 122.525 15.155C122.192 15.9354 121.349 16.1562 120.664 15.8544C120.524 15.785 120.406 15.679 120.321 15.5477C119.727 14.6548 119.135 13.7592 118.563 12.8537C118.119 12.1543 117.698 11.4398 117.267 10.7322C117.227 10.6639 117.18 10.5977 117.127 10.5155C116.639 10.9731 116.159 11.4116 115.696 11.8684C115.616 11.9465 115.582 12.1007 115.58 12.2205C115.569 12.9412 115.58 13.6618 115.572 14.382C115.567 14.8769 115.42 15.3227 115.021 15.6462C114.571 16.011 114.06 16.0826 113.526 15.8642C112.985 15.6425 112.784 15.1743 112.72 14.6373C112.693 14.3738 112.681 14.109 112.686 13.8442C112.684 9.91495 112.684 5.98581 112.686 2.0568C112.686 1.77843 112.712 1.50069 112.763 1.22696C112.877 0.603257 113.21 0.159914 113.856 0H114.388C114.416 0.0168419 114.446 0.0305563 114.477 0.0408988C114.919 0.129649 115.244 0.38404 115.391 0.799572C115.5 1.09813 115.558 1.41247 115.565 1.73002C115.579 3.97332 115.573 6.21702 115.573 8.46032V8.7188C115.657 8.646 115.71 8.60755 115.755 8.56093C116.249 8.0452 116.737 7.52333 117.235 7.01168C118.017 6.20816 118.804 5.40818 119.595 4.61174C119.815 4.39007 120.092 4.29028 120.405 4.27556C121.246 4.23466 121.861 4.85632 121.742 5.63708C121.69 5.98063 121.491 6.25996 121.259 6.49595C120.754 7.00841 120.223 7.49674 119.701 7.99284C119.496 8.18834 119.285 8.37811 119.07 8.57606C119.649 9.48565 120.226 10.3756 120.788 11.2754C121.401 12.2569 122.001 13.252 122.607 14.2405L122.606 14.9718Z" fill="white"/>
<path d="M57.3945 1.8868e-05C57.4575 0.0204682 57.5196 0.0409176 57.583 0.061367C58.1556 0.227825 58.5311 0.729244 58.5756 1.39221C58.5851 1.53454 58.5904 1.6785 58.5904 1.8196C58.5904 5.93293 58.5894 10.0463 58.5875 14.1596C58.5909 14.4238 58.5606 14.6874 58.4975 14.944C58.318 15.6295 57.7863 16.0037 57.0747 15.98C56.4056 15.9575 55.9078 15.5325 55.7688 14.8483C55.73 14.6555 55.7102 14.4593 55.7099 14.2626C55.7004 10.8361 55.6939 7.40992 55.6907 3.98397C55.6907 3.12796 55.6907 2.27072 55.7275 1.41593C55.7528 0.847032 55.9688 0.356247 56.5422 0.107173C56.6338 0.0662747 56.7287 0.0343735 56.8223 -0.00161743L57.3945 1.8868e-05Z" fill="white"/>
<path d="M0.000438816 8.08583C-0.037597 3.95219 3.35414 0.206684 7.92089 0.218135C12.1335 0.22836 15.8054 3.55016 15.7919 8.13531C15.7792 12.5041 12.2872 16.01 7.80106 15.9719C3.36518 15.9343 -0.0281903 12.2996 0.000438816 8.08583ZM9.11677 2.56818C9.07587 2.29538 8.91228 2.05408 8.67916 1.96369C8.55878 1.91487 8.42627 1.90438 8.29971 1.93366C8.17316 1.96293 8.05872 2.03056 7.97202 2.12729C7.90092 2.20974 7.83495 2.29647 7.77448 2.387C6.57478 4.09411 5.3759 5.80149 4.17784 7.50915C3.58072 8.35985 2.98332 9.21054 2.38565 10.0612C2.24005 10.2657 2.16725 10.4821 2.2601 10.7287C2.29825 10.8393 2.36722 10.9367 2.45889 11.0093C2.55055 11.082 2.66109 11.127 2.77747 11.1389C3.03513 11.1741 3.2433 11.0628 3.39095 10.8526C3.66865 10.4661 3.94104 10.0755 4.21465 9.68701C5.77698 7.46266 7.33849 5.2375 8.89919 3.01152C8.99408 2.87983 9.0452 2.71705 9.11677 2.56818ZM6.79822 13.6816C6.83626 14.1904 7.28533 14.5118 7.71435 14.302C7.87427 14.2239 8.00883 14.0632 8.11557 13.9123C9.31227 12.2193 10.5045 10.5235 11.6922 8.82487C12.313 7.94064 12.9332 7.05586 13.5527 6.17054C13.7571 5.87607 13.7441 5.59223 13.5277 5.3497C13.2287 5.01433 12.7658 5.06832 12.4733 5.48017C12.0365 6.09365 11.6067 6.71531 11.1732 7.33247C9.78697 9.30706 8.40132 11.2822 7.01621 13.2579C6.92624 13.3871 6.8702 13.5397 6.79822 13.6816Z" fill="#EC4A53"/>
<path d="M30.8536 8.73876C31.2782 9.11135 31.7534 9.46062 32.146 9.88393C33.3002 11.126 34.1648 12.5538 34.7795 14.1374C35.2646 15.3848 34.1423 16.0842 33.2049 15.9746C32.5853 15.9026 32.1571 15.55 31.8422 15.0421C31.2549 14.0957 30.6819 13.1403 30.0901 12.1972C29.697 11.5694 29.3064 10.9387 28.8676 10.3424C28.4402 9.76328 27.8922 9.29785 27.1466 9.19724C26.6558 9.12975 26.1556 9.13957 25.6595 9.12894C25.1765 9.11871 25.1765 9.12689 25.1761 9.60868C25.1761 11.1583 25.1802 12.7084 25.1695 14.258C25.1663 14.6903 25.0767 15.112 24.7888 15.458C24.3462 15.9897 23.7589 16.0515 23.1352 15.9153C22.4829 15.7733 22.1987 15.2883 22.0768 14.683C22.0447 14.5097 22.0295 14.3337 22.0314 14.1574C22.0289 10.1398 22.0289 6.12233 22.0314 2.10498C22.0301 1.90815 22.0485 1.71169 22.0862 1.5185C22.2396 0.765142 22.7246 0.349611 23.505 0.291534C23.6338 0.28131 23.7634 0.27763 23.8927 0.276812C25.1663 0.269859 26.4399 0.258816 27.7134 0.260043C28.5641 0.260043 29.4156 0.267404 30.2659 0.294806C31.03 0.314048 31.7805 0.500121 32.4651 0.839987C33.3975 1.30651 34.0346 2.03259 34.3763 3.01825C34.6928 3.9348 34.7349 4.86115 34.481 5.79937C34.1382 7.06723 33.2642 7.83776 32.0929 8.31668C31.6745 8.48723 31.2356 8.61034 30.8536 8.73876ZM25.1965 6.8427C25.2444 6.84801 25.2714 6.85374 25.2984 6.85374C26.239 6.85374 27.1797 6.87869 28.1179 6.84515C28.722 6.82973 29.3235 6.75992 29.915 6.63657C30.6537 6.47297 31.232 6.05989 31.3874 5.25951C31.551 4.41413 31.3796 3.66445 30.6557 3.11273C30.1449 2.72419 29.5351 2.66939 28.9302 2.65466C27.785 2.62603 26.6423 2.63013 25.4984 2.62317C25.3975 2.62723 25.2969 2.63637 25.1969 2.65057L25.1965 6.8427Z" fill="white"/>
<path d="M93.9702 14.4148C93.4083 14.7543 92.8901 15.1252 92.324 15.3964C90.9817 16.0413 89.5838 16.2103 88.1524 15.6998C86.0665 14.9579 85.6355 12.6496 86.3815 11.2942C86.8314 10.473 87.5336 9.95357 88.4207 9.71636C89.2795 9.48651 90.158 9.33641 91.0243 9.1356C91.8639 8.94092 92.6983 8.72211 93.5371 8.52211C93.713 8.48122 93.7755 8.39574 93.7416 8.2256C93.6913 7.95935 93.652 7.69105 93.5915 7.42725C93.4389 6.76347 92.9968 6.41869 92.3375 6.32299C91.75 6.24195 91.153 6.25923 90.5711 6.37411C89.9924 6.48209 89.5462 6.80028 89.201 7.26202C88.9814 7.55568 88.7965 7.87551 88.5675 8.1618C88.4594 8.29743 88.3135 8.39793 88.1483 8.45054C87.4616 8.63868 86.7864 8.29717 86.6097 7.69801C86.5005 7.32992 86.5815 6.97246 86.7021 6.62237C86.9275 5.96799 87.3818 5.50665 87.9487 5.13611C88.671 4.66455 89.4759 4.43878 90.3208 4.33204C91.5105 4.17465 92.7184 4.22488 93.8909 4.4805C95.3943 4.8126 96.2164 5.64652 96.4699 7.15691C96.5466 7.62552 96.5876 8.09926 96.5926 8.57406C96.6094 9.82433 96.5755 11.0754 96.6098 12.3253C96.6225 12.7858 96.7644 13.2443 96.8593 13.7015C96.909 13.9542 96.9747 14.2035 97.056 14.4479C97.2307 14.9563 97.0327 15.3363 96.6573 15.654C96.1354 16.0962 95.4471 16.1039 94.9551 15.6279C94.6311 15.3142 94.3718 14.9326 94.0855 14.5809C94.0402 14.5252 94.0021 14.4614 93.9702 14.4148ZM93.7481 10.2358C93.686 10.2435 93.652 10.2444 93.6201 10.2521C92.6643 10.4877 91.7106 10.7319 90.7523 10.956C90.3126 11.0587 89.8783 11.1572 89.5086 11.4361C89.2632 11.6218 89.0693 11.8423 88.9961 12.1482C88.801 12.9613 89.3049 13.8042 90.1327 13.9915C91.2296 14.2398 92.2013 13.9477 93.0095 13.1846C93.2417 12.9561 93.4178 12.677 93.524 12.3691C93.7604 11.6893 93.7669 10.9724 93.7481 10.2358Z" fill="white"/>
<path d="M44.356 14.389C43.9985 14.6279 43.6673 14.8655 43.3208 15.0778C42.2804 15.7141 41.1532 16.0593 39.9262 15.982C38.8179 15.9133 37.7925 15.587 37.0985 14.6602C35.8846 13.0394 36.2736 10.5609 38.6784 9.76624C39.435 9.51635 40.2375 9.40551 41.017 9.22188C41.9949 8.99162 42.9699 8.74991 43.9474 8.51842C44.1073 8.48038 44.1785 8.41167 44.1417 8.23867C44.084 7.96751 44.0529 7.69063 43.9887 7.4207C43.8358 6.7794 43.4137 6.42604 42.7675 6.33075C42.1676 6.23794 41.556 6.25179 40.961 6.37164C40.3851 6.48943 39.9385 6.8064 39.5966 7.27142C39.3823 7.56057 39.1806 7.85954 38.9831 8.15933C38.9334 8.23641 38.8687 8.3028 38.793 8.35463C38.7173 8.40645 38.6321 8.44267 38.5422 8.46116C37.8686 8.62189 37.1733 8.28734 37.0097 7.7119C36.9042 7.33726 36.9709 6.96999 37.1034 6.61499C37.4355 5.72749 38.1181 5.19417 38.9496 4.81545C39.7087 4.47026 40.5131 4.32793 41.3401 4.27477C42.3626 4.20892 43.3818 4.25841 44.3813 4.4948C45.6181 4.78764 46.4848 5.49764 46.7813 6.77204C46.8934 7.23993 46.9573 7.71809 46.9719 8.199C46.9964 9.31186 46.987 10.4259 46.9657 11.5392C46.9502 12.3437 47.0807 13.1187 47.3162 13.8827C47.3739 14.07 47.4185 14.2622 47.4586 14.4553C47.5968 15.1166 47.3138 15.6287 46.6815 15.8757C46.2087 16.0601 45.7588 16.0156 45.3911 15.663C45.1048 15.3878 44.8623 15.0639 44.6075 14.7559C44.5147 14.6467 44.4447 14.5207 44.356 14.389ZM44.1515 10.2284L43.9756 10.2693C43.0656 10.4893 42.1564 10.7143 41.2444 10.9274C40.7802 11.0353 40.3172 11.1368 39.9201 11.423C39.6338 11.63 39.4232 11.8901 39.3663 12.2447C39.3002 12.6316 39.3858 13.0291 39.6051 13.3545C39.8245 13.68 40.1608 13.9084 40.5442 13.9923C41.6076 14.2377 42.5417 13.9465 43.3425 13.2463C43.5785 13.0418 43.7679 12.7429 43.8889 12.4504C44.1814 11.7482 44.1519 10.9944 44.1527 10.2284H44.1515Z" fill="white"/>
<path d="M102.147 6.1213C102.289 5.96221 102.42 5.81702 102.55 5.67142C103.28 4.8469 104.22 4.42973 105.294 4.29395C106.324 4.16348 107.284 4.37861 108.155 4.94587C108.968 5.47756 109.413 6.25463 109.554 7.1953C109.63 7.7191 109.668 8.2476 109.67 8.77686C109.683 10.6124 109.678 12.4479 109.673 14.2831C109.673 14.7023 109.607 15.1149 109.341 15.4581C108.979 15.9268 108.479 16.056 107.919 15.9489C107.358 15.8417 107.011 15.4675 106.876 14.9264C106.813 14.6486 106.784 14.3645 106.788 14.0798C106.781 12.4553 106.796 10.8304 106.777 9.20589C106.769 8.76507 106.714 8.32634 106.613 7.89713C106.389 6.91556 105.851 6.5172 104.835 6.52129C103.586 6.52579 102.509 7.4681 102.411 8.7151C102.33 9.78338 102.311 10.8574 102.286 11.9293C102.267 12.7514 102.29 13.5747 102.279 14.3968C102.273 14.879 102.157 15.3346 101.764 15.6573C101.323 16.0213 100.813 16.0822 100.287 15.8802C99.7615 15.6781 99.5174 15.2376 99.4282 14.7055C99.4028 14.5309 99.3917 14.3544 99.3951 14.1779C99.3929 11.3911 99.3929 8.60399 99.3951 5.81661C99.3956 5.63358 99.4179 5.45126 99.4613 5.27347C99.6225 4.61705 100.066 4.27963 100.745 4.27922C101.366 4.27922 101.88 4.66572 102.026 5.27429C102.094 5.53686 102.107 5.81702 102.147 6.1213Z" fill="white"/>
<path d="M65.7772 15.9586C64.6872 15.9942 63.63 15.822 62.6496 15.2997C61.8403 14.8686 61.2063 14.2772 60.9789 13.3513C60.8787 12.9423 60.9012 12.5521 61.1466 12.1808C61.4889 11.663 62.6521 11.5178 63.0198 12.1722C63.1985 12.4904 63.4247 12.7857 63.6435 13.0781C64.1122 13.7075 64.7637 14.0012 65.5305 14.0764C65.9538 14.1173 66.3796 14.1288 66.7837 13.9946C67.0561 13.9026 67.3329 13.7807 67.5607 13.6102C68.1767 13.1493 68.1153 12.2078 67.4655 11.7886C67.0066 11.4925 66.479 11.3796 65.9677 11.216C65.016 10.9191 64.059 10.6373 63.1171 10.3117C62.565 10.1211 62.0902 9.78002 61.6951 9.34527C60.8771 8.44549 60.8207 6.96169 61.5761 5.93431C62.1707 5.12615 62.9879 4.64354 63.96 4.44478C65.5301 4.12331 67.0753 4.21084 68.5546 4.86726C69.1734 5.14169 69.6997 5.54986 70.0376 6.15803C70.2302 6.50444 70.3046 6.87416 70.2069 7.2582C70.0658 7.81116 69.4707 8.14693 68.8376 8.059C68.5099 8.0208 68.2074 7.86432 67.9869 7.61893C67.8188 7.43202 67.6491 7.24552 67.4924 7.0488C66.9289 6.33962 66.1931 6.05496 65.2986 6.13553C64.841 6.17643 64.4185 6.29586 64.0615 6.60055C63.6239 6.97396 63.5875 7.55717 64.0255 7.92894C64.2536 8.12176 64.5177 8.26732 64.8025 8.35715C65.8541 8.6778 66.9182 8.95877 67.9742 9.2651C68.701 9.47573 69.3648 9.81233 69.9374 10.3117C70.4813 10.7864 70.7699 11.3863 70.8032 12.1112C70.8817 13.7926 69.9615 15.1292 68.1656 15.6637C67.3905 15.8898 66.584 15.9894 65.7772 15.9586Z" fill="white"/>
<path d="M49.8724 10.097C49.8724 8.71055 49.8724 7.32394 49.8724 5.9372C49.8724 5.59243 49.9292 5.26074 50.0953 4.95563C50.3771 4.4399 50.9214 4.19614 51.5562 4.29307C52.1603 4.38509 52.6163 4.82762 52.7288 5.43824C52.7546 5.57141 52.7683 5.70666 52.7697 5.84232C52.7721 8.66324 52.7721 11.4839 52.7697 14.3043C52.7697 14.748 52.6826 15.175 52.3738 15.5157C51.9738 15.957 51.4646 16.0682 50.9035 15.9185C50.3166 15.7615 50.0319 15.3255 49.9198 14.7611C49.8881 14.5875 49.873 14.4112 49.8748 14.2347C49.8708 12.8569 49.8724 11.4769 49.8724 10.097Z" fill="white"/>
<path d="M51.3243 2.94811C50.4368 2.94811 49.8691 2.40293 49.8707 1.55141C49.8707 0.711762 50.4875 0.125275 51.3672 0.12323C52.1888 0.12323 52.7692 0.716671 52.7688 1.56C52.77 2.39393 52.1933 2.94852 51.3243 2.94811Z" fill="white"/>
</g>
<defs>
<clipPath id="clip0">
<rect width="122.606" height="16" fill="white"/>
</clipPath>
</defs>
</svg>
