<svg width="55" height="38" viewBox="0 0 55 38" fill="none" xmlns="http://www.w3.org/2000/svg">
<g clip-path="url(#clip0)">
<mask id="mask0" mask-type="alpha" maskUnits="userSpaceOnUse" x="0" y="0" width="55" height="38">
<path d="M0.618225 0.0994873H54.4204V37.9005H0.618225V0.0994873Z" fill="white"/>
</mask>
<g mask="url(#mask0)">
<path fill-rule="evenodd" clip-rule="evenodd" d="M22.958 4.23767C24.6947 2.41925 27.1118 1.29317 29.7821 1.29317C33.3426 1.29317 36.4283 3.2827 38.0898 6.2471C39.5647 5.58394 41.1622 5.24156 42.7777 5.24238C49.1865 5.24238 54.3887 10.5146 54.3887 17.0204C54.3887 23.5261 49.1865 28.7984 42.7777 28.7984C41.9944 28.7984 41.2309 28.7192 40.4832 28.5696C39.0294 31.1759 36.2503 32.9466 33.0854 32.9466C31.7969 32.9491 30.5249 32.6551 29.3668 32.0871C27.8931 35.5687 24.4613 38.0159 20.4657 38.0159C16.292 38.0159 12.7514 35.3698 11.3865 31.6494C10.7791 31.7783 10.1599 31.8431 9.53906 31.8428C4.57422 31.8428 0.558838 27.7443 0.558838 22.7108C0.558838 19.3286 2.36675 16.3841 5.04895 14.7925C4.47992 13.4741 4.18702 12.0518 4.18851 10.6145C4.18851 4.80509 8.87642 0.109802 14.6522 0.109802C18.0347 0.109802 21.061 1.73127 22.9599 4.24802" fill="#00A1E0"/>
<path fill-rule="evenodd" clip-rule="evenodd" d="M8.39981 19.756C8.36598 19.8448 8.41187 19.8633 8.42275 19.879C8.52383 19.9526 8.62649 20.0059 8.72935 20.0658C9.27924 20.3583 9.79748 20.4438 10.3395 20.4438C11.4432 20.4438 12.1296 19.8529 12.1296 18.9019V18.8832C12.1296 18.0038 11.3542 17.6835 10.6302 17.4547L10.5355 17.4239C9.98756 17.2452 9.51482 17.0896 9.51482 16.7276V16.709C9.51482 16.3987 9.79174 16.1699 10.219 16.1699C10.6937 16.1699 11.2594 16.3288 11.6214 16.53C11.6214 16.53 11.7286 16.5996 11.7676 16.4956C11.7888 16.4393 11.9733 15.9425 11.9931 15.8868C12.014 15.8285 11.9773 15.7845 11.9395 15.7618C11.5241 15.5072 10.9505 15.3341 10.3571 15.3341L10.2469 15.3345C9.23611 15.3345 8.52996 15.9492 8.52996 16.8286V16.8475C8.52996 17.7746 9.3093 18.0771 10.0372 18.286L10.1543 18.3226C10.6844 18.4865 11.1433 18.6289 11.1433 19.003V19.0217C11.1433 19.3659 10.8446 19.6225 10.366 19.6225C10.1798 19.6225 9.58662 19.6193 8.94376 19.2107C8.86603 19.1651 8.82172 19.1323 8.76178 19.0955C8.73014 19.0762 8.65101 19.0414 8.6166 19.1456L8.39902 19.7544L8.39981 19.756ZM24.5595 19.7544C24.5256 19.8432 24.5715 19.8617 24.5828 19.8774C24.6835 19.951 24.7865 20.0043 24.8894 20.0642C25.4393 20.3567 25.9575 20.4422 26.4995 20.4422C27.6032 20.4422 28.2896 19.8513 28.2896 18.9003V18.8816C28.2896 18.0022 27.5162 17.6819 26.7903 17.4531L26.6955 17.4223C26.1476 17.2436 25.6749 17.0881 25.6749 16.726V16.7075C25.6749 16.3971 25.9518 16.1683 26.379 16.1683C26.8538 16.1683 27.4175 16.3273 27.7815 16.5284C27.7815 16.5284 27.8887 16.598 27.9278 16.494C27.9488 16.4377 28.1335 15.9409 28.1513 15.8852C28.1725 15.8269 28.1355 15.7829 28.0979 15.7602C27.6826 15.5056 27.1089 15.3325 26.5155 15.3325L26.4051 15.3329C25.3944 15.3329 24.6882 15.9477 24.6882 16.827V16.8459C24.6882 17.7731 25.4676 18.0755 26.1955 18.2844L26.3124 18.321C26.8445 18.4849 27.3014 18.6274 27.3014 19.0014V19.0201C27.3014 19.3643 27.0027 19.6209 26.524 19.6209C26.3375 19.6209 25.7427 19.6177 25.1018 19.2091C25.0241 19.1635 24.9786 19.1321 24.9197 19.0939C24.8997 19.0812 24.8065 19.0446 24.7747 19.144L24.5571 19.7528L24.5595 19.7544ZM35.5944 17.8906C35.5944 18.4278 35.4948 18.8516 35.2997 19.152C35.1051 19.4484 34.8112 19.5937 34.4017 19.5937C33.9923 19.5937 33.6995 19.4496 33.5076 19.154C33.3144 18.8556 33.2169 18.4298 33.2169 17.8926C33.2169 17.3554 33.315 16.9337 33.5076 16.6372C33.6991 16.3428 33.9903 16.2015 34.4017 16.2015C34.8131 16.2015 35.1059 16.3442 35.2997 16.6372C35.4959 16.9337 35.5944 17.3554 35.5944 17.8926V17.8906ZM36.5162 16.8959C36.4254 16.5875 36.2848 16.3169 36.0969 16.0901C35.9088 15.8633 35.6716 15.6803 35.3887 15.5489C35.1079 15.4166 34.7755 15.35 34.3997 15.35C34.0239 15.35 33.6936 15.417 33.4107 15.5489C33.1298 15.6811 32.8905 15.8633 32.7026 16.0901C32.5151 16.3169 32.3742 16.5875 32.2832 16.8959C32.1932 17.2023 32.1475 17.5365 32.1475 17.8926C32.1475 18.2487 32.1932 18.583 32.2832 18.8894C32.3736 19.1978 32.5147 19.4683 32.7026 19.6951C32.8907 19.9219 33.1298 20.103 33.4107 20.2323C33.6936 20.3612 34.0259 20.4269 34.3997 20.4269C34.7736 20.4269 35.1059 20.3612 35.3868 20.2323C35.6676 20.1034 35.907 19.9219 36.0949 19.6951C36.2826 19.4683 36.4232 19.1978 36.5142 18.8894C36.604 18.583 36.6497 18.2487 36.6497 17.8926C36.6497 17.5385 36.604 17.2023 36.5142 16.8959H36.5162ZM44.0901 19.4425C44.0598 19.3523 43.9724 19.3864 43.9724 19.3864C43.8384 19.4379 43.6954 19.4856 43.5431 19.5095C43.3896 19.5338 43.2187 19.5459 43.0387 19.5459C42.5937 19.5459 42.2376 19.4124 41.9844 19.148C41.7293 18.8834 41.5869 18.4576 41.5888 17.8807C41.5902 17.3554 41.7164 16.9615 41.9429 16.6591C42.1664 16.3607 42.5106 16.2055 42.9655 16.2055C43.3453 16.2055 43.6361 16.2499 43.9407 16.3458C43.9407 16.3458 44.0129 16.3774 44.0475 16.2817C44.1284 16.0569 44.1882 15.8957 44.275 15.649C44.2995 15.5784 44.2394 15.5486 44.2174 15.54C44.098 15.493 43.8159 15.416 43.6023 15.3836C43.4025 15.353 43.1711 15.3371 42.91 15.3371C42.5223 15.3371 42.1781 15.4037 41.8834 15.5358C41.5886 15.6677 41.3394 15.8502 41.1416 16.077C40.9438 16.3038 40.7935 16.5744 40.6926 16.8827C40.5927 17.1891 40.5423 17.5254 40.5423 17.8815C40.5423 18.6494 40.748 19.2722 41.1555 19.7278C41.5629 20.1854 42.1761 20.4161 42.9752 20.4161C43.448 20.4161 43.9326 20.3201 44.2807 20.1814C44.2807 20.1814 44.3472 20.1492 44.3183 20.0712L44.0908 19.4425H44.0901ZM45.7029 17.3734C45.747 17.0749 45.8283 16.8262 45.9561 16.6332C46.1474 16.3388 46.4388 16.1776 46.8482 16.1776C47.2577 16.1776 47.5286 16.3396 47.7225 16.6332C47.8511 16.8272 47.9072 17.0849 47.9282 17.3734L45.693 17.373L45.7029 17.3734ZM48.8084 16.7168C48.7299 16.4204 48.5355 16.1199 48.4089 15.9827C48.2071 15.7658 48.0113 15.6126 47.8155 15.5291C47.5327 15.4081 47.2286 15.3461 46.9214 15.3466C46.5317 15.3466 46.1777 15.4129 45.8908 15.5476C45.604 15.6832 45.3627 15.8679 45.1728 16.0987C44.9831 16.3294 44.8405 16.602 44.7495 16.9144C44.6585 17.2227 44.6126 17.561 44.6126 17.9151C44.6126 18.2772 44.6603 18.6134 44.7541 18.9178C44.8488 19.2242 45.0013 19.4928 45.207 19.7156C45.4128 19.9404 45.6758 20.1155 45.9923 20.2389C46.3068 20.3612 46.6886 20.4247 47.1257 20.4233C48.0277 20.4203 48.5024 20.2184 48.6963 20.109C48.7309 20.0895 48.7635 20.0558 48.7228 19.959L48.519 19.384C48.4878 19.2982 48.4015 19.3293 48.4015 19.3293C48.178 19.4132 47.8615 19.564 47.1198 19.562C46.6352 19.5612 46.2772 19.4174 46.0517 19.192C45.8222 18.9612 45.7075 18.625 45.6897 18.1475L48.815 18.1499C48.815 18.1499 48.8972 18.1491 48.9057 18.0683C48.9091 18.0349 49.0128 17.4237 48.8126 16.7174L48.8084 16.7168ZM20.7205 17.3734C20.7646 17.0749 20.8461 16.8262 20.9737 16.6332C21.1652 16.3388 21.4563 16.1776 21.8658 16.1776C22.2752 16.1776 22.5462 16.3396 22.7401 16.6332C22.8684 16.8272 22.9246 17.0849 22.9458 17.3734L20.7106 17.373L20.7205 17.3734ZM23.826 16.7168C23.7477 16.4204 23.553 16.1199 23.4264 15.9827C23.2247 15.7658 23.0289 15.6126 22.833 15.5291C22.5503 15.4081 22.2462 15.3461 21.939 15.3466C21.5493 15.3466 21.1952 15.4129 20.9084 15.5476C20.6216 15.6832 20.3803 15.8679 20.1904 16.0987C20.0011 16.3294 19.8581 16.602 19.7671 16.9144C19.6763 17.2227 19.6306 17.561 19.6306 17.9151C19.6306 18.2772 19.6779 18.6134 19.7722 18.9178C19.8668 19.2242 20.0195 19.4928 20.2232 19.7156C20.429 19.9404 20.692 20.1155 21.0085 20.2389C21.323 20.3612 21.7028 20.4247 22.1419 20.4233C23.0439 20.4203 23.5186 20.2184 23.7125 20.109C23.7469 20.0895 23.7797 20.0558 23.7388 19.959L23.535 19.384C23.5036 19.2982 23.4173 19.3293 23.4173 19.3293C23.1938 19.4132 22.8773 19.564 22.1356 19.562C21.653 19.5612 21.2929 19.4174 21.0675 19.192C20.838 18.9612 20.7233 18.625 20.7055 18.1475L23.8308 18.1499C23.8308 18.1499 23.913 18.1491 23.9215 18.0683C23.9249 18.0349 24.0286 17.4237 23.8282 16.7174L23.826 16.7168ZM13.9755 19.4226C13.853 19.3243 13.836 19.3002 13.7955 19.2364C13.7335 19.1403 13.7019 19.0036 13.7019 18.8285C13.7019 18.5539 13.7929 18.355 13.9808 18.2217C13.9788 18.2221 14.2498 17.9869 14.8867 17.9949C15.1702 18 15.4531 18.0243 15.7333 18.0675V19.494H15.7337C15.7337 19.494 15.3381 19.5797 14.8911 19.6068C14.2561 19.6452 13.9753 19.423 13.9772 19.4236L13.9755 19.4226ZM15.2177 17.2142C15.0911 17.2048 14.9269 17.2003 14.7311 17.2003C14.464 17.2003 14.2049 17.2337 13.9636 17.2993C13.7203 17.3654 13.5007 17.4677 13.3128 17.6037C13.1244 17.739 12.9694 17.9159 12.8599 18.121C12.7493 18.3279 12.6929 18.5707 12.6929 18.8452C12.6929 19.1237 12.741 19.3645 12.8359 19.5614C12.929 19.7568 13.069 19.9257 13.2434 20.0529C13.4169 20.1798 13.6311 20.2737 13.8783 20.3294C14.1236 20.3857 14.4005 20.4142 14.7051 20.4142C15.0256 20.4142 15.344 20.3871 15.6526 20.3348C15.9154 20.2892 16.1772 20.238 16.4379 20.1812C16.5419 20.1571 16.6575 20.1255 16.6575 20.1255C16.7346 20.1058 16.7287 20.0228 16.7287 20.0228L16.7269 17.1579C16.7269 16.5292 16.5599 16.0617 16.2304 15.7732C15.902 15.4847 15.4214 15.3395 14.7983 15.3395C14.5649 15.3395 14.1871 15.3713 13.9616 15.4168C13.9616 15.4168 13.2812 15.5497 13.0003 15.771C13.0003 15.771 12.9386 15.8092 12.9722 15.8957L13.1937 16.4926C13.2212 16.57 13.2962 16.5435 13.2962 16.5435C13.2962 16.5435 13.3197 16.5342 13.3474 16.5177C13.9468 16.1894 14.7063 16.1993 14.7063 16.1993C15.0426 16.1993 15.3037 16.268 15.4778 16.4023C15.6481 16.5338 15.7349 16.7325 15.7349 17.1503V17.283C15.4679 17.244 15.2206 17.2216 15.2206 17.2216L15.2177 17.2142ZM40.3385 15.5967C40.343 15.5862 40.3454 15.5749 40.3455 15.5635C40.3455 15.5521 40.3433 15.5407 40.3389 15.5302C40.3345 15.5197 40.3281 15.5101 40.32 15.5021C40.3119 15.4941 40.3022 15.4879 40.2917 15.4837C40.2384 15.4634 39.9732 15.4071 39.7695 15.3944C39.3778 15.3697 39.1602 15.4361 38.9644 15.5245C38.771 15.6122 38.5569 15.7533 38.4382 15.9164L38.4379 15.5344C38.4379 15.4819 38.4009 15.4395 38.3482 15.4395H37.5491C37.4973 15.4395 37.4597 15.4819 37.4597 15.5344V20.2098C37.4598 20.2351 37.4698 20.2593 37.4875 20.2772C37.5053 20.295 37.5294 20.3051 37.5545 20.3051H38.3734C38.3985 20.3051 38.4225 20.295 38.4402 20.2771C38.458 20.2593 38.4679 20.2351 38.4679 20.2098V17.8622C38.4679 17.5478 38.5023 17.2355 38.571 17.0385C38.6386 16.8437 38.7306 16.6884 38.8439 16.5769C38.9521 16.4693 39.0844 16.3895 39.2297 16.3442C39.366 16.3048 39.5072 16.2849 39.649 16.2849C39.8122 16.2849 39.9912 16.3271 39.9912 16.3271C40.0513 16.3338 40.0848 16.2968 40.1051 16.2423C40.1587 16.0989 40.3108 15.6693 40.3405 15.5838" fill="#FFFFFE"/>
<path fill-rule="evenodd" clip-rule="evenodd" d="M32.69 13.4389C32.5888 13.4081 32.4858 13.3835 32.3817 13.3653C32.2415 13.3417 32.0996 13.3307 31.9576 13.3322C31.3933 13.3322 30.9484 13.4926 30.6361 13.8093C30.3259 14.1237 30.1149 14.6025 30.009 15.2326L29.9709 15.4453H29.2625C29.2625 15.4453 29.1761 15.4417 29.1579 15.5366L29.0416 16.1892C29.0335 16.2517 29.0602 16.2907 29.1433 16.2903H29.8328L29.1332 20.2182C29.0784 20.5345 29.0157 20.7948 28.9462 20.9919C28.8778 21.1865 28.8109 21.3323 28.7287 21.4382C28.6489 21.5406 28.5734 21.616 28.443 21.66C28.3354 21.6964 28.2116 21.7131 28.0759 21.7131C28.0004 21.7131 27.8999 21.7004 27.8257 21.6855C27.7515 21.6707 27.7129 21.654 27.6574 21.6306C27.6574 21.6306 27.5765 21.5995 27.5446 21.6811C27.5187 21.7477 27.3349 22.2561 27.3132 22.3189C27.291 22.381 27.3221 22.4299 27.3613 22.4441C27.453 22.4771 27.5213 22.4982 27.6463 22.5278C27.82 22.569 27.9663 22.5716 28.1034 22.5716C28.3906 22.5716 28.6523 22.531 28.8693 22.4522C29.0877 22.3728 29.2778 22.2346 29.4459 22.0474C29.6277 21.8454 29.742 21.6339 29.8514 21.3455C29.9596 21.0596 30.0518 20.7046 30.1255 20.291L30.8285 16.2903H31.8563C31.8563 16.2903 31.9429 16.2934 31.9609 16.1989L32.0773 15.5464C32.0854 15.4839 32.0589 15.4449 31.9754 15.4453H30.9779C30.9828 15.4226 31.0281 15.0697 31.1426 14.7374C31.1915 14.5956 31.2835 14.4812 31.3614 14.4026C31.4342 14.3278 31.5238 14.2717 31.6227 14.2391C31.7311 14.2053 31.8441 14.189 31.9576 14.1905C32.0515 14.1905 32.1437 14.2019 32.2139 14.2166C32.3107 14.2373 32.3482 14.2482 32.3736 14.2558C32.4752 14.287 32.4889 14.2568 32.5089 14.2072L32.7474 13.5483C32.7719 13.4775 32.7122 13.4476 32.69 13.4389ZM18.7501 20.2265C18.7501 20.2791 18.7129 20.3218 18.6607 20.3218H17.8333C17.7809 20.3218 17.7437 20.2791 17.7437 20.2265V13.5282C17.7437 13.4759 17.7809 13.4335 17.8333 13.4335H18.6607C18.7129 13.4335 18.7501 13.4759 18.7501 13.5282V20.2265Z" fill="#FFFFFE"/>
</g>
</g>
<defs>
<clipPath id="clip0">
<rect width="54" height="38" fill="white" transform="translate(0.606323)"/>
</clipPath>
</defs>
</svg>
