<svg width="18" height="16" viewBox="0 0 18 16" fill="none" xmlns="http://www.w3.org/2000/svg">
<path d="M8.97147 1.08781C8.98045 1.06017 9.01955 1.06017 9.02853 1.08781L10.7894 6.50713C10.7934 6.5195 10.8049 6.52786 10.8179 6.52786H16.5161C16.5452 6.52786 16.5573 6.56505 16.5338 6.58213L11.9238 9.93146C11.9133 9.9391 11.9089 9.95264 11.9129 9.965L13.6738 15.3843C13.6827 15.412 13.6511 15.4349 13.6276 15.4179L9.01763 12.0685C9.00712 12.0609 8.99288 12.0609 8.98237 12.0685L4.37241 15.4179C4.3489 15.4349 4.31727 15.412 4.32625 15.3843L6.08709 9.965C6.09111 9.95264 6.08671 9.9391 6.0762 9.93146L1.46624 6.58213C1.44273 6.56505 1.45482 6.52786 1.48388 6.52786H7.18209C7.19509 6.52786 7.20661 6.5195 7.21062 6.50713L8.97147 1.08781Z" stroke="white" stroke-opacity="0.6"/>
</svg>
