<svg width="459" height="682" viewBox="0 0 459 682" fill="none" xmlns="http://www.w3.org/2000/svg">
<path d="M444.53 259.909H443.833L359.415 0L334.81 70.7998L410.948 305.02H497.61L557.732 259.909H444.53Z" fill="white" fill-opacity="0.1"/>
<path d="M273.45 258.438L273.295 259.057H0L59.7349 304.4L306.025 304.246L332.798 221.917L308.424 150.73L273.45 258.438Z" fill="#FEBF10"/>
<path d="M219.905 419.46L220.447 419.847L136.029 679.755L197.543 636.889L273.605 402.591L203.501 351.678L128.291 352.916L219.905 419.46Z" fill="#FEBF10"/>
<path d="M357.48 521.133L358.022 520.746L579.087 681.38L557.344 609.652L358.022 464.957L287.918 515.871L265.866 587.677L357.48 521.133Z" fill="white" fill-opacity="0.1"/>
<path d="M495.289 422.09L495.057 421.471L716.123 260.837L641.222 259.289L441.977 404.139L468.749 486.545L530.264 529.799L495.289 422.09Z" fill="white" fill-opacity="0.1"/>
</svg>
