<svg width="355" height="338" viewBox="0 0 355 338" fill="none" xmlns="http://www.w3.org/2000/svg">
<path fill-rule="evenodd" clip-rule="evenodd" d="M178 73.1374V0.677087L219.537 128.561H219.881H275.875L246.137 150.874H203.27L178 73.1374ZM218.65 200L218.618 199.902L317.172 128.254L354.221 129.02L256.538 200H218.65Z" fill="#FEBF10"/>
<path d="M219.881 128.561H219.537L177.78 0L165.609 35.0203L203.27 150.874H246.137L275.875 128.561H219.881Z" fill="white" fill-opacity="0.1"/>
<path d="M135.259 127.834L135.182 128.14H0L29.5472 150.568L151.372 150.491L164.614 109.768L152.558 74.5568L135.259 127.834Z" fill="white" fill-opacity="0.1"/>
<path d="M108.773 207.481L109.041 207.672L67.2847 336.233L97.7122 315.029L135.335 199.137L100.659 173.953L63.4574 174.566L108.773 207.481Z" fill="white" fill-opacity="0.1"/>
<path d="M176.823 257.772L177.091 257.581L286.439 337.037L275.684 301.557L177.091 229.986L142.415 255.17L131.507 290.687L176.823 257.772Z" fill="white" fill-opacity="0.1"/>
<path d="M244.989 208.782L244.874 208.476L354.221 129.02L317.173 128.254L218.618 199.902L231.861 240.664L262.288 262.059L244.989 208.782Z" fill="white" fill-opacity="0.1"/>
</svg>