<svg width="18" height="18" viewBox="0 0 18 18" fill="none" xmlns="http://www.w3.org/2000/svg">
<g clip-path="url(#clip0)">
<path d="M12.5 4.5C12.5 6.433 10.933 8 9 8C7.067 8 5.5 6.433 5.5 4.5C5.5 2.567 7.067 1 9 1C10.933 1 12.5 2.567 12.5 4.5Z" stroke="#FEBF10" stroke-width="2"/>
<path d="M17 14.8457V14.85V17L1 17V14.85H1.00001L0.999992 14.8457C0.998961 14.6075 1.06669 14.374 1.19505 14.1734C1.32203 13.9749 1.503 13.8168 1.71664 13.7177C4.00998 12.7213 6.48813 12.2211 8.98847 12.2499L9 12.2501L9.01153 12.2499C11.5119 12.2211 13.99 12.7213 16.2834 13.7177C16.497 13.8168 16.678 13.9749 16.805 14.1734C16.9333 14.374 17.001 14.6075 17 14.8457Z" stroke="white" stroke-width="2"/>
</g>
<defs>
<clipPath id="clip0">
<rect width="18" height="18" fill="white"/>
</clipPath>
</defs>
</svg>
