<svg width="32" height="32" viewBox="0 0 32 32" fill="none" xmlns="http://www.w3.org/2000/svg">
<g clip-path="url(#clip0)">
<path d="M21.7559 18.7218L20.9121 19.5765H22.1131H28.0471C29.3959 19.5765 30.4941 20.6747 30.4941 22.0235C30.4941 23.1241 29.7768 24.0251 28.8286 24.3432L28.4863 24.4581V24.8191V31.0588C28.4863 31.3014 28.2896 31.498 28.0471 31.498H3.95294C3.71038 31.498 3.51372 31.3014 3.51372 31.0588V27.8294V27.4691L3.17239 27.3538C1.46117 26.7759 0.935803 24.5915 2.22248 23.3048L2.2225 23.3048C2.68517 22.8421 3.29811 22.5882 3.95294 22.5882H11.0431H11.5451V22.0863V19.798V19.4378L11.2038 19.3225C10.235 18.9952 9.53725 18.0784 9.53725 17.0039C9.53725 15.655 10.6354 14.5569 11.9843 14.5569H15.0588H15.5608V14.0549V11.5327V11.2381L15.3036 11.0945L13.3741 10.0165L13.3741 10.0165C12.484 9.5193 11.8607 8.67686 11.6368 7.71961L11.5609 7.39518L11.2325 7.33911C9.13283 6.98068 7.52941 5.14784 7.52941 2.94902V2.44706C7.52941 2.2045 7.72607 2.00784 7.96862 2.00784H11.0431H11.5451V1.50588V0.941177C11.5451 0.698621 11.7418 0.501961 11.9843 0.501961H11.9938H12.0034H12.013H12.0227H12.0325H12.0423H12.0523H12.0622H12.0723H12.0824H12.0927H12.1029H12.1133H12.1237H12.1342H12.1447H12.1553H12.166H12.1768H12.1876H12.1985H12.2095H12.2205H12.2316H12.2427H12.254H12.2653H12.2766H12.288H12.2995H12.3111H12.3227H12.3344H12.3461H12.3579H12.3698H12.3817H12.3937H12.4058H12.4179H12.4301H12.4423H12.4546H12.467H12.4794H12.4919H12.5044H12.517H12.5297H12.5424H12.5552H12.568H12.5809H12.5939H12.6069H12.62H12.6331H12.6463H12.6595H12.6728H12.6862H12.6996H12.7131H12.7266H12.7402H12.7538H12.7675H12.7812H12.795H12.8088H12.8227H12.8367H12.8507H12.8647H12.8789H12.893H12.9072H12.9215H12.9358H12.9502H12.9646H12.979H12.9936H13.0081H13.0227H13.0374H13.0521H13.0669H13.0817H13.0965H13.1114H13.1264H13.1414H13.1564H13.1715H13.1866H13.2018H13.217H13.2323H13.2476H13.263H13.2784H13.2938H13.3093H13.3248H13.3404H13.356H13.3717H13.3874H13.4032H13.4189H13.4348H13.4506H13.4666H13.4825H13.4985H13.5145H13.5306H13.5467H13.5629H13.5791H13.5953H13.6116H13.6279H13.6442H13.6606H13.677H13.6934H13.7099H13.7265H13.743H13.7596H13.7763H13.7929H13.8096H13.8264H13.8431H13.8599H13.8768H13.8937H13.9106H13.9275H13.9445H13.9615H13.9785H13.9956H14.0127H14.0298H14.047H14.0642H14.0814H14.0986H14.1159H14.1332H14.1506H14.1679H14.1853H14.2028H14.2202H14.2377H14.2552H14.2727H14.2903H14.3079H14.3255H14.3431H14.3608H14.3785H14.3962H14.414H14.4317H14.4495H14.4673H14.4852H14.503H14.5209H14.5388H14.5568H14.5747H14.5927H14.6107H14.6287H14.6467H14.6648H14.6829H14.701H14.7191H14.7372H14.7554H14.7736H14.7918H14.81H14.8282H14.8465H14.8648H14.883H14.9014H14.9197H14.938H14.9564H14.9747H14.9931H15.0115H15.0299H15.0484H15.0668H15.0853H15.1037H15.1222H15.1407H15.1593H15.1778H15.1963H15.2149H15.2334H15.252H15.2706H15.2892H15.3078H15.3264H15.345H15.3637H15.3823H15.401H15.4197H15.4383H15.457H15.4757H15.4944H15.5131H15.5318H15.5506H15.5693H15.588H15.6068H15.6255H15.6443H15.663H15.6818H15.7006H15.7193H15.7381H15.7569H15.7757H15.7945H15.8133H15.8321H15.8509H15.8697H15.8885H15.9073H15.9261H15.9449H15.9637H15.9825H16.0013H16.0201H16.0389H16.0577H16.0765H16.0953H16.1142H16.133H16.1518H16.1706H16.1893H16.2081H16.2269H16.2457H16.2645H16.2833H16.302H16.3208H16.3396H16.3583H16.3771H16.3958H16.4146H16.4333H16.452H16.4708H16.4895H16.5082H16.5269H16.5456H16.5643H16.5829H16.6016H16.6202H16.6389H16.6575H16.6762H16.6948H16.7134H16.732H16.7506H16.7691H16.7877H16.8062H16.8248H16.8433H16.8618H16.8803H16.8988H16.9173H16.9357H16.9542H16.9726H16.991H17.0094H17.0278H17.0461H17.0645H17.0828H17.1011H17.1194H17.1377H17.156H17.1742H17.1925H17.2107H17.2289H17.247H17.2652H17.2833H17.3014H17.3195H17.3376H17.3557H17.3737H17.3917H17.4097H17.4277H17.4456H17.4635H17.4814H17.4993H17.5172H17.535H17.5528H17.5706H17.5884H17.6061H17.6238H17.6415H17.6592H17.6768H17.6944H17.712H17.7295H17.7471H17.7646H17.782H17.7995H17.8169H17.8343H17.8516H17.869H17.8863H17.9036H17.9208H17.938H17.9552H17.9723H17.9895H18.0066H18.0236H18.0406H18.0576H18.0746H18.0915H18.1084H18.1253H18.1421H18.1589H18.1757H18.1924H18.2091H18.2258H18.2424H18.259H18.2755H18.292H18.3085H18.325H18.3414H18.3577H18.3741H18.3904H18.4066H18.4228H18.439H18.4552H18.4713H18.4873H18.5033H18.5193H18.5353H18.5512H18.567H18.5828H18.5986H18.6144H18.63H18.6457H18.6613H18.6769H18.6924H18.7079H18.7233H18.7387H18.754H18.7693H18.7846H18.7998H18.815H18.8301H18.8452H18.8602H18.8752H18.8901H18.905H18.9198H18.9346H18.9494H18.9641H18.9787H18.9933H19.0079H19.0224H19.0368H19.0512H19.0656H19.0799H19.0941H19.1083H19.1225H19.1365H19.1506H19.1646H19.1785H19.1924H19.2062H19.22H19.2337H19.2474H19.261H19.2746H19.2881H19.3015H19.3149H19.3283H19.3415H19.3548H19.3679H19.381H19.3941H19.4071H19.42H19.4329H19.4457H19.4585H19.4712H19.4839H19.4965H19.509H19.5214H19.5339H19.5462H19.5585H19.5707H19.5829H19.595H19.607H19.619H19.6309H19.6428H19.6545H19.6663H19.6779H19.6895H19.7011H19.7125H19.7239H19.7353H19.7465H19.7577H19.7689H19.78H19.791H19.8019H19.8128H19.8236H19.8343H19.845H19.8556H19.8661H19.8766H19.887H19.8973H19.9076H19.9177H19.9279H19.9379H19.9479H19.9578H19.9676H19.9774H19.9871H19.9967H20.0062H20.0157C20.2582 0.501961 20.4549 0.69862 20.4549 0.941177V1.50588V2.00784H20.9569H24.0314C24.2739 2.00784 24.4706 2.2045 24.4706 2.44706V2.94902C24.4706 5.14375 22.8731 6.97384 20.779 7.33702L20.4483 7.39438L20.375 7.72199C20.1693 8.6412 19.5751 9.45802 18.7223 9.94158L18.9699 10.3782L18.7223 9.94159L16.6936 11.092L16.4392 11.2363V11.5287V14.0549V14.5569H16.9412H20.0157C22.1827 14.5569 23.2743 17.1839 21.7559 18.7218ZM23.5558 3.45962L23.6382 2.88627H23.0589H20.9569H20.4549V3.38824V5.8762V6.56533L21.1108 6.35397C22.3918 5.94119 23.3597 4.82484 23.5558 3.45962ZM8.94111 2.88627H8.36188L8.44425 3.45962C8.64039 4.82483 9.60813 5.94118 10.8892 6.35397L11.5451 6.56533V5.8762V3.38824V2.88627H11.0431H8.94111ZM12.4236 6.93679L12.4236 6.93862C12.4271 7.89671 12.9599 8.77883 13.8024 9.24957L13.8024 9.24957L15.7517 10.3386L15.9984 10.4764L16.2441 10.337L18.2889 9.17747C19.0748 8.73183 19.5732 7.90466 19.5764 7.00877C19.5764 7.00703 19.5764 7.00629 19.5764 7.00556C19.5765 6.99291 19.5765 6.98025 19.5765 1.88235V1.38039H19.0745H12.9255H12.4235L12.4235 1.88236L12.4236 6.93679ZM2.84361 23.926L2.8436 23.926C1.85599 24.9137 2.5638 26.6039 3.95294 26.6039H11.0431H11.5451V26.102V23.9686V23.4667H11.0431H3.95294C3.53484 23.4667 3.1392 23.6304 2.84361 23.926ZM4.89411 27.4824H4.39215V27.9843V30.1176V30.6196H4.89411H11.0431H11.5451V30.1176V27.9843V27.4824H11.0431H4.89411ZM12.9255 19.451H12.4235V19.9529V19.958V19.9632V19.9686V19.9742V19.9799V19.9858V19.9919V19.9982V20.0045V20.0111V20.0178V20.0247V20.0318V20.039V20.0464V20.0539V20.0616V20.0694V20.0774V20.0856V20.0939V20.1024V20.111V20.1198V20.1287V20.1378V20.1471V20.1565V20.166V20.1757V20.1856V20.1956V20.2057V20.216V20.2265V20.237V20.2478V20.2587V20.2697V20.2809V20.2922V20.3036V20.3152V20.327V20.3388V20.3509V20.363V20.3753V20.3878V20.4003V20.413V20.4259V20.4389V20.452V20.4653V20.4786V20.4922V20.5058V20.5196V20.5335V20.5476V20.5617V20.576V20.5905V20.605V20.6197V20.6345V20.6495V20.6645V20.6797V20.695V20.7105V20.726V20.7417V20.7575V20.7734V20.7895V20.8056V20.8219V20.8383V20.8548V20.8715V20.8882V20.9051V20.9221V20.9392V20.9564V20.9737V20.9911V21.0087V21.0263V21.0441V21.062V21.0799V21.098V21.1162V21.1345V21.1529V21.1715V21.1901V21.2088V21.2276V21.2466V21.2656V21.2847V21.304V21.3233V21.3428V21.3623V21.3819V21.4017V21.4215V21.4414V21.4614V21.4816V21.5018V21.5221V21.5425V21.563V21.5835V21.6042V21.625V21.6458V21.6668V21.6878V21.7089V21.7301V21.7514V21.7728V21.7943V21.8158V21.8375V21.8592V21.881V21.9029V21.9248V21.9469V21.969V21.9912V22.0135V22.0359V22.0583V22.0808V22.1034V22.1261V22.1488V22.1716V22.1945V22.2175V22.2405V22.2636V22.2868V22.31V22.3334V22.3568V22.3802V22.4037V22.4273V22.451V22.4747V22.4985V22.5223V22.5462V22.5702V22.5943V22.6184V22.6425V22.6668V22.691V22.7154V22.7398V22.7642V22.7888V22.8133V22.838V22.8626V22.8874V22.9122V22.937V22.9619V22.9869V23.0119V23.0369V23.062V23.0872V23.1124V23.1376V23.1629V23.1883V23.2137V23.2391V23.2646V23.2901V23.3157V23.3413V23.3669V23.3926V23.4184V23.4441V23.4699V23.4958V23.5217V23.5476V23.5736V23.5996V23.6256V23.6517V23.6778V23.704V23.7301V23.7563V23.7826V23.8088V23.8351V23.8615V23.8878V23.9142V23.9406V23.9671V23.9936V24.02V24.0466V24.0731V24.0997V24.1263V24.1529V24.1795V24.2062V24.2329V24.2596V24.2863V24.313V24.3398V24.3665V24.3933V24.4201V24.447V24.4738V24.5006V24.5275V24.5544V24.5813V24.6082V24.6351V24.662V24.6889V24.7159V24.7428V24.7698V24.7967V24.8237V24.8507V24.8776V24.9046V24.9316V24.9586V24.9856V25.0126V25.0396V25.0666V25.0936V25.1205V25.1475V25.1745V25.2015V25.2285V25.2555V25.2824V25.3094V25.3364V25.3633V25.3903V25.4172V25.4442V25.4711V25.498V25.5249V25.5518V25.5787V25.6055V25.6324V25.6592V25.686V25.7128V25.7396V25.7664V25.7932V25.8199V25.8466V25.8733V25.9V25.9267V25.9533V25.9799V26.0065V26.0331V26.0596V26.0862V26.1127V26.1391V26.1656V26.192V26.2184V26.2448V26.2711V26.2974V26.3237V26.3499V26.3761V26.4023V26.4285V26.4546V26.4806V26.5067V26.5327V26.5587V26.5846V26.6105V26.6364V26.6622V26.688V26.7137V26.7394V26.7651V26.7907V26.8163V26.8418V26.8673V26.8927V26.9181V26.9435V26.9688V26.994V27.0192V27.0444V27.0695V27.0946V27.1196V27.1445V27.1695V27.1943V27.2191V27.2439V27.2686V27.2932V27.3178V27.3423V27.3668V27.3912V27.4155V27.4398V27.4641V27.4882V27.5123V27.5364V27.5604V27.5843V27.6082V27.632V27.6557V27.6794V27.703V27.7265V27.75V27.7734V27.7967V27.82V27.8431V27.8663V27.8893V27.9123V27.9352V27.958V27.9808V28.0034V28.026V28.0486V28.071V28.0934V28.1157V28.1379V28.1601V28.1821V28.2041V28.226V28.2478V28.2695V28.2912V28.3127V28.3342V28.3556V28.3769V28.3981V28.4193V28.4403V28.4613V28.4822V28.5029V28.5236V28.5442V28.5647V28.5851V28.6055V28.6257V28.6458V28.6659V28.6858V28.7057V28.7254V28.7451V28.7646V28.7841V28.8034V28.8227V28.8418V28.8609V28.8798V28.8987V28.9174V28.9361V28.9546V28.973V28.9913V29.0096V29.0277V29.0457V29.0636V29.0813V29.099V29.1166V29.134V29.1514V29.1686V29.1857V29.2027V29.2196V29.2363V29.253V29.2695V29.286V29.3023V29.3184V29.3345V29.3504V29.3663V29.382V29.3975V29.413V29.4283V29.4436V29.4586V29.4736V29.4884V29.5031V29.5177V29.5322V29.5465V29.5607V29.5748V29.5887V29.6025V29.6162V29.6297V29.6431V29.6564V29.6695V29.6826V29.6954V29.7082V29.7208V29.7332V29.7455V29.7577V29.7698V29.7817V29.7934V29.8051V29.8165V29.8279V29.8391V29.8501V29.861V29.8718V29.8824V29.8929V29.9032V29.9134V29.9234V29.9332V29.943V29.9525V29.962V29.9712V29.9804V29.9893V29.9981V30.0068V30.0153V30.0236V30.0318V30.0399V30.0477V30.0554V30.063V30.0704V30.0776V30.0847V30.0916V30.0984V30.105V30.1114V30.1176V30.6196H12.9255H19.0745H19.5765V30.1176V19.9529V19.451H19.0745H12.9255ZM27.1059 30.6196H27.6078V30.1176V24.9726V24.4706H27.1059H20.9569H20.4549V24.9726V30.1176V30.6196H20.9569H27.1059ZM29.1564 23.1329L29.1565 23.1328C30.1441 22.1451 29.4361 20.4549 28.0471 20.4549H20.9569H20.4549V20.9569V23.0902V23.5922H20.9569H28.0471C28.4651 23.5922 28.8608 23.4285 29.1564 23.1329ZM20.0157 15.4353H11.9843C11.1189 15.4353 10.4157 16.1385 10.4157 17.0039C10.4157 17.8693 11.1189 18.5725 11.9843 18.5725H20.0157C20.8811 18.5725 21.5843 17.8693 21.5843 17.0039C21.5843 16.1385 20.8811 15.4353 20.0157 15.4353Z" fill="#121331" stroke="#121331" stroke-width="1.00392"/>
<mask id="mask0" style="mask-type:alpha" maskUnits="userSpaceOnUse" x="1" y="0" width="30" height="32">
<path d="M30.9961 22.0235C30.9961 20.3974 29.6732 19.0745 28.0471 19.0745H22.1131C23.9432 17.2209 22.6303 14.0549 20.0157 14.0549H16.9412V11.5287L18.9699 10.3782C19.9463 9.82457 20.6283 8.88878 20.8648 7.83159C23.1947 7.42751 24.9725 5.39263 24.9725 2.94902V2.44706C24.9725 1.92728 24.5512 1.50588 24.0314 1.50588H20.9569V0.941177C20.9569 0.421396 20.5355 0 20.0157 0C18.4059 0 13.5976 0 11.9843 0C11.4645 0 11.0431 0.421396 11.0431 0.941177V1.50588H7.96862C7.44884 1.50588 7.02745 1.92728 7.02745 2.44706V2.94902C7.02745 5.39715 8.81185 7.43511 11.148 7.83391C11.4039 8.92806 12.1154 9.88838 13.1293 10.4547L15.0588 11.5327V14.0549H11.9843C10.3582 14.0549 9.03529 15.3778 9.03529 17.0039C9.03529 18.3009 9.87733 19.4042 11.0431 19.798V22.0863H3.95294C3.16505 22.0863 2.4244 22.393 1.86754 22.9499C0.314976 24.5025 0.951399 27.1335 3.01176 27.8294V31.0588C3.01176 31.5786 3.43316 32 3.95294 32H28.0471C28.5668 32 28.9882 31.5786 28.9882 31.0588V24.8191C30.13 24.4361 30.9961 23.3512 30.9961 22.0235ZM23.0589 3.38824C22.8905 4.56044 22.0584 5.52126 20.9569 5.8762V3.38824H23.0589ZM8.94111 3.38824H11.0431V5.8762C9.94158 5.52126 9.10952 4.56044 8.94111 3.38824ZM12.9255 6.93678L12.9255 1.88235H19.0745C19.0745 7.27849 19.0746 6.97644 19.0744 7.00668C19.072 7.71639 18.6761 8.38086 18.0413 8.74083L15.9965 9.90036L14.0472 8.81136C13.3582 8.42642 12.9284 7.70842 12.9255 6.93678ZM11.9843 15.9373H20.0157C20.6039 15.9373 21.0823 16.4158 21.0823 17.0039C21.0823 17.5921 20.6039 18.0706 20.0157 18.0706H11.9843C11.3961 18.0706 10.9176 17.5921 10.9176 17.0039C10.9176 16.4158 11.3961 15.9373 11.9843 15.9373ZM3.19855 24.2809C3.3999 24.0796 3.66782 23.9686 3.95294 23.9686H11.0431V26.102H3.95294C3.00906 26.102 2.5285 24.951 3.19855 24.2809ZM4.89411 27.9843H11.0431V30.1176H4.89411V27.9843ZM12.9255 19.9529H19.0745V30.1176H12.9255C12.9255 29.0632 12.9255 20.8028 12.9255 19.9529ZM27.1059 30.1176H20.9569V24.9726H27.1059V30.1176ZM28.8015 22.7779C28.6002 22.9793 28.3322 23.0902 28.0471 23.0902H20.9569V20.9569H28.0471C28.9909 20.9569 29.4716 22.1078 28.8015 22.7779Z" fill="black"/>
</mask>
<g mask="url(#mask0)">
<rect x="6" width="20" height="14" fill="#FEBF10"/>
</g>
</g>
<defs>
<clipPath id="clip0">
<rect width="32" height="32" fill="white"/>
</clipPath>
</defs>
</svg>
