<svg width="13" height="9" viewBox="0 0 13 9" fill="none" xmlns="http://www.w3.org/2000/svg">
<path fill-rule="evenodd" clip-rule="evenodd" d="M10.592 0.319C11.3113 0.3595 11.6645 0.466 11.99 1.045C12.329 1.62325 12.5 2.61925 12.5 4.3735V4.37575V4.3795C12.5 6.1255 12.329 7.129 11.9908 7.70125C11.6652 8.28025 11.312 8.38525 10.5927 8.434C9.8735 8.47525 8.06675 8.5 6.5015 8.5C4.93325 8.5 3.12575 8.47525 2.40725 8.43325C1.6895 8.3845 1.33625 8.2795 1.00775 7.7005C0.6725 7.12825 0.5 6.12475 0.5 4.37875V4.37275C0.5 2.61925 0.6725 1.62325 1.00775 1.045C1.33625 0.46525 1.69025 0.3595 2.408 0.31825C3.12575 0.27025 4.93325 0.25 6.5015 0.25C8.06675 0.25 9.8735 0.27025 10.592 0.319ZM8.75 4.375L5 2.125V6.625L8.75 4.375Z" fill="white" fill-opacity="0.6"/>
</svg>
