<svg width="32" height="32" viewBox="0 0 32 32" fill="none" xmlns="http://www.w3.org/2000/svg">
<g clip-path="url(#clip0)">
<path d="M29.5839 0.536812L29.5839 0.53681C27.0602 0.398938 22.144 0.536311 17.4577 2.96017C15.0795 4.19031 12.5424 6.28994 10.513 8.72289C10.4984 8.74038 10.4872 8.75402 10.4748 8.76927C10.4646 8.78173 10.4536 8.79526 10.439 8.81283L10.3038 8.97653L10.0921 8.99288L5.40586 9.35488C5.40585 9.35488 5.40585 9.35488 5.40584 9.35488C4.78825 9.40263 4.24089 9.72474 3.89934 10.2413L0.702226 15.0771L0.70222 15.0771C0.47262 15.4243 0.436312 15.8566 0.604697 16.2372L29.5839 0.536812ZM29.5839 0.536812C30.6004 0.592288 31.4078 1.39973 31.4633 2.41609C31.6009 4.93962 31.4638 9.85594 29.0398 14.5423C27.8098 16.9206 25.7101 19.4577 23.2771 21.4872C23.2448 21.514 23.2271 21.528 23.1871 21.5611L23.0234 21.6963L23.007 21.908L22.645 26.5942L22.645 26.5943C22.5974 27.2118 22.2753 27.7591 21.7587 28.1007C21.7587 28.1007 21.7587 28.1007 21.7587 28.1007L16.9229 31.2979L16.9229 31.2979M29.5839 0.536812L16.9229 31.2979M5.9841 17.6357L5.89241 18.1406L5.89015 18.153C5.87686 18.2262 5.86434 18.2951 5.85288 18.3638L5.85286 18.3639C5.74829 18.9894 5.95556 19.6357 6.41017 20.0903L6.4102 20.0903L11.9097 25.5899C12.2864 25.9665 12.7952 26.1738 13.315 26.1738C13.4218 26.1738 13.5292 26.165 13.6363 26.1471L13.6363 26.1471C13.7048 26.1357 13.7736 26.1232 13.8467 26.1099L13.8595 26.1076L14.3644 26.0159L14.4429 26.523L15.0544 30.4713C15.1182 30.8827 15.3821 31.227 15.7627 31.3954L15.5772 31.8146L15.7627 31.3954C15.9219 31.4658 16.0891 31.5001 16.2548 31.5001L5.9841 17.6357ZM5.9841 17.6357L5.47698 17.5571M5.9841 17.6357L5.47698 17.5571M5.47698 17.5571L1.52882 16.9456C1.11747 16.8819 0.77318 16.618 0.604708 16.2373L5.47698 17.5571ZM16.9229 31.2979C16.7195 31.4324 16.4877 31.5001 16.2549 31.5001L16.9229 31.2979ZM22.3965 20.4312L22.7167 20.8151C21.1706 22.1047 19.6664 23.0403 18.2758 23.7188L17.9553 23.8752L17.703 23.623L8.37671 14.2967L8.12412 14.0441L8.2812 13.7232C9.16914 11.9097 10.2508 10.4032 11.1849 9.2834C13.1306 6.95071 15.5576 4.92806 17.8598 3.73732C22.378 1.40026 27.1219 1.27898 29.5363 1.41042L29.5363 1.41042C30.1053 1.44143 30.5586 1.89483 30.5897 2.46385M22.3965 20.4312L22.7167 20.8151C25.0494 18.8694 27.072 16.4424 28.2627 14.1403C30.5997 9.62209 30.7213 4.87832 30.5897 2.46385M22.3965 20.4312C20.8819 21.6945 19.4117 22.6082 18.0566 23.2694L27.8186 13.9106C26.6636 16.1436 24.6873 18.5202 22.3965 20.4312ZM30.5897 2.46385L30.0904 2.49105L30.5896 2.46384C30.5896 2.46384 30.5897 2.46385 30.5897 2.46385ZM16.6505 30.4291L21.2761 27.3708C21.5641 27.1804 21.7462 26.871 21.7728 26.5267L22.0086 23.4739L22.0879 22.4469L21.2319 23.0199C19.428 24.2275 17.5399 25.1252 15.6377 25.6845L15.2176 25.808L15.2846 26.2407L15.8806 30.0885L16 30.8592L16.6505 30.4291ZM7.02876 19.4715L7.02884 19.4716L12.5284 24.9712C12.779 25.2218 13.1367 25.3432 13.4914 25.2842L13.4919 25.2841C14.3064 25.148 15.2786 24.9158 16.3614 24.5279L17.1045 24.2617L16.5464 23.7036L8.29463 15.4519L7.73681 14.894L7.47044 15.6366C7.1469 16.5386 6.88477 17.4981 6.71588 18.508C6.6564 18.8631 6.7785 19.2212 7.02876 19.4715ZM8.98001 10.7681L9.55303 9.91214L8.52601 9.99148L5.4733 10.2273C5.1291 10.2538 4.8197 10.4359 4.62925 10.7239L5.04633 10.9997L4.62925 10.7239L1.57087 15.3497L1.14078 16.0002L1.91143 16.1195L5.75918 16.7155L6.19188 16.7825L6.3154 16.3624C6.8747 14.4602 7.77242 12.5721 8.98001 10.7681Z" fill="#1C1B18" stroke="#121331"/>
<path d="M19.5774 12.4224L19.5774 12.4224C18.9525 11.7974 18.6072 10.964 18.6072 10.0802C18.6072 9.19636 18.9526 8.36289 19.5775 7.73796C20.2236 7.09178 21.0728 6.76905 21.9197 6.76905C22.7666 6.76905 23.6158 7.09177 24.2619 7.73794L19.5774 12.4224ZM19.5774 12.4224C20.8692 13.7141 22.9701 13.7142 24.2619 12.4224L19.5774 12.4224ZM24.8807 13.041L24.8807 13.0411C24.0649 13.8569 22.9932 14.2652 21.9197 14.2653C20.846 14.2654 19.775 13.8571 18.9589 13.0411C18.1674 12.2495 17.7324 11.1996 17.7324 10.0802C17.7324 8.96078 18.1673 7.91084 18.9589 7.1193L18.9589 7.11929C20.5912 5.48698 23.2483 5.48688 24.8807 7.11929L24.8807 7.11929C25.6722 7.91083 26.1071 8.96078 26.1071 10.0802C26.1071 11.1996 25.6723 12.2495 24.8807 13.041ZM25.232 10.0801C25.232 9.19634 24.8869 8.36292 24.2619 7.73796L24.2619 12.4223C24.8869 11.7974 25.232 10.9639 25.232 10.0801Z" fill="#FEBF10" stroke="#FEBF10"/>
<path d="M4.3271 22.0637L4.32713 22.0637C4.498 22.2346 4.498 22.5115 4.32713 22.6824L1.26632 25.7432L1.2662 25.7433C1.18082 25.8288 1.06981 25.8714 0.957 25.8714C0.844272 25.8714 0.733197 25.8288 0.647739 25.7433L0.647679 25.7432C0.476815 25.5724 0.476815 25.2954 0.647679 25.1245L0.647682 25.1245L3.70843 22.0637C3.70843 22.0637 3.70843 22.0637 3.70843 22.0637C3.87931 21.8928 4.15633 21.8929 4.3271 22.0637Z" fill="#FEBF10" stroke="#FEBF10"/>
<path d="M7.13148 24.8684L7.13145 24.8684C6.96067 24.6975 6.68365 24.6975 6.51277 24.8684M7.13148 24.8684H6.51277M7.13148 24.8684C7.30234 25.0392 7.30234 25.3162 7.13145 25.4871L7.13141 25.4871L1.24679 31.3717L1.24667 31.3718C1.16129 31.4573 1.05027 31.4999 0.937469 31.4999C0.824707 31.4999 0.713669 31.4573 0.628147 31.3718C0.457284 31.2009 0.457284 30.9239 0.628147 30.7531L0.274594 30.3995M7.13148 24.8684L0.274594 30.3995M6.51277 24.8684L0.628149 30.7531L0.274594 30.3995M6.51277 24.8684L0.274594 30.3995" fill="#FEBF10" stroke="#FEBF10"/>
<path d="M9.31786 27.6736L9.31789 27.6735C9.48868 27.5027 9.76568 27.5027 9.93647 27.6735L9.9365 27.6736C10.1074 27.8444 10.1074 28.1214 9.9365 28.2923L6.87569 31.3531L6.87557 31.3532C6.7902 31.4386 6.67913 31.4813 6.56637 31.4813C6.45375 31.4813 6.34262 31.4387 6.25705 31.3531C6.08619 31.1822 6.08619 30.9052 6.25705 30.7344L9.31786 27.6736Z" fill="#FEBF10" stroke="#FEBF10"/>
</g>
<defs>
<clipPath id="clip0">
<rect width="32" height="32" fill="white"/>
</clipPath>
</defs>
</svg>
