<svg width="350" height="525" viewBox="0 0 350 525" fill="none" xmlns="http://www.w3.org/2000/svg">
<g clip-path="url(#clip0_2455:21821)">
<path d="M61.7617 215.245C61.7617 221.822 56.3282 227.265 49.7628 227.265C43.1973 227.265 37.7639 221.822 37.7639 215.245C37.7639 208.668 43.1973 203.226 49.7628 203.226C56.5546 203.226 61.7617 208.442 61.7617 215.245Z" fill="#FEBF10"/>
<path d="M81.6484 248.187C81.6484 254.764 76.2149 260.207 69.6495 260.207C63.084 260.207 57.6505 254.764 57.6505 248.187C57.6505 241.611 63.084 236.168 69.6495 236.168C76.4413 236.168 81.6484 241.384 81.6484 248.187Z" fill="#FEC72F"/>
<path d="M219.965 366.271C219.965 372.848 214.531 378.291 207.966 378.291C201.4 378.291 195.967 372.848 195.967 366.271C195.967 359.695 201.4 354.252 207.966 354.252C214.758 354.252 219.965 359.468 219.965 366.271Z" fill="#FEC72F"/>
<path d="M174.77 311.371C174.77 314.546 172.279 317.041 169.11 317.041C165.94 317.041 163.45 314.546 163.45 311.371C163.45 308.197 165.94 305.702 169.11 305.702C172.279 305.929 174.77 308.423 174.77 311.371Z" fill="#1C1B18" fill-opacity="0.05"/>
<path d="M76.2891 427.484C76.2891 434.287 70.8556 439.73 64.0637 439.73C57.2719 439.73 51.8384 434.287 51.8384 427.484C51.8384 420.68 57.2719 415.237 64.0637 415.237C70.8556 415.237 76.2891 420.68 76.2891 427.484Z" fill="#1C1B18" fill-opacity="0.2"/>
<path d="M20.5938 224.06C20.5938 229.957 15.8395 234.719 9.95319 234.719C4.06691 234.719 -0.687378 229.957 -0.687377 224.06C-0.687376 218.164 4.06691 213.402 9.95319 213.402C15.8395 213.402 20.5938 218.164 20.5938 224.06Z" fill="#FEBF10"/>
<path d="M321.246 265.562C321.246 272.365 315.813 277.581 309.247 277.581C302.455 277.581 297.248 272.138 297.248 265.562C297.248 258.758 302.682 253.542 309.247 253.542C315.813 253.315 321.246 258.758 321.246 265.562Z" fill="#FEBF10"/>
<path d="M250.84 294.136C250.84 300.033 246.086 305.022 239.973 305.022C234.087 305.022 229.106 300.259 229.106 294.136C229.106 288.24 233.86 283.251 239.973 283.251C245.859 283.477 250.84 288.24 250.84 294.136Z" fill="#1C1B18" fill-opacity="0.1"/>
<path d="M209.41 318.175C203.534 318.175 198.77 322.947 198.77 328.834C198.77 334.72 203.534 339.492 209.41 339.492C215.287 339.492 220.051 334.72 220.051 328.834C220.051 322.947 215.287 318.175 209.41 318.175Z" fill="#FEBF10"/>
<path d="M79.0039 403.672C79.0039 406.62 76.5135 409.114 73.5704 409.114C70.6273 409.114 68.1369 406.62 68.1369 403.672C68.1369 400.724 70.6273 398.229 73.5704 398.229C76.5136 398.229 79.0039 400.497 79.0039 403.672Z" fill="#1C1B18" fill-opacity="0.05"/>
<path d="M22.6328 338.585C22.6328 341.533 20.3689 343.801 17.4257 343.801C14.4826 343.801 12.2186 341.533 12.2186 338.585C12.2186 335.637 14.4826 333.369 17.4257 333.369C20.3689 333.369 22.6328 335.864 22.6328 338.585Z" fill="#1C1B18" fill-opacity="0.05"/>
<path d="M84.6641 248.553C84.6641 255.583 79.0042 261.026 72.2123 261.026C65.194 261.026 59.7605 255.356 59.7605 248.553C59.7605 241.523 65.4204 236.08 72.2123 236.08C79.0042 236.08 84.6641 241.523 84.6641 248.553Z" fill="#1C1B18" fill-opacity="0.05"/>
<path d="M140.586 240.842C140.586 243.79 138.322 246.058 135.379 246.058C132.436 246.058 130.172 243.79 130.172 240.842C130.172 237.894 132.436 235.626 135.379 235.626C138.322 235.853 140.586 238.121 140.586 240.842Z" fill="#FEBF10"/>
<path d="M28.293 286.652C28.293 293.002 23.0859 298.218 16.7468 298.218C10.4078 298.218 5.20065 293.002 5.20065 286.652C5.20065 280.302 10.4078 275.086 16.7468 275.086C23.0859 275.086 28.293 280.302 28.293 286.652Z" fill="#FEBF10"/>
<path d="M55.0078 328.834C55.0078 336.091 49.1215 341.987 41.8769 341.987C34.6322 341.987 28.746 336.091 28.746 328.834C28.746 321.577 34.6322 315.68 41.8769 315.68C49.1215 315.68 55.0078 321.577 55.0078 328.834Z" fill="#1C1B18" fill-opacity="0.1"/>
<path d="M35.9883 155.346C35.9883 158.521 33.2715 161.242 30.102 161.242C26.9324 161.242 24.2157 158.521 24.2157 155.346C24.2157 152.171 26.9324 149.449 30.102 149.449C33.4979 149.676 35.9883 152.171 35.9883 155.346Z" fill="#1C1B18" fill-opacity="0.2"/>
<path d="M101.418 429.752C101.418 436.101 96.2109 441.317 89.8718 441.317C83.5328 441.317 78.3257 436.101 78.3257 429.752C78.3257 423.402 83.5328 418.186 89.8718 418.186C96.2109 418.186 101.418 423.402 101.418 429.752Z" fill="#FFE396"/>
<path d="M99.832 219.978C99.832 225.648 95.0777 230.41 89.4178 230.41C83.7579 230.41 79.0036 225.648 79.0036 219.978C79.0036 214.309 83.7579 209.546 89.4178 209.546C95.0777 209.773 99.832 214.309 99.832 219.978Z" fill="#FEBF10"/>
<path d="M124.512 376.458C124.512 382.808 119.305 388.024 112.966 388.024C106.626 388.024 101.419 382.808 101.419 376.458C101.419 370.108 106.626 364.892 112.966 364.892C119.305 364.892 124.512 370.108 124.512 376.458Z" fill="#1C1B18" fill-opacity="0.1"/>
<path d="M43.4609 133.574C43.4609 139.244 38.7066 144.006 33.0467 144.006C27.3868 144.006 22.6325 139.244 22.6325 133.574C22.6325 127.905 27.3868 123.142 33.0467 123.142C38.7066 123.142 43.4609 127.905 43.4609 133.574Z" fill="#FEC72F"/>
<path d="M305.398 301.393C305.398 304.341 302.908 306.836 299.965 306.836C297.022 306.836 294.531 304.341 294.531 301.393C294.531 298.445 297.022 295.95 299.965 295.95C302.908 295.95 305.398 298.445 305.398 301.393Z" fill="#1C1B18" fill-opacity="0.1"/>
<path d="M314.91 172.808C314.91 179.611 309.477 185.054 302.685 185.054C295.893 185.054 290.459 179.611 290.459 172.808C290.459 166.004 295.893 160.562 302.685 160.562C309.25 160.562 314.91 166.004 314.91 172.808Z" fill="#FEBF10"/>
<path d="M216.426 299.125C216.426 302.3 213.709 305.022 210.54 305.022C207.37 305.022 204.653 302.3 204.653 299.125C204.653 295.95 207.37 293.229 210.54 293.229C213.935 293.456 216.426 295.95 216.426 299.125Z" fill="#1C1B18" fill-opacity="0.2"/>
<path d="M70.6289 304.341C70.6289 307.289 68.1385 309.784 65.1954 309.784C62.0259 309.784 59.7619 307.289 59.7619 304.341C59.7619 301.393 62.2522 298.898 65.1954 298.898C68.1385 298.898 70.6289 301.393 70.6289 304.341Z" fill="#1C1B18" fill-opacity="0.2"/>
<path d="M67.9102 341.987C67.9102 344.935 65.6462 347.203 62.7031 347.203C59.76 347.203 57.496 344.935 57.496 341.987C57.496 339.039 59.76 336.771 62.7031 336.771C65.6462 336.771 67.9102 339.039 67.9102 341.987Z" fill="#1C1B18" fill-opacity="0.3"/>
<path d="M150.094 303.207C150.094 309.33 145.113 314.32 139 314.32C132.888 314.32 127.907 309.33 127.907 303.207C127.907 297.084 132.888 292.095 139 292.095C145.113 292.095 150.094 297.084 150.094 303.207Z" fill="#FEBF10" fill-opacity="0.8"/>
<path d="M106.852 334.73C106.852 341.307 101.418 346.749 94.8526 346.749C88.2871 346.749 82.8536 341.307 82.8536 334.73C82.8536 328.153 88.2871 322.711 94.8526 322.711C101.644 322.711 106.852 327.927 106.852 334.73Z" fill="#FEBF10" fill-opacity="0.5"/>
<path d="M243.594 229.957C243.594 237.214 237.707 243.11 230.463 243.11C223.218 243.11 217.332 237.214 217.332 229.957C217.332 222.7 223.218 216.804 230.463 216.804C237.707 216.804 243.594 222.7 243.594 229.957Z" fill="#FEBF10" fill-opacity="0.5"/>
<path d="M204.426 203.197C204.426 209.093 199.671 213.629 194.012 213.629C188.125 213.629 183.597 208.866 183.597 203.197C183.597 197.3 188.352 192.765 194.012 192.765C199.671 192.765 204.426 197.3 204.426 203.197Z" fill="#FEBF10"/>
<path d="M291.59 249.687C291.59 256.49 285.93 262.16 279.138 262.16C272.346 262.16 266.686 256.49 266.686 249.687C266.686 242.883 272.346 237.214 279.138 237.214C285.93 237.214 291.59 242.883 291.59 249.687Z" fill="#1C1B18" fill-opacity="0.3"/>
<path d="M283.215 297.084C283.215 302.754 278.687 307.289 273.027 307.289C267.367 307.289 262.839 302.754 262.839 297.084C262.839 291.415 267.367 286.879 273.027 286.879C278.687 286.879 283.215 291.415 283.215 297.084Z" fill="#FEC72F"/>
<path d="M170.696 209.546C167.445 209.546 164.809 212.186 164.809 215.443C164.809 218.699 167.445 221.339 170.696 221.339C173.947 221.339 176.582 218.699 176.582 215.443C176.582 212.186 173.947 209.546 170.696 209.546Z" fill="#1C1B18" fill-opacity="0.2"/>
<path d="M17.4258 127.905C17.4258 134.255 12.4451 139.244 6.106 139.244C-0.233072 139.244 -5.21378 134.255 -5.21377 127.905C-5.21377 121.555 -0.23307 116.566 6.106 116.566C12.4451 116.566 17.4258 121.555 17.4258 127.905Z" fill="#1C1B18" fill-opacity="0.3"/>
<path d="M213.938 233.132C213.938 238.801 209.183 243.564 203.523 243.564C197.863 243.564 193.109 238.801 193.109 233.132C193.109 227.462 197.863 222.7 203.523 222.7C209.183 222.7 213.938 227.462 213.938 233.132Z" fill="#1C1B18" fill-opacity="0.05"/>
<path d="M119.98 241.069C119.98 243.791 117.717 246.285 114.773 246.285C111.83 246.285 109.566 244.017 109.566 241.069C109.566 238.121 111.83 235.853 114.773 235.853C117.49 235.853 119.98 238.121 119.98 241.069Z" fill="#1C1B18" fill-opacity="0.1"/>
<path d="M217.332 366.026C217.332 373.056 211.672 378.726 204.654 378.726C197.636 378.726 191.976 373.056 191.976 366.026C191.976 358.996 197.636 353.326 204.654 353.326C211.672 353.326 217.332 358.996 217.332 366.026Z" fill="#1C1B18" fill-opacity="0.05"/>
<path d="M15.8398 319.536C15.8398 327.02 9.72718 332.916 2.48253 332.916C-4.98852 332.916 -10.8748 326.793 -10.8748 319.536C-10.8748 312.052 -4.76212 306.156 2.48253 306.156C9.95358 306.156 15.8398 312.279 15.8398 319.536Z" fill="#1C1B18" fill-opacity="0.2"/>
<path d="M107.305 410.022C107.305 413.196 104.814 415.691 101.645 415.691C98.4753 415.691 95.9849 413.196 95.9849 410.022C95.9849 406.847 98.4753 404.352 101.645 404.352C104.814 404.352 107.305 407.073 107.305 410.022Z" fill="#FFE396"/>
<path d="M158.242 229.276C158.242 232.225 155.752 234.719 152.809 234.719C149.866 234.719 147.375 232.225 147.375 229.276C147.375 226.328 149.866 223.834 152.809 223.834C155.752 223.834 158.242 226.328 158.242 229.276Z" fill="#1C1B18" fill-opacity="0.05"/>
<path d="M91.9102 153.078C91.9102 159.655 86.7031 164.871 80.1376 164.871C73.5721 164.871 68.365 159.655 68.365 153.078C68.365 146.501 73.5721 141.285 80.1376 141.285C86.4767 141.285 91.9102 146.501 91.9102 153.078Z" fill="#1C1B18" fill-opacity="0.05"/>
<path d="M279.363 201.836C279.363 207.959 274.383 212.948 268.27 212.948C262.157 212.948 257.177 207.959 257.177 201.836C257.177 195.713 262.157 190.724 268.27 190.724C274.383 190.724 279.363 195.713 279.363 201.836Z" fill="#FEC72F"/>
<path d="M309.477 215.896C309.477 221.793 304.722 226.555 298.836 226.555C292.95 226.555 288.195 221.793 288.195 215.896C288.195 210 292.95 205.238 298.836 205.238C304.722 205.238 309.477 210 309.477 215.896Z" fill="#FEBF10"/>
<path d="M54.3281 300.713C54.3281 307.289 49.121 312.505 42.5556 312.505C35.9901 312.505 30.7831 307.289 30.7831 300.713C30.7831 294.136 35.9901 288.92 42.5556 288.92C49.121 288.92 54.3281 294.136 54.3281 300.713Z" fill="#1C1B18" fill-opacity="0.1"/>
<path d="M273.027 329.741C273.027 336.771 267.367 342.667 260.123 342.667C253.105 342.667 247.218 336.998 247.218 329.741C247.218 322.711 252.878 316.814 260.123 316.814C267.367 316.814 273.027 322.484 273.027 329.741Z" fill="#FEBF10"/>
<path d="M113.418 302.754C113.418 308.423 108.89 312.959 103.23 312.959C97.5703 312.959 93.0424 308.423 93.0424 302.754C93.0424 297.084 97.5703 292.549 103.23 292.549C108.89 292.549 113.418 297.084 113.418 302.754Z" fill="#FEC72F"/>
<path d="M10.1797 244.244C10.1797 246.965 7.91575 249.46 4.9726 249.46C2.02944 249.46 -0.234528 247.192 -0.234528 244.244C-0.234528 241.296 2.02944 239.028 4.9726 239.028C7.91575 239.255 10.1797 241.523 10.1797 244.244Z" fill="#1C1B18" fill-opacity="0.05"/>
<path d="M201.258 308.65C201.258 314.32 196.73 318.855 191.07 318.855C185.41 318.855 180.882 314.32 180.882 308.65C180.882 302.981 185.41 298.445 191.07 298.445C196.73 298.445 201.258 302.981 201.258 308.65Z" fill="#FEBF10"/>
<path d="M13.1248 160.562C7.37324 160.562 2.71066 165.232 2.71066 170.994C2.71066 176.755 7.37324 181.426 13.1248 181.426C18.8765 181.426 23.5391 176.755 23.5391 170.994C23.5391 165.232 18.8765 160.562 13.1248 160.562Z" fill="#FEBF10"/>
<path d="M285.477 184.374C285.477 187.095 283.213 189.59 280.269 189.59C277.326 189.59 275.062 187.322 275.062 184.374C275.062 181.425 277.326 179.158 280.269 179.158C283.213 179.158 285.477 181.425 285.477 184.374Z" fill="#1C1B18" fill-opacity="0.2"/>
<path d="M265.555 271.911C265.555 277.581 261.027 282.117 255.367 282.117C249.707 282.117 245.179 277.581 245.179 271.911C245.179 266.242 249.707 261.706 255.367 261.706C261.027 261.706 265.555 266.242 265.555 271.911Z" fill="#1C1B18" fill-opacity="0.2"/>
<path d="M200.805 277.354C200.805 283.024 196.277 287.56 190.617 287.56C184.957 287.56 180.429 283.024 180.429 277.354C180.429 271.685 184.957 267.149 190.617 267.149C196.277 267.149 200.805 271.685 200.805 277.354Z" fill="#1C1B18" fill-opacity="0.1"/>
<path d="M86.9297 362.624C86.9297 365.572 84.6657 367.84 81.7226 367.84C78.7794 367.84 76.5155 365.572 76.5155 362.624C76.5155 359.676 78.7794 357.408 81.7226 357.408C84.4393 357.408 86.9297 359.903 86.9297 362.624Z" fill="#1C1B18" fill-opacity="0.05"/>
<path d="M132.887 282.117C132.887 287.786 128.359 292.322 122.699 292.322C117.039 292.322 112.511 287.786 112.511 282.117C112.511 276.447 117.039 271.911 122.699 271.911C128.359 271.911 132.887 276.447 132.887 282.117Z" fill="#1C1B18" fill-opacity="0.3"/>
<path d="M189.258 242.203C189.258 247.873 184.504 252.635 178.844 252.635C173.184 252.635 168.429 247.873 168.429 242.203C168.429 236.534 173.184 231.771 178.844 231.771C184.504 231.771 189.258 236.534 189.258 242.203Z" fill="#FEBF10"/>
<path d="M86.0234 127.905C86.0234 130.853 83.5331 133.348 80.5899 133.348C77.6468 133.348 75.1564 130.853 75.1564 127.905C75.1564 124.957 77.6468 122.462 80.5899 122.462C83.5331 122.462 86.0234 124.957 86.0234 127.905Z" fill="#FEBF10"/>
<path d="M151 199.568C151 205.238 146.472 210 140.586 210C134.926 210 130.172 205.464 130.172 199.568C130.172 193.898 134.7 189.136 140.586 189.136C146.246 189.363 151 193.898 151 199.568Z" fill="#FFE396"/>
<path d="M174.543 267.149C174.543 273.499 169.336 278.715 162.997 278.715C156.658 278.715 151.451 273.499 151.451 267.149C151.451 260.799 156.658 255.583 162.997 255.583C169.336 255.583 174.543 260.799 174.543 267.149Z" fill="#1C1B18" fill-opacity="0.2"/>
<path d="M93.4922 187.775C93.4922 193.445 88.9643 197.981 83.3044 197.981C77.6445 197.981 73.1166 193.445 73.1166 187.775C73.1166 182.106 77.6445 177.57 83.3044 177.57C88.9643 177.343 93.4922 182.106 93.4922 187.775Z" fill="#1C1B18" fill-opacity="0.2"/>
<path d="M55.4609 177.343C55.4609 183.24 50.7066 188.002 44.8204 188.002C38.9341 188.002 34.1798 183.24 34.1798 177.343C34.1798 171.447 38.9341 166.685 44.8204 166.685C50.933 166.911 55.4609 171.674 55.4609 177.343Z" fill="#FEBF10" fill-opacity="0.3"/>
<path d="M72.8906 44.9028C72.8906 50.7992 68.1363 55.5616 62.25 55.5616C56.3638 55.5616 51.6094 50.7992 51.6094 44.9028C51.6094 39.0065 56.3638 34.2441 62.25 34.2441C68.1363 34.2441 72.8906 39.0065 72.8906 44.9028Z" fill="#FEBF10"/>
<path d="M348.414 238.801C348.414 244.698 343.66 249.233 338 249.233C332.114 249.233 327.586 244.471 327.586 238.801C327.586 232.905 332.34 228.369 338 228.369C343.66 228.369 348.414 233.132 348.414 238.801Z" fill="#FEBF10"/>
<path d="M63.8359 396.868C63.8359 402.538 59.308 407.074 53.6481 407.074C47.9882 407.074 43.4603 402.538 43.4603 396.868C43.4603 391.199 47.9882 386.663 53.6481 386.663C59.0816 386.663 63.8359 391.199 63.8359 396.868Z" fill="#FEC72F"/>
<path d="M165.941 387.343C165.941 393.013 161.413 397.549 155.754 397.549C150.094 397.549 145.566 393.013 145.566 387.343C145.566 381.674 150.094 377.138 155.754 377.138C161.413 377.138 165.941 381.674 165.941 387.343Z" fill="#1C1B18" fill-opacity="0.2"/>
<path d="M350 290.961C350 297.311 344.793 302.754 338.227 302.754C331.888 302.754 326.455 297.538 326.455 290.961C326.455 284.611 331.662 279.168 338.227 279.168C344.793 279.395 350 284.611 350 290.961Z" fill="#FEC72F"/>
<path d="M237.707 201.836C237.707 207.732 232.953 212.721 226.84 212.721C220.954 212.721 215.973 207.959 215.973 201.836C215.973 195.94 220.727 190.95 226.84 190.95C232.953 190.95 237.707 195.713 237.707 201.836Z" fill="#1C1B18" fill-opacity="0.2"/>
<path d="M49.5742 236.307C49.5742 239.028 47.3102 241.523 44.3671 241.523C41.6503 241.523 39.16 239.255 39.16 236.307C39.16 233.359 41.4239 231.091 44.3671 231.091C47.3102 231.091 49.5742 233.359 49.5742 236.307Z" fill="#1C1B18" fill-opacity="0.05"/>
<path d="M345.699 170.086C345.699 175.983 340.945 180.745 335.059 180.745C329.172 180.745 324.418 175.983 324.418 170.086C324.418 164.19 329.172 159.428 335.059 159.428C340.719 159.201 345.699 164.19 345.699 170.086Z" fill="#FEBF10"/>
<path d="M326.68 187.322C326.68 190.497 324.189 192.992 321.02 192.992C317.85 192.992 315.36 190.497 315.36 187.322C315.36 184.147 317.85 181.652 321.02 181.652C324.189 181.652 326.68 184.147 326.68 187.322Z" fill="#1C1B18" fill-opacity="0.1"/>
<path d="M2.25781 296.404C2.25781 299.125 -0.00611782 301.62 -2.94926 301.62C-5.89241 301.62 -8.15637 299.352 -8.15637 296.404C-8.15637 293.456 -5.89241 291.188 -2.94926 291.188C-0.00611693 291.415 2.25781 293.683 2.25781 296.404Z" fill="#1C1B18" fill-opacity="0.1"/>
<path d="M131.98 216.35C131.98 224.06 125.641 230.41 117.944 230.41C110.246 230.41 103.907 224.06 103.907 216.35C103.907 208.639 110.246 202.289 117.944 202.289C125.868 202.289 131.98 208.639 131.98 216.35Z" fill="#1C1B18" fill-opacity="0.1"/>
<path d="M5.65234 186.188C5.65234 191.857 0.898054 196.62 -4.76184 196.62C-10.4217 196.62 -15.1761 191.857 -15.1761 186.188C-15.1761 180.518 -10.4217 175.756 -4.76184 175.756C0.898056 175.756 5.65235 180.518 5.65234 186.188Z" fill="#1C1B18" fill-opacity="0.1"/>
<path d="M77.6445 278.035C77.6445 283.704 73.1166 288.24 67.4567 288.24C61.7968 288.24 57.2689 283.704 57.2689 278.035C57.2689 272.365 61.7968 267.829 67.4567 267.829C73.1166 267.829 77.6445 272.365 77.6445 278.035Z" fill="#FEBF10" fill-opacity="0.8"/>
<path d="M36.668 247.873C36.668 253.769 31.9137 258.758 25.801 258.758C19.9147 258.758 14.934 253.996 14.934 247.873C14.934 241.976 19.6883 236.987 25.801 236.987C31.9137 237.214 36.668 241.976 36.668 247.873Z" fill="#1C1B18" fill-opacity="0.3"/>
<path d="M132.887 190.27C132.887 194.125 129.717 197.073 126.095 197.073C122.473 197.073 119.303 193.898 119.303 190.27C119.303 186.415 122.473 183.467 126.095 183.467C129.717 183.467 132.887 186.642 132.887 190.27Z" fill="#1C1B18" fill-opacity="0.1"/>
<path d="M143.301 372.376C143.301 376.231 140.131 379.179 136.509 379.179C132.66 379.179 129.717 376.004 129.717 372.376C129.717 368.521 132.887 365.572 136.509 365.572C140.131 365.572 143.301 368.521 143.301 372.376Z" fill="#1C1B18" fill-opacity="0.05"/>
<path d="M67.9102 170.767C67.9102 174.622 64.7406 177.57 61.1183 177.57C57.4959 177.57 54.3264 174.395 54.3264 170.767C54.3264 166.911 57.4959 163.963 61.1183 163.963C64.7406 163.963 67.9102 166.911 67.9102 170.767Z" fill="#1C1B18" fill-opacity="0.3"/>
<path d="M300.418 199.114C300.418 202.97 297.248 205.918 293.626 205.918C290.004 205.918 286.834 202.743 286.834 199.114C286.834 195.259 290.004 192.311 293.626 192.311C297.248 192.311 300.418 195.486 300.418 199.114Z" fill="#1C1B18" fill-opacity="0.05"/>
<path d="M183.145 286.879C183.145 290.734 179.975 293.682 176.353 293.682C172.504 293.682 169.561 290.507 169.561 286.879C169.561 283.25 172.73 280.075 176.353 280.075C179.975 279.849 183.145 283.024 183.145 286.879Z" fill="#1C1B18" fill-opacity="0.05"/>
<path d="M131.527 358.769C131.527 362.851 128.131 366.026 124.283 366.026C120.208 366.026 117.038 362.624 117.038 358.769C117.038 354.687 120.434 351.512 124.283 351.512C128.131 351.512 131.527 354.687 131.527 358.769Z" fill="#1C1B18" fill-opacity="0.05"/>
<path d="M349.547 272.819C349.547 276.674 346.377 279.849 342.529 279.849C338.68 279.849 335.51 276.674 335.51 272.819C335.51 268.963 338.68 265.788 342.529 265.788C346.377 265.788 349.547 268.963 349.547 272.819Z" fill="#1C1B18" fill-opacity="0.05"/>
<path d="M257.629 308.196C257.629 312.052 254.459 315 250.837 315C247.215 315 244.045 311.825 244.045 308.196C244.045 304.568 247.215 301.393 250.837 301.393C254.459 301.393 257.629 304.341 257.629 308.196Z" fill="#1C1B18" fill-opacity="0.05"/>
<path d="M143.301 330.648C143.301 334.503 140.131 337.451 136.509 337.451C132.887 337.451 129.717 334.276 129.717 330.648C129.717 327.019 132.887 323.844 136.509 323.844C140.131 323.844 143.301 326.793 143.301 330.648Z" fill="#FEBF10"/>
<path d="M333.473 209.093C333.473 211.814 331.209 214.082 328.492 214.082C325.775 214.082 323.511 211.814 323.511 209.093C323.511 206.372 325.775 204.104 328.492 204.104C331.209 204.104 333.473 206.372 333.473 209.093Z" fill="#1C1B18" fill-opacity="0.05"/>
<path d="M177.262 195.486C177.262 199.795 173.866 203.197 169.564 203.197C165.263 203.197 161.867 199.795 161.867 195.486C161.867 191.177 165.263 187.775 169.564 187.775C173.866 187.775 177.262 191.177 177.262 195.486Z" fill="#1C1B18" fill-opacity="0.2"/>
<path d="M151.677 413.197C147.801 413.197 144.659 416.344 144.659 420.227C144.659 424.109 147.801 427.257 151.677 427.257C155.553 427.257 158.695 424.109 158.695 420.227C158.695 416.344 155.553 413.197 151.677 413.197Z" fill="#FEC72F"/>
<path d="M61.7969 136.523C61.7969 140.605 58.6274 143.78 54.5522 143.78C50.4771 143.78 47.3076 140.605 47.3076 136.523C47.3076 132.441 50.4771 129.266 54.5522 129.266C58.401 129.266 61.7969 132.441 61.7969 136.523Z" fill="#1C1B18" fill-opacity="0.2"/>
<path d="M44.8203 361.263C44.8203 365.572 41.4244 368.974 37.1229 368.974C32.8213 368.974 29.4254 365.572 29.4254 361.263C29.4254 356.955 32.8213 353.553 37.1229 353.553C41.4244 353.78 44.8203 357.181 44.8203 361.263Z" fill="#1C1B18" fill-opacity="0.05"/>
<path d="M315.137 317.268C315.137 321.123 311.967 324.071 308.345 324.071C304.496 324.071 301.553 320.896 301.553 317.268C301.553 313.639 304.723 310.464 308.345 310.464C311.967 310.464 315.137 313.413 315.137 317.268Z" fill="#1C1B18" fill-opacity="0.05"/>
<path d="M239.746 311.825C239.746 315.68 236.803 318.629 232.954 318.629C229.105 318.629 226.162 315.454 226.162 311.825C226.162 308.197 229.332 305.022 232.954 305.022C236.577 305.022 239.746 307.97 239.746 311.825Z" fill="#1C1B18" fill-opacity="0.05"/>
<path d="M330.758 308.197C330.758 313.412 326.683 317.495 321.476 317.495C316.268 317.495 312.193 313.412 312.193 308.197C312.193 302.981 316.268 298.898 321.476 298.898C326.683 298.898 330.758 302.981 330.758 308.197Z" fill="#1C1B18" fill-opacity="0.2"/>
<path d="M244.273 259.439C244.273 263.294 241.104 266.242 237.482 266.242C233.859 266.242 230.69 263.067 230.69 259.439C230.69 255.583 233.859 252.635 237.482 252.635C241.104 252.635 244.273 255.583 244.273 259.439Z" fill="#1C1B18" fill-opacity="0.05"/>
<path d="M104.359 355.821C104.359 359.676 101.19 362.624 97.5675 362.624C93.9452 362.624 90.7757 359.449 90.7757 355.821C90.7757 351.965 93.9452 349.017 97.5675 349.017C101.19 349.017 104.359 351.965 104.359 355.821Z" fill="#1C1B18" fill-opacity="0.1"/>
<path d="M35.9883 273.045C35.9883 276.901 32.8187 279.849 29.1964 279.849C25.3477 279.849 22.4045 276.674 22.4045 273.045C22.4045 269.417 25.5741 266.242 29.1964 266.242C32.8187 266.242 35.9883 269.19 35.9883 273.045Z" fill="#1C1B18" fill-opacity="0.05"/>
<path d="M19.4609 197.981C19.4609 201.836 16.2914 204.784 12.6691 204.784C8.82034 204.784 5.8772 201.609 5.8772 197.981C5.8772 194.125 9.04674 191.177 12.6691 191.177C16.5178 191.177 19.4609 194.352 19.4609 197.981Z" fill="#1C1B18" fill-opacity="0.2"/>
<path d="M332.793 277.354C332.793 281.21 329.623 284.158 326.001 284.158C322.379 284.158 319.209 280.983 319.209 277.354C319.209 273.726 322.379 270.551 326.001 270.551C329.623 270.551 332.793 273.499 332.793 277.354Z" fill="#1C1B18" fill-opacity="0.3"/>
<path d="M91.0021 161.696C86.5009 161.696 82.8519 165.351 82.8519 169.86C82.8519 174.369 86.5009 178.024 91.0021 178.024C95.5034 178.024 99.1523 174.369 99.1523 169.86C99.1523 165.351 95.5034 161.696 91.0021 161.696Z" fill="#1C1B18" fill-opacity="0.05"/>
<path d="M33.7266 315.907C33.7266 319.762 30.557 322.711 26.9347 322.711C23.086 322.711 20.1428 319.536 20.1428 315.907C20.1428 312.279 23.3124 309.104 26.9347 309.104C30.557 308.877 33.7266 312.052 33.7266 315.907Z" fill="#FEBF10"/>
<path d="M57.043 115.432C57.043 120.648 52.9678 124.73 47.7607 124.73C42.5536 124.73 38.4785 120.648 38.4785 115.432C38.4785 110.216 42.5536 106.134 47.7607 106.134C52.7414 106.361 57.043 110.443 57.043 115.432Z" fill="#1C1B18" fill-opacity="0.1"/>
<path d="M161.867 250.821C161.867 254.676 158.698 257.624 155.075 257.624C151.227 257.624 148.283 254.449 148.283 250.821C148.283 246.965 151.453 244.017 155.075 244.017C158.698 244.017 161.867 246.965 161.867 250.821Z" fill="#1C1B18" fill-opacity="0.05"/>
<path d="M84.6641 203.877C84.6641 207.732 81.4945 210.68 77.8722 210.68C74.2498 210.68 71.0803 207.505 71.0803 203.877C71.0803 200.022 74.2498 197.073 77.8722 197.073C81.4945 197.073 84.6641 200.022 84.6641 203.877Z" fill="#1C1B18" fill-opacity="0.1"/>
<path d="M302.457 283.477C302.457 287.786 299.061 291.188 294.76 291.188C290.458 291.188 287.062 287.786 287.062 283.477C287.062 279.169 290.458 275.767 294.76 275.767C298.835 275.54 302.457 279.169 302.457 283.477Z" fill="#1C1B18" fill-opacity="0.05"/>
<path d="M269.176 174.849C269.176 179.158 265.553 182.786 261.252 182.786C256.95 182.786 253.328 179.158 253.328 174.849C253.328 170.54 256.95 166.911 261.252 166.911C265.553 166.911 269.176 170.54 269.176 174.849Z" fill="#1C1B18" fill-opacity="0.05"/>
<path d="M82.1758 319.082C82.1758 322.937 79.0062 325.886 75.3839 325.886C71.7616 325.886 68.592 322.711 68.592 319.082C68.592 315.454 71.7616 312.279 75.3839 312.279C79.0062 312.279 82.1758 315.227 82.1758 319.082Z" fill="#1C1B18" fill-opacity="0.2"/>
<path d="M173.863 409.795C173.863 413.877 170.467 417.279 166.392 417.279C162.317 417.279 158.921 413.877 158.921 409.795C158.921 405.713 162.317 402.311 166.392 402.311C170.467 402.538 173.863 405.713 173.863 409.795Z" fill="#1C1B18" fill-opacity="0.2"/>
<path d="M191.523 347.203C191.523 351.058 188.354 354.007 184.732 354.007C180.883 354.007 177.94 350.832 177.94 347.203C177.94 343.348 181.109 340.4 184.732 340.4C188.354 340.4 191.523 343.348 191.523 347.203Z" fill="#1C1B18" fill-opacity="0.3"/>
<path d="M31.9141 117.246C31.9141 122.009 28.0653 125.864 23.311 125.864C18.5567 125.864 14.708 122.009 14.708 117.246C14.708 112.484 18.5567 108.629 23.311 108.629C27.8389 108.629 31.9141 112.484 31.9141 117.246Z" fill="#1C1B18" fill-opacity="0.1"/>
<path d="M33.2734 181.879C33.2734 185.734 30.1039 188.683 26.4816 188.683C22.6328 188.683 19.6897 185.508 19.6897 181.879C19.6897 178.024 22.8592 175.076 26.4816 175.076C30.3303 175.076 33.2734 178.251 33.2734 181.879Z" fill="#1C1B18" fill-opacity="0.1"/>
<path d="M209.86 270.777C206.109 270.777 203.069 273.823 203.069 277.581C203.069 281.338 206.109 284.384 209.86 284.384C213.612 284.384 216.652 281.338 216.652 277.581C216.652 273.823 213.612 270.777 209.86 270.777Z" fill="#FEBF10"/>
<path d="M74.25 373.963C74.25 377.819 71.0805 380.767 67.4581 380.767C63.6094 380.767 60.6663 377.819 60.6663 373.963C60.6663 370.108 63.8358 367.16 67.4581 367.16C71.0805 367.16 74.25 370.108 74.25 373.963Z" fill="#1C1B18" fill-opacity="0.3"/>
<path d="M17.6523 268.737C17.6523 272.819 14.4828 275.994 10.4077 275.994C6.33256 275.994 3.16303 272.819 3.16303 268.737C3.16303 264.654 6.33256 261.479 10.4077 261.479C14.4828 261.706 17.6523 264.881 17.6523 268.737Z" fill="#1C1B18" fill-opacity="0.05"/>
<path d="M297.477 239.708C297.477 242.203 295.439 244.244 292.949 244.244C290.458 244.244 288.421 242.203 288.421 239.708C288.421 237.214 290.458 235.173 292.949 235.173C295.439 235.173 297.477 237.214 297.477 239.708Z" fill="#1C1B18" fill-opacity="0.3"/>
<path d="M81.9492 229.05C81.9492 231.544 79.9117 233.585 77.4213 233.585C74.9309 233.585 72.8934 231.544 72.8934 229.05C72.8934 226.555 74.9309 224.514 77.4213 224.514C79.9117 224.287 81.9492 226.328 81.9492 229.05Z" fill="#1C1B18" fill-opacity="0.3"/>
<path d="M105.719 151.264C105.719 154.438 103.228 157.16 99.8325 157.16C96.6629 157.16 93.9462 154.665 93.9462 151.264C93.9462 148.089 96.4365 145.367 99.8325 145.367C103.002 145.594 105.719 148.089 105.719 151.264Z" fill="#FEBF10"/>
<path d="M37.3477 221.112C37.3477 224.741 34.4045 227.462 31.0086 227.462C27.3863 227.462 24.6695 224.514 24.6695 221.112C24.6695 217.484 27.6127 214.762 31.0086 214.762C34.6309 214.762 37.3477 217.484 37.3477 221.112Z" fill="#1C1B18" fill-opacity="0.05"/>
<path d="M71.9844 119.741C71.9844 122.689 69.494 125.184 66.5509 125.184C63.6078 125.184 61.1174 122.689 61.1174 119.741C61.1174 116.793 63.6078 114.298 66.5509 114.298C69.494 114.298 71.9844 116.566 71.9844 119.741Z" fill="#1C1B18" fill-opacity="0.05"/>
<path d="M40.5156 67.3542C40.5156 70.3024 38.0253 72.797 35.0821 72.797C32.139 72.797 29.6486 70.3024 29.6486 67.3542C29.6486 64.4061 32.139 61.9115 35.0821 61.9115C38.2516 61.9115 40.5156 64.4061 40.5156 67.3542Z" fill="#FEBF10"/>
<path d="M68.5898 74.3844C68.5898 77.3326 66.0995 79.8272 63.1564 79.8272C60.2132 79.8272 57.7229 77.3326 57.7229 74.3844C57.7229 71.4362 60.2132 68.9416 63.1564 68.9416C66.0995 68.9416 68.5898 71.2095 68.5898 74.3844Z" fill="#FEBF10"/>
<path d="M164.129 369.428C164.129 373.283 160.959 376.458 157.111 376.458C153.262 376.458 150.092 373.283 150.092 369.428C150.092 365.572 153.262 362.397 157.111 362.397C160.959 362.171 164.129 365.346 164.129 369.428Z" fill="#1C1B18" fill-opacity="0.3"/>
<path d="M93.7188 248.326C93.7188 250.821 91.6812 252.862 89.1908 252.862C86.7004 252.862 84.6629 250.821 84.6629 248.326C84.6629 245.832 86.7004 243.791 89.1908 243.791C91.6812 243.791 93.7188 245.832 93.7188 248.326Z" fill="#1C1B18" fill-opacity="0.05"/>
<path d="M55.4609 63.2721C55.4609 65.7667 53.4234 67.8077 50.933 67.8077C48.4427 67.8077 46.4052 65.7667 46.4052 63.2721C46.4052 60.7775 48.4427 58.7365 50.933 58.7365C53.4234 58.7365 55.4609 60.7775 55.4609 63.2721Z" fill="#1C1B18" fill-opacity="0.3"/>
<path d="M331.888 248.326C328.012 248.326 324.87 251.474 324.87 255.356C324.87 259.239 328.012 262.387 331.888 262.387C335.764 262.387 338.906 259.239 338.906 255.356C338.906 251.474 335.764 248.326 331.888 248.326Z" fill="#1C1B18" fill-opacity="0.3"/>
<path d="M318.305 223.38C318.305 226.102 316.041 228.369 313.324 228.369C310.607 228.369 308.343 226.102 308.343 223.38C308.343 220.659 310.607 218.391 313.324 218.391C316.041 218.391 318.305 220.659 318.305 223.38Z" fill="#1C1B18" fill-opacity="0.2"/>
<path d="M38.4805 376.458C38.4805 381.901 34.179 386.21 28.7455 386.21C23.3119 386.21 19.0104 381.901 19.0104 376.458C19.0104 371.015 23.3119 366.706 28.7455 366.706C34.179 366.706 38.4805 371.242 38.4805 376.458Z" fill="#1C1B18" fill-opacity="0.05"/>
<path d="M159.148 303.661C159.148 306.156 157.111 308.197 154.621 308.197C152.13 308.197 150.093 306.156 150.093 303.661C150.093 301.166 152.13 299.125 154.621 299.125C157.111 299.125 159.148 301.166 159.148 303.661Z" fill="#FFE396"/>
<path d="M202.391 383.715C202.391 386.436 200.127 388.704 197.41 388.704C194.693 388.704 192.429 386.436 192.429 383.715C192.429 380.993 194.693 378.726 197.41 378.726C200.127 378.726 202.391 380.993 202.391 383.715Z" fill="#1C1B18" fill-opacity="0.1"/>
<path d="M24.4415 348.337C21.4406 348.337 19.008 350.774 19.008 353.78C19.008 356.786 21.4406 359.223 24.4415 359.223C27.4423 359.223 29.875 356.786 29.875 353.78C29.875 350.774 27.4423 348.337 24.4415 348.337Z" fill="#1C1B18" fill-opacity="0.3"/>
<path d="M335.738 225.421C335.738 227.916 333.701 229.957 331.21 229.957C328.72 229.957 326.682 227.916 326.682 225.421C326.682 222.927 328.72 220.885 331.21 220.885C333.701 220.659 335.738 222.7 335.738 225.421Z" fill="#1C1B18" fill-opacity="0.05"/>
<path d="M63.8355 216.123C61.2098 216.123 59.0812 218.255 59.0812 220.886C59.0812 223.516 61.2098 225.648 63.8355 225.648C66.4613 225.648 68.5898 223.516 68.5898 220.886C68.5898 218.255 66.4613 216.123 63.8355 216.123Z" fill="#1C1B18" fill-opacity="0.05"/>
<path d="M93.2656 235.853C93.2656 238.801 90.7753 241.296 87.8321 241.296C84.8889 241.296 82.3986 238.801 82.3986 235.853C82.3986 232.905 84.8889 230.41 87.8321 230.41C91.0017 230.41 93.2656 232.905 93.2656 235.853Z" fill="#1C1B18" fill-opacity="0.2"/>
<path d="M315.137 282.117C315.137 284.611 313.099 286.652 310.609 286.652C308.118 286.652 306.081 284.611 306.081 282.117C306.081 279.622 308.118 277.581 310.609 277.581C313.099 277.581 315.137 279.622 315.137 282.117Z" fill="#1C1B18" fill-opacity="0.2"/>
<path d="M190.843 258.078C188.342 258.078 186.315 260.108 186.315 262.613C186.315 265.118 188.342 267.149 190.843 267.149C193.344 267.149 195.371 265.118 195.371 262.613C195.371 260.108 193.344 258.078 190.843 258.078Z" fill="#FFE396"/>
<path d="M345.699 185.508C345.699 188.683 343.209 191.177 340.039 191.177C336.87 191.177 334.379 188.683 334.379 185.508C334.379 182.333 336.87 179.838 340.039 179.838C343.209 179.838 345.699 182.559 345.699 185.508Z" fill="#1C1B18" fill-opacity="0.05"/>
<path d="M93.043 301.393C93.043 304.341 90.5526 306.836 87.6095 306.836C84.6663 306.836 82.176 304.341 82.176 301.393C82.176 298.445 84.6663 295.95 87.6095 295.95C90.5526 295.95 93.043 298.445 93.043 301.393Z" fill="#1C1B18" fill-opacity="0.3"/>
<path d="M106 270.618C106 273.113 103.962 275.154 101.472 275.154C98.9817 275.154 96.9442 273.113 96.9442 270.618C96.9442 268.124 98.9817 266.083 101.472 266.083C103.962 266.083 106 268.124 106 270.618Z" fill="#FEC72F"/>
<path d="M16.4102 383.979C16.4102 386.474 14.3726 388.515 11.8822 388.515C9.3919 388.515 7.35434 386.474 7.35434 383.979C7.35434 381.484 9.3919 379.443 11.8822 379.443C14.3726 379.443 16.4102 381.484 16.4102 383.979Z" fill="#FEC72F"/>
<path d="M115.43 174.577C115.43 177.072 113.392 179.113 110.902 179.113C108.411 179.113 106.374 177.072 106.374 174.577C106.374 172.082 108.411 170.041 110.902 170.041C113.392 170.041 115.43 172.082 115.43 174.577Z" fill="#FEC72F"/>
<path d="M49.418 94.2795C49.418 96.7741 47.3804 98.8152 44.89 98.8152C42.3997 98.8152 40.3621 96.7741 40.3621 94.2795C40.3621 91.7848 42.3997 89.7438 44.89 89.7438C47.3804 89.7438 49.418 91.7848 49.418 94.2795Z" fill="#B08A2E"/>
<path d="M50.9883 276.916C50.9883 279.41 48.9507 281.451 46.4604 281.451C43.97 281.451 41.9324 279.41 41.9324 276.916C41.9324 274.421 43.97 272.38 46.4604 272.38C48.9507 272.38 50.9883 274.421 50.9883 276.916Z" fill="#B08A2E"/>
<path d="M110.473 430.205C110.473 432.7 108.435 434.741 105.945 434.741C103.454 434.741 101.417 432.7 101.417 430.205C101.417 427.711 103.454 425.67 105.945 425.67C108.435 425.67 110.473 427.711 110.473 430.205Z" fill="#1C1B18" fill-opacity="0.05"/>
<path d="M280.496 339.266C280.496 341.987 278.459 344.028 275.742 344.028C273.025 344.028 270.987 341.987 270.987 339.266C270.987 336.544 273.025 334.503 275.742 334.503C278.459 334.503 280.496 336.771 280.496 339.266Z" fill="#FEBF10"/>
<path d="M212.805 198.207C212.805 200.702 210.767 202.743 208.277 202.743C205.786 202.743 203.749 200.702 203.749 198.207C203.749 195.713 205.786 193.672 208.277 193.672C210.767 193.672 212.805 195.713 212.805 198.207Z" fill="#FEC72F"/>
<path d="M97.7969 143.326C97.7969 145.821 95.7593 147.862 93.269 147.862C90.7786 147.862 88.741 145.821 88.741 143.326C88.741 140.832 90.7786 138.791 93.269 138.791C95.7593 138.791 97.7969 140.832 97.7969 143.326Z" fill="#1C1B18" fill-opacity="0.05"/>
<path d="M159.828 210.454C159.828 212.948 157.791 214.989 155.3 214.989C152.81 214.989 150.772 212.948 150.772 210.454C150.772 207.959 152.81 205.918 155.3 205.918C157.791 205.918 159.828 207.959 159.828 210.454Z" fill="#1C1B18" fill-opacity="0.1"/>
<path d="M73.3438 443.812C73.3438 446.307 71.3062 448.348 68.8158 448.348C66.3254 448.348 64.2879 446.307 64.2879 443.812C64.2879 441.317 66.3254 439.276 68.8158 439.276C71.3062 439.05 73.3438 441.091 73.3438 443.812Z" fill="#1C1B18" fill-opacity="0.2"/>
<path d="M186.996 214.536C184.37 214.536 182.241 216.668 182.241 219.298C182.241 221.928 184.37 224.061 186.996 224.061C189.621 224.061 191.75 221.928 191.75 219.298C191.75 216.668 189.621 214.536 186.996 214.536Z" fill="#1C1B18" fill-opacity="0.3"/>
<path d="M126.32 407.981C126.32 410.929 123.83 413.423 120.887 413.423C117.944 413.423 115.453 410.929 115.453 407.981C115.453 405.032 117.944 402.538 120.887 402.538C123.83 402.538 126.32 405.032 126.32 407.981Z" fill="#1C1B18" fill-opacity="0.1"/>
<path d="M285.023 168.953C285.023 171.674 282.759 173.942 280.043 173.942C277.326 173.942 275.062 171.674 275.062 168.953C275.062 166.231 277.326 163.963 280.043 163.963C282.759 163.963 285.023 166.231 285.023 168.953Z" fill="#1C1B18" fill-opacity="0.1"/>
<path d="M174.09 346.976C174.09 351.966 170.015 356.048 165.034 356.048C160.053 356.048 155.978 351.966 155.978 346.976C155.978 341.987 160.053 337.905 165.034 337.905C170.015 337.905 174.09 341.987 174.09 346.976Z" fill="#1C1B18" fill-opacity="0.2"/>
<path d="M318.758 205.238C318.758 207.732 316.72 209.773 314.23 209.773C311.74 209.773 309.702 207.732 309.702 205.238C309.702 202.743 311.74 200.702 314.23 200.702C316.72 200.702 318.758 202.743 318.758 205.238Z" fill="#FEBF10"/>
<path d="M323.738 293.683C323.738 296.631 321.248 299.125 318.305 299.125C315.362 299.125 312.871 296.631 312.871 293.683C312.871 290.734 315.362 288.24 318.305 288.24C321.248 288.013 323.738 290.508 323.738 293.683Z" fill="#1C1B18" fill-opacity="0.05"/>
<path d="M290.003 258.078C287.503 258.078 285.475 260.108 285.475 262.613C285.475 265.118 287.503 267.149 290.003 267.149C292.504 267.149 294.531 265.118 294.531 262.613C294.531 260.108 292.504 258.078 290.003 258.078Z" fill="#1C1B18" fill-opacity="0.3"/>
<path d="M78.0977 331.555C78.0977 334.05 76.0601 336.091 73.5697 336.091C71.0794 336.091 69.0418 334.05 69.0418 331.555C69.0418 329.06 71.0794 327.019 73.5697 327.019C76.0601 327.019 78.0977 329.06 78.0977 331.555Z" fill="#1C1B18" fill-opacity="0.2"/>
<path d="M235.219 249.914C235.219 252.408 233.181 254.449 230.691 254.449C228.2 254.449 226.163 252.408 226.163 249.914C226.163 247.419 228.2 245.378 230.691 245.378C233.181 245.378 235.219 247.419 235.219 249.914Z" fill="#1C1B18" fill-opacity="0.05"/>
<path d="M2.48413 335.41C-0.266644 335.41 -2.49658 337.644 -2.49658 340.4C-2.49658 343.155 -0.266644 345.389 2.48413 345.389C5.23491 345.389 7.46484 343.155 7.46484 340.4C7.46484 337.644 5.23491 335.41 2.48413 335.41Z" fill="#FEBF10" fill-opacity="0.3"/>
<path d="M239.973 354.233C239.973 357.408 237.482 359.903 234.313 359.903C231.143 359.903 228.653 357.408 228.653 354.233C228.653 351.058 231.143 348.564 234.313 348.564C237.482 348.564 239.973 351.058 239.973 354.233Z" fill="#1C1B18" fill-opacity="0.3"/>
<path d="M126.773 265.108C126.773 268.056 124.509 270.324 121.566 270.324C118.623 270.324 116.359 268.056 116.359 265.108C116.359 262.16 118.623 259.892 121.566 259.892C124.283 259.892 126.773 262.16 126.773 265.108Z" fill="#FEBF10"/>
<path d="M8.82031 206.145C8.82031 209.32 6.32995 211.814 3.1604 211.814C-0.00915051 211.814 -2.49951 209.32 -2.49951 206.145C-2.49951 202.97 -0.00914951 200.475 3.1604 200.475C6.32995 200.475 8.82031 202.97 8.82031 206.145Z" fill="#1C1B18" fill-opacity="0.3"/>
<path d="M18.7852 353.326C18.7852 355.821 16.7476 357.862 14.2572 357.862C11.7669 357.862 9.72931 355.821 9.72931 353.326C9.72931 350.832 11.7669 348.791 14.2572 348.791C16.7476 348.791 18.7852 350.832 18.7852 353.326Z" fill="#FEBF10" fill-opacity="0.7"/>
<path d="M257.629 222.7C257.629 226.328 254.686 229.277 251.063 229.277C247.441 229.277 244.498 226.328 244.498 222.7C244.498 219.071 247.441 216.123 251.063 216.123C254.912 216.35 257.629 219.071 257.629 222.7Z" fill="#FEC72F"/>
<path d="M37.5742 262.16C37.5742 264.654 35.5366 266.922 32.8199 266.922C30.3295 266.922 28.0656 264.881 28.0656 262.16C28.0656 259.438 30.1031 257.397 32.8199 257.397C35.3102 257.397 37.5742 259.665 37.5742 262.16Z" fill="#1C1B18" fill-opacity="0.2"/>
<path d="M282.309 327.246C282.309 329.741 280.271 332.009 277.554 332.009C275.064 332.009 272.8 329.968 272.8 327.246C272.8 324.752 274.838 322.484 277.554 322.484C280.271 322.484 282.309 324.525 282.309 327.246Z" fill="#1C1B18" fill-opacity="0.05"/>
<path d="M143.98 319.082C143.98 321.577 141.943 323.845 139.226 323.845C136.736 323.845 134.472 321.804 134.472 319.082C134.472 316.588 136.509 314.32 139.226 314.32C141.943 314.32 143.98 316.588 143.98 319.082Z" fill="#1C1B18" fill-opacity="0.05"/>
<path d="M38.9336 345.162C38.9336 347.883 36.6696 350.378 33.7265 350.378C31.0097 350.378 28.5194 348.11 28.5194 345.162C28.5194 342.441 30.7833 339.946 33.7265 339.946C36.6696 339.946 38.9336 342.214 38.9336 345.162Z" fill="#1C1B18" fill-opacity="0.05"/>
<path d="M306.758 189.59C306.758 192.084 304.72 194.125 302.23 194.125C299.74 194.125 297.702 192.084 297.702 189.59C297.702 187.095 299.74 185.054 302.23 185.054C304.72 185.054 306.758 187.095 306.758 189.59Z" fill="#FEC72F"/>
</g>
<defs>
<clipPath id="clip0_2455:21821">
<rect width="657" height="525" fill="white" transform="translate(350 525) rotate(-180)"/>
</clipPath>
</defs>
</svg>
