<svg width="416" height="525" viewBox="0 0 416 525" fill="none" xmlns="http://www.w3.org/2000/svg">
<g clip-path="url(#clip0_2455:21575)">
<path d="M200.223 481.458C200.223 487.127 195.695 491.663 190.035 491.663C184.375 491.663 179.847 487.127 179.847 481.458C179.847 475.788 184.375 471.253 190.035 471.253C195.695 471.479 200.223 476.015 200.223 481.458Z" fill="#1C1B18" fill-opacity="0.05"/>
<path d="M295.086 282.797C295.086 289.374 289.652 294.816 283.087 294.816C276.522 294.816 271.088 289.374 271.088 282.797C271.088 276.22 276.522 270.777 283.087 270.777C289.879 270.777 295.086 275.993 295.086 282.797Z" fill="#FEC72F"/>
<path d="M369.758 215.245C369.758 221.822 364.324 227.265 357.759 227.265C351.193 227.265 345.76 221.822 345.76 215.245C345.76 208.668 351.193 203.226 357.759 203.226C364.551 203.226 369.758 208.442 369.758 215.245Z" fill="#FEBF10"/>
<path d="M158.594 63.9765C158.594 70.5532 153.16 75.996 146.595 75.996C140.029 75.996 134.596 70.5532 134.596 63.9765C134.596 57.3998 140.029 51.9571 146.595 51.9571C153.387 51.9571 158.594 57.1731 158.594 63.9765Z" fill="#FEC72F"/>
<path d="M389.645 248.187C389.645 254.764 384.211 260.207 377.646 260.207C371.08 260.207 365.647 254.764 365.647 248.187C365.647 241.611 371.08 236.168 377.646 236.168C384.437 236.168 389.645 241.384 389.645 248.187Z" fill="#FEC72F"/>
<path d="M230.895 345.803C230.895 352.38 225.461 357.823 218.896 357.823C212.33 357.823 206.897 352.38 206.897 345.803C206.897 339.227 212.33 333.784 218.896 333.784C225.687 333.784 230.895 339 230.895 345.803Z" fill="#FEC72F"/>
<path d="M384.285 427.484C384.285 434.287 378.852 439.73 372.06 439.73C365.268 439.73 359.835 434.287 359.835 427.484C359.835 420.68 365.268 415.237 372.06 415.237C378.852 415.237 384.285 420.68 384.285 427.484Z" fill="#1C1B18" fill-opacity="0.2"/>
<path d="M266.105 336.318C266.105 339.719 263.389 342.214 260.219 342.214C256.823 342.214 254.333 339.492 254.333 336.318C254.333 332.916 257.05 330.421 260.219 330.421C263.389 330.421 266.105 333.143 266.105 336.318Z" fill="#FEC72F"/>
<path d="M328.59 224.06C328.59 229.957 323.836 234.719 317.949 234.719C312.063 234.719 307.309 229.957 307.309 224.06C307.309 218.164 312.063 213.402 317.949 213.402C323.836 213.402 328.59 218.164 328.59 224.06Z" fill="#FEBF10"/>
<path d="M387 403.672C387 406.62 384.51 409.114 381.566 409.114C378.623 409.114 376.133 406.62 376.133 403.672C376.133 400.724 378.623 398.229 381.566 398.229C384.51 398.229 387 400.497 387 403.672Z" fill="#1C1B18" fill-opacity="0.05"/>
<path d="M330.629 338.585C330.629 341.533 328.365 343.801 325.422 343.801C322.479 343.801 320.215 341.533 320.215 338.585C320.215 335.637 322.479 333.369 325.422 333.369C328.365 333.369 330.629 335.864 330.629 338.585Z" fill="#1C1B18" fill-opacity="0.05"/>
<path d="M392.66 248.553C392.66 255.583 387 261.026 380.208 261.026C373.19 261.026 367.757 255.356 367.757 248.553C367.757 241.523 373.416 236.08 380.208 236.08C387 236.08 392.66 241.523 392.66 248.553Z" fill="#1C1B18" fill-opacity="0.05"/>
<path d="M336.289 286.652C336.289 293.002 331.082 298.218 324.743 298.218C318.404 298.218 313.197 293.002 313.197 286.652C313.197 280.302 318.404 275.086 324.743 275.086C331.082 275.086 336.289 280.302 336.289 286.652Z" fill="#FEBF10"/>
<path d="M243.238 235.173C243.238 238.121 240.974 240.389 238.031 240.389C235.088 240.389 232.824 238.121 232.824 235.173C232.824 232.225 235.088 229.957 238.031 229.957C240.974 229.957 243.238 232.225 243.238 235.173Z" fill="#1C1B18" fill-opacity="0.05"/>
<path d="M363.004 328.834C363.004 336.091 357.118 341.987 349.873 341.987C342.628 341.987 336.742 336.091 336.742 328.834C336.742 321.577 342.628 315.68 349.873 315.68C357.118 315.68 363.004 321.577 363.004 328.834Z" fill="#1C1B18" fill-opacity="0.1"/>
<path d="M343.984 155.346C343.984 158.521 341.268 161.242 338.098 161.242C334.929 161.242 332.212 158.521 332.212 155.346C332.212 152.171 334.929 149.449 338.098 149.449C341.494 149.676 343.984 152.171 343.984 155.346Z" fill="#1C1B18" fill-opacity="0.2"/>
<path d="M409.414 429.752C409.414 436.101 404.207 441.317 397.868 441.317C391.529 441.317 386.322 436.101 386.322 429.752C386.322 423.402 391.529 418.186 397.868 418.186C404.207 418.186 409.414 423.402 409.414 429.752Z" fill="#FFE396"/>
<path d="M286.707 408.888C286.707 414.784 281.953 419.546 276.066 419.546C270.18 419.546 265.426 414.784 265.426 408.888C265.426 402.991 270.18 398.229 276.066 398.229C281.953 398.002 286.707 402.765 286.707 408.888Z" fill="#1C1B18" fill-opacity="0.05"/>
<path d="M407.828 219.978C407.828 225.648 403.074 230.41 397.414 230.41C391.754 230.41 387 225.648 387 219.978C387 214.309 391.754 209.546 397.414 209.546C403.074 209.773 407.828 214.309 407.828 219.978Z" fill="#FEBF10"/>
<path d="M432.508 376.458C432.508 382.808 427.301 388.024 420.962 388.024C414.623 388.024 409.415 382.808 409.415 376.458C409.415 370.108 414.623 364.892 420.962 364.892C427.301 364.892 432.508 370.108 432.508 376.458Z" fill="#1C1B18" fill-opacity="0.1"/>
<path d="M351.457 133.574C351.457 139.244 346.703 144.006 341.043 144.006C335.383 144.006 330.629 139.244 330.629 133.574C330.629 127.905 335.383 123.142 341.043 123.142C346.703 123.142 351.457 127.905 351.457 133.574Z" fill="#FEC72F"/>
<path d="M245.957 257.851C245.957 260.799 243.467 263.294 240.524 263.294C237.58 263.294 235.09 260.799 235.09 257.851C235.09 254.903 237.58 252.408 240.524 252.408C243.467 252.408 245.957 254.903 245.957 257.851Z" fill="#1C1B18" fill-opacity="0.3"/>
<path d="M47.4063 163.737C47.4063 166.685 44.9159 169.179 41.9728 169.179C39.0297 169.179 36.5394 166.685 36.5394 163.737C36.5394 160.788 39.0297 158.294 41.9728 158.294C44.9159 158.294 47.4063 160.562 47.4063 163.737Z" fill="#FEC72F"/>
<path d="M295.309 198.434C295.309 204.557 290.328 209.546 284.215 209.546C278.102 209.546 273.122 204.557 273.122 198.434C273.122 192.311 278.102 187.322 284.215 187.322C290.328 187.322 295.309 192.311 295.309 198.434Z" fill="#1C1B18" fill-opacity="0.2"/>
<path d="M378.625 304.341C378.625 307.289 376.135 309.784 373.191 309.784C370.022 309.784 367.758 307.289 367.758 304.341C367.758 301.393 370.248 298.898 373.191 298.898C376.135 298.898 378.625 301.393 378.625 304.341Z" fill="#1C1B18" fill-opacity="0.2"/>
<path d="M375.906 341.987C375.906 344.935 373.642 347.203 370.699 347.203C367.756 347.203 365.492 344.935 365.492 341.987C365.492 339.039 367.756 336.771 370.699 336.771C373.642 336.771 375.906 339.039 375.906 341.987Z" fill="#1C1B18" fill-opacity="0.3"/>
<path d="M259.086 204.557C259.086 207.732 256.596 210.227 253.426 210.227C250.256 210.227 247.766 207.732 247.766 204.557C247.766 201.382 250.256 198.888 253.426 198.888C256.596 199.114 259.086 201.609 259.086 204.557Z" fill="#FEBF10"/>
<path d="M60.5391 113.845C60.5391 117.019 58.0487 119.514 54.8792 119.514C51.7096 119.514 49.2192 117.019 49.2192 113.845C49.2192 110.67 51.7096 108.175 54.8792 108.175C58.0487 108.402 60.5391 110.896 60.5391 113.845Z" fill="#1C1B18" fill-opacity="0.05"/>
<path d="M414.848 334.73C414.848 341.307 409.414 346.749 402.849 346.749C396.283 346.749 390.85 341.307 390.85 334.73C390.85 328.153 396.283 322.711 402.849 322.711C409.641 322.711 414.848 327.927 414.848 334.73Z" fill="#FEBF10" fill-opacity="0.5"/>
<path d="M297.238 330.054C297.238 335.951 292.484 340.94 286.371 340.94C280.485 340.94 275.504 336.177 275.504 330.054C275.504 324.158 280.259 319.169 286.371 319.169C292.258 319.169 297.238 323.931 297.238 330.054Z" fill="#FEBF10"/>
<path d="M325.422 127.905C325.422 134.255 320.441 139.244 314.102 139.244C307.763 139.244 302.782 134.255 302.782 127.905C302.782 121.555 307.763 116.566 314.102 116.566C320.441 116.566 325.422 121.555 325.422 127.905Z" fill="#1C1B18" fill-opacity="0.3"/>
<path d="M223.77 325.659C223.77 331.328 219.242 335.864 213.582 335.864C207.922 335.864 203.394 331.328 203.394 325.659C203.394 319.989 207.922 315.453 213.582 315.453C219.015 315.227 223.77 319.989 223.77 325.659Z" fill="#FEBF10"/>
<path d="M323.836 319.536C323.836 327.02 317.723 332.916 310.479 332.916C303.008 332.916 297.121 326.793 297.121 319.536C297.121 312.052 303.234 306.156 310.479 306.156C317.95 306.156 323.836 312.279 323.836 319.536Z" fill="#1C1B18" fill-opacity="0.2"/>
<path d="M415.301 410.022C415.301 413.196 412.81 415.691 409.641 415.691C406.471 415.691 403.981 413.196 403.981 410.022C403.981 406.847 406.471 404.352 409.641 404.352C412.81 404.352 415.301 407.073 415.301 410.022Z" fill="#FFE396"/>
<path d="M399.906 153.078C399.906 159.655 394.699 164.871 388.134 164.871C381.568 164.871 376.361 159.655 376.361 153.078C376.361 146.501 381.568 141.285 388.134 141.285C394.473 141.285 399.906 146.501 399.906 153.078Z" fill="#1C1B18" fill-opacity="0.05"/>
<path d="M362.324 300.713C362.324 307.289 357.117 312.505 350.552 312.505C343.986 312.505 338.779 307.289 338.779 300.713C338.779 294.136 343.986 288.92 350.552 288.92C357.117 288.92 362.324 294.136 362.324 300.713Z" fill="#1C1B18" fill-opacity="0.1"/>
<path d="M224.449 297.084C224.449 300.032 221.959 302.527 219.016 302.527C216.073 302.527 213.582 300.032 213.582 297.084C213.582 294.136 216.073 291.642 219.016 291.642C221.959 291.415 224.449 293.909 224.449 297.084Z" fill="#1C1B18" fill-opacity="0.05"/>
<path d="M421.414 302.754C421.414 308.423 416.886 312.959 411.226 312.959C405.566 312.959 401.038 308.423 401.038 302.754C401.038 297.084 405.566 292.549 411.226 292.549C416.886 292.549 421.414 297.084 421.414 302.754Z" fill="#FEC72F"/>
<path d="M318.176 244.244C318.176 246.965 315.912 249.46 312.969 249.46C310.026 249.46 307.762 247.192 307.762 244.244C307.762 241.296 310.026 239.028 312.969 239.028C315.912 239.255 318.176 241.523 318.176 244.244Z" fill="#1C1B18" fill-opacity="0.05"/>
<path d="M77.9688 104.773C77.9688 107.495 75.7048 109.989 72.7617 109.989C69.8186 109.989 67.5547 107.721 67.5547 104.773C67.5547 101.825 69.8186 99.5572 72.7617 99.5572C75.7048 99.5572 77.9688 101.825 77.9688 104.773Z" fill="#FEBF10"/>
<path d="M268.82 261.706C268.82 264.654 266.33 267.149 263.387 267.149C260.444 267.149 257.953 264.654 257.953 261.706C257.953 258.758 260.444 256.264 263.387 256.264C266.33 256.264 268.82 258.758 268.82 261.706Z" fill="#1C1B18" fill-opacity="0.1"/>
<path d="M321.121 160.562C315.369 160.562 310.707 165.232 310.707 170.994C310.707 176.755 315.369 181.426 321.121 181.426C326.873 181.426 331.535 176.755 331.535 170.994C331.535 165.232 326.873 160.562 321.121 160.562Z" fill="#FEBF10"/>
<path d="M304.82 360.583C304.82 366.253 300.292 370.788 294.633 370.788C288.973 370.788 284.445 366.253 284.445 360.583C284.445 354.914 288.973 350.378 294.633 350.378C300.292 350.378 304.82 354.914 304.82 360.583Z" fill="#1C1B18" fill-opacity="0.1"/>
<path d="M296.668 234.946C296.668 241.296 291.461 246.512 285.122 246.512C278.783 246.512 273.576 241.296 273.576 234.946C273.576 228.596 278.783 223.38 285.122 223.38C291.687 223.38 296.668 228.596 296.668 234.946Z" fill="#FEBF10"/>
<path d="M394.926 362.624C394.926 365.572 392.662 367.84 389.719 367.84C386.776 367.84 384.512 365.572 384.512 362.624C384.512 359.676 386.776 357.408 389.719 357.408C392.435 357.408 394.926 359.903 394.926 362.624Z" fill="#1C1B18" fill-opacity="0.05"/>
<path d="M394.02 127.905C394.02 130.853 391.529 133.348 388.586 133.348C385.643 133.348 383.152 130.853 383.152 127.905C383.152 124.957 385.643 122.462 388.586 122.462C391.529 122.462 394.02 124.957 394.02 127.905Z" fill="#FEBF10"/>
<path d="M401.488 187.775C401.488 193.445 396.96 197.981 391.301 197.981C385.641 197.981 381.113 193.445 381.113 187.775C381.113 182.106 385.641 177.57 391.301 177.57C396.96 177.343 401.488 182.106 401.488 187.775Z" fill="#1C1B18" fill-opacity="0.2"/>
<path d="M257.953 354.914C257.953 360.583 253.199 365.346 247.539 365.346C241.879 365.346 237.125 360.583 237.125 354.914C237.125 349.244 241.879 344.482 247.539 344.482C253.199 344.482 257.953 349.017 257.953 354.914Z" fill="#1C1B18" fill-opacity="0.3"/>
<path d="M227.391 229.503C227.391 236.76 221.504 242.656 214.26 242.656C207.015 242.656 201.129 236.76 201.129 229.503C201.129 222.246 207.015 216.35 214.26 216.35C221.504 216.35 227.391 222.246 227.391 229.503Z" fill="#1C1B18" fill-opacity="0.05"/>
<path d="M161.059 37.6459C161.059 44.9029 155.172 50.7992 147.928 50.7992C140.683 50.7992 134.797 44.9029 134.797 37.6459C134.797 30.3889 140.683 24.4926 147.928 24.4926C155.172 24.4926 161.059 30.3889 161.059 37.6459Z" fill="#FEBF10"/>
<path d="M209.961 13.1534C209.961 20.4104 204.075 26.3068 196.83 26.3068C189.585 26.3068 183.699 20.4104 183.699 13.1534C183.699 5.89633 189.585 -3.22989e-05 196.83 -3.16655e-05C204.075 -3.10322e-05 209.961 5.89633 209.961 13.1534Z" fill="#FEBF10"/>
<path d="M363.457 177.343C363.457 183.24 358.703 188.002 352.816 188.002C346.93 188.002 342.176 183.24 342.176 177.343C342.176 171.447 346.93 166.685 352.816 166.685C358.929 166.911 363.457 171.674 363.457 177.343Z" fill="#FEBF10" fill-opacity="0.3"/>
<path d="M63.9336 83.2288C63.9336 89.1252 59.1793 93.8876 53.293 93.8876C47.4067 93.8876 42.6524 89.1252 42.6524 83.2288C42.6524 77.3325 47.4067 72.5701 53.293 72.5701C59.1793 72.5701 63.9336 77.3325 63.9336 83.2288Z" fill="#FFE396"/>
<path d="M50.125 128.585C50.125 134.482 45.3706 139.244 39.4843 139.244C33.598 139.244 28.8438 134.482 28.8438 128.585C28.8438 122.689 33.598 117.926 39.4843 117.926C45.3706 117.926 50.125 122.689 50.125 128.585Z" fill="#FEBF10"/>
<path d="M380.887 44.9028C380.887 50.7992 376.132 55.5616 370.246 55.5616C364.36 55.5616 359.606 50.7992 359.606 44.9028C359.606 39.0065 364.36 34.2441 370.246 34.2441C376.132 34.2441 380.887 39.0065 380.887 44.9028Z" fill="#FEBF10"/>
<path d="M371.832 396.868C371.832 402.538 367.304 407.074 361.644 407.074C355.984 407.074 351.456 402.538 351.456 396.868C351.456 391.199 355.984 386.663 361.644 386.663C367.078 386.663 371.832 391.199 371.832 396.868Z" fill="#FEC72F"/>
<path d="M254.559 320.67C254.559 326.339 250.031 330.875 244.371 330.875C238.711 330.875 234.183 326.339 234.183 320.67C234.183 315 238.711 310.464 244.371 310.464C250.031 310.464 254.559 315 254.559 320.67Z" fill="#FEBF10"/>
<path d="M357.57 236.307C357.57 239.028 355.306 241.523 352.363 241.523C349.646 241.523 347.156 239.255 347.156 236.307C347.156 233.359 349.42 231.091 352.363 231.091C355.306 231.091 357.57 233.359 357.57 236.307Z" fill="#1C1B18" fill-opacity="0.05"/>
<path d="M103.328 75.7451C103.328 78.4664 101.064 80.961 98.121 80.961C95.4043 80.961 92.9139 78.6932 92.9139 75.7451C92.9139 72.7969 95.1779 70.5291 98.121 70.5291C101.064 70.5291 103.328 73.0237 103.328 75.7451Z" fill="#1C1B18" fill-opacity="0.05"/>
<path d="M276.293 167.365C276.293 173.715 271.086 178.931 264.747 178.931C258.408 178.931 253.201 173.715 253.201 167.365C253.201 161.015 258.408 155.799 264.747 155.799C271.086 155.572 276.293 160.788 276.293 167.365Z" fill="#1C1B18" fill-opacity="0.05"/>
<path d="M265.879 391.199C265.879 398.002 260.445 403.445 253.654 403.445C246.862 403.445 241.428 398.002 241.428 391.199C241.428 384.395 246.862 378.952 253.654 378.952C260.445 378.952 265.879 384.395 265.879 391.199Z" fill="#1C1B18" fill-opacity="0.05"/>
<path d="M310.254 296.404C310.254 299.125 307.99 301.62 305.047 301.62C302.104 301.62 299.84 299.352 299.84 296.404C299.84 293.456 302.104 291.188 305.047 291.188C307.99 291.415 310.254 293.683 310.254 296.404Z" fill="#1C1B18" fill-opacity="0.1"/>
<path d="M439.977 216.35C439.977 224.06 433.637 230.41 425.94 230.41C418.243 230.41 411.904 224.06 411.904 216.35C411.904 208.639 418.243 202.289 425.94 202.289C433.864 202.289 439.977 208.639 439.977 216.35Z" fill="#1C1B18" fill-opacity="0.1"/>
<path d="M267.691 227.916C267.691 233.585 263.163 238.121 257.504 238.121C251.844 238.121 247.316 233.585 247.316 227.916C247.316 222.246 251.844 217.711 257.504 217.711C262.937 217.484 267.691 222.246 267.691 227.916Z" fill="#1C1B18" fill-opacity="0.05"/>
<path d="M294.18 141.285C294.18 146.955 289.652 151.717 283.765 151.717C278.106 151.717 273.351 147.182 273.351 141.285C273.351 135.616 277.879 130.853 283.765 130.853C289.425 130.853 294.18 135.389 294.18 141.285Z" fill="#FEBF10"/>
<path d="M313.648 186.188C313.648 191.857 308.894 196.62 303.234 196.62C297.574 196.62 292.82 191.857 292.82 186.188C292.82 180.518 297.574 175.756 303.234 175.756C308.894 175.756 313.648 180.518 313.648 186.188Z" fill="#1C1B18" fill-opacity="0.1"/>
<path d="M385.641 278.035C385.641 283.704 381.113 288.24 375.453 288.24C369.793 288.24 365.265 283.704 365.265 278.035C365.265 272.365 369.793 267.829 375.453 267.829C381.113 267.829 385.641 272.365 385.641 278.035Z" fill="#FEBF10" fill-opacity="0.8"/>
<path d="M344.664 247.873C344.664 253.769 339.91 258.758 333.797 258.758C327.911 258.758 322.93 253.996 322.93 247.873C322.93 241.976 327.684 236.987 333.797 236.987C339.91 237.214 344.664 241.976 344.664 247.873Z" fill="#1C1B18" fill-opacity="0.3"/>
<path d="M375.906 170.767C375.906 174.622 372.737 177.57 369.114 177.57C365.492 177.57 362.322 174.395 362.322 170.767C362.322 166.911 365.492 163.963 369.114 163.963C372.737 163.963 375.906 166.911 375.906 170.767Z" fill="#1C1B18" fill-opacity="0.3"/>
<path d="M225.129 267.829C225.129 271.685 221.959 274.633 218.337 274.633C214.488 274.633 211.545 271.458 211.545 267.829C211.545 264.201 214.488 261.026 218.337 261.026C222.186 260.799 225.129 263.974 225.129 267.829Z" fill="#1C1B18" fill-opacity="0.05"/>
<path d="M222.639 333.369C218.262 333.369 214.715 336.923 214.715 341.307C214.715 345.69 218.262 349.244 222.639 349.244C227.015 349.244 230.563 345.69 230.563 341.307C230.563 336.923 227.015 333.369 222.639 333.369Z" fill="#1C1B18" fill-opacity="0.05"/>
<path d="M305.5 219.071C305.5 223.153 302.33 226.328 298.255 226.328C294.18 226.328 291.011 223.153 291.011 219.071C291.011 214.989 294.18 211.814 298.255 211.814C302.33 211.814 305.5 214.989 305.5 219.071Z" fill="#FEBF10"/>
<path d="M232.824 212.495C232.824 216.577 229.655 219.752 225.58 219.752C221.504 219.752 218.335 216.577 218.335 212.495C218.335 208.412 221.504 205.238 225.58 205.238C229.655 205.238 232.824 208.639 232.824 212.495Z" fill="#1C1B18" fill-opacity="0.1"/>
<path d="M274.707 186.642C274.707 190.95 271.085 194.579 266.783 194.579C262.482 194.579 258.859 190.95 258.859 186.642C258.859 182.333 262.482 178.704 266.783 178.704C271.311 178.704 274.707 182.333 274.707 186.642Z" fill="#FEBF10"/>
<path d="M369.793 136.523C369.793 140.605 366.623 143.78 362.548 143.78C358.473 143.78 355.304 140.605 355.304 136.523C355.304 132.441 358.473 129.266 362.548 129.266C366.397 129.266 369.793 132.441 369.793 136.523Z" fill="#1C1B18" fill-opacity="0.2"/>
<path d="M352.816 361.263C352.816 365.572 349.42 368.974 345.119 368.974C340.817 368.974 337.421 365.572 337.421 361.263C337.421 356.955 340.817 353.553 345.119 353.553C349.42 353.78 352.816 357.181 352.816 361.263Z" fill="#1C1B18" fill-opacity="0.05"/>
<path d="M233.73 279.395C233.73 283.477 230.335 286.879 226.259 286.879C222.184 286.879 218.788 283.477 218.788 279.395C218.788 275.313 222.184 271.911 226.259 271.911C230.335 272.138 233.73 275.313 233.73 279.395Z" fill="#FFE396"/>
<path d="M412.355 355.821C412.355 359.676 409.186 362.624 405.564 362.624C401.941 362.624 398.772 359.449 398.772 355.821C398.772 351.965 401.941 349.017 405.564 349.017C409.186 349.017 412.355 351.965 412.355 355.821Z" fill="#1C1B18" fill-opacity="0.1"/>
<path d="M343.984 273.045C343.984 276.901 340.815 279.849 337.193 279.849C333.344 279.849 330.401 276.674 330.401 273.045C330.401 269.417 333.57 266.242 337.193 266.242C340.815 266.242 343.984 269.19 343.984 273.045Z" fill="#1C1B18" fill-opacity="0.05"/>
<path d="M327.457 197.981C327.457 201.836 324.287 204.784 320.665 204.784C316.816 204.784 313.873 201.609 313.873 197.981C313.873 194.125 317.043 191.177 320.665 191.177C324.514 191.177 327.457 194.352 327.457 197.981Z" fill="#1C1B18" fill-opacity="0.2"/>
<path d="M97.668 58.5096C97.668 62.365 94.4985 65.3131 90.8762 65.3131C87.0275 65.3131 84.0844 62.1382 84.0844 58.5096C84.0844 54.6543 87.2539 51.7061 90.8762 51.7061C94.4985 51.7061 97.668 54.6543 97.668 58.5096Z" fill="#FEBF10"/>
<path d="M174.188 20.1836C174.188 24.0389 171.018 26.9871 167.396 26.9871C163.547 26.9871 160.604 23.8121 160.604 20.1836C160.604 16.3283 163.773 13.3802 167.396 13.3802C171.244 13.3802 174.188 16.3283 174.188 20.1836Z" fill="#1C1B18" fill-opacity="0.05"/>
<path d="M398.998 161.696C394.497 161.696 390.848 165.351 390.848 169.86C390.848 174.369 394.497 178.024 398.998 178.024C403.499 178.024 407.148 174.369 407.148 169.86C407.148 165.351 403.499 161.696 398.998 161.696Z" fill="#1C1B18" fill-opacity="0.05"/>
<path d="M341.723 315.907C341.723 319.762 338.553 322.711 334.931 322.711C331.082 322.711 328.139 319.536 328.139 315.907C328.139 312.279 331.308 309.104 334.931 309.104C338.553 308.877 341.723 312.052 341.723 315.907Z" fill="#FEBF10"/>
<path d="M365.039 115.432C365.039 120.648 360.964 124.73 355.757 124.73C350.55 124.73 346.475 120.648 346.475 115.432C346.475 110.216 350.55 106.134 355.757 106.134C360.738 106.361 365.039 110.443 365.039 115.432Z" fill="#1C1B18" fill-opacity="0.1"/>
<path d="M392.66 203.877C392.66 207.732 389.491 210.68 385.868 210.68C382.246 210.68 379.076 207.505 379.076 203.877C379.076 200.022 382.246 197.073 385.868 197.073C389.491 197.073 392.66 200.022 392.66 203.877Z" fill="#1C1B18" fill-opacity="0.1"/>
<path d="M138.418 53.7474C138.418 57.6027 135.248 60.5509 131.626 60.5509C127.777 60.5509 124.834 57.3759 124.834 53.7474C124.834 49.8921 128.004 46.944 131.626 46.944C135.248 46.944 138.418 50.1189 138.418 53.7474Z" fill="#1C1B18" fill-opacity="0.05"/>
<path d="M390.172 319.082C390.172 322.937 387.002 325.886 383.38 325.886C379.758 325.886 376.588 322.711 376.588 319.082C376.588 315.454 379.758 312.279 383.38 312.279C387.002 312.279 390.172 315.227 390.172 319.082Z" fill="#1C1B18" fill-opacity="0.2"/>
<path d="M339.91 117.246C339.91 122.009 336.061 125.864 331.307 125.864C326.553 125.864 322.704 122.009 322.704 117.246C322.704 112.484 326.553 108.629 331.307 108.629C335.835 108.629 339.91 112.484 339.91 117.246Z" fill="#1C1B18" fill-opacity="0.1"/>
<path d="M291.234 216.577C291.234 220.432 288.065 223.38 284.443 223.38C280.594 223.38 277.651 220.205 277.651 216.577C277.651 212.721 280.82 209.773 284.443 209.773C288.065 209.773 291.234 212.948 291.234 216.577Z" fill="#FEC72F"/>
<path d="M241.2 184.827C237.449 184.827 234.408 187.873 234.408 191.631C234.408 195.388 237.449 198.434 241.2 198.434C244.951 198.434 247.992 195.388 247.992 191.631C247.992 187.873 244.951 184.827 241.2 184.827Z" fill="#FEBF10"/>
<path d="M28.6144 104.546C24.8634 104.546 21.8226 107.592 21.8226 111.35C21.8226 115.107 24.8634 118.153 28.6144 118.153C32.3654 118.153 35.4063 115.107 35.4063 111.35C35.4063 107.592 32.3654 104.546 28.6144 104.546Z" fill="#1C1B18" fill-opacity="0.05"/>
<path d="M7.78626 107.948C4.03521 107.948 0.994386 110.994 0.994385 114.752C0.994385 118.509 4.03521 121.555 7.78625 121.555C11.5373 121.555 14.5781 118.509 14.5781 114.752C14.5781 110.994 11.5373 107.948 7.78626 107.948Z" fill="#FEC72F"/>
<path d="M213.355 280.983C213.355 285.972 209.28 290.281 204.073 290.281C199.093 290.281 194.791 286.199 194.791 280.983C194.791 275.994 198.866 271.685 204.073 271.685C209.28 271.912 213.355 275.994 213.355 280.983Z" fill="#FEBF10"/>
<path d="M341.27 181.879C341.27 185.734 338.1 188.683 334.478 188.683C330.629 188.683 327.686 185.508 327.686 181.879C327.686 178.024 330.855 175.076 334.478 175.076C338.326 175.076 341.27 178.251 341.27 181.879Z" fill="#1C1B18" fill-opacity="0.1"/>
<path d="M382.246 373.963C382.246 377.819 379.077 380.767 375.454 380.767C371.606 380.767 368.662 377.819 368.662 373.963C368.662 370.108 371.832 367.16 375.454 367.16C379.077 367.16 382.246 370.108 382.246 373.963Z" fill="#1C1B18" fill-opacity="0.3"/>
<path d="M325.648 268.737C325.648 272.819 322.479 275.994 318.404 275.994C314.329 275.994 311.159 272.819 311.159 268.737C311.159 264.654 314.329 261.479 318.404 261.479C322.479 261.706 325.648 264.881 325.648 268.737Z" fill="#1C1B18" fill-opacity="0.05"/>
<path d="M389.945 229.05C389.945 231.544 387.908 233.585 385.417 233.585C382.927 233.585 380.889 231.544 380.889 229.05C380.889 226.555 382.927 224.514 385.417 224.514C387.908 224.287 389.945 226.328 389.945 229.05Z" fill="#1C1B18" fill-opacity="0.3"/>
<path d="M243.918 273.272C243.918 275.767 241.88 277.808 239.39 277.808C236.9 277.808 234.862 275.767 234.862 273.272C234.862 270.778 236.9 268.736 239.39 268.736C241.88 268.736 243.918 270.778 243.918 273.272Z" fill="#1C1B18" fill-opacity="0.05"/>
<path d="M258.406 415.918C258.406 418.639 256.142 420.68 253.652 420.68C250.935 420.68 248.898 418.413 248.898 415.918C248.898 413.197 251.162 411.155 253.652 411.155C256.142 411.155 258.406 413.197 258.406 415.918Z" fill="#1C1B18" fill-opacity="0.05"/>
<path d="M413.715 151.264C413.715 154.438 411.224 157.16 407.829 157.16C404.659 157.16 401.942 154.665 401.942 151.264C401.942 148.089 404.433 145.367 407.829 145.367C410.998 145.594 413.715 148.089 413.715 151.264Z" fill="#FEBF10"/>
<path d="M305.273 170.993C305.273 173.715 303.009 175.983 300.293 175.983C297.576 175.983 295.312 173.715 295.312 170.993C295.312 168.272 297.576 166.004 300.293 166.004C303.236 166.004 305.273 168.272 305.273 170.993Z" fill="#1C1B18" fill-opacity="0.2"/>
<path d="M345.344 221.112C345.344 224.741 342.401 227.462 339.005 227.462C335.382 227.462 332.666 224.514 332.666 221.112C332.666 217.484 335.609 214.762 339.005 214.762C342.627 214.762 345.344 217.484 345.344 221.112Z" fill="#1C1B18" fill-opacity="0.05"/>
<path d="M379.98 119.741C379.98 122.689 377.49 125.184 374.547 125.184C371.604 125.184 369.114 122.689 369.114 119.741C369.114 116.793 371.604 114.298 374.547 114.298C377.49 114.298 379.98 116.566 379.98 119.741Z" fill="#1C1B18" fill-opacity="0.05"/>
<path d="M348.512 67.3542C348.512 70.3024 346.021 72.797 343.078 72.797C340.135 72.797 337.645 70.3024 337.645 67.3542C337.645 64.4061 340.135 61.9115 343.078 61.9115C346.248 61.9115 348.512 64.4061 348.512 67.3542Z" fill="#FEBF10"/>
<path d="M376.586 74.3844C376.586 77.3326 374.096 79.8272 371.152 79.8272C368.209 79.8272 365.719 77.3326 365.719 74.3844C365.719 71.4362 368.209 68.9416 371.152 68.9416C374.096 68.9416 376.586 71.2095 376.586 74.3844Z" fill="#FEBF10"/>
<path d="M200.449 294.363C200.449 297.084 198.185 299.352 195.468 299.352C192.752 299.352 190.488 297.084 190.488 294.363C190.488 291.642 192.752 289.374 195.468 289.374C198.185 289.374 200.449 291.642 200.449 294.363Z" fill="#1C1B18" fill-opacity="0.05"/>
<path d="M262.258 407.527C262.258 410.022 260.22 412.063 257.73 412.063C255.24 412.063 253.202 410.022 253.202 407.527C253.202 405.032 255.24 402.991 257.73 402.991C260.22 402.991 262.258 405.032 262.258 407.527Z" fill="#1C1B18" fill-opacity="0.1"/>
<path d="M204.98 239.935C202.479 239.935 200.452 241.966 200.452 244.471C200.452 246.976 202.479 249.006 204.98 249.006C207.481 249.006 209.508 246.976 209.508 244.471C209.508 241.966 207.481 239.935 204.98 239.935Z" fill="#1C1B18" fill-opacity="0.2"/>
<path d="M62.1245 97.0627C59.6238 97.0627 57.5966 99.0934 57.5966 101.598C57.5966 104.103 59.6238 106.134 62.1245 106.134C64.6251 106.134 66.6523 104.103 66.6523 101.598C66.6523 99.0934 64.6251 97.0627 62.1245 97.0627Z" fill="#1C1B18" fill-opacity="0.3"/>
<path d="M401.715 248.326C401.715 250.821 399.677 252.862 397.187 252.862C394.697 252.862 392.659 250.821 392.659 248.326C392.659 245.832 394.697 243.791 397.187 243.791C399.677 243.791 401.715 245.832 401.715 248.326Z" fill="#1C1B18" fill-opacity="0.05"/>
<path d="M300.742 133.121C300.742 135.616 298.705 137.657 296.214 137.657C293.724 137.657 291.686 135.616 291.686 133.121C291.686 130.627 293.724 128.585 296.214 128.585C298.705 128.585 300.742 130.627 300.742 133.121Z" fill="#1C1B18" fill-opacity="0.05"/>
<path d="M363.457 63.2721C363.457 65.7667 361.419 67.8077 358.929 67.8077C356.439 67.8077 354.401 65.7667 354.401 63.2721C354.401 60.7775 356.439 58.7365 358.929 58.7365C361.419 58.7365 363.457 60.7775 363.457 63.2721Z" fill="#1C1B18" fill-opacity="0.3"/>
<path d="M346.477 376.458C346.477 381.901 342.175 386.21 336.742 386.21C331.308 386.21 327.007 381.901 327.007 376.458C327.007 371.015 331.308 366.706 336.742 366.706C342.175 366.706 346.477 371.242 346.477 376.458Z" fill="#1C1B18" fill-opacity="0.05"/>
<path d="M332.438 348.337C329.437 348.337 327.004 350.774 327.004 353.78C327.004 356.786 329.437 359.223 332.438 359.223C335.438 359.223 337.871 356.786 337.871 353.78C337.871 350.774 335.438 348.337 332.438 348.337Z" fill="#1C1B18" fill-opacity="0.3"/>
<path d="M371.832 216.123C369.206 216.123 367.077 218.255 367.077 220.886C367.077 223.516 369.206 225.648 371.832 225.648C374.457 225.648 376.586 223.516 376.586 220.886C376.586 218.255 374.457 216.123 371.832 216.123Z" fill="#1C1B18" fill-opacity="0.05"/>
<path d="M305.5 160.562C305.5 163.056 303.462 165.097 300.972 165.097C298.482 165.097 296.444 163.056 296.444 160.562C296.444 158.067 298.482 156.026 300.972 156.026C303.462 156.026 305.5 158.067 305.5 160.562Z" fill="#FFE396"/>
<path d="M106.949 66.2203C106.949 68.7149 104.912 70.756 102.421 70.756C99.9309 70.756 97.8933 68.7149 97.8933 66.2203C97.8933 63.7257 99.9309 61.6847 102.421 61.6847C104.912 61.6847 106.949 63.7257 106.949 66.2203Z" fill="#1C1B18" fill-opacity="0.3"/>
<path d="M401.262 235.853C401.262 238.801 398.771 241.296 395.828 241.296C392.885 241.296 390.395 238.801 390.395 235.853C390.395 232.905 392.885 230.41 395.828 230.41C398.998 230.41 401.262 232.905 401.262 235.853Z" fill="#1C1B18" fill-opacity="0.2"/>
<path d="M295.535 383.261C295.535 385.756 293.498 387.797 291.007 387.797C288.517 387.797 286.479 385.756 286.479 383.261C286.479 380.767 288.517 378.726 291.007 378.726C293.498 378.726 295.535 380.767 295.535 383.261Z" fill="#1C1B18" fill-opacity="0.3"/>
<path d="M248.672 281.21C248.672 283.704 246.634 285.972 243.918 285.972C241.427 285.972 239.163 283.931 239.163 281.21C239.163 278.715 241.201 276.447 243.918 276.447C246.634 276.447 248.672 278.488 248.672 281.21Z" fill="#FEBF10"/>
<path d="M279.914 350.605C279.914 353.326 277.65 355.594 274.933 355.594C272.217 355.594 269.953 353.326 269.953 350.605C269.953 347.883 272.217 345.616 274.933 345.616C277.65 345.616 279.914 347.883 279.914 350.605Z" fill="#1C1B18" fill-opacity="0.3"/>
<path d="M401.039 301.393C401.039 304.341 398.549 306.836 395.606 306.836C392.662 306.836 390.172 304.341 390.172 301.393C390.172 298.445 392.662 295.95 395.606 295.95C398.549 295.95 401.039 298.445 401.039 301.393Z" fill="#1C1B18" fill-opacity="0.3"/>
<path d="M295.535 177.343C295.535 179.838 293.498 181.879 291.007 181.879C288.517 181.879 286.479 179.838 286.479 177.343C286.479 174.849 288.517 172.808 291.007 172.808C293.498 172.808 295.535 174.849 295.535 177.343Z" fill="#FEC72F"/>
<path d="M248.961 158.832C248.961 161.327 246.923 163.368 244.433 163.368C241.943 163.368 239.905 161.327 239.905 158.832C239.905 156.337 241.943 154.296 244.433 154.296C246.923 154.296 248.961 156.337 248.961 158.832Z" fill="#FEC72F"/>
<path d="M124.789 73.8116C124.789 76.3062 122.751 78.3473 120.261 78.3473C117.771 78.3473 115.733 76.3062 115.733 73.8116C115.733 71.317 117.771 69.276 120.261 69.276C122.751 69.276 124.789 71.317 124.789 73.8116Z" fill="#B08A2E"/>
<path d="M178.23 229.682C178.23 232.177 176.193 234.218 173.703 234.218C171.212 234.218 169.175 232.177 169.175 229.682C169.175 227.188 171.212 225.147 173.703 225.147C176.193 225.147 178.23 227.188 178.23 229.682Z" fill="#FEC72F"/>
<path d="M413.996 270.618C413.996 273.113 411.959 275.154 409.468 275.154C406.978 275.154 404.94 273.113 404.94 270.618C404.94 268.124 406.978 266.083 409.468 266.083C411.959 266.083 413.996 268.124 413.996 270.618Z" fill="#FEC72F"/>
<path d="M324.406 383.979C324.406 386.474 322.369 388.515 319.878 388.515C317.388 388.515 315.35 386.474 315.35 383.979C315.35 381.484 317.388 379.443 319.878 379.443C322.369 379.443 324.406 381.484 324.406 383.979Z" fill="#FEC72F"/>
<path d="M423.426 174.577C423.426 177.072 421.388 179.113 418.898 179.113C416.407 179.113 414.37 177.072 414.37 174.577C414.37 172.082 416.408 170.041 418.898 170.041C421.388 170.041 423.426 172.082 423.426 174.577Z" fill="#FEC72F"/>
<path d="M357.414 94.2795C357.414 96.7741 355.376 98.8152 352.886 98.8152C350.396 98.8152 348.358 96.7741 348.358 94.2795C348.358 91.7848 350.396 89.7438 352.886 89.7438C355.376 89.7438 357.414 91.7848 357.414 94.2795Z" fill="#B08A2E"/>
<path d="M358.984 276.916C358.984 279.41 356.947 281.451 354.456 281.451C351.966 281.451 349.929 279.41 349.929 276.916C349.929 274.421 351.966 272.38 354.456 272.38C356.947 272.38 358.984 274.421 358.984 276.916Z" fill="#B08A2E"/>
<path d="M258.633 243.564C258.633 246.965 255.916 249.687 252.52 249.687C249.124 249.687 246.407 246.965 246.407 243.564C246.407 240.162 249.124 237.441 252.52 237.441C255.916 237.441 258.633 240.162 258.633 243.564Z" fill="#FFE396"/>
<path d="M418.469 430.205C418.469 432.7 416.431 434.741 413.941 434.741C411.45 434.741 409.413 432.7 409.413 430.205C409.413 427.711 411.45 425.67 413.941 425.67C416.431 425.67 418.469 427.711 418.469 430.205Z" fill="#1C1B18" fill-opacity="0.05"/>
<path d="M284.895 449.935C284.895 455.151 280.593 459.46 275.386 459.46C270.179 459.46 265.877 455.151 265.877 449.935C265.877 444.719 270.179 440.41 275.386 440.41C280.593 440.41 284.895 444.719 284.895 449.935Z" fill="#1C1B18" fill-opacity="0.05"/>
<path d="M405.793 143.326C405.793 145.821 403.755 147.862 401.265 147.862C398.775 147.862 396.737 145.821 396.737 143.326C396.737 140.832 398.775 138.791 401.265 138.791C403.755 138.791 405.793 140.832 405.793 143.326Z" fill="#1C1B18" fill-opacity="0.05"/>
<path d="M381.34 443.812C381.34 446.307 379.302 448.348 376.812 448.348C374.322 448.348 372.284 446.307 372.284 443.812C372.284 441.317 374.322 439.276 376.812 439.276C379.302 439.05 381.34 441.091 381.34 443.812Z" fill="#1C1B18" fill-opacity="0.2"/>
<path d="M274.027 203.877C274.027 206.372 271.99 208.413 269.499 208.413C267.009 208.413 264.972 206.372 264.972 203.877C264.972 201.382 267.009 199.341 269.499 199.341C271.99 199.341 274.027 201.382 274.027 203.877Z" fill="#1C1B18" fill-opacity="0.05"/>
<path d="M47.6328 106.134C47.6328 108.629 45.5952 110.67 43.1049 110.67C40.6145 110.67 38.5769 108.629 38.5769 106.134C38.5769 103.639 40.6145 101.598 43.1049 101.598C45.5952 101.598 47.6328 103.639 47.6328 106.134Z" fill="#FFE396"/>
<path d="M44.2383 148.088C44.2383 150.583 42.2007 152.624 39.7104 152.624C37.22 152.624 35.1825 150.583 35.1825 148.088C35.1825 145.594 37.22 143.553 39.7104 143.553C42.2007 143.553 44.2383 145.594 44.2383 148.088Z" fill="#1C1B18" fill-opacity="0.05"/>
<path d="M306.176 280.302C306.176 283.477 303.685 285.972 300.516 285.972C297.346 285.972 294.856 283.477 294.856 280.302C294.856 277.127 297.346 274.633 300.516 274.633C303.685 274.633 306.176 277.127 306.176 280.302Z" fill="#1C1B18" fill-opacity="0.05"/>
<path d="M386.094 331.555C386.094 334.05 384.056 336.091 381.566 336.091C379.075 336.091 377.038 334.05 377.038 331.555C377.038 329.06 379.075 327.019 381.566 327.019C384.056 327.019 386.094 329.06 386.094 331.555Z" fill="#1C1B18" fill-opacity="0.2"/>
<path d="M230.109 317.041C230.109 319.536 228.072 321.577 225.581 321.577C223.091 321.577 221.054 319.536 221.054 317.041C221.054 314.547 223.091 312.505 225.581 312.505C228.072 312.279 230.109 314.32 230.109 317.041Z" fill="#1C1B18" fill-opacity="0.3"/>
<path d="M310.48 335.41C307.729 335.41 305.5 337.644 305.5 340.4C305.5 343.155 307.729 345.389 310.48 345.389C313.231 345.389 315.461 343.155 315.461 340.4C315.461 337.644 313.231 335.41 310.48 335.41Z" fill="#FEBF10" fill-opacity="0.3"/>
<path d="M280.82 359.903C280.82 362.397 278.783 364.438 276.292 364.438C273.802 364.438 271.765 362.397 271.765 359.903C271.765 357.408 273.802 355.367 276.292 355.367C278.783 355.367 280.82 357.408 280.82 359.903Z" fill="#1C1B18" fill-opacity="0.2"/>
<path d="M264.52 302.981C264.52 305.702 262.482 307.743 259.765 307.743C257.049 307.743 255.011 305.702 255.011 302.981C255.011 300.259 257.049 298.218 259.765 298.218C262.482 298.218 264.52 300.486 264.52 302.981Z" fill="#1C1B18" fill-opacity="0.1"/>
<path d="M276.746 300.486C276.746 303.207 274.482 305.475 271.765 305.475C269.049 305.475 266.785 303.207 266.785 300.486C266.785 297.765 269.049 295.497 271.765 295.497C274.482 295.497 276.746 297.765 276.746 300.486Z" fill="#1C1B18" fill-opacity="0.2"/>
<path d="M316.816 206.145C316.816 209.32 314.326 211.814 311.156 211.814C307.987 211.814 305.497 209.32 305.497 206.145C305.497 202.97 307.987 200.475 311.156 200.475C314.326 200.475 316.816 202.97 316.816 206.145Z" fill="#1C1B18" fill-opacity="0.3"/>
<path d="M184.375 38.553C184.375 41.7279 181.885 44.2225 178.715 44.2225C175.546 44.2225 173.055 41.7279 173.055 38.553C173.055 35.3781 175.546 32.8835 178.715 32.8835C181.885 32.8835 184.375 35.3781 184.375 38.553Z" fill="#1C1B18" fill-opacity="0.3"/>
<path d="M276.52 248.553C276.52 251.048 274.482 253.315 271.765 253.315C269.275 253.315 267.011 251.274 267.011 248.553C267.011 246.058 269.048 243.79 271.765 243.79C274.256 243.79 276.52 246.058 276.52 248.553Z" fill="#1C1B18" fill-opacity="0.05"/>
<path d="M123.25 60.0973C123.25 62.5919 121.212 64.8597 118.496 64.8597C116.005 64.8597 113.741 62.8187 113.741 60.0973C113.741 57.6027 115.779 55.3349 118.496 55.3349C120.986 55.5617 123.25 57.6027 123.25 60.0973Z" fill="#1C1B18" fill-opacity="0.05"/>
<path d="M326.781 353.326C326.781 355.821 324.744 357.862 322.253 357.862C319.763 357.862 317.725 355.821 317.725 353.326C317.725 350.832 319.763 348.791 322.253 348.791C324.744 348.791 326.781 350.832 326.781 353.326Z" fill="#FEBF10" fill-opacity="0.7"/>
<path d="M269.047 354.913C269.047 358.088 266.557 360.356 263.613 360.356C260.67 360.356 258.18 357.862 258.18 354.913C258.18 351.739 260.67 349.471 263.613 349.471C266.557 349.471 269.047 351.965 269.047 354.913Z" fill="#1C1B18" fill-opacity="0.1"/>
<path d="M239.617 346.523C239.617 349.017 237.58 351.058 235.089 351.058C232.599 351.058 230.561 349.017 230.561 346.523C230.561 344.028 232.599 341.987 235.089 341.987C237.58 341.987 239.617 344.028 239.617 346.523Z" fill="#1C1B18" fill-opacity="0.05"/>
<path d="M345.57 262.16C345.57 264.654 343.533 266.922 340.816 266.922C338.326 266.922 336.062 264.881 336.062 262.16C336.062 259.438 338.099 257.397 340.816 257.397C343.306 257.397 345.57 259.665 345.57 262.16Z" fill="#1C1B18" fill-opacity="0.2"/>
<path d="M346.93 345.162C346.93 347.883 344.666 350.378 341.723 350.378C339.006 350.378 336.515 348.11 336.515 345.162C336.515 342.441 338.779 339.946 341.723 339.946C344.666 339.946 346.93 342.214 346.93 345.162Z" fill="#1C1B18" fill-opacity="0.05"/>
<path d="M236.672 511.62C236.672 519.104 230.559 525 223.315 525C215.844 525 209.957 518.877 209.957 511.62C209.957 504.136 216.07 498.24 223.315 498.24C230.786 498.013 236.672 504.136 236.672 511.62Z" fill="#1C1B18" fill-opacity="0.3"/>
<path d="M254.559 507.765C254.559 511.62 251.389 514.568 247.767 514.568C243.918 514.568 240.975 511.393 240.975 507.765C240.975 504.136 244.144 500.961 247.767 500.961C251.615 500.961 254.559 503.909 254.559 507.765Z" fill="#FEC72F"/>
<path d="M284.895 502.549C284.895 505.043 282.857 507.084 280.367 507.084C277.876 507.084 275.839 505.043 275.839 502.549C275.839 500.054 277.876 498.013 280.367 498.013C282.857 498.013 284.895 500.054 284.895 502.549Z" fill="#1C1B18" fill-opacity="0.05"/>
</g>
<defs>
<clipPath id="clip0_2455:21575">
<rect width="657" height="525" fill="white" transform="translate(657.996 525) rotate(-180)"/>
</clipPath>
</defs>
</svg>
