<svg width="44" height="44" viewBox="0 0 44 44" fill="none" xmlns="http://www.w3.org/2000/svg">
<circle cx="22" cy="22" r="5" stroke="#FEBF10" stroke-width="2"/>
<circle cx="22" cy="41" r="2" stroke="#1C1B18" stroke-width="2"/>
<line x1="22" y1="40" x2="22" y2="32" stroke="#1C1B18" stroke-width="2"/>
<circle cx="22" cy="3" r="2" stroke="#1C1B18" stroke-width="2"/>
<line x1="22" y1="12" x2="22" y2="4" stroke="#1C1B18" stroke-width="2"/>
<circle cx="3" cy="22" r="2" transform="rotate(90 3 22)" stroke="#1C1B18" stroke-width="2"/>
<line x1="4" y1="22" x2="12" y2="22" stroke="#1C1B18" stroke-width="2"/>
<circle cx="41" cy="22" r="2" transform="rotate(90 41 22)" stroke="#1C1B18" stroke-width="2"/>
<line x1="32" y1="22" x2="40" y2="22" stroke="#1C1B18" stroke-width="2"/>
<circle cx="8.56494" cy="35.435" r="2" transform="rotate(45 8.56494 35.435)" stroke="#1C1B18" stroke-width="2"/>
<line x1="9.2719" y1="34.728" x2="14.9288" y2="29.0711" stroke="#1C1B18" stroke-width="2"/>
<circle cx="35.4351" cy="8.565" r="2" transform="rotate(45 35.4351 8.565)" stroke="#1C1B18" stroke-width="2"/>
<line x1="29.0712" y1="14.929" x2="34.7281" y2="9.27215" stroke="#1C1B18" stroke-width="2"/>
<circle cx="8.56488" cy="8.56506" r="2" transform="rotate(135 8.56488 8.56506)" stroke="#1C1B18" stroke-width="2"/>
<line x1="9.27205" y1="9.27214" x2="14.9289" y2="14.929" stroke="#1C1B18" stroke-width="2"/>
<circle cx="35.435" cy="35.4351" r="2" transform="rotate(135 35.435 35.4351)" stroke="#1C1B18" stroke-width="2"/>
<line x1="29.0711" y1="29.0711" x2="34.728" y2="34.7279" stroke="#1C1B18" stroke-width="2"/>
</svg>
