<svg width="32" height="32" viewBox="0 0 32 32" fill="none" xmlns="http://www.w3.org/2000/svg">
<path d="M1.875 10.623H1.375V11.123V24.5902C1.375 25.3833 2.01942 26.0277 2.8125 26.0277H29.1875C29.9806 26.0277 30.625 25.3833 30.625 24.5902V11.123V10.623H30.125H1.875ZM30.125 9.74797H30.625V9.24797V7.41016C30.625 6.61708 29.9806 5.97266 29.1875 5.97266H2.8125C2.01942 5.97266 1.375 6.61708 1.375 7.41016V9.24797V9.74797H1.875H30.125ZM2.8125 5.09766H29.1875C30.4622 5.09766 31.5 6.13543 31.5 7.41016V24.5902C31.5 25.8649 30.4622 26.9027 29.1875 26.9027H2.8125C1.53783 26.9027 0.5 25.8649 0.5 24.5902V7.41016C0.5 6.13549 1.53783 5.09766 2.8125 5.09766Z" fill="#121331" stroke="#121331"/>
<path d="M9.57617 18.4252H9.07617V18.9252V20.7024C9.07617 20.944 8.88028 21.1399 8.63867 21.1399C8.39706 21.1399 8.20117 20.944 8.20117 20.7024V16.6111C8.20117 15.2154 9.3375 14.0791 10.7332 14.0791C12.1288 14.0791 13.2652 15.2154 13.2651 16.6111V16.6111V20.7024C13.2651 20.944 13.0692 21.1399 12.8276 21.1399C12.586 21.1399 12.3901 20.944 12.3901 20.7024V18.9252V18.4252H11.8901H9.57617ZM11.8902 17.5503H12.3902V17.0503V16.6112C12.3902 15.697 11.6472 14.9542 10.7332 14.9542C9.81911 14.9542 9.07617 15.697 9.07617 16.6112V17.1112H9.07623V17.5503H9.57623H11.8902Z" fill="#1C1B18" stroke="#FEBF10"/>
<path d="M16.9375 18.4252H16.4375V18.9252V20.7024C16.4375 20.944 16.2416 21.1399 16 21.1399C15.7584 21.1399 15.5625 20.944 15.5625 20.7024V14.5166C15.5625 14.275 15.7584 14.0791 16 14.0791H18.4534C19.6513 14.0791 20.6266 15.0544 20.6266 16.2521C20.6266 17.4499 19.6512 18.4252 18.4534 18.4252H16.9375ZM16.4375 17.0503V17.5503H16.9375H18.4534C19.1695 17.5503 19.7516 16.9687 19.7516 16.2523C19.7516 15.5361 19.1696 14.9542 18.4534 14.9542H16.9375H16.4375V15.4542V17.0503Z" fill="#1C1B18" stroke="#FEBF10"/>
<path d="M22.9238 14.5166C22.9238 14.275 23.1197 14.0791 23.3613 14.0791C23.6029 14.0791 23.7988 14.275 23.7988 14.5166V20.7024C23.7988 20.944 23.6029 21.1399 23.3613 21.1399C23.1197 21.1399 22.9238 20.944 22.9238 20.7024V14.5166Z" fill="#1C1B18" stroke="#FEBF10"/>
</svg>
