<svg width="153" height="67" viewBox="0 0 153 67" fill="none" xmlns="http://www.w3.org/2000/svg">
<path d="M133.259 32.3302H119.174H119.09L108.586 0L105.523 8.80686L115.003 37.9439H125.779L133.259 32.3302Z" fill="#FDBE10"/>
<path d="M101.947 37.8505L105.277 27.6013L102.249 18.7539L97.8972 32.1464L97.8692 32.2305H63.8754L71.3084 37.8629L101.947 37.8505Z" fill="#AF892E"/>
<path d="M152.963 32.4455L143.642 32.2585L135.816 37.9439H145.396L152.963 32.4455Z" fill="#FDBE10"/>
<path d="M7.16511 58.9284L9.60436 51.3271L12.0467 58.9284L14.5389 66.7165H19.2118L11.7041 45.1309H7.50779L0 66.7196H4.69159L7.16511 58.9284Z" fill="#FEBF10"/>
<path d="M25.3084 59.1182V66.7195H20.9283V45.1338H28.6604C33.6449 45.1338 36.729 47.4173 36.729 52.0466C36.729 56.6135 33.6635 59.1182 28.6604 59.1182H25.3084ZM28.0374 55.4266C31.0716 55.4266 32.352 54.3612 32.352 52.0466C32.352 49.9843 31.0716 48.8565 28.0374 48.8565H25.3084V55.4266H28.0374Z" fill="#FEBF10"/>
<path d="M43.4548 59.1182V66.7195H39.0747V45.1338H46.8006C51.785 45.1338 54.8722 47.4173 54.8722 52.0466C54.8722 56.6135 51.8068 59.1182 46.8006 59.1182H43.4548ZM46.1775 55.4266C49.2118 55.4266 50.4921 54.3612 50.4921 52.0466C50.4921 49.9843 49.2118 48.8565 46.1775 48.8565H43.4548V55.4266H46.1775Z" fill="#FEBF10"/>
<path d="M87.5982 45.134V48.8723H81.6542V66.7352H77.2742V48.8567H71.3396V45.1184L87.5982 45.134Z" fill="#FEBF10"/>
<path d="M94.0436 53.7039H101.52V45.1338H105.9V66.7195H101.52V57.3955H94.0436V66.7195H89.6666V45.1338H94.0436V53.7039Z" fill="#FEBF10"/>
<path d="M117.477 66.9999C112.629 66.9999 109.218 64.0591 109.218 57.461V54.3925C109.218 47.732 112.645 44.8535 117.477 44.8535C122.308 44.8535 125.763 47.732 125.763 54.3925V57.461C125.763 64.0591 122.355 66.9999 117.477 66.9999ZM113.598 57.461C113.598 61.5887 114.941 63.3083 117.477 63.3083C120.013 63.3083 121.386 61.5887 121.386 57.461V54.3925C121.386 50.2647 120.009 48.5451 117.477 48.5451C114.944 48.5451 113.598 50.2647 113.598 54.3925V57.461Z" fill="#FEBF10"/>
<path d="M145.287 45.1338V66.7195H141.626L133.215 53.3612V66.7195H129.053V45.1338H132.682L141.122 58.679V45.1338H145.287Z" fill="#FEBF10"/>
<path d="M60.6013 58.9282L63.0405 51.33L65.4798 58.9282L67.972 66.7163H72.6449L65.1402 45.1338H60.9439L53.4362 66.7163H58.1277L60.6013 58.9282Z" fill="#FEBF10"/>
</svg>
