<svg width="16" height="16" viewBox="0 0 16 16" fill="none" xmlns="http://www.w3.org/2000/svg">
<path d="M8 9C10.2091 9 12 7.20914 12 5C12 2.79086 10.2091 1 8 1C5.79086 1 4 2.79086 4 5C4 7.20914 5.79086 9 8 9Z" stroke="white" stroke-opacity="0.5" stroke-linecap="round" stroke-linejoin="round"/>
<path d="M15.5 13.1984V13.2005V15C15.5 15.2761 15.2761 15.5 15 15.5H1.00002C0.723876 15.5 0.500019 15.2761 0.500019 15V13.2005H0.500023L0.500014 13.1984C0.498773 12.9119 0.580249 12.6311 0.734672 12.3897C0.888348 12.1496 1.10777 11.9586 1.36684 11.8394C3.45679 10.9309 5.71539 10.4748 7.99424 10.5011L7.99424 10.5012L8.00576 10.5011C10.2846 10.4748 12.5432 10.9309 14.6332 11.8394C14.8922 11.9586 15.1117 12.1496 15.2653 12.3897L15.6684 12.1319L15.2653 12.3897C15.4198 12.6311 15.5012 12.9119 15.5 13.1984Z" stroke="white" stroke-opacity="0.5"/>
</svg>
