<svg width="505" height="403" viewBox="0 0 505 403" fill="none" xmlns="http://www.w3.org/2000/svg">
<g clip-path="url(#clip0)">
<path d="M153.136 369.576C153.136 373.928 149.655 377.41 145.305 377.41C140.955 377.41 137.474 373.928 137.474 369.576C137.474 365.224 140.955 361.742 145.305 361.742C149.655 361.916 153.136 365.398 153.136 369.576Z" fill="#1C1B18" fill-opacity="0.05"/>
<path d="M226.049 217.08C226.049 222.129 221.873 226.307 216.826 226.307C211.78 226.307 207.603 222.129 207.603 217.08C207.603 212.032 211.78 207.854 216.826 207.854C222.047 207.854 226.049 211.858 226.049 217.08Z" fill="#FEC72F"/>
<path d="M283.446 165.226C283.446 170.275 279.269 174.453 274.223 174.453C269.176 174.453 265 170.275 265 165.226C265 160.178 269.176 156 274.223 156C279.443 156 283.446 160.004 283.446 165.226Z" fill="#FEBF10"/>
<path d="M121.137 49.1096C121.137 54.158 116.961 58.3359 111.914 58.3359C106.868 58.3359 102.691 54.158 102.691 49.1096C102.691 44.0612 106.868 39.8832 111.914 39.8832C117.135 39.8832 121.137 43.8871 121.137 49.1096Z" fill="#FEC72F"/>
<path d="M298.733 190.513C298.733 195.562 294.556 199.74 289.51 199.74C284.463 199.74 280.287 195.562 280.287 190.513C280.287 185.465 284.463 181.287 289.51 181.287C294.73 181.287 298.733 185.291 298.733 190.513Z" fill="#FEC72F"/>
<path d="M405.049 281.157C405.049 286.205 400.872 290.383 395.826 290.383C390.779 290.383 386.603 286.205 386.603 281.157C386.603 276.109 390.779 271.931 395.826 271.931C401.046 271.931 405.049 275.934 405.049 281.157Z" fill="#FEC72F"/>
<path d="M176.711 265.445C176.711 270.494 172.535 274.672 167.488 274.672C162.442 274.672 158.266 270.494 158.266 265.445C158.266 260.397 162.442 256.219 167.488 256.219C172.709 256.219 176.711 260.223 176.711 265.445Z" fill="#FEC72F"/>
<path d="M370.31 239.015C370.31 241.452 368.396 243.367 365.96 243.367C363.523 243.367 361.609 241.452 361.609 239.015C361.609 236.578 363.523 234.663 365.96 234.663C368.396 234.837 370.31 236.752 370.31 239.015Z" fill="#1C1B18" fill-opacity="0.05"/>
<path d="M294.612 328.144C294.612 333.367 290.436 337.545 285.215 337.545C279.995 337.545 275.818 333.367 275.818 328.144C275.818 322.922 279.995 318.744 285.215 318.744C290.436 318.744 294.612 322.922 294.612 328.144Z" fill="#1C1B18" fill-opacity="0.2"/>
<path d="M203.775 258.164C203.775 260.775 201.687 262.69 199.25 262.69C196.64 262.69 194.726 260.601 194.726 258.164C194.726 255.553 196.814 253.638 199.25 253.638C201.687 253.638 203.775 255.727 203.775 258.164Z" fill="#FEC72F"/>
<path d="M251.804 171.993C251.804 176.519 248.15 180.175 243.625 180.175C239.101 180.175 235.446 176.519 235.446 171.993C235.446 167.467 239.101 163.811 243.625 163.811C248.15 163.811 251.804 167.467 251.804 171.993Z" fill="#1C1B18" fill-opacity="0.05"/>
<path d="M482.9 203.85C482.9 209.073 478.723 213.077 473.677 213.077C468.456 213.077 464.454 208.899 464.454 203.85C464.454 198.628 468.63 194.624 473.677 194.624C478.723 194.45 482.9 198.628 482.9 203.85Z" fill="#1C1B18" fill-opacity="0.05"/>
<path d="M428.78 225.785C428.78 230.311 425.126 234.141 420.427 234.141C415.903 234.141 412.075 230.485 412.075 225.785C412.075 221.259 415.729 217.429 420.427 217.429C424.952 217.603 428.78 221.259 428.78 225.785Z" fill="#1C1B18" fill-opacity="0.1"/>
<path d="M396.935 244.237C392.418 244.237 388.756 247.901 388.756 252.419C388.756 256.938 392.418 260.601 396.935 260.601C401.452 260.601 405.114 256.938 405.114 252.419C405.114 247.901 401.452 244.237 396.935 244.237Z" fill="#1C1B18" fill-opacity="0.05"/>
<path d="M296.701 309.866C296.701 312.129 294.786 314.044 292.524 314.044C290.262 314.044 288.348 312.129 288.348 309.866C288.348 307.603 290.262 305.688 292.524 305.688C294.786 305.688 296.701 307.429 296.701 309.866Z" fill="#1C1B18" fill-opacity="0.05"/>
<path d="M253.37 259.904C253.37 262.167 251.63 263.908 249.368 263.908C247.105 263.908 245.365 262.167 245.365 259.904C245.365 257.641 247.105 255.9 249.368 255.9C251.63 255.9 253.37 257.815 253.37 259.904Z" fill="#1C1B18" fill-opacity="0.05"/>
<path d="M301.051 190.794C301.051 196.191 296.701 200.369 291.48 200.369C286.085 200.369 281.909 196.017 281.909 190.794C281.909 185.398 286.259 181.22 291.48 181.22C296.701 181.22 301.051 185.398 301.051 190.794Z" fill="#1C1B18" fill-opacity="0.05"/>
<path d="M344.033 184.875C344.033 187.138 342.293 188.879 340.031 188.879C337.769 188.879 336.029 187.138 336.029 184.875C336.029 182.612 337.769 180.871 340.031 180.871C342.293 181.045 344.033 182.786 344.033 184.875Z" fill="#1C1B18" fill-opacity="0.1"/>
<path d="M257.72 220.04C257.72 224.914 253.718 228.918 248.846 228.918C243.973 228.918 239.971 224.914 239.971 220.04C239.971 215.165 243.973 211.162 248.846 211.162C253.718 211.162 257.72 215.165 257.72 220.04Z" fill="#1C1B18" fill-opacity="0.05"/>
<path d="M186.199 180.523C186.199 182.786 184.459 184.527 182.197 184.527C179.935 184.527 178.194 182.786 178.194 180.523C178.194 178.26 179.935 176.519 182.197 176.519C184.459 176.519 186.199 178.26 186.199 180.523Z" fill="#1C1B18" fill-opacity="0.05"/>
<path d="M278.255 252.419C278.255 257.989 273.73 262.516 268.162 262.516C262.593 262.516 258.069 257.989 258.069 252.419C258.069 246.848 262.593 242.322 268.162 242.322C273.73 242.322 278.255 246.848 278.255 252.419Z" fill="#1C1B18" fill-opacity="0.1"/>
<path d="M263.637 119.246C263.637 121.683 261.549 123.772 259.113 123.772C256.676 123.772 254.588 121.683 254.588 119.246C254.588 116.809 256.676 114.72 259.113 114.72C261.723 114.894 263.637 116.809 263.637 119.246Z" fill="#1C1B18" fill-opacity="0.2"/>
<path d="M313.928 329.885C313.928 334.76 309.926 338.764 305.053 338.764C300.181 338.764 296.178 334.76 296.178 329.885C296.178 325.011 300.181 321.007 305.053 321.007C309.926 321.007 313.928 325.011 313.928 329.885Z" fill="#FFE396"/>
<path d="M219.611 313.87C219.611 318.396 215.956 322.052 211.432 322.052C206.907 322.052 203.253 318.396 203.253 313.87C203.253 309.344 206.907 305.688 211.432 305.688C215.956 305.514 219.611 309.17 219.611 313.87Z" fill="#1C1B18" fill-opacity="0.05"/>
<path d="M312.71 168.859C312.71 173.211 309.056 176.867 304.705 176.867C300.355 176.867 296.701 173.211 296.701 168.859C296.701 164.507 300.355 160.852 304.705 160.852C309.056 161.026 312.71 164.507 312.71 168.859Z" fill="#1C1B18" fill-opacity="0.05"/>
<path d="M331.678 288.976C331.678 293.851 327.676 297.854 322.803 297.854C317.931 297.854 313.928 293.851 313.928 288.976C313.928 284.102 317.931 280.098 322.803 280.098C327.676 280.098 331.678 284.102 331.678 288.976Z" fill="#1C1B18" fill-opacity="0.1"/>
<path d="M269.38 102.534C269.38 106.886 265.725 110.542 261.375 110.542C257.024 110.542 253.37 106.886 253.37 102.534C253.37 98.1822 257.024 94.5265 261.375 94.5265C265.725 94.5265 269.38 98.1822 269.38 102.534Z" fill="#FEC72F"/>
<path d="M188.287 197.931C188.287 200.194 186.373 202.109 184.111 202.109C181.849 202.109 179.934 200.194 179.934 197.931C179.934 195.668 181.849 193.753 184.111 193.753C186.373 193.753 188.287 195.668 188.287 197.931Z" fill="#1C1B18" fill-opacity="0.3"/>
<path d="M35.6736 125.687C35.6736 127.95 33.7594 129.865 31.4972 129.865C29.2349 129.865 27.3207 127.95 27.3207 125.687C27.3207 123.424 29.2349 121.509 31.4972 121.509C33.7594 121.509 35.6736 123.25 35.6736 125.687Z" fill="#FEC72F"/>
<path d="M470.719 231.355C470.719 233.618 468.804 235.533 466.542 235.533C464.28 235.533 462.366 233.618 462.366 231.355C462.366 229.092 464.28 227.177 466.542 227.177C468.804 227.177 470.719 229.092 470.719 231.355Z" fill="#1C1B18" fill-opacity="0.1"/>
<path d="M478.027 132.651C478.027 137.873 473.851 142.051 468.63 142.051C463.41 142.051 459.233 137.873 459.233 132.651C459.233 127.428 463.41 123.25 468.63 123.25C473.677 123.25 478.027 127.428 478.027 132.651Z" fill="#1C1B18" fill-opacity="0.1"/>
<path d="M226.223 152.322C226.223 157.022 222.395 160.852 217.696 160.852C212.998 160.852 209.17 157.022 209.17 152.322C209.17 147.622 212.998 143.792 217.696 143.792C222.395 143.792 226.223 147.622 226.223 152.322Z" fill="#1C1B18" fill-opacity="0.2"/>
<path d="M402.329 229.614C402.329 232.052 400.241 234.141 397.805 234.141C395.369 234.141 393.28 232.052 393.28 229.614C393.28 227.177 395.369 225.088 397.805 225.088C400.415 225.262 402.329 227.177 402.329 229.614Z" fill="#1C1B18" fill-opacity="0.2"/>
<path d="M290.262 233.618C290.262 235.881 288.348 237.796 286.086 237.796C283.649 237.796 281.909 235.881 281.909 233.618C281.909 231.355 283.823 229.44 286.086 229.44C288.348 229.44 290.262 231.355 290.262 233.618Z" fill="#1C1B18" fill-opacity="0.2"/>
<path d="M288.174 262.516C288.174 264.779 286.433 266.52 284.171 266.52C281.909 266.52 280.169 264.779 280.169 262.516C280.169 260.253 281.909 258.512 284.171 258.512C286.433 258.512 288.174 260.253 288.174 262.516Z" fill="#1C1B18" fill-opacity="0.3"/>
<path d="M198.38 157.022C198.38 159.459 196.466 161.374 194.03 161.374C191.594 161.374 189.679 159.459 189.679 157.022C189.679 154.585 191.594 152.67 194.03 152.67C196.466 152.844 198.38 154.759 198.38 157.022Z" fill="#1C1B18" fill-opacity="0.05"/>
<path d="M45.7666 87.3892C45.7666 89.8263 43.8524 91.7412 41.4162 91.7412C38.9799 91.7412 37.0657 89.8263 37.0657 87.3892C37.0657 84.952 38.9799 83.0371 41.4162 83.0371C43.8524 83.2112 45.7666 85.1261 45.7666 87.3892Z" fill="#1C1B18" fill-opacity="0.05"/>
<path d="M351.342 232.748C351.342 237.448 347.514 241.278 342.815 241.278C338.117 241.278 334.289 237.448 334.289 232.748C334.289 228.048 338.117 224.218 342.815 224.218C347.514 224.218 351.342 228.048 351.342 232.748Z" fill="#1C1B18" fill-opacity="0.05"/>
<path d="M318.105 256.945C318.105 261.993 313.928 266.171 308.882 266.171C303.835 266.171 299.659 261.993 299.659 256.945C299.659 251.897 303.835 247.719 308.882 247.719C314.102 247.719 318.105 251.723 318.105 256.945Z" fill="#1C1B18" fill-opacity="0.3"/>
<path d="M423.212 176.519C423.212 182.09 418.687 186.616 413.119 186.616C407.55 186.616 403.026 182.09 403.026 176.519C403.026 170.949 407.55 166.423 413.119 166.423C418.687 166.423 423.212 170.949 423.212 176.519Z" fill="#1C1B18" fill-opacity="0.3"/>
<path d="M393.106 155.978C393.106 160.504 389.452 163.985 385.102 163.985C380.577 163.985 377.097 160.33 377.097 155.978C377.097 151.451 380.751 147.97 385.102 147.97C389.452 147.97 393.106 151.451 393.106 155.978Z" fill="#1C1B18" fill-opacity="0.1"/>
<path d="M460.104 191.664C460.104 196.887 455.753 201.239 450.533 201.239C445.312 201.239 440.962 196.887 440.962 191.664C440.962 186.442 445.312 182.09 450.533 182.09C455.753 182.09 460.104 186.442 460.104 191.664Z" fill="#1C1B18" fill-opacity="0.3"/>
<path d="M227.706 253.356C227.706 257.882 224.051 261.712 219.353 261.712C214.828 261.712 211 258.056 211 253.356C211 248.83 214.654 245 219.353 245C223.877 245 227.706 248.656 227.706 253.356Z" fill="#FEBF10"/>
<path d="M453.665 228.048C453.665 232.4 450.184 235.881 445.834 235.881C441.484 235.881 438.003 232.4 438.003 228.048C438.003 223.696 441.484 220.214 445.834 220.214C450.184 220.214 453.665 223.696 453.665 228.048Z" fill="#FEC72F"/>
<path d="M367.178 160.852C364.679 160.852 362.653 162.878 362.653 165.378C362.653 167.878 364.679 169.904 367.178 169.904C369.677 169.904 371.702 167.878 371.702 165.378C371.702 162.878 369.677 160.852 367.178 160.852Z" fill="#1C1B18" fill-opacity="0.2"/>
<path d="M249.368 98.1821C249.368 103.056 245.539 106.886 240.667 106.886C235.794 106.886 231.966 103.056 231.966 98.1821C231.966 93.3079 235.794 89.4781 240.667 89.4781C245.539 89.4781 249.368 93.3079 249.368 98.1821Z" fill="#1C1B18" fill-opacity="0.3"/>
<path d="M400.415 178.957C400.415 183.309 396.761 186.964 392.41 186.964C388.06 186.964 384.406 183.309 384.406 178.957C384.406 174.605 388.06 170.949 392.41 170.949C396.761 170.949 400.415 174.605 400.415 178.957Z" fill="#1C1B18" fill-opacity="0.05"/>
<path d="M171.234 249.982C171.234 254.334 167.753 257.815 163.403 257.815C159.052 257.815 155.572 254.334 155.572 249.982C155.572 245.63 159.052 242.148 163.403 242.148C167.579 241.974 171.234 245.63 171.234 249.982Z" fill="#1C1B18" fill-opacity="0.05"/>
<path d="M328.198 185.049C328.198 187.138 326.458 189.053 324.195 189.053C321.933 189.053 320.193 187.312 320.193 185.049C320.193 182.786 321.933 181.045 324.195 181.045C326.284 181.045 328.198 182.786 328.198 185.049Z" fill="#1C1B18" fill-opacity="0.1"/>
<path d="M403.026 280.969C403.026 286.365 398.675 290.717 393.281 290.717C387.886 290.717 383.536 286.365 383.536 280.969C383.536 275.572 387.886 271.22 393.281 271.22C398.675 271.22 403.026 275.572 403.026 280.969Z" fill="#1C1B18" fill-opacity="0.05"/>
<path d="M248.149 245.282C248.149 251.027 243.451 255.553 237.882 255.553C232.14 255.553 227.615 250.853 227.615 245.282C227.615 239.537 232.314 235.011 237.882 235.011C243.625 235.011 248.149 239.711 248.149 245.282Z" fill="#1C1B18" fill-opacity="0.2"/>
<path d="M318.453 314.74C318.453 317.177 316.539 319.092 314.102 319.092C311.666 319.092 309.752 317.177 309.752 314.74C309.752 312.303 311.666 310.388 314.102 310.388C316.539 310.388 318.453 312.477 318.453 314.74Z" fill="#FFE396"/>
<path d="M357.607 175.997C357.607 178.26 355.693 180.175 353.431 180.175C351.168 180.175 349.254 178.26 349.254 175.997C349.254 173.734 351.168 171.819 353.431 171.819C355.693 171.819 357.607 173.734 357.607 175.997Z" fill="#1C1B18" fill-opacity="0.05"/>
<path d="M306.62 117.506C306.62 122.554 302.617 126.558 297.571 126.558C292.524 126.558 288.522 122.554 288.522 117.506C288.522 112.457 292.524 108.453 297.571 108.453C302.443 108.453 306.62 112.457 306.62 117.506Z" fill="#1C1B18" fill-opacity="0.05"/>
<path d="M450.707 154.933C450.707 159.633 446.878 163.463 442.18 163.463C437.481 163.463 433.653 159.633 433.653 154.933C433.653 150.233 437.481 146.403 442.18 146.403C446.878 146.403 450.707 150.233 450.707 154.933Z" fill="#FEC72F"/>
<path d="M473.851 165.726C473.851 170.252 470.196 173.908 465.672 173.908C461.148 173.908 457.493 170.252 457.493 165.726C457.493 161.2 461.148 157.544 465.672 157.544C470.196 157.544 473.851 161.2 473.851 165.726Z" fill="#1C1B18" fill-opacity="0.05"/>
<path d="M277.733 230.833C277.733 235.881 273.73 239.885 268.684 239.885C263.637 239.885 259.635 235.881 259.635 230.833C259.635 225.785 263.637 221.781 268.684 221.781C273.73 221.781 277.733 225.785 277.733 230.833Z" fill="#1C1B18" fill-opacity="0.1"/>
<path d="M171.756 228.048C171.756 230.311 169.841 232.226 167.579 232.226C165.317 232.226 163.403 230.311 163.403 228.048C163.403 225.785 165.317 223.87 167.579 223.87C169.841 223.696 171.756 225.61 171.756 228.048Z" fill="#1C1B18" fill-opacity="0.05"/>
<path d="M445.834 253.115C445.834 258.512 441.484 263.038 435.915 263.038C430.52 263.038 425.996 258.686 425.996 253.115C425.996 247.719 430.346 243.193 435.915 243.193C441.484 243.193 445.834 247.545 445.834 253.115Z" fill="#1C1B18" fill-opacity="0.05"/>
<path d="M323.151 232.4C323.151 236.752 319.671 240.233 315.321 240.233C310.97 240.233 307.49 236.752 307.49 232.4C307.49 228.048 310.97 224.566 315.321 224.566C319.671 224.566 323.151 228.048 323.151 232.4Z" fill="#FEC72F"/>
<path d="M243.799 187.486C243.799 189.575 242.059 191.49 239.797 191.49C237.534 191.49 235.794 189.749 235.794 187.486C235.794 185.223 237.534 183.482 239.797 183.482C242.059 183.657 243.799 185.397 243.799 187.486Z" fill="#1C1B18" fill-opacity="0.05"/>
<path d="M59.166 80.4258C59.166 82.5148 57.4259 84.4297 55.1637 84.4297C52.9015 84.4297 51.1613 82.6889 51.1613 80.4258C51.1613 78.1627 52.9015 76.4219 55.1637 76.4219C57.4259 76.4219 59.166 78.1627 59.166 80.4258Z" fill="#1C1B18" fill-opacity="0.3"/>
<path d="M205.863 200.891C205.863 203.154 203.949 205.069 201.687 205.069C199.425 205.069 197.51 203.154 197.51 200.891C197.51 198.628 199.425 196.713 201.687 196.713C203.949 196.713 205.863 198.628 205.863 200.891Z" fill="#1C1B18" fill-opacity="0.1"/>
<path d="M390.67 236.926C390.67 241.278 387.19 244.759 382.839 244.759C378.489 244.759 375.009 241.278 375.009 236.926C375.009 232.574 378.489 229.092 382.839 229.092C387.19 229.092 390.67 232.574 390.67 236.926Z" fill="#1C1B18" fill-opacity="0.05"/>
<path d="M246.061 123.25C241.64 123.25 238.057 126.835 238.057 131.258C238.057 135.68 241.64 139.266 246.061 139.266C250.482 139.266 254.066 135.68 254.066 131.258C254.066 126.835 250.482 123.25 246.061 123.25Z" fill="#1C1B18" fill-opacity="0.3"/>
<path d="M455.405 141.529C455.405 143.618 453.665 145.532 451.402 145.532C449.14 145.532 447.4 143.792 447.4 141.529C447.4 139.266 449.14 137.525 451.402 137.525C453.665 137.525 455.405 139.266 455.405 141.529Z" fill="#1C1B18" fill-opacity="0.2"/>
<path d="M440.091 208.724C440.091 213.076 436.611 216.558 432.261 216.558C427.91 216.558 424.43 213.076 424.43 208.724C424.43 204.372 427.91 200.891 432.261 200.891C436.611 200.891 440.091 204.372 440.091 208.724Z" fill="#1C1B18" fill-opacity="0.2"/>
<path d="M390.322 212.903C390.322 217.255 386.842 220.736 382.491 220.736C378.141 220.736 374.661 217.255 374.661 212.903C374.661 208.551 378.141 205.069 382.491 205.069C386.842 205.069 390.322 208.551 390.322 212.903Z" fill="#1C1B18" fill-opacity="0.1"/>
<path d="M233.532 276.79C233.532 281.142 230.052 284.624 225.701 284.624C221.351 284.624 217.87 281.142 217.87 276.79C217.87 272.438 221.351 268.957 225.701 268.957C230.052 268.957 233.532 272.438 233.532 276.79Z" fill="#1C1B18" fill-opacity="0.1"/>
<path d="M227.267 180.349C227.267 185.223 223.265 189.227 218.392 189.227C213.52 189.227 209.518 185.223 209.518 180.349C209.518 175.475 213.52 171.471 218.392 171.471C223.439 171.471 227.267 175.475 227.267 180.349Z" fill="#1C1B18" fill-opacity="0.1"/>
<path d="M302.791 278.357C302.791 280.621 301.051 282.361 298.789 282.361C296.527 282.361 294.786 280.621 294.786 278.357C294.786 276.094 296.527 274.354 298.789 274.354C300.877 274.354 302.791 276.268 302.791 278.357Z" fill="#1C1B18" fill-opacity="0.05"/>
<path d="M338.117 216.558C338.117 220.91 334.636 224.392 330.286 224.392C325.935 224.392 322.455 220.91 322.455 216.558C322.455 212.206 325.935 208.724 330.286 208.724C334.636 208.724 338.117 212.206 338.117 216.558Z" fill="#1C1B18" fill-opacity="0.3"/>
<path d="M381.447 185.919C381.447 190.272 377.793 193.927 373.442 193.927C369.092 193.927 365.438 190.272 365.438 185.919C365.438 181.567 369.092 177.912 373.442 177.912C377.793 177.912 381.447 181.567 381.447 185.919Z" fill="#1C1B18" fill-opacity="0.05"/>
<path d="M302.095 98.1824C302.095 100.445 300.181 102.36 297.919 102.36C295.657 102.36 293.742 100.445 293.742 98.1824C293.742 95.9193 295.657 94.0044 297.919 94.0044C300.181 94.0044 302.095 95.9193 302.095 98.1824Z" fill="#1C1B18" fill-opacity="0.2"/>
<path d="M352.038 153.192C352.038 157.544 348.558 161.2 344.034 161.2C339.683 161.2 336.029 157.718 336.029 153.192C336.029 148.84 339.509 145.184 344.034 145.184C348.384 145.358 352.038 148.84 352.038 153.192Z" fill="#FFE396"/>
<path d="M370.136 205.069C370.136 209.943 366.134 213.947 361.261 213.947C356.389 213.947 352.386 209.943 352.386 205.069C352.386 200.194 356.389 196.19 361.261 196.19C366.134 196.19 370.136 200.194 370.136 205.069Z" fill="#1C1B18" fill-opacity="0.2"/>
<path d="M307.838 144.14C307.838 148.492 304.357 151.974 300.007 151.974C295.656 151.974 292.176 148.492 292.176 144.14C292.176 139.788 295.656 136.306 300.007 136.306C304.357 136.132 307.838 139.788 307.838 144.14Z" fill="#1C1B18" fill-opacity="0.2"/>
<path d="M197.51 272.439C197.51 276.791 193.856 280.446 189.505 280.446C185.155 280.446 181.501 276.791 181.501 272.439C181.501 268.086 185.155 264.431 189.505 264.431C193.856 264.431 197.51 267.912 197.51 272.439Z" fill="#1C1B18" fill-opacity="0.3"/>
<path d="M174.018 176.171C174.018 181.741 169.493 186.268 163.925 186.268C158.356 186.268 153.832 181.741 153.832 176.171C153.832 170.6 158.356 166.074 163.925 166.074C169.493 166.074 174.018 170.6 174.018 176.171Z" fill="#1C1B18" fill-opacity="0.05"/>
<path d="M123.031 28.8977C123.031 34.4683 118.506 38.9944 112.938 38.9944C107.369 38.9944 102.845 34.4683 102.845 28.8977C102.845 23.3271 107.369 18.8009 112.938 18.8009C118.506 18.8009 123.031 23.3271 123.031 28.8977Z" fill="#1C1B18" fill-opacity="0.05"/>
<path d="M160.619 10.0968C160.619 15.6674 156.094 20.1936 150.526 20.1936C144.957 20.1936 140.433 15.6674 140.433 10.0968C140.433 4.52615 144.957 -1.36918e-06 150.526 -8.82364e-07C156.094 -3.95543e-07 160.619 4.52616 160.619 10.0968Z" fill="#1C1B18" fill-opacity="0.1"/>
<path d="M278.603 136.132C278.603 140.658 274.948 144.314 270.424 144.314C265.899 144.314 262.245 140.658 262.245 136.132C262.245 131.606 265.899 127.95 270.424 127.95C275.122 128.124 278.603 131.78 278.603 136.132Z" fill="#1C1B18" fill-opacity="0.2"/>
<path d="M48.377 63.888C48.377 68.4141 44.7226 72.0698 40.1981 72.0698C35.6736 72.0698 32.0193 68.4141 32.0193 63.888C32.0193 59.3618 35.6736 55.7061 40.1981 55.7061C44.7226 55.7061 48.377 59.3618 48.377 63.888Z" fill="#FFE396"/>
<path d="M37.762 98.7044C37.762 103.231 34.1076 106.886 29.5831 106.886C25.0586 106.886 21.4043 103.231 21.4043 98.7044C21.4043 94.1782 25.0586 90.5225 29.5831 90.5225C34.1076 90.5225 37.762 94.1782 37.762 98.7044Z" fill="#1C1B18" fill-opacity="0.05"/>
<path d="M292.002 34.4683C292.002 38.9944 288.348 42.6501 283.823 42.6501C279.299 42.6501 275.644 38.9944 275.644 34.4683C275.644 29.9422 279.299 26.2864 283.823 26.2864C288.348 26.2864 292.002 29.9422 292.002 34.4683Z" fill="#1C1B18" fill-opacity="0.1"/>
<path d="M503.782 183.309C503.782 187.835 500.128 191.316 495.777 191.316C491.253 191.316 487.772 187.661 487.772 183.309C487.772 178.782 491.427 175.301 495.777 175.301C500.128 175.301 503.782 178.957 503.782 183.309Z" fill="#1C1B18" fill-opacity="0.05"/>
<path d="M285.042 304.644C285.042 308.996 281.561 312.478 277.211 312.478C272.86 312.478 269.38 308.996 269.38 304.644C269.38 300.292 272.86 296.81 277.211 296.81C281.387 296.81 285.042 300.292 285.042 304.644Z" fill="#FEC72F"/>
<path d="M363.523 297.332C363.523 301.684 360.043 305.166 355.693 305.166C351.342 305.166 347.862 301.684 347.862 297.332C347.862 292.98 351.342 289.499 355.693 289.499C360.043 289.499 363.523 292.98 363.523 297.332Z" fill="#1C1B18" fill-opacity="0.2"/>
<path d="M194.9 246.152C194.9 250.504 191.42 253.986 187.069 253.986C182.719 253.986 179.238 250.504 179.238 246.152C179.238 241.8 182.719 238.318 187.069 238.318C191.42 238.318 194.9 241.8 194.9 246.152Z" fill="#1C1B18" fill-opacity="0.1"/>
<path d="M505 223.347C505 228.221 500.998 232.399 495.951 232.399C491.079 232.399 486.902 228.396 486.902 223.347C486.902 218.473 490.905 214.295 495.951 214.295C500.998 214.469 505 218.473 505 223.347Z" fill="#FEC72F"/>
<path d="M418.687 154.933C418.687 159.459 415.033 163.289 410.334 163.289C405.81 163.289 401.982 159.633 401.982 154.933C401.982 150.407 405.636 146.577 410.334 146.577C415.033 146.577 418.687 150.233 418.687 154.933Z" fill="#1C1B18" fill-opacity="0.2"/>
<path d="M274.078 181.394C274.078 183.483 272.338 185.397 270.076 185.397C267.988 185.397 266.074 183.657 266.074 181.394C266.074 179.131 267.814 177.39 270.076 177.39C272.338 177.39 274.078 179.131 274.078 181.394Z" fill="#1C1B18" fill-opacity="0.05"/>
<path d="M78.656 58.1433C78.656 60.2323 76.9158 62.1472 74.6536 62.1472C72.5654 62.1472 70.6512 60.4064 70.6512 58.1433C70.6512 55.8803 72.3914 54.1395 74.6536 54.1395C76.9158 54.1395 78.656 56.0544 78.656 58.1433Z" fill="#1C1B18" fill-opacity="0.05"/>
<path d="M211.606 128.473C211.606 133.347 207.603 137.351 202.731 137.351C197.858 137.351 193.856 133.347 193.856 128.473C193.856 123.598 197.858 119.594 202.731 119.594C207.603 119.42 211.606 123.424 211.606 128.473Z" fill="#1C1B18" fill-opacity="0.05"/>
<path d="M501.694 130.562C501.694 135.088 498.039 138.743 493.515 138.743C488.99 138.743 485.336 135.088 485.336 130.562C485.336 126.035 488.99 122.38 493.515 122.38C497.865 122.206 501.694 126.035 501.694 130.562Z" fill="#1C1B18" fill-opacity="0.2"/>
<path d="M487.076 143.792C487.076 146.229 485.162 148.144 482.726 148.144C480.289 148.144 478.375 146.229 478.375 143.792C478.375 141.355 480.289 139.44 482.726 139.44C485.162 139.44 487.076 141.355 487.076 143.792Z" fill="#1C1B18" fill-opacity="0.1"/>
<path d="M203.601 300.291C203.601 305.514 199.425 309.692 194.204 309.692C188.984 309.692 184.807 305.514 184.807 300.291C184.807 295.069 188.984 290.891 194.204 290.891C199.425 290.891 203.601 295.069 203.601 300.291Z" fill="#1C1B18" fill-opacity="0.05"/>
<path d="M237.708 227.525C237.708 229.614 235.968 231.529 233.706 231.529C231.444 231.529 229.704 229.788 229.704 227.525C229.704 225.262 231.444 223.521 233.706 223.521C235.968 223.696 237.708 225.436 237.708 227.525Z" fill="#1C1B18" fill-opacity="0.1"/>
<path d="M337.421 166.074C337.421 171.993 332.548 176.867 326.632 176.867C320.715 176.867 315.842 171.993 315.842 166.074C315.842 160.155 320.715 155.281 326.632 155.281C332.722 155.281 337.421 160.155 337.421 166.074Z" fill="#1C1B18" fill-opacity="0.1"/>
<path d="M204.993 174.952C204.993 179.304 201.513 182.786 197.162 182.786C192.812 182.786 189.332 179.304 189.332 174.952C189.332 170.6 192.812 167.119 197.162 167.119C201.339 166.945 204.993 170.6 204.993 174.952Z" fill="#1C1B18" fill-opacity="0.05"/>
<path d="M225.353 108.453C225.353 112.805 221.873 116.461 217.348 116.461C212.998 116.461 209.344 112.979 209.344 108.453C209.344 104.101 212.824 100.445 217.348 100.445C221.699 100.445 225.353 103.927 225.353 108.453Z" fill="#1C1B18" fill-opacity="0.05"/>
<path d="M240.319 142.921C240.319 147.273 236.664 150.929 232.314 150.929C227.964 150.929 224.309 147.273 224.309 142.921C224.309 138.569 227.964 134.914 232.314 134.914C236.664 134.914 240.319 138.569 240.319 142.921Z" fill="#1C1B18" fill-opacity="0.1"/>
<path d="M295.656 213.425C295.656 217.777 292.176 221.258 287.826 221.258C283.475 221.258 279.995 217.777 279.995 213.425C279.995 209.073 283.475 205.591 287.826 205.591C292.176 205.591 295.656 209.073 295.656 213.425Z" fill="#1C1B18" fill-opacity="0.05"/>
<path d="M264.159 190.272C264.159 194.798 260.505 198.627 255.806 198.627C251.282 198.627 247.453 194.972 247.453 190.272C247.453 185.745 251.108 181.916 255.806 181.916C260.505 182.09 264.159 185.745 264.159 190.272Z" fill="#1C1B18" fill-opacity="0.3"/>
<path d="M338.117 146.055C338.117 149.014 335.68 151.277 332.896 151.277C330.112 151.277 327.676 148.84 327.676 146.055C327.676 143.096 330.112 140.832 332.896 140.832C335.68 140.832 338.117 143.27 338.117 146.055Z" fill="#1C1B18" fill-opacity="0.1"/>
<path d="M346.122 285.843C346.122 288.802 343.685 291.065 340.901 291.065C337.943 291.065 335.681 288.628 335.681 285.843C335.681 282.884 338.117 280.62 340.901 280.62C343.685 280.62 346.122 282.884 346.122 285.843Z" fill="#1C1B18" fill-opacity="0.05"/>
<path d="M288.174 131.084C288.174 134.043 285.737 136.306 282.953 136.306C280.169 136.306 277.732 133.869 277.732 131.084C277.732 128.124 280.169 125.861 282.953 125.861C285.737 125.861 288.174 128.124 288.174 131.084Z" fill="#1C1B18" fill-opacity="0.3"/>
<path d="M466.89 152.844C466.89 155.803 464.454 158.066 461.67 158.066C458.885 158.066 456.449 155.629 456.449 152.844C456.449 149.885 458.885 147.621 461.67 147.621C464.454 147.621 466.89 150.059 466.89 152.844Z" fill="#1C1B18" fill-opacity="0.05"/>
<path d="M172.278 205.591C172.278 208.55 169.842 210.813 167.057 210.813C164.099 210.813 161.837 208.376 161.837 205.591C161.837 202.806 164.099 200.369 167.057 200.369C170.016 200.195 172.278 202.632 172.278 205.591Z" fill="#1C1B18" fill-opacity="0.05"/>
<path d="M376.749 220.214C376.749 223.173 374.313 225.436 371.528 225.436C368.57 225.436 366.308 222.999 366.308 220.214C366.308 217.428 368.744 214.991 371.528 214.991C374.313 214.817 376.749 217.254 376.749 220.214Z" fill="#1C1B18" fill-opacity="0.05"/>
<path d="M170.363 255.901C167 255.901 164.273 258.629 164.273 261.994C164.273 265.359 167 268.086 170.363 268.086C173.727 268.086 176.454 265.359 176.454 261.994C176.454 258.629 173.727 255.901 170.363 255.901Z" fill="#1C1B18" fill-opacity="0.05"/>
<path d="M337.073 275.398C337.073 278.531 334.462 280.968 331.504 280.968C328.372 280.968 325.936 278.357 325.936 275.398C325.936 272.264 328.546 269.827 331.504 269.827C334.462 269.827 337.073 272.264 337.073 275.398Z" fill="#1C1B18" fill-opacity="0.05"/>
<path d="M234.054 168.163C234.054 171.297 231.618 173.734 228.486 173.734C225.353 173.734 222.917 171.297 222.917 168.163C222.917 165.03 225.353 162.593 228.486 162.593C231.618 162.593 234.054 165.03 234.054 168.163Z" fill="#1C1B18" fill-opacity="0.05"/>
<path d="M504.652 209.421C504.652 212.38 502.216 214.817 499.258 214.817C496.299 214.817 493.863 212.38 493.863 209.421C493.863 206.461 496.299 204.024 499.258 204.024C502.216 204.024 504.652 206.461 504.652 209.421Z" fill="#1C1B18" fill-opacity="0.05"/>
<path d="M434.001 236.577C434.001 239.537 431.564 241.8 428.78 241.8C425.996 241.8 423.56 239.363 423.56 236.577C423.56 233.792 425.996 231.355 428.78 231.355C431.564 231.355 434.001 233.618 434.001 236.577Z" fill="#1C1B18" fill-opacity="0.05"/>
<path d="M346.122 253.812C346.122 256.771 343.685 259.034 340.901 259.034C338.117 259.034 335.681 256.597 335.681 253.812C335.681 251.026 338.117 248.589 340.901 248.589C343.685 248.589 346.122 250.852 346.122 253.812Z" fill="#1C1B18" fill-opacity="0.1"/>
<path d="M178.194 163.115C178.194 166.248 175.758 168.686 172.626 168.686C169.493 168.686 167.057 166.248 167.057 163.115C167.057 159.981 169.493 157.544 172.626 157.544C175.758 157.544 178.194 160.156 178.194 163.115Z" fill="#1C1B18" fill-opacity="0.1"/>
<path d="M492.297 160.504C492.297 162.593 490.556 164.333 488.468 164.333C486.38 164.333 484.64 162.593 484.64 160.504C484.64 158.415 486.38 156.674 488.468 156.674C490.556 156.674 492.297 158.415 492.297 160.504Z" fill="#1C1B18" fill-opacity="0.05"/>
<path d="M372.224 150.059C372.224 153.366 369.614 155.978 366.308 155.978C363.001 155.978 360.391 153.366 360.391 150.059C360.391 146.751 363.001 144.14 366.308 144.14C369.614 144.14 372.224 146.751 372.224 150.059Z" fill="#1C1B18" fill-opacity="0.2"/>
<path d="M210.388 143.27C210.388 146.577 207.603 149.363 204.297 149.363C200.991 149.363 198.206 146.577 198.206 143.27C198.206 139.962 200.991 137.177 204.297 137.177C207.777 137.177 210.388 139.962 210.388 143.27Z" fill="#1C1B18" fill-opacity="0.2"/>
<path d="M352.56 317.178C349.581 317.178 347.166 319.594 347.166 322.574C347.166 325.555 349.581 327.971 352.56 327.971C355.54 327.971 357.955 325.555 357.955 322.574C357.955 319.594 355.54 317.178 352.56 317.178Z" fill="#FEC72F"/>
<path d="M283.475 104.797C283.475 107.931 281.039 110.368 277.907 110.368C274.774 110.368 272.338 107.931 272.338 104.797C272.338 101.664 274.774 99.2267 277.907 99.2267C280.865 99.2267 283.475 101.664 283.475 104.797Z" fill="#1C1B18" fill-opacity="0.2"/>
<path d="M270.424 277.313C270.424 280.62 267.814 283.231 264.507 283.231C261.201 283.231 258.591 280.62 258.591 277.313C258.591 274.005 261.201 271.394 264.507 271.394C267.814 271.568 270.424 274.179 270.424 277.313Z" fill="#1C1B18" fill-opacity="0.05"/>
<path d="M478.201 243.541C478.201 246.5 475.765 248.763 472.981 248.763C470.022 248.763 467.76 246.326 467.76 243.541C467.76 240.755 470.196 238.318 472.981 238.318C475.765 238.318 478.201 240.581 478.201 243.541Z" fill="#1C1B18" fill-opacity="0.05"/>
<path d="M420.253 239.363C420.253 242.322 417.991 244.585 415.033 244.585C412.074 244.585 409.812 242.148 409.812 239.363C409.812 236.578 412.248 234.141 415.033 234.141C417.817 234.141 420.253 236.404 420.253 239.363Z" fill="#1C1B18" fill-opacity="0.05"/>
<path d="M178.89 214.469C178.89 217.603 176.28 220.214 173.148 220.214C170.015 220.214 167.405 217.603 167.405 214.469C167.405 211.336 170.015 208.724 173.148 208.724C176.28 208.899 178.89 211.336 178.89 214.469Z" fill="#FFE396"/>
<path d="M490.208 236.577C490.208 240.581 487.076 243.715 483.074 243.715C479.071 243.715 475.939 240.581 475.939 236.577C475.939 232.574 479.071 229.44 483.074 229.44C487.076 229.44 490.208 232.574 490.208 236.577Z" fill="#1C1B18" fill-opacity="0.2"/>
<path d="M423.734 199.15C423.734 202.109 421.297 204.373 418.513 204.373C415.729 204.373 413.293 201.935 413.293 199.15C413.293 196.191 415.729 193.928 418.513 193.928C421.297 193.928 423.734 196.191 423.734 199.15Z" fill="#1C1B18" fill-opacity="0.05"/>
<path d="M316.19 273.134C316.19 276.094 313.754 278.357 310.97 278.357C308.186 278.357 305.749 275.92 305.749 273.134C305.749 270.175 308.186 267.912 310.97 267.912C313.754 267.912 316.19 270.175 316.19 273.134Z" fill="#1C1B18" fill-opacity="0.1"/>
<path d="M263.637 209.595C263.637 212.554 261.201 214.817 258.417 214.817C255.458 214.817 253.196 212.38 253.196 209.595C253.196 206.81 255.632 204.372 258.417 204.372C261.201 204.372 263.637 206.636 263.637 209.595Z" fill="#1C1B18" fill-opacity="0.05"/>
<path d="M250.934 151.974C250.934 154.933 248.498 157.196 245.713 157.196C242.755 157.196 240.493 154.759 240.493 151.974C240.493 149.014 242.929 146.751 245.713 146.751C248.672 146.751 250.934 149.188 250.934 151.974Z" fill="#1C1B18" fill-opacity="0.2"/>
<path d="M74.3057 44.913C74.3057 47.8724 71.8694 50.1355 69.0852 50.1355C66.1269 50.1355 63.8647 47.6983 63.8647 44.913C63.8647 41.9536 66.3009 39.6905 69.0852 39.6905C71.8694 39.6905 74.3057 41.9536 74.3057 44.913Z" fill="#1C1B18" fill-opacity="0.2"/>
<path d="M133.124 15.4933C133.124 18.4527 130.688 20.7158 127.903 20.7158C124.945 20.7158 122.683 18.2787 122.683 15.4933C122.683 12.5339 125.119 10.2709 127.903 10.2709C130.862 10.2709 133.124 12.5339 133.124 15.4933Z" fill="#1C1B18" fill-opacity="0.05"/>
<path d="M491.775 212.903C491.775 215.862 489.338 218.125 486.554 218.125C483.77 218.125 481.334 215.688 481.334 212.903C481.334 210.117 483.77 207.68 486.554 207.68C489.338 207.68 491.775 209.943 491.775 212.903Z" fill="#1C1B18" fill-opacity="0.3"/>
<path d="M305.924 124.121C302.464 124.121 299.659 126.926 299.659 130.388C299.659 133.849 302.464 136.655 305.924 136.655C309.383 136.655 312.188 133.849 312.188 130.388C312.188 126.926 309.383 124.121 305.924 124.121Z" fill="#1C1B18" fill-opacity="0.05"/>
<path d="M261.897 242.496C261.897 245.456 259.461 247.719 256.676 247.719C253.718 247.719 251.456 245.282 251.456 242.496C251.456 239.711 253.892 237.274 256.676 237.274C259.461 237.1 261.897 239.537 261.897 242.496Z" fill="#1C1B18" fill-opacity="0.1"/>
<path d="M279.821 88.6077C279.821 92.6116 276.688 95.7451 272.686 95.7451C268.684 95.7451 265.551 92.6116 265.551 88.6077C265.551 84.6039 268.684 81.4704 272.686 81.4704C276.514 81.6445 279.821 84.7779 279.821 88.6077Z" fill="#1C1B18" fill-opacity="0.1"/>
<path d="M360.391 192.535C360.391 195.494 357.955 197.757 355.171 197.757C352.212 197.757 349.95 195.32 349.95 192.535C349.95 189.575 352.386 187.312 355.171 187.312C357.955 187.312 360.391 189.575 360.391 192.535Z" fill="#1C1B18" fill-opacity="0.05"/>
<path d="M301.051 156.5C301.051 159.459 298.615 161.722 295.83 161.722C293.046 161.722 290.61 159.285 290.61 156.5C290.61 153.54 293.046 151.277 295.83 151.277C298.615 151.277 301.051 153.54 301.051 156.5Z" fill="#1C1B18" fill-opacity="0.1"/>
<path d="M105.629 41.2575C105.629 44.2169 103.193 46.48 100.408 46.48C97.4501 46.48 95.1879 44.0428 95.1879 41.2575C95.1879 38.2981 97.6241 36.0351 100.408 36.0351C103.193 36.0351 105.629 38.4722 105.629 41.2575Z" fill="#1C1B18" fill-opacity="0.05"/>
<path d="M468.456 217.603C468.456 220.91 465.846 223.521 462.54 223.521C459.233 223.521 456.623 220.91 456.623 217.603C456.623 214.295 459.233 211.684 462.54 211.684C465.672 211.51 468.456 214.295 468.456 217.603Z" fill="#1C1B18" fill-opacity="0.05"/>
<path d="M442.875 134.217C442.875 137.525 440.091 140.31 436.785 140.31C433.479 140.31 430.694 137.525 430.694 134.217C430.694 130.91 433.479 128.124 436.785 128.124C440.091 128.124 442.875 130.91 442.875 134.217Z" fill="#1C1B18" fill-opacity="0.05"/>
<path d="M299.137 244.933C299.137 247.893 296.7 250.156 293.916 250.156C291.132 250.156 288.696 247.719 288.696 244.933C288.696 242.148 291.132 239.711 293.916 239.711C296.7 239.711 299.137 241.974 299.137 244.933Z" fill="#1C1B18" fill-opacity="0.2"/>
<path d="M369.614 314.566C369.614 317.7 367.004 320.311 363.871 320.311C360.739 320.311 358.129 317.7 358.129 314.566C358.129 311.433 360.739 308.822 363.871 308.822C367.004 308.996 369.614 311.433 369.614 314.566Z" fill="#1C1B18" fill-opacity="0.2"/>
<path d="M383.188 266.52C383.188 269.479 380.751 271.742 377.967 271.742C375.009 271.742 372.746 269.305 372.746 266.52C372.746 263.56 375.183 261.297 377.967 261.297C380.751 261.297 383.188 263.56 383.188 266.52Z" fill="#1C1B18" fill-opacity="0.3"/>
<path d="M260.505 90.0006C260.505 93.6563 257.547 96.6157 253.892 96.6157C250.238 96.6157 247.28 93.6563 247.28 90.0006C247.28 86.3449 250.238 83.3855 253.892 83.3855C257.373 83.3855 260.505 86.3449 260.505 90.0006Z" fill="#1C1B18" fill-opacity="0.1"/>
<path d="M223.091 166.248C223.091 169.208 220.655 171.471 217.871 171.471C214.912 171.471 212.65 169.034 212.65 166.248C212.65 163.289 215.086 161.026 217.871 161.026C220.655 161.026 223.091 163.463 223.091 166.248Z" fill="#FEC72F"/>
<path d="M184.633 141.877C181.75 141.877 179.412 144.215 179.412 147.099C179.412 149.984 181.75 152.322 184.633 152.322C187.516 152.322 189.854 149.984 189.854 147.099C189.854 144.215 187.516 141.877 184.633 141.877Z" fill="#1C1B18" fill-opacity="0.1"/>
<path d="M21.2301 80.2518C18.3469 80.2518 16.0096 82.59 16.0096 85.4743C16.0096 88.3586 18.3469 90.6968 21.2301 90.6968C24.1134 90.6968 26.4507 88.3586 26.4507 85.4743C26.4507 82.59 24.1134 80.2518 21.2301 80.2518Z" fill="#1C1B18" fill-opacity="0.05"/>
<path d="M5.2206 82.8632C2.33736 82.8632 3.12263e-05 85.2014 3.09741e-05 88.0857C3.0722e-05 90.9699 2.33736 93.3081 5.2206 93.3081C8.10384 93.3081 10.4412 90.9699 10.4412 88.0857C10.4412 85.2014 8.10384 82.8632 5.2206 82.8632Z" fill="#FEC72F"/>
<path d="M163.229 215.688C163.229 219.518 160.096 222.825 156.094 222.825C152.266 222.825 148.959 219.692 148.959 215.688C148.959 211.858 152.092 208.55 156.094 208.55C160.096 208.725 163.229 211.858 163.229 215.688Z" fill="#1C1B18" fill-opacity="0.05"/>
<path d="M261.549 139.614C261.549 142.573 259.113 144.836 256.328 144.836C253.37 144.836 251.108 142.399 251.108 139.614C251.108 136.655 253.544 134.392 256.328 134.392C259.287 134.392 261.549 136.829 261.549 139.614Z" fill="#1C1B18" fill-opacity="0.1"/>
<path d="M397.283 207.854C394.4 207.854 392.062 210.192 392.062 213.076C392.062 215.961 394.4 218.299 397.283 218.299C400.166 218.299 402.503 215.961 402.503 213.076C402.503 210.192 400.166 207.854 397.283 207.854Z" fill="#1C1B18" fill-opacity="0.1"/>
<path d="M293.046 287.061C293.046 290.021 290.61 292.284 287.826 292.284C284.867 292.284 282.605 290.021 282.605 287.061C282.605 284.102 285.041 281.839 287.826 281.839C290.61 281.839 293.046 284.102 293.046 287.061Z" fill="#1C1B18" fill-opacity="0.3"/>
<path d="M249.542 206.287C249.542 209.421 247.106 211.858 243.973 211.858C240.841 211.858 238.405 209.421 238.405 206.287C238.405 203.154 240.841 200.717 243.973 200.717C247.106 200.891 249.542 203.328 249.542 206.287Z" fill="#1C1B18" fill-opacity="0.05"/>
<path d="M464.628 184.005C464.628 185.92 463.062 187.486 461.148 187.486C459.233 187.486 457.667 185.92 457.667 184.005C457.667 182.09 459.233 180.523 461.148 180.523C463.062 180.523 464.628 182.09 464.628 184.005Z" fill="#1C1B18" fill-opacity="0.3"/>
<path d="M298.963 175.823C298.963 177.738 297.397 179.305 295.483 179.305C293.568 179.305 292.002 177.738 292.002 175.823C292.002 173.908 293.568 172.341 295.483 172.341C297.397 172.167 298.963 173.734 298.963 175.823Z" fill="#1C1B18" fill-opacity="0.3"/>
<path d="M186.721 209.769C186.721 211.684 185.155 213.25 183.241 213.25C181.327 213.25 179.76 211.684 179.76 209.769C179.76 207.854 181.327 206.287 183.241 206.287C185.155 206.287 186.721 207.854 186.721 209.769Z" fill="#1C1B18" fill-opacity="0.05"/>
<path d="M197.858 319.267C197.858 321.356 196.118 322.922 194.204 322.922C192.116 322.922 190.55 321.182 190.55 319.267C190.55 317.178 192.29 315.611 194.204 315.611C196.118 315.611 197.858 317.178 197.858 319.267Z" fill="#1C1B18" fill-opacity="0.05"/>
<path d="M317.235 116.113C317.235 118.55 315.32 120.639 312.71 120.639C310.274 120.639 308.186 118.724 308.186 116.113C308.186 113.676 310.1 111.587 312.71 111.587C315.146 111.761 317.235 113.676 317.235 116.113Z" fill="#1C1B18" fill-opacity="0.3"/>
<path d="M233.88 131.258C233.88 133.347 232.14 135.088 230.052 135.088C227.964 135.088 226.223 133.347 226.223 131.258C226.223 129.169 227.964 127.428 230.052 127.428C232.314 127.428 233.88 129.169 233.88 131.258Z" fill="#1C1B18" fill-opacity="0.2"/>
<path d="M264.681 169.73C264.681 172.515 262.419 174.604 259.809 174.604C257.025 174.604 254.936 172.341 254.936 169.73C254.936 166.944 257.199 164.855 259.809 164.855C262.593 164.855 264.681 166.944 264.681 169.73Z" fill="#1C1B18" fill-opacity="0.05"/>
<path d="M291.306 91.9153C291.306 94.1784 289.392 96.0933 287.13 96.0933C284.867 96.0933 282.953 94.1784 282.953 91.9153C282.953 89.6522 284.867 87.7373 287.13 87.7373C289.392 87.7373 291.306 89.4781 291.306 91.9153Z" fill="#1C1B18" fill-opacity="0.05"/>
<path d="M267.117 51.7024C267.117 53.9655 265.203 55.8804 262.941 55.8804C260.679 55.8804 258.765 53.9655 258.765 51.7024C258.765 49.4394 260.679 47.5245 262.941 47.5245C265.377 47.5245 267.117 49.4394 267.117 51.7024Z" fill="#1C1B18" fill-opacity="0.05"/>
<path d="M288.696 57.0989C288.696 59.362 286.782 61.2769 284.519 61.2769C282.257 61.2769 280.343 59.362 280.343 57.0989C280.343 54.8358 282.257 52.9209 284.519 52.9209C286.782 52.9209 288.696 54.6617 288.696 57.0989Z" fill="#1C1B18" fill-opacity="0.3"/>
<path d="M153.31 225.959C153.31 228.048 151.57 229.789 149.481 229.789C147.393 229.789 145.653 228.048 145.653 225.959C145.653 223.87 147.393 222.129 149.481 222.129C151.57 222.129 153.31 223.87 153.31 225.959Z" fill="#1C1B18" fill-opacity="0.05"/>
<path d="M200.817 312.825C200.817 314.74 199.251 316.307 197.336 316.307C195.422 316.307 193.856 314.74 193.856 312.825C193.856 310.911 195.422 309.344 197.336 309.344C199.251 309.344 200.817 310.911 200.817 312.825Z" fill="#1C1B18" fill-opacity="0.1"/>
<path d="M362.131 283.58C362.131 286.539 359.695 288.976 356.737 288.976C353.778 288.976 351.342 286.539 351.342 283.58C351.342 280.62 353.778 278.183 356.737 278.183C359.695 278.009 362.131 280.446 362.131 283.58Z" fill="#1C1B18" fill-opacity="0.3"/>
<path d="M156.79 184.179C154.868 184.179 153.31 185.738 153.31 187.66C153.31 189.583 154.868 191.142 156.79 191.142C158.712 191.142 160.271 189.583 160.271 187.66C160.271 185.738 158.712 184.179 156.79 184.179Z" fill="#1C1B18" fill-opacity="0.2"/>
<path d="M46.9847 74.5072C45.0626 74.5072 43.5044 76.066 43.5044 77.9888C43.5044 79.9117 45.0626 81.4705 46.9847 81.4705C48.9069 81.4705 50.4651 79.9117 50.4651 77.9888C50.4651 76.066 48.9069 74.5072 46.9847 74.5072Z" fill="#1C1B18" fill-opacity="0.3"/>
<path d="M308.012 190.62C308.012 192.535 306.446 194.102 304.531 194.102C302.617 194.102 301.051 192.535 301.051 190.62C301.051 188.705 302.617 187.138 304.531 187.138C306.446 187.138 308.012 188.705 308.012 190.62Z" fill="#1C1B18" fill-opacity="0.05"/>
<path d="M230.4 102.186C230.4 104.101 228.833 105.668 226.919 105.668C225.005 105.668 223.439 104.101 223.439 102.186C223.439 100.271 225.005 98.7047 226.919 98.7047C228.833 98.7047 230.4 100.271 230.4 102.186Z" fill="#1C1B18" fill-opacity="0.05"/>
<path d="M278.603 48.5689C278.603 50.4838 277.037 52.0505 275.122 52.0505C273.208 52.0505 271.642 50.4838 271.642 48.5689C271.642 46.654 273.208 45.0873 275.122 45.0873C277.037 45.0873 278.603 46.654 278.603 48.5689Z" fill="#1C1B18" fill-opacity="0.3"/>
<path d="M491.079 190.62C488.099 190.62 485.684 193.036 485.684 196.017C485.684 198.997 488.099 201.413 491.079 201.413C494.058 201.413 496.473 198.997 496.473 196.017C496.473 193.036 494.058 190.62 491.079 190.62Z" fill="#1C1B18" fill-opacity="0.3"/>
<path d="M480.637 171.471C480.637 173.56 478.897 175.301 476.809 175.301C474.721 175.301 472.981 173.56 472.981 171.471C472.981 169.382 474.721 167.641 476.809 167.641C478.897 167.641 480.637 169.382 480.637 171.471Z" fill="#1C1B18" fill-opacity="0.2"/>
<path d="M265.551 288.976C265.551 293.154 262.245 296.462 258.069 296.462C253.892 296.462 250.586 293.154 250.586 288.976C250.586 284.798 253.892 281.491 258.069 281.491C262.245 281.491 265.551 284.972 265.551 288.976Z" fill="#1C1B18" fill-opacity="0.05"/>
<path d="M358.303 233.096C358.303 235.011 356.737 236.578 354.823 236.578C352.908 236.578 351.342 235.011 351.342 233.096C351.342 231.181 352.908 229.614 354.823 229.614C356.737 229.614 358.303 231.181 358.303 233.096Z" fill="#FFE396"/>
<path d="M391.54 294.547C391.54 296.636 389.8 298.376 387.712 298.376C385.624 298.376 383.883 296.636 383.883 294.547C383.883 292.458 385.624 290.717 387.712 290.717C389.8 290.717 391.54 292.458 391.54 294.547Z" fill="#1C1B18" fill-opacity="0.1"/>
<path d="M254.762 267.39C252.456 267.39 250.586 269.261 250.586 271.568C250.586 273.876 252.456 275.746 254.762 275.746C257.069 275.746 258.939 273.876 258.939 271.568C258.939 269.261 257.069 267.39 254.762 267.39Z" fill="#1C1B18" fill-opacity="0.3"/>
<path d="M494.037 173.037C494.037 174.952 492.471 176.519 490.557 176.519C488.642 176.519 487.076 174.952 487.076 173.037C487.076 171.123 488.642 169.556 490.557 169.556C492.471 169.382 494.037 170.948 494.037 173.037Z" fill="#1C1B18" fill-opacity="0.05"/>
<path d="M285.041 165.9C283.023 165.9 281.387 167.537 281.387 169.556C281.387 171.575 283.023 173.212 285.041 173.212C287.06 173.212 288.696 171.575 288.696 169.556C288.696 167.537 287.06 165.9 285.041 165.9Z" fill="#1C1B18" fill-opacity="0.05"/>
<path d="M234.054 123.25C234.054 125.165 232.488 126.732 230.574 126.732C228.66 126.732 227.093 125.165 227.093 123.25C227.093 121.335 228.66 119.768 230.574 119.768C232.488 119.768 234.054 121.335 234.054 123.25Z" fill="#FFE396"/>
<path d="M81.4404 50.8321C81.4404 52.747 79.8743 54.3137 77.9601 54.3137C76.0459 54.3137 74.4797 52.747 74.4797 50.8321C74.4797 48.9171 76.0459 47.3504 77.9601 47.3504C79.8743 47.3504 81.4404 48.9171 81.4404 50.8321Z" fill="#1C1B18" fill-opacity="0.3"/>
<path d="M307.664 181.045C307.664 183.308 305.75 185.223 303.487 185.223C301.225 185.223 299.311 183.308 299.311 181.045C299.311 178.782 301.225 176.867 303.487 176.867C305.924 176.867 307.664 178.782 307.664 181.045Z" fill="#1C1B18" fill-opacity="0.2"/>
<path d="M226.397 294.199C226.397 296.113 224.831 297.68 222.917 297.68C221.003 297.68 219.437 296.113 219.437 294.199C219.437 292.284 221.003 290.717 222.917 290.717C224.831 290.717 226.397 292.284 226.397 294.199Z" fill="#1C1B18" fill-opacity="0.3"/>
<path d="M478.201 216.558C478.201 218.473 476.635 220.04 474.721 220.04C472.807 220.04 471.24 218.473 471.24 216.558C471.24 214.643 472.807 213.076 474.721 213.076C476.635 213.076 478.201 214.643 478.201 216.558Z" fill="#1C1B18" fill-opacity="0.2"/>
<path d="M190.376 215.862C190.376 217.777 188.81 219.518 186.721 219.518C184.807 219.518 183.067 217.951 183.067 215.862C183.067 213.947 184.633 212.206 186.721 212.206C188.81 212.206 190.376 213.773 190.376 215.862Z" fill="#1C1B18" fill-opacity="0.05"/>
<path d="M382.665 198.106C380.743 198.106 379.185 199.664 379.185 201.587C379.185 203.51 380.743 205.069 382.665 205.069C384.588 205.069 386.146 203.51 386.146 201.587C386.146 199.664 384.588 198.106 382.665 198.106Z" fill="#FFE396"/>
<path d="M214.39 269.131C214.39 271.22 212.65 272.96 210.562 272.96C208.474 272.96 206.733 271.22 206.733 269.131C206.733 267.042 208.474 265.301 210.562 265.301C212.65 265.301 214.39 267.042 214.39 269.131Z" fill="#1C1B18" fill-opacity="0.3"/>
<path d="M501.694 142.399C501.694 144.836 499.779 146.751 497.343 146.751C494.907 146.751 492.993 144.836 492.993 142.399C492.993 139.962 494.907 138.047 497.343 138.047C499.779 138.047 501.694 140.136 501.694 142.399Z" fill="#1C1B18" fill-opacity="0.05"/>
<path d="M307.49 231.355C307.49 233.618 305.576 235.533 303.313 235.533C301.051 235.533 299.137 233.618 299.137 231.355C299.137 229.092 301.051 227.177 303.313 227.177C305.576 227.177 307.49 229.092 307.49 231.355Z" fill="#1C1B18" fill-opacity="0.3"/>
<path d="M226.397 136.132C226.397 138.047 224.831 139.614 222.917 139.614C221.003 139.614 219.437 138.047 219.437 136.132C219.437 134.217 221.003 132.65 222.917 132.65C224.831 132.65 226.397 134.217 226.397 136.132Z" fill="#FEC72F"/>
<path d="M190.597 121.922C190.597 123.837 189.031 125.404 187.117 125.404C185.202 125.404 183.636 123.837 183.636 121.922C183.636 120.007 185.202 118.441 187.117 118.441C189.031 118.441 190.597 120.007 190.597 121.922Z" fill="#FEC72F"/>
<path d="M95.1543 56.6592C95.1543 58.5741 93.5881 60.1409 91.6739 60.1409C89.7597 60.1409 88.1935 58.5741 88.1935 56.6592C88.1935 54.7443 89.7597 53.1776 91.6739 53.1776C93.5881 53.1776 95.1543 54.7443 95.1543 56.6592Z" fill="#B08A2E"/>
<path d="M136.231 176.308C136.231 178.223 134.665 179.79 132.751 179.79C130.836 179.79 129.27 178.223 129.27 176.308C129.27 174.393 130.836 172.827 132.751 172.827C134.665 172.827 136.231 174.393 136.231 176.308Z" fill="#FEC72F"/>
<path d="M317.451 207.732C317.451 209.647 315.885 211.213 313.971 211.213C312.057 211.213 310.49 209.647 310.49 207.732C310.49 205.817 312.057 204.25 313.971 204.25C315.885 204.25 317.451 205.817 317.451 207.732Z" fill="#FEC72F"/>
<path d="M248.587 294.75C248.587 296.665 247.021 298.231 245.107 298.231C243.193 298.231 241.627 296.665 241.627 294.75C241.627 292.835 243.193 291.268 245.107 291.268C247.021 291.268 248.587 292.835 248.587 294.75Z" fill="#FEC72F"/>
<path d="M324.7 134.009C324.7 135.923 323.134 137.49 321.22 137.49C319.305 137.49 317.739 135.923 317.739 134.009C317.739 132.094 319.305 130.527 321.22 130.527C323.134 130.527 324.7 132.094 324.7 134.009Z" fill="#FEC72F"/>
<path d="M273.958 72.3706C273.958 74.2855 272.392 75.8523 270.478 75.8523C268.564 75.8523 266.998 74.2855 266.998 72.3706C266.998 70.4557 268.564 68.8889 270.478 68.8889C272.392 68.8889 273.958 70.4557 273.958 72.3706Z" fill="#B08A2E"/>
<path d="M275.166 212.566C275.166 214.481 273.6 216.047 271.686 216.047C269.772 216.047 268.206 214.481 268.206 212.566C268.206 210.651 269.772 209.084 271.686 209.084C273.6 209.084 275.166 210.651 275.166 212.566Z" fill="#B08A2E"/>
<path d="M198.032 186.964C198.032 189.576 195.944 191.665 193.334 191.665C190.724 191.665 188.635 189.576 188.635 186.964C188.635 184.353 190.724 182.264 193.334 182.264C195.944 182.264 198.032 184.353 198.032 186.964Z" fill="#FFE396"/>
<path d="M320.889 330.234C320.889 332.149 319.323 333.715 317.409 333.715C315.495 333.715 313.928 332.149 313.928 330.234C313.928 328.319 315.495 326.752 317.409 326.752C319.323 326.752 320.889 328.319 320.889 330.234Z" fill="#1C1B18" fill-opacity="0.05"/>
<path d="M451.576 260.427C451.576 262.516 450.01 264.083 447.922 264.083C445.834 264.083 444.268 262.516 444.268 260.427C444.268 258.338 445.834 256.771 447.922 256.771C450.01 256.771 451.576 258.512 451.576 260.427Z" fill="#1C1B18" fill-opacity="0.1"/>
<path d="M399.545 152.148C399.545 154.063 397.979 155.629 396.065 155.629C394.151 155.629 392.584 154.063 392.584 152.148C392.584 150.233 394.151 148.666 396.065 148.666C397.979 148.666 399.545 150.233 399.545 152.148Z" fill="#FEC72F"/>
<path d="M218.219 345.379C218.219 349.383 214.912 352.69 210.91 352.69C206.907 352.69 203.601 349.383 203.601 345.379C203.601 341.375 206.907 338.068 210.91 338.068C214.912 338.068 218.219 341.375 218.219 345.379Z" fill="#1C1B18" fill-opacity="0.05"/>
<path d="M311.144 110.02C311.144 111.935 309.578 113.501 307.664 113.501C305.749 113.501 304.183 111.935 304.183 110.02C304.183 108.105 305.749 106.538 307.664 106.538C309.578 106.538 311.144 108.105 311.144 110.02Z" fill="#1C1B18" fill-opacity="0.05"/>
<path d="M358.825 161.548C358.825 163.463 357.259 165.03 355.345 165.03C353.43 165.03 351.864 163.463 351.864 161.548C351.864 159.633 353.43 158.067 355.345 158.067C357.259 158.067 358.825 159.633 358.825 161.548Z" fill="#1C1B18" fill-opacity="0.1"/>
<path d="M292.35 340.679C292.35 342.593 290.784 344.16 288.87 344.16C286.956 344.16 285.389 342.593 285.389 340.679C285.389 338.764 286.956 337.197 288.87 337.197C290.784 337.023 292.35 338.59 292.35 340.679Z" fill="#1C1B18" fill-opacity="0.2"/>
<path d="M209.865 156.5C209.865 158.415 208.299 159.981 206.385 159.981C204.471 159.981 202.905 158.415 202.905 156.5C202.905 154.585 204.471 153.018 206.385 153.018C208.299 153.018 209.865 154.585 209.865 156.5Z" fill="#1C1B18" fill-opacity="0.05"/>
<path d="M35.8477 81.4705C35.8477 83.3854 34.2815 84.9521 32.3673 84.9521C30.4531 84.9521 28.8869 83.3854 28.8869 81.4705C28.8869 79.5556 30.4531 77.9889 32.3673 77.9889C34.2815 77.9889 35.8477 79.5556 35.8477 81.4705Z" fill="#FFE396"/>
<path d="M33.2375 113.676C33.2375 115.591 31.6714 117.157 29.7572 117.157C27.843 117.157 26.2769 115.591 26.2769 113.676C26.2769 111.761 27.843 110.194 29.7572 110.194C31.6714 110.194 33.2375 111.761 33.2375 113.676Z" fill="#1C1B18" fill-opacity="0.05"/>
<path d="M379.707 164.682C377.689 164.682 376.053 166.318 376.053 168.337C376.053 170.356 377.689 171.993 379.707 171.993C381.725 171.993 383.362 170.356 383.362 168.337C383.362 166.318 381.725 164.682 379.707 164.682Z" fill="#1C1B18" fill-opacity="0.3"/>
<path d="M333.07 313.174C333.07 315.437 331.156 317.352 328.894 317.352C326.632 317.352 324.717 315.437 324.717 313.174C324.717 310.911 326.632 308.996 328.894 308.996C331.156 308.996 333.07 310.911 333.07 313.174Z" fill="#1C1B18" fill-opacity="0.1"/>
<path d="M455.057 129.691C455.057 131.78 453.317 133.521 451.228 133.521C449.14 133.521 447.4 131.78 447.4 129.691C447.4 127.602 449.14 125.861 451.228 125.861C453.317 125.861 455.057 127.602 455.057 129.691Z" fill="#1C1B18" fill-opacity="0.1"/>
<path d="M369.788 266.346C369.788 270.176 366.656 273.309 362.827 273.309C358.999 273.309 355.867 270.176 355.867 266.346C355.867 262.516 358.999 259.383 362.827 259.383C366.656 259.383 369.788 262.516 369.788 266.346Z" fill="#1C1B18" fill-opacity="0.2"/>
<path d="M234.576 215.166C234.576 217.603 232.662 219.518 230.226 219.518C227.789 219.518 225.875 217.603 225.875 215.166C225.875 212.728 227.789 210.813 230.226 210.813C232.662 210.813 234.576 212.728 234.576 215.166Z" fill="#1C1B18" fill-opacity="0.05"/>
<path d="M480.986 157.544C480.986 159.459 479.419 161.026 477.505 161.026C475.591 161.026 474.025 159.459 474.025 157.544C474.025 155.629 475.591 154.063 477.505 154.063C479.419 154.063 480.986 155.629 480.986 157.544Z" fill="#1C1B18" fill-opacity="0.2"/>
<path d="M484.814 225.436C484.814 227.699 482.9 229.614 480.638 229.614C478.375 229.614 476.461 227.699 476.461 225.436C476.461 223.173 478.375 221.258 480.638 221.258C482.9 221.084 484.814 222.999 484.814 225.436Z" fill="#1C1B18" fill-opacity="0.05"/>
<path d="M458.885 198.106C456.963 198.106 455.405 199.664 455.405 201.587C455.405 203.51 456.963 205.069 458.885 205.069C460.808 205.069 462.366 203.51 462.366 201.587C462.366 199.664 460.808 198.106 458.885 198.106Z" fill="#1C1B18" fill-opacity="0.3"/>
<path d="M296.004 254.508C296.004 256.423 294.438 257.99 292.524 257.99C290.61 257.99 289.044 256.423 289.044 254.508C289.044 252.593 290.61 251.026 292.524 251.026C294.438 251.026 296.004 252.593 296.004 254.508Z" fill="#1C1B18" fill-opacity="0.2"/>
<path d="M416.773 191.838C416.773 193.753 415.207 195.32 413.293 195.32C411.378 195.32 409.812 193.753 409.812 191.838C409.812 189.923 411.378 188.357 413.293 188.357C415.207 188.357 416.773 189.923 416.773 191.838Z" fill="#1C1B18" fill-opacity="0.05"/>
<path d="M176.106 243.367C176.106 245.282 174.54 246.849 172.626 246.849C170.712 246.849 169.146 245.282 169.146 243.367C169.146 241.452 170.712 239.885 172.626 239.885C174.54 239.711 176.106 241.278 176.106 243.367Z" fill="#1C1B18" fill-opacity="0.3"/>
<path d="M237.883 257.467C235.768 257.467 234.054 259.182 234.054 261.297C234.054 263.412 235.768 265.127 237.883 265.127C239.997 265.127 241.711 263.412 241.711 261.297C241.711 259.182 239.997 257.467 237.883 257.467Z" fill="#1C1B18" fill-opacity="0.2"/>
<path d="M215.086 276.268C215.086 278.183 213.52 279.75 211.606 279.75C209.692 279.75 208.126 278.183 208.126 276.268C208.126 274.353 209.692 272.787 211.606 272.787C213.52 272.787 215.086 274.353 215.086 276.268Z" fill="#1C1B18" fill-opacity="0.2"/>
<path d="M420.427 271.916C420.427 274.353 418.513 276.268 416.077 276.268C413.641 276.268 411.726 274.353 411.726 271.916C411.726 269.479 413.641 267.564 416.077 267.564C418.513 267.564 420.427 269.479 420.427 271.916Z" fill="#1C1B18" fill-opacity="0.3"/>
<path d="M202.557 232.574C202.557 234.663 200.991 236.229 198.903 236.229C196.814 236.229 195.248 234.663 195.248 232.574C195.248 230.485 196.814 228.918 198.903 228.918C200.991 228.918 202.557 230.659 202.557 232.574Z" fill="#1C1B18" fill-opacity="0.1"/>
<path d="M211.954 230.659C211.954 232.748 210.214 234.489 208.125 234.489C206.037 234.489 204.297 232.748 204.297 230.659C204.297 228.57 206.037 226.829 208.125 226.829C210.214 226.829 211.954 228.57 211.954 230.659Z" fill="#1C1B18" fill-opacity="0.2"/>
<path d="M333.418 203.502C333.418 205.765 331.678 207.506 329.416 207.506C327.154 207.506 325.414 205.765 325.414 203.502C325.414 201.239 327.154 199.498 329.416 199.498C331.504 199.498 333.418 201.239 333.418 203.502Z" fill="#1C1B18" fill-opacity="0.05"/>
<path d="M242.755 158.241C242.755 160.678 240.841 162.593 238.405 162.593C235.968 162.593 234.054 160.678 234.054 158.241C234.054 155.804 235.968 153.889 238.405 153.889C240.841 153.889 242.755 155.804 242.755 158.241Z" fill="#1C1B18" fill-opacity="0.3"/>
<path d="M140.955 29.594C140.955 32.0312 139.04 33.946 136.604 33.946C134.168 33.946 132.254 32.0312 132.254 29.594C132.254 27.1569 134.168 25.242 136.604 25.242C139.04 25.242 140.955 27.1569 140.955 29.594Z" fill="#1C1B18" fill-opacity="0.3"/>
<path d="M211.78 190.794C211.78 192.709 210.214 194.45 208.125 194.45C206.211 194.45 204.471 192.883 204.471 190.794C204.471 188.879 206.037 187.138 208.125 187.138C210.04 187.138 211.78 188.879 211.78 190.794Z" fill="#1C1B18" fill-opacity="0.05"/>
<path d="M93.9697 46.1319C93.9697 48.0468 92.4036 49.7876 90.3154 49.7876C88.4012 49.7876 86.661 48.2208 86.661 46.1319C86.661 44.217 88.2272 42.4761 90.3154 42.4761C92.2295 42.6502 93.9697 44.217 93.9697 46.1319Z" fill="#1C1B18" fill-opacity="0.05"/>
<path d="M250.412 271.22C250.412 273.135 248.846 274.702 246.932 274.702C245.017 274.702 243.451 273.135 243.451 271.22C243.451 269.305 245.017 267.738 246.932 267.738C248.846 267.738 250.412 269.305 250.412 271.22Z" fill="#1C1B18" fill-opacity="0.1"/>
<path d="M434.001 170.949C434.001 173.734 431.738 175.997 428.954 175.997C426.17 175.997 423.908 173.734 423.908 170.949C423.908 168.163 426.17 165.9 428.954 165.9C431.913 166.074 434.001 168.163 434.001 170.949Z" fill="#FEC72F"/>
<path d="M206.037 272.438C206.037 274.875 204.123 276.616 201.861 276.616C199.599 276.616 197.684 274.701 197.684 272.438C197.684 270.001 199.599 268.26 201.861 268.26C204.123 268.26 206.037 270.175 206.037 272.438Z" fill="#1C1B18" fill-opacity="0.1"/>
<path d="M183.415 265.997C183.415 267.912 181.849 269.479 179.935 269.479C178.02 269.479 176.454 267.912 176.454 265.997C176.454 264.082 178.02 262.516 179.935 262.516C181.849 262.516 183.415 264.082 183.415 265.997Z" fill="#1C1B18" fill-opacity="0.05"/>
<path d="M264.855 201.239C264.855 203.154 263.289 204.895 261.201 204.895C259.287 204.895 257.546 203.328 257.546 201.239C257.546 199.15 259.113 197.583 261.201 197.583C263.115 197.583 264.855 199.324 264.855 201.239Z" fill="#1C1B18" fill-opacity="0.2"/>
<path d="M452.969 251.2C452.969 253.115 451.403 254.856 449.314 254.856C447.4 254.856 445.66 253.289 445.66 251.2C445.66 249.285 447.226 247.545 449.314 247.545C451.403 247.545 452.969 249.111 452.969 251.2Z" fill="#1C1B18" fill-opacity="0.05"/>
<path d="M346.644 244.934C346.644 246.849 345.078 248.589 342.989 248.589C341.075 248.589 339.335 247.023 339.335 244.934C339.335 243.019 340.901 241.278 342.989 241.278C345.078 241.278 346.644 243.019 346.644 244.934Z" fill="#1C1B18" fill-opacity="0.05"/>
<path d="M265.899 264.953C265.899 267.042 264.159 268.957 261.897 268.957C259.809 268.957 257.895 267.216 257.895 264.953C257.895 262.864 259.635 260.949 261.897 260.949C264.159 260.949 265.899 262.69 265.899 264.953Z" fill="#1C1B18" fill-opacity="0.05"/>
<path d="M181.153 392.729C181.153 398.474 176.454 403 170.886 403C165.143 403 160.619 398.3 160.619 392.729C160.619 386.984 165.317 382.458 170.886 382.458C176.628 382.284 181.153 386.984 181.153 392.729Z" fill="#1C1B18" fill-opacity="0.3"/>
<path d="M194.9 389.77C194.9 392.729 192.464 394.992 189.68 394.992C186.721 394.992 184.459 392.555 184.459 389.77C184.459 386.984 186.895 384.547 189.68 384.547C192.638 384.547 194.9 386.81 194.9 389.77Z" fill="#FEC72F"/>
<path d="M218.219 385.766C218.219 387.681 216.652 389.248 214.738 389.248C212.824 389.248 211.258 387.681 211.258 385.766C211.258 383.851 212.824 382.284 214.738 382.284C216.652 382.284 218.219 383.851 218.219 385.766Z" fill="#1C1B18" fill-opacity="0.05"/>
<path d="M471.763 145.533C471.763 147.448 470.197 149.014 468.282 149.014C466.368 149.014 464.802 147.448 464.802 145.533C464.802 143.618 466.368 142.051 468.282 142.051C470.197 142.051 471.763 143.618 471.763 145.533Z" fill="#FEC72F"/>
</g>
<defs>
<clipPath id="clip0">
<rect width="505" height="403" fill="white" transform="translate(505 403) rotate(-180)"/>
</clipPath>
</defs>
</svg>
