<svg width="30" height="32" viewBox="0 0 30 32" fill="none" xmlns="http://www.w3.org/2000/svg">
<path d="M3.26759 6.54528L3.26761 6.54526L12.6743 1.12021C12.6743 1.12021 12.6744 1.1202 12.6744 1.1202C14.1083 0.293286 15.8918 0.293247 17.3256 1.1202L26.7325 6.54526C28.1692 7.37384 29.0625 8.92039 29.0625 10.5791V21.4208C29.0625 23.0796 28.1692 24.6262 26.7324 25.4547L26.7324 25.4547L17.3256 30.8798C15.8919 31.7066 14.1085 31.7069 12.6744 30.8798L3.26754 25.4547L3.26753 25.4547C1.83083 24.6262 0.9375 23.0796 0.9375 21.4208V10.5791C0.9375 8.92032 1.83082 7.37379 3.26759 6.54528ZM25.9832 7.84507L25.7368 8.27238L25.9832 7.84506L16.5764 2.42008C16.5764 2.42007 16.5764 2.42007 16.5764 2.42006C15.6038 1.85911 14.3966 1.85889 13.4236 2.42006C13.4236 2.42007 13.4236 2.42007 13.4236 2.42007L4.01686 7.84511C3.04211 8.40716 2.4375 9.45401 2.4375 10.5791V21.4208C2.4375 22.546 3.04212 23.5928 4.01676 24.1549L4.26656 23.7218L4.01677 24.1549L13.4236 29.5799C13.4236 29.5799 13.4236 29.5799 13.4236 29.58C14.3965 30.1411 15.6035 30.1411 16.5764 29.5799L25.9831 24.1549C25.9831 24.1549 25.9832 24.1549 25.9832 24.1549C26.9579 23.5928 27.5625 22.546 27.5625 21.4208V10.5791C27.5625 9.45394 26.9579 8.40718 25.9832 7.84507Z" fill="#121331" stroke="#121331"/>
<path d="M8.84578 11.4983L8.8458 11.4983L13.4884 15.4273C13.8418 15.7264 13.8425 16.273 13.4884 16.5727L13.4884 16.5727L8.8458 20.5016L8.84578 20.5016C8.53031 20.7686 8.05697 20.7304 7.78887 20.4136C7.52126 20.0972 7.56073 19.6239 7.87693 19.3563L11.3918 16.3817L11.8428 16L11.3918 15.6184L7.87693 12.6437C7.87693 12.6437 7.87693 12.6437 7.87693 12.6437C7.5607 12.3761 7.52123 11.9027 7.78884 11.5864C8.0564 11.2701 8.52966 11.2307 8.84578 11.4983Z" fill="#FEBF10" stroke="#FEBF10"/>
<path d="M16.0137 19.1787H21.6384C22.0525 19.1787 22.3884 19.5145 22.3884 19.9289C22.3884 20.3433 22.0525 20.6791 21.6384 20.6791H16.0137C15.5995 20.6791 15.2637 20.3433 15.2637 19.9289C15.2637 19.5145 15.5995 19.1787 16.0137 19.1787Z" fill="#FEBF10" stroke="#FEBF10"/>
</svg>
