<svg width="169" height="70" viewBox="0 0 169 70" fill="none" xmlns="http://www.w3.org/2000/svg">
<g clip-path="url(#clip0)">
<path d="M12.5172 54.148C12.0898 52.027 10.8498 50.7185 8.62763 50.7185C5.98126 50.7185 4.57486 52.5165 4.57486 56.8303V60.0412C4.57486 64.2245 5.98126 66.153 8.62763 66.153C10.9118 66.153 12.0245 65.0109 12.5172 62.7202H16.8604C16.1099 67.7878 13.271 70.01 8.62763 70.01C3.5633 70.0002 0 66.9263 0 60.0412V56.8401C0 49.8799 3.5633 46.8713 8.62763 46.8713C13.1046 46.8713 16.1328 49.224 16.8963 54.1578L12.5172 54.148Z" fill="#B08A2E"/>
<path d="M49.6741 59.4441L55.9491 47.1553H60.2955V69.7033H55.9164V55.7176L51.0218 65.6538H48.2449L43.3992 55.8155V69.7033H39.0527V47.1553H43.3339L49.6741 59.4441Z" fill="#B08A2E"/>
<path d="M68.9884 61.7642V69.7033H64.42V47.1553H72.493C77.6878 47.1553 80.9248 49.5406 80.9248 54.3765C80.9248 59.1504 77.7204 61.7642 72.493 61.7642H68.9884ZM71.8305 57.9072C74.999 57.9072 76.3401 56.7977 76.3401 54.3765C76.3401 52.2229 74.999 51.0449 71.8305 51.0449H68.9884V57.8974L71.8305 57.9072Z" fill="#B08A2E"/>
<path d="M97.4166 47.1553V51.0449H87.9536V56.6346H96.4377V60.4883H87.9536V69.7033H83.3853V47.1553H97.4166Z" fill="#B08A2E"/>
<path d="M104.967 69.7033H100.399V47.1553H104.967V69.7033Z" fill="#B08A2E"/>
<path d="M121.714 69.7033L117.661 60.8472H113.987V69.7033H109.418V47.1553H117.472C122.67 47.1553 125.903 49.4753 125.903 54.0502C125.903 57.0914 124.497 59.0852 122.046 60.0967L126.722 69.7033H121.714ZM117.073 56.9772C119.785 56.9772 121.355 56.3898 121.355 54.0404C121.355 51.691 119.785 51.0351 117.073 51.0351H114.003V56.9837L117.073 56.9772Z" fill="#B08A2E"/>
<path d="M143.299 47.1553V51.0449H133.836V56.1255H142.32V59.9825H133.836V65.8561H143.299V69.7098H129.248V47.1618L143.299 47.1553Z" fill="#B08A2E"/>
<path d="M157.875 53.0059C156.896 51.469 155.718 50.7217 153.431 50.7217C151.372 50.7217 150.259 51.668 150.259 53.205C150.259 54.9703 151.698 55.7534 154.704 56.5039C159.409 57.6819 161.533 59.4407 161.533 63.4348C161.533 67.1253 159.05 70.0034 153.757 70.0034C149.802 70.0034 147.058 68.9233 145.064 66.3096L148.562 63.8916C149.77 65.3959 151.143 66.1464 153.457 66.1464C156.067 66.1464 156.952 65.0043 156.952 63.6306C156.952 62.061 156.005 61.18 152.344 60.2304C147.9 59.0557 145.678 56.9314 145.678 53.205C145.678 49.6416 148.03 46.8647 153.392 46.8647C156.981 46.8647 159.699 48.0754 161.298 50.5586L157.875 53.0059Z" fill="#B08A2E"/>
<path d="M24.6723 61.5684L27.2208 53.626L29.7725 61.5684L32.383 69.7033H37.2516L29.4201 47.1553H25.0313L17.1998 69.7033H22.0945L24.6723 61.5684Z" fill="#B08A2E"/>
<path d="M148.171 33.7763H133.457H133.366L122.392 0L119.194 9.20194L129.098 39.6434H140.356L148.171 33.7763Z" fill="#FDBE10"/>
<path d="M115.458 39.5454L118.937 28.8359L115.771 19.5916L111.226 33.587L111.197 33.6718H75.6843L83.4472 39.5585L115.458 39.5454Z" fill="#AF892E"/>
<path d="M168.758 33.9002L159.017 33.7012L150.843 39.6433H160.851L168.758 33.9002Z" fill="#FDBE10"/>
</g>
<defs>
<clipPath id="clip0">
<rect width="168.758" height="70" fill="white"/>
</clipPath>
</defs>
</svg>
