<svg width="32" height="32" viewBox="0 0 32 32" fill="none" xmlns="http://www.w3.org/2000/svg">
<g clip-path="url(#clip0)">
<path d="M7.87925 7.99388L7.87933 7.99387C8.1174 7.95275 8.27708 7.72662 8.23613 7.48835L7.87925 7.99388ZM7.87925 7.99388C7.64201 8.0349 7.41497 7.87559 7.37393 7.6373L7.3739 7.6371C6.72861 3.89938 9.61577 0.5 13.3785 0.5C17.1451 0.5 20.0189 3.89945 19.3858 7.62238C19.3452 7.86107 19.1191 8.0211 18.8813 7.98052L18.8811 7.98048M7.87925 7.99388L18.8811 7.98048M18.8811 7.98048C18.6429 7.93992 18.4826 7.714 18.5231 7.47554C19.0675 4.27516 16.5954 1.375 13.3785 1.375C10.1516 1.375 7.68412 4.28914 8.2361 7.48819L18.8811 7.98048Z" fill="#1C1B18" stroke="#FEBF10"/>
<path d="M6.69774 22.4763C6.33519 22.0964 6.35252 21.4902 6.74803 21.1323C7.12083 20.7956 7.71873 20.8303 8.08079 21.2094L6.69774 22.4763ZM6.69774 22.4763L6.33505 22.8204C6.33445 22.8198 6.33958 22.8253 6.3532 22.8398L6.40771 22.8979L6.61094 23.1146L7.32975 23.8812L9.50217 26.1982L9.61429 26.3178C11.1261 27.9303 12.6068 29.5095 12.6713 29.5782C13.2954 30.244 14.1753 30.6252 15.0879 30.6252H22.7219C24.5488 30.6252 26.0344 29.1396 26.0344 27.3127V17.5627C26.0344 16.7697 25.3899 16.1252 24.5969 16.1252C23.8039 16.1252 23.1594 16.7697 23.1594 17.5627V17.8752C23.1594 18.1169 22.9636 18.3127 22.7219 18.3127C22.4802 18.3127 22.2844 18.1169 22.2844 17.8752V16.3127C22.2844 15.5197 21.6399 14.8752 20.8469 14.8752C20.0539 14.8752 19.4094 15.5197 19.4094 16.3127V17.8752C19.4094 18.1169 19.2136 18.3127 18.9719 18.3127C18.7302 18.3127 18.5344 18.1169 18.5344 17.8752V15.0627C18.5344 14.2697 17.8899 13.6252 17.0969 13.6252C16.3961 13.6252 15.814 14.1274 15.6861 14.7896L15.677 14.8366V14.8845V17.8752C15.677 18.118 15.479 18.3147 15.2358 18.3122L15.2358 18.3121M6.69774 22.4763L6.33603 22.8215C5.78052 22.2394 5.80705 21.3094 6.41254 20.7615M6.41254 20.7615L6.41292 20.7612C7.00089 20.2302 7.90693 20.3034 8.4424 20.8641L11.1592 23.7091L11.1593 23.7092C11.4303 23.9931 11.9131 23.7997 11.9131 23.4072V6.62518C11.9131 5.81436 12.5848 5.16555 13.398 5.18811L6.41254 20.7615ZM6.41254 20.7615L15.2358 18.3121M15.2358 18.3121L15.2256 18.3122M15.2358 18.3121L15.2256 18.3122M15.2256 18.3122C14.982 18.3147 14.7844 18.118 14.7844 17.8752C14.7844 15.5165 14.7876 14.9959 14.7912 14.3956C14.7918 14.2873 14.7925 14.1763 14.7932 14.0515C14.7976 13.2331 14.802 11.8219 14.802 6.664C14.802 5.88484 14.1906 5.21001 13.3982 5.18812L15.2256 18.3122ZM22.9085 15.2674L23.1328 15.7077L23.5757 15.4886C25.1066 14.7312 26.9094 15.8548 26.9094 17.5627V27.3127C26.9094 29.6213 25.0305 31.5002 22.7219 31.5002H15.0879C13.9355 31.5002 12.821 31.0173 12.033 30.177C12.0329 30.177 12.0329 30.177 12.0329 30.177L5.70338 23.4258L5.70076 23.423C4.80654 22.4836 4.85518 20.99 5.82622 20.1123L5.82625 20.1123C6.73929 19.2869 8.20068 19.3441 9.07544 20.2599L10.1767 21.4131L11.0383 22.3154V21.0678V6.62518C11.0383 5.3206 12.1171 4.27648 13.4211 4.31346L13.4216 4.31347C14.6575 4.3474 15.677 5.39919 15.677 6.664V12.4055V13.1083L16.341 12.8778C17.4313 12.4993 18.6325 12.985 19.1585 14.0174L19.3828 14.4578L19.8257 14.2386C20.9537 13.6806 22.33 14.1319 22.9085 15.2674Z" fill="#121331" stroke="#121331"/>
</g>
<defs>
<clipPath id="clip0">
<rect width="32" height="32" fill="white"/>
</clipPath>
</defs>
</svg>
