<svg width="16" height="16" viewBox="0 0 16 16" fill="none" xmlns="http://www.w3.org/2000/svg">
<path fill-rule="evenodd" clip-rule="evenodd" d="M8.44263 9.70781L3.29817 14.8452C2.95001 15.1929 2.38594 15.1924 2.03829 14.8443C1.69065 14.4961 1.69107 13.932 2.03923 13.5844L7.18328 8.44741L2.03853 3.29836C1.69078 2.9503 1.69103 2.38623 2.0391 2.03848C2.38716 1.69073 2.95123 1.69099 3.29898 2.03905L8.44402 7.18839L13.6012 2.03829C13.9494 1.69065 14.5134 1.69107 14.8611 2.03923C15.2087 2.38739 15.2083 2.95146 14.8601 3.29911L9.70337 8.4488L14.8588 13.6085C15.2065 13.9566 15.2063 14.5206 14.8582 14.8684C14.5101 15.2161 13.9461 15.2159 13.5983 14.8678L8.44263 9.70781Z" fill="#1C1B18" fill-opacity="0.5"/>
</svg>
