<svg width="12" height="12" viewBox="0 0 12 12" fill="none" xmlns="http://www.w3.org/2000/svg">
<path d="M9 10H2V3H4V1H1C0.734784 1 0.48043 1.10536 0.292893 1.29289C0.105357 1.48043 0 1.73478 0 2L0 11C0 11.2652 0.105357 11.5196 0.292893 11.7071C0.48043 11.8946 0.734784 12 1 12H10C10.2652 12 10.5196 11.8946 10.7071 11.7071C10.8946 11.5196 11 11.2652 11 11V8H9V10Z" fill="#B08A2E"/>
<path d="M11.581 0.413007C11.4501 0.281964 11.2947 0.178004 11.1236 0.107073C10.9526 0.0361431 10.7692 -0.000366211 10.584 -0.000366211C10.3988 -0.000366211 10.2154 0.0361431 10.0444 0.107073C9.87328 0.178004 9.71786 0.281964 9.587 0.413007L5 5.00001L4 8.00001L7 7.00001L11.587 2.41301C11.718 2.28214 11.822 2.12673 11.8929 1.95566C11.9639 1.78458 12.0004 1.6012 12.0004 1.41601C12.0004 1.23081 11.9639 1.04743 11.8929 0.876358C11.822 0.705283 11.718 0.54987 11.587 0.419007L11.581 0.413007Z" fill="#B08A2E"/>
</svg>
