<svg width="500" height="500" viewBox="0 0 500 500" fill="none" xmlns="http://www.w3.org/2000/svg">
<rect width="500" height="500" fill="#1C1B18"/>
<path d="M297.911 204.949H297.522L250.443 60L236.721 99.4845L279.183 230.107H327.513L361.043 204.949H297.911Z" fill="#FEBF10"/>
<path d="M202.501 204.129L202.414 204.474H50L83.3137 229.761L220.668 229.675L235.598 183.761L222.005 144.061L202.501 204.129Z" fill="#B58D2E"/>
<path d="M172.639 293.929L172.941 294.145L125.861 439.094L160.168 415.188L202.586 284.522L163.49 256.128L121.546 256.818L172.639 293.929Z" fill="#B58D2E"/>
<path d="M249.366 350.631L249.668 350.416L372.954 440L360.828 399.998L249.668 319.303L210.572 347.697L198.273 387.742L249.366 350.631Z" fill="#FEBF10"/>
<path d="M326.221 295.396L326.091 295.051L449.378 205.467L407.606 204.604L296.489 285.385L311.419 331.342L345.725 355.465L326.221 295.396Z" fill="#FEBF10"/>
</svg>
