<svg width="56" height="56" viewBox="0 0 56 56" fill="none" xmlns="http://www.w3.org/2000/svg">
<path d="M27.9875 54.5676C28.0317 49.9183 28.0757 42.6727 28.0757 27.9996C28.0757 13.3268 28.0317 9.80063 27.9875 1.43164M27.9875 54.5676C18.9389 54.5676 11.6036 42.6727 11.6036 27.9996C11.6036 13.3268 18.9389 1.43164 27.9875 1.43164V54.5676Z" stroke="#FDBE10" stroke-width="2" stroke-linecap="round" stroke-linejoin="round"/>
<path d="M1.41949 27.9996H54.5555M27.9875 54.5676C37.3293 54.5676 44.9023 42.6727 44.9023 27.9996C44.9023 13.3268 37.3293 1.43164 27.9875 1.43164V54.5676Z" stroke="#FDBE10" stroke-width="2" stroke-linecap="round" stroke-linejoin="round"/>
<path d="M10.8123 48.2658C15.4405 45.8429 21.4343 44.3816 27.9859 44.3816C34.5376 44.3816 40.5313 45.8429 45.1648 48.2658M45.1648 7.73474C40.5366 10.1577 34.5429 11.619 27.9914 11.619C21.4395 11.619 15.4458 10.1577 10.8123 7.73474H45.1648Z" stroke="#FDBE10" stroke-width="2" stroke-linecap="round" stroke-linejoin="round"/>
<path d="M54.5559 28C54.5559 42.673 42.6609 54.568 27.9879 54.568C13.315 54.568 1.41992 42.673 1.41992 28C1.41992 13.327 13.315 1.43201 27.9879 1.43201C42.6609 1.43201 54.5559 13.327 54.5559 28Z" stroke="#121331" stroke-width="2" stroke-linecap="round" stroke-linejoin="round"/>
</svg>
