<svg width="17" height="17" viewBox="0 0 17 17" fill="none" xmlns="http://www.w3.org/2000/svg">
<path d="M15.92 10.746L10.9047 15.762C10.8582 15.8083 10.799 15.8398 10.7347 15.8526L8.82334 16.2346C8.76957 16.2453 8.71399 16.2426 8.66152 16.2267C8.60906 16.2108 8.56133 16.1822 8.52256 16.1434C8.48379 16.1046 8.45518 16.0569 8.43927 16.0044C8.42336 15.952 8.42064 15.8964 8.43134 15.8426L8.81334 13.932C8.82636 13.8675 8.85813 13.8084 8.90468 13.762L13.92 8.74596C14.1845 8.48151 14.5433 8.33295 14.9173 8.33295C15.2914 8.33295 15.6501 8.48151 15.9147 8.74596L15.92 8.75196C16.1844 9.01639 16.333 9.37502 16.333 9.74896C16.333 10.1229 16.1844 10.4815 15.92 10.746V10.746Z" stroke="#B08A2E" stroke-linecap="round" stroke-linejoin="round"/>
<path d="M8.33333 11.6667H1C1.00894 10.905 1.1675 10.1525 1.46667 9.452C1.79333 8.798 3.15933 8.34467 4.874 7.70933C5.33733 7.538 5.26133 6.32733 5.056 6.10133C4.72847 5.74717 4.47955 5.32773 4.32559 4.87056C4.17163 4.41338 4.1161 3.92882 4.16267 3.44867C4.13328 3.14307 4.16715 2.83469 4.26218 2.54276C4.35721 2.25082 4.51136 1.9816 4.71502 1.75186C4.91867 1.52212 5.16747 1.3368 5.4459 1.20744C5.72432 1.07809 6.02641 1.00747 6.33333 1C6.64025 1.00747 6.94234 1.07809 7.22077 1.20744C7.4992 1.3368 7.748 1.52212 7.95165 1.75186C8.15531 1.9816 8.30945 2.25082 8.40448 2.54276C8.49952 2.83469 8.53339 3.14307 8.504 3.44867C8.55091 3.92862 8.49581 4.41308 8.34232 4.87024C8.18882 5.3274 7.94039 5.74694 7.61333 6.10133C7.408 6.32733 7.332 7.538 7.79533 7.70933C9.51 8.34467 10.876 8.798 11.2027 9.452" stroke="#B08A2E" stroke-linecap="round" stroke-linejoin="round"/>
</svg>
