<svg width="98" height="26" viewBox="0 0 98 26" fill="none" xmlns="http://www.w3.org/2000/svg">
<path d="M10 16C11.6569 16 13 14.6569 13 13C13 11.3431 11.6569 10 10 10C8.34315 10 7 11.3431 7 13C7 14.6569 8.34315 16 10 16Z" fill="#FB4848"/>
<path d="M4 13C4 11.4 4.6 9.9 5.8 8.7C6.2 8.3 6.2 7.7 5.8 7.3C5.4 6.9 4.8 6.9 4.4 7.3C2.9 8.8 2 10.8 2 13C2 15.2 2.9 17.2 4.4 18.7C4.6 18.9 4.9 19 5.1 19C5.4 19 5.6 18.9 5.8 18.7C6.2 18.3 6.2 17.7 5.8 17.3C4.6 16.1 4 14.6 4 13Z" fill="#FB4848"/>
<path d="M15.6 7.3C15.2 6.9 14.6 6.9 14.2 7.3C13.8 7.7 13.8 8.3 14.2 8.7C15.4 9.9 16 11.4 16 13C16 14.6 15.4 16.1 14.2 17.3C13.8 17.7 13.8 18.3 14.2 18.7C14.4 18.9 14.7 19 14.9 19C15.2 19 15.4 18.9 15.6 18.7C17.1 17.2 18 15.2 18 13C18 10.8 17.1 8.8 15.6 7.3Z" fill="#FB4848"/>
<path d="M27.19 7.34H28.394V15.908H33.014V17H27.19V7.34ZM35.2537 17H34.1337V10H35.2537V17ZM35.3237 8.6H34.0637V7.34H35.3237V8.6ZM39.905 15.572L42.033 10H43.293L40.493 17H39.373L36.517 10H37.777L39.905 15.572ZM48.5696 15.32L49.4376 15.936C49.195 16.356 48.8776 16.6593 48.4856 16.846C48.103 17.0233 47.6036 17.112 46.9876 17.112C46.0543 17.112 45.3216 16.832 44.7896 16.272C44.2576 15.7027 43.9916 14.928 43.9916 13.948V13.024C43.9916 12.016 44.2296 11.2413 44.7056 10.7C45.1816 10.1587 45.8676 9.888 46.7636 9.888C47.6783 9.888 48.369 10.1587 48.8356 10.7C49.3023 11.232 49.5356 12.0067 49.5356 13.024V13.752H45.1116V13.948C45.1116 14.6013 45.2656 15.124 45.5736 15.516C45.8816 15.908 46.325 16.104 46.9036 16.104C47.7156 16.104 48.271 15.8427 48.5696 15.32ZM46.7636 10.896C45.737 10.896 45.1863 11.5213 45.1116 12.772H48.4016C48.3456 11.5213 47.7996 10.896 46.7636 10.896ZM59.4516 11.05L58.6116 11.638C58.4156 11.3767 58.1916 11.1947 57.9396 11.092C57.6876 10.98 57.3329 10.924 56.8756 10.924C56.4556 10.924 56.1242 11.008 55.8816 11.176C55.6389 11.3347 55.5176 11.5633 55.5176 11.862C55.5176 12.5247 56.0589 12.8933 57.1416 12.968C57.8602 13.024 58.4389 13.1827 58.8776 13.444C59.4002 13.7333 59.6616 14.27 59.6616 15.054C59.6616 15.7073 59.4376 16.216 58.9896 16.58C58.5416 16.9347 57.8882 17.112 57.0296 17.112C55.7882 17.112 54.8876 16.7247 54.3276 15.95L55.1536 15.362C55.3496 15.614 55.5876 15.796 55.8676 15.908C56.1569 16.02 56.5489 16.076 57.0436 16.076C57.5102 16.076 57.8742 15.992 58.1356 15.824C58.4062 15.6467 58.5416 15.3993 58.5416 15.082C58.5416 14.7087 58.4109 14.4427 58.1496 14.284C57.8882 14.116 57.4169 14.0087 56.7356 13.962C55.1769 13.85 54.3976 13.1547 54.3976 11.876C54.3976 11.2693 54.6169 10.7887 55.0556 10.434C55.4942 10.07 56.1102 9.888 56.9036 9.888C58.1076 9.888 58.9569 10.2753 59.4516 11.05ZM61.4791 11.008H60.5831V10H61.4791V8.46H62.5991V10H64.2091V11.008H62.5991V14.564C62.5991 15.1053 62.6644 15.4693 62.7951 15.656C62.9257 15.8427 63.2104 15.936 63.6491 15.936H64.2091V17H63.6071C62.8137 17 62.2584 16.8367 61.9411 16.51C61.6331 16.174 61.4791 15.6187 61.4791 14.844V11.008ZM70.3611 10.84L69.4091 11.512C69.1291 11.12 68.7371 10.924 68.2331 10.924C67.7851 10.924 67.4211 11.0827 67.1411 11.4C66.8704 11.708 66.7351 12.114 66.7351 12.618V17H65.6151V10H66.7351V10.686C67.0617 10.154 67.6031 9.888 68.3591 9.888C69.2457 9.888 69.9131 10.2053 70.3611 10.84ZM75.3528 15.32L76.2208 15.936C75.9782 16.356 75.6608 16.6593 75.2688 16.846C74.8862 17.0233 74.3868 17.112 73.7708 17.112C72.8375 17.112 72.1048 16.832 71.5728 16.272C71.0408 15.7027 70.7748 14.928 70.7748 13.948V13.024C70.7748 12.016 71.0128 11.2413 71.4888 10.7C71.9648 10.1587 72.6508 9.888 73.5468 9.888C74.4615 9.888 75.1522 10.1587 75.6188 10.7C76.0855 11.232 76.3188 12.0067 76.3188 13.024V13.752H71.8948V13.948C71.8948 14.6013 72.0488 15.124 72.3568 15.516C72.6648 15.908 73.1082 16.104 73.6868 16.104C74.4988 16.104 75.0542 15.8427 75.3528 15.32ZM73.5468 10.896C72.5202 10.896 71.9695 11.5213 71.8948 12.772H75.1848C75.1288 11.5213 74.5828 10.896 73.5468 10.896ZM77.6108 14.956C77.6108 13.6213 78.4834 12.954 80.2288 12.954H81.8948V12.142C81.8948 11.6753 81.7781 11.358 81.5448 11.19C81.3208 11.0127 80.9194 10.924 80.3408 10.924C79.8554 10.924 79.5008 10.9707 79.2768 11.064C79.0528 11.1573 78.8474 11.3487 78.6608 11.638L77.8208 11.05C78.0728 10.63 78.3901 10.3313 78.7728 10.154C79.1648 9.97667 79.6921 9.888 80.3548 9.888C81.2881 9.888 81.9648 10.0607 82.3848 10.406C82.8048 10.7513 83.0148 11.33 83.0148 12.142V17H81.8948V16.314C81.7081 16.622 81.4841 16.832 81.2228 16.944C80.9708 17.056 80.6021 17.112 80.1168 17.112C79.3141 17.112 78.6934 16.9253 78.2548 16.552C77.8254 16.1693 77.6108 15.6373 77.6108 14.956ZM81.8948 14.312V13.906H80.2288C79.7061 13.906 79.3234 13.9947 79.0808 14.172C78.8474 14.34 78.7308 14.6107 78.7308 14.984C78.7308 15.712 79.1928 16.076 80.1168 16.076C80.7048 16.076 81.1481 15.964 81.4468 15.74C81.7454 15.4973 81.8948 15.0213 81.8948 14.312ZM85.9577 17H84.8377V10H85.9577V10.686C86.3031 10.154 86.8817 9.888 87.6937 9.888C88.6551 9.888 89.3364 10.2567 89.7377 10.994C90.2137 10.2567 90.9137 9.888 91.8377 9.888C92.6031 9.888 93.1957 10.126 93.6157 10.602C94.0357 11.0687 94.2457 11.7453 94.2457 12.632V17H93.1257V12.646C93.1257 11.498 92.6404 10.924 91.6697 10.924C91.2217 10.924 90.8484 11.0873 90.5497 11.414C90.2511 11.7313 90.1017 12.1373 90.1017 12.632V17H88.9817V12.646C88.9817 11.498 88.4964 10.924 87.5257 10.924C87.0777 10.924 86.7044 11.0873 86.4057 11.414C86.1071 11.7407 85.9577 12.1467 85.9577 12.632V17Z" fill="#1C1B18" fill-opacity="0.6"/>
<rect x="1" y="1" width="96" height="24" rx="12" stroke="white" stroke-opacity="0.2" stroke-width="2"/>
</svg>
