<svg width="76" height="34" viewBox="0 0 76 34" fill="none" xmlns="http://www.w3.org/2000/svg">
<path d="M59.3233 33.5078C59.0112 33.3431 58.6875 33.2013 58.3548 33.0834C57.0971 32.7312 56.7827 31.986 57.0436 30.7062C57.3046 29.4265 57.8329 29.0083 59.185 29.0932C60.3027 29.1796 61.4212 28.9357 62.4016 28.392C64.2411 27.2285 64.1813 26.6689 63.3701 24.647C61.4395 19.8487 59.5748 15.0253 57.7417 10.1829C57.1317 8.57303 57.3706 8.29632 58.9994 7.98189C63.4015 7.1392 62.5683 7.66745 63.5965 10.8118C64.5681 13.7864 65.5397 16.761 66.8509 19.7544C67.1245 19.0092 67.4389 18.2734 67.6653 17.5125C68.4797 14.7548 69.3098 12.0035 70.0424 9.22392C70.3946 7.89699 71.0927 7.3373 72.4227 7.71148C73.5075 8.00705 74.5797 8.34035 75.6583 8.67365V9.61696C75.4319 10.1955 75.2024 10.7772 74.9791 11.3589C72.8755 16.8144 70.8254 22.295 68.6463 27.7096C67.5898 30.3415 65.9296 32.5268 63.0808 33.5016L59.3233 33.5078Z" fill="#54BFF9"/>
<path d="M0.209229 14.9564C0.347581 14.5665 0.504801 14.1798 0.624287 13.7836C2.04554 9.10476 6.05146 6.37858 10.7397 6.90998C15.516 7.45081 18.7704 10.8687 19.1037 15.7928C19.2041 17.0446 19.1545 18.304 18.9559 19.5441C18.1667 24.0782 14.8997 27.0119 10.5259 27.2509C5.63955 27.515 2.16188 25.1662 0.718614 20.6477C0.580262 20.2106 0.382169 19.7956 0.209229 19.3711V14.9564ZM13.8684 17.016C13.4753 15.5947 13.3087 14.1483 12.6955 12.9283C12.4333 12.3638 12.0164 11.8852 11.4931 11.548C10.9699 11.2108 10.3618 11.0289 9.7394 11.0233C9.11697 11.0177 8.5057 11.1887 7.97651 11.5164C7.44731 11.8441 7.02186 12.3151 6.74951 12.8749C6.043 14.1696 5.67803 15.6231 5.68903 17.098C5.70003 18.573 6.08665 20.0208 6.8124 21.3049C7.08899 21.8456 7.51123 22.2982 8.03143 22.6116C8.55163 22.925 9.14908 23.0867 9.75634 23.0785C10.3636 23.0704 10.9565 22.8926 11.4681 22.5653C11.9796 22.238 12.3895 21.7742 12.6515 21.2263C13.2898 19.956 13.469 18.4561 13.8684 17.016Z" fill="#54BFF9"/>
<path d="M44.8591 0.492188C46.0728 1.91973 45.576 2.83475 44.2617 4.03589C37.6302 10.0888 32.5112 17.3617 27.9676 25.0403C27.15 26.4238 26.2979 27.0149 24.7634 26.8074C24.1358 26.7567 23.5054 26.7504 22.8768 26.7885C21.8989 26.7885 21.4556 26.3137 21.4556 25.339C21.4556 19.9474 21.4556 14.5569 21.4556 9.1675C21.4556 8.133 21.965 7.63932 22.9366 7.50097C27.3135 6.8721 26.9268 6.35328 26.9205 10.6673C26.9205 12.4974 26.9205 14.3284 26.9205 16.1606C26.9473 16.3109 26.9884 16.4583 27.0431 16.6008C27.282 16.4187 27.507 16.219 27.716 16.0033C32.4609 10.2429 37.6239 4.93204 43.9409 0.853797C44.0578 0.751151 44.1557 0.628746 44.2302 0.492188H44.8591Z" fill="#54BFF9"/>
<path d="M51.2707 14.9312C51.4185 12.705 50.2739 11.3655 47.9502 11.2397C46.6076 11.1674 45.2398 11.3938 43.894 11.5541C43.0324 11.6547 42.4319 11.4818 42.3218 10.5196C42.2118 9.55746 41.5074 8.28399 42.9507 7.82177C45.9221 6.87846 48.9533 6.37222 52.0505 7.35326C54.6194 8.16451 56.2671 9.89705 56.4148 12.5352C56.6601 16.8681 56.6035 21.2168 56.6129 25.5591C56.5697 25.7646 56.4757 25.956 56.3395 26.1158C56.2033 26.2757 56.0292 26.3989 55.8331 26.4741C52.2832 27.2225 48.6954 27.6659 45.0857 26.9647C41.7307 26.3106 40.1113 24.3706 40.0547 21.135C39.9887 17.9498 41.5829 15.9374 44.9128 15.1607C45.9857 14.9273 47.0788 14.7988 48.1766 14.7771C49.208 14.7362 50.2425 14.8714 51.2707 14.9312ZM51.3587 18.4403C49.7865 18.5661 48.2647 18.4969 46.8686 18.8868C46.2711 19.0566 45.5668 20.1917 45.5888 20.8615C45.6108 21.5312 46.3938 22.5594 47.0226 22.7198C48.3841 23.0625 49.8526 22.9493 51.3587 23.0342V18.4403Z" fill="#54BFF9"/>
<path d="M39.6646 26.2759C35.9134 27.7789 32.4546 26.4111 31.2252 23.2322C31.1792 23.0691 31.1666 22.8984 31.1883 22.7304C31.2099 22.5624 31.2652 22.4004 31.351 22.2543C32.1528 20.9777 33.0143 19.7388 34.0771 18.1509C36.0235 20.9777 37.8189 23.5875 39.6646 26.2759Z" fill="#54BFF9"/>
</svg>
