<svg width="44" height="44" viewBox="0 0 44 44" fill="none" xmlns="http://www.w3.org/2000/svg">
<path d="M12.8333 35.75V37.5833C12.8333 41.7083 8.25 42.1667 8.25 42.1667C8.25 42.1667 35.4356 42.1667 35.75 42.1667C38.2809 42.1667 40.3333 40.1142 40.3333 37.5833V35.75H12.8333Z" stroke="#1C1B18" stroke-width="2" stroke-miterlimit="10" stroke-linecap="square"/>
<path d="M34.8334 31.1667V13.5M8.25008 42.1667C5.71917 42.1667 3.66675 40.1143 3.66675 37.5834V4.83337H27.5001" stroke="#1C1B18" stroke-width="2" stroke-miterlimit="10" stroke-linecap="square"/>
<path d="M11 13H27.5" stroke="#1C1B18" stroke-width="2" stroke-miterlimit="10" stroke-linecap="square"/>
<path d="M11 20.3334H27.5" stroke="#1C1B18" stroke-width="2" stroke-miterlimit="10" stroke-linecap="square"/>
<path d="M11 27.6667H27.5" stroke="#1C1B18" stroke-width="2" stroke-miterlimit="10" stroke-linecap="square"/>
<path d="M35 9C37.2091 9 39 7.20914 39 5C39 2.79086 37.2091 1 35 1C32.7909 1 31 2.79086 31 5C31 7.20914 32.7909 9 35 9Z" stroke="#FEBF10" stroke-width="2" stroke-miterlimit="10" stroke-linecap="square"/>
</svg>
