<svg width="32" height="32" viewBox="0 0 32 32" fill="none" xmlns="http://www.w3.org/2000/svg">
<g clip-path="url(#clip0)">
<path d="M19.8356 24.1512C18.5824 23.2676 17.0993 22.6118 15.4864 22.2112C16.9813 20.8772 17.945 18.7803 17.945 16.4285C17.945 12.4174 15.1387 9.14092 11.6739 9.14092C8.20932 9.14092 5.40297 12.4174 5.40297 16.4285C5.40297 18.7804 6.36669 20.8772 7.86157 22.2112C6.24868 22.6117 4.76553 23.2676 3.51226 24.1512C1.21844 25.7685 -0.05 27.955 -0.05 30.3094C-0.05 30.8514 0.389431 31.2908 0.931451 31.2908H22.4164C22.9584 31.2908 23.3979 30.8514 23.3979 30.3094C23.3979 27.955 22.1295 25.7685 19.8356 24.1512ZM7.36582 16.4285C7.36582 13.4822 9.3077 11.1038 11.6739 11.1038C14.0401 11.1038 15.9821 13.4823 15.9821 16.4285C15.9821 19.375 14.04 21.7534 11.6739 21.7534C9.30785 21.7534 7.36582 19.375 7.36582 16.4285ZM17.945 29.3279V27.7143C17.945 27.1723 17.5055 26.7329 16.9635 26.7329C16.4215 26.7329 15.9821 27.1723 15.9821 27.7143V29.3279H7.36582V27.7143C7.36582 27.1723 6.92639 26.7329 6.38437 26.7329C5.84235 26.7329 5.40292 27.1723 5.40292 27.7143V29.3279H2.02232C2.32088 27.9998 3.22323 26.7569 4.64335 25.7556C6.50697 24.4416 9.00356 23.7163 11.6738 23.7163C14.3444 23.7163 16.8409 24.4415 18.7043 25.7556C20.1244 26.7569 21.0269 27.9999 21.3253 29.3279H17.945Z" fill="#121331" stroke="#121331" stroke-width="0.1"/>
<path d="M20.7693 2.67169H31.0679C31.6099 2.67169 32.0493 2.23226 32.0493 1.69024C32.0493 1.14822 31.6099 0.708789 31.0679 0.708789H20.7693C20.2273 0.708789 19.7879 1.14822 19.7879 1.69024C19.7879 2.23226 20.2274 2.67169 20.7693 2.67169Z" fill="#FEBF10" stroke="#FEBF10" stroke-width="0.1"/>
<path d="M31.0679 6.41826H20.7693C20.2273 6.41826 19.7879 6.85769 19.7879 7.39971C19.7879 7.94189 20.2273 8.38116 20.7693 8.38116H31.0679C31.6099 8.38116 32.0493 7.94189 32.0493 7.39971C32.0494 6.85769 31.6099 6.41826 31.0679 6.41826Z" fill="#FEBF10" stroke="#FEBF10" stroke-width="0.1"/>
<path d="M31.0679 12.1277H20.7693C20.2273 12.1277 19.7879 12.5672 19.7879 13.1092C19.7879 13.6512 20.2273 14.0906 20.7693 14.0906H31.0679C31.6099 14.0906 32.0493 13.6512 32.0493 13.1092C32.0494 12.5672 31.6099 12.1277 31.0679 12.1277Z" fill="#FEBF10" stroke="#FEBF10" stroke-width="0.1"/>
</g>
<defs>
<clipPath id="clip0">
<rect width="32" height="32" fill="white"/>
</clipPath>
</defs>
</svg>
