<svg width="152" height="52" viewBox="0 0 152 52" fill="none" xmlns="http://www.w3.org/2000/svg">
<g clip-path="url(#clip0)">
<path d="M139.466 15.2646H0V48.5632H139.466V15.2646Z" fill="#25211C"/>
<path d="M8.31452 29.3895C6.23594 29.3895 4.77148 28.1258 4.77148 25.2914V23.9805C4.77148 21.1165 6.23594 19.8824 8.31452 19.8824C10.3931 19.8824 11.8576 21.1165 11.8576 23.9805V25.2914C11.8576 28.1258 10.399 29.3895 8.31452 29.3895ZM6.64929 25.2914C6.64929 27.0629 7.2398 27.807 8.31452 27.807C9.38924 27.807 9.99156 27.0688 9.99156 25.2914V23.9805C9.99156 22.209 9.40105 21.4649 8.31452 21.4649C7.22799 21.4649 6.64929 22.209 6.64929 23.9805V25.2914Z" fill="white"/>
<path d="M15.6307 25.9823V29.2478H13.7529V20.0063H17.0657C19.2033 20.0063 20.5319 20.9866 20.5319 22.9589C20.5319 24.9312 19.2151 25.9823 17.0657 25.9823H15.6307ZM16.8118 24.3997C18.1109 24.3997 18.6659 23.9391 18.6659 22.9471C18.6659 22.0613 18.1109 21.5771 16.8118 21.5771H15.6307V24.3997H16.8118Z" fill="white"/>
<path d="M27.783 20.0063V21.6007H23.8856V23.6852H27.3814V25.2678H23.8856V27.6829H27.783V29.2655H22.0078V20.0063H27.783Z" fill="white"/>
<path d="M36.3869 20.0063V29.2655H34.8162L31.2082 23.5376V29.2655H29.4189V20.0063H30.9779L34.6036 25.8169V20.0063H36.3869Z" fill="white"/>
<path d="M43.7679 20.0772C45.941 20.0772 47.1279 20.8508 47.1279 22.4924C47.1411 22.9019 47.0325 23.3062 46.816 23.6541C46.5995 24.002 46.2847 24.2779 45.9115 24.447C46.3735 24.5875 46.7741 24.8809 47.0477 25.2789C47.3213 25.6769 47.4516 26.156 47.4173 26.6377C47.4173 28.0609 46.4843 29.2714 44.0632 29.2714H40.6914V20.0772H43.7679ZM42.5574 23.7147H43.7916C44.8191 23.7147 45.2619 23.3191 45.2619 22.6636C45.2619 22.0082 44.9431 21.648 43.5967 21.648H42.5574V23.7147ZM42.5574 27.7006H43.8979C45.0198 27.7006 45.5513 27.2755 45.5513 26.5196C45.5513 25.7638 44.9608 25.3386 43.7266 25.3386H42.5456L42.5574 27.7006Z" fill="white"/>
<path d="M48.1377 29.2478L51.3382 20.0772H53.1098L56.3103 29.2714H54.3262L53.7357 27.4999H50.7005L50.11 29.2714L48.1377 29.2478ZM51.1906 25.9291H53.2692L52.2299 22.6932L51.1906 25.9291Z" fill="white"/>
<path d="M64.4422 20.0536V29.2478H62.8774L59.293 23.5612V29.2478H57.5215V20.0536H59.0686L62.6648 25.8228V20.0536H64.4422Z" fill="white"/>
<path d="M71.9004 29.2478L69.5561 25.3741L68.4637 26.809V29.2478H66.5977V20.0536H68.4637V24.0277L71.3689 20.0536H73.5833L70.7725 23.7738L74.1266 29.2478H71.9004Z" fill="white"/>
<path d="M77.5271 20.0536H75.6611V29.2478H77.5271V20.0536Z" fill="white"/>
<path d="M86.7215 20.0536V29.2478H85.1625L81.5782 23.5612V29.2478H79.8066V20.0536H81.3538L84.95 25.8228V20.0536H86.7215Z" fill="white"/>
<path d="M95.5085 24.4647V25.3032C95.5085 28.1199 94.1976 29.3718 92.119 29.3718C90.0404 29.3718 88.6055 28.1199 88.6055 25.3032V24.1222C88.6055 21.1697 90.0522 19.9237 92.119 19.9237C94.0558 19.9237 95.2132 21.0161 95.4908 22.8762H93.7193C93.6803 22.4857 93.4922 22.1253 93.194 21.8701C92.8959 21.6149 92.5108 21.4845 92.119 21.5063C91.0443 21.5063 90.4656 22.2385 90.4656 23.9982V25.3032C90.4656 27.0747 91.0561 27.7952 92.119 27.7952C93.1819 27.7952 93.6012 27.1456 93.7074 26.0236H92.1603V24.4647H95.5085Z" fill="white"/>
<path d="M11.6803 32.779V34.6864H7.03299V37.1724H11.1961V39.062H7.03299V41.9437H11.6803V43.8333H4.78906V32.779H11.6803Z" fill="#F9BF14"/>
<path d="M12.749 43.8333L15.861 38.129L13.0856 32.779H15.5244L17.2841 36.3043L19.0615 32.779H21.4826L18.6954 38.129L21.8192 43.8333H19.3981L17.2841 40.0718L15.1878 43.8333H12.749Z" fill="#F9BF14"/>
<path d="M29.0289 36.2099C28.9911 35.7368 28.7711 35.297 28.4153 34.983C28.0595 34.669 27.5956 34.5055 27.1216 34.5269C25.8284 34.5269 25.1375 35.4068 25.1375 37.5208V39.0915C25.1375 41.1406 25.8284 42.0854 27.1216 42.0854C28.2435 42.0854 28.7927 41.5303 29.0289 40.4084H31.1606C30.7945 42.8885 29.3891 43.9514 27.1216 43.9514C24.6415 43.9514 22.8936 42.4456 22.8936 39.062V37.5208C22.8936 34.1077 24.6651 32.6373 27.1216 32.6373C29.3183 32.6373 30.8063 33.7888 31.1784 36.1803L29.0289 36.2099Z" fill="#F9BF14"/>
<path d="M40.0367 32.779V34.6864H35.3894V37.1724H39.5584V39.062H35.3894V41.9437H40.0367V43.8333H33.1514V32.779H40.0367Z" fill="#F9BF14"/>
<path d="M44.2351 41.9437H48.8824V43.8333H41.9912V32.779H44.2351V41.9437Z" fill="#F9BF14"/>
<path d="M52.7146 41.9437H57.356V43.8333H50.4707V32.779H52.7146V41.9437Z" fill="#F9BF14"/>
<path d="M65.8356 32.779V34.6864H61.1883V37.1724H65.3513V39.062H61.1883V41.9437H65.8356V43.8333H58.9443V32.779H65.8356Z" fill="#F9BF14"/>
<path d="M76.1044 32.779V43.8333H74.2266L69.9218 36.9952V43.8333H67.79V32.779H69.6442L73.9726 39.7175V32.779H76.1044Z" fill="#F9BF14"/>
<path d="M84.5016 36.2099C84.4624 35.7374 84.242 35.2984 83.8865 34.9847C83.531 34.671 83.068 34.507 82.5943 34.5269C81.2952 34.5269 80.6043 35.4068 80.6043 37.5208V39.0915C80.6043 41.1406 81.2952 42.0854 82.5943 42.0854C83.7162 42.0854 84.2595 41.5303 84.5016 40.4084H86.6274C86.2613 42.8885 84.8559 43.9514 82.5943 43.9514C80.1082 43.9514 78.3604 42.4456 78.3604 39.062V37.5208C78.3604 34.1077 80.1319 32.6373 82.5943 32.6373C84.7851 32.6373 86.279 33.7888 86.6452 36.1803L84.5016 36.2099Z" fill="#F9BF14"/>
<path d="M95.5084 32.779V34.6864H90.8611V37.1724H95.0242V39.062H90.8611V41.9437H95.5084V43.8333H88.6172V32.779H95.5084Z" fill="#F9BF14"/>
<path d="M130.868 19.8351H130.815L124.373 0L122.495 5.40313L128.306 23.2778H134.919L139.508 19.8351H130.868Z" fill="#FEBF10"/>
<path d="M117.812 19.7229L117.8 19.7701H96.9434L101.502 23.2305L120.298 23.2187L122.341 16.9357L120.481 11.5031L117.812 19.7229Z" fill="#B58D2E"/>
<path d="M113.726 32.0114L113.767 32.0409L107.325 51.876L112.019 48.6046L117.824 30.7241L112.474 26.8385L106.734 26.933L113.726 32.0114Z" fill="#B58D2E"/>
<path d="M124.225 39.7706L124.266 39.7411L141.137 52L139.478 46.526L124.266 35.4835L118.916 39.3691L117.233 44.849L124.225 39.7706Z" fill="#FEBF10"/>
<path d="M134.741 32.2121L134.724 32.1649L151.594 19.906L145.878 19.7879L130.673 30.8422L132.716 37.131L137.411 40.432L134.741 32.2121Z" fill="#FEBF10"/>
</g>
<defs>
<clipPath id="clip0">
<rect width="151.595" height="52" fill="white"/>
</clipPath>
</defs>
</svg>
