<svg width="58" height="57" viewBox="0 0 58 57" fill="none" xmlns="http://www.w3.org/2000/svg">
<path d="M40.419 55.802V32.1735L46.136 37.6305L41.23 45.0455C40.6358 45.7587 40.3492 46.6787 40.4333 47.6032C40.5174 48.5276 40.9653 49.3808 41.6785 49.975C42.3917 50.5693 43.3117 50.8558 44.2362 50.7717C45.1606 50.6876 46.0138 50.2397 46.608 49.5265L53.608 39.5985C54.1763 38.9168 54.4644 38.0445 54.4139 37.1584C54.3634 36.2722 53.9781 35.4383 53.336 34.8255L42.336 24.3255C41.6848 23.7041 40.8192 23.3574 39.919 23.3575H18.919C18.0188 23.3574 17.1532 23.7041 16.502 24.3255L5.50202 34.8255C4.85992 35.4383 4.47463 36.2722 4.42413 37.1584C4.37363 38.0445 4.6617 38.9168 5.23002 39.5985L12.23 49.5265C12.8242 50.2397 13.6774 50.6876 14.6019 50.7717C15.5263 50.8558 16.4464 50.5693 17.1595 49.975C17.8727 49.3808 18.3206 48.5276 18.4047 47.6032C18.4888 46.6787 18.2022 45.7587 17.608 45.0455L12.702 37.6305L18.419 32.1735V55.802" stroke="#1C1B18" stroke-width="2" stroke-miterlimit="10" stroke-linecap="square"/>
<path d="M29.4194 18.3575C33.8377 18.3575 37.4194 14.7758 37.4194 10.3575C37.4194 5.93927 33.8377 2.35754 29.4194 2.35754C25.0012 2.35754 21.4194 5.93927 21.4194 10.3575C21.4194 14.7758 25.0012 18.3575 29.4194 18.3575Z" stroke="#FEBF10" stroke-width="2" stroke-miterlimit="10" stroke-linecap="square"/>
<path d="M48.6786 11.802C51.4605 11.802 53.7157 9.54682 53.7157 6.76494C53.7157 3.98306 51.4605 1.72791 48.6786 1.72791C45.8968 1.72791 43.6416 3.98306 43.6416 6.76494C43.6416 9.54682 45.8968 11.802 48.6786 11.802Z" stroke="#1C1B18" stroke-width="2" stroke-miterlimit="10" stroke-linecap="square"/>
<path d="M53.1232 30.7649V28.3945C53.1232 27.4127 53.9191 26.6167 54.9009 26.6167V26.6167C55.8828 26.6167 56.6787 25.8208 56.6787 24.839L56.6787 16.9501C56.6787 16.3978 56.231 15.9501 55.6787 15.9501H41.6787C41.1264 15.9501 40.6787 16.3978 40.6787 16.9501V20.6908" stroke="#1C1B18" stroke-width="2"/>
<path d="M9.56746 11.802C6.78558 11.802 4.53042 9.54682 4.53042 6.76494C4.53042 3.98306 6.78558 1.72791 9.56746 1.72791C12.3493 1.72791 14.6045 3.98306 14.6045 6.76494C14.6045 9.54682 12.3493 11.802 9.56746 11.802Z" stroke="#1C1B18" stroke-width="2" stroke-miterlimit="10" stroke-linecap="square"/>
<path d="M5.12294 30.7649V28.3945C5.12294 27.4127 4.327 26.6167 3.34516 26.6167V26.6167C2.36332 26.6167 1.56738 25.8208 1.56738 24.839L1.56738 16.9501C1.56738 16.3978 2.0151 15.9501 2.56738 15.9501H16.5674C17.1197 15.9501 17.5674 16.3978 17.5674 16.9501V20.6908" stroke="#1C1B18" stroke-width="2"/>
<path d="M30.4194 32.3575H35.4194" stroke="#1C1B18" stroke-width="2" stroke-miterlimit="10" stroke-linecap="square"/>
</svg>
