<svg width="63" height="63" viewBox="0 0 63 63" fill="none" xmlns="http://www.w3.org/2000/svg">
<path d="M47.6744 28.4316C48.7994 31.2106 49.4194 34.2486 49.4194 37.4316C49.4194 50.6866 38.6744 61.4316 25.4194 61.4316C12.1644 61.4316 1.41943 50.6866 1.41943 37.4316C1.41943 24.1766 12.1644 13.4316 25.4194 13.4316C28.6014 13.4316 31.6394 14.0506 34.4184 15.1756" stroke="#1C1B18" stroke-width="2" stroke-miterlimit="10"/>
<path d="M25.4194 50.4316C32.5991 50.4316 38.4194 44.6113 38.4194 37.4316C38.4194 30.2519 32.5991 24.4316 25.4194 24.4316C18.2397 24.4316 12.4194 30.2519 12.4194 37.4316C12.4194 44.6113 18.2397 50.4316 25.4194 50.4316Z" stroke="#1C1B18" stroke-width="2" stroke-miterlimit="10" stroke-linecap="square"/>
<path d="M25.4194 37.4316L57.4194 5.43164" stroke="#FEBF10" stroke-width="2" stroke-miterlimit="10" stroke-linecap="square"/>
<path d="M50.4194 12.4316L48.4194 2.43164L40.4194 10.4316L42.4194 20.4316L52.4194 22.4316L60.4194 14.4316L50.4194 12.4316Z" stroke="#FEBF10" stroke-width="2" stroke-miterlimit="10" stroke-linecap="square"/>
</svg>
