<svg width="13" height="11" viewBox="0 0 13 11" fill="none" xmlns="http://www.w3.org/2000/svg">
<path d="M12.5 1.65415C12.0486 1.85103 11.5712 1.98187 11.0825 2.04265C11.5975 1.73712 11.9826 1.25332 12.1648 0.6829C11.6825 0.968903 11.1549 1.17031 10.6047 1.2784C10.2674 0.918235 9.82959 0.66784 9.34812 0.559746C8.86664 0.451653 8.36379 0.490858 7.90488 0.672269C7.44598 0.853679 7.05224 1.16891 6.77482 1.577C6.4974 1.9851 6.34912 2.46719 6.34925 2.96065C6.34925 3.15565 6.36575 3.34315 6.40625 3.52165C5.42756 3.47367 4.47002 3.21966 3.59623 2.77624C2.72243 2.33282 1.95207 1.70996 1.3355 0.948401C1.01961 1.48979 0.921957 2.13123 1.06241 2.7421C1.20287 3.35297 1.57088 3.88734 2.0915 4.2364C1.70207 4.22596 1.32086 4.12204 0.98 3.9334V3.9604C0.980652 4.52847 1.177 5.07898 1.53599 5.51925C1.89498 5.95951 2.39469 6.26266 2.951 6.37765C2.74054 6.43312 2.52364 6.46035 2.306 6.45865C2.14969 6.46143 1.99354 6.44735 1.84025 6.41665C1.99921 6.90492 2.30562 7.3319 2.7173 7.63882C3.12897 7.94573 3.62567 8.11747 4.139 8.1304C3.2682 8.81143 2.19423 9.18087 1.08875 9.17965C0.887 9.17965 0.6935 9.17065 0.5 9.1459C1.62491 9.87081 2.93576 10.2543 4.274 10.2499C8.801 10.2499 11.276 6.4999 11.276 3.2494C11.276 3.14065 11.2723 3.03565 11.267 2.9314C11.7522 2.58414 12.1701 2.15131 12.5 1.65415Z" fill="white" fill-opacity="0.6"/>
</svg>
